<?xml version="1.0" encoding="utf-8"?>
<svg xmlns="http://www.w3.org/2000/svg" xmlns:xlink="http://www.w3.org/1999/xlink" width="1000" height="250" viewBox="0 0 4000 1000">
<defs>
  <clipPath id="clip620">
    <rect x="0" y="0" width="4000" height="1000"/>
  </clipPath>
</defs>
<path clip-path="url(#clip620)" d="
M0 1000 L4000 1000 L4000 0 L0 0  Z
  " fill="#ffffff" fill-rule="evenodd" fill-opacity="1"/>
<defs>
  <clipPath id="clip621">
    <rect x="800" y="0" width="2801" height="1000"/>
  </clipPath>
</defs>
<path clip-path="url(#clip620)" d="
M118.74 911.26 L1952.76 911.26 L1952.76 62.9921 L118.74 62.9921  Z
  " fill="#ffffff" fill-rule="evenodd" fill-opacity="1"/>
<defs>
  <clipPath id="clip622">
    <rect x="118" y="62" width="1835" height="849"/>
  </clipPath>
</defs>
<polyline clip-path="url(#clip622)" style="stroke:#000000; stroke-width:2; stroke-opacity:0.1; fill:none" points="
  168.914,911.26 168.914,62.9921 
  "/>
<polyline clip-path="url(#clip622)" style="stroke:#000000; stroke-width:2; stroke-opacity:0.1; fill:none" points="
  601.898,911.26 601.898,62.9921 
  "/>
<polyline clip-path="url(#clip622)" style="stroke:#000000; stroke-width:2; stroke-opacity:0.1; fill:none" points="
  1034.88,911.26 1034.88,62.9921 
  "/>
<polyline clip-path="url(#clip622)" style="stroke:#000000; stroke-width:2; stroke-opacity:0.1; fill:none" points="
  1467.87,911.26 1467.87,62.9921 
  "/>
<polyline clip-path="url(#clip622)" style="stroke:#000000; stroke-width:2; stroke-opacity:0.1; fill:none" points="
  1900.85,911.26 1900.85,62.9921 
  "/>
<polyline clip-path="url(#clip620)" style="stroke:#000000; stroke-width:4; stroke-opacity:1; fill:none" points="
  118.74,911.26 1952.76,911.26 
  "/>
<polyline clip-path="url(#clip620)" style="stroke:#000000; stroke-width:4; stroke-opacity:1; fill:none" points="
  168.914,911.26 168.914,901.081 
  "/>
<polyline clip-path="url(#clip620)" style="stroke:#000000; stroke-width:4; stroke-opacity:1; fill:none" points="
  601.898,911.26 601.898,901.081 
  "/>
<polyline clip-path="url(#clip620)" style="stroke:#000000; stroke-width:4; stroke-opacity:1; fill:none" points="
  1034.88,911.26 1034.88,901.081 
  "/>
<polyline clip-path="url(#clip620)" style="stroke:#000000; stroke-width:4; stroke-opacity:1; fill:none" points="
  1467.87,911.26 1467.87,901.081 
  "/>
<polyline clip-path="url(#clip620)" style="stroke:#000000; stroke-width:4; stroke-opacity:1; fill:none" points="
  1900.85,911.26 1900.85,901.081 
  "/>
<path clip-path="url(#clip620)" d="M 0 0 M168.914 953.251 Q165.303 953.251 163.475 956.815 Q161.669 960.357 161.669 967.487 Q161.669 974.593 163.475 978.158 Q165.303 981.699 168.914 981.699 Q172.549 981.699 174.354 978.158 Q176.183 974.593 176.183 967.487 Q176.183 960.357 174.354 956.815 Q172.549 953.251 168.914 953.251 M168.914 949.547 Q174.724 949.547 177.78 954.153 Q180.859 958.737 180.859 967.487 Q180.859 976.213 177.78 980.82 Q174.724 985.403 168.914 985.403 Q163.104 985.403 160.025 980.82 Q156.97 976.213 156.97 967.487 Q156.97 958.737 160.025 954.153 Q163.104 949.547 168.914 949.547 Z" fill="#000000" fill-rule="evenodd" fill-opacity="1" /><path clip-path="url(#clip620)" d="M 0 0 M570.035 980.797 L586.354 980.797 L586.354 984.732 L564.41 984.732 L564.41 980.797 Q567.072 978.042 571.655 973.412 Q576.262 968.76 577.442 967.417 Q579.688 964.894 580.567 963.158 Q581.47 961.399 581.47 959.709 Q581.47 956.954 579.526 955.218 Q577.604 953.482 574.503 953.482 Q572.303 953.482 569.85 954.246 Q567.419 955.01 564.641 956.561 L564.641 951.839 Q567.466 950.704 569.919 950.126 Q572.373 949.547 574.41 949.547 Q579.78 949.547 582.975 952.232 Q586.169 954.917 586.169 959.408 Q586.169 961.538 585.359 963.459 Q584.572 965.357 582.465 967.95 Q581.887 968.621 578.785 971.838 Q575.683 975.033 570.035 980.797 Z" fill="#000000" fill-rule="evenodd" fill-opacity="1" /><path clip-path="url(#clip620)" d="M 0 0 M591.47 950.172 L609.826 950.172 L609.826 954.107 L595.752 954.107 L595.752 962.579 Q596.771 962.232 597.789 962.07 Q598.808 961.885 599.826 961.885 Q605.613 961.885 608.993 965.056 Q612.373 968.227 612.373 973.644 Q612.373 979.223 608.9 982.324 Q605.428 985.403 599.109 985.403 Q596.933 985.403 594.664 985.033 Q592.419 984.662 590.012 983.922 L590.012 979.223 Q592.095 980.357 594.317 980.912 Q596.539 981.468 599.016 981.468 Q603.021 981.468 605.359 979.362 Q607.697 977.255 607.697 973.644 Q607.697 970.033 605.359 967.926 Q603.021 965.82 599.016 965.82 Q597.141 965.82 595.266 966.237 Q593.414 966.653 591.47 967.533 L591.47 950.172 Z" fill="#000000" fill-rule="evenodd" fill-opacity="1" /><path clip-path="url(#clip620)" d="M 0 0 M627.442 953.251 Q623.831 953.251 622.002 956.815 Q620.197 960.357 620.197 967.487 Q620.197 974.593 622.002 978.158 Q623.831 981.699 627.442 981.699 Q631.076 981.699 632.882 978.158 Q634.711 974.593 634.711 967.487 Q634.711 960.357 632.882 956.815 Q631.076 953.251 627.442 953.251 M627.442 949.547 Q633.252 949.547 636.308 954.153 Q639.386 958.737 639.386 967.487 Q639.386 976.213 636.308 980.82 Q633.252 985.403 627.442 985.403 Q621.632 985.403 618.553 980.82 Q615.498 976.213 615.498 967.487 Q615.498 958.737 618.553 954.153 Q621.632 949.547 627.442 949.547 Z" fill="#000000" fill-rule="evenodd" fill-opacity="1" /><path clip-path="url(#clip620)" d="M 0 0 M998.146 950.172 L1016.5 950.172 L1016.5 954.107 L1002.43 954.107 L1002.43 962.579 Q1003.45 962.232 1004.47 962.07 Q1005.48 961.885 1006.5 961.885 Q1012.29 961.885 1015.67 965.056 Q1019.05 968.227 1019.05 973.644 Q1019.05 979.223 1015.58 982.324 Q1012.1 985.403 1005.78 985.403 Q1003.61 985.403 1001.34 985.033 Q999.095 984.662 996.688 983.922 L996.688 979.223 Q998.771 980.357 1000.99 980.912 Q1003.22 981.468 1005.69 981.468 Q1009.7 981.468 1012.03 979.362 Q1014.37 977.255 1014.37 973.644 Q1014.37 970.033 1012.03 967.926 Q1009.7 965.82 1005.69 965.82 Q1003.82 965.82 1001.94 966.237 Q1000.09 966.653 998.146 967.533 L998.146 950.172 Z" fill="#000000" fill-rule="evenodd" fill-opacity="1" /><path clip-path="url(#clip620)" d="M 0 0 M1034.12 953.251 Q1030.51 953.251 1028.68 956.815 Q1026.87 960.357 1026.87 967.487 Q1026.87 974.593 1028.68 978.158 Q1030.51 981.699 1034.12 981.699 Q1037.75 981.699 1039.56 978.158 Q1041.39 974.593 1041.39 967.487 Q1041.39 960.357 1039.56 956.815 Q1037.75 953.251 1034.12 953.251 M1034.12 949.547 Q1039.93 949.547 1042.98 954.153 Q1046.06 958.737 1046.06 967.487 Q1046.06 976.213 1042.98 980.82 Q1039.93 985.403 1034.12 985.403 Q1028.31 985.403 1025.23 980.82 Q1022.17 976.213 1022.17 967.487 Q1022.17 958.737 1025.23 954.153 Q1028.31 949.547 1034.12 949.547 Z" fill="#000000" fill-rule="evenodd" fill-opacity="1" /><path clip-path="url(#clip620)" d="M 0 0 M1061.13 953.251 Q1057.52 953.251 1055.69 956.815 Q1053.89 960.357 1053.89 967.487 Q1053.89 974.593 1055.69 978.158 Q1057.52 981.699 1061.13 981.699 Q1064.77 981.699 1066.57 978.158 Q1068.4 974.593 1068.4 967.487 Q1068.4 960.357 1066.57 956.815 Q1064.77 953.251 1061.13 953.251 M1061.13 949.547 Q1066.94 949.547 1070 954.153 Q1073.08 958.737 1073.08 967.487 Q1073.08 976.213 1070 980.82 Q1066.94 985.403 1061.13 985.403 Q1055.32 985.403 1052.24 980.82 Q1049.19 976.213 1049.19 967.487 Q1049.19 958.737 1052.24 954.153 Q1055.32 949.547 1061.13 949.547 Z" fill="#000000" fill-rule="evenodd" fill-opacity="1" /><path clip-path="url(#clip620)" d="M 0 0 M1430.24 950.172 L1452.46 950.172 L1452.46 952.163 L1439.91 984.732 L1435.03 984.732 L1446.84 954.107 L1430.24 954.107 L1430.24 950.172 Z" fill="#000000" fill-rule="evenodd" fill-opacity="1" /><path clip-path="url(#clip620)" d="M 0 0 M1457.58 950.172 L1475.93 950.172 L1475.93 954.107 L1461.86 954.107 L1461.86 962.579 Q1462.88 962.232 1463.9 962.07 Q1464.91 961.885 1465.93 961.885 Q1471.72 961.885 1475.1 965.056 Q1478.48 968.227 1478.48 973.644 Q1478.48 979.223 1475.01 982.324 Q1471.53 985.403 1465.22 985.403 Q1463.04 985.403 1460.77 985.033 Q1458.53 984.662 1456.12 983.922 L1456.12 979.223 Q1458.2 980.357 1460.42 980.912 Q1462.65 981.468 1465.12 981.468 Q1469.13 981.468 1471.47 979.362 Q1473.8 977.255 1473.8 973.644 Q1473.8 970.033 1471.47 967.926 Q1469.13 965.82 1465.12 965.82 Q1463.25 965.82 1461.37 966.237 Q1459.52 966.653 1457.58 967.533 L1457.58 950.172 Z" fill="#000000" fill-rule="evenodd" fill-opacity="1" /><path clip-path="url(#clip620)" d="M 0 0 M1493.55 953.251 Q1489.94 953.251 1488.11 956.815 Q1486.3 960.357 1486.3 967.487 Q1486.3 974.593 1488.11 978.158 Q1489.94 981.699 1493.55 981.699 Q1497.18 981.699 1498.99 978.158 Q1500.82 974.593 1500.82 967.487 Q1500.82 960.357 1498.99 956.815 Q1497.18 953.251 1493.55 953.251 M1493.55 949.547 Q1499.36 949.547 1502.41 954.153 Q1505.49 958.737 1505.49 967.487 Q1505.49 976.213 1502.41 980.82 Q1499.36 985.403 1493.55 985.403 Q1487.74 985.403 1484.66 980.82 Q1481.6 976.213 1481.6 967.487 Q1481.6 958.737 1484.66 954.153 Q1487.74 949.547 1493.55 949.547 Z" fill="#000000" fill-rule="evenodd" fill-opacity="1" /><path clip-path="url(#clip620)" d="M 0 0 M1850.71 980.797 L1858.35 980.797 L1858.35 954.431 L1850.04 956.098 L1850.04 951.839 L1858.3 950.172 L1862.98 950.172 L1862.98 980.797 L1870.62 980.797 L1870.62 984.732 L1850.71 984.732 L1850.71 980.797 Z" fill="#000000" fill-rule="evenodd" fill-opacity="1" /><path clip-path="url(#clip620)" d="M 0 0 M1885.69 953.251 Q1882.08 953.251 1880.25 956.815 Q1878.44 960.357 1878.44 967.487 Q1878.44 974.593 1880.25 978.158 Q1882.08 981.699 1885.69 981.699 Q1889.32 981.699 1891.13 978.158 Q1892.96 974.593 1892.96 967.487 Q1892.96 960.357 1891.13 956.815 Q1889.32 953.251 1885.69 953.251 M1885.69 949.547 Q1891.5 949.547 1894.55 954.153 Q1897.63 958.737 1897.63 967.487 Q1897.63 976.213 1894.55 980.82 Q1891.5 985.403 1885.69 985.403 Q1879.88 985.403 1876.8 980.82 Q1873.74 976.213 1873.74 967.487 Q1873.74 958.737 1876.8 954.153 Q1879.88 949.547 1885.69 949.547 Z" fill="#000000" fill-rule="evenodd" fill-opacity="1" /><path clip-path="url(#clip620)" d="M 0 0 M1912.7 953.251 Q1909.09 953.251 1907.26 956.815 Q1905.46 960.357 1905.46 967.487 Q1905.46 974.593 1907.26 978.158 Q1909.09 981.699 1912.7 981.699 Q1916.34 981.699 1918.14 978.158 Q1919.97 974.593 1919.97 967.487 Q1919.97 960.357 1918.14 956.815 Q1916.34 953.251 1912.7 953.251 M1912.7 949.547 Q1918.51 949.547 1921.57 954.153 Q1924.65 958.737 1924.65 967.487 Q1924.65 976.213 1921.57 980.82 Q1918.51 985.403 1912.7 985.403 Q1906.89 985.403 1903.81 980.82 Q1900.76 976.213 1900.76 967.487 Q1900.76 958.737 1903.81 954.153 Q1906.89 949.547 1912.7 949.547 Z" fill="#000000" fill-rule="evenodd" fill-opacity="1" /><path clip-path="url(#clip620)" d="M 0 0 M1939.72 953.251 Q1936.1 953.251 1934.28 956.815 Q1932.47 960.357 1932.47 967.487 Q1932.47 974.593 1934.28 978.158 Q1936.1 981.699 1939.72 981.699 Q1943.35 981.699 1945.16 978.158 Q1946.98 974.593 1946.98 967.487 Q1946.98 960.357 1945.16 956.815 Q1943.35 953.251 1939.72 953.251 M1939.72 949.547 Q1945.53 949.547 1948.58 954.153 Q1951.66 958.737 1951.66 967.487 Q1951.66 976.213 1948.58 980.82 Q1945.53 985.403 1939.72 985.403 Q1933.91 985.403 1930.83 980.82 Q1927.77 976.213 1927.77 967.487 Q1927.77 958.737 1930.83 954.153 Q1933.91 949.547 1939.72 949.547 Z" fill="#000000" fill-rule="evenodd" fill-opacity="1" /><path clip-path="url(#clip620)" d="M 0 0 M917.76 1012.6 L924.189 1012.6 L924.189 1060.12 L917.76 1060.12 L917.76 1012.6 Z" fill="#000000" fill-rule="evenodd" fill-opacity="1" /><path clip-path="url(#clip620)" d="M 0 0 M936.125 1014.35 L936.125 1024.48 L948.188 1024.48 L948.188 1029.03 L936.125 1029.03 L936.125 1048.38 Q936.125 1052.74 937.302 1053.98 Q938.512 1055.22 942.172 1055.22 L948.188 1055.22 L948.188 1060.12 L942.172 1060.12 Q935.393 1060.12 932.815 1057.61 Q930.236 1055.06 930.236 1048.38 L930.236 1029.03 L925.94 1029.03 L925.94 1024.48 L930.236 1024.48 L930.236 1014.35 L936.125 1014.35 Z" fill="#000000" fill-rule="evenodd" fill-opacity="1" /><path clip-path="url(#clip620)" d="M 0 0 M984.822 1040.84 L984.822 1043.7 L957.895 1043.7 Q958.277 1049.75 961.524 1052.93 Q964.802 1056.08 970.627 1056.08 Q974.001 1056.08 977.152 1055.25 Q980.335 1054.43 983.454 1052.77 L983.454 1058.31 Q980.303 1059.65 976.993 1060.35 Q973.682 1061.05 970.277 1061.05 Q961.747 1061.05 956.75 1056.08 Q951.784 1051.12 951.784 1042.65 Q951.784 1033.9 956.495 1028.77 Q961.237 1023.62 969.258 1023.62 Q976.451 1023.62 980.621 1028.26 Q984.822 1032.88 984.822 1040.84 M978.966 1039.12 Q978.902 1034.31 976.261 1031.45 Q973.651 1028.58 969.322 1028.58 Q964.42 1028.58 961.46 1031.35 Q958.532 1034.12 958.086 1039.15 L978.966 1039.12 Z" fill="#000000" fill-rule="evenodd" fill-opacity="1" /><path clip-path="url(#clip620)" d="M 0 0 M1011.62 1029.95 Q1010.64 1029.38 1009.46 1029.12 Q1008.31 1028.84 1006.91 1028.84 Q1001.95 1028.84 999.273 1032.08 Q996.631 1035.3 996.631 1041.35 L996.631 1060.12 L990.742 1060.12 L990.742 1024.48 L996.631 1024.48 L996.631 1030.01 Q998.477 1026.77 1001.44 1025.21 Q1004.4 1023.62 1008.63 1023.62 Q1009.23 1023.62 1009.97 1023.71 Q1010.7 1023.78 1011.59 1023.93 L1011.62 1029.95 Z" fill="#000000" fill-rule="evenodd" fill-opacity="1" /><path clip-path="url(#clip620)" d="M 0 0 M1033.97 1042.2 Q1026.87 1042.2 1024.13 1043.83 Q1021.39 1045.45 1021.39 1049.37 Q1021.39 1052.48 1023.43 1054.33 Q1025.5 1056.15 1029.03 1056.15 Q1033.9 1056.15 1036.83 1052.71 Q1039.79 1049.24 1039.79 1043.51 L1039.79 1042.2 L1033.97 1042.2 M1045.65 1039.79 L1045.65 1060.12 L1039.79 1060.12 L1039.79 1054.71 Q1037.79 1057.96 1034.79 1059.52 Q1031.8 1061.05 1027.47 1061.05 Q1022 1061.05 1018.75 1057.99 Q1015.54 1054.9 1015.54 1049.75 Q1015.54 1043.73 1019.55 1040.68 Q1023.59 1037.62 1031.58 1037.62 L1039.79 1037.62 L1039.79 1037.05 Q1039.79 1033.01 1037.12 1030.81 Q1034.47 1028.58 1029.67 1028.58 Q1026.61 1028.58 1023.72 1029.31 Q1020.82 1030.05 1018.15 1031.51 L1018.15 1026.1 Q1021.36 1024.86 1024.39 1024.25 Q1027.41 1023.62 1030.27 1023.62 Q1038.01 1023.62 1041.83 1027.63 Q1045.65 1031.64 1045.65 1039.79 Z" fill="#000000" fill-rule="evenodd" fill-opacity="1" /><path clip-path="url(#clip620)" d="M 0 0 M1057.58 1014.35 L1057.58 1024.48 L1069.65 1024.48 L1069.65 1029.03 L1057.58 1029.03 L1057.58 1048.38 Q1057.58 1052.74 1058.76 1053.98 Q1059.97 1055.22 1063.63 1055.22 L1069.65 1055.22 L1069.65 1060.12 L1063.63 1060.12 Q1056.85 1060.12 1054.27 1057.61 Q1051.69 1055.06 1051.69 1048.38 L1051.69 1029.03 L1047.4 1029.03 L1047.4 1024.48 L1051.69 1024.48 L1051.69 1014.35 L1057.58 1014.35 Z" fill="#000000" fill-rule="evenodd" fill-opacity="1" /><path clip-path="url(#clip620)" d="M 0 0 M1075.79 1024.48 L1081.64 1024.48 L1081.64 1060.12 L1075.79 1060.12 L1075.79 1024.48 M1075.79 1010.6 L1081.64 1010.6 L1081.64 1018.01 L1075.79 1018.01 L1075.79 1010.6 Z" fill="#000000" fill-rule="evenodd" fill-opacity="1" /><path clip-path="url(#clip620)" d="M 0 0 M1101.6 1028.58 Q1096.89 1028.58 1094.15 1032.27 Q1091.42 1035.93 1091.42 1042.33 Q1091.42 1048.73 1094.12 1052.42 Q1096.86 1056.08 1101.6 1056.08 Q1106.28 1056.08 1109.02 1052.39 Q1111.75 1048.7 1111.75 1042.33 Q1111.75 1036 1109.02 1032.31 Q1106.28 1028.58 1101.6 1028.58 M1101.6 1023.62 Q1109.24 1023.62 1113.6 1028.58 Q1117.96 1033.55 1117.96 1042.33 Q1117.96 1051.08 1113.6 1056.08 Q1109.24 1061.05 1101.6 1061.05 Q1093.93 1061.05 1089.57 1056.08 Q1085.24 1051.08 1085.24 1042.33 Q1085.24 1033.55 1089.57 1028.58 Q1093.93 1023.62 1101.6 1023.62 Z" fill="#000000" fill-rule="evenodd" fill-opacity="1" /><path clip-path="url(#clip620)" d="M 0 0 M1153.74 1038.61 L1153.74 1060.12 L1147.88 1060.12 L1147.88 1038.8 Q1147.88 1033.74 1145.91 1031.22 Q1143.93 1028.71 1139.99 1028.71 Q1135.24 1028.71 1132.51 1031.73 Q1129.77 1034.76 1129.77 1039.98 L1129.77 1060.12 L1123.88 1060.12 L1123.88 1024.48 L1129.77 1024.48 L1129.77 1030.01 Q1131.87 1026.8 1134.7 1025.21 Q1137.57 1023.62 1141.29 1023.62 Q1147.43 1023.62 1150.59 1027.44 Q1153.74 1031.22 1153.74 1038.61 Z" fill="#000000" fill-rule="evenodd" fill-opacity="1" /><polyline clip-path="url(#clip622)" style="stroke:#000000; stroke-width:2; stroke-opacity:0.1; fill:none" points="
  118.74,895.853 1952.76,895.853 
  "/>
<polyline clip-path="url(#clip622)" style="stroke:#000000; stroke-width:2; stroke-opacity:0.1; fill:none" points="
  118.74,684.787 1952.76,684.787 
  "/>
<polyline clip-path="url(#clip622)" style="stroke:#000000; stroke-width:2; stroke-opacity:0.1; fill:none" points="
  118.74,473.722 1952.76,473.722 
  "/>
<polyline clip-path="url(#clip622)" style="stroke:#000000; stroke-width:2; stroke-opacity:0.1; fill:none" points="
  118.74,262.656 1952.76,262.656 
  "/>
<polyline clip-path="url(#clip620)" style="stroke:#000000; stroke-width:4; stroke-opacity:1; fill:none" points="
  118.74,911.26 118.74,62.9921 
  "/>
<polyline clip-path="url(#clip620)" style="stroke:#000000; stroke-width:4; stroke-opacity:1; fill:none" points="
  118.74,895.853 140.748,895.853 
  "/>
<polyline clip-path="url(#clip620)" style="stroke:#000000; stroke-width:4; stroke-opacity:1; fill:none" points="
  118.74,684.787 140.748,684.787 
  "/>
<polyline clip-path="url(#clip620)" style="stroke:#000000; stroke-width:4; stroke-opacity:1; fill:none" points="
  118.74,473.722 140.748,473.722 
  "/>
<polyline clip-path="url(#clip620)" style="stroke:#000000; stroke-width:4; stroke-opacity:1; fill:none" points="
  118.74,262.656 140.748,262.656 
  "/>
<path clip-path="url(#clip620)" d="M 0 0 M11.4256 881.652 Q7.8145 881.652 5.98581 885.216 Q4.18026 888.758 4.18026 895.888 Q4.18026 902.994 5.98581 906.559 Q7.8145 910.101 11.4256 910.101 Q15.0598 910.101 16.8654 906.559 Q18.6941 902.994 18.6941 895.888 Q18.6941 888.758 16.8654 885.216 Q15.0598 881.652 11.4256 881.652 M11.4256 877.948 Q17.2358 877.948 20.2913 882.554 Q23.37 887.138 23.37 895.888 Q23.37 904.614 20.2913 909.221 Q17.2358 913.804 11.4256 913.804 Q5.61544 913.804 2.53675 909.221 Q-0.518784 904.614 -0.518784 895.888 Q-0.518784 887.138 2.53675 882.554 Q5.61544 877.948 11.4256 877.948 Z" fill="#000000" fill-rule="evenodd" fill-opacity="1" /><path clip-path="url(#clip620)" d="M 0 0 M28.4394 907.253 L33.3236 907.253 L33.3236 913.133 L28.4394 913.133 L28.4394 907.253 Z" fill="#000000" fill-rule="evenodd" fill-opacity="1" /><path clip-path="url(#clip620)" d="M 0 0 M42.4208 909.198 L58.7402 909.198 L58.7402 913.133 L36.7958 913.133 L36.7958 909.198 Q39.4579 906.443 44.0412 901.814 Q48.6476 897.161 49.8282 895.818 Q52.0735 893.295 52.9532 891.559 Q53.8559 889.8 53.8559 888.11 Q53.8559 885.355 51.9115 883.619 Q49.9902 881.883 46.8884 881.883 Q44.6893 881.883 42.2356 882.647 Q39.8051 883.411 37.0273 884.962 L37.0273 880.24 Q39.8514 879.105 42.3051 878.527 Q44.7588 877.948 46.7958 877.948 Q52.1661 877.948 55.3605 880.633 Q58.555 883.318 58.555 887.809 Q58.555 889.939 57.7448 891.86 Q56.9578 893.758 54.8513 896.351 Q54.2726 897.022 51.1708 900.239 Q48.0689 903.434 42.4208 909.198 Z" fill="#000000" fill-rule="evenodd" fill-opacity="1" /><path clip-path="url(#clip620)" d="M 0 0 M9.34227 670.586 Q5.73118 670.586 3.90249 674.151 Q2.09694 677.693 2.09694 684.822 Q2.09694 691.929 3.90249 695.493 Q5.73118 699.035 9.34227 699.035 Q12.9765 699.035 14.7821 695.493 Q16.6108 691.929 16.6108 684.822 Q16.6108 677.693 14.7821 674.151 Q12.9765 670.586 9.34227 670.586 M9.34227 666.882 Q15.1524 666.882 18.208 671.489 Q21.2867 676.072 21.2867 684.822 Q21.2867 693.549 18.208 698.155 Q15.1524 702.739 9.34227 702.739 Q3.53212 702.739 0.453433 698.155 Q-2.60211 693.549 -2.60211 684.822 Q-2.60211 676.072 0.453433 671.489 Q3.53212 666.882 9.34227 666.882 Z" fill="#000000" fill-rule="evenodd" fill-opacity="1" /><path clip-path="url(#clip620)" d="M 0 0 M26.3561 696.188 L31.2403 696.188 L31.2403 702.067 L26.3561 702.067 L26.3561 696.188 Z" fill="#000000" fill-rule="evenodd" fill-opacity="1" /><path clip-path="url(#clip620)" d="M 0 0 M49.1569 671.581 L37.3514 690.03 L49.1569 690.03 L49.1569 671.581 M47.93 667.507 L53.8096 667.507 L53.8096 690.03 L58.7402 690.03 L58.7402 693.919 L53.8096 693.919 L53.8096 702.067 L49.1569 702.067 L49.1569 693.919 L33.5551 693.919 L33.5551 689.405 L47.93 667.507 Z" fill="#000000" fill-rule="evenodd" fill-opacity="1" /><path clip-path="url(#clip620)" d="M 0 0 M9.66635 459.521 Q6.05525 459.521 4.22656 463.085 Q2.42101 466.627 2.42101 473.757 Q2.42101 480.863 4.22656 484.428 Q6.05525 487.97 9.66635 487.97 Q13.3006 487.97 15.1061 484.428 Q16.9348 480.863 16.9348 473.757 Q16.9348 466.627 15.1061 463.085 Q13.3006 459.521 9.66635 459.521 M9.66635 455.817 Q15.4765 455.817 18.532 460.423 Q21.6107 465.007 21.6107 473.757 Q21.6107 482.483 18.532 487.09 Q15.4765 491.673 9.66635 491.673 Q3.85619 491.673 0.777505 487.09 Q-2.27803 482.483 -2.27803 473.757 Q-2.27803 465.007 0.777505 460.423 Q3.85619 455.817 9.66635 455.817 Z" fill="#000000" fill-rule="evenodd" fill-opacity="1" /><path clip-path="url(#clip620)" d="M 0 0 M26.6801 485.122 L31.5644 485.122 L31.5644 491.002 L26.6801 491.002 L26.6801 485.122 Z" fill="#000000" fill-rule="evenodd" fill-opacity="1" /><path clip-path="url(#clip620)" d="M 0 0 M47.2124 471.859 Q44.0643 471.859 42.2125 474.011 Q40.3838 476.164 40.3838 479.914 Q40.3838 483.641 42.2125 485.817 Q44.0643 487.97 47.2124 487.97 Q50.3606 487.97 52.1893 485.817 Q54.0411 483.641 54.0411 479.914 Q54.0411 476.164 52.1893 474.011 Q50.3606 471.859 47.2124 471.859 M56.4948 457.206 L56.4948 461.465 Q54.7355 460.632 52.93 460.192 Q51.1476 459.752 49.3884 459.752 Q44.7588 459.752 42.3051 462.877 Q39.8745 466.002 39.5273 472.321 Q40.893 470.308 42.9532 469.243 Q45.0134 468.155 47.4902 468.155 Q52.6985 468.155 55.7078 471.326 Q58.7402 474.474 58.7402 479.914 Q58.7402 485.238 55.592 488.456 Q52.4439 491.673 47.2124 491.673 Q41.2171 491.673 38.0458 487.09 Q34.8745 482.483 34.8745 473.757 Q34.8745 465.562 38.7634 460.701 Q42.6523 455.817 49.2032 455.817 Q50.9624 455.817 52.7448 456.164 Q54.5504 456.511 56.4948 457.206 Z" fill="#000000" fill-rule="evenodd" fill-opacity="1" /><path clip-path="url(#clip620)" d="M 0 0 M9.92097 248.455 Q6.30988 248.455 4.48119 252.02 Q2.67564 255.562 2.67564 262.691 Q2.67564 269.798 4.48119 273.362 Q6.30988 276.904 9.92097 276.904 Q13.5552 276.904 15.3608 273.362 Q17.1895 269.798 17.1895 262.691 Q17.1895 255.562 15.3608 252.02 Q13.5552 248.455 9.92097 248.455 M9.92097 244.751 Q15.7311 244.751 18.7867 249.358 Q21.8654 253.941 21.8654 262.691 Q21.8654 271.418 18.7867 276.024 Q15.7311 280.608 9.92097 280.608 Q4.11082 280.608 1.03213 276.024 Q-2.02341 271.418 -2.02341 262.691 Q-2.02341 253.941 1.03213 249.358 Q4.11082 244.751 9.92097 244.751 Z" fill="#000000" fill-rule="evenodd" fill-opacity="1" /><path clip-path="url(#clip620)" d="M 0 0 M26.9348 274.057 L31.819 274.057 L31.819 279.936 L26.9348 279.936 L26.9348 274.057 Z" fill="#000000" fill-rule="evenodd" fill-opacity="1" /><path clip-path="url(#clip620)" d="M 0 0 M46.8884 263.525 Q43.5551 263.525 41.6338 265.307 Q39.7356 267.089 39.7356 270.214 Q39.7356 273.339 41.6338 275.122 Q43.5551 276.904 46.8884 276.904 Q50.2217 276.904 52.143 275.122 Q54.0643 273.316 54.0643 270.214 Q54.0643 267.089 52.143 265.307 Q50.2448 263.525 46.8884 263.525 M42.2125 261.534 Q39.2032 260.793 37.5134 258.733 Q35.8468 256.673 35.8468 253.71 Q35.8468 249.566 38.7866 247.159 Q41.7495 244.751 46.8884 244.751 Q52.0504 244.751 54.9902 247.159 Q57.93 249.566 57.93 253.71 Q57.93 256.673 56.2402 258.733 Q54.5735 260.793 51.5874 261.534 Q54.967 262.321 56.842 264.612 Q58.7402 266.904 58.7402 270.214 Q58.7402 275.237 55.6615 277.923 Q52.6059 280.608 46.8884 280.608 Q41.1708 280.608 38.0921 277.923 Q35.0366 275.237 35.0366 270.214 Q35.0366 266.904 36.9347 264.612 Q38.8329 262.321 42.2125 261.534 M40.4995 254.15 Q40.4995 256.835 42.1662 258.339 Q43.856 259.844 46.8884 259.844 Q49.8976 259.844 51.5874 258.339 Q53.3004 256.835 53.3004 254.15 Q53.3004 251.464 51.5874 249.96 Q49.8976 248.455 46.8884 248.455 Q43.856 248.455 42.1662 249.96 Q40.4995 251.464 40.4995 254.15 Z" fill="#000000" fill-rule="evenodd" fill-opacity="1" /><path clip-path="url(#clip620)" d="M 0 0 M-82.8185 650.184 L-76.5483 650.184 Q-78.2989 653.844 -79.1582 657.09 Q-80.0176 660.337 -80.0176 663.361 Q-80.0176 668.612 -77.9806 671.477 Q-75.9435 674.31 -72.1878 674.31 Q-69.0368 674.31 -67.4135 672.432 Q-65.8221 670.522 -64.8354 665.238 L-64.0397 661.355 Q-62.671 654.162 -59.2017 650.756 Q-55.7643 647.319 -49.9715 647.319 Q-43.0647 647.319 -39.4999 651.966 Q-35.9351 656.581 -35.9351 665.525 Q-35.9351 668.899 -36.699 672.718 Q-37.4628 676.506 -38.9588 680.58 L-45.5791 680.58 Q-43.383 676.665 -42.269 672.909 Q-41.155 669.153 -41.155 665.525 Q-41.155 660.019 -43.3193 657.027 Q-45.4836 654.035 -49.494 654.035 Q-52.9952 654.035 -54.9685 656.199 Q-56.9419 658.332 -57.9286 663.233 L-58.6925 667.148 Q-60.1248 674.341 -63.1803 677.556 Q-66.2358 680.771 -71.6785 680.771 Q-77.9806 680.771 -81.609 676.347 Q-85.2375 671.891 -85.2375 664.093 Q-85.2375 660.751 -84.6327 657.281 Q-84.028 653.812 -82.8185 650.184 Z" fill="#000000" fill-rule="evenodd" fill-opacity="1" /><path clip-path="url(#clip620)" d="M 0 0 M-54.7776 624.975 Q-54.7776 632.073 -53.1543 634.81 Q-51.5311 637.548 -47.6162 637.548 Q-44.497 637.548 -42.6509 635.511 Q-40.8367 633.442 -40.8367 629.909 Q-40.8367 625.039 -44.2742 622.111 Q-47.7435 619.151 -53.4726 619.151 L-54.7776 619.151 L-54.7776 624.975 M-57.1965 613.294 L-36.8581 613.294 L-36.8581 619.151 L-42.269 619.151 Q-39.0224 621.156 -37.4628 624.148 Q-35.9351 627.14 -35.9351 631.468 Q-35.9351 636.943 -38.9906 640.189 Q-42.078 643.404 -47.2342 643.404 Q-53.2498 643.404 -56.3053 639.394 Q-59.3609 635.351 -59.3609 627.363 L-59.3609 619.151 L-59.9338 619.151 Q-63.976 619.151 -66.1722 621.824 Q-68.4002 624.466 -68.4002 629.272 Q-68.4002 632.328 -67.6681 635.224 Q-66.9361 638.121 -65.472 640.794 L-70.8828 640.794 Q-72.1241 637.579 -72.7289 634.556 Q-73.3654 631.532 -73.3654 628.667 Q-73.3654 620.933 -69.355 617.114 Q-65.3446 613.294 -57.1965 613.294 Z" fill="#000000" fill-rule="evenodd" fill-opacity="1" /><path clip-path="url(#clip620)" d="M 0 0 M-65.6629 579.397 Q-69.6097 577.201 -71.4876 574.145 Q-73.3654 571.09 -73.3654 566.952 Q-73.3654 561.382 -69.4505 558.358 Q-65.5674 555.335 -58.3742 555.335 L-36.8581 555.335 L-36.8581 561.223 L-58.1832 561.223 Q-63.3076 561.223 -65.7902 563.037 Q-68.2729 564.851 -68.2729 568.575 Q-68.2729 573.127 -65.2492 575.768 Q-62.2254 578.41 -57.0056 578.41 L-36.8581 578.41 L-36.8581 584.298 L-58.1832 584.298 Q-63.3394 584.298 -65.7902 586.113 Q-68.2729 587.927 -68.2729 591.715 Q-68.2729 596.202 -65.2173 598.844 Q-62.1936 601.486 -57.0056 601.486 L-36.8581 601.486 L-36.8581 607.374 L-72.5061 607.374 L-72.5061 601.486 L-66.9679 601.486 Q-70.2462 599.481 -71.8058 596.68 Q-73.3654 593.879 -73.3654 590.028 Q-73.3654 586.145 -71.3921 583.439 Q-69.4187 580.702 -65.6629 579.397 Z" fill="#000000" fill-rule="evenodd" fill-opacity="1" /><path clip-path="url(#clip620)" d="M 0 0 M-42.2053 543.526 L-23.2992 543.526 L-23.2992 549.414 L-72.5061 549.414 L-72.5061 543.526 L-67.0952 543.526 Q-70.2781 541.68 -71.8058 538.879 Q-73.3654 536.046 -73.3654 532.132 Q-73.3654 525.639 -68.2092 521.596 Q-63.053 517.522 -54.6503 517.522 Q-46.2475 517.522 -41.0913 521.596 Q-35.9351 525.639 -35.9351 532.132 Q-35.9351 536.046 -37.4628 538.879 Q-39.0224 541.68 -42.2053 543.526 M-54.6503 523.601 Q-61.1114 523.601 -64.7717 526.275 Q-68.4638 528.917 -68.4638 533.564 Q-68.4638 538.211 -64.7717 540.884 Q-61.1114 543.526 -54.6503 543.526 Q-48.1891 543.526 -44.497 540.884 Q-40.8367 538.211 -40.8367 533.564 Q-40.8367 528.917 -44.497 526.275 Q-48.1891 523.601 -54.6503 523.601 Z" fill="#000000" fill-rule="evenodd" fill-opacity="1" /><path clip-path="url(#clip620)" d="M 0 0 M-86.3833 511.379 L-86.3833 505.523 L-36.8581 505.523 L-36.8581 511.379 L-86.3833 511.379 Z" fill="#000000" fill-rule="evenodd" fill-opacity="1" /><path clip-path="url(#clip620)" d="M 0 0 M-56.1462 468.888 L-53.2816 468.888 L-53.2816 495.815 Q-47.2342 495.433 -44.0514 492.187 Q-40.9003 488.908 -40.9003 483.084 Q-40.9003 479.71 -41.7279 476.559 Q-42.5554 473.376 -44.2105 470.257 L-38.6723 470.257 Q-37.3355 473.408 -36.6353 476.718 Q-35.9351 480.028 -35.9351 483.434 Q-35.9351 491.964 -40.9003 496.961 Q-45.8656 501.926 -54.332 501.926 Q-63.0848 501.926 -68.2092 497.216 Q-73.3654 492.473 -73.3654 484.452 Q-73.3654 477.259 -68.7185 473.09 Q-64.1033 468.888 -56.1462 468.888 M-57.8649 474.745 Q-62.671 474.808 -65.5356 477.45 Q-68.4002 480.06 -68.4002 484.389 Q-68.4002 489.29 -65.6311 492.25 Q-62.862 495.179 -57.8331 495.624 L-57.8649 474.745 Z" fill="#000000" fill-rule="evenodd" fill-opacity="1" /><path clip-path="url(#clip620)" d="M 0 0 M-72.5061 446.226 L-72.5061 440.02 L-42.5872 428.88 L-72.5061 417.74 L-72.5061 411.533 L-36.8581 424.901 L-36.8581 432.858 L-72.5061 446.226 Z" fill="#000000" fill-rule="evenodd" fill-opacity="1" /><path clip-path="url(#clip620)" d="M 0 0 M-54.7776 389.19 Q-54.7776 396.287 -53.1543 399.025 Q-51.5311 401.762 -47.6162 401.762 Q-44.497 401.762 -42.6509 399.725 Q-40.8367 397.656 -40.8367 394.123 Q-40.8367 389.253 -44.2742 386.325 Q-47.7435 383.365 -53.4726 383.365 L-54.7776 383.365 L-54.7776 389.19 M-57.1965 377.509 L-36.8581 377.509 L-36.8581 383.365 L-42.269 383.365 Q-39.0224 385.37 -37.4628 388.362 Q-35.9351 391.354 -35.9351 395.683 Q-35.9351 401.157 -38.9906 404.404 Q-42.078 407.618 -47.2342 407.618 Q-53.2498 407.618 -56.3053 403.608 Q-59.3609 399.566 -59.3609 391.577 L-59.3609 383.365 L-59.9338 383.365 Q-63.976 383.365 -66.1722 386.039 Q-68.4002 388.68 -68.4002 393.486 Q-68.4002 396.542 -67.6681 399.438 Q-66.9361 402.335 -65.472 405.008 L-70.8828 405.008 Q-72.1241 401.794 -72.7289 398.77 Q-73.3654 395.746 -73.3654 392.882 Q-73.3654 385.147 -69.355 381.328 Q-65.3446 377.509 -57.1965 377.509 Z" fill="#000000" fill-rule="evenodd" fill-opacity="1" /><path clip-path="url(#clip620)" d="M 0 0 M-86.3833 371.366 L-86.3833 365.509 L-36.8581 365.509 L-36.8581 371.366 L-86.3833 371.366 Z" fill="#000000" fill-rule="evenodd" fill-opacity="1" /><path clip-path="url(#clip620)" d="M 0 0 M-50.9263 359.971 L-72.5061 359.971 L-72.5061 354.115 L-51.1491 354.115 Q-46.0884 354.115 -43.5421 352.141 Q-41.0276 350.168 -41.0276 346.221 Q-41.0276 341.479 -44.0514 338.741 Q-47.0751 335.972 -52.2949 335.972 L-72.5061 335.972 L-72.5061 330.116 L-36.8581 330.116 L-36.8581 335.972 L-42.3326 335.972 Q-39.0861 338.105 -37.4947 340.938 Q-35.9351 343.738 -35.9351 347.462 Q-35.9351 353.605 -39.7545 356.788 Q-43.5739 359.971 -50.9263 359.971 M-73.3654 345.234 L-73.3654 345.234 Z" fill="#000000" fill-rule="evenodd" fill-opacity="1" /><path clip-path="url(#clip620)" d="M 0 0 M-56.1462 293.481 L-53.2816 293.481 L-53.2816 320.408 Q-47.2342 320.026 -44.0514 316.78 Q-40.9003 313.501 -40.9003 307.677 Q-40.9003 304.303 -41.7279 301.152 Q-42.5554 297.969 -44.2105 294.85 L-38.6723 294.85 Q-37.3355 298.001 -36.6353 301.311 Q-35.9351 304.621 -35.9351 308.027 Q-35.9351 316.557 -40.9003 321.554 Q-45.8656 326.519 -54.332 326.519 Q-63.0848 326.519 -68.2092 321.809 Q-73.3654 317.066 -73.3654 309.045 Q-73.3654 301.852 -68.7185 297.683 Q-64.1033 293.481 -56.1462 293.481 M-57.8649 299.338 Q-62.671 299.401 -65.5356 302.043 Q-68.4002 304.653 -68.4002 308.982 Q-68.4002 313.883 -65.6311 316.843 Q-62.862 319.772 -57.8331 320.217 L-57.8649 299.338 Z" fill="#000000" fill-rule="evenodd" fill-opacity="1" /><path clip-path="url(#clip620)" d="M 0 0 M1048.63 43.8146 L1022.83 43.8146 Q1023.43 55.9268 1026.23 61.0714 Q1029.71 67.3908 1035.75 67.3908 Q1041.82 67.3908 1045.19 61.0309 Q1048.14 55.4407 1048.63 43.8146 M1048.51 36.928 Q1047.37 25.4235 1045.19 21.3726 Q1041.7 14.9721 1035.75 14.9721 Q1029.55 14.9721 1026.27 21.2916 Q1023.68 26.3957 1022.91 36.928 L1048.51 36.928 M1035.75 8.89579 Q1045.47 8.89579 1051.02 17.4837 Q1056.57 26.0311 1056.57 41.1815 Q1056.57 56.2914 1051.02 64.8793 Q1045.47 73.5077 1035.75 73.5077 Q1025.99 73.5077 1020.48 64.8793 Q1014.93 56.2914 1014.93 41.1815 Q1014.93 26.0311 1020.48 17.4837 Q1025.99 8.89579 1035.75 8.89579 Z" fill="#000000" fill-rule="evenodd" fill-opacity="1" /><polyline clip-path="url(#clip622)" style="stroke:#009af9; stroke-width:4; stroke-opacity:1; fill:none" points="
  170.646,299.593 172.378,521.222 174.11,223.893 175.842,643.805 177.574,838.447 179.306,673.523 181.038,673.523 182.77,673.523 184.502,419.794 186.234,196.504 
  187.966,331.386 189.698,399.465 191.429,399.465 193.161,559.738 194.893,559.738 196.625,645.994 198.357,544.512 200.089,505.386 201.821,505.386 203.553,210.4 
  205.285,210.4 207.017,228.173 208.749,228.173 210.481,498.67 212.213,217.044 213.945,182.422 215.677,799.647 217.409,501.528 219.14,501.528 220.872,501.528 
  222.604,567.898 224.336,532.88 226.068,128.417 227.8,211.352 229.532,555.322 231.264,487.217 232.996,283.316 234.728,381.806 236.46,381.806 238.192,156.075 
  239.924,270.297 241.656,403.946 243.388,403.946 245.119,403.946 246.851,481.027 248.583,252.992 250.315,252.992 252.047,272.905 253.779,545.775 255.511,252.436 
  257.243,527.86 258.975,515.024 260.707,216.25 262.439,214.952 264.171,148.598 265.903,593.054 267.635,593.054 269.367,756.611 271.099,293.086 272.83,638.317 
  274.562,416.779 276.294,416.779 278.026,625.39 279.758,654.869 281.49,559.836 283.222,559.836 284.954,605.944 286.686,433.929 288.418,376.112 290.15,401.8 
  291.882,502.608 293.614,251.098 295.346,210.256 297.078,447.575 298.809,447.575 300.541,447.575 302.273,447.575 304.005,291.933 305.737,291.933 307.469,291.933 
  309.201,291.933 310.933,398.042 312.665,398.042 314.397,299.978 316.129,299.978 317.861,628.449 319.593,168.551 321.325,571.236 323.057,528.289 324.789,528.289 
  326.52,528.289 328.252,528.289 329.984,553.002 331.716,380.629 333.448,380.629 335.18,299.232 336.912,186.486 338.644,285.092 340.376,808.416 342.108,871.581 
  343.84,242.437 345.572,544.164 347.304,544.164 349.036,457.356 350.768,499.575 352.499,371.03 354.231,394.449 355.963,394.449 357.695,394.449 359.427,263.486 
  361.159,590.781 362.891,619.782 364.623,619.782 366.355,659.533 368.087,659.533 369.819,331.739 371.551,538.82 373.283,676.719 375.015,798.013 376.747,491.642 
  378.479,537.941 380.21,289.722 381.942,296.735 383.674,301.654 385.406,363.731 387.138,363.731 388.87,235.326 390.602,791.082 392.334,498.634 394.066,504.646 
  395.798,175.334 397.53,731.477 399.262,731.477 400.994,315.003 402.726,315.003 404.458,315.003 406.189,273.663 407.921,739.068 409.653,495.674 411.385,449.303 
  413.117,770.407 414.849,367.946 416.581,396.303 418.313,305.214 420.045,303.877 421.777,115.379 423.509,291.481 425.241,288.822 426.973,549.39 428.705,549.39 
  430.437,247.878 432.169,440.972 433.9,269.266 435.632,758.37 437.364,490.524 439.096,480.315 440.828,234.504 442.56,86.9997 444.292,551.962 446.024,551.962 
  447.756,551.962 449.488,638.168 451.22,638.168 452.952,504.271 454.684,504.271 456.416,504.271 458.148,539.663 459.879,539.663 461.611,279.05 463.343,286.109 
  465.075,302.75 466.807,328.729 468.539,603.126 470.271,603.126 472.003,374.426 473.735,582.443 475.467,582.443 477.199,344.59 478.931,299.915 480.663,499.4 
  482.395,465.098 484.127,465.098 485.859,465.098 487.59,478.949 489.322,313.871 491.054,805.31 492.786,428.065 494.518,587.032 496.25,599.084 497.982,530.724 
  499.714,221.805 501.446,442.501 503.178,271.304 504.91,341.119 506.642,341.119 508.374,341.119 510.106,610.518 511.838,707.431 513.569,437.943 515.301,416.695 
  517.033,526.738 518.765,770.652 520.497,641.795 522.229,640.218 523.961,640.218 525.693,450.494 527.425,442.638 529.157,442.638 530.889,442.638 532.621,442.638 
  534.353,442.638 536.085,456.063 537.817,370.083 539.549,370.083 541.28,745.757 543.012,745.757 544.744,815.281 546.476,274.801 548.208,490.324 549.94,363.986 
  551.672,363.986 553.404,444.99 555.136,444.99 556.868,356.032 558.6,607.42 560.332,455.265 562.064,455.265 563.796,349.893 565.528,349.893 567.259,498.36 
  568.991,715.332 570.723,715.332 572.455,233.757 574.187,229.749 575.919,229.749 577.651,543.285 579.383,478.548 581.115,466.957 582.847,529.498 584.579,394.945 
  586.311,500.252 588.043,500.252 589.775,500.252 591.507,312.828 593.239,312.828 594.97,666.041 596.702,247.188 598.434,584.998 600.166,428.653 601.898,428.653 
  603.63,582.097 605.362,676.776 607.094,334.846 608.826,334.846 610.558,225.747 612.29,332.973 614.022,424.892 615.754,314.122 617.486,306.13 619.218,269.052 
  620.949,411.517 622.681,372.185 624.413,267.088 626.145,716.492 627.877,252.847 629.609,502.905 631.341,674.951 633.073,388.777 634.805,388.777 636.537,388.777 
  638.269,260.838 640.001,260.838 641.733,323.013 643.465,467.275 645.197,467.275 646.929,560.265 648.66,498.735 650.392,387.741 652.124,387.741 653.856,387.741 
  655.588,387.741 657.32,387.741 659.052,499.087 660.784,285.196 662.516,310.199 664.248,123.585 665.98,312.238 667.712,283.11 669.444,282.827 671.176,576.536 
  672.908,576.536 674.639,544.074 676.371,543.482 678.103,391.926 679.835,286.191 681.567,819.376 683.299,748.124 685.031,266.877 686.763,266.877 688.495,266.877 
  690.227,368.454 691.959,368.454 693.691,589.992 695.423,379.828 697.155,379.828 698.887,540.687 700.619,540.687 702.35,540.687 704.082,351.432 705.814,526.968 
  707.546,556.309 709.278,490.143 711.01,490.143 712.742,490.143 714.474,387.241 716.206,387.241 717.938,784.833 719.67,485.188 721.402,485.188 723.134,485.188 
  724.866,555.42 726.598,555.42 728.329,555.42 730.061,365.691 731.793,365.691 733.525,365.691 735.257,645.943 736.989,270.553 738.721,237.541 740.453,462.765 
  742.185,462.765 743.917,463.184 745.649,322.365 747.381,454.03 749.113,454.03 750.845,309.819 752.577,309.819 754.309,309.819 756.04,473.29 757.772,514.071 
  759.504,514.071 761.236,436.967 762.968,436.967 764.7,578.482 766.432,364.291 768.164,429.73 769.896,429.73 771.628,429.73 773.36,429.73 775.092,302.726 
  776.824,227.566 778.556,568.903 780.288,741.97 782.019,518.679 783.751,518.679 785.483,197.138 787.215,197.138 788.947,365.654 790.679,318.498 792.411,551.857 
  794.143,358.395 795.875,385.759 797.607,456.339 799.339,456.339 801.071,456.339 802.803,401.954 804.535,401.954 806.267,521.908 807.999,313.207 809.73,352.793 
  811.462,352.793 813.194,326.639 814.926,326.639 816.658,448.57 818.39,448.57 820.122,448.57 821.854,423.683 823.586,483.721 825.318,225.695 827.05,689.499 
  828.782,689.499 830.514,574.229 832.246,462.808 833.978,442.262 835.709,666.528 837.441,369.451 839.173,369.451 840.905,369.451 842.637,301.764 844.369,453.344 
  846.101,482.67 847.833,482.67 849.565,436.143 851.297,349.378 853.029,349.378 854.761,349.378 856.493,354.529 858.225,304.616 859.957,304.616 861.689,565.152 
  863.42,565.152 865.152,277.048 866.884,219.552 868.616,525.8 870.348,323.208 872.08,416.372 873.812,416.372 875.544,576.291 877.276,733.477 879.008,269.873 
  880.74,269.691 882.472,269.691 884.204,269.691 885.936,349.136 887.668,405.802 889.399,325.44 891.131,490.474 892.863,490.474 894.595,314.63 896.327,314.63 
  898.059,887.252 899.791,661.743 901.523,661.743 903.255,437.041 904.987,437.041 906.719,624.832 908.451,624.832 910.183,327.504 911.915,344.243 913.647,588.089 
  915.379,581.294 917.11,581.294 918.842,719.075 920.574,426.483 922.306,232.442 924.038,370.535 925.77,491.679 927.502,137.091 929.234,94.0124 930.966,152.142 
  932.698,195.961 934.43,163.735 936.162,191.786 937.894,370.125 939.626,213.494 941.358,537.224 943.089,537.224 944.821,599.86 946.553,599.86 948.285,599.86 
  950.017,576.865 951.749,576.865 953.481,576.865 955.213,264.813 956.945,669.341 958.677,313.244 960.409,313.244 962.141,313.244 963.873,525.828 965.605,313.117 
  967.337,214.513 969.069,338.993 970.8,774.986 972.532,277.999 974.264,277.999 975.996,577.668 977.728,577.668 979.46,577.668 981.192,358.086 982.924,559.885 
  984.656,545.342 986.388,287.468 988.12,432.523 989.852,511.135 991.584,511.135 993.316,269.709 995.048,293.596 996.779,293.596 998.511,293.596 1000.24,293.596 
  1001.98,399.173 1003.71,399.173 1005.44,402.653 1007.17,401.82 1008.9,401.82 1010.63,401.82 1012.37,307.388 1014.1,294.725 1015.83,322.916 1017.56,322.916 
  1019.29,613.967 1021.03,613.289 1022.76,380.187 1024.49,593.863 1026.22,471.724 1027.95,741.535 1029.69,265.195 1031.42,265.195 1033.15,483.652 1034.88,498.145 
  1036.61,518.123 1038.35,518.123 1040.08,342.087 1041.81,811.545 1043.54,248.325 1045.27,162.603 1047.01,328.44 1048.74,526.863 1050.47,445.843 1052.2,338.336 
  1053.93,288.928 1055.67,424.143 1057.4,183.901 1059.13,493.449 1060.86,297.209 1062.59,297.209 1064.32,297.209 1066.06,297.209 1067.79,460.043 1069.52,460.043 
  1071.25,561.524 1072.98,309.538 1074.72,309.538 1076.45,522.735 1078.18,522.735 1079.91,388.272 1081.64,388.272 1083.38,388.272 1085.11,532.516 1086.84,360.91 
  1088.57,263.045 1090.3,222.897 1092.04,571.552 1093.77,507.116 1095.5,507.116 1097.23,247.258 1098.96,654.797 1100.7,654.797 1102.43,654.797 1104.16,460.922 
  1105.89,460.922 1107.62,460.922 1109.36,729.812 1111.09,517.797 1112.82,396.159 1114.55,417.524 1116.28,354.995 1118.01,354.995 1119.75,354.995 1121.48,268.885 
  1123.21,268.885 1124.94,362.101 1126.67,442.222 1128.41,442.222 1130.14,593.592 1131.87,273.966 1133.6,277.882 1135.33,277.882 1137.07,342.651 1138.8,559.702 
  1140.53,315.566 1142.26,567.261 1143.99,581.288 1145.73,549.91 1147.46,444.73 1149.19,444.73 1150.92,470.779 1152.65,275.289 1154.39,652.957 1156.12,564.475 
  1157.85,535.262 1159.58,535.262 1161.31,716.366 1163.05,289.155 1164.78,379.007 1166.51,578.425 1168.24,437.137 1169.97,528.94 1171.7,246.738 1173.44,510.539 
  1175.17,510.539 1176.9,510.539 1178.63,404.676 1180.36,404.676 1182.1,309.59 1183.83,320.101 1185.56,626.84 1187.29,236.357 1189.02,241.942 1190.76,480.945 
  1192.49,480.945 1194.22,480.945 1195.95,480.945 1197.68,480.945 1199.42,480.945 1201.15,658.423 1202.88,658.423 1204.61,684.667 1206.34,446.406 1208.08,446.406 
  1209.81,418.224 1211.54,483.67 1213.27,483.67 1215,153.546 1216.74,391.392 1218.47,338.477 1220.2,519.996 1221.93,542.221 1223.66,542.221 1225.39,542.221 
  1227.13,542.221 1228.86,542.221 1230.59,541.643 1232.32,549.485 1234.05,549.485 1235.79,485.446 1237.52,383.192 1239.25,457.637 1240.98,298.618 1242.71,223.108 
  1244.45,481.014 1246.18,481.014 1247.91,322.259 1249.64,473.205 1251.37,473.205 1253.11,473.205 1254.84,532.567 1256.57,252.211 1258.3,92.0911 1260.03,302.144 
  1261.77,593.645 1263.5,256.191 1265.23,343.233 1266.96,343.233 1268.69,611.343 1270.43,212.772 1272.16,198.706 1273.89,315.189 1275.62,315.189 1277.35,344.63 
  1279.08,344.63 1280.82,474.336 1282.55,422.251 1284.28,427.007 1286.01,193.535 1287.74,347.34 1289.48,347.34 1291.21,347.34 1292.94,633.027 1294.67,528.947 
  1296.4,456.499 1298.14,805.387 1299.87,181.281 1301.6,378.264 1303.33,303.47 1305.06,237.674 1306.8,167.123 1308.53,161.328 1310.26,269.915 1311.99,578.426 
  1313.72,654.728 1315.46,459.776 1317.19,290.129 1318.92,589.366 1320.65,389.126 1322.38,490.055 1324.12,669.779 1325.85,358.562 1327.58,675.713 1329.31,326.995 
  1331.04,365.81 1332.77,365.81 1334.51,365.81 1336.24,365.81 1337.97,353.321 1339.7,377.512 1341.43,644.438 1343.17,360.855 1344.9,360.855 1346.63,542.998 
  1348.36,457.017 1350.09,457.017 1351.83,341.902 1353.56,572.091 1355.29,403.244 1357.02,555.529 1358.75,211.946 1360.49,401.85 1362.22,401.85 1363.95,290.371 
  1365.68,587.459 1367.41,587.459 1369.15,198.58 1370.88,725.288 1372.61,573.225 1374.34,302.275 1376.07,235.738 1377.81,235.738 1379.54,315.83 1381.27,610.036 
  1383,520.219 1384.73,520.219 1386.46,421.755 1388.2,614.617 1389.93,614.617 1391.66,223.074 1393.39,618.971 1395.12,618.971 1396.86,460.204 1398.59,328.799 
  1400.32,420.772 1402.05,329.808 1403.78,489.556 1405.52,489.556 1407.25,477.225 1408.98,477.225 1410.71,355.139 1412.44,355.139 1414.18,355.139 1415.91,642.23 
  1417.64,562.678 1419.37,191.746 1421.1,514.81 1422.84,419.807 1424.57,419.807 1426.3,419.807 1428.03,419.807 1429.76,594.002 1431.5,647.232 1433.23,647.232 
  1434.96,488.121 1436.69,347.009 1438.42,659.858 1440.15,257.083 1441.89,268.98 1443.62,163.408 1445.35,191.758 1447.08,198.802 1448.81,159.794 1450.55,677.57 
  1452.28,677.57 1454.01,654.881 1455.74,735.187 1457.47,612.016 1459.21,227.744 1460.94,216.801 1462.67,451.046 1464.4,451.046 1466.13,451.046 1467.87,359.193 
  1469.6,359.193 1471.33,359.193 1473.06,291.039 1474.79,291.039 1476.53,540.044 1478.26,595.891 1479.99,527.454 1481.72,563.756 1483.45,563.756 1485.19,455.158 
  1486.92,593.875 1488.65,593.875 1490.38,125.272 1492.11,631.61 1493.84,631.61 1495.58,194.749 1497.31,463.975 1499.04,463.975 1500.77,463.975 1502.5,463.975 
  1504.24,463.975 1505.97,474.288 1507.7,244.985 1509.43,229.327 1511.16,240.749 1512.9,693.567 1514.63,326.785 1516.36,650.904 1518.09,195.762 1519.82,363.39 
  1521.56,384.341 1523.29,540.682 1525.02,540.682 1526.75,484.395 1528.48,349.67 1530.22,349.67 1531.95,530.392 1533.68,331.883 1535.41,181.463 1537.14,182.719 
  1538.88,273.812 1540.61,747.938 1542.34,512.878 1544.07,359.607 1545.8,558.309 1547.53,558.309 1549.27,558.309 1551,516.484 1552.73,578.774 1554.46,313.589 
  1556.19,292.96 1557.93,316.585 1559.66,316.585 1561.39,316.585 1563.12,316.585 1564.85,252.249 1566.59,197.996 1568.32,310.425 1570.05,641.373 1571.78,641.373 
  1573.51,232.039 1575.25,245.452 1576.98,200.55 1578.71,200.55 1580.44,681.929 1582.17,225.822 1583.91,167.84 1585.64,232.529 1587.37,259.945 1589.1,383.795 
  1590.83,526.74 1592.57,534.769 1594.3,718.788 1596.03,226.787 1597.76,379.325 1599.49,235.123 1601.22,507.157 1602.96,507.157 1604.69,507.157 1606.42,336.44 
  1608.15,336.44 1609.88,606.837 1611.62,606.837 1613.35,393.172 1615.08,393.172 1616.81,490.705 1618.54,347.682 1620.28,347.682 1622.01,364.672 1623.74,492.472 
  1625.47,758.11 1627.2,287.368 1628.94,481.272 1630.67,254.686 1632.4,449.924 1634.13,449.924 1635.86,387.936 1637.6,356.048 1639.33,356.048 1641.06,597.483 
  1642.79,491.431 1644.52,491.431 1646.26,491.431 1647.99,491.431 1649.72,233.829 1651.45,325.897 1653.18,393.047 1654.91,525.629 1656.65,578.471 1658.38,415.38 
  1660.11,427.084 1661.84,427.084 1663.57,427.084 1665.31,403.564 1667.04,568.004 1668.77,568.004 1670.5,489.606 1672.23,599.552 1673.97,599.552 1675.7,604.619 
  1677.43,604.619 1679.16,267.688 1680.89,158.513 1682.63,427.668 1684.36,241.562 1686.09,243.296 1687.82,439.112 1689.55,99.0069 1691.29,106.492 1693.02,177.451 
  1694.75,553.911 1696.48,284.303 1698.21,671.977 1699.95,181.234 1701.68,407.353 1703.41,407.353 1705.14,407.353 1706.87,407.353 1708.6,407.353 1710.34,407.353 
  1712.07,442.138 1713.8,442.138 1715.53,442.138 1717.26,484.973 1719,622.616 1720.73,285.754 1722.46,285.754 1724.19,543.314 1725.92,646.014 1727.66,460.983 
  1729.39,331.749 1731.12,331.749 1732.85,507.074 1734.58,543.004 1736.32,710.689 1738.05,710.689 1739.78,176.776 1741.51,176.776 1743.24,303.123 1744.98,544.162 
  1746.71,273.284 1748.44,103.15 1750.17,102.741 1751.9,625.878 1753.64,625.878 1755.37,527.235 1757.1,264.825 1758.83,264.825 1760.56,504.47 1762.29,265.218 
  1764.03,732.596 1765.76,443.785 1767.49,374.958 1769.22,547.992 1770.95,547.992 1772.69,469.33 1774.42,469.33 1776.15,469.33 1777.88,469.33 1779.61,469.33 
  1781.35,186.724 1783.08,543.292 1784.81,421.071 1786.54,271.053 1788.27,200.341 1790.01,522.321 1791.74,341.851 1793.47,341.851 1795.2,695.289 1796.93,263.892 
  1798.67,254.376 1800.4,638.782 1802.13,327.579 1803.86,327.579 1805.59,302.394 1807.33,302.394 1809.06,302.394 1810.79,302.394 1812.52,556.046 1814.25,489.504 
  1815.98,522.39 1817.72,504.178 1819.45,504.178 1821.18,411.624 1822.91,310.054 1824.64,531.029 1826.38,575.929 1828.11,575.929 1829.84,607.423 1831.57,529.1 
  1833.3,593.25 1835.04,429.556 1836.77,183.08 1838.5,618.375 1840.23,618.375 1841.96,639.17 1843.7,536.407 1845.43,604.998 1847.16,235.391 1848.89,380.884 
  1850.62,380.884 1852.36,219.78 1854.09,572.972 1855.82,567.048 1857.55,567.048 1859.28,567.048 1861.02,567.048 1862.75,567.048 1864.48,506.681 1866.21,397.138 
  1867.94,397.138 1869.67,397.138 1871.41,312.554 1873.14,286.42 1874.87,286.42 1876.6,555.374 1878.33,346.15 1880.07,297.987 1881.8,297.987 1883.53,665.445 
  1885.26,218.129 1886.99,368.095 1888.73,498.393 1890.46,421.61 1892.19,421.61 1893.92,517.428 1895.65,517.428 1897.39,376.507 1899.12,232.515 1900.85,308.446 
  
  "/>
<path clip-path="url(#clip620)" d="
M2118.74 911.26 L3952.76 911.26 L3952.76 62.9921 L2118.74 62.9921  Z
  " fill="#ffffff" fill-rule="evenodd" fill-opacity="1"/>
<defs>
  <clipPath id="clip623">
    <rect x="2118" y="62" width="1835" height="849"/>
  </clipPath>
</defs>
<polyline clip-path="url(#clip623)" style="stroke:#000000; stroke-width:2; stroke-opacity:0.1; fill:none" points="
  2375.78,911.26 2375.78,62.9921 
  "/>
<polyline clip-path="url(#clip623)" style="stroke:#000000; stroke-width:2; stroke-opacity:0.1; fill:none" points="
  2716.59,911.26 2716.59,62.9921 
  "/>
<polyline clip-path="url(#clip623)" style="stroke:#000000; stroke-width:2; stroke-opacity:0.1; fill:none" points="
  3057.39,911.26 3057.39,62.9921 
  "/>
<polyline clip-path="url(#clip623)" style="stroke:#000000; stroke-width:2; stroke-opacity:0.1; fill:none" points="
  3398.2,911.26 3398.2,62.9921 
  "/>
<polyline clip-path="url(#clip623)" style="stroke:#000000; stroke-width:2; stroke-opacity:0.1; fill:none" points="
  3739,911.26 3739,62.9921 
  "/>
<polyline clip-path="url(#clip620)" style="stroke:#000000; stroke-width:4; stroke-opacity:1; fill:none" points="
  2118.74,911.26 3952.76,911.26 
  "/>
<polyline clip-path="url(#clip620)" style="stroke:#000000; stroke-width:4; stroke-opacity:1; fill:none" points="
  2375.78,911.26 2375.78,901.081 
  "/>
<polyline clip-path="url(#clip620)" style="stroke:#000000; stroke-width:4; stroke-opacity:1; fill:none" points="
  2716.59,911.26 2716.59,901.081 
  "/>
<polyline clip-path="url(#clip620)" style="stroke:#000000; stroke-width:4; stroke-opacity:1; fill:none" points="
  3057.39,911.26 3057.39,901.081 
  "/>
<polyline clip-path="url(#clip620)" style="stroke:#000000; stroke-width:4; stroke-opacity:1; fill:none" points="
  3398.2,911.26 3398.2,901.081 
  "/>
<polyline clip-path="url(#clip620)" style="stroke:#000000; stroke-width:4; stroke-opacity:1; fill:none" points="
  3739,911.26 3739,901.081 
  "/>
<path clip-path="url(#clip620)" d="M 0 0 M2358.09 953.251 Q2354.48 953.251 2352.65 956.815 Q2350.85 960.357 2350.85 967.487 Q2350.85 974.593 2352.65 978.158 Q2354.48 981.699 2358.09 981.699 Q2361.73 981.699 2363.53 978.158 Q2365.36 974.593 2365.36 967.487 Q2365.36 960.357 2363.53 956.815 Q2361.73 953.251 2358.09 953.251 M2358.09 949.547 Q2363.9 949.547 2366.96 954.153 Q2370.04 958.737 2370.04 967.487 Q2370.04 976.213 2366.96 980.82 Q2363.9 985.403 2358.09 985.403 Q2352.28 985.403 2349.2 980.82 Q2346.15 976.213 2346.15 967.487 Q2346.15 958.737 2349.2 954.153 Q2352.28 949.547 2358.09 949.547 Z" fill="#000000" fill-rule="evenodd" fill-opacity="1" /><path clip-path="url(#clip620)" d="M 0 0 M2375.11 978.852 L2379.99 978.852 L2379.99 984.732 L2375.11 984.732 L2375.11 978.852 Z" fill="#000000" fill-rule="evenodd" fill-opacity="1" /><path clip-path="url(#clip620)" d="M 0 0 M2389.09 980.797 L2405.41 980.797 L2405.41 984.732 L2383.46 984.732 L2383.46 980.797 Q2386.13 978.042 2390.71 973.412 Q2395.32 968.76 2396.5 967.417 Q2398.74 964.894 2399.62 963.158 Q2400.52 961.399 2400.52 959.709 Q2400.52 956.954 2398.58 955.218 Q2396.66 953.482 2393.56 953.482 Q2391.36 953.482 2388.9 954.246 Q2386.47 955.01 2383.7 956.561 L2383.7 951.839 Q2386.52 950.704 2388.97 950.126 Q2391.43 949.547 2393.46 949.547 Q2398.83 949.547 2402.03 952.232 Q2405.22 954.917 2405.22 959.408 Q2405.22 961.538 2404.41 963.459 Q2403.63 965.357 2401.52 967.95 Q2400.94 968.621 2397.84 971.838 Q2394.74 975.033 2389.09 980.797 Z" fill="#000000" fill-rule="evenodd" fill-opacity="1" /><path clip-path="url(#clip620)" d="M 0 0 M2697.86 953.251 Q2694.25 953.251 2692.42 956.815 Q2690.61 960.357 2690.61 967.487 Q2690.61 974.593 2692.42 978.158 Q2694.25 981.699 2697.86 981.699 Q2701.49 981.699 2703.3 978.158 Q2705.13 974.593 2705.13 967.487 Q2705.13 960.357 2703.3 956.815 Q2701.49 953.251 2697.86 953.251 M2697.86 949.547 Q2703.67 949.547 2706.72 954.153 Q2709.8 958.737 2709.8 967.487 Q2709.8 976.213 2706.72 980.82 Q2703.67 985.403 2697.86 985.403 Q2692.05 985.403 2688.97 980.82 Q2685.91 976.213 2685.91 967.487 Q2685.91 958.737 2688.97 954.153 Q2692.05 949.547 2697.86 949.547 Z" fill="#000000" fill-rule="evenodd" fill-opacity="1" /><path clip-path="url(#clip620)" d="M 0 0 M2714.87 978.852 L2719.76 978.852 L2719.76 984.732 L2714.87 984.732 L2714.87 978.852 Z" fill="#000000" fill-rule="evenodd" fill-opacity="1" /><path clip-path="url(#clip620)" d="M 0 0 M2737.67 954.246 L2725.87 972.695 L2737.67 972.695 L2737.67 954.246 M2736.45 950.172 L2742.33 950.172 L2742.33 972.695 L2747.26 972.695 L2747.26 976.584 L2742.33 976.584 L2742.33 984.732 L2737.67 984.732 L2737.67 976.584 L2722.07 976.584 L2722.07 972.07 L2736.45 950.172 Z" fill="#000000" fill-rule="evenodd" fill-opacity="1" /><path clip-path="url(#clip620)" d="M 0 0 M3038.83 953.251 Q3035.22 953.251 3033.39 956.815 Q3031.58 960.357 3031.58 967.487 Q3031.58 974.593 3033.39 978.158 Q3035.22 981.699 3038.83 981.699 Q3042.46 981.699 3044.27 978.158 Q3046.1 974.593 3046.1 967.487 Q3046.1 960.357 3044.27 956.815 Q3042.46 953.251 3038.83 953.251 M3038.83 949.547 Q3044.64 949.547 3047.69 954.153 Q3050.77 958.737 3050.77 967.487 Q3050.77 976.213 3047.69 980.82 Q3044.64 985.403 3038.83 985.403 Q3033.02 985.403 3029.94 980.82 Q3026.88 976.213 3026.88 967.487 Q3026.88 958.737 3029.94 954.153 Q3033.02 949.547 3038.83 949.547 Z" fill="#000000" fill-rule="evenodd" fill-opacity="1" /><path clip-path="url(#clip620)" d="M 0 0 M3055.84 978.852 L3060.72 978.852 L3060.72 984.732 L3055.84 984.732 L3055.84 978.852 Z" fill="#000000" fill-rule="evenodd" fill-opacity="1" /><path clip-path="url(#clip620)" d="M 0 0 M3076.37 965.588 Q3073.22 965.588 3071.37 967.741 Q3069.54 969.894 3069.54 973.644 Q3069.54 977.371 3071.37 979.547 Q3073.22 981.699 3076.37 981.699 Q3079.52 981.699 3081.35 979.547 Q3083.2 977.371 3083.2 973.644 Q3083.2 969.894 3081.35 967.741 Q3079.52 965.588 3076.37 965.588 M3085.66 950.936 L3085.66 955.195 Q3083.9 954.362 3082.09 953.922 Q3080.31 953.482 3078.55 953.482 Q3073.92 953.482 3071.47 956.607 Q3069.03 959.732 3068.69 966.051 Q3070.05 964.038 3072.11 962.973 Q3074.17 961.885 3076.65 961.885 Q3081.86 961.885 3084.87 965.056 Q3087.9 968.204 3087.9 973.644 Q3087.9 978.968 3084.75 982.186 Q3081.6 985.403 3076.37 985.403 Q3070.38 985.403 3067.21 980.82 Q3064.03 976.213 3064.03 967.487 Q3064.03 959.292 3067.92 954.431 Q3071.81 949.547 3078.36 949.547 Q3080.12 949.547 3081.91 949.894 Q3083.71 950.241 3085.66 950.936 Z" fill="#000000" fill-rule="evenodd" fill-opacity="1" /><path clip-path="url(#clip620)" d="M 0 0 M3379.76 953.251 Q3376.15 953.251 3374.32 956.815 Q3372.52 960.357 3372.52 967.487 Q3372.52 974.593 3374.32 978.158 Q3376.15 981.699 3379.76 981.699 Q3383.39 981.699 3385.2 978.158 Q3387.03 974.593 3387.03 967.487 Q3387.03 960.357 3385.2 956.815 Q3383.39 953.251 3379.76 953.251 M3379.76 949.547 Q3385.57 949.547 3388.63 954.153 Q3391.7 958.737 3391.7 967.487 Q3391.7 976.213 3388.63 980.82 Q3385.57 985.403 3379.76 985.403 Q3373.95 985.403 3370.87 980.82 Q3367.82 976.213 3367.82 967.487 Q3367.82 958.737 3370.87 954.153 Q3373.95 949.547 3379.76 949.547 Z" fill="#000000" fill-rule="evenodd" fill-opacity="1" /><path clip-path="url(#clip620)" d="M 0 0 M3396.77 978.852 L3401.66 978.852 L3401.66 984.732 L3396.77 984.732 L3396.77 978.852 Z" fill="#000000" fill-rule="evenodd" fill-opacity="1" /><path clip-path="url(#clip620)" d="M 0 0 M3416.73 968.32 Q3413.39 968.32 3411.47 970.102 Q3409.58 971.885 3409.58 975.01 Q3409.58 978.135 3411.47 979.917 Q3413.39 981.699 3416.73 981.699 Q3420.06 981.699 3421.98 979.917 Q3423.9 978.112 3423.9 975.01 Q3423.9 971.885 3421.98 970.102 Q3420.08 968.32 3416.73 968.32 M3412.05 966.329 Q3409.04 965.588 3407.35 963.528 Q3405.69 961.468 3405.69 958.505 Q3405.69 954.362 3408.63 951.954 Q3411.59 949.547 3416.73 949.547 Q3421.89 949.547 3424.83 951.954 Q3427.77 954.362 3427.77 958.505 Q3427.77 961.468 3426.08 963.528 Q3424.41 965.588 3421.43 966.329 Q3424.81 967.116 3426.68 969.408 Q3428.58 971.7 3428.58 975.01 Q3428.58 980.033 3425.5 982.718 Q3422.45 985.403 3416.73 985.403 Q3411.01 985.403 3407.93 982.718 Q3404.88 980.033 3404.88 975.01 Q3404.88 971.7 3406.77 969.408 Q3408.67 967.116 3412.05 966.329 M3410.34 958.945 Q3410.34 961.63 3412.01 963.135 Q3413.7 964.639 3416.73 964.639 Q3419.74 964.639 3421.43 963.135 Q3423.14 961.63 3423.14 958.945 Q3423.14 956.26 3421.43 954.755 Q3419.74 953.251 3416.73 953.251 Q3413.7 953.251 3412.01 954.755 Q3410.34 956.26 3410.34 958.945 Z" fill="#000000" fill-rule="evenodd" fill-opacity="1" /><path clip-path="url(#clip620)" d="M 0 0 M3710.9 980.797 L3718.54 980.797 L3718.54 954.431 L3710.23 956.098 L3710.23 951.839 L3718.49 950.172 L3723.17 950.172 L3723.17 980.797 L3730.81 980.797 L3730.81 984.732 L3710.9 984.732 L3710.9 980.797 Z" fill="#000000" fill-rule="evenodd" fill-opacity="1" /><path clip-path="url(#clip620)" d="M 0 0 M3735.88 978.852 L3740.76 978.852 L3740.76 984.732 L3735.88 984.732 L3735.88 978.852 Z" fill="#000000" fill-rule="evenodd" fill-opacity="1" /><path clip-path="url(#clip620)" d="M 0 0 M3755.83 953.251 Q3752.22 953.251 3750.39 956.815 Q3748.59 960.357 3748.59 967.487 Q3748.59 974.593 3750.39 978.158 Q3752.22 981.699 3755.83 981.699 Q3759.47 981.699 3761.27 978.158 Q3763.1 974.593 3763.1 967.487 Q3763.1 960.357 3761.27 956.815 Q3759.47 953.251 3755.83 953.251 M3755.83 949.547 Q3761.64 949.547 3764.7 954.153 Q3767.78 958.737 3767.78 967.487 Q3767.78 976.213 3764.7 980.82 Q3761.64 985.403 3755.83 985.403 Q3750.02 985.403 3746.94 980.82 Q3743.89 976.213 3743.89 967.487 Q3743.89 958.737 3746.94 954.153 Q3750.02 949.547 3755.83 949.547 Z" fill="#000000" fill-rule="evenodd" fill-opacity="1" /><path clip-path="url(#clip620)" d="M 0 0 M2872.69 1014.16 L2872.69 1020.43 Q2869.03 1018.68 2865.78 1017.82 Q2862.54 1016.96 2859.51 1016.96 Q2854.26 1016.96 2851.4 1019 Q2848.56 1021.04 2848.56 1024.79 Q2848.56 1027.95 2850.44 1029.57 Q2852.35 1031.16 2857.64 1032.15 L2861.52 1032.94 Q2868.71 1034.31 2872.12 1037.78 Q2875.56 1041.22 2875.56 1047.01 Q2875.56 1053.92 2870.91 1057.48 Q2866.29 1061.05 2857.35 1061.05 Q2853.98 1061.05 2850.16 1060.28 Q2846.37 1059.52 2842.29 1058.02 L2842.29 1051.4 Q2846.21 1053.6 2849.96 1054.71 Q2853.72 1055.83 2857.35 1055.83 Q2862.86 1055.83 2865.85 1053.66 Q2868.84 1051.5 2868.84 1047.49 Q2868.84 1043.99 2866.67 1042.01 Q2864.54 1040.04 2859.64 1039.05 L2855.73 1038.29 Q2848.53 1036.86 2845.32 1033.8 Q2842.1 1030.75 2842.1 1025.3 Q2842.1 1019 2846.53 1015.37 Q2850.98 1011.74 2858.78 1011.74 Q2862.12 1011.74 2865.59 1012.35 Q2869.06 1012.95 2872.69 1014.16 Z" fill="#000000" fill-rule="evenodd" fill-opacity="1" /><path clip-path="url(#clip620)" d="M 0 0 M2897.9 1042.2 Q2890.8 1042.2 2888.06 1043.83 Q2885.33 1045.45 2885.33 1049.37 Q2885.33 1052.48 2887.36 1054.33 Q2889.43 1056.15 2892.97 1056.15 Q2897.83 1056.15 2900.76 1052.71 Q2903.72 1049.24 2903.72 1043.51 L2903.72 1042.2 L2897.9 1042.2 M2909.58 1039.79 L2909.58 1060.12 L2903.72 1060.12 L2903.72 1054.71 Q2901.72 1057.96 2898.73 1059.52 Q2895.73 1061.05 2891.41 1061.05 Q2885.93 1061.05 2882.68 1057.99 Q2879.47 1054.9 2879.47 1049.75 Q2879.47 1043.73 2883.48 1040.68 Q2887.52 1037.62 2895.51 1037.62 L2903.72 1037.62 L2903.72 1037.05 Q2903.72 1033.01 2901.05 1030.81 Q2898.41 1028.58 2893.6 1028.58 Q2890.55 1028.58 2887.65 1029.31 Q2884.75 1030.05 2882.08 1031.51 L2882.08 1026.1 Q2885.29 1024.86 2888.32 1024.25 Q2891.34 1023.62 2894.21 1023.62 Q2901.94 1023.62 2905.76 1027.63 Q2909.58 1031.64 2909.58 1039.79 Z" fill="#000000" fill-rule="evenodd" fill-opacity="1" /><path clip-path="url(#clip620)" d="M 0 0 M2943.48 1031.32 Q2945.67 1027.37 2948.73 1025.49 Q2951.78 1023.62 2955.92 1023.62 Q2961.49 1023.62 2964.52 1027.53 Q2967.54 1031.41 2967.54 1038.61 L2967.54 1060.12 L2961.65 1060.12 L2961.65 1038.8 Q2961.65 1033.67 2959.84 1031.19 Q2958.02 1028.71 2954.3 1028.71 Q2949.75 1028.71 2947.11 1031.73 Q2944.46 1034.76 2944.46 1039.98 L2944.46 1060.12 L2938.58 1060.12 L2938.58 1038.8 Q2938.58 1033.64 2936.76 1031.19 Q2934.95 1028.71 2931.16 1028.71 Q2926.67 1028.71 2924.03 1031.76 Q2921.39 1034.79 2921.39 1039.98 L2921.39 1060.12 L2915.5 1060.12 L2915.5 1024.48 L2921.39 1024.48 L2921.39 1030.01 Q2923.39 1026.74 2926.19 1025.18 Q2929 1023.62 2932.85 1023.62 Q2936.73 1023.62 2939.43 1025.59 Q2942.17 1027.56 2943.48 1031.32 Z" fill="#000000" fill-rule="evenodd" fill-opacity="1" /><path clip-path="url(#clip620)" d="M 0 0 M2979.35 1054.78 L2979.35 1073.68 L2973.46 1073.68 L2973.46 1024.48 L2979.35 1024.48 L2979.35 1029.89 Q2981.19 1026.7 2983.99 1025.18 Q2986.83 1023.62 2990.74 1023.62 Q2997.24 1023.62 3001.28 1028.77 Q3005.35 1033.93 3005.35 1042.33 Q3005.35 1050.73 3001.28 1055.89 Q2997.24 1061.05 2990.74 1061.05 Q2986.83 1061.05 2983.99 1059.52 Q2981.19 1057.96 2979.35 1054.78 M2999.27 1042.33 Q2999.27 1035.87 2996.6 1032.21 Q2993.96 1028.52 2989.31 1028.52 Q2984.66 1028.52 2981.99 1032.21 Q2979.35 1035.87 2979.35 1042.33 Q2979.35 1048.79 2981.99 1052.48 Q2984.66 1056.15 2989.31 1056.15 Q2993.96 1056.15 2996.6 1052.48 Q2999.27 1048.79 2999.27 1042.33 Z" fill="#000000" fill-rule="evenodd" fill-opacity="1" /><path clip-path="url(#clip620)" d="M 0 0 M3011.49 1010.6 L3017.35 1010.6 L3017.35 1060.12 L3011.49 1060.12 L3011.49 1010.6 Z" fill="#000000" fill-rule="evenodd" fill-opacity="1" /><path clip-path="url(#clip620)" d="M 0 0 M3053.99 1040.84 L3053.99 1043.7 L3027.06 1043.7 Q3027.44 1049.75 3030.69 1052.93 Q3033.97 1056.08 3039.79 1056.08 Q3043.16 1056.08 3046.32 1055.25 Q3049.5 1054.43 3052.62 1052.77 L3052.62 1058.31 Q3049.47 1059.65 3046.16 1060.35 Q3042.85 1061.05 3039.44 1061.05 Q3030.91 1061.05 3025.91 1056.08 Q3020.95 1051.12 3020.95 1042.65 Q3020.95 1033.9 3025.66 1028.77 Q3030.4 1023.62 3038.42 1023.62 Q3045.61 1023.62 3049.78 1028.26 Q3053.99 1032.88 3053.99 1040.84 M3048.13 1039.12 Q3048.07 1034.31 3045.42 1031.45 Q3042.81 1028.58 3038.49 1028.58 Q3033.58 1028.58 3030.62 1031.35 Q3027.7 1034.12 3027.25 1039.15 L3048.13 1039.12 Z" fill="#000000" fill-rule="evenodd" fill-opacity="1" /><path clip-path="url(#clip620)" d="M 0 0 M3076.65 1024.48 L3082.85 1024.48 L3093.99 1054.39 L3105.13 1024.48 L3111.34 1024.48 L3097.97 1060.12 L3090.02 1060.12 L3076.65 1024.48 Z" fill="#000000" fill-rule="evenodd" fill-opacity="1" /><path clip-path="url(#clip620)" d="M 0 0 M3133.68 1042.2 Q3126.59 1042.2 3123.85 1043.83 Q3121.11 1045.45 3121.11 1049.37 Q3121.11 1052.48 3123.15 1054.33 Q3125.22 1056.15 3128.75 1056.15 Q3133.62 1056.15 3136.55 1052.71 Q3139.51 1049.24 3139.51 1043.51 L3139.51 1042.2 L3133.68 1042.2 M3145.37 1039.79 L3145.37 1060.12 L3139.51 1060.12 L3139.51 1054.71 Q3137.5 1057.96 3134.51 1059.52 Q3131.52 1061.05 3127.19 1061.05 Q3121.72 1061.05 3118.47 1057.99 Q3115.26 1054.9 3115.26 1049.75 Q3115.26 1043.73 3119.27 1040.68 Q3123.31 1037.62 3131.3 1037.62 L3139.51 1037.62 L3139.51 1037.05 Q3139.51 1033.01 3136.84 1030.81 Q3134.19 1028.58 3129.39 1028.58 Q3126.33 1028.58 3123.44 1029.31 Q3120.54 1030.05 3117.87 1031.51 L3117.87 1026.1 Q3121.08 1024.86 3124.1 1024.25 Q3127.13 1023.62 3129.99 1023.62 Q3137.73 1023.62 3141.55 1027.63 Q3145.37 1031.64 3145.37 1039.79 Z" fill="#000000" fill-rule="evenodd" fill-opacity="1" /><path clip-path="url(#clip620)" d="M 0 0 M3151.51 1010.6 L3157.36 1010.6 L3157.36 1060.12 L3151.51 1060.12 L3151.51 1010.6 Z" fill="#000000" fill-rule="evenodd" fill-opacity="1" /><path clip-path="url(#clip620)" d="M 0 0 M3162.9 1046.06 L3162.9 1024.48 L3168.76 1024.48 L3168.76 1045.83 Q3168.76 1050.89 3170.73 1053.44 Q3172.71 1055.95 3176.65 1055.95 Q3181.4 1055.95 3184.13 1052.93 Q3186.9 1049.91 3186.9 1044.69 L3186.9 1024.48 L3192.76 1024.48 L3192.76 1060.12 L3186.9 1060.12 L3186.9 1054.65 Q3184.77 1057.9 3181.94 1059.49 Q3179.14 1061.05 3175.41 1061.05 Q3169.27 1061.05 3166.09 1057.23 Q3162.9 1053.41 3162.9 1046.06 M3177.64 1023.62 L3177.64 1023.62 Z" fill="#000000" fill-rule="evenodd" fill-opacity="1" /><path clip-path="url(#clip620)" d="M 0 0 M3229.39 1040.84 L3229.39 1043.7 L3202.47 1043.7 Q3202.85 1049.75 3206.09 1052.93 Q3209.37 1056.08 3215.2 1056.08 Q3218.57 1056.08 3221.72 1055.25 Q3224.91 1054.43 3228.02 1052.77 L3228.02 1058.31 Q3224.87 1059.65 3221.56 1060.35 Q3218.25 1061.05 3214.85 1061.05 Q3206.32 1061.05 3201.32 1056.08 Q3196.35 1051.12 3196.35 1042.65 Q3196.35 1033.9 3201.07 1028.77 Q3205.81 1023.62 3213.83 1023.62 Q3221.02 1023.62 3225.19 1028.26 Q3229.39 1032.88 3229.39 1040.84 M3223.54 1039.12 Q3223.47 1034.31 3220.83 1031.45 Q3218.22 1028.58 3213.89 1028.58 Q3208.99 1028.58 3206.03 1031.35 Q3203.1 1034.12 3202.66 1039.15 L3223.54 1039.12 Z" fill="#000000" fill-rule="evenodd" fill-opacity="1" /><polyline clip-path="url(#clip623)" style="stroke:#000000; stroke-width:2; stroke-opacity:0.1; fill:none" points="
  2118.74,887.256 3952.76,887.256 
  "/>
<polyline clip-path="url(#clip623)" style="stroke:#000000; stroke-width:2; stroke-opacity:0.1; fill:none" points="
  2118.74,721.207 3952.76,721.207 
  "/>
<polyline clip-path="url(#clip623)" style="stroke:#000000; stroke-width:2; stroke-opacity:0.1; fill:none" points="
  2118.74,555.158 3952.76,555.158 
  "/>
<polyline clip-path="url(#clip623)" style="stroke:#000000; stroke-width:2; stroke-opacity:0.1; fill:none" points="
  2118.74,389.109 3952.76,389.109 
  "/>
<polyline clip-path="url(#clip623)" style="stroke:#000000; stroke-width:2; stroke-opacity:0.1; fill:none" points="
  2118.74,223.06 3952.76,223.06 
  "/>
<polyline clip-path="url(#clip620)" style="stroke:#000000; stroke-width:4; stroke-opacity:1; fill:none" points="
  2118.74,911.26 2118.74,62.9921 
  "/>
<polyline clip-path="url(#clip620)" style="stroke:#000000; stroke-width:4; stroke-opacity:1; fill:none" points="
  2118.74,887.256 2140.75,887.256 
  "/>
<polyline clip-path="url(#clip620)" style="stroke:#000000; stroke-width:4; stroke-opacity:1; fill:none" points="
  2118.74,721.207 2140.75,721.207 
  "/>
<polyline clip-path="url(#clip620)" style="stroke:#000000; stroke-width:4; stroke-opacity:1; fill:none" points="
  2118.74,555.158 2140.75,555.158 
  "/>
<polyline clip-path="url(#clip620)" style="stroke:#000000; stroke-width:4; stroke-opacity:1; fill:none" points="
  2118.74,389.109 2140.75,389.109 
  "/>
<polyline clip-path="url(#clip620)" style="stroke:#000000; stroke-width:4; stroke-opacity:1; fill:none" points="
  2118.74,223.06 2140.75,223.06 
  "/>
<path clip-path="url(#clip620)" d="M 0 0 M2009.83 873.054 Q2006.22 873.054 2004.39 876.619 Q2002.58 880.161 2002.58 887.291 Q2002.58 894.397 2004.39 897.962 Q2006.22 901.503 2009.83 901.503 Q2013.46 901.503 2015.27 897.962 Q2017.1 894.397 2017.1 887.291 Q2017.1 880.161 2015.27 876.619 Q2013.46 873.054 2009.83 873.054 M2009.83 869.351 Q2015.64 869.351 2018.69 873.957 Q2021.77 878.541 2021.77 887.291 Q2021.77 896.017 2018.69 900.624 Q2015.64 905.207 2009.83 905.207 Q2004.02 905.207 2000.94 900.624 Q1997.88 896.017 1997.88 887.291 Q1997.88 878.541 2000.94 873.957 Q2004.02 869.351 2009.83 869.351 Z" fill="#000000" fill-rule="evenodd" fill-opacity="1" /><path clip-path="url(#clip620)" d="M 0 0 M2026.84 898.656 L2031.73 898.656 L2031.73 904.536 L2026.84 904.536 L2026.84 898.656 Z" fill="#000000" fill-rule="evenodd" fill-opacity="1" /><path clip-path="url(#clip620)" d="M 0 0 M2046.8 873.054 Q2043.18 873.054 2041.36 876.619 Q2039.55 880.161 2039.55 887.291 Q2039.55 894.397 2041.36 897.962 Q2043.18 901.503 2046.8 901.503 Q2050.43 901.503 2052.24 897.962 Q2054.06 894.397 2054.06 887.291 Q2054.06 880.161 2052.24 876.619 Q2050.43 873.054 2046.8 873.054 M2046.8 869.351 Q2052.61 869.351 2055.66 873.957 Q2058.74 878.541 2058.74 887.291 Q2058.74 896.017 2055.66 900.624 Q2052.61 905.207 2046.8 905.207 Q2040.99 905.207 2037.91 900.624 Q2034.85 896.017 2034.85 887.291 Q2034.85 878.541 2037.91 873.957 Q2040.99 869.351 2046.8 869.351 Z" fill="#000000" fill-rule="evenodd" fill-opacity="1" /><path clip-path="url(#clip620)" d="M 0 0 M2010.82 707.005 Q2007.21 707.005 2005.38 710.57 Q2003.58 714.112 2003.58 721.241 Q2003.58 728.348 2005.38 731.913 Q2007.21 735.454 2010.82 735.454 Q2014.46 735.454 2016.26 731.913 Q2018.09 728.348 2018.09 721.241 Q2018.09 714.112 2016.26 710.57 Q2014.46 707.005 2010.82 707.005 M2010.82 703.302 Q2016.63 703.302 2019.69 707.908 Q2022.77 712.492 2022.77 721.241 Q2022.77 729.968 2019.69 734.575 Q2016.63 739.158 2010.82 739.158 Q2005.01 739.158 2001.93 734.575 Q1998.88 729.968 1998.88 721.241 Q1998.88 712.492 2001.93 707.908 Q2005.01 703.302 2010.82 703.302 Z" fill="#000000" fill-rule="evenodd" fill-opacity="1" /><path clip-path="url(#clip620)" d="M 0 0 M2027.84 732.607 L2032.72 732.607 L2032.72 738.487 L2027.84 738.487 L2027.84 732.607 Z" fill="#000000" fill-rule="evenodd" fill-opacity="1" /><path clip-path="url(#clip620)" d="M 0 0 M2037.84 703.927 L2056.19 703.927 L2056.19 707.862 L2042.12 707.862 L2042.12 716.334 Q2043.14 715.987 2044.16 715.825 Q2045.18 715.64 2046.19 715.64 Q2051.98 715.64 2055.36 718.811 Q2058.74 721.982 2058.74 727.399 Q2058.74 732.978 2055.27 736.079 Q2051.8 739.158 2045.48 739.158 Q2043.3 739.158 2041.03 738.788 Q2038.79 738.417 2036.38 737.677 L2036.38 732.978 Q2038.46 734.112 2040.68 734.667 Q2042.91 735.223 2045.38 735.223 Q2049.39 735.223 2051.73 733.116 Q2054.06 731.01 2054.06 727.399 Q2054.06 723.788 2051.73 721.681 Q2049.39 719.575 2045.38 719.575 Q2043.51 719.575 2041.63 719.991 Q2039.78 720.408 2037.84 721.288 L2037.84 703.927 Z" fill="#000000" fill-rule="evenodd" fill-opacity="1" /><path clip-path="url(#clip620)" d="M 0 0 M2001.87 568.503 L2009.5 568.503 L2009.5 542.137 L2001.19 543.804 L2001.19 539.544 L2009.46 537.878 L2014.13 537.878 L2014.13 568.503 L2021.77 568.503 L2021.77 572.438 L2001.87 572.438 L2001.87 568.503 Z" fill="#000000" fill-rule="evenodd" fill-opacity="1" /><path clip-path="url(#clip620)" d="M 0 0 M2026.84 566.558 L2031.73 566.558 L2031.73 572.438 L2026.84 572.438 L2026.84 566.558 Z" fill="#000000" fill-rule="evenodd" fill-opacity="1" /><path clip-path="url(#clip620)" d="M 0 0 M2046.8 540.956 Q2043.18 540.956 2041.36 544.521 Q2039.55 548.063 2039.55 555.192 Q2039.55 562.299 2041.36 565.864 Q2043.18 569.405 2046.8 569.405 Q2050.43 569.405 2052.24 565.864 Q2054.06 562.299 2054.06 555.192 Q2054.06 548.063 2052.24 544.521 Q2050.43 540.956 2046.8 540.956 M2046.8 537.253 Q2052.61 537.253 2055.66 541.859 Q2058.74 546.443 2058.74 555.192 Q2058.74 563.919 2055.66 568.526 Q2052.61 573.109 2046.8 573.109 Q2040.99 573.109 2037.91 568.526 Q2034.85 563.919 2034.85 555.192 Q2034.85 546.443 2037.91 541.859 Q2040.99 537.253 2046.8 537.253 Z" fill="#000000" fill-rule="evenodd" fill-opacity="1" /><path clip-path="url(#clip620)" d="M 0 0 M2002.86 402.454 L2010.5 402.454 L2010.5 376.088 L2002.19 377.755 L2002.19 373.495 L2010.45 371.829 L2015.13 371.829 L2015.13 402.454 L2022.77 402.454 L2022.77 406.389 L2002.86 406.389 L2002.86 402.454 Z" fill="#000000" fill-rule="evenodd" fill-opacity="1" /><path clip-path="url(#clip620)" d="M 0 0 M2027.84 400.509 L2032.72 400.509 L2032.72 406.389 L2027.84 406.389 L2027.84 400.509 Z" fill="#000000" fill-rule="evenodd" fill-opacity="1" /><path clip-path="url(#clip620)" d="M 0 0 M2037.84 371.829 L2056.19 371.829 L2056.19 375.764 L2042.12 375.764 L2042.12 384.236 Q2043.14 383.889 2044.16 383.727 Q2045.18 383.542 2046.19 383.542 Q2051.98 383.542 2055.36 386.713 Q2058.74 389.884 2058.74 395.301 Q2058.74 400.88 2055.27 403.981 Q2051.8 407.06 2045.48 407.06 Q2043.3 407.06 2041.03 406.69 Q2038.79 406.319 2036.38 405.579 L2036.38 400.88 Q2038.46 402.014 2040.68 402.569 Q2042.91 403.125 2045.38 403.125 Q2049.39 403.125 2051.73 401.018 Q2054.06 398.912 2054.06 395.301 Q2054.06 391.69 2051.73 389.583 Q2049.39 387.477 2045.38 387.477 Q2043.51 387.477 2041.63 387.893 Q2039.78 388.31 2037.84 389.19 L2037.84 371.829 Z" fill="#000000" fill-rule="evenodd" fill-opacity="1" /><path clip-path="url(#clip620)" d="M 0 0 M2005.45 236.405 L2021.77 236.405 L2021.77 240.34 L1999.83 240.34 L1999.83 236.405 Q2002.49 233.65 2007.07 229.02 Q2011.68 224.368 2012.86 223.025 Q2015.11 220.502 2015.99 218.766 Q2016.89 217.007 2016.89 215.317 Q2016.89 212.562 2014.94 210.826 Q2013.02 209.09 2009.92 209.09 Q2007.72 209.09 2005.27 209.854 Q2002.84 210.618 2000.06 212.169 L2000.06 207.446 Q2002.88 206.312 2005.34 205.733 Q2007.79 205.155 2009.83 205.155 Q2015.2 205.155 2018.39 207.84 Q2021.59 210.525 2021.59 215.016 Q2021.59 217.145 2020.78 219.067 Q2019.99 220.965 2017.88 223.557 Q2017.31 224.229 2014.2 227.446 Q2011.1 230.641 2005.45 236.405 Z" fill="#000000" fill-rule="evenodd" fill-opacity="1" /><path clip-path="url(#clip620)" d="M 0 0 M2026.84 234.46 L2031.73 234.46 L2031.73 240.34 L2026.84 240.34 L2026.84 234.46 Z" fill="#000000" fill-rule="evenodd" fill-opacity="1" /><path clip-path="url(#clip620)" d="M 0 0 M2046.8 208.858 Q2043.18 208.858 2041.36 212.423 Q2039.55 215.965 2039.55 223.094 Q2039.55 230.201 2041.36 233.766 Q2043.18 237.307 2046.8 237.307 Q2050.43 237.307 2052.24 233.766 Q2054.06 230.201 2054.06 223.094 Q2054.06 215.965 2052.24 212.423 Q2050.43 208.858 2046.8 208.858 M2046.8 205.155 Q2052.61 205.155 2055.66 209.761 Q2058.74 214.345 2058.74 223.094 Q2058.74 231.821 2055.66 236.428 Q2052.61 241.011 2046.8 241.011 Q2040.99 241.011 2037.91 236.428 Q2034.85 231.821 2034.85 223.094 Q2034.85 214.345 2037.91 209.761 Q2040.99 205.155 2046.8 205.155 Z" fill="#000000" fill-rule="evenodd" fill-opacity="1" /><path clip-path="url(#clip620)" d="M 0 0 M1921.39 588.579 L1958.34 588.579 L1958.34 580.813 Q1958.34 570.978 1953.89 566.427 Q1949.43 561.843 1939.82 561.843 Q1930.27 561.843 1925.85 566.427 Q1921.39 570.978 1921.39 580.813 L1921.39 588.579 M1916.11 595.009 L1916.11 581.8 Q1916.11 567.986 1921.87 561.525 Q1927.6 555.064 1939.82 555.064 Q1952.11 555.064 1957.87 561.557 Q1963.63 568.05 1963.63 581.8 L1963.63 595.009 L1916.11 595.009 Z" fill="#000000" fill-rule="evenodd" fill-opacity="1" /><path clip-path="url(#clip620)" d="M 0 0 M1944.34 518.429 L1947.2 518.429 L1947.2 545.356 Q1953.25 544.974 1956.43 541.728 Q1959.59 538.449 1959.59 532.625 Q1959.59 529.251 1958.76 526.1 Q1957.93 522.917 1956.28 519.798 L1961.81 519.798 Q1963.15 522.949 1963.85 526.259 Q1964.55 529.569 1964.55 532.975 Q1964.55 541.505 1959.59 546.502 Q1954.62 551.467 1946.15 551.467 Q1937.4 551.467 1932.28 546.757 Q1927.12 542.014 1927.12 533.993 Q1927.12 526.8 1931.77 522.631 Q1936.38 518.429 1944.34 518.429 M1942.62 524.286 Q1937.82 524.349 1934.95 526.991 Q1932.09 529.601 1932.09 533.93 Q1932.09 538.831 1934.86 541.791 Q1937.62 544.72 1942.65 545.165 L1942.62 524.286 Z" fill="#000000" fill-rule="evenodd" fill-opacity="1" /><path clip-path="url(#clip620)" d="M 0 0 M1942.11 482.654 L1963.63 482.654 L1963.63 488.511 L1942.3 488.511 Q1937.24 488.511 1934.73 490.484 Q1932.21 492.457 1932.21 496.404 Q1932.21 501.146 1935.24 503.884 Q1938.26 506.621 1943.48 506.621 L1963.63 506.621 L1963.63 512.509 L1927.98 512.509 L1927.98 506.621 L1933.52 506.621 Q1930.3 504.52 1928.71 501.688 Q1927.12 498.823 1927.12 495.099 Q1927.12 488.956 1930.94 485.805 Q1934.73 482.654 1942.11 482.654 Z" fill="#000000" fill-rule="evenodd" fill-opacity="1" /><path clip-path="url(#clip620)" d="M 0 0 M1929.03 453.786 L1934.57 453.786 Q1933.3 456.268 1932.66 458.942 Q1932.02 461.615 1932.02 464.48 Q1932.02 468.84 1933.36 471.037 Q1934.7 473.201 1937.37 473.201 Q1939.41 473.201 1940.58 471.641 Q1941.73 470.082 1942.78 465.371 L1943.23 463.366 Q1944.56 457.128 1947.01 454.518 Q1949.43 451.876 1953.79 451.876 Q1958.76 451.876 1961.65 455.823 Q1964.55 459.738 1964.55 466.612 Q1964.55 469.477 1963.98 472.596 Q1963.44 475.684 1962.32 479.121 L1956.28 479.121 Q1957.96 475.875 1958.82 472.724 Q1959.65 469.573 1959.65 466.485 Q1959.65 462.347 1958.25 460.119 Q1956.82 457.891 1954.24 457.891 Q1951.85 457.891 1950.58 459.515 Q1949.31 461.106 1948.13 466.549 L1947.65 468.586 Q1946.5 474.029 1944.15 476.448 Q1941.76 478.866 1937.62 478.866 Q1932.6 478.866 1929.86 475.302 Q1927.12 471.737 1927.12 465.18 Q1927.12 461.934 1927.6 459.069 Q1928.08 456.205 1929.03 453.786 Z" fill="#000000" fill-rule="evenodd" fill-opacity="1" /><path clip-path="url(#clip620)" d="M 0 0 M1927.98 445.733 L1927.98 439.877 L1963.63 439.877 L1963.63 445.733 L1927.98 445.733 M1914.1 445.733 L1914.1 439.877 L1921.52 439.877 L1921.52 445.733 L1914.1 445.733 Z" fill="#000000" fill-rule="evenodd" fill-opacity="1" /><path clip-path="url(#clip620)" d="M 0 0 M1917.86 427.941 L1927.98 427.941 L1927.98 415.878 L1932.53 415.878 L1932.53 427.941 L1951.88 427.941 Q1956.24 427.941 1957.49 426.763 Q1958.73 425.554 1958.73 421.893 L1958.73 415.878 L1963.63 415.878 L1963.63 421.893 Q1963.63 428.673 1961.11 431.251 Q1958.57 433.829 1951.88 433.829 L1932.53 433.829 L1932.53 438.126 L1927.98 438.126 L1927.98 433.829 L1917.86 433.829 L1917.86 427.941 Z" fill="#000000" fill-rule="evenodd" fill-opacity="1" /><path clip-path="url(#clip620)" d="M 0 0 M1966.94 394.903 Q1973.3 397.385 1975.25 399.741 Q1977.19 402.096 1977.19 406.043 L1977.19 410.722 L1972.29 410.722 L1972.29 407.284 Q1972.29 404.865 1971.14 403.528 Q1969.99 402.192 1965.73 400.568 L1963.06 399.518 L1927.98 413.936 L1927.98 407.73 L1955.86 396.59 L1927.98 385.45 L1927.98 379.243 L1966.94 394.903 Z" fill="#000000" fill-rule="evenodd" fill-opacity="1" /><path clip-path="url(#clip620)" d="M 0 0 M3048.63 43.8146 L3022.83 43.8146 Q3023.43 55.9268 3026.23 61.0714 Q3029.71 67.3908 3035.75 67.3908 Q3041.82 67.3908 3045.19 61.0309 Q3048.14 55.4407 3048.63 43.8146 M3048.51 36.928 Q3047.37 25.4235 3045.19 21.3726 Q3041.7 14.9721 3035.75 14.9721 Q3029.55 14.9721 3026.27 21.2916 Q3023.68 26.3957 3022.91 36.928 L3048.51 36.928 M3035.75 8.89579 Q3045.47 8.89579 3051.02 17.4837 Q3056.57 26.0311 3056.57 41.1815 Q3056.57 56.2914 3051.02 64.8793 Q3045.47 73.5077 3035.75 73.5077 Q3025.99 73.5077 3020.48 64.8793 Q3014.93 56.2914 3014.93 41.1815 Q3014.93 26.0311 3020.48 17.4837 Q3025.99 8.89579 3035.75 8.89579 Z" fill="#000000" fill-rule="evenodd" fill-opacity="1" /><polyline clip-path="url(#clip623)" style="stroke:#009af9; stroke-width:4; stroke-opacity:1; fill:none" points="
  2170.65,887.252 2179.34,887.252 2188.04,887.25 2196.73,887.246 2205.42,887.238 2214.12,887.226 2222.81,887.206 2231.51,887.176 2240.2,887.129 2248.9,887.059 
  2257.59,886.959 2266.29,886.818 2274.98,886.624 2283.67,886.366 2292.37,886.031 2301.06,885.606 2309.76,885.082 2318.45,884.453 2327.15,883.714 2335.84,882.868 
  2344.54,881.917 2353.23,880.869 2361.93,879.728 2370.62,878.497 2379.31,877.17 2388.01,875.734 2396.7,874.162 2405.4,872.42 2414.09,870.463 2422.79,868.244 
  2431.48,865.718 2440.18,862.85 2448.87,859.62 2457.56,856.03 2466.26,852.104 2474.95,847.885 2483.65,843.434 2492.34,838.815 2501.04,834.089 2509.73,829.305 
  2518.43,824.488 2527.12,819.642 2535.81,814.746 2544.51,809.764 2553.2,804.652 2561.9,799.372 2570.59,793.903 2579.29,788.244 2587.98,782.42 2596.68,776.472 
  2605.37,770.449 2614.07,764.386 2622.76,758.293 2631.45,752.137 2640.15,745.829 2648.84,739.23 2657.54,732.155 2666.23,724.394 2674.93,715.736 2683.62,706.001 
  2692.32,695.062 2701.01,682.869 2709.7,669.458 2718.4,654.946 2727.09,639.514 2735.79,623.383 2744.48,606.779 2753.18,589.899 2761.87,572.881 2770.57,555.784 
  2779.26,538.58 2787.96,521.161 2796.65,503.353 2805.34,484.949 2814.04,465.74 2822.73,445.547 2831.43,424.257 2840.12,401.842 2848.82,378.373 2857.51,354.025 
  2866.21,329.071 2874.9,303.86 2883.59,278.796 2892.29,254.31 2900.98,230.825 2909.68,208.73 2918.37,188.346 2927.07,169.914 2935.76,153.574 2944.46,139.37 
  2953.15,127.256 2961.84,117.11 2970.54,108.761 2979.23,102.018 2987.93,96.6924 2996.62,92.6225 3005.32,89.6897 3014.01,87.8236 3022.71,86.9997 3031.4,87.2276 
  3040.1,88.5339 3048.79,90.9407 3057.48,94.4438 3066.18,98.993 3074.87,104.477 3083.57,110.716 3092.26,117.463 3100.96,124.409 3109.65,131.213 3118.35,137.516 
  3127.04,142.982 3135.73,147.324 3144.43,150.337 3153.12,151.91 3161.82,152.041 3170.51,150.83 3179.21,148.462 3187.9,145.179 3196.6,141.251 3205.29,136.942 
  3213.99,132.48 3222.68,128.044 3231.37,123.748 3240.07,119.655 3248.76,115.793 3257.46,112.183 3266.15,108.868 3274.85,105.948 3283.54,103.597 3292.24,102.076 
  3300.93,101.721 3309.62,102.922 3318.32,106.084 3327.01,111.584 3335.71,119.72 3344.4,130.679 3353.1,144.504 3361.79,161.088 3370.49,180.188 3379.18,201.444 
  3387.87,224.423 3396.57,248.66 3405.26,273.704 3413.96,299.15 3422.65,324.669 3431.35,350.02 3440.04,375.053 3448.74,399.694 3457.43,423.935 3466.13,447.811 
  3474.82,471.378 3483.51,494.696 3492.21,517.815 3500.9,540.759 3509.6,563.522 3518.29,586.061 3526.99,608.297 3535.68,630.113 3544.38,651.363 3553.07,671.878 
  3561.76,691.481 3570.46,709.996 3579.15,727.272 3587.85,743.192 3596.54,757.688 3605.24,770.752 3613.93,782.435 3622.63,792.84 3631.32,802.118 3640.02,810.443 
  3648.71,817.998 3657.4,824.953 3666.1,831.454 3674.79,837.605 3683.49,843.468 3692.18,849.064 3700.88,854.376 3709.57,859.366 3718.27,863.982 3726.96,868.174 
  3735.65,871.901 3744.35,875.141 3753.04,877.89 3761.74,880.165 3770.43,882.002 3779.13,883.448 3787.82,884.556 3796.52,885.385 3805.21,885.988 3813.9,886.417 
  3822.6,886.713 3831.29,886.913 3839.99,887.044 3848.68,887.128 3857.38,887.181 3866.07,887.213 3874.77,887.231 3883.46,887.242 3892.16,887.248 3900.85,887.251 
  
  "/>
</svg>
