<?xml version="1.0" encoding="utf-8"?>
<svg xmlns="http://www.w3.org/2000/svg" xmlns:xlink="http://www.w3.org/1999/xlink" width="1000" height="250" viewBox="0 0 4000 1000">
<defs>
  <clipPath id="clip640">
    <rect x="0" y="0" width="4000" height="1000"/>
  </clipPath>
</defs>
<path clip-path="url(#clip640)" d="
M0 1000 L4000 1000 L4000 0 L0 0  Z
  " fill="#ffffff" fill-rule="evenodd" fill-opacity="1"/>
<defs>
  <clipPath id="clip641">
    <rect x="800" y="0" width="2801" height="1000"/>
  </clipPath>
</defs>
<path clip-path="url(#clip640)" d="
M118.74 911.26 L1952.76 911.26 L1952.76 62.9921 L118.74 62.9921  Z
  " fill="#ffffff" fill-rule="evenodd" fill-opacity="1"/>
<defs>
  <clipPath id="clip642">
    <rect x="118" y="62" width="1835" height="849"/>
  </clipPath>
</defs>
<polyline clip-path="url(#clip642)" style="stroke:#000000; stroke-width:2; stroke-opacity:0.1; fill:none" points="
  168.914,911.26 168.914,62.9921 
  "/>
<polyline clip-path="url(#clip642)" style="stroke:#000000; stroke-width:2; stroke-opacity:0.1; fill:none" points="
  601.898,911.26 601.898,62.9921 
  "/>
<polyline clip-path="url(#clip642)" style="stroke:#000000; stroke-width:2; stroke-opacity:0.1; fill:none" points="
  1034.88,911.26 1034.88,62.9921 
  "/>
<polyline clip-path="url(#clip642)" style="stroke:#000000; stroke-width:2; stroke-opacity:0.1; fill:none" points="
  1467.87,911.26 1467.87,62.9921 
  "/>
<polyline clip-path="url(#clip642)" style="stroke:#000000; stroke-width:2; stroke-opacity:0.1; fill:none" points="
  1900.85,911.26 1900.85,62.9921 
  "/>
<polyline clip-path="url(#clip640)" style="stroke:#000000; stroke-width:4; stroke-opacity:1; fill:none" points="
  118.74,911.26 1952.76,911.26 
  "/>
<polyline clip-path="url(#clip640)" style="stroke:#000000; stroke-width:4; stroke-opacity:1; fill:none" points="
  168.914,911.26 168.914,901.081 
  "/>
<polyline clip-path="url(#clip640)" style="stroke:#000000; stroke-width:4; stroke-opacity:1; fill:none" points="
  601.898,911.26 601.898,901.081 
  "/>
<polyline clip-path="url(#clip640)" style="stroke:#000000; stroke-width:4; stroke-opacity:1; fill:none" points="
  1034.88,911.26 1034.88,901.081 
  "/>
<polyline clip-path="url(#clip640)" style="stroke:#000000; stroke-width:4; stroke-opacity:1; fill:none" points="
  1467.87,911.26 1467.87,901.081 
  "/>
<polyline clip-path="url(#clip640)" style="stroke:#000000; stroke-width:4; stroke-opacity:1; fill:none" points="
  1900.85,911.26 1900.85,901.081 
  "/>
<path clip-path="url(#clip640)" d="M 0 0 M168.914 953.251 Q165.303 953.251 163.475 956.815 Q161.669 960.357 161.669 967.487 Q161.669 974.593 163.475 978.158 Q165.303 981.699 168.914 981.699 Q172.549 981.699 174.354 978.158 Q176.183 974.593 176.183 967.487 Q176.183 960.357 174.354 956.815 Q172.549 953.251 168.914 953.251 M168.914 949.547 Q174.724 949.547 177.78 954.153 Q180.859 958.737 180.859 967.487 Q180.859 976.213 177.78 980.82 Q174.724 985.403 168.914 985.403 Q163.104 985.403 160.025 980.82 Q156.97 976.213 156.97 967.487 Q156.97 958.737 160.025 954.153 Q163.104 949.547 168.914 949.547 Z" fill="#000000" fill-rule="evenodd" fill-opacity="1" /><path clip-path="url(#clip640)" d="M 0 0 M570.035 980.797 L586.354 980.797 L586.354 984.732 L564.41 984.732 L564.41 980.797 Q567.072 978.042 571.655 973.412 Q576.262 968.76 577.442 967.417 Q579.688 964.894 580.567 963.158 Q581.47 961.399 581.47 959.709 Q581.47 956.954 579.526 955.218 Q577.604 953.482 574.503 953.482 Q572.303 953.482 569.85 954.246 Q567.419 955.01 564.641 956.561 L564.641 951.839 Q567.466 950.704 569.919 950.126 Q572.373 949.547 574.41 949.547 Q579.78 949.547 582.975 952.232 Q586.169 954.917 586.169 959.408 Q586.169 961.538 585.359 963.459 Q584.572 965.357 582.465 967.95 Q581.887 968.621 578.785 971.838 Q575.683 975.033 570.035 980.797 Z" fill="#000000" fill-rule="evenodd" fill-opacity="1" /><path clip-path="url(#clip640)" d="M 0 0 M591.47 950.172 L609.826 950.172 L609.826 954.107 L595.752 954.107 L595.752 962.579 Q596.771 962.232 597.789 962.07 Q598.808 961.885 599.826 961.885 Q605.613 961.885 608.993 965.056 Q612.373 968.227 612.373 973.644 Q612.373 979.223 608.9 982.324 Q605.428 985.403 599.109 985.403 Q596.933 985.403 594.664 985.033 Q592.419 984.662 590.012 983.922 L590.012 979.223 Q592.095 980.357 594.317 980.912 Q596.539 981.468 599.016 981.468 Q603.021 981.468 605.359 979.362 Q607.697 977.255 607.697 973.644 Q607.697 970.033 605.359 967.926 Q603.021 965.82 599.016 965.82 Q597.141 965.82 595.266 966.237 Q593.414 966.653 591.47 967.533 L591.47 950.172 Z" fill="#000000" fill-rule="evenodd" fill-opacity="1" /><path clip-path="url(#clip640)" d="M 0 0 M627.442 953.251 Q623.831 953.251 622.002 956.815 Q620.197 960.357 620.197 967.487 Q620.197 974.593 622.002 978.158 Q623.831 981.699 627.442 981.699 Q631.076 981.699 632.882 978.158 Q634.711 974.593 634.711 967.487 Q634.711 960.357 632.882 956.815 Q631.076 953.251 627.442 953.251 M627.442 949.547 Q633.252 949.547 636.308 954.153 Q639.386 958.737 639.386 967.487 Q639.386 976.213 636.308 980.82 Q633.252 985.403 627.442 985.403 Q621.632 985.403 618.553 980.82 Q615.498 976.213 615.498 967.487 Q615.498 958.737 618.553 954.153 Q621.632 949.547 627.442 949.547 Z" fill="#000000" fill-rule="evenodd" fill-opacity="1" /><path clip-path="url(#clip640)" d="M 0 0 M998.146 950.172 L1016.5 950.172 L1016.5 954.107 L1002.43 954.107 L1002.43 962.579 Q1003.45 962.232 1004.47 962.07 Q1005.48 961.885 1006.5 961.885 Q1012.29 961.885 1015.67 965.056 Q1019.05 968.227 1019.05 973.644 Q1019.05 979.223 1015.58 982.324 Q1012.1 985.403 1005.78 985.403 Q1003.61 985.403 1001.34 985.033 Q999.095 984.662 996.688 983.922 L996.688 979.223 Q998.771 980.357 1000.99 980.912 Q1003.22 981.468 1005.69 981.468 Q1009.7 981.468 1012.03 979.362 Q1014.37 977.255 1014.37 973.644 Q1014.37 970.033 1012.03 967.926 Q1009.7 965.82 1005.69 965.82 Q1003.82 965.82 1001.94 966.237 Q1000.09 966.653 998.146 967.533 L998.146 950.172 Z" fill="#000000" fill-rule="evenodd" fill-opacity="1" /><path clip-path="url(#clip640)" d="M 0 0 M1034.12 953.251 Q1030.51 953.251 1028.68 956.815 Q1026.87 960.357 1026.87 967.487 Q1026.87 974.593 1028.68 978.158 Q1030.51 981.699 1034.12 981.699 Q1037.75 981.699 1039.56 978.158 Q1041.39 974.593 1041.39 967.487 Q1041.39 960.357 1039.56 956.815 Q1037.75 953.251 1034.12 953.251 M1034.12 949.547 Q1039.93 949.547 1042.98 954.153 Q1046.06 958.737 1046.06 967.487 Q1046.06 976.213 1042.98 980.82 Q1039.93 985.403 1034.12 985.403 Q1028.31 985.403 1025.23 980.82 Q1022.17 976.213 1022.17 967.487 Q1022.17 958.737 1025.23 954.153 Q1028.31 949.547 1034.12 949.547 Z" fill="#000000" fill-rule="evenodd" fill-opacity="1" /><path clip-path="url(#clip640)" d="M 0 0 M1061.13 953.251 Q1057.52 953.251 1055.69 956.815 Q1053.89 960.357 1053.89 967.487 Q1053.89 974.593 1055.69 978.158 Q1057.52 981.699 1061.13 981.699 Q1064.77 981.699 1066.57 978.158 Q1068.4 974.593 1068.4 967.487 Q1068.4 960.357 1066.57 956.815 Q1064.77 953.251 1061.13 953.251 M1061.13 949.547 Q1066.94 949.547 1070 954.153 Q1073.08 958.737 1073.08 967.487 Q1073.08 976.213 1070 980.82 Q1066.94 985.403 1061.13 985.403 Q1055.32 985.403 1052.24 980.82 Q1049.19 976.213 1049.19 967.487 Q1049.19 958.737 1052.24 954.153 Q1055.32 949.547 1061.13 949.547 Z" fill="#000000" fill-rule="evenodd" fill-opacity="1" /><path clip-path="url(#clip640)" d="M 0 0 M1430.24 950.172 L1452.46 950.172 L1452.46 952.163 L1439.91 984.732 L1435.03 984.732 L1446.84 954.107 L1430.24 954.107 L1430.24 950.172 Z" fill="#000000" fill-rule="evenodd" fill-opacity="1" /><path clip-path="url(#clip640)" d="M 0 0 M1457.58 950.172 L1475.93 950.172 L1475.93 954.107 L1461.86 954.107 L1461.86 962.579 Q1462.88 962.232 1463.9 962.07 Q1464.91 961.885 1465.93 961.885 Q1471.72 961.885 1475.1 965.056 Q1478.48 968.227 1478.48 973.644 Q1478.48 979.223 1475.01 982.324 Q1471.53 985.403 1465.22 985.403 Q1463.04 985.403 1460.77 985.033 Q1458.53 984.662 1456.12 983.922 L1456.12 979.223 Q1458.2 980.357 1460.42 980.912 Q1462.65 981.468 1465.12 981.468 Q1469.13 981.468 1471.47 979.362 Q1473.8 977.255 1473.8 973.644 Q1473.8 970.033 1471.47 967.926 Q1469.13 965.82 1465.12 965.82 Q1463.25 965.82 1461.37 966.237 Q1459.52 966.653 1457.58 967.533 L1457.58 950.172 Z" fill="#000000" fill-rule="evenodd" fill-opacity="1" /><path clip-path="url(#clip640)" d="M 0 0 M1493.55 953.251 Q1489.94 953.251 1488.11 956.815 Q1486.3 960.357 1486.3 967.487 Q1486.3 974.593 1488.11 978.158 Q1489.94 981.699 1493.55 981.699 Q1497.18 981.699 1498.99 978.158 Q1500.82 974.593 1500.82 967.487 Q1500.82 960.357 1498.99 956.815 Q1497.18 953.251 1493.55 953.251 M1493.55 949.547 Q1499.36 949.547 1502.41 954.153 Q1505.49 958.737 1505.49 967.487 Q1505.49 976.213 1502.41 980.82 Q1499.36 985.403 1493.55 985.403 Q1487.74 985.403 1484.66 980.82 Q1481.6 976.213 1481.6 967.487 Q1481.6 958.737 1484.66 954.153 Q1487.74 949.547 1493.55 949.547 Z" fill="#000000" fill-rule="evenodd" fill-opacity="1" /><path clip-path="url(#clip640)" d="M 0 0 M1850.71 980.797 L1858.35 980.797 L1858.35 954.431 L1850.04 956.098 L1850.04 951.839 L1858.3 950.172 L1862.98 950.172 L1862.98 980.797 L1870.62 980.797 L1870.62 984.732 L1850.71 984.732 L1850.71 980.797 Z" fill="#000000" fill-rule="evenodd" fill-opacity="1" /><path clip-path="url(#clip640)" d="M 0 0 M1885.69 953.251 Q1882.08 953.251 1880.25 956.815 Q1878.44 960.357 1878.44 967.487 Q1878.44 974.593 1880.25 978.158 Q1882.08 981.699 1885.69 981.699 Q1889.32 981.699 1891.13 978.158 Q1892.96 974.593 1892.96 967.487 Q1892.96 960.357 1891.13 956.815 Q1889.32 953.251 1885.69 953.251 M1885.69 949.547 Q1891.5 949.547 1894.55 954.153 Q1897.63 958.737 1897.63 967.487 Q1897.63 976.213 1894.55 980.82 Q1891.5 985.403 1885.69 985.403 Q1879.88 985.403 1876.8 980.82 Q1873.74 976.213 1873.74 967.487 Q1873.74 958.737 1876.8 954.153 Q1879.88 949.547 1885.69 949.547 Z" fill="#000000" fill-rule="evenodd" fill-opacity="1" /><path clip-path="url(#clip640)" d="M 0 0 M1912.7 953.251 Q1909.09 953.251 1907.26 956.815 Q1905.46 960.357 1905.46 967.487 Q1905.46 974.593 1907.26 978.158 Q1909.09 981.699 1912.7 981.699 Q1916.34 981.699 1918.14 978.158 Q1919.97 974.593 1919.97 967.487 Q1919.97 960.357 1918.14 956.815 Q1916.34 953.251 1912.7 953.251 M1912.7 949.547 Q1918.51 949.547 1921.57 954.153 Q1924.65 958.737 1924.65 967.487 Q1924.65 976.213 1921.57 980.82 Q1918.51 985.403 1912.7 985.403 Q1906.89 985.403 1903.81 980.82 Q1900.76 976.213 1900.76 967.487 Q1900.76 958.737 1903.81 954.153 Q1906.89 949.547 1912.7 949.547 Z" fill="#000000" fill-rule="evenodd" fill-opacity="1" /><path clip-path="url(#clip640)" d="M 0 0 M1939.72 953.251 Q1936.1 953.251 1934.28 956.815 Q1932.47 960.357 1932.47 967.487 Q1932.47 974.593 1934.28 978.158 Q1936.1 981.699 1939.72 981.699 Q1943.35 981.699 1945.16 978.158 Q1946.98 974.593 1946.98 967.487 Q1946.98 960.357 1945.16 956.815 Q1943.35 953.251 1939.72 953.251 M1939.72 949.547 Q1945.53 949.547 1948.58 954.153 Q1951.66 958.737 1951.66 967.487 Q1951.66 976.213 1948.58 980.82 Q1945.53 985.403 1939.72 985.403 Q1933.91 985.403 1930.83 980.82 Q1927.77 976.213 1927.77 967.487 Q1927.77 958.737 1930.83 954.153 Q1933.91 949.547 1939.72 949.547 Z" fill="#000000" fill-rule="evenodd" fill-opacity="1" /><path clip-path="url(#clip640)" d="M 0 0 M917.76 1012.6 L924.189 1012.6 L924.189 1060.12 L917.76 1060.12 L917.76 1012.6 Z" fill="#000000" fill-rule="evenodd" fill-opacity="1" /><path clip-path="url(#clip640)" d="M 0 0 M936.125 1014.35 L936.125 1024.48 L948.188 1024.48 L948.188 1029.03 L936.125 1029.03 L936.125 1048.38 Q936.125 1052.74 937.302 1053.98 Q938.512 1055.22 942.172 1055.22 L948.188 1055.22 L948.188 1060.12 L942.172 1060.12 Q935.393 1060.12 932.815 1057.61 Q930.236 1055.06 930.236 1048.38 L930.236 1029.03 L925.94 1029.03 L925.94 1024.48 L930.236 1024.48 L930.236 1014.35 L936.125 1014.35 Z" fill="#000000" fill-rule="evenodd" fill-opacity="1" /><path clip-path="url(#clip640)" d="M 0 0 M984.822 1040.84 L984.822 1043.7 L957.895 1043.7 Q958.277 1049.75 961.524 1052.93 Q964.802 1056.08 970.627 1056.08 Q974.001 1056.08 977.152 1055.25 Q980.335 1054.43 983.454 1052.77 L983.454 1058.31 Q980.303 1059.65 976.993 1060.35 Q973.682 1061.05 970.277 1061.05 Q961.747 1061.05 956.75 1056.08 Q951.784 1051.12 951.784 1042.65 Q951.784 1033.9 956.495 1028.77 Q961.237 1023.62 969.258 1023.62 Q976.451 1023.62 980.621 1028.26 Q984.822 1032.88 984.822 1040.84 M978.966 1039.12 Q978.902 1034.31 976.261 1031.45 Q973.651 1028.58 969.322 1028.58 Q964.42 1028.58 961.46 1031.35 Q958.532 1034.12 958.086 1039.15 L978.966 1039.12 Z" fill="#000000" fill-rule="evenodd" fill-opacity="1" /><path clip-path="url(#clip640)" d="M 0 0 M1011.62 1029.95 Q1010.64 1029.38 1009.46 1029.12 Q1008.31 1028.84 1006.91 1028.84 Q1001.95 1028.84 999.273 1032.08 Q996.631 1035.3 996.631 1041.35 L996.631 1060.12 L990.742 1060.12 L990.742 1024.48 L996.631 1024.48 L996.631 1030.01 Q998.477 1026.77 1001.44 1025.21 Q1004.4 1023.62 1008.63 1023.62 Q1009.23 1023.62 1009.97 1023.71 Q1010.7 1023.78 1011.59 1023.93 L1011.62 1029.95 Z" fill="#000000" fill-rule="evenodd" fill-opacity="1" /><path clip-path="url(#clip640)" d="M 0 0 M1033.97 1042.2 Q1026.87 1042.2 1024.13 1043.83 Q1021.39 1045.45 1021.39 1049.37 Q1021.39 1052.48 1023.43 1054.33 Q1025.5 1056.15 1029.03 1056.15 Q1033.9 1056.15 1036.83 1052.71 Q1039.79 1049.24 1039.79 1043.51 L1039.79 1042.2 L1033.97 1042.2 M1045.65 1039.79 L1045.65 1060.12 L1039.79 1060.12 L1039.79 1054.71 Q1037.79 1057.96 1034.79 1059.52 Q1031.8 1061.05 1027.47 1061.05 Q1022 1061.05 1018.75 1057.99 Q1015.54 1054.9 1015.54 1049.75 Q1015.54 1043.73 1019.55 1040.68 Q1023.59 1037.62 1031.58 1037.62 L1039.79 1037.62 L1039.79 1037.05 Q1039.79 1033.01 1037.12 1030.81 Q1034.47 1028.58 1029.67 1028.58 Q1026.61 1028.58 1023.72 1029.31 Q1020.82 1030.05 1018.15 1031.51 L1018.15 1026.1 Q1021.36 1024.86 1024.39 1024.25 Q1027.41 1023.62 1030.27 1023.62 Q1038.01 1023.62 1041.83 1027.63 Q1045.65 1031.64 1045.65 1039.79 Z" fill="#000000" fill-rule="evenodd" fill-opacity="1" /><path clip-path="url(#clip640)" d="M 0 0 M1057.58 1014.35 L1057.58 1024.48 L1069.65 1024.48 L1069.65 1029.03 L1057.58 1029.03 L1057.58 1048.38 Q1057.58 1052.74 1058.76 1053.98 Q1059.97 1055.22 1063.63 1055.22 L1069.65 1055.22 L1069.65 1060.12 L1063.63 1060.12 Q1056.85 1060.12 1054.27 1057.61 Q1051.69 1055.06 1051.69 1048.38 L1051.69 1029.03 L1047.4 1029.03 L1047.4 1024.48 L1051.69 1024.48 L1051.69 1014.35 L1057.58 1014.35 Z" fill="#000000" fill-rule="evenodd" fill-opacity="1" /><path clip-path="url(#clip640)" d="M 0 0 M1075.79 1024.48 L1081.64 1024.48 L1081.64 1060.12 L1075.79 1060.12 L1075.79 1024.48 M1075.79 1010.6 L1081.64 1010.6 L1081.64 1018.01 L1075.79 1018.01 L1075.79 1010.6 Z" fill="#000000" fill-rule="evenodd" fill-opacity="1" /><path clip-path="url(#clip640)" d="M 0 0 M1101.6 1028.58 Q1096.89 1028.58 1094.15 1032.27 Q1091.42 1035.93 1091.42 1042.33 Q1091.42 1048.73 1094.12 1052.42 Q1096.86 1056.08 1101.6 1056.08 Q1106.28 1056.08 1109.02 1052.39 Q1111.75 1048.7 1111.75 1042.33 Q1111.75 1036 1109.02 1032.31 Q1106.28 1028.58 1101.6 1028.58 M1101.6 1023.62 Q1109.24 1023.62 1113.6 1028.58 Q1117.96 1033.55 1117.96 1042.33 Q1117.96 1051.08 1113.6 1056.08 Q1109.24 1061.05 1101.6 1061.05 Q1093.93 1061.05 1089.57 1056.08 Q1085.24 1051.08 1085.24 1042.33 Q1085.24 1033.55 1089.57 1028.58 Q1093.93 1023.62 1101.6 1023.62 Z" fill="#000000" fill-rule="evenodd" fill-opacity="1" /><path clip-path="url(#clip640)" d="M 0 0 M1153.74 1038.61 L1153.74 1060.12 L1147.88 1060.12 L1147.88 1038.8 Q1147.88 1033.74 1145.91 1031.22 Q1143.93 1028.71 1139.99 1028.71 Q1135.24 1028.71 1132.51 1031.73 Q1129.77 1034.76 1129.77 1039.98 L1129.77 1060.12 L1123.88 1060.12 L1123.88 1024.48 L1129.77 1024.48 L1129.77 1030.01 Q1131.87 1026.8 1134.7 1025.21 Q1137.57 1023.62 1141.29 1023.62 Q1147.43 1023.62 1150.59 1027.44 Q1153.74 1031.22 1153.74 1038.61 Z" fill="#000000" fill-rule="evenodd" fill-opacity="1" /><polyline clip-path="url(#clip642)" style="stroke:#000000; stroke-width:2; stroke-opacity:0.1; fill:none" points="
  118.74,848.919 1952.76,848.919 
  "/>
<polyline clip-path="url(#clip642)" style="stroke:#000000; stroke-width:2; stroke-opacity:0.1; fill:none" points="
  118.74,639.676 1952.76,639.676 
  "/>
<polyline clip-path="url(#clip642)" style="stroke:#000000; stroke-width:2; stroke-opacity:0.1; fill:none" points="
  118.74,430.433 1952.76,430.433 
  "/>
<polyline clip-path="url(#clip642)" style="stroke:#000000; stroke-width:2; stroke-opacity:0.1; fill:none" points="
  118.74,221.189 1952.76,221.189 
  "/>
<polyline clip-path="url(#clip640)" style="stroke:#000000; stroke-width:4; stroke-opacity:1; fill:none" points="
  118.74,911.26 118.74,62.9921 
  "/>
<polyline clip-path="url(#clip640)" style="stroke:#000000; stroke-width:4; stroke-opacity:1; fill:none" points="
  118.74,848.919 140.748,848.919 
  "/>
<polyline clip-path="url(#clip640)" style="stroke:#000000; stroke-width:4; stroke-opacity:1; fill:none" points="
  118.74,639.676 140.748,639.676 
  "/>
<polyline clip-path="url(#clip640)" style="stroke:#000000; stroke-width:4; stroke-opacity:1; fill:none" points="
  118.74,430.433 140.748,430.433 
  "/>
<polyline clip-path="url(#clip640)" style="stroke:#000000; stroke-width:4; stroke-opacity:1; fill:none" points="
  118.74,221.189 140.748,221.189 
  "/>
<path clip-path="url(#clip640)" d="M 0 0 M11.4256 834.718 Q7.8145 834.718 5.98581 838.283 Q4.18026 841.824 4.18026 848.954 Q4.18026 856.06 5.98581 859.625 Q7.8145 863.167 11.4256 863.167 Q15.0598 863.167 16.8654 859.625 Q18.6941 856.06 18.6941 848.954 Q18.6941 841.824 16.8654 838.283 Q15.0598 834.718 11.4256 834.718 M11.4256 831.014 Q17.2358 831.014 20.2913 835.621 Q23.37 840.204 23.37 848.954 Q23.37 857.681 20.2913 862.287 Q17.2358 866.87 11.4256 866.87 Q5.61544 866.87 2.53675 862.287 Q-0.518784 857.681 -0.518784 848.954 Q-0.518784 840.204 2.53675 835.621 Q5.61544 831.014 11.4256 831.014 Z" fill="#000000" fill-rule="evenodd" fill-opacity="1" /><path clip-path="url(#clip640)" d="M 0 0 M28.4394 860.319 L33.3236 860.319 L33.3236 866.199 L28.4394 866.199 L28.4394 860.319 Z" fill="#000000" fill-rule="evenodd" fill-opacity="1" /><path clip-path="url(#clip640)" d="M 0 0 M42.4208 862.264 L58.7402 862.264 L58.7402 866.199 L36.7958 866.199 L36.7958 862.264 Q39.4579 859.509 44.0412 854.88 Q48.6476 850.227 49.8282 848.884 Q52.0735 846.361 52.9532 844.625 Q53.8559 842.866 53.8559 841.176 Q53.8559 838.421 51.9115 836.685 Q49.9902 834.949 46.8884 834.949 Q44.6893 834.949 42.2356 835.713 Q39.8051 836.477 37.0273 838.028 L37.0273 833.306 Q39.8514 832.171 42.3051 831.593 Q44.7588 831.014 46.7958 831.014 Q52.1661 831.014 55.3605 833.699 Q58.555 836.384 58.555 840.875 Q58.555 843.005 57.7448 844.926 Q56.9578 846.824 54.8513 849.417 Q54.2726 850.088 51.1708 853.306 Q48.0689 856.5 42.4208 862.264 Z" fill="#000000" fill-rule="evenodd" fill-opacity="1" /><path clip-path="url(#clip640)" d="M 0 0 M9.34227 625.474 Q5.73118 625.474 3.90249 629.039 Q2.09694 632.581 2.09694 639.711 Q2.09694 646.817 3.90249 650.382 Q5.73118 653.923 9.34227 653.923 Q12.9765 653.923 14.7821 650.382 Q16.6108 646.817 16.6108 639.711 Q16.6108 632.581 14.7821 629.039 Q12.9765 625.474 9.34227 625.474 M9.34227 621.771 Q15.1524 621.771 18.208 626.377 Q21.2867 630.961 21.2867 639.711 Q21.2867 648.437 18.208 653.044 Q15.1524 657.627 9.34227 657.627 Q3.53212 657.627 0.453433 653.044 Q-2.60211 648.437 -2.60211 639.711 Q-2.60211 630.961 0.453433 626.377 Q3.53212 621.771 9.34227 621.771 Z" fill="#000000" fill-rule="evenodd" fill-opacity="1" /><path clip-path="url(#clip640)" d="M 0 0 M26.3561 651.076 L31.2403 651.076 L31.2403 656.956 L26.3561 656.956 L26.3561 651.076 Z" fill="#000000" fill-rule="evenodd" fill-opacity="1" /><path clip-path="url(#clip640)" d="M 0 0 M49.1569 626.47 L37.3514 644.919 L49.1569 644.919 L49.1569 626.47 M47.93 622.396 L53.8096 622.396 L53.8096 644.919 L58.7402 644.919 L58.7402 648.808 L53.8096 648.808 L53.8096 656.956 L49.1569 656.956 L49.1569 648.808 L33.5551 648.808 L33.5551 644.294 L47.93 622.396 Z" fill="#000000" fill-rule="evenodd" fill-opacity="1" /><path clip-path="url(#clip640)" d="M 0 0 M9.66635 416.231 Q6.05525 416.231 4.22656 419.796 Q2.42101 423.338 2.42101 430.467 Q2.42101 437.574 4.22656 441.138 Q6.05525 444.68 9.66635 444.68 Q13.3006 444.68 15.1061 441.138 Q16.9348 437.574 16.9348 430.467 Q16.9348 423.338 15.1061 419.796 Q13.3006 416.231 9.66635 416.231 M9.66635 412.528 Q15.4765 412.528 18.532 417.134 Q21.6107 421.717 21.6107 430.467 Q21.6107 439.194 18.532 443.801 Q15.4765 448.384 9.66635 448.384 Q3.85619 448.384 0.777505 443.801 Q-2.27803 439.194 -2.27803 430.467 Q-2.27803 421.717 0.777505 417.134 Q3.85619 412.528 9.66635 412.528 Z" fill="#000000" fill-rule="evenodd" fill-opacity="1" /><path clip-path="url(#clip640)" d="M 0 0 M26.6801 441.833 L31.5644 441.833 L31.5644 447.713 L26.6801 447.713 L26.6801 441.833 Z" fill="#000000" fill-rule="evenodd" fill-opacity="1" /><path clip-path="url(#clip640)" d="M 0 0 M47.2124 428.569 Q44.0643 428.569 42.2125 430.722 Q40.3838 432.875 40.3838 436.625 Q40.3838 440.351 42.2125 442.527 Q44.0643 444.68 47.2124 444.68 Q50.3606 444.68 52.1893 442.527 Q54.0411 440.351 54.0411 436.625 Q54.0411 432.875 52.1893 430.722 Q50.3606 428.569 47.2124 428.569 M56.4948 413.916 L56.4948 418.176 Q54.7355 417.342 52.93 416.903 Q51.1476 416.463 49.3884 416.463 Q44.7588 416.463 42.3051 419.588 Q39.8745 422.713 39.5273 429.032 Q40.893 427.018 42.9532 425.953 Q45.0134 424.865 47.4902 424.865 Q52.6985 424.865 55.7078 428.037 Q58.7402 431.185 58.7402 436.625 Q58.7402 441.949 55.592 445.166 Q52.4439 448.384 47.2124 448.384 Q41.2171 448.384 38.0458 443.801 Q34.8745 439.194 34.8745 430.467 Q34.8745 422.273 38.7634 417.412 Q42.6523 412.528 49.2032 412.528 Q50.9624 412.528 52.7448 412.875 Q54.5504 413.222 56.4948 413.916 Z" fill="#000000" fill-rule="evenodd" fill-opacity="1" /><path clip-path="url(#clip640)" d="M 0 0 M9.92097 206.988 Q6.30988 206.988 4.48119 210.553 Q2.67564 214.094 2.67564 221.224 Q2.67564 228.33 4.48119 231.895 Q6.30988 235.437 9.92097 235.437 Q13.5552 235.437 15.3608 231.895 Q17.1895 228.33 17.1895 221.224 Q17.1895 214.094 15.3608 210.553 Q13.5552 206.988 9.92097 206.988 M9.92097 203.284 Q15.7311 203.284 18.7867 207.891 Q21.8654 212.474 21.8654 221.224 Q21.8654 229.951 18.7867 234.557 Q15.7311 239.141 9.92097 239.141 Q4.11082 239.141 1.03213 234.557 Q-2.02341 229.951 -2.02341 221.224 Q-2.02341 212.474 1.03213 207.891 Q4.11082 203.284 9.92097 203.284 Z" fill="#000000" fill-rule="evenodd" fill-opacity="1" /><path clip-path="url(#clip640)" d="M 0 0 M26.9348 232.59 L31.819 232.59 L31.819 238.469 L26.9348 238.469 L26.9348 232.59 Z" fill="#000000" fill-rule="evenodd" fill-opacity="1" /><path clip-path="url(#clip640)" d="M 0 0 M46.8884 222.057 Q43.5551 222.057 41.6338 223.84 Q39.7356 225.622 39.7356 228.747 Q39.7356 231.872 41.6338 233.654 Q43.5551 235.437 46.8884 235.437 Q50.2217 235.437 52.143 233.654 Q54.0643 231.849 54.0643 228.747 Q54.0643 225.622 52.143 223.84 Q50.2448 222.057 46.8884 222.057 M42.2125 220.067 Q39.2032 219.326 37.5134 217.266 Q35.8468 215.205 35.8468 212.243 Q35.8468 208.099 38.7866 205.692 Q41.7495 203.284 46.8884 203.284 Q52.0504 203.284 54.9902 205.692 Q57.93 208.099 57.93 212.243 Q57.93 215.205 56.2402 217.266 Q54.5735 219.326 51.5874 220.067 Q54.967 220.854 56.842 223.145 Q58.7402 225.437 58.7402 228.747 Q58.7402 233.77 55.6615 236.455 Q52.6059 239.141 46.8884 239.141 Q41.1708 239.141 38.0921 236.455 Q35.0366 233.77 35.0366 228.747 Q35.0366 225.437 36.9347 223.145 Q38.8329 220.854 42.2125 220.067 M40.4995 212.682 Q40.4995 215.368 42.1662 216.872 Q43.856 218.377 46.8884 218.377 Q49.8976 218.377 51.5874 216.872 Q53.3004 215.368 53.3004 212.682 Q53.3004 209.997 51.5874 208.493 Q49.8976 206.988 46.8884 206.988 Q43.856 206.988 42.1662 208.493 Q40.4995 209.997 40.4995 212.682 Z" fill="#000000" fill-rule="evenodd" fill-opacity="1" /><path clip-path="url(#clip640)" d="M 0 0 M-82.8185 650.184 L-76.5483 650.184 Q-78.2989 653.844 -79.1582 657.09 Q-80.0176 660.337 -80.0176 663.361 Q-80.0176 668.612 -77.9806 671.477 Q-75.9435 674.31 -72.1878 674.31 Q-69.0368 674.31 -67.4135 672.432 Q-65.8221 670.522 -64.8354 665.238 L-64.0397 661.355 Q-62.671 654.162 -59.2017 650.756 Q-55.7643 647.319 -49.9715 647.319 Q-43.0647 647.319 -39.4999 651.966 Q-35.9351 656.581 -35.9351 665.525 Q-35.9351 668.899 -36.699 672.718 Q-37.4628 676.506 -38.9588 680.58 L-45.5791 680.58 Q-43.383 676.665 -42.269 672.909 Q-41.155 669.153 -41.155 665.525 Q-41.155 660.019 -43.3193 657.027 Q-45.4836 654.035 -49.494 654.035 Q-52.9952 654.035 -54.9685 656.199 Q-56.9419 658.332 -57.9286 663.233 L-58.6925 667.148 Q-60.1248 674.341 -63.1803 677.556 Q-66.2358 680.771 -71.6785 680.771 Q-77.9806 680.771 -81.609 676.347 Q-85.2375 671.891 -85.2375 664.093 Q-85.2375 660.751 -84.6327 657.281 Q-84.028 653.812 -82.8185 650.184 Z" fill="#000000" fill-rule="evenodd" fill-opacity="1" /><path clip-path="url(#clip640)" d="M 0 0 M-54.7776 624.975 Q-54.7776 632.073 -53.1543 634.81 Q-51.5311 637.548 -47.6162 637.548 Q-44.497 637.548 -42.6509 635.511 Q-40.8367 633.442 -40.8367 629.909 Q-40.8367 625.039 -44.2742 622.111 Q-47.7435 619.151 -53.4726 619.151 L-54.7776 619.151 L-54.7776 624.975 M-57.1965 613.294 L-36.8581 613.294 L-36.8581 619.151 L-42.269 619.151 Q-39.0224 621.156 -37.4628 624.148 Q-35.9351 627.14 -35.9351 631.468 Q-35.9351 636.943 -38.9906 640.189 Q-42.078 643.404 -47.2342 643.404 Q-53.2498 643.404 -56.3053 639.394 Q-59.3609 635.351 -59.3609 627.363 L-59.3609 619.151 L-59.9338 619.151 Q-63.976 619.151 -66.1722 621.824 Q-68.4002 624.466 -68.4002 629.272 Q-68.4002 632.328 -67.6681 635.224 Q-66.9361 638.121 -65.472 640.794 L-70.8828 640.794 Q-72.1241 637.579 -72.7289 634.556 Q-73.3654 631.532 -73.3654 628.667 Q-73.3654 620.933 -69.355 617.114 Q-65.3446 613.294 -57.1965 613.294 Z" fill="#000000" fill-rule="evenodd" fill-opacity="1" /><path clip-path="url(#clip640)" d="M 0 0 M-65.6629 579.397 Q-69.6097 577.201 -71.4876 574.145 Q-73.3654 571.09 -73.3654 566.952 Q-73.3654 561.382 -69.4505 558.358 Q-65.5674 555.335 -58.3742 555.335 L-36.8581 555.335 L-36.8581 561.223 L-58.1832 561.223 Q-63.3076 561.223 -65.7902 563.037 Q-68.2729 564.851 -68.2729 568.575 Q-68.2729 573.127 -65.2492 575.768 Q-62.2254 578.41 -57.0056 578.41 L-36.8581 578.41 L-36.8581 584.298 L-58.1832 584.298 Q-63.3394 584.298 -65.7902 586.113 Q-68.2729 587.927 -68.2729 591.715 Q-68.2729 596.202 -65.2173 598.844 Q-62.1936 601.486 -57.0056 601.486 L-36.8581 601.486 L-36.8581 607.374 L-72.5061 607.374 L-72.5061 601.486 L-66.9679 601.486 Q-70.2462 599.481 -71.8058 596.68 Q-73.3654 593.879 -73.3654 590.028 Q-73.3654 586.145 -71.3921 583.439 Q-69.4187 580.702 -65.6629 579.397 Z" fill="#000000" fill-rule="evenodd" fill-opacity="1" /><path clip-path="url(#clip640)" d="M 0 0 M-42.2053 543.526 L-23.2992 543.526 L-23.2992 549.414 L-72.5061 549.414 L-72.5061 543.526 L-67.0952 543.526 Q-70.2781 541.68 -71.8058 538.879 Q-73.3654 536.046 -73.3654 532.132 Q-73.3654 525.639 -68.2092 521.596 Q-63.053 517.522 -54.6503 517.522 Q-46.2475 517.522 -41.0913 521.596 Q-35.9351 525.639 -35.9351 532.132 Q-35.9351 536.046 -37.4628 538.879 Q-39.0224 541.68 -42.2053 543.526 M-54.6503 523.601 Q-61.1114 523.601 -64.7717 526.275 Q-68.4638 528.917 -68.4638 533.564 Q-68.4638 538.211 -64.7717 540.884 Q-61.1114 543.526 -54.6503 543.526 Q-48.1891 543.526 -44.497 540.884 Q-40.8367 538.211 -40.8367 533.564 Q-40.8367 528.917 -44.497 526.275 Q-48.1891 523.601 -54.6503 523.601 Z" fill="#000000" fill-rule="evenodd" fill-opacity="1" /><path clip-path="url(#clip640)" d="M 0 0 M-86.3833 511.379 L-86.3833 505.523 L-36.8581 505.523 L-36.8581 511.379 L-86.3833 511.379 Z" fill="#000000" fill-rule="evenodd" fill-opacity="1" /><path clip-path="url(#clip640)" d="M 0 0 M-56.1462 468.888 L-53.2816 468.888 L-53.2816 495.815 Q-47.2342 495.433 -44.0514 492.187 Q-40.9003 488.908 -40.9003 483.084 Q-40.9003 479.71 -41.7279 476.559 Q-42.5554 473.376 -44.2105 470.257 L-38.6723 470.257 Q-37.3355 473.408 -36.6353 476.718 Q-35.9351 480.028 -35.9351 483.434 Q-35.9351 491.964 -40.9003 496.961 Q-45.8656 501.926 -54.332 501.926 Q-63.0848 501.926 -68.2092 497.216 Q-73.3654 492.473 -73.3654 484.452 Q-73.3654 477.259 -68.7185 473.09 Q-64.1033 468.888 -56.1462 468.888 M-57.8649 474.745 Q-62.671 474.808 -65.5356 477.45 Q-68.4002 480.06 -68.4002 484.389 Q-68.4002 489.29 -65.6311 492.25 Q-62.862 495.179 -57.8331 495.624 L-57.8649 474.745 Z" fill="#000000" fill-rule="evenodd" fill-opacity="1" /><path clip-path="url(#clip640)" d="M 0 0 M-72.5061 446.226 L-72.5061 440.02 L-42.5872 428.88 L-72.5061 417.74 L-72.5061 411.533 L-36.8581 424.901 L-36.8581 432.858 L-72.5061 446.226 Z" fill="#000000" fill-rule="evenodd" fill-opacity="1" /><path clip-path="url(#clip640)" d="M 0 0 M-54.7776 389.19 Q-54.7776 396.287 -53.1543 399.025 Q-51.5311 401.762 -47.6162 401.762 Q-44.497 401.762 -42.6509 399.725 Q-40.8367 397.656 -40.8367 394.123 Q-40.8367 389.253 -44.2742 386.325 Q-47.7435 383.365 -53.4726 383.365 L-54.7776 383.365 L-54.7776 389.19 M-57.1965 377.509 L-36.8581 377.509 L-36.8581 383.365 L-42.269 383.365 Q-39.0224 385.37 -37.4628 388.362 Q-35.9351 391.354 -35.9351 395.683 Q-35.9351 401.157 -38.9906 404.404 Q-42.078 407.618 -47.2342 407.618 Q-53.2498 407.618 -56.3053 403.608 Q-59.3609 399.566 -59.3609 391.577 L-59.3609 383.365 L-59.9338 383.365 Q-63.976 383.365 -66.1722 386.039 Q-68.4002 388.68 -68.4002 393.486 Q-68.4002 396.542 -67.6681 399.438 Q-66.9361 402.335 -65.472 405.008 L-70.8828 405.008 Q-72.1241 401.794 -72.7289 398.77 Q-73.3654 395.746 -73.3654 392.882 Q-73.3654 385.147 -69.355 381.328 Q-65.3446 377.509 -57.1965 377.509 Z" fill="#000000" fill-rule="evenodd" fill-opacity="1" /><path clip-path="url(#clip640)" d="M 0 0 M-86.3833 371.366 L-86.3833 365.509 L-36.8581 365.509 L-36.8581 371.366 L-86.3833 371.366 Z" fill="#000000" fill-rule="evenodd" fill-opacity="1" /><path clip-path="url(#clip640)" d="M 0 0 M-50.9263 359.971 L-72.5061 359.971 L-72.5061 354.115 L-51.1491 354.115 Q-46.0884 354.115 -43.5421 352.141 Q-41.0276 350.168 -41.0276 346.221 Q-41.0276 341.479 -44.0514 338.741 Q-47.0751 335.972 -52.2949 335.972 L-72.5061 335.972 L-72.5061 330.116 L-36.8581 330.116 L-36.8581 335.972 L-42.3326 335.972 Q-39.0861 338.105 -37.4947 340.938 Q-35.9351 343.738 -35.9351 347.462 Q-35.9351 353.605 -39.7545 356.788 Q-43.5739 359.971 -50.9263 359.971 M-73.3654 345.234 L-73.3654 345.234 Z" fill="#000000" fill-rule="evenodd" fill-opacity="1" /><path clip-path="url(#clip640)" d="M 0 0 M-56.1462 293.481 L-53.2816 293.481 L-53.2816 320.408 Q-47.2342 320.026 -44.0514 316.78 Q-40.9003 313.501 -40.9003 307.677 Q-40.9003 304.303 -41.7279 301.152 Q-42.5554 297.969 -44.2105 294.85 L-38.6723 294.85 Q-37.3355 298.001 -36.6353 301.311 Q-35.9351 304.621 -35.9351 308.027 Q-35.9351 316.557 -40.9003 321.554 Q-45.8656 326.519 -54.332 326.519 Q-63.0848 326.519 -68.2092 321.809 Q-73.3654 317.066 -73.3654 309.045 Q-73.3654 301.852 -68.7185 297.683 Q-64.1033 293.481 -56.1462 293.481 M-57.8649 299.338 Q-62.671 299.401 -65.5356 302.043 Q-68.4002 304.653 -68.4002 308.982 Q-68.4002 313.883 -65.6311 316.843 Q-62.862 319.772 -57.8331 320.217 L-57.8649 299.338 Z" fill="#000000" fill-rule="evenodd" fill-opacity="1" /><path clip-path="url(#clip640)" d="M 0 0 M1048.63 43.8146 L1022.83 43.8146 Q1023.43 55.9268 1026.23 61.0714 Q1029.71 67.3908 1035.75 67.3908 Q1041.82 67.3908 1045.19 61.0309 Q1048.14 55.4407 1048.63 43.8146 M1048.51 36.928 Q1047.37 25.4235 1045.19 21.3726 Q1041.7 14.9721 1035.75 14.9721 Q1029.55 14.9721 1026.27 21.2916 Q1023.68 26.3957 1022.91 36.928 L1048.51 36.928 M1035.75 8.89579 Q1045.47 8.89579 1051.02 17.4837 Q1056.57 26.0311 1056.57 41.1815 Q1056.57 56.2914 1051.02 64.8793 Q1045.47 73.5077 1035.75 73.5077 Q1025.99 73.5077 1020.48 64.8793 Q1014.93 56.2914 1014.93 41.1815 Q1014.93 26.0311 1020.48 17.4837 Q1025.99 8.89579 1035.75 8.89579 Z" fill="#000000" fill-rule="evenodd" fill-opacity="1" /><polyline clip-path="url(#clip642)" style="stroke:#009af9; stroke-width:4; stroke-opacity:1; fill:none" points="
  170.646,469.891 172.378,652.653 174.11,331.329 175.842,273.473 177.574,273.473 179.306,273.473 181.038,408.687 182.77,408.687 184.502,652.985 186.234,741.669 
  187.966,648.641 189.698,650.878 191.429,652.351 193.161,652.351 194.893,562.257 196.625,694.503 198.357,332.94 200.089,339.095 201.821,339.095 203.553,381.67 
  205.285,583.25 207.017,363.995 208.749,447.954 210.481,399.803 212.213,330.608 213.945,184.923 215.677,706.684 217.409,388.838 219.14,388.838 220.872,155.984 
  222.604,237.737 224.336,625.809 226.068,625.809 227.8,578.386 229.532,361.475 231.264,361.475 232.996,361.475 234.728,361.475 236.46,433.99 238.192,619.289 
  239.924,720.299 241.656,263.945 243.388,392.176 245.119,392.176 246.851,392.176 248.583,392.176 250.315,361.875 252.047,164.552 253.779,350.231 255.511,341.778 
  257.243,341.778 258.975,529.322 260.707,385.638 262.439,355.034 264.171,553.95 265.903,498.589 267.635,498.589 269.367,535.168 271.099,511.592 272.83,401.67 
  274.562,401.67 276.294,401.67 278.026,347.53 279.758,339.089 281.49,430.413 283.222,430.413 284.954,444.489 286.686,440.245 288.418,440.245 290.15,440.245 
  291.882,570.794 293.614,568.446 295.346,190.411 297.078,469.304 298.809,415.76 300.541,468.678 302.273,468.678 304.005,343.265 305.737,343.265 307.469,290.31 
  309.201,187.472 310.933,300.411 312.665,340.073 314.397,280.171 316.129,287.062 317.861,287.062 319.593,431.831 321.325,431.831 323.057,259.956 324.789,259.956 
  326.52,271.859 328.252,365.869 329.984,365.869 331.716,365.869 333.448,134.49 335.18,98.6848 336.912,96.787 338.644,160.18 340.376,261.125 342.108,406.386 
  343.84,406.386 345.572,406.386 347.304,184.341 349.036,607.057 350.768,663.846 352.499,268.95 354.231,284.031 355.963,562.941 357.695,586.769 359.427,109.018 
  361.159,195.331 362.891,214.679 364.623,485.13 366.355,552.432 368.087,496.022 369.819,523.988 371.551,208.3 373.283,495.447 375.015,495.447 376.747,337.763 
  378.479,337.763 380.21,337.763 381.942,236.367 383.674,369.273 385.406,369.273 387.138,426.744 388.87,507.958 390.602,418.291 392.334,418.291 394.066,433.065 
  395.798,266.945 397.53,127.826 399.262,566.694 400.994,615.546 402.726,335.073 404.458,724.509 406.189,236.009 407.921,236.009 409.653,355.959 411.385,349.4 
  413.117,349.4 414.849,455.646 416.581,455.646 418.313,455.646 420.045,519.133 421.777,519.133 423.509,503.063 425.241,503.063 426.973,356.129 428.705,356.129 
  430.437,316.037 432.169,161.765 433.9,207.885 435.632,207.885 437.364,508.215 439.096,307.46 440.828,358.888 442.56,442.142 444.292,541.549 446.024,541.549 
  447.756,541.549 449.488,294.447 451.22,439.749 452.952,263.893 454.684,589.673 456.416,700.015 458.148,327.765 459.879,321.483 461.611,763.949 463.343,332.68 
  465.075,332.68 466.807,372.416 468.539,503.692 470.271,581.325 472.003,581.325 473.735,270.576 475.467,483.616 477.199,483.616 478.931,343.316 480.663,646.239 
  482.395,578.282 484.127,468.245 485.859,108.024 487.59,201.35 489.322,182.555 491.054,185.178 492.786,526.657 494.518,401.149 496.25,534.014 497.982,299.955 
  499.714,539.796 501.446,539.796 503.178,583.275 504.91,543.657 506.642,556.361 508.374,700.765 510.106,340.394 511.838,583.064 513.569,342.836 515.301,327.877 
  517.033,327.877 518.765,356.415 520.497,356.415 522.229,229.822 523.961,390.064 525.693,273.613 527.425,376.845 529.157,537.062 530.889,537.062 532.621,300.657 
  534.353,478.008 536.085,681.922 537.817,382.294 539.549,442.054 541.28,244.294 543.012,395.314 544.744,397.205 546.476,253.689 548.208,237.677 549.94,502.605 
  551.672,502.605 553.404,749.579 555.136,349.028 556.868,371.355 558.6,461.615 560.332,609.782 562.064,178.495 563.796,245.695 565.528,404.331 567.259,404.331 
  568.991,209.868 570.723,560.599 572.455,148.685 574.187,768.683 575.919,791.525 577.651,611.248 579.383,484.41 581.115,398.823 582.847,476.54 584.579,531.442 
  586.311,443.944 588.043,443.944 589.775,187.998 591.507,310.055 593.239,468.818 594.97,489.709 596.702,444.104 598.434,375.967 600.166,329.853 601.898,280.188 
  603.63,378.622 605.362,378.622 607.094,284.849 608.826,331.59 610.558,331.59 612.29,331.59 614.022,403.302 615.754,403.302 617.486,403.302 619.218,751.146 
  620.949,285.351 622.681,546.484 624.413,240.332 626.145,200.319 627.877,156.082 629.609,453.099 631.341,478.24 633.073,478.24 634.805,258.239 636.537,335.165 
  638.269,542.761 640.001,387.499 641.733,387.499 643.465,306.4 645.197,306.4 646.929,306.4 648.66,271.952 650.392,454.747 652.124,307.828 653.856,307.828 
  655.588,307.828 657.32,277.304 659.052,320.424 660.784,305.849 662.516,259.389 664.248,431.773 665.98,431.773 667.712,521.077 669.444,611.063 671.176,776.245 
  672.908,513.259 674.639,437.137 676.371,415.116 678.103,415.116 679.835,448.794 681.567,158.697 683.299,337.479 685.031,277.655 686.763,463.526 688.495,333.86 
  690.227,333.86 691.959,252.408 693.691,581.965 695.423,173.505 697.155,468.216 698.887,468.216 700.619,584.7 702.35,451.07 704.082,431.957 705.814,138.155 
  707.546,191.997 709.278,191.997 711.01,467.313 712.742,467.313 714.474,703.187 716.206,306.64 717.938,343.717 719.67,306.231 721.402,534.713 723.134,534.713 
  724.866,209.855 726.598,344.516 728.329,480.679 730.061,480.679 731.793,480.679 733.525,480.679 735.257,280.249 736.989,280.249 738.721,285.806 740.453,475.805 
  742.185,248.049 743.917,258.105 745.649,258.105 747.381,435.407 749.113,435.407 750.845,445.404 752.577,467.228 754.309,635.606 756.04,341.947 757.772,407.85 
  759.504,791.761 761.236,440.478 762.968,440.478 764.7,510.791 766.432,510.791 768.164,189.477 769.896,508.128 771.628,146.808 773.36,205.967 775.092,387.889 
  776.824,284.922 778.556,556.008 780.288,535.901 782.019,535.901 783.751,442.765 785.483,602.943 787.215,274.344 788.947,642.704 790.679,281.837 792.411,296.989 
  794.143,296.989 795.875,361.285 797.607,365.245 799.339,528.242 801.071,306.9 802.803,256.152 804.535,256.152 806.267,139.413 807.999,202.604 809.73,465.503 
  811.462,465.503 813.194,465.503 814.926,465.503 816.658,452.465 818.39,559.719 820.122,279.755 821.854,279.755 823.586,498.964 825.318,498.964 827.05,498.964 
  828.782,487.613 830.514,395.947 832.246,395.947 833.978,115.976 835.709,241.082 837.441,273.432 839.173,189.016 840.905,187.042 842.637,217.559 844.369,256.719 
  846.101,220.989 847.833,220.989 849.565,332.227 851.297,332.227 853.029,343.953 854.761,343.953 856.493,343.953 858.225,461.014 859.957,230.263 861.689,349.708 
  863.42,400.307 865.152,395.729 866.884,649.868 868.616,178.219 870.348,577.464 872.08,364.199 873.812,392.03 875.544,492.076 877.276,388.493 879.008,406.81 
  880.74,343.481 882.472,414.814 884.204,248.197 885.936,367.752 887.668,367.752 889.399,368.895 891.131,248.125 892.863,276.13 894.595,276.13 896.327,424.71 
  898.059,425.113 899.791,178.396 901.523,717.89 903.255,782.742 904.987,282.331 906.719,126.378 908.451,623.779 910.183,494.217 911.915,494.217 913.647,494.217 
  915.379,174.71 917.11,615.154 918.842,422.74 920.574,347.151 922.306,89.5955 924.038,162.865 925.77,191.505 927.502,195.282 929.234,141.646 930.966,92.6825 
  932.698,465.433 934.43,178.3 936.162,427.24 937.894,427.24 939.626,295.301 941.358,430.212 943.089,203.374 944.821,302.327 946.553,399.411 948.285,399.411 
  950.017,399.411 951.749,399.411 953.481,399.411 955.213,228.745 956.945,228.745 958.677,259.78 960.409,213.973 962.141,172.731 963.873,462.95 965.605,270.554 
  967.337,188.265 969.069,375.205 970.8,375.205 972.532,361.564 974.264,361.564 975.996,361.564 977.728,351.002 979.46,445.217 981.192,452.574 982.924,326.87 
  984.656,310.284 986.388,459.257 988.12,496.199 989.852,496.199 991.584,494.235 993.316,494.235 995.048,535.113 996.779,441.673 998.511,887.252 1000.24,446.054 
  1001.98,376.534 1003.71,376.534 1005.44,376.534 1007.17,416.445 1008.9,808.146 1010.63,414.568 1012.37,414.568 1014.1,414.568 1015.83,200.99 1017.56,428.329 
  1019.29,596.098 1021.03,769.128 1022.76,653.905 1024.49,403.806 1026.22,403.806 1027.95,389.484 1029.69,389.484 1031.42,372.585 1033.15,372.585 1034.88,372.585 
  1036.61,576.627 1038.35,217.595 1040.08,172.869 1041.81,515.687 1043.54,474.42 1045.27,214.41 1047.01,246.428 1048.74,448.325 1050.47,448.325 1052.2,448.325 
  1053.93,448.325 1055.67,448.325 1057.4,448.325 1059.13,231.883 1060.86,231.883 1062.59,302.681 1064.32,183.587 1066.06,438.094 1067.79,260.068 1069.52,187.099 
  1071.25,335.024 1072.98,292.108 1074.72,321.754 1076.45,346.46 1078.18,423.722 1079.91,423.722 1081.64,423.722 1083.38,389.13 1085.11,688.648 1086.84,757.997 
  1088.57,359.525 1090.3,188.721 1092.04,426.239 1093.77,612.098 1095.5,575.404 1097.23,575.404 1098.96,575.404 1100.7,422.645 1102.43,355.031 1104.16,355.031 
  1105.89,255.958 1107.62,267.667 1109.36,436.016 1111.09,436.016 1112.82,155.938 1114.55,566.312 1116.28,280.94 1118.01,333.432 1119.75,333.432 1121.48,401.479 
  1123.21,371.043 1124.94,371.043 1126.67,562.902 1128.41,405.824 1130.14,516.008 1131.87,516.008 1133.6,587.643 1135.33,503.242 1137.07,456.861 1138.8,320.459 
  1140.53,455.579 1142.26,343.395 1143.99,343.395 1145.73,343.395 1147.46,348.022 1149.19,177.882 1150.92,177.882 1152.65,259.473 1154.39,484.824 1156.12,466.035 
  1157.85,307.829 1159.58,307.829 1161.31,307.829 1163.05,467.199 1164.78,282.679 1166.51,400.822 1168.24,400.822 1169.97,182.09 1171.7,480.824 1173.44,480.824 
  1175.17,182.29 1176.9,159.962 1178.63,308.625 1180.36,360.182 1182.1,360.182 1183.83,230.907 1185.56,230.907 1187.29,226.33 1189.02,365.678 1190.76,390.29 
  1192.49,229.642 1194.22,95.4869 1195.95,121.564 1197.68,226.834 1199.42,194.775 1201.15,198.73 1202.88,468.154 1204.61,374.413 1206.34,560.678 1208.08,560.678 
  1209.81,560.678 1211.54,425.667 1213.27,425.667 1215,622.625 1216.74,350.315 1218.47,584.5 1220.2,523.8 1221.93,250.855 1223.66,224.241 1225.39,296.36 
  1227.13,545.695 1228.86,545.695 1230.59,545.695 1232.32,545.695 1234.05,435.637 1235.79,416.868 1237.52,420.611 1239.25,815.906 1240.98,121.604 1242.71,132.42 
  1244.45,263.82 1246.18,413.209 1247.91,413.209 1249.64,413.209 1251.37,413.209 1253.11,413.209 1254.84,314.071 1256.57,182.643 1258.3,429.402 1260.03,88.0905 
  1261.77,109.716 1263.5,243.522 1265.23,528.724 1266.96,439.786 1268.69,358.777 1270.43,622.773 1272.16,496.42 1273.89,498.603 1275.62,498.603 1277.35,498.603 
  1279.08,417.01 1280.82,560.224 1282.55,495.611 1284.28,261.225 1286.01,246.994 1287.74,246.994 1289.48,104.721 1291.21,214.296 1292.94,155.254 1294.67,487.122 
  1296.4,604.653 1298.14,536.642 1299.87,519.856 1301.6,366.23 1303.33,565.997 1305.06,228.815 1306.8,229.017 1308.53,517.411 1310.26,261.352 1311.99,431.801 
  1313.72,266.507 1315.46,188.086 1317.19,514.226 1318.92,514.226 1320.65,545.661 1322.38,86.9997 1324.12,203.309 1325.85,344.941 1327.58,344.941 1329.31,298.773 
  1331.04,298.773 1332.77,298.773 1334.51,272.806 1336.24,265.427 1337.97,426.19 1339.7,304.369 1341.43,546.564 1343.17,407.087 1344.9,407.087 1346.63,264.447 
  1348.36,234.158 1350.09,471.342 1351.83,489.017 1353.56,493.742 1355.29,268.81 1357.02,539.531 1358.75,354.789 1360.49,363.518 1362.22,471.07 1363.95,525.276 
  1365.68,308.615 1367.41,312.471 1369.15,224.845 1370.88,343.124 1372.61,464.23 1374.34,470.308 1376.07,510.627 1377.81,625.247 1379.54,486.648 1381.27,603.685 
  1383,251.66 1384.73,557.362 1386.46,121.798 1388.2,490.778 1389.93,539.515 1391.66,378.582 1393.39,417.335 1395.12,417.335 1396.86,417.335 1398.59,421.724 
  1400.32,665.221 1402.05,845.741 1403.78,270.704 1405.52,476.095 1407.25,125.455 1408.98,157.467 1410.71,229.998 1412.44,127.789 1414.18,754.557 1415.91,282.58 
  1417.64,347.829 1419.37,213.187 1421.1,432.111 1422.84,211.444 1424.57,431.379 1426.3,223.879 1428.03,276.072 1429.76,386.808 1431.5,352.828 1433.23,580.329 
  1434.96,580.329 1436.69,580.329 1438.42,525.577 1440.15,838.275 1441.89,297.469 1443.62,363.755 1445.35,428.188 1447.08,159.026 1448.81,364.109 1450.55,226.505 
  1452.28,410.201 1454.01,415.691 1455.74,328.087 1457.47,284.864 1459.21,284.864 1460.94,284.864 1462.67,471.077 1464.4,738.761 1466.13,316.045 1467.87,668.248 
  1469.6,492.427 1471.33,492.427 1473.06,268.715 1474.79,268.715 1476.53,409.091 1478.26,409.091 1479.99,178.415 1481.72,195.264 1483.45,279.648 1485.19,215.301 
  1486.92,320.302 1488.65,403.957 1490.38,313.664 1492.11,272.127 1493.84,272.127 1495.58,155.318 1497.31,481.56 1499.04,461.215 1500.77,206.989 1502.5,346.919 
  1504.24,310.63 1505.97,310.63 1507.7,302.983 1509.43,302.983 1511.16,302.983 1512.9,332.568 1514.63,337.986 1516.36,337.986 1518.09,642.453 1519.82,227.025 
  1521.56,141.586 1523.29,354.301 1525.02,361.75 1526.75,236.601 1528.48,203.361 1530.22,198.075 1531.95,388.434 1533.68,428.548 1535.41,649.567 1537.14,695.545 
  1538.88,309.344 1540.61,309.344 1542.34,309.344 1544.07,527.946 1545.8,828.074 1547.53,519.212 1549.27,519.212 1551,529.455 1552.73,529.455 1554.46,484.438 
  1556.19,484.438 1557.93,444.57 1559.66,252.171 1561.39,140.714 1563.12,166.683 1564.85,166.683 1566.59,633.798 1568.32,339.843 1570.05,339.843 1571.78,339.843 
  1573.51,598.976 1575.25,574.074 1576.98,574.074 1578.71,400.86 1580.44,207.597 1582.17,545.399 1583.91,545.399 1585.64,545.399 1587.37,279.36 1589.1,305.399 
  1590.83,305.399 1592.57,305.399 1594.3,388.116 1596.03,305.601 1597.76,369.959 1599.49,675.526 1601.22,287.066 1602.96,480.502 1604.69,551.564 1606.42,579.081 
  1608.15,219.063 1609.88,272.197 1611.62,248.381 1613.35,252.491 1615.08,252.491 1616.81,248.595 1618.54,432.412 1620.28,227.58 1622.01,495.626 1623.74,508.075 
  1625.47,196.571 1627.2,292.673 1628.94,274.975 1630.67,486.336 1632.4,486.336 1634.13,486.336 1635.86,486.336 1637.6,554.67 1639.33,682.156 1641.06,164.611 
  1642.79,374.767 1644.52,374.767 1646.26,374.767 1647.99,249.839 1649.72,502.697 1651.45,256.194 1653.18,249.545 1654.91,269.359 1656.65,373.798 1658.38,469.302 
  1660.11,741.655 1661.84,330.497 1663.57,613.478 1665.31,704.572 1667.04,186.51 1668.77,142.532 1670.5,389.068 1672.23,389.068 1673.97,389.068 1675.7,384.884 
  1677.43,158.908 1679.16,289.805 1680.89,547.201 1682.63,547.201 1684.36,364.2 1686.09,521.483 1687.82,221.568 1689.55,447.394 1691.29,465.95 1693.02,406.266 
  1694.75,303.871 1696.48,303.871 1698.21,249.213 1699.95,677.438 1701.68,310.189 1703.41,311.007 1705.14,232.468 1706.87,216.014 1708.6,180.221 1710.34,508.415 
  1712.07,383.125 1713.8,212.289 1715.53,580.969 1717.26,271.357 1719,472.696 1720.73,472.696 1722.46,472.696 1724.19,464.939 1725.92,604.249 1727.66,604.249 
  1729.39,348.719 1731.12,233.298 1732.85,203.285 1734.58,187.345 1736.32,98.1601 1738.05,204.705 1739.78,313.177 1741.51,393.772 1743.24,447.701 1744.98,496.435 
  1746.71,148.741 1748.44,150.245 1750.17,88.1154 1751.9,208.393 1753.64,251.163 1755.37,251.163 1757.1,336.983 1758.83,336.983 1760.56,779.442 1762.29,608.737 
  1764.03,294.866 1765.76,398.137 1767.49,368.632 1769.22,616.23 1770.95,667.437 1772.69,526.521 1774.42,356.038 1776.15,356.038 1777.88,492.598 1779.61,333.773 
  1781.35,500.514 1783.08,500.514 1784.81,334.612 1786.54,334.612 1788.27,358.185 1790.01,358.185 1791.74,392.281 1793.47,392.281 1795.2,298.827 1796.93,298.827 
  1798.67,243.097 1800.4,510.525 1802.13,510.525 1803.86,651.185 1805.59,372.092 1807.33,373.527 1809.06,370.014 1810.79,370.014 1812.52,373.816 1814.25,373.816 
  1815.98,373.816 1817.72,674.542 1819.45,375.556 1821.18,764.164 1822.91,764.164 1824.64,654.295 1826.38,706.154 1828.11,695.169 1829.84,355.802 1831.57,355.802 
  1833.3,324.825 1835.04,324.825 1836.77,707.146 1838.5,727.529 1840.23,419.405 1841.96,354.669 1843.7,408.803 1845.43,248.748 1847.16,718.375 1848.89,433.846 
  1850.62,403.622 1852.36,527.204 1854.09,583.872 1855.82,387.029 1857.55,593.734 1859.28,353.847 1861.02,353.847 1862.75,350.246 1864.48,350.246 1866.21,535.482 
  1867.94,431.359 1869.67,440.329 1871.41,161.504 1873.14,151.684 1874.87,525.217 1876.6,295.927 1878.33,516.546 1880.07,489.963 1881.8,224.976 1883.53,295.508 
  1885.26,605.024 1886.99,360.544 1888.73,478.136 1890.46,215.65 1892.19,359.447 1893.92,388.946 1895.65,355.021 1897.39,355.021 1899.12,314.724 1900.85,308.402 
  
  "/>
<path clip-path="url(#clip640)" d="
M2118.74 911.26 L3952.76 911.26 L3952.76 62.9921 L2118.74 62.9921  Z
  " fill="#ffffff" fill-rule="evenodd" fill-opacity="1"/>
<defs>
  <clipPath id="clip643">
    <rect x="2118" y="62" width="1835" height="849"/>
  </clipPath>
</defs>
<polyline clip-path="url(#clip643)" style="stroke:#000000; stroke-width:2; stroke-opacity:0.1; fill:none" points="
  2449.34,911.26 2449.34,62.9921 
  "/>
<polyline clip-path="url(#clip643)" style="stroke:#000000; stroke-width:2; stroke-opacity:0.1; fill:none" points="
  2788.49,911.26 2788.49,62.9921 
  "/>
<polyline clip-path="url(#clip643)" style="stroke:#000000; stroke-width:2; stroke-opacity:0.1; fill:none" points="
  3127.64,911.26 3127.64,62.9921 
  "/>
<polyline clip-path="url(#clip643)" style="stroke:#000000; stroke-width:2; stroke-opacity:0.1; fill:none" points="
  3466.79,911.26 3466.79,62.9921 
  "/>
<polyline clip-path="url(#clip643)" style="stroke:#000000; stroke-width:2; stroke-opacity:0.1; fill:none" points="
  3805.93,911.26 3805.93,62.9921 
  "/>
<polyline clip-path="url(#clip640)" style="stroke:#000000; stroke-width:4; stroke-opacity:1; fill:none" points="
  2118.74,911.26 3952.76,911.26 
  "/>
<polyline clip-path="url(#clip640)" style="stroke:#000000; stroke-width:4; stroke-opacity:1; fill:none" points="
  2449.34,911.26 2449.34,901.081 
  "/>
<polyline clip-path="url(#clip640)" style="stroke:#000000; stroke-width:4; stroke-opacity:1; fill:none" points="
  2788.49,911.26 2788.49,901.081 
  "/>
<polyline clip-path="url(#clip640)" style="stroke:#000000; stroke-width:4; stroke-opacity:1; fill:none" points="
  3127.64,911.26 3127.64,901.081 
  "/>
<polyline clip-path="url(#clip640)" style="stroke:#000000; stroke-width:4; stroke-opacity:1; fill:none" points="
  3466.79,911.26 3466.79,901.081 
  "/>
<polyline clip-path="url(#clip640)" style="stroke:#000000; stroke-width:4; stroke-opacity:1; fill:none" points="
  3805.93,911.26 3805.93,901.081 
  "/>
<path clip-path="url(#clip640)" d="M 0 0 M2431.66 953.251 Q2428.05 953.251 2426.22 956.815 Q2424.41 960.357 2424.41 967.487 Q2424.41 974.593 2426.22 978.158 Q2428.05 981.699 2431.66 981.699 Q2435.29 981.699 2437.1 978.158 Q2438.93 974.593 2438.93 967.487 Q2438.93 960.357 2437.1 956.815 Q2435.29 953.251 2431.66 953.251 M2431.66 949.547 Q2437.47 949.547 2440.52 954.153 Q2443.6 958.737 2443.6 967.487 Q2443.6 976.213 2440.52 980.82 Q2437.47 985.403 2431.66 985.403 Q2425.85 985.403 2422.77 980.82 Q2419.71 976.213 2419.71 967.487 Q2419.71 958.737 2422.77 954.153 Q2425.85 949.547 2431.66 949.547 Z" fill="#000000" fill-rule="evenodd" fill-opacity="1" /><path clip-path="url(#clip640)" d="M 0 0 M2448.67 978.852 L2453.56 978.852 L2453.56 984.732 L2448.67 984.732 L2448.67 978.852 Z" fill="#000000" fill-rule="evenodd" fill-opacity="1" /><path clip-path="url(#clip640)" d="M 0 0 M2462.65 980.797 L2478.97 980.797 L2478.97 984.732 L2457.03 984.732 L2457.03 980.797 Q2459.69 978.042 2464.27 973.412 Q2468.88 968.76 2470.06 967.417 Q2472.31 964.894 2473.19 963.158 Q2474.09 961.399 2474.09 959.709 Q2474.09 956.954 2472.14 955.218 Q2470.22 953.482 2467.12 953.482 Q2464.92 953.482 2462.47 954.246 Q2460.04 955.01 2457.26 956.561 L2457.26 951.839 Q2460.08 950.704 2462.54 950.126 Q2464.99 949.547 2467.03 949.547 Q2472.4 949.547 2475.59 952.232 Q2478.79 954.917 2478.79 959.408 Q2478.79 961.538 2477.98 963.459 Q2477.19 965.357 2475.08 967.95 Q2474.51 968.621 2471.4 971.838 Q2468.3 975.033 2462.65 980.797 Z" fill="#000000" fill-rule="evenodd" fill-opacity="1" /><path clip-path="url(#clip640)" d="M 0 0 M2769.76 953.251 Q2766.15 953.251 2764.32 956.815 Q2762.52 960.357 2762.52 967.487 Q2762.52 974.593 2764.32 978.158 Q2766.15 981.699 2769.76 981.699 Q2773.4 981.699 2775.2 978.158 Q2777.03 974.593 2777.03 967.487 Q2777.03 960.357 2775.2 956.815 Q2773.4 953.251 2769.76 953.251 M2769.76 949.547 Q2775.57 949.547 2778.63 954.153 Q2781.71 958.737 2781.71 967.487 Q2781.71 976.213 2778.63 980.82 Q2775.57 985.403 2769.76 985.403 Q2763.95 985.403 2760.88 980.82 Q2757.82 976.213 2757.82 967.487 Q2757.82 958.737 2760.88 954.153 Q2763.95 949.547 2769.76 949.547 Z" fill="#000000" fill-rule="evenodd" fill-opacity="1" /><path clip-path="url(#clip640)" d="M 0 0 M2786.78 978.852 L2791.66 978.852 L2791.66 984.732 L2786.78 984.732 L2786.78 978.852 Z" fill="#000000" fill-rule="evenodd" fill-opacity="1" /><path clip-path="url(#clip640)" d="M 0 0 M2809.58 954.246 L2797.77 972.695 L2809.58 972.695 L2809.58 954.246 M2808.35 950.172 L2814.23 950.172 L2814.23 972.695 L2819.16 972.695 L2819.16 976.584 L2814.23 976.584 L2814.23 984.732 L2809.58 984.732 L2809.58 976.584 L2793.98 976.584 L2793.98 972.07 L2808.35 950.172 Z" fill="#000000" fill-rule="evenodd" fill-opacity="1" /><path clip-path="url(#clip640)" d="M 0 0 M3109.07 953.251 Q3105.46 953.251 3103.63 956.815 Q3101.83 960.357 3101.83 967.487 Q3101.83 974.593 3103.63 978.158 Q3105.46 981.699 3109.07 981.699 Q3112.71 981.699 3114.51 978.158 Q3116.34 974.593 3116.34 967.487 Q3116.34 960.357 3114.51 956.815 Q3112.71 953.251 3109.07 953.251 M3109.07 949.547 Q3114.88 949.547 3117.94 954.153 Q3121.02 958.737 3121.02 967.487 Q3121.02 976.213 3117.94 980.82 Q3114.88 985.403 3109.07 985.403 Q3103.26 985.403 3100.18 980.82 Q3097.13 976.213 3097.13 967.487 Q3097.13 958.737 3100.18 954.153 Q3103.26 949.547 3109.07 949.547 Z" fill="#000000" fill-rule="evenodd" fill-opacity="1" /><path clip-path="url(#clip640)" d="M 0 0 M3126.09 978.852 L3130.97 978.852 L3130.97 984.732 L3126.09 984.732 L3126.09 978.852 Z" fill="#000000" fill-rule="evenodd" fill-opacity="1" /><path clip-path="url(#clip640)" d="M 0 0 M3146.62 965.588 Q3143.47 965.588 3141.62 967.741 Q3139.79 969.894 3139.79 973.644 Q3139.79 977.371 3141.62 979.547 Q3143.47 981.699 3146.62 981.699 Q3149.77 981.699 3151.6 979.547 Q3153.45 977.371 3153.45 973.644 Q3153.45 969.894 3151.6 967.741 Q3149.77 965.588 3146.62 965.588 M3155.9 950.936 L3155.9 955.195 Q3154.14 954.362 3152.34 953.922 Q3150.55 953.482 3148.8 953.482 Q3144.17 953.482 3141.71 956.607 Q3139.28 959.732 3138.93 966.051 Q3140.3 964.038 3142.36 962.973 Q3144.42 961.885 3146.9 961.885 Q3152.11 961.885 3155.12 965.056 Q3158.15 968.204 3158.15 973.644 Q3158.15 978.968 3155 982.186 Q3151.85 985.403 3146.62 985.403 Q3140.62 985.403 3137.45 980.82 Q3134.28 976.213 3134.28 967.487 Q3134.28 959.292 3138.17 954.431 Q3142.06 949.547 3148.61 949.547 Q3150.37 949.547 3152.15 949.894 Q3153.96 950.241 3155.9 950.936 Z" fill="#000000" fill-rule="evenodd" fill-opacity="1" /><path clip-path="url(#clip640)" d="M 0 0 M3448.35 953.251 Q3444.74 953.251 3442.91 956.815 Q3441.1 960.357 3441.1 967.487 Q3441.1 974.593 3442.91 978.158 Q3444.74 981.699 3448.35 981.699 Q3451.98 981.699 3453.79 978.158 Q3455.62 974.593 3455.62 967.487 Q3455.62 960.357 3453.79 956.815 Q3451.98 953.251 3448.35 953.251 M3448.35 949.547 Q3454.16 949.547 3457.21 954.153 Q3460.29 958.737 3460.29 967.487 Q3460.29 976.213 3457.21 980.82 Q3454.16 985.403 3448.35 985.403 Q3442.54 985.403 3439.46 980.82 Q3436.4 976.213 3436.4 967.487 Q3436.4 958.737 3439.46 954.153 Q3442.54 949.547 3448.35 949.547 Z" fill="#000000" fill-rule="evenodd" fill-opacity="1" /><path clip-path="url(#clip640)" d="M 0 0 M3465.36 978.852 L3470.25 978.852 L3470.25 984.732 L3465.36 984.732 L3465.36 978.852 Z" fill="#000000" fill-rule="evenodd" fill-opacity="1" /><path clip-path="url(#clip640)" d="M 0 0 M3485.32 968.32 Q3481.98 968.32 3480.06 970.102 Q3478.16 971.885 3478.16 975.01 Q3478.16 978.135 3480.06 979.917 Q3481.98 981.699 3485.32 981.699 Q3488.65 981.699 3490.57 979.917 Q3492.49 978.112 3492.49 975.01 Q3492.49 971.885 3490.57 970.102 Q3488.67 968.32 3485.32 968.32 M3480.64 966.329 Q3477.63 965.588 3475.94 963.528 Q3474.27 961.468 3474.27 958.505 Q3474.27 954.362 3477.21 951.954 Q3480.18 949.547 3485.32 949.547 Q3490.48 949.547 3493.42 951.954 Q3496.36 954.362 3496.36 958.505 Q3496.36 961.468 3494.67 963.528 Q3493 965.588 3490.01 966.329 Q3493.39 967.116 3495.27 969.408 Q3497.17 971.7 3497.17 975.01 Q3497.17 980.033 3494.09 982.718 Q3491.03 985.403 3485.32 985.403 Q3479.6 985.403 3476.52 982.718 Q3473.46 980.033 3473.46 975.01 Q3473.46 971.7 3475.36 969.408 Q3477.26 967.116 3480.64 966.329 M3478.93 958.945 Q3478.93 961.63 3480.59 963.135 Q3482.28 964.639 3485.32 964.639 Q3488.32 964.639 3490.01 963.135 Q3491.73 961.63 3491.73 958.945 Q3491.73 956.26 3490.01 954.755 Q3488.32 953.251 3485.32 953.251 Q3482.28 953.251 3480.59 954.755 Q3478.93 956.26 3478.93 958.945 Z" fill="#000000" fill-rule="evenodd" fill-opacity="1" /><path clip-path="url(#clip640)" d="M 0 0 M3777.83 980.797 L3785.47 980.797 L3785.47 954.431 L3777.16 956.098 L3777.16 951.839 L3785.42 950.172 L3790.1 950.172 L3790.1 980.797 L3797.74 980.797 L3797.74 984.732 L3777.83 984.732 L3777.83 980.797 Z" fill="#000000" fill-rule="evenodd" fill-opacity="1" /><path clip-path="url(#clip640)" d="M 0 0 M3802.81 978.852 L3807.69 978.852 L3807.69 984.732 L3802.81 984.732 L3802.81 978.852 Z" fill="#000000" fill-rule="evenodd" fill-opacity="1" /><path clip-path="url(#clip640)" d="M 0 0 M3822.76 953.251 Q3819.15 953.251 3817.32 956.815 Q3815.52 960.357 3815.52 967.487 Q3815.52 974.593 3817.32 978.158 Q3819.15 981.699 3822.76 981.699 Q3826.4 981.699 3828.2 978.158 Q3830.03 974.593 3830.03 967.487 Q3830.03 960.357 3828.2 956.815 Q3826.4 953.251 3822.76 953.251 M3822.76 949.547 Q3828.57 949.547 3831.63 954.153 Q3834.71 958.737 3834.71 967.487 Q3834.71 976.213 3831.63 980.82 Q3828.57 985.403 3822.76 985.403 Q3816.95 985.403 3813.87 980.82 Q3810.82 976.213 3810.82 967.487 Q3810.82 958.737 3813.87 954.153 Q3816.95 949.547 3822.76 949.547 Z" fill="#000000" fill-rule="evenodd" fill-opacity="1" /><path clip-path="url(#clip640)" d="M 0 0 M2872.69 1014.16 L2872.69 1020.43 Q2869.03 1018.68 2865.78 1017.82 Q2862.54 1016.96 2859.51 1016.96 Q2854.26 1016.96 2851.4 1019 Q2848.56 1021.04 2848.56 1024.79 Q2848.56 1027.95 2850.44 1029.57 Q2852.35 1031.16 2857.64 1032.15 L2861.52 1032.94 Q2868.71 1034.31 2872.12 1037.78 Q2875.56 1041.22 2875.56 1047.01 Q2875.56 1053.92 2870.91 1057.48 Q2866.29 1061.05 2857.35 1061.05 Q2853.98 1061.05 2850.16 1060.28 Q2846.37 1059.52 2842.29 1058.02 L2842.29 1051.4 Q2846.21 1053.6 2849.96 1054.71 Q2853.72 1055.83 2857.35 1055.83 Q2862.86 1055.83 2865.85 1053.66 Q2868.84 1051.5 2868.84 1047.49 Q2868.84 1043.99 2866.67 1042.01 Q2864.54 1040.04 2859.64 1039.05 L2855.73 1038.29 Q2848.53 1036.86 2845.32 1033.8 Q2842.1 1030.75 2842.1 1025.3 Q2842.1 1019 2846.53 1015.37 Q2850.98 1011.74 2858.78 1011.74 Q2862.12 1011.74 2865.59 1012.35 Q2869.06 1012.95 2872.69 1014.16 Z" fill="#000000" fill-rule="evenodd" fill-opacity="1" /><path clip-path="url(#clip640)" d="M 0 0 M2897.9 1042.2 Q2890.8 1042.2 2888.06 1043.83 Q2885.33 1045.45 2885.33 1049.37 Q2885.33 1052.48 2887.36 1054.33 Q2889.43 1056.15 2892.97 1056.15 Q2897.83 1056.15 2900.76 1052.71 Q2903.72 1049.24 2903.72 1043.51 L2903.72 1042.2 L2897.9 1042.2 M2909.58 1039.79 L2909.58 1060.12 L2903.72 1060.12 L2903.72 1054.71 Q2901.72 1057.96 2898.73 1059.52 Q2895.73 1061.05 2891.41 1061.05 Q2885.93 1061.05 2882.68 1057.99 Q2879.47 1054.9 2879.47 1049.75 Q2879.47 1043.73 2883.48 1040.68 Q2887.52 1037.62 2895.51 1037.62 L2903.72 1037.62 L2903.72 1037.05 Q2903.72 1033.01 2901.05 1030.81 Q2898.41 1028.58 2893.6 1028.58 Q2890.55 1028.58 2887.65 1029.31 Q2884.75 1030.05 2882.08 1031.51 L2882.08 1026.1 Q2885.29 1024.86 2888.32 1024.25 Q2891.34 1023.62 2894.21 1023.62 Q2901.94 1023.62 2905.76 1027.63 Q2909.58 1031.64 2909.58 1039.79 Z" fill="#000000" fill-rule="evenodd" fill-opacity="1" /><path clip-path="url(#clip640)" d="M 0 0 M2943.48 1031.32 Q2945.67 1027.37 2948.73 1025.49 Q2951.78 1023.62 2955.92 1023.62 Q2961.49 1023.62 2964.52 1027.53 Q2967.54 1031.41 2967.54 1038.61 L2967.54 1060.12 L2961.65 1060.12 L2961.65 1038.8 Q2961.65 1033.67 2959.84 1031.19 Q2958.02 1028.71 2954.3 1028.71 Q2949.75 1028.71 2947.11 1031.73 Q2944.46 1034.76 2944.46 1039.98 L2944.46 1060.12 L2938.58 1060.12 L2938.58 1038.8 Q2938.58 1033.64 2936.76 1031.19 Q2934.95 1028.71 2931.16 1028.71 Q2926.67 1028.71 2924.03 1031.76 Q2921.39 1034.79 2921.39 1039.98 L2921.39 1060.12 L2915.5 1060.12 L2915.5 1024.48 L2921.39 1024.48 L2921.39 1030.01 Q2923.39 1026.74 2926.19 1025.18 Q2929 1023.62 2932.85 1023.62 Q2936.73 1023.62 2939.43 1025.59 Q2942.17 1027.56 2943.48 1031.32 Z" fill="#000000" fill-rule="evenodd" fill-opacity="1" /><path clip-path="url(#clip640)" d="M 0 0 M2979.35 1054.78 L2979.35 1073.68 L2973.46 1073.68 L2973.46 1024.48 L2979.35 1024.48 L2979.35 1029.89 Q2981.19 1026.7 2983.99 1025.18 Q2986.83 1023.62 2990.74 1023.62 Q2997.24 1023.62 3001.28 1028.77 Q3005.35 1033.93 3005.35 1042.33 Q3005.35 1050.73 3001.28 1055.89 Q2997.24 1061.05 2990.74 1061.05 Q2986.83 1061.05 2983.99 1059.52 Q2981.19 1057.96 2979.35 1054.78 M2999.27 1042.33 Q2999.27 1035.87 2996.6 1032.21 Q2993.96 1028.52 2989.31 1028.52 Q2984.66 1028.52 2981.99 1032.21 Q2979.35 1035.87 2979.35 1042.33 Q2979.35 1048.79 2981.99 1052.48 Q2984.66 1056.15 2989.31 1056.15 Q2993.96 1056.15 2996.6 1052.48 Q2999.27 1048.79 2999.27 1042.33 Z" fill="#000000" fill-rule="evenodd" fill-opacity="1" /><path clip-path="url(#clip640)" d="M 0 0 M3011.49 1010.6 L3017.35 1010.6 L3017.35 1060.12 L3011.49 1060.12 L3011.49 1010.6 Z" fill="#000000" fill-rule="evenodd" fill-opacity="1" /><path clip-path="url(#clip640)" d="M 0 0 M3053.99 1040.84 L3053.99 1043.7 L3027.06 1043.7 Q3027.44 1049.75 3030.69 1052.93 Q3033.97 1056.08 3039.79 1056.08 Q3043.16 1056.08 3046.32 1055.25 Q3049.5 1054.43 3052.62 1052.77 L3052.62 1058.31 Q3049.47 1059.65 3046.16 1060.35 Q3042.85 1061.05 3039.44 1061.05 Q3030.91 1061.05 3025.91 1056.08 Q3020.95 1051.12 3020.95 1042.65 Q3020.95 1033.9 3025.66 1028.77 Q3030.4 1023.62 3038.42 1023.62 Q3045.61 1023.62 3049.78 1028.26 Q3053.99 1032.88 3053.99 1040.84 M3048.13 1039.12 Q3048.07 1034.31 3045.42 1031.45 Q3042.81 1028.58 3038.49 1028.58 Q3033.58 1028.58 3030.62 1031.35 Q3027.7 1034.12 3027.25 1039.15 L3048.13 1039.12 Z" fill="#000000" fill-rule="evenodd" fill-opacity="1" /><path clip-path="url(#clip640)" d="M 0 0 M3076.65 1024.48 L3082.85 1024.48 L3093.99 1054.39 L3105.13 1024.48 L3111.34 1024.48 L3097.97 1060.12 L3090.02 1060.12 L3076.65 1024.48 Z" fill="#000000" fill-rule="evenodd" fill-opacity="1" /><path clip-path="url(#clip640)" d="M 0 0 M3133.68 1042.2 Q3126.59 1042.2 3123.85 1043.83 Q3121.11 1045.45 3121.11 1049.37 Q3121.11 1052.48 3123.15 1054.33 Q3125.22 1056.15 3128.75 1056.15 Q3133.62 1056.15 3136.55 1052.71 Q3139.51 1049.24 3139.51 1043.51 L3139.51 1042.2 L3133.68 1042.2 M3145.37 1039.79 L3145.37 1060.12 L3139.51 1060.12 L3139.51 1054.71 Q3137.5 1057.96 3134.51 1059.52 Q3131.52 1061.05 3127.19 1061.05 Q3121.72 1061.05 3118.47 1057.99 Q3115.26 1054.9 3115.26 1049.75 Q3115.26 1043.73 3119.27 1040.68 Q3123.31 1037.62 3131.3 1037.62 L3139.51 1037.62 L3139.51 1037.05 Q3139.51 1033.01 3136.84 1030.81 Q3134.19 1028.58 3129.39 1028.58 Q3126.33 1028.58 3123.44 1029.31 Q3120.54 1030.05 3117.87 1031.51 L3117.87 1026.1 Q3121.08 1024.86 3124.1 1024.25 Q3127.13 1023.62 3129.99 1023.62 Q3137.73 1023.62 3141.55 1027.63 Q3145.37 1031.64 3145.37 1039.79 Z" fill="#000000" fill-rule="evenodd" fill-opacity="1" /><path clip-path="url(#clip640)" d="M 0 0 M3151.51 1010.6 L3157.36 1010.6 L3157.36 1060.12 L3151.51 1060.12 L3151.51 1010.6 Z" fill="#000000" fill-rule="evenodd" fill-opacity="1" /><path clip-path="url(#clip640)" d="M 0 0 M3162.9 1046.06 L3162.9 1024.48 L3168.76 1024.48 L3168.76 1045.83 Q3168.76 1050.89 3170.73 1053.44 Q3172.71 1055.95 3176.65 1055.95 Q3181.4 1055.95 3184.13 1052.93 Q3186.9 1049.91 3186.9 1044.69 L3186.9 1024.48 L3192.76 1024.48 L3192.76 1060.12 L3186.9 1060.12 L3186.9 1054.65 Q3184.77 1057.9 3181.94 1059.49 Q3179.14 1061.05 3175.41 1061.05 Q3169.27 1061.05 3166.09 1057.23 Q3162.9 1053.41 3162.9 1046.06 M3177.64 1023.62 L3177.64 1023.62 Z" fill="#000000" fill-rule="evenodd" fill-opacity="1" /><path clip-path="url(#clip640)" d="M 0 0 M3229.39 1040.84 L3229.39 1043.7 L3202.47 1043.7 Q3202.85 1049.75 3206.09 1052.93 Q3209.37 1056.08 3215.2 1056.08 Q3218.57 1056.08 3221.72 1055.25 Q3224.91 1054.43 3228.02 1052.77 L3228.02 1058.31 Q3224.87 1059.65 3221.56 1060.35 Q3218.25 1061.05 3214.85 1061.05 Q3206.32 1061.05 3201.32 1056.08 Q3196.35 1051.12 3196.35 1042.65 Q3196.35 1033.9 3201.07 1028.77 Q3205.81 1023.62 3213.83 1023.62 Q3221.02 1023.62 3225.19 1028.26 Q3229.39 1032.88 3229.39 1040.84 M3223.54 1039.12 Q3223.47 1034.31 3220.83 1031.45 Q3218.22 1028.58 3213.89 1028.58 Q3208.99 1028.58 3206.03 1031.35 Q3203.1 1034.12 3202.66 1039.15 L3223.54 1039.12 Z" fill="#000000" fill-rule="evenodd" fill-opacity="1" /><polyline clip-path="url(#clip643)" style="stroke:#000000; stroke-width:2; stroke-opacity:0.1; fill:none" points="
  2118.74,887.256 3952.76,887.256 
  "/>
<polyline clip-path="url(#clip643)" style="stroke:#000000; stroke-width:2; stroke-opacity:0.1; fill:none" points="
  2118.74,746.713 3952.76,746.713 
  "/>
<polyline clip-path="url(#clip643)" style="stroke:#000000; stroke-width:2; stroke-opacity:0.1; fill:none" points="
  2118.74,606.17 3952.76,606.17 
  "/>
<polyline clip-path="url(#clip643)" style="stroke:#000000; stroke-width:2; stroke-opacity:0.1; fill:none" points="
  2118.74,465.627 3952.76,465.627 
  "/>
<polyline clip-path="url(#clip643)" style="stroke:#000000; stroke-width:2; stroke-opacity:0.1; fill:none" points="
  2118.74,325.083 3952.76,325.083 
  "/>
<polyline clip-path="url(#clip643)" style="stroke:#000000; stroke-width:2; stroke-opacity:0.1; fill:none" points="
  2118.74,184.54 3952.76,184.54 
  "/>
<polyline clip-path="url(#clip640)" style="stroke:#000000; stroke-width:4; stroke-opacity:1; fill:none" points="
  2118.74,911.26 2118.74,62.9921 
  "/>
<polyline clip-path="url(#clip640)" style="stroke:#000000; stroke-width:4; stroke-opacity:1; fill:none" points="
  2118.74,887.256 2140.75,887.256 
  "/>
<polyline clip-path="url(#clip640)" style="stroke:#000000; stroke-width:4; stroke-opacity:1; fill:none" points="
  2118.74,746.713 2140.75,746.713 
  "/>
<polyline clip-path="url(#clip640)" style="stroke:#000000; stroke-width:4; stroke-opacity:1; fill:none" points="
  2118.74,606.17 2140.75,606.17 
  "/>
<polyline clip-path="url(#clip640)" style="stroke:#000000; stroke-width:4; stroke-opacity:1; fill:none" points="
  2118.74,465.627 2140.75,465.627 
  "/>
<polyline clip-path="url(#clip640)" style="stroke:#000000; stroke-width:4; stroke-opacity:1; fill:none" points="
  2118.74,325.083 2140.75,325.083 
  "/>
<polyline clip-path="url(#clip640)" style="stroke:#000000; stroke-width:4; stroke-opacity:1; fill:none" points="
  2118.74,184.54 2140.75,184.54 
  "/>
<path clip-path="url(#clip640)" d="M 0 0 M2009.83 873.055 Q2006.22 873.055 2004.39 876.62 Q2002.58 880.161 2002.58 887.291 Q2002.58 894.397 2004.39 897.962 Q2006.22 901.504 2009.83 901.504 Q2013.46 901.504 2015.27 897.962 Q2017.1 894.397 2017.1 887.291 Q2017.1 880.161 2015.27 876.62 Q2013.46 873.055 2009.83 873.055 M2009.83 869.351 Q2015.64 869.351 2018.69 873.958 Q2021.77 878.541 2021.77 887.291 Q2021.77 896.018 2018.69 900.624 Q2015.64 905.207 2009.83 905.207 Q2004.02 905.207 2000.94 900.624 Q1997.88 896.018 1997.88 887.291 Q1997.88 878.541 2000.94 873.958 Q2004.02 869.351 2009.83 869.351 Z" fill="#000000" fill-rule="evenodd" fill-opacity="1" /><path clip-path="url(#clip640)" d="M 0 0 M2026.84 898.657 L2031.73 898.657 L2031.73 904.536 L2026.84 904.536 L2026.84 898.657 Z" fill="#000000" fill-rule="evenodd" fill-opacity="1" /><path clip-path="url(#clip640)" d="M 0 0 M2046.8 873.055 Q2043.18 873.055 2041.36 876.62 Q2039.55 880.161 2039.55 887.291 Q2039.55 894.397 2041.36 897.962 Q2043.18 901.504 2046.8 901.504 Q2050.43 901.504 2052.24 897.962 Q2054.06 894.397 2054.06 887.291 Q2054.06 880.161 2052.24 876.62 Q2050.43 873.055 2046.8 873.055 M2046.8 869.351 Q2052.61 869.351 2055.66 873.958 Q2058.74 878.541 2058.74 887.291 Q2058.74 896.018 2055.66 900.624 Q2052.61 905.207 2046.8 905.207 Q2040.99 905.207 2037.91 900.624 Q2034.85 896.018 2034.85 887.291 Q2034.85 878.541 2037.91 873.958 Q2040.99 869.351 2046.8 869.351 Z" fill="#000000" fill-rule="evenodd" fill-opacity="1" /><path clip-path="url(#clip640)" d="M 0 0 M2010.82 732.512 Q2007.21 732.512 2005.38 736.076 Q2003.58 739.618 2003.58 746.748 Q2003.58 753.854 2005.38 757.419 Q2007.21 760.961 2010.82 760.961 Q2014.46 760.961 2016.26 757.419 Q2018.09 753.854 2018.09 746.748 Q2018.09 739.618 2016.26 736.076 Q2014.46 732.512 2010.82 732.512 M2010.82 728.808 Q2016.63 728.808 2019.69 733.414 Q2022.77 737.998 2022.77 746.748 Q2022.77 755.474 2019.69 760.081 Q2016.63 764.664 2010.82 764.664 Q2005.01 764.664 2001.93 760.081 Q1998.88 755.474 1998.88 746.748 Q1998.88 737.998 2001.93 733.414 Q2005.01 728.808 2010.82 728.808 Z" fill="#000000" fill-rule="evenodd" fill-opacity="1" /><path clip-path="url(#clip640)" d="M 0 0 M2027.84 758.113 L2032.72 758.113 L2032.72 763.993 L2027.84 763.993 L2027.84 758.113 Z" fill="#000000" fill-rule="evenodd" fill-opacity="1" /><path clip-path="url(#clip640)" d="M 0 0 M2037.84 729.433 L2056.19 729.433 L2056.19 733.368 L2042.12 733.368 L2042.12 741.84 Q2043.14 741.493 2044.16 741.331 Q2045.18 741.146 2046.19 741.146 Q2051.98 741.146 2055.36 744.317 Q2058.74 747.488 2058.74 752.905 Q2058.74 758.484 2055.27 761.586 Q2051.8 764.664 2045.48 764.664 Q2043.3 764.664 2041.03 764.294 Q2038.79 763.924 2036.38 763.183 L2036.38 758.484 Q2038.46 759.618 2040.68 760.174 Q2042.91 760.729 2045.38 760.729 Q2049.39 760.729 2051.73 758.623 Q2054.06 756.516 2054.06 752.905 Q2054.06 749.294 2051.73 747.188 Q2049.39 745.081 2045.38 745.081 Q2043.51 745.081 2041.63 745.498 Q2039.78 745.914 2037.84 746.794 L2037.84 729.433 Z" fill="#000000" fill-rule="evenodd" fill-opacity="1" /><path clip-path="url(#clip640)" d="M 0 0 M2001.87 619.515 L2009.5 619.515 L2009.5 593.149 L2001.19 594.816 L2001.19 590.556 L2009.46 588.89 L2014.13 588.89 L2014.13 619.515 L2021.77 619.515 L2021.77 623.45 L2001.87 623.45 L2001.87 619.515 Z" fill="#000000" fill-rule="evenodd" fill-opacity="1" /><path clip-path="url(#clip640)" d="M 0 0 M2026.84 617.57 L2031.73 617.57 L2031.73 623.45 L2026.84 623.45 L2026.84 617.57 Z" fill="#000000" fill-rule="evenodd" fill-opacity="1" /><path clip-path="url(#clip640)" d="M 0 0 M2046.8 591.968 Q2043.18 591.968 2041.36 595.533 Q2039.55 599.075 2039.55 606.204 Q2039.55 613.311 2041.36 616.876 Q2043.18 620.417 2046.8 620.417 Q2050.43 620.417 2052.24 616.876 Q2054.06 613.311 2054.06 606.204 Q2054.06 599.075 2052.24 595.533 Q2050.43 591.968 2046.8 591.968 M2046.8 588.265 Q2052.61 588.265 2055.66 592.871 Q2058.74 597.455 2058.74 606.204 Q2058.74 614.931 2055.66 619.538 Q2052.61 624.121 2046.8 624.121 Q2040.99 624.121 2037.91 619.538 Q2034.85 614.931 2034.85 606.204 Q2034.85 597.455 2037.91 592.871 Q2040.99 588.265 2046.8 588.265 Z" fill="#000000" fill-rule="evenodd" fill-opacity="1" /><path clip-path="url(#clip640)" d="M 0 0 M2002.86 478.971 L2010.5 478.971 L2010.5 452.606 L2002.19 454.272 L2002.19 450.013 L2010.45 448.347 L2015.13 448.347 L2015.13 478.971 L2022.77 478.971 L2022.77 482.907 L2002.86 482.907 L2002.86 478.971 Z" fill="#000000" fill-rule="evenodd" fill-opacity="1" /><path clip-path="url(#clip640)" d="M 0 0 M2027.84 477.027 L2032.72 477.027 L2032.72 482.907 L2027.84 482.907 L2027.84 477.027 Z" fill="#000000" fill-rule="evenodd" fill-opacity="1" /><path clip-path="url(#clip640)" d="M 0 0 M2037.84 448.347 L2056.19 448.347 L2056.19 452.282 L2042.12 452.282 L2042.12 460.754 Q2043.14 460.407 2044.16 460.245 Q2045.18 460.059 2046.19 460.059 Q2051.98 460.059 2055.36 463.231 Q2058.74 466.402 2058.74 471.819 Q2058.74 477.397 2055.27 480.499 Q2051.8 483.578 2045.48 483.578 Q2043.3 483.578 2041.03 483.207 Q2038.79 482.837 2036.38 482.096 L2036.38 477.397 Q2038.46 478.532 2040.68 479.087 Q2042.91 479.643 2045.38 479.643 Q2049.39 479.643 2051.73 477.536 Q2054.06 475.43 2054.06 471.819 Q2054.06 468.208 2051.73 466.101 Q2049.39 463.995 2045.38 463.995 Q2043.51 463.995 2041.63 464.411 Q2039.78 464.828 2037.84 465.708 L2037.84 448.347 Z" fill="#000000" fill-rule="evenodd" fill-opacity="1" /><path clip-path="url(#clip640)" d="M 0 0 M2005.45 338.428 L2021.77 338.428 L2021.77 342.363 L1999.83 342.363 L1999.83 338.428 Q2002.49 335.674 2007.07 331.044 Q2011.68 326.391 2012.86 325.049 Q2015.11 322.525 2015.99 320.789 Q2016.89 319.03 2016.89 317.34 Q2016.89 314.586 2014.94 312.85 Q2013.02 311.113 2009.92 311.113 Q2007.72 311.113 2005.27 311.877 Q2002.84 312.641 2000.06 314.192 L2000.06 309.47 Q2002.88 308.336 2005.34 307.757 Q2007.79 307.178 2009.83 307.178 Q2015.2 307.178 2018.39 309.863 Q2021.59 312.549 2021.59 317.039 Q2021.59 319.169 2020.78 321.09 Q2019.99 322.988 2017.88 325.581 Q2017.31 326.252 2014.2 329.47 Q2011.1 332.664 2005.45 338.428 Z" fill="#000000" fill-rule="evenodd" fill-opacity="1" /><path clip-path="url(#clip640)" d="M 0 0 M2026.84 336.484 L2031.73 336.484 L2031.73 342.363 L2026.84 342.363 L2026.84 336.484 Z" fill="#000000" fill-rule="evenodd" fill-opacity="1" /><path clip-path="url(#clip640)" d="M 0 0 M2046.8 310.882 Q2043.18 310.882 2041.36 314.447 Q2039.55 317.988 2039.55 325.118 Q2039.55 332.224 2041.36 335.789 Q2043.18 339.331 2046.8 339.331 Q2050.43 339.331 2052.24 335.789 Q2054.06 332.224 2054.06 325.118 Q2054.06 317.988 2052.24 314.447 Q2050.43 310.882 2046.8 310.882 M2046.8 307.178 Q2052.61 307.178 2055.66 311.785 Q2058.74 316.368 2058.74 325.118 Q2058.74 333.845 2055.66 338.451 Q2052.61 343.035 2046.8 343.035 Q2040.99 343.035 2037.91 338.451 Q2034.85 333.845 2034.85 325.118 Q2034.85 316.368 2037.91 311.785 Q2040.99 307.178 2046.8 307.178 Z" fill="#000000" fill-rule="evenodd" fill-opacity="1" /><path clip-path="url(#clip640)" d="M 0 0 M2006.45 197.885 L2022.77 197.885 L2022.77 201.82 L2000.82 201.82 L2000.82 197.885 Q2003.49 195.13 2008.07 190.501 Q2012.68 185.848 2013.86 184.505 Q2016.1 181.982 2016.98 180.246 Q2017.88 178.487 2017.88 176.797 Q2017.88 174.042 2015.94 172.306 Q2014.02 170.57 2010.92 170.57 Q2008.72 170.57 2006.26 171.334 Q2003.83 172.098 2001.06 173.649 L2001.06 168.927 Q2003.88 167.792 2006.33 167.214 Q2008.79 166.635 2010.82 166.635 Q2016.19 166.635 2019.39 169.32 Q2022.58 172.005 2022.58 176.496 Q2022.58 178.626 2021.77 180.547 Q2020.99 182.445 2018.88 185.038 Q2018.3 185.709 2015.2 188.927 Q2012.1 192.121 2006.45 197.885 Z" fill="#000000" fill-rule="evenodd" fill-opacity="1" /><path clip-path="url(#clip640)" d="M 0 0 M2027.84 195.94 L2032.72 195.94 L2032.72 201.82 L2027.84 201.82 L2027.84 195.94 Z" fill="#000000" fill-rule="evenodd" fill-opacity="1" /><path clip-path="url(#clip640)" d="M 0 0 M2037.84 167.26 L2056.19 167.26 L2056.19 171.195 L2042.12 171.195 L2042.12 179.667 Q2043.14 179.32 2044.16 179.158 Q2045.18 178.973 2046.19 178.973 Q2051.98 178.973 2055.36 182.144 Q2058.74 185.316 2058.74 190.732 Q2058.74 196.311 2055.27 199.413 Q2051.8 202.491 2045.48 202.491 Q2043.3 202.491 2041.03 202.121 Q2038.79 201.751 2036.38 201.01 L2036.38 196.311 Q2038.46 197.445 2040.68 198.001 Q2042.91 198.556 2045.38 198.556 Q2049.39 198.556 2051.73 196.45 Q2054.06 194.343 2054.06 190.732 Q2054.06 187.121 2051.73 185.015 Q2049.39 182.908 2045.38 182.908 Q2043.51 182.908 2041.63 183.325 Q2039.78 183.741 2037.84 184.621 L2037.84 167.26 Z" fill="#000000" fill-rule="evenodd" fill-opacity="1" /><path clip-path="url(#clip640)" d="M 0 0 M1921.39 588.579 L1958.34 588.579 L1958.34 580.813 Q1958.34 570.978 1953.89 566.427 Q1949.43 561.843 1939.82 561.843 Q1930.27 561.843 1925.85 566.427 Q1921.39 570.978 1921.39 580.813 L1921.39 588.579 M1916.11 595.009 L1916.11 581.8 Q1916.11 567.986 1921.87 561.525 Q1927.6 555.064 1939.82 555.064 Q1952.11 555.064 1957.87 561.557 Q1963.63 568.05 1963.63 581.8 L1963.63 595.009 L1916.11 595.009 Z" fill="#000000" fill-rule="evenodd" fill-opacity="1" /><path clip-path="url(#clip640)" d="M 0 0 M1944.34 518.429 L1947.2 518.429 L1947.2 545.356 Q1953.25 544.974 1956.43 541.728 Q1959.59 538.449 1959.59 532.625 Q1959.59 529.251 1958.76 526.1 Q1957.93 522.917 1956.28 519.798 L1961.81 519.798 Q1963.15 522.949 1963.85 526.259 Q1964.55 529.569 1964.55 532.975 Q1964.55 541.505 1959.59 546.502 Q1954.62 551.467 1946.15 551.467 Q1937.4 551.467 1932.28 546.757 Q1927.12 542.014 1927.12 533.993 Q1927.12 526.8 1931.77 522.631 Q1936.38 518.429 1944.34 518.429 M1942.62 524.286 Q1937.82 524.349 1934.95 526.991 Q1932.09 529.601 1932.09 533.93 Q1932.09 538.831 1934.86 541.791 Q1937.62 544.72 1942.65 545.165 L1942.62 524.286 Z" fill="#000000" fill-rule="evenodd" fill-opacity="1" /><path clip-path="url(#clip640)" d="M 0 0 M1942.11 482.654 L1963.63 482.654 L1963.63 488.511 L1942.3 488.511 Q1937.24 488.511 1934.73 490.484 Q1932.21 492.457 1932.21 496.404 Q1932.21 501.146 1935.24 503.884 Q1938.26 506.621 1943.48 506.621 L1963.63 506.621 L1963.63 512.509 L1927.98 512.509 L1927.98 506.621 L1933.52 506.621 Q1930.3 504.52 1928.71 501.688 Q1927.12 498.823 1927.12 495.099 Q1927.12 488.956 1930.94 485.805 Q1934.73 482.654 1942.11 482.654 Z" fill="#000000" fill-rule="evenodd" fill-opacity="1" /><path clip-path="url(#clip640)" d="M 0 0 M1929.03 453.786 L1934.57 453.786 Q1933.3 456.268 1932.66 458.942 Q1932.02 461.615 1932.02 464.48 Q1932.02 468.84 1933.36 471.037 Q1934.7 473.201 1937.37 473.201 Q1939.41 473.201 1940.58 471.641 Q1941.73 470.082 1942.78 465.371 L1943.23 463.366 Q1944.56 457.128 1947.01 454.518 Q1949.43 451.876 1953.79 451.876 Q1958.76 451.876 1961.65 455.823 Q1964.55 459.738 1964.55 466.612 Q1964.55 469.477 1963.98 472.596 Q1963.44 475.684 1962.32 479.121 L1956.28 479.121 Q1957.96 475.875 1958.82 472.724 Q1959.65 469.573 1959.65 466.485 Q1959.65 462.347 1958.25 460.119 Q1956.82 457.891 1954.24 457.891 Q1951.85 457.891 1950.58 459.515 Q1949.31 461.106 1948.13 466.549 L1947.65 468.586 Q1946.5 474.029 1944.15 476.448 Q1941.76 478.866 1937.62 478.866 Q1932.6 478.866 1929.86 475.302 Q1927.12 471.737 1927.12 465.18 Q1927.12 461.934 1927.6 459.069 Q1928.08 456.205 1929.03 453.786 Z" fill="#000000" fill-rule="evenodd" fill-opacity="1" /><path clip-path="url(#clip640)" d="M 0 0 M1927.98 445.733 L1927.98 439.877 L1963.63 439.877 L1963.63 445.733 L1927.98 445.733 M1914.1 445.733 L1914.1 439.877 L1921.52 439.877 L1921.52 445.733 L1914.1 445.733 Z" fill="#000000" fill-rule="evenodd" fill-opacity="1" /><path clip-path="url(#clip640)" d="M 0 0 M1917.86 427.941 L1927.98 427.941 L1927.98 415.878 L1932.53 415.878 L1932.53 427.941 L1951.88 427.941 Q1956.24 427.941 1957.49 426.763 Q1958.73 425.554 1958.73 421.893 L1958.73 415.878 L1963.63 415.878 L1963.63 421.893 Q1963.63 428.673 1961.11 431.251 Q1958.57 433.829 1951.88 433.829 L1932.53 433.829 L1932.53 438.126 L1927.98 438.126 L1927.98 433.829 L1917.86 433.829 L1917.86 427.941 Z" fill="#000000" fill-rule="evenodd" fill-opacity="1" /><path clip-path="url(#clip640)" d="M 0 0 M1966.94 394.903 Q1973.3 397.385 1975.25 399.741 Q1977.19 402.096 1977.19 406.043 L1977.19 410.722 L1972.29 410.722 L1972.29 407.284 Q1972.29 404.865 1971.14 403.528 Q1969.99 402.192 1965.73 400.568 L1963.06 399.518 L1927.98 413.936 L1927.98 407.73 L1955.86 396.59 L1927.98 385.45 L1927.98 379.243 L1966.94 394.903 Z" fill="#000000" fill-rule="evenodd" fill-opacity="1" /><path clip-path="url(#clip640)" d="M 0 0 M3048.63 43.8146 L3022.83 43.8146 Q3023.43 55.9268 3026.23 61.0714 Q3029.71 67.3908 3035.75 67.3908 Q3041.82 67.3908 3045.19 61.0309 Q3048.14 55.4407 3048.63 43.8146 M3048.51 36.928 Q3047.37 25.4235 3045.19 21.3726 Q3041.7 14.9721 3035.75 14.9721 Q3029.55 14.9721 3026.27 21.2916 Q3023.68 26.3957 3022.91 36.928 L3048.51 36.928 M3035.75 8.89579 Q3045.47 8.89579 3051.02 17.4837 Q3056.57 26.0311 3056.57 41.1815 Q3056.57 56.2914 3051.02 64.8793 Q3045.47 73.5077 3035.75 73.5077 Q3025.99 73.5077 3020.48 64.8793 Q3014.93 56.2914 3014.93 41.1815 Q3014.93 26.0311 3020.48 17.4837 Q3025.99 8.89579 3035.75 8.89579 Z" fill="#000000" fill-rule="evenodd" fill-opacity="1" /><polyline clip-path="url(#clip643)" style="stroke:#009af9; stroke-width:4; stroke-opacity:1; fill:none" points="
  2170.65,887.252 2179.34,887.252 2188.04,887.251 2196.73,887.248 2205.42,887.243 2214.12,887.234 2222.81,887.22 2231.51,887.198 2240.2,887.165 2248.9,887.117 
  2257.59,887.047 2266.29,886.951 2274.98,886.82 2283.67,886.648 2292.37,886.427 2301.06,886.149 2309.76,885.808 2318.45,885.4 2327.15,884.919 2335.84,884.365 
  2344.54,883.734 2353.23,883.023 2361.93,882.231 2370.62,881.351 2379.31,880.377 2388.01,879.3 2396.7,878.109 2405.4,876.794 2414.09,875.345 2422.79,873.751 
  2431.48,872.003 2440.18,870.095 2448.87,868.019 2457.56,865.766 2466.26,863.325 2474.95,860.685 2483.65,857.835 2492.34,854.767 2501.04,851.478 2509.73,847.977 
  2518.43,844.285 2527.12,840.442 2535.81,836.501 2544.51,832.528 2553.2,828.594 2561.9,824.77 2570.59,821.116 2579.29,817.673 2587.98,814.458 2596.68,811.463 
  2605.37,808.656 2614.07,805.983 2622.76,803.38 2631.45,800.778 2640.15,798.113 2648.84,795.33 2657.54,792.389 2666.23,789.263 2674.93,785.933 2683.62,782.392 
  2692.32,778.632 2701.01,774.646 2709.7,770.424 2718.4,765.949 2727.09,761.2 2735.79,756.147 2744.48,750.755 2753.18,744.977 2761.87,738.759 2770.57,732.038 
  2779.26,724.744 2787.96,716.804 2796.65,708.143 2805.34,698.697 2814.04,688.414 2822.73,677.264 2831.43,665.239 2840.12,652.357 2848.82,638.66 2857.51,624.212 
  2866.21,609.089 2874.9,593.377 2883.59,577.161 2892.29,560.526 2900.98,543.544 2909.68,526.283 2918.37,508.798 2927.07,491.143 2935.76,473.37 2944.46,455.539 
  2953.15,437.723 2961.84,420.017 2970.54,402.537 2979.23,385.425 2987.93,368.841 2996.62,352.953 3005.32,337.919 3014.01,323.869 3022.71,310.887 3031.4,298.988 
  3040.1,288.116 3048.79,278.14 3057.48,268.863 3066.18,260.046 3074.87,251.434 3083.57,242.783 3092.26,233.89 3100.96,224.607 3109.65,214.854 3118.35,204.62 
  3127.04,193.95 3135.73,182.929 3144.43,171.674 3153.12,160.32 3161.82,149.011 3170.51,137.911 3179.21,127.211 3187.9,117.138 3196.6,107.964 3205.29,100.009 
  3213.99,93.6261 3222.68,89.1783 3231.37,86.9997 3240.07,87.3541 3248.76,90.3934 3257.46,96.1257 3266.15,104.4 3274.85,114.914 3283.54,127.24 3292.24,140.869 
  3300.93,155.271 3309.62,169.949 3318.32,184.489 3327.01,198.598 3335.71,212.118 3344.4,225.024 3353.1,237.401 3361.79,249.411 3370.49,261.257 3379.18,273.14 
  3387.87,285.229 3396.57,297.64 3405.26,310.42 3413.96,323.559 3422.65,336.996 3431.35,350.641 3440.04,364.4 3448.74,378.202 3457.43,392.01 3466.13,405.839 
  3474.82,419.758 3483.51,433.878 3492.21,448.342 3500.9,463.302 3509.6,478.897 3518.29,495.228 3526.99,512.345 3535.68,530.233 3544.38,548.811 3553.07,567.935 
  3561.76,587.413 3570.46,607.02 3579.15,626.522 3587.85,645.693 3596.54,664.334 3605.24,682.29 3613.93,699.453 3622.63,715.77 3631.32,731.232 3640.02,745.867 
  3648.71,759.726 3657.4,772.87 3666.1,785.348 3674.79,797.195 3683.49,808.417 3692.18,818.994 3700.88,828.885 3709.57,838.03 3718.27,846.369 3726.96,853.849 
  3735.65,860.436 3744.35,866.12 3753.04,870.919 3761.74,874.881 3770.43,878.075 3779.13,880.59 3787.82,882.52 3796.52,883.966 3805.21,885.022 3813.9,885.773 
  3822.6,886.295 3831.29,886.648 3839.99,886.88 3848.68,887.029 3857.38,887.122 3866.07,887.179 3874.77,887.213 3883.46,887.232 3892.16,887.243 3900.85,887.249 
  
  "/>
</svg>
