<?xml version="1.0" encoding="utf-8"?>
<svg xmlns="http://www.w3.org/2000/svg" xmlns:xlink="http://www.w3.org/1999/xlink" width="1000" height="250" viewBox="0 0 4000 1000">
<defs>
  <clipPath id="clip760">
    <rect x="0" y="0" width="4000" height="1000"/>
  </clipPath>
</defs>
<path clip-path="url(#clip760)" d="
M0 1000 L4000 1000 L4000 0 L0 0  Z
  " fill="#ffffff" fill-rule="evenodd" fill-opacity="1"/>
<defs>
  <clipPath id="clip761">
    <rect x="800" y="0" width="2801" height="1000"/>
  </clipPath>
</defs>
<path clip-path="url(#clip760)" d="
M118.74 911.26 L1952.76 911.26 L1952.76 62.9921 L118.74 62.9921  Z
  " fill="#ffffff" fill-rule="evenodd" fill-opacity="1"/>
<defs>
  <clipPath id="clip762">
    <rect x="118" y="62" width="1835" height="849"/>
  </clipPath>
</defs>
<polyline clip-path="url(#clip762)" style="stroke:#000000; stroke-width:2; stroke-opacity:0.1; fill:none" points="
  168.914,911.26 168.914,62.9921 
  "/>
<polyline clip-path="url(#clip762)" style="stroke:#000000; stroke-width:2; stroke-opacity:0.1; fill:none" points="
  601.898,911.26 601.898,62.9921 
  "/>
<polyline clip-path="url(#clip762)" style="stroke:#000000; stroke-width:2; stroke-opacity:0.1; fill:none" points="
  1034.88,911.26 1034.88,62.9921 
  "/>
<polyline clip-path="url(#clip762)" style="stroke:#000000; stroke-width:2; stroke-opacity:0.1; fill:none" points="
  1467.87,911.26 1467.87,62.9921 
  "/>
<polyline clip-path="url(#clip762)" style="stroke:#000000; stroke-width:2; stroke-opacity:0.1; fill:none" points="
  1900.85,911.26 1900.85,62.9921 
  "/>
<polyline clip-path="url(#clip760)" style="stroke:#000000; stroke-width:4; stroke-opacity:1; fill:none" points="
  118.74,911.26 1952.76,911.26 
  "/>
<polyline clip-path="url(#clip760)" style="stroke:#000000; stroke-width:4; stroke-opacity:1; fill:none" points="
  168.914,911.26 168.914,901.081 
  "/>
<polyline clip-path="url(#clip760)" style="stroke:#000000; stroke-width:4; stroke-opacity:1; fill:none" points="
  601.898,911.26 601.898,901.081 
  "/>
<polyline clip-path="url(#clip760)" style="stroke:#000000; stroke-width:4; stroke-opacity:1; fill:none" points="
  1034.88,911.26 1034.88,901.081 
  "/>
<polyline clip-path="url(#clip760)" style="stroke:#000000; stroke-width:4; stroke-opacity:1; fill:none" points="
  1467.87,911.26 1467.87,901.081 
  "/>
<polyline clip-path="url(#clip760)" style="stroke:#000000; stroke-width:4; stroke-opacity:1; fill:none" points="
  1900.85,911.26 1900.85,901.081 
  "/>
<path clip-path="url(#clip760)" d="M 0 0 M168.914 953.251 Q165.303 953.251 163.475 956.815 Q161.669 960.357 161.669 967.487 Q161.669 974.593 163.475 978.158 Q165.303 981.699 168.914 981.699 Q172.549 981.699 174.354 978.158 Q176.183 974.593 176.183 967.487 Q176.183 960.357 174.354 956.815 Q172.549 953.251 168.914 953.251 M168.914 949.547 Q174.724 949.547 177.78 954.153 Q180.859 958.737 180.859 967.487 Q180.859 976.213 177.78 980.82 Q174.724 985.403 168.914 985.403 Q163.104 985.403 160.025 980.82 Q156.97 976.213 156.97 967.487 Q156.97 958.737 160.025 954.153 Q163.104 949.547 168.914 949.547 Z" fill="#000000" fill-rule="evenodd" fill-opacity="1" /><path clip-path="url(#clip760)" d="M 0 0 M570.035 980.797 L586.354 980.797 L586.354 984.732 L564.41 984.732 L564.41 980.797 Q567.072 978.042 571.655 973.412 Q576.262 968.76 577.442 967.417 Q579.688 964.894 580.567 963.158 Q581.47 961.399 581.47 959.709 Q581.47 956.954 579.526 955.218 Q577.604 953.482 574.503 953.482 Q572.303 953.482 569.85 954.246 Q567.419 955.01 564.641 956.561 L564.641 951.839 Q567.466 950.704 569.919 950.126 Q572.373 949.547 574.41 949.547 Q579.78 949.547 582.975 952.232 Q586.169 954.917 586.169 959.408 Q586.169 961.538 585.359 963.459 Q584.572 965.357 582.465 967.95 Q581.887 968.621 578.785 971.838 Q575.683 975.033 570.035 980.797 Z" fill="#000000" fill-rule="evenodd" fill-opacity="1" /><path clip-path="url(#clip760)" d="M 0 0 M591.47 950.172 L609.826 950.172 L609.826 954.107 L595.752 954.107 L595.752 962.579 Q596.771 962.232 597.789 962.07 Q598.808 961.885 599.826 961.885 Q605.613 961.885 608.993 965.056 Q612.373 968.227 612.373 973.644 Q612.373 979.223 608.9 982.324 Q605.428 985.403 599.109 985.403 Q596.933 985.403 594.664 985.033 Q592.419 984.662 590.012 983.922 L590.012 979.223 Q592.095 980.357 594.317 980.912 Q596.539 981.468 599.016 981.468 Q603.021 981.468 605.359 979.362 Q607.697 977.255 607.697 973.644 Q607.697 970.033 605.359 967.926 Q603.021 965.82 599.016 965.82 Q597.141 965.82 595.266 966.237 Q593.414 966.653 591.47 967.533 L591.47 950.172 Z" fill="#000000" fill-rule="evenodd" fill-opacity="1" /><path clip-path="url(#clip760)" d="M 0 0 M627.442 953.251 Q623.831 953.251 622.002 956.815 Q620.197 960.357 620.197 967.487 Q620.197 974.593 622.002 978.158 Q623.831 981.699 627.442 981.699 Q631.076 981.699 632.882 978.158 Q634.711 974.593 634.711 967.487 Q634.711 960.357 632.882 956.815 Q631.076 953.251 627.442 953.251 M627.442 949.547 Q633.252 949.547 636.308 954.153 Q639.386 958.737 639.386 967.487 Q639.386 976.213 636.308 980.82 Q633.252 985.403 627.442 985.403 Q621.632 985.403 618.553 980.82 Q615.498 976.213 615.498 967.487 Q615.498 958.737 618.553 954.153 Q621.632 949.547 627.442 949.547 Z" fill="#000000" fill-rule="evenodd" fill-opacity="1" /><path clip-path="url(#clip760)" d="M 0 0 M998.146 950.172 L1016.5 950.172 L1016.5 954.107 L1002.43 954.107 L1002.43 962.579 Q1003.45 962.232 1004.47 962.07 Q1005.48 961.885 1006.5 961.885 Q1012.29 961.885 1015.67 965.056 Q1019.05 968.227 1019.05 973.644 Q1019.05 979.223 1015.58 982.324 Q1012.1 985.403 1005.78 985.403 Q1003.61 985.403 1001.34 985.033 Q999.095 984.662 996.688 983.922 L996.688 979.223 Q998.771 980.357 1000.99 980.912 Q1003.22 981.468 1005.69 981.468 Q1009.7 981.468 1012.03 979.362 Q1014.37 977.255 1014.37 973.644 Q1014.37 970.033 1012.03 967.926 Q1009.7 965.82 1005.69 965.82 Q1003.82 965.82 1001.94 966.237 Q1000.09 966.653 998.146 967.533 L998.146 950.172 Z" fill="#000000" fill-rule="evenodd" fill-opacity="1" /><path clip-path="url(#clip760)" d="M 0 0 M1034.12 953.251 Q1030.51 953.251 1028.68 956.815 Q1026.87 960.357 1026.87 967.487 Q1026.87 974.593 1028.68 978.158 Q1030.51 981.699 1034.12 981.699 Q1037.75 981.699 1039.56 978.158 Q1041.39 974.593 1041.39 967.487 Q1041.39 960.357 1039.56 956.815 Q1037.75 953.251 1034.12 953.251 M1034.12 949.547 Q1039.93 949.547 1042.98 954.153 Q1046.06 958.737 1046.06 967.487 Q1046.06 976.213 1042.98 980.82 Q1039.93 985.403 1034.12 985.403 Q1028.31 985.403 1025.23 980.82 Q1022.17 976.213 1022.17 967.487 Q1022.17 958.737 1025.23 954.153 Q1028.31 949.547 1034.12 949.547 Z" fill="#000000" fill-rule="evenodd" fill-opacity="1" /><path clip-path="url(#clip760)" d="M 0 0 M1061.13 953.251 Q1057.52 953.251 1055.69 956.815 Q1053.89 960.357 1053.89 967.487 Q1053.89 974.593 1055.69 978.158 Q1057.52 981.699 1061.13 981.699 Q1064.77 981.699 1066.57 978.158 Q1068.4 974.593 1068.4 967.487 Q1068.4 960.357 1066.57 956.815 Q1064.77 953.251 1061.13 953.251 M1061.13 949.547 Q1066.94 949.547 1070 954.153 Q1073.08 958.737 1073.08 967.487 Q1073.08 976.213 1070 980.82 Q1066.94 985.403 1061.13 985.403 Q1055.32 985.403 1052.24 980.82 Q1049.19 976.213 1049.19 967.487 Q1049.19 958.737 1052.24 954.153 Q1055.32 949.547 1061.13 949.547 Z" fill="#000000" fill-rule="evenodd" fill-opacity="1" /><path clip-path="url(#clip760)" d="M 0 0 M1430.24 950.172 L1452.46 950.172 L1452.46 952.163 L1439.91 984.732 L1435.03 984.732 L1446.84 954.107 L1430.24 954.107 L1430.24 950.172 Z" fill="#000000" fill-rule="evenodd" fill-opacity="1" /><path clip-path="url(#clip760)" d="M 0 0 M1457.58 950.172 L1475.93 950.172 L1475.93 954.107 L1461.86 954.107 L1461.86 962.579 Q1462.88 962.232 1463.9 962.07 Q1464.91 961.885 1465.93 961.885 Q1471.72 961.885 1475.1 965.056 Q1478.48 968.227 1478.48 973.644 Q1478.48 979.223 1475.01 982.324 Q1471.53 985.403 1465.22 985.403 Q1463.04 985.403 1460.77 985.033 Q1458.53 984.662 1456.12 983.922 L1456.12 979.223 Q1458.2 980.357 1460.42 980.912 Q1462.65 981.468 1465.12 981.468 Q1469.13 981.468 1471.47 979.362 Q1473.8 977.255 1473.8 973.644 Q1473.8 970.033 1471.47 967.926 Q1469.13 965.82 1465.12 965.82 Q1463.25 965.82 1461.37 966.237 Q1459.52 966.653 1457.58 967.533 L1457.58 950.172 Z" fill="#000000" fill-rule="evenodd" fill-opacity="1" /><path clip-path="url(#clip760)" d="M 0 0 M1493.55 953.251 Q1489.94 953.251 1488.11 956.815 Q1486.3 960.357 1486.3 967.487 Q1486.3 974.593 1488.11 978.158 Q1489.94 981.699 1493.55 981.699 Q1497.18 981.699 1498.99 978.158 Q1500.82 974.593 1500.82 967.487 Q1500.82 960.357 1498.99 956.815 Q1497.18 953.251 1493.55 953.251 M1493.55 949.547 Q1499.36 949.547 1502.41 954.153 Q1505.49 958.737 1505.49 967.487 Q1505.49 976.213 1502.41 980.82 Q1499.36 985.403 1493.55 985.403 Q1487.74 985.403 1484.66 980.82 Q1481.6 976.213 1481.6 967.487 Q1481.6 958.737 1484.66 954.153 Q1487.74 949.547 1493.55 949.547 Z" fill="#000000" fill-rule="evenodd" fill-opacity="1" /><path clip-path="url(#clip760)" d="M 0 0 M1850.71 980.797 L1858.35 980.797 L1858.35 954.431 L1850.04 956.098 L1850.04 951.839 L1858.3 950.172 L1862.98 950.172 L1862.98 980.797 L1870.62 980.797 L1870.62 984.732 L1850.71 984.732 L1850.71 980.797 Z" fill="#000000" fill-rule="evenodd" fill-opacity="1" /><path clip-path="url(#clip760)" d="M 0 0 M1885.69 953.251 Q1882.08 953.251 1880.25 956.815 Q1878.44 960.357 1878.44 967.487 Q1878.44 974.593 1880.25 978.158 Q1882.08 981.699 1885.69 981.699 Q1889.32 981.699 1891.13 978.158 Q1892.96 974.593 1892.96 967.487 Q1892.96 960.357 1891.13 956.815 Q1889.32 953.251 1885.69 953.251 M1885.69 949.547 Q1891.5 949.547 1894.55 954.153 Q1897.63 958.737 1897.63 967.487 Q1897.63 976.213 1894.55 980.82 Q1891.5 985.403 1885.69 985.403 Q1879.88 985.403 1876.8 980.82 Q1873.74 976.213 1873.74 967.487 Q1873.74 958.737 1876.8 954.153 Q1879.88 949.547 1885.69 949.547 Z" fill="#000000" fill-rule="evenodd" fill-opacity="1" /><path clip-path="url(#clip760)" d="M 0 0 M1912.7 953.251 Q1909.09 953.251 1907.26 956.815 Q1905.46 960.357 1905.46 967.487 Q1905.46 974.593 1907.26 978.158 Q1909.09 981.699 1912.7 981.699 Q1916.34 981.699 1918.14 978.158 Q1919.97 974.593 1919.97 967.487 Q1919.97 960.357 1918.14 956.815 Q1916.34 953.251 1912.7 953.251 M1912.7 949.547 Q1918.51 949.547 1921.57 954.153 Q1924.65 958.737 1924.65 967.487 Q1924.65 976.213 1921.57 980.82 Q1918.51 985.403 1912.7 985.403 Q1906.89 985.403 1903.81 980.82 Q1900.76 976.213 1900.76 967.487 Q1900.76 958.737 1903.81 954.153 Q1906.89 949.547 1912.7 949.547 Z" fill="#000000" fill-rule="evenodd" fill-opacity="1" /><path clip-path="url(#clip760)" d="M 0 0 M1939.72 953.251 Q1936.1 953.251 1934.28 956.815 Q1932.47 960.357 1932.47 967.487 Q1932.47 974.593 1934.28 978.158 Q1936.1 981.699 1939.72 981.699 Q1943.35 981.699 1945.16 978.158 Q1946.98 974.593 1946.98 967.487 Q1946.98 960.357 1945.16 956.815 Q1943.35 953.251 1939.72 953.251 M1939.72 949.547 Q1945.53 949.547 1948.58 954.153 Q1951.66 958.737 1951.66 967.487 Q1951.66 976.213 1948.58 980.82 Q1945.53 985.403 1939.72 985.403 Q1933.91 985.403 1930.83 980.82 Q1927.77 976.213 1927.77 967.487 Q1927.77 958.737 1930.83 954.153 Q1933.91 949.547 1939.72 949.547 Z" fill="#000000" fill-rule="evenodd" fill-opacity="1" /><path clip-path="url(#clip760)" d="M 0 0 M917.76 1012.6 L924.189 1012.6 L924.189 1060.12 L917.76 1060.12 L917.76 1012.6 Z" fill="#000000" fill-rule="evenodd" fill-opacity="1" /><path clip-path="url(#clip760)" d="M 0 0 M936.125 1014.35 L936.125 1024.48 L948.188 1024.48 L948.188 1029.03 L936.125 1029.03 L936.125 1048.38 Q936.125 1052.74 937.302 1053.98 Q938.512 1055.22 942.172 1055.22 L948.188 1055.22 L948.188 1060.12 L942.172 1060.12 Q935.393 1060.12 932.815 1057.61 Q930.236 1055.06 930.236 1048.38 L930.236 1029.03 L925.94 1029.03 L925.94 1024.48 L930.236 1024.48 L930.236 1014.35 L936.125 1014.35 Z" fill="#000000" fill-rule="evenodd" fill-opacity="1" /><path clip-path="url(#clip760)" d="M 0 0 M984.822 1040.84 L984.822 1043.7 L957.895 1043.7 Q958.277 1049.75 961.524 1052.93 Q964.802 1056.08 970.627 1056.08 Q974.001 1056.08 977.152 1055.25 Q980.335 1054.43 983.454 1052.77 L983.454 1058.31 Q980.303 1059.65 976.993 1060.35 Q973.682 1061.05 970.277 1061.05 Q961.747 1061.05 956.75 1056.08 Q951.784 1051.12 951.784 1042.65 Q951.784 1033.9 956.495 1028.77 Q961.237 1023.62 969.258 1023.62 Q976.451 1023.62 980.621 1028.26 Q984.822 1032.88 984.822 1040.84 M978.966 1039.12 Q978.902 1034.31 976.261 1031.45 Q973.651 1028.58 969.322 1028.58 Q964.42 1028.58 961.46 1031.35 Q958.532 1034.12 958.086 1039.15 L978.966 1039.12 Z" fill="#000000" fill-rule="evenodd" fill-opacity="1" /><path clip-path="url(#clip760)" d="M 0 0 M1011.62 1029.95 Q1010.64 1029.38 1009.46 1029.12 Q1008.31 1028.84 1006.91 1028.84 Q1001.95 1028.84 999.273 1032.08 Q996.631 1035.3 996.631 1041.35 L996.631 1060.12 L990.742 1060.12 L990.742 1024.48 L996.631 1024.48 L996.631 1030.01 Q998.477 1026.77 1001.44 1025.21 Q1004.4 1023.62 1008.63 1023.62 Q1009.23 1023.62 1009.97 1023.71 Q1010.7 1023.78 1011.59 1023.93 L1011.62 1029.95 Z" fill="#000000" fill-rule="evenodd" fill-opacity="1" /><path clip-path="url(#clip760)" d="M 0 0 M1033.97 1042.2 Q1026.87 1042.2 1024.13 1043.83 Q1021.39 1045.45 1021.39 1049.37 Q1021.39 1052.48 1023.43 1054.33 Q1025.5 1056.15 1029.03 1056.15 Q1033.9 1056.15 1036.83 1052.71 Q1039.79 1049.24 1039.79 1043.51 L1039.79 1042.2 L1033.97 1042.2 M1045.65 1039.79 L1045.65 1060.12 L1039.79 1060.12 L1039.79 1054.71 Q1037.79 1057.96 1034.79 1059.52 Q1031.8 1061.05 1027.47 1061.05 Q1022 1061.05 1018.75 1057.99 Q1015.54 1054.9 1015.54 1049.75 Q1015.54 1043.73 1019.55 1040.68 Q1023.59 1037.62 1031.58 1037.62 L1039.79 1037.62 L1039.79 1037.05 Q1039.79 1033.01 1037.12 1030.81 Q1034.47 1028.58 1029.67 1028.58 Q1026.61 1028.58 1023.72 1029.31 Q1020.82 1030.05 1018.15 1031.51 L1018.15 1026.1 Q1021.36 1024.86 1024.39 1024.25 Q1027.41 1023.62 1030.27 1023.62 Q1038.01 1023.62 1041.83 1027.63 Q1045.65 1031.64 1045.65 1039.79 Z" fill="#000000" fill-rule="evenodd" fill-opacity="1" /><path clip-path="url(#clip760)" d="M 0 0 M1057.58 1014.35 L1057.58 1024.48 L1069.65 1024.48 L1069.65 1029.03 L1057.58 1029.03 L1057.58 1048.38 Q1057.58 1052.74 1058.76 1053.98 Q1059.97 1055.22 1063.63 1055.22 L1069.65 1055.22 L1069.65 1060.12 L1063.63 1060.12 Q1056.85 1060.12 1054.27 1057.61 Q1051.69 1055.06 1051.69 1048.38 L1051.69 1029.03 L1047.4 1029.03 L1047.4 1024.48 L1051.69 1024.48 L1051.69 1014.35 L1057.58 1014.35 Z" fill="#000000" fill-rule="evenodd" fill-opacity="1" /><path clip-path="url(#clip760)" d="M 0 0 M1075.79 1024.48 L1081.64 1024.48 L1081.64 1060.12 L1075.79 1060.12 L1075.79 1024.48 M1075.79 1010.6 L1081.64 1010.6 L1081.64 1018.01 L1075.79 1018.01 L1075.79 1010.6 Z" fill="#000000" fill-rule="evenodd" fill-opacity="1" /><path clip-path="url(#clip760)" d="M 0 0 M1101.6 1028.58 Q1096.89 1028.58 1094.15 1032.27 Q1091.42 1035.93 1091.42 1042.33 Q1091.42 1048.73 1094.12 1052.42 Q1096.86 1056.08 1101.6 1056.08 Q1106.28 1056.08 1109.02 1052.39 Q1111.75 1048.7 1111.75 1042.33 Q1111.75 1036 1109.02 1032.31 Q1106.28 1028.58 1101.6 1028.58 M1101.6 1023.62 Q1109.24 1023.62 1113.6 1028.58 Q1117.96 1033.55 1117.96 1042.33 Q1117.96 1051.08 1113.6 1056.08 Q1109.24 1061.05 1101.6 1061.05 Q1093.93 1061.05 1089.57 1056.08 Q1085.24 1051.08 1085.24 1042.33 Q1085.24 1033.55 1089.57 1028.58 Q1093.93 1023.62 1101.6 1023.62 Z" fill="#000000" fill-rule="evenodd" fill-opacity="1" /><path clip-path="url(#clip760)" d="M 0 0 M1153.74 1038.61 L1153.74 1060.12 L1147.88 1060.12 L1147.88 1038.8 Q1147.88 1033.74 1145.91 1031.22 Q1143.93 1028.71 1139.99 1028.71 Q1135.24 1028.71 1132.51 1031.73 Q1129.77 1034.76 1129.77 1039.98 L1129.77 1060.12 L1123.88 1060.12 L1123.88 1024.48 L1129.77 1024.48 L1129.77 1030.01 Q1131.87 1026.8 1134.7 1025.21 Q1137.57 1023.62 1141.29 1023.62 Q1147.43 1023.62 1150.59 1027.44 Q1153.74 1031.22 1153.74 1038.61 Z" fill="#000000" fill-rule="evenodd" fill-opacity="1" /><polyline clip-path="url(#clip762)" style="stroke:#000000; stroke-width:2; stroke-opacity:0.1; fill:none" points="
  118.74,884.539 1952.76,884.539 
  "/>
<polyline clip-path="url(#clip762)" style="stroke:#000000; stroke-width:2; stroke-opacity:0.1; fill:none" points="
  118.74,669.148 1952.76,669.148 
  "/>
<polyline clip-path="url(#clip762)" style="stroke:#000000; stroke-width:2; stroke-opacity:0.1; fill:none" points="
  118.74,453.756 1952.76,453.756 
  "/>
<polyline clip-path="url(#clip762)" style="stroke:#000000; stroke-width:2; stroke-opacity:0.1; fill:none" points="
  118.74,238.364 1952.76,238.364 
  "/>
<polyline clip-path="url(#clip760)" style="stroke:#000000; stroke-width:4; stroke-opacity:1; fill:none" points="
  118.74,911.26 118.74,62.9921 
  "/>
<polyline clip-path="url(#clip760)" style="stroke:#000000; stroke-width:4; stroke-opacity:1; fill:none" points="
  118.74,884.539 140.748,884.539 
  "/>
<polyline clip-path="url(#clip760)" style="stroke:#000000; stroke-width:4; stroke-opacity:1; fill:none" points="
  118.74,669.148 140.748,669.148 
  "/>
<polyline clip-path="url(#clip760)" style="stroke:#000000; stroke-width:4; stroke-opacity:1; fill:none" points="
  118.74,453.756 140.748,453.756 
  "/>
<polyline clip-path="url(#clip760)" style="stroke:#000000; stroke-width:4; stroke-opacity:1; fill:none" points="
  118.74,238.364 140.748,238.364 
  "/>
<path clip-path="url(#clip760)" d="M 0 0 M11.4256 870.338 Q7.8145 870.338 5.98581 873.903 Q4.18026 877.445 4.18026 884.574 Q4.18026 891.681 5.98581 895.245 Q7.8145 898.787 11.4256 898.787 Q15.0598 898.787 16.8654 895.245 Q18.6941 891.681 18.6941 884.574 Q18.6941 877.445 16.8654 873.903 Q15.0598 870.338 11.4256 870.338 M11.4256 866.634 Q17.2358 866.634 20.2913 871.241 Q23.37 875.824 23.37 884.574 Q23.37 893.301 20.2913 897.907 Q17.2358 902.491 11.4256 902.491 Q5.61544 902.491 2.53675 897.907 Q-0.518784 893.301 -0.518784 884.574 Q-0.518784 875.824 2.53675 871.241 Q5.61544 866.634 11.4256 866.634 Z" fill="#000000" fill-rule="evenodd" fill-opacity="1" /><path clip-path="url(#clip760)" d="M 0 0 M28.4394 895.94 L33.3236 895.94 L33.3236 901.819 L28.4394 901.819 L28.4394 895.94 Z" fill="#000000" fill-rule="evenodd" fill-opacity="1" /><path clip-path="url(#clip760)" d="M 0 0 M42.4208 897.884 L58.7402 897.884 L58.7402 901.819 L36.7958 901.819 L36.7958 897.884 Q39.4579 895.13 44.0412 890.5 Q48.6476 885.847 49.8282 884.505 Q52.0735 881.982 52.9532 880.245 Q53.8559 878.486 53.8559 876.796 Q53.8559 874.042 51.9115 872.306 Q49.9902 870.57 46.8884 870.57 Q44.6893 870.57 42.2356 871.334 Q39.8051 872.097 37.0273 873.648 L37.0273 868.926 Q39.8514 867.792 42.3051 867.213 Q44.7588 866.634 46.7958 866.634 Q52.1661 866.634 55.3605 869.32 Q58.555 872.005 58.555 876.496 Q58.555 878.625 57.7448 880.546 Q56.9578 882.445 54.8513 885.037 Q54.2726 885.708 51.1708 888.926 Q48.0689 892.12 42.4208 897.884 Z" fill="#000000" fill-rule="evenodd" fill-opacity="1" /><path clip-path="url(#clip760)" d="M 0 0 M9.34227 654.946 Q5.73118 654.946 3.90249 658.511 Q2.09694 662.053 2.09694 669.182 Q2.09694 676.289 3.90249 679.854 Q5.73118 683.395 9.34227 683.395 Q12.9765 683.395 14.7821 679.854 Q16.6108 676.289 16.6108 669.182 Q16.6108 662.053 14.7821 658.511 Q12.9765 654.946 9.34227 654.946 M9.34227 651.243 Q15.1524 651.243 18.208 655.849 Q21.2867 660.432 21.2867 669.182 Q21.2867 677.909 18.208 682.516 Q15.1524 687.099 9.34227 687.099 Q3.53212 687.099 0.453433 682.516 Q-2.60211 677.909 -2.60211 669.182 Q-2.60211 660.432 0.453433 655.849 Q3.53212 651.243 9.34227 651.243 Z" fill="#000000" fill-rule="evenodd" fill-opacity="1" /><path clip-path="url(#clip760)" d="M 0 0 M26.3561 680.548 L31.2403 680.548 L31.2403 686.428 L26.3561 686.428 L26.3561 680.548 Z" fill="#000000" fill-rule="evenodd" fill-opacity="1" /><path clip-path="url(#clip760)" d="M 0 0 M49.1569 655.942 L37.3514 674.391 L49.1569 674.391 L49.1569 655.942 M47.93 651.868 L53.8096 651.868 L53.8096 674.391 L58.7402 674.391 L58.7402 678.28 L53.8096 678.28 L53.8096 686.428 L49.1569 686.428 L49.1569 678.28 L33.5551 678.28 L33.5551 673.766 L47.93 651.868 Z" fill="#000000" fill-rule="evenodd" fill-opacity="1" /><path clip-path="url(#clip760)" d="M 0 0 M9.66635 439.555 Q6.05525 439.555 4.22656 443.119 Q2.42101 446.661 2.42101 453.791 Q2.42101 460.897 4.22656 464.462 Q6.05525 468.003 9.66635 468.003 Q13.3006 468.003 15.1061 464.462 Q16.9348 460.897 16.9348 453.791 Q16.9348 446.661 15.1061 443.119 Q13.3006 439.555 9.66635 439.555 M9.66635 435.851 Q15.4765 435.851 18.532 440.457 Q21.6107 445.041 21.6107 453.791 Q21.6107 462.517 18.532 467.124 Q15.4765 471.707 9.66635 471.707 Q3.85619 471.707 0.777505 467.124 Q-2.27803 462.517 -2.27803 453.791 Q-2.27803 445.041 0.777505 440.457 Q3.85619 435.851 9.66635 435.851 Z" fill="#000000" fill-rule="evenodd" fill-opacity="1" /><path clip-path="url(#clip760)" d="M 0 0 M26.6801 465.156 L31.5644 465.156 L31.5644 471.036 L26.6801 471.036 L26.6801 465.156 Z" fill="#000000" fill-rule="evenodd" fill-opacity="1" /><path clip-path="url(#clip760)" d="M 0 0 M47.2124 451.892 Q44.0643 451.892 42.2125 454.045 Q40.3838 456.198 40.3838 459.948 Q40.3838 463.675 42.2125 465.851 Q44.0643 468.003 47.2124 468.003 Q50.3606 468.003 52.1893 465.851 Q54.0411 463.675 54.0411 459.948 Q54.0411 456.198 52.1893 454.045 Q50.3606 451.892 47.2124 451.892 M56.4948 437.24 L56.4948 441.499 Q54.7355 440.666 52.93 440.226 Q51.1476 439.786 49.3884 439.786 Q44.7588 439.786 42.3051 442.911 Q39.8745 446.036 39.5273 452.355 Q40.893 450.342 42.9532 449.277 Q45.0134 448.189 47.4902 448.189 Q52.6985 448.189 55.7078 451.36 Q58.7402 454.508 58.7402 459.948 Q58.7402 465.272 55.592 468.49 Q52.4439 471.707 47.2124 471.707 Q41.2171 471.707 38.0458 467.124 Q34.8745 462.517 34.8745 453.791 Q34.8745 445.596 38.7634 440.735 Q42.6523 435.851 49.2032 435.851 Q50.9624 435.851 52.7448 436.198 Q54.5504 436.545 56.4948 437.24 Z" fill="#000000" fill-rule="evenodd" fill-opacity="1" /><path clip-path="url(#clip760)" d="M 0 0 M9.92097 224.163 Q6.30988 224.163 4.48119 227.728 Q2.67564 231.269 2.67564 238.399 Q2.67564 245.505 4.48119 249.07 Q6.30988 252.612 9.92097 252.612 Q13.5552 252.612 15.3608 249.07 Q17.1895 245.505 17.1895 238.399 Q17.1895 231.269 15.3608 227.728 Q13.5552 224.163 9.92097 224.163 M9.92097 220.459 Q15.7311 220.459 18.7867 225.066 Q21.8654 229.649 21.8654 238.399 Q21.8654 247.126 18.7867 251.732 Q15.7311 256.315 9.92097 256.315 Q4.11082 256.315 1.03213 251.732 Q-2.02341 247.126 -2.02341 238.399 Q-2.02341 229.649 1.03213 225.066 Q4.11082 220.459 9.92097 220.459 Z" fill="#000000" fill-rule="evenodd" fill-opacity="1" /><path clip-path="url(#clip760)" d="M 0 0 M26.9348 249.765 L31.819 249.765 L31.819 255.644 L26.9348 255.644 L26.9348 249.765 Z" fill="#000000" fill-rule="evenodd" fill-opacity="1" /><path clip-path="url(#clip760)" d="M 0 0 M46.8884 239.232 Q43.5551 239.232 41.6338 241.015 Q39.7356 242.797 39.7356 245.922 Q39.7356 249.047 41.6338 250.829 Q43.5551 252.612 46.8884 252.612 Q50.2217 252.612 52.143 250.829 Q54.0643 249.024 54.0643 245.922 Q54.0643 242.797 52.143 241.015 Q50.2448 239.232 46.8884 239.232 M42.2125 237.241 Q39.2032 236.501 37.5134 234.441 Q35.8468 232.38 35.8468 229.417 Q35.8468 225.274 38.7866 222.867 Q41.7495 220.459 46.8884 220.459 Q52.0504 220.459 54.9902 222.867 Q57.93 225.274 57.93 229.417 Q57.93 232.38 56.2402 234.441 Q54.5735 236.501 51.5874 237.241 Q54.967 238.028 56.842 240.32 Q58.7402 242.612 58.7402 245.922 Q58.7402 250.945 55.6615 253.63 Q52.6059 256.315 46.8884 256.315 Q41.1708 256.315 38.0921 253.63 Q35.0366 250.945 35.0366 245.922 Q35.0366 242.612 36.9347 240.32 Q38.8329 238.028 42.2125 237.241 M40.4995 229.857 Q40.4995 232.542 42.1662 234.047 Q43.856 235.552 46.8884 235.552 Q49.8976 235.552 51.5874 234.047 Q53.3004 232.542 53.3004 229.857 Q53.3004 227.172 51.5874 225.667 Q49.8976 224.163 46.8884 224.163 Q43.856 224.163 42.1662 225.667 Q40.4995 227.172 40.4995 229.857 Z" fill="#000000" fill-rule="evenodd" fill-opacity="1" /><path clip-path="url(#clip760)" d="M 0 0 M-82.8185 650.184 L-76.5483 650.184 Q-78.2989 653.844 -79.1582 657.09 Q-80.0176 660.337 -80.0176 663.361 Q-80.0176 668.612 -77.9806 671.477 Q-75.9435 674.31 -72.1878 674.31 Q-69.0368 674.31 -67.4135 672.432 Q-65.8221 670.522 -64.8354 665.238 L-64.0397 661.355 Q-62.671 654.162 -59.2017 650.756 Q-55.7643 647.319 -49.9715 647.319 Q-43.0647 647.319 -39.4999 651.966 Q-35.9351 656.581 -35.9351 665.525 Q-35.9351 668.899 -36.699 672.718 Q-37.4628 676.506 -38.9588 680.58 L-45.5791 680.58 Q-43.383 676.665 -42.269 672.909 Q-41.155 669.153 -41.155 665.525 Q-41.155 660.019 -43.3193 657.027 Q-45.4836 654.035 -49.494 654.035 Q-52.9952 654.035 -54.9685 656.199 Q-56.9419 658.332 -57.9286 663.233 L-58.6925 667.148 Q-60.1248 674.341 -63.1803 677.556 Q-66.2358 680.771 -71.6785 680.771 Q-77.9806 680.771 -81.609 676.347 Q-85.2375 671.891 -85.2375 664.093 Q-85.2375 660.751 -84.6327 657.281 Q-84.028 653.812 -82.8185 650.184 Z" fill="#000000" fill-rule="evenodd" fill-opacity="1" /><path clip-path="url(#clip760)" d="M 0 0 M-54.7776 624.975 Q-54.7776 632.073 -53.1543 634.81 Q-51.5311 637.548 -47.6162 637.548 Q-44.497 637.548 -42.6509 635.511 Q-40.8367 633.442 -40.8367 629.909 Q-40.8367 625.039 -44.2742 622.111 Q-47.7435 619.151 -53.4726 619.151 L-54.7776 619.151 L-54.7776 624.975 M-57.1965 613.294 L-36.8581 613.294 L-36.8581 619.151 L-42.269 619.151 Q-39.0224 621.156 -37.4628 624.148 Q-35.9351 627.14 -35.9351 631.468 Q-35.9351 636.943 -38.9906 640.189 Q-42.078 643.404 -47.2342 643.404 Q-53.2498 643.404 -56.3053 639.394 Q-59.3609 635.351 -59.3609 627.363 L-59.3609 619.151 L-59.9338 619.151 Q-63.976 619.151 -66.1722 621.824 Q-68.4002 624.466 -68.4002 629.272 Q-68.4002 632.328 -67.6681 635.224 Q-66.9361 638.121 -65.472 640.794 L-70.8828 640.794 Q-72.1241 637.579 -72.7289 634.556 Q-73.3654 631.532 -73.3654 628.667 Q-73.3654 620.933 -69.355 617.114 Q-65.3446 613.294 -57.1965 613.294 Z" fill="#000000" fill-rule="evenodd" fill-opacity="1" /><path clip-path="url(#clip760)" d="M 0 0 M-65.6629 579.397 Q-69.6097 577.201 -71.4876 574.145 Q-73.3654 571.09 -73.3654 566.952 Q-73.3654 561.382 -69.4505 558.358 Q-65.5674 555.335 -58.3742 555.335 L-36.8581 555.335 L-36.8581 561.223 L-58.1832 561.223 Q-63.3076 561.223 -65.7902 563.037 Q-68.2729 564.851 -68.2729 568.575 Q-68.2729 573.127 -65.2492 575.768 Q-62.2254 578.41 -57.0056 578.41 L-36.8581 578.41 L-36.8581 584.298 L-58.1832 584.298 Q-63.3394 584.298 -65.7902 586.113 Q-68.2729 587.927 -68.2729 591.715 Q-68.2729 596.202 -65.2173 598.844 Q-62.1936 601.486 -57.0056 601.486 L-36.8581 601.486 L-36.8581 607.374 L-72.5061 607.374 L-72.5061 601.486 L-66.9679 601.486 Q-70.2462 599.481 -71.8058 596.68 Q-73.3654 593.879 -73.3654 590.028 Q-73.3654 586.145 -71.3921 583.439 Q-69.4187 580.702 -65.6629 579.397 Z" fill="#000000" fill-rule="evenodd" fill-opacity="1" /><path clip-path="url(#clip760)" d="M 0 0 M-42.2053 543.526 L-23.2992 543.526 L-23.2992 549.414 L-72.5061 549.414 L-72.5061 543.526 L-67.0952 543.526 Q-70.2781 541.68 -71.8058 538.879 Q-73.3654 536.046 -73.3654 532.132 Q-73.3654 525.639 -68.2092 521.596 Q-63.053 517.522 -54.6503 517.522 Q-46.2475 517.522 -41.0913 521.596 Q-35.9351 525.639 -35.9351 532.132 Q-35.9351 536.046 -37.4628 538.879 Q-39.0224 541.68 -42.2053 543.526 M-54.6503 523.601 Q-61.1114 523.601 -64.7717 526.275 Q-68.4638 528.917 -68.4638 533.564 Q-68.4638 538.211 -64.7717 540.884 Q-61.1114 543.526 -54.6503 543.526 Q-48.1891 543.526 -44.497 540.884 Q-40.8367 538.211 -40.8367 533.564 Q-40.8367 528.917 -44.497 526.275 Q-48.1891 523.601 -54.6503 523.601 Z" fill="#000000" fill-rule="evenodd" fill-opacity="1" /><path clip-path="url(#clip760)" d="M 0 0 M-86.3833 511.379 L-86.3833 505.523 L-36.8581 505.523 L-36.8581 511.379 L-86.3833 511.379 Z" fill="#000000" fill-rule="evenodd" fill-opacity="1" /><path clip-path="url(#clip760)" d="M 0 0 M-56.1462 468.888 L-53.2816 468.888 L-53.2816 495.815 Q-47.2342 495.433 -44.0514 492.187 Q-40.9003 488.908 -40.9003 483.084 Q-40.9003 479.71 -41.7279 476.559 Q-42.5554 473.376 -44.2105 470.257 L-38.6723 470.257 Q-37.3355 473.408 -36.6353 476.718 Q-35.9351 480.028 -35.9351 483.434 Q-35.9351 491.964 -40.9003 496.961 Q-45.8656 501.926 -54.332 501.926 Q-63.0848 501.926 -68.2092 497.216 Q-73.3654 492.473 -73.3654 484.452 Q-73.3654 477.259 -68.7185 473.09 Q-64.1033 468.888 -56.1462 468.888 M-57.8649 474.745 Q-62.671 474.808 -65.5356 477.45 Q-68.4002 480.06 -68.4002 484.389 Q-68.4002 489.29 -65.6311 492.25 Q-62.862 495.179 -57.8331 495.624 L-57.8649 474.745 Z" fill="#000000" fill-rule="evenodd" fill-opacity="1" /><path clip-path="url(#clip760)" d="M 0 0 M-72.5061 446.226 L-72.5061 440.02 L-42.5872 428.88 L-72.5061 417.74 L-72.5061 411.533 L-36.8581 424.901 L-36.8581 432.858 L-72.5061 446.226 Z" fill="#000000" fill-rule="evenodd" fill-opacity="1" /><path clip-path="url(#clip760)" d="M 0 0 M-54.7776 389.19 Q-54.7776 396.287 -53.1543 399.025 Q-51.5311 401.762 -47.6162 401.762 Q-44.497 401.762 -42.6509 399.725 Q-40.8367 397.656 -40.8367 394.123 Q-40.8367 389.253 -44.2742 386.325 Q-47.7435 383.365 -53.4726 383.365 L-54.7776 383.365 L-54.7776 389.19 M-57.1965 377.509 L-36.8581 377.509 L-36.8581 383.365 L-42.269 383.365 Q-39.0224 385.37 -37.4628 388.362 Q-35.9351 391.354 -35.9351 395.683 Q-35.9351 401.157 -38.9906 404.404 Q-42.078 407.618 -47.2342 407.618 Q-53.2498 407.618 -56.3053 403.608 Q-59.3609 399.566 -59.3609 391.577 L-59.3609 383.365 L-59.9338 383.365 Q-63.976 383.365 -66.1722 386.039 Q-68.4002 388.68 -68.4002 393.486 Q-68.4002 396.542 -67.6681 399.438 Q-66.9361 402.335 -65.472 405.008 L-70.8828 405.008 Q-72.1241 401.794 -72.7289 398.77 Q-73.3654 395.746 -73.3654 392.882 Q-73.3654 385.147 -69.355 381.328 Q-65.3446 377.509 -57.1965 377.509 Z" fill="#000000" fill-rule="evenodd" fill-opacity="1" /><path clip-path="url(#clip760)" d="M 0 0 M-86.3833 371.366 L-86.3833 365.509 L-36.8581 365.509 L-36.8581 371.366 L-86.3833 371.366 Z" fill="#000000" fill-rule="evenodd" fill-opacity="1" /><path clip-path="url(#clip760)" d="M 0 0 M-50.9263 359.971 L-72.5061 359.971 L-72.5061 354.115 L-51.1491 354.115 Q-46.0884 354.115 -43.5421 352.141 Q-41.0276 350.168 -41.0276 346.221 Q-41.0276 341.479 -44.0514 338.741 Q-47.0751 335.972 -52.2949 335.972 L-72.5061 335.972 L-72.5061 330.116 L-36.8581 330.116 L-36.8581 335.972 L-42.3326 335.972 Q-39.0861 338.105 -37.4947 340.938 Q-35.9351 343.738 -35.9351 347.462 Q-35.9351 353.605 -39.7545 356.788 Q-43.5739 359.971 -50.9263 359.971 M-73.3654 345.234 L-73.3654 345.234 Z" fill="#000000" fill-rule="evenodd" fill-opacity="1" /><path clip-path="url(#clip760)" d="M 0 0 M-56.1462 293.481 L-53.2816 293.481 L-53.2816 320.408 Q-47.2342 320.026 -44.0514 316.78 Q-40.9003 313.501 -40.9003 307.677 Q-40.9003 304.303 -41.7279 301.152 Q-42.5554 297.969 -44.2105 294.85 L-38.6723 294.85 Q-37.3355 298.001 -36.6353 301.311 Q-35.9351 304.621 -35.9351 308.027 Q-35.9351 316.557 -40.9003 321.554 Q-45.8656 326.519 -54.332 326.519 Q-63.0848 326.519 -68.2092 321.809 Q-73.3654 317.066 -73.3654 309.045 Q-73.3654 301.852 -68.7185 297.683 Q-64.1033 293.481 -56.1462 293.481 M-57.8649 299.338 Q-62.671 299.401 -65.5356 302.043 Q-68.4002 304.653 -68.4002 308.982 Q-68.4002 313.883 -65.6311 316.843 Q-62.862 319.772 -57.8331 320.217 L-57.8649 299.338 Z" fill="#000000" fill-rule="evenodd" fill-opacity="1" /><path clip-path="url(#clip760)" d="M 0 0 M1048.63 43.8146 L1022.83 43.8146 Q1023.43 55.9268 1026.23 61.0714 Q1029.71 67.3908 1035.75 67.3908 Q1041.82 67.3908 1045.19 61.0309 Q1048.14 55.4407 1048.63 43.8146 M1048.51 36.928 Q1047.37 25.4235 1045.19 21.3726 Q1041.7 14.9721 1035.75 14.9721 Q1029.55 14.9721 1026.27 21.2916 Q1023.68 26.3957 1022.91 36.928 L1048.51 36.928 M1035.75 8.89579 Q1045.47 8.89579 1051.02 17.4837 Q1056.57 26.0311 1056.57 41.1815 Q1056.57 56.2914 1051.02 64.8793 Q1045.47 73.5077 1035.75 73.5077 Q1025.99 73.5077 1020.48 64.8793 Q1014.93 56.2914 1014.93 41.1815 Q1014.93 26.0311 1020.48 17.4837 Q1025.99 8.89579 1035.75 8.89579 Z" fill="#000000" fill-rule="evenodd" fill-opacity="1" /><polyline clip-path="url(#clip762)" style="stroke:#009af9; stroke-width:4; stroke-opacity:1; fill:none" points="
  170.646,437.89 172.378,754.33 174.11,307.836 175.842,307.836 177.574,323.42 179.306,383.986 181.038,341.327 182.77,341.327 184.502,342.62 186.234,454.406 
  187.966,438.925 189.698,448.818 191.429,379.611 193.161,341.167 194.893,494.715 196.625,555.029 198.357,555.029 200.089,439.327 201.821,422.157 203.553,726.373 
  205.285,486.542 207.017,363.936 208.749,215.442 210.481,104.538 212.213,336.989 213.945,496.002 215.677,754.692 217.409,158.358 219.14,300.87 220.872,361.718 
  222.604,429.317 224.336,438.82 226.068,555.134 227.8,573.241 229.532,707.051 231.264,707.051 232.996,450.517 234.728,437.349 236.46,595.769 238.192,251.673 
  239.924,393.23 241.656,393.23 243.388,387.057 245.119,248.143 246.851,386.944 248.583,265.196 250.315,553.29 252.047,634.134 253.779,492.188 255.511,498.764 
  257.243,337.274 258.975,385.057 260.707,385.057 262.439,391.859 264.171,302.935 265.903,167.077 267.635,366.042 269.367,732.221 271.099,474.023 272.83,217.455 
  274.562,666.614 276.294,529.415 278.026,284.914 279.758,229.103 281.49,229.103 283.222,521.414 284.954,289.514 286.686,125.796 288.418,139.73 290.15,301.762 
  291.882,272.726 293.614,344.795 295.346,283.519 297.078,179.329 298.809,254.712 300.541,358.034 302.273,344.8 304.005,187.907 305.737,353.597 307.469,327.395 
  309.201,457.398 310.933,363.654 312.665,337.926 314.397,497.88 316.129,774.545 317.861,156.271 319.593,451.328 321.325,282.851 323.057,539.603 324.789,661.22 
  326.52,416.251 328.252,590.62 329.984,252.771 331.716,289.373 333.448,407.029 335.18,392.561 336.912,400.21 338.644,318.042 340.376,234.394 342.108,473.468 
  343.84,445.269 345.572,355.798 347.304,250.249 349.036,299.611 350.768,271.626 352.499,376.523 354.231,439.23 355.963,480.407 357.695,480.407 359.427,351.97 
  361.159,783.941 362.891,366.448 364.623,376.455 366.355,317.13 368.087,504.345 369.819,618.547 371.551,225.993 373.283,312.933 375.015,336.411 376.747,265.386 
  378.479,573.624 380.21,490.545 381.942,532.623 383.674,663.162 385.406,218.05 387.138,205.669 388.87,660.144 390.602,414.464 392.334,403.185 394.066,329.964 
  395.798,473.02 397.53,473.02 399.262,582.961 400.994,443.881 402.726,459.027 404.458,562.82 406.189,476.159 407.921,663.449 409.653,887.252 411.385,435.406 
  413.117,383.648 414.849,288.772 416.581,339.518 418.313,342.217 420.045,396.843 421.777,632.519 423.509,212.219 425.241,139.423 426.973,144.754 428.705,381.604 
  430.437,381.604 432.169,303.476 433.9,342.045 435.632,306.901 437.364,258.065 439.096,598.414 440.828,494.055 442.56,701.164 444.292,533.854 446.024,582.733 
  447.756,590.866 449.488,266.351 451.22,590.627 452.952,587.739 454.684,587.739 456.416,414.608 458.148,418.5 459.879,654.651 461.611,468.802 463.343,468.802 
  465.075,416.14 466.807,416.14 468.539,281.937 470.271,519.266 472.003,529.573 473.735,413.084 475.467,471.461 477.199,343.592 478.931,205.619 480.663,326.856 
  482.395,255.545 484.127,270.927 485.859,363.222 487.59,452.941 489.322,353.468 491.054,426.471 492.786,402.747 494.518,405.391 496.25,368.315 497.982,187.957 
  499.714,207.967 501.446,358.559 503.178,245.698 504.91,245.698 506.642,606.628 508.374,597.872 510.106,475.708 511.838,475.708 513.569,587.871 515.301,616.073 
  517.033,450.703 518.765,531.265 520.497,456.723 522.229,367.815 523.961,394.624 525.693,632.148 527.425,700.693 529.157,453.106 530.889,376.366 532.621,376.366 
  534.353,688.25 536.085,201.277 537.817,655.949 539.549,505.541 541.28,634.668 543.012,610.619 544.744,505.315 546.476,555.561 548.208,641.476 549.94,705.156 
  551.672,411.615 553.404,404.951 555.136,409.556 556.868,409.556 558.6,413.155 560.332,632.37 562.064,719.776 563.796,761.381 565.528,403.145 567.259,403.145 
  568.991,403.145 570.723,364.929 572.455,391.917 574.187,391.917 575.919,430.549 577.651,173.94 579.383,342.471 581.115,488.819 582.847,737.395 584.579,367.779 
  586.311,278.475 588.043,278.475 589.775,280.142 591.507,365.49 593.239,388.545 594.97,86.9997 596.702,184.794 598.434,362.215 600.166,711.091 601.898,454.329 
  603.63,454.329 605.362,454.329 607.094,435.481 608.826,431.214 610.558,615.436 612.29,419.187 614.022,533.666 615.754,309.418 617.486,309.418 619.218,148.121 
  620.949,380.898 622.681,402.99 624.413,300.598 626.145,530.989 627.877,599.393 629.609,459.075 631.341,571.161 633.073,281.104 634.805,324.336 636.537,311.783 
  638.269,311.783 640.001,352.113 641.733,406.154 643.465,390.7 645.197,399.612 646.929,330.689 648.66,330.689 650.392,381.421 652.124,447.903 653.856,447.903 
  655.588,516.267 657.32,555.636 659.052,408.356 660.784,603.369 662.516,248.543 664.248,616.858 665.98,498.709 667.712,451.579 669.444,453.151 671.176,587.145 
  672.908,511.968 674.639,493.116 676.371,342.472 678.103,364.355 679.835,231.451 681.567,222.852 683.299,591.134 685.031,446.928 686.763,518.216 688.495,213.333 
  690.227,328.479 691.959,477.252 693.691,604.565 695.423,205.087 697.155,218.621 698.887,597.577 700.619,684.038 702.35,414.102 704.082,440.873 705.814,414.474 
  707.546,399.134 709.278,774.133 711.01,518.998 712.742,518.998 714.474,321.083 716.206,489.137 717.938,344.737 719.67,344.737 721.402,468.83 723.134,489.765 
  724.866,464.132 726.598,361.457 728.329,275.428 730.061,553.109 731.793,553.109 733.525,268.049 735.257,268.049 736.989,174.014 738.721,342.684 740.453,206.992 
  742.185,299.761 743.917,398.898 745.649,390.82 747.381,283.761 749.113,562.13 750.845,560.915 752.577,404.992 754.309,404.992 756.04,645.04 757.772,454.791 
  759.504,560.111 761.236,643.764 762.968,517.739 764.7,728.714 766.432,416.641 768.164,342.407 769.896,335.706 771.628,499.819 773.36,435.511 775.092,444.619 
  776.824,467.279 778.556,690.334 780.288,202.758 782.019,390.763 783.751,398.588 785.483,398.588 787.215,402.042 788.947,402.042 790.679,319.013 792.411,255.572 
  794.143,444.559 795.875,465.618 797.607,508.965 799.339,457.961 801.071,693.104 802.803,384.27 804.535,340.333 806.267,333.636 807.999,181.015 809.73,193.257 
  811.462,658.59 813.194,407.585 814.926,333.615 816.658,358.618 818.39,358.618 820.122,151.475 821.854,309.97 823.586,243.219 825.318,201.125 827.05,180.861 
  828.782,369.456 830.514,459.866 832.246,444.832 833.978,579.827 835.709,609.241 837.441,246.325 839.173,396.617 840.905,641.088 842.637,508.236 844.369,329.474 
  846.101,174.516 847.833,373.42 849.565,369.683 851.297,280.274 853.029,488.686 854.761,320.624 856.493,489.441 858.225,315.969 859.957,158.378 861.689,282.745 
  863.42,239.679 865.152,241.823 866.884,199.211 868.616,306.066 870.348,180.19 872.08,711.032 873.812,570.101 875.544,631.344 877.276,232.294 879.008,157.129 
  880.74,302.645 882.472,246.563 884.204,246.563 885.936,180.489 887.668,243.353 889.399,360.025 891.131,229.579 892.863,230.719 894.595,642.41 896.327,642.41 
  898.059,557.934 899.791,256.811 901.523,256.811 903.255,391.259 904.987,391.259 906.719,311.022 908.451,488.727 910.183,721.264 911.915,179.594 913.647,666.469 
  915.379,498.442 917.11,551.19 918.842,551.19 920.574,295.941 922.306,295.941 924.038,259.432 925.77,559.083 927.502,559.083 929.234,452.797 930.966,663.667 
  932.698,466.611 934.43,350.718 936.162,350.718 937.894,319.448 939.626,319.448 941.358,503.147 943.089,420.738 944.821,380.836 946.553,380.836 948.285,303.524 
  950.017,392.549 951.749,397.234 953.481,290.011 955.213,341.925 956.945,393.255 958.677,402.819 960.409,858.131 962.141,699.58 963.873,611.087 965.605,611.087 
  967.337,549.521 969.069,306.202 970.8,508.042 972.532,316.297 974.264,294.998 975.996,345.807 977.728,350.244 979.46,448.68 981.192,502.083 982.924,307.438 
  984.656,535.876 986.388,300.797 988.12,544.715 989.852,183.503 991.584,458.855 993.316,490.818 995.048,244.053 996.779,623.342 998.511,424.3 1000.24,424.3 
  1001.98,399.837 1003.71,262.805 1005.44,582.925 1007.17,575.161 1008.9,638.853 1010.63,407.57 1012.37,407.57 1014.1,382.706 1015.83,486.522 1017.56,459.892 
  1019.29,456.854 1021.03,374.315 1022.76,768.97 1024.49,586.485 1026.22,690.691 1027.95,630.151 1029.69,476.711 1031.42,520.302 1033.15,492.686 1034.88,321.032 
  1036.61,321.032 1038.35,391.715 1040.08,391.715 1041.81,395.637 1043.54,332.625 1045.27,116.771 1047.01,220.034 1048.74,546.628 1050.47,624.129 1052.2,241.547 
  1053.93,571.937 1055.67,421.654 1057.4,432.335 1059.13,391.034 1060.86,405.363 1062.59,651.977 1064.32,535.093 1066.06,485.459 1067.79,265.924 1069.52,300.863 
  1071.25,300.863 1072.98,291.857 1074.72,518.912 1076.45,469.244 1078.18,456.619 1079.91,374.651 1081.64,122.25 1083.38,280.661 1085.11,262.957 1086.84,575.253 
  1088.57,572.166 1090.3,500.213 1092.04,475.613 1093.77,476.594 1095.5,421.889 1097.23,473.072 1098.96,605.955 1100.7,605.955 1102.43,607.744 1104.16,230.109 
  1105.89,375.971 1107.62,338.671 1109.36,245.738 1111.09,294.851 1112.82,338.811 1114.55,155.46 1116.28,234.663 1118.01,205.574 1119.75,354.613 1121.48,360.415 
  1123.21,181.767 1124.94,697.994 1126.67,511.552 1128.41,310.222 1130.14,310.222 1131.87,256.762 1133.6,342.931 1135.33,280.844 1137.07,249.447 1138.8,287.632 
  1140.53,391.609 1142.26,391.609 1143.99,391.609 1145.73,387.997 1147.46,295.591 1149.19,532.48 1150.92,307.167 1152.65,294.934 1154.39,128.775 1156.12,223.109 
  1157.85,223.109 1159.58,238.24 1161.31,388.01 1163.05,388.01 1164.78,388.01 1166.51,293.147 1168.24,310.241 1169.97,119.616 1171.7,344.188 1173.44,369.819 
  1175.17,265.094 1176.9,334.451 1178.63,190.655 1180.36,119.082 1182.1,280.425 1183.83,534.139 1185.56,534.139 1187.29,443.874 1189.02,426.36 1190.76,515.872 
  1192.49,526.337 1194.22,131.361 1195.95,244.023 1197.68,498.285 1199.42,427.624 1201.15,427.624 1202.88,428.423 1204.61,394.589 1206.34,385.568 1208.08,250.752 
  1209.81,378.322 1211.54,378.322 1213.27,448.291 1215,699.01 1216.74,616.057 1218.47,441.106 1220.2,420.71 1221.93,377.014 1223.66,377.014 1225.39,413.75 
  1227.13,584.784 1228.86,268.774 1230.59,371.576 1232.32,459.787 1234.05,430.972 1235.79,564.299 1237.52,538.892 1239.25,538.892 1240.98,538.892 1242.71,667.05 
  1244.45,195.342 1246.18,691.248 1247.91,410.952 1249.64,517.502 1251.37,517.502 1253.11,458.495 1254.84,536.403 1256.57,177.477 1258.3,656.411 1260.03,507.001 
  1261.77,507.001 1263.5,507.001 1265.23,507.001 1266.96,330.465 1268.69,481.286 1270.43,664.275 1272.16,213.344 1273.89,154.435 1275.62,283.467 1277.35,349.317 
  1279.08,349.317 1280.82,363.657 1282.55,468.253 1284.28,207.764 1286.01,315.994 1287.74,315.994 1289.48,282.325 1291.21,393.074 1292.94,304.431 1294.67,365.54 
  1296.4,412.3 1298.14,795.271 1299.87,326.13 1301.6,406.253 1303.33,384.194 1305.06,444.443 1306.8,764.354 1308.53,703.733 1310.26,562.412 1311.99,437.848 
  1313.72,437.848 1315.46,437.848 1317.19,605.179 1318.92,444.588 1320.65,362.717 1322.38,354.132 1324.12,354.132 1325.85,354.132 1327.58,354.132 1329.31,392.213 
  1331.04,425.683 1332.77,437.729 1334.51,437.729 1336.24,437.729 1337.97,365.475 1339.7,372.9 1341.43,262.112 1343.17,262.112 1344.9,580.317 1346.63,479.359 
  1348.36,558.083 1350.09,558.083 1351.83,265.755 1353.56,568.382 1355.29,477.669 1357.02,477.669 1358.75,613.209 1360.49,631.919 1362.22,195.892 1363.95,269.252 
  1365.68,212.467 1367.41,370.642 1369.15,288.112 1370.88,248.475 1372.61,582.454 1374.34,474.616 1376.07,474.616 1377.81,518.047 1379.54,494.893 1381.27,453.444 
  1383,359.958 1384.73,370.438 1386.46,366.149 1388.2,243.543 1389.93,601.157 1391.66,243.631 1393.39,302.2 1395.12,302.2 1396.86,394.564 1398.59,394.564 
  1400.32,434.396 1402.05,531.181 1403.78,651.144 1405.52,549.715 1407.25,431.016 1408.98,694.842 1410.71,537.634 1412.44,641.604 1414.18,391.69 1415.91,336.991 
  1417.64,286.709 1419.37,305.8 1421.1,200.016 1422.84,220.889 1424.57,269.977 1426.3,307.971 1428.03,299.854 1429.76,211.821 1431.5,636.524 1433.23,448.149 
  1434.96,554.366 1436.69,554.366 1438.42,462.156 1440.15,466.431 1441.89,529.15 1443.62,280.528 1445.35,229.793 1447.08,258.291 1448.81,269.42 1450.55,271.952 
  1452.28,328.077 1454.01,406.169 1455.74,406.169 1457.47,416.566 1459.21,416.566 1460.94,394.195 1462.67,237.623 1464.4,331.196 1466.13,367.662 1467.87,366.498 
  1469.6,246.086 1471.33,158.098 1473.06,287.634 1474.79,221.28 1476.53,300.873 1478.26,274.869 1479.99,274.869 1481.72,391.23 1483.45,187.723 1485.19,245.181 
  1486.92,176.41 1488.65,192.883 1490.38,161.631 1492.11,173.76 1493.84,378.23 1495.58,411.624 1497.31,558.09 1499.04,587.797 1500.77,526.41 1502.5,295.957 
  1504.24,295.285 1505.97,297.703 1507.7,297.964 1509.43,547.043 1511.16,269.324 1512.9,212.432 1514.63,328.149 1516.36,224.475 1518.09,298.951 1519.82,408.595 
  1521.56,235.452 1523.29,119.638 1525.02,338.583 1526.75,400.253 1528.48,420.375 1530.22,425.773 1531.95,438.644 1533.68,555.379 1535.41,706.229 1537.14,658.623 
  1538.88,658.623 1540.61,713.24 1542.34,475.06 1544.07,321.903 1545.8,516.492 1547.53,497.578 1549.27,694.055 1551,498.809 1552.73,498.809 1554.46,530.335 
  1556.19,438.904 1557.93,390.222 1559.66,253.226 1561.39,233.921 1563.12,124.821 1564.85,297.814 1566.59,184.638 1568.32,346.56 1570.05,486.522 1571.78,608.44 
  1573.51,242.669 1575.25,223.074 1576.98,223.074 1578.71,228.503 1580.44,137.982 1582.17,178.453 1583.91,715.649 1585.64,415.704 1587.37,439.497 1589.1,499.974 
  1590.83,485.434 1592.57,485.434 1594.3,642.184 1596.03,662.865 1597.76,632.186 1599.49,596.778 1601.22,238.613 1602.96,229.714 1604.69,611.502 1606.42,566.461 
  1608.15,419.936 1609.88,274.191 1611.62,526.08 1613.35,664.817 1615.08,618.385 1616.81,225.831 1618.54,610.556 1620.28,491.22 1622.01,242.115 1623.74,341.699 
  1625.47,455.16 1627.2,455.16 1628.94,346.623 1630.67,464.333 1632.4,781.628 1634.13,397.784 1635.86,323.746 1637.6,157.766 1639.33,258.117 1641.06,574.003 
  1642.79,606.022 1644.52,720.007 1646.26,170.351 1647.99,172.579 1649.72,224.577 1651.45,291.414 1653.18,303.439 1654.91,303.439 1656.65,376.516 1658.38,199.105 
  1660.11,320.563 1661.84,508.675 1663.57,223.561 1665.31,224.072 1667.04,191.978 1668.77,316.332 1670.5,173.125 1672.23,716.053 1673.97,461.257 1675.7,464.526 
  1677.43,443.099 1679.16,376.824 1680.89,746.918 1682.63,679.314 1684.36,574.57 1686.09,252.711 1687.82,252.711 1689.55,197.344 1691.29,665.571 1693.02,607.489 
  1694.75,607.489 1696.48,454.036 1698.21,521.994 1699.95,315.717 1701.68,517.703 1703.41,677.31 1705.14,480.248 1706.87,352.314 1708.6,352.314 1710.34,476.444 
  1712.07,461.613 1713.8,441.193 1715.53,426.907 1717.26,763.766 1719,143.76 1720.73,241.18 1722.46,261.76 1724.19,344.701 1725.92,489.169 1727.66,503.349 
  1729.39,301.668 1731.12,218.619 1732.85,663.995 1734.58,400.971 1736.32,711.34 1738.05,583.041 1739.78,534.398 1741.51,619.231 1743.24,539.701 1744.98,697.691 
  1746.71,489.031 1748.44,345.318 1750.17,354.223 1751.9,270.637 1753.64,542.165 1755.37,542.165 1757.1,439.027 1758.83,702.598 1760.56,481.045 1762.29,321.025 
  1764.03,492.809 1765.76,515.187 1767.49,515.187 1769.22,165.218 1770.95,319.02 1772.69,277.746 1774.42,481.514 1776.15,481.514 1777.88,728.559 1779.61,404.272 
  1781.35,404.272 1783.08,404.272 1784.81,404.272 1786.54,589.704 1788.27,602.06 1790.01,603.09 1791.74,602.304 1793.47,491.327 1795.2,298.945 1796.93,221.933 
  1798.67,184.347 1800.4,149.765 1802.13,777.454 1803.86,639.446 1805.59,456.93 1807.33,374.306 1809.06,250.757 1810.79,614.437 1812.52,630.458 1814.25,477.576 
  1815.98,456.324 1817.72,532.925 1819.45,532.925 1821.18,712.677 1822.91,586.952 1824.64,265.812 1826.38,141.681 1828.11,291.589 1829.84,511.83 1831.57,321.633 
  1833.3,321.633 1835.04,400.462 1836.77,419.389 1838.5,510.154 1840.23,584.019 1841.96,562.705 1843.7,497.621 1845.43,480.039 1847.16,485.796 1848.89,485.796 
  1850.62,485.796 1852.36,578.962 1854.09,420.739 1855.82,582.743 1857.55,240.631 1859.28,339.81 1861.02,226.637 1862.75,342.742 1864.48,465.119 1866.21,503.849 
  1867.94,326.81 1869.67,225.555 1871.41,653.085 1873.14,503.206 1874.87,419.871 1876.6,419.871 1878.33,464.382 1880.07,464.382 1881.8,428.212 1883.53,430.946 
  1885.26,492.398 1886.99,642.49 1888.73,642.49 1890.46,742.53 1892.19,391.019 1893.92,391.019 1895.65,391.019 1897.39,436.991 1899.12,369.698 1900.85,267.529 
  
  "/>
<path clip-path="url(#clip760)" d="
M2118.74 911.26 L3952.76 911.26 L3952.76 62.9921 L2118.74 62.9921  Z
  " fill="#ffffff" fill-rule="evenodd" fill-opacity="1"/>
<defs>
  <clipPath id="clip763">
    <rect x="2118" y="62" width="1835" height="849"/>
  </clipPath>
</defs>
<polyline clip-path="url(#clip763)" style="stroke:#000000; stroke-width:2; stroke-opacity:0.1; fill:none" points="
  2392.42,911.26 2392.42,62.9921 
  "/>
<polyline clip-path="url(#clip763)" style="stroke:#000000; stroke-width:2; stroke-opacity:0.1; fill:none" points="
  2741.09,911.26 2741.09,62.9921 
  "/>
<polyline clip-path="url(#clip763)" style="stroke:#000000; stroke-width:2; stroke-opacity:0.1; fill:none" points="
  3089.77,911.26 3089.77,62.9921 
  "/>
<polyline clip-path="url(#clip763)" style="stroke:#000000; stroke-width:2; stroke-opacity:0.1; fill:none" points="
  3438.44,911.26 3438.44,62.9921 
  "/>
<polyline clip-path="url(#clip763)" style="stroke:#000000; stroke-width:2; stroke-opacity:0.1; fill:none" points="
  3787.11,911.26 3787.11,62.9921 
  "/>
<polyline clip-path="url(#clip760)" style="stroke:#000000; stroke-width:4; stroke-opacity:1; fill:none" points="
  2118.74,911.26 3952.76,911.26 
  "/>
<polyline clip-path="url(#clip760)" style="stroke:#000000; stroke-width:4; stroke-opacity:1; fill:none" points="
  2392.42,911.26 2392.42,901.081 
  "/>
<polyline clip-path="url(#clip760)" style="stroke:#000000; stroke-width:4; stroke-opacity:1; fill:none" points="
  2741.09,911.26 2741.09,901.081 
  "/>
<polyline clip-path="url(#clip760)" style="stroke:#000000; stroke-width:4; stroke-opacity:1; fill:none" points="
  3089.77,911.26 3089.77,901.081 
  "/>
<polyline clip-path="url(#clip760)" style="stroke:#000000; stroke-width:4; stroke-opacity:1; fill:none" points="
  3438.44,911.26 3438.44,901.081 
  "/>
<polyline clip-path="url(#clip760)" style="stroke:#000000; stroke-width:4; stroke-opacity:1; fill:none" points="
  3787.11,911.26 3787.11,901.081 
  "/>
<path clip-path="url(#clip760)" d="M 0 0 M2374.74 953.251 Q2371.13 953.251 2369.3 956.815 Q2367.49 960.357 2367.49 967.487 Q2367.49 974.593 2369.3 978.158 Q2371.13 981.699 2374.74 981.699 Q2378.37 981.699 2380.18 978.158 Q2382.01 974.593 2382.01 967.487 Q2382.01 960.357 2380.18 956.815 Q2378.37 953.251 2374.74 953.251 M2374.74 949.547 Q2380.55 949.547 2383.6 954.153 Q2386.68 958.737 2386.68 967.487 Q2386.68 976.213 2383.6 980.82 Q2380.55 985.403 2374.74 985.403 Q2368.93 985.403 2365.85 980.82 Q2362.79 976.213 2362.79 967.487 Q2362.79 958.737 2365.85 954.153 Q2368.93 949.547 2374.74 949.547 Z" fill="#000000" fill-rule="evenodd" fill-opacity="1" /><path clip-path="url(#clip760)" d="M 0 0 M2391.75 978.852 L2396.64 978.852 L2396.64 984.732 L2391.75 984.732 L2391.75 978.852 Z" fill="#000000" fill-rule="evenodd" fill-opacity="1" /><path clip-path="url(#clip760)" d="M 0 0 M2405.73 980.797 L2422.05 980.797 L2422.05 984.732 L2400.11 984.732 L2400.11 980.797 Q2402.77 978.042 2407.35 973.412 Q2411.96 968.76 2413.14 967.417 Q2415.39 964.894 2416.27 963.158 Q2417.17 961.399 2417.17 959.709 Q2417.17 956.954 2415.22 955.218 Q2413.3 953.482 2410.2 953.482 Q2408 953.482 2405.55 954.246 Q2403.12 955.01 2400.34 956.561 L2400.34 951.839 Q2403.16 950.704 2405.62 950.126 Q2408.07 949.547 2410.11 949.547 Q2415.48 949.547 2418.67 952.232 Q2421.87 954.917 2421.87 959.408 Q2421.87 961.538 2421.06 963.459 Q2420.27 965.357 2418.16 967.95 Q2417.58 968.621 2414.48 971.838 Q2411.38 975.033 2405.73 980.797 Z" fill="#000000" fill-rule="evenodd" fill-opacity="1" /><path clip-path="url(#clip760)" d="M 0 0 M2722.37 953.251 Q2718.76 953.251 2716.93 956.815 Q2715.12 960.357 2715.12 967.487 Q2715.12 974.593 2716.93 978.158 Q2718.76 981.699 2722.37 981.699 Q2726 981.699 2727.81 978.158 Q2729.64 974.593 2729.64 967.487 Q2729.64 960.357 2727.81 956.815 Q2726 953.251 2722.37 953.251 M2722.37 949.547 Q2728.18 949.547 2731.23 954.153 Q2734.31 958.737 2734.31 967.487 Q2734.31 976.213 2731.23 980.82 Q2728.18 985.403 2722.37 985.403 Q2716.56 985.403 2713.48 980.82 Q2710.42 976.213 2710.42 967.487 Q2710.42 958.737 2713.48 954.153 Q2716.56 949.547 2722.37 949.547 Z" fill="#000000" fill-rule="evenodd" fill-opacity="1" /><path clip-path="url(#clip760)" d="M 0 0 M2739.38 978.852 L2744.27 978.852 L2744.27 984.732 L2739.38 984.732 L2739.38 978.852 Z" fill="#000000" fill-rule="evenodd" fill-opacity="1" /><path clip-path="url(#clip760)" d="M 0 0 M2762.18 954.246 L2750.38 972.695 L2762.18 972.695 L2762.18 954.246 M2760.96 950.172 L2766.84 950.172 L2766.84 972.695 L2771.77 972.695 L2771.77 976.584 L2766.84 976.584 L2766.84 984.732 L2762.18 984.732 L2762.18 976.584 L2746.58 976.584 L2746.58 972.07 L2760.96 950.172 Z" fill="#000000" fill-rule="evenodd" fill-opacity="1" /><path clip-path="url(#clip760)" d="M 0 0 M3071.2 953.251 Q3067.59 953.251 3065.76 956.815 Q3063.96 960.357 3063.96 967.487 Q3063.96 974.593 3065.76 978.158 Q3067.59 981.699 3071.2 981.699 Q3074.84 981.699 3076.64 978.158 Q3078.47 974.593 3078.47 967.487 Q3078.47 960.357 3076.64 956.815 Q3074.84 953.251 3071.2 953.251 M3071.2 949.547 Q3077.01 949.547 3080.07 954.153 Q3083.15 958.737 3083.15 967.487 Q3083.15 976.213 3080.07 980.82 Q3077.01 985.403 3071.2 985.403 Q3065.39 985.403 3062.31 980.82 Q3059.26 976.213 3059.26 967.487 Q3059.26 958.737 3062.31 954.153 Q3065.39 949.547 3071.2 949.547 Z" fill="#000000" fill-rule="evenodd" fill-opacity="1" /><path clip-path="url(#clip760)" d="M 0 0 M3088.22 978.852 L3093.1 978.852 L3093.1 984.732 L3088.22 984.732 L3088.22 978.852 Z" fill="#000000" fill-rule="evenodd" fill-opacity="1" /><path clip-path="url(#clip760)" d="M 0 0 M3108.75 965.588 Q3105.6 965.588 3103.75 967.741 Q3101.92 969.894 3101.92 973.644 Q3101.92 977.371 3103.75 979.547 Q3105.6 981.699 3108.75 981.699 Q3111.9 981.699 3113.73 979.547 Q3115.58 977.371 3115.58 973.644 Q3115.58 969.894 3113.73 967.741 Q3111.9 965.588 3108.75 965.588 M3118.03 950.936 L3118.03 955.195 Q3116.27 954.362 3114.47 953.922 Q3112.68 953.482 3110.92 953.482 Q3106.29 953.482 3103.84 956.607 Q3101.41 959.732 3101.06 966.051 Q3102.43 964.038 3104.49 962.973 Q3106.55 961.885 3109.03 961.885 Q3114.23 961.885 3117.24 965.056 Q3120.28 968.204 3120.28 973.644 Q3120.28 978.968 3117.13 982.186 Q3113.98 985.403 3108.75 985.403 Q3102.75 985.403 3099.58 980.82 Q3096.41 976.213 3096.41 967.487 Q3096.41 959.292 3100.3 954.431 Q3104.19 949.547 3110.74 949.547 Q3112.5 949.547 3114.28 949.894 Q3116.09 950.241 3118.03 950.936 Z" fill="#000000" fill-rule="evenodd" fill-opacity="1" /><path clip-path="url(#clip760)" d="M 0 0 M3420 953.251 Q3416.39 953.251 3414.56 956.815 Q3412.76 960.357 3412.76 967.487 Q3412.76 974.593 3414.56 978.158 Q3416.39 981.699 3420 981.699 Q3423.64 981.699 3425.44 978.158 Q3427.27 974.593 3427.27 967.487 Q3427.27 960.357 3425.44 956.815 Q3423.64 953.251 3420 953.251 M3420 949.547 Q3425.81 949.547 3428.87 954.153 Q3431.95 958.737 3431.95 967.487 Q3431.95 976.213 3428.87 980.82 Q3425.81 985.403 3420 985.403 Q3414.19 985.403 3411.11 980.82 Q3408.06 976.213 3408.06 967.487 Q3408.06 958.737 3411.11 954.153 Q3414.19 949.547 3420 949.547 Z" fill="#000000" fill-rule="evenodd" fill-opacity="1" /><path clip-path="url(#clip760)" d="M 0 0 M3437.02 978.852 L3441.9 978.852 L3441.9 984.732 L3437.02 984.732 L3437.02 978.852 Z" fill="#000000" fill-rule="evenodd" fill-opacity="1" /><path clip-path="url(#clip760)" d="M 0 0 M3456.97 968.32 Q3453.64 968.32 3451.71 970.102 Q3449.82 971.885 3449.82 975.01 Q3449.82 978.135 3451.71 979.917 Q3453.64 981.699 3456.97 981.699 Q3460.3 981.699 3462.22 979.917 Q3464.14 978.112 3464.14 975.01 Q3464.14 971.885 3462.22 970.102 Q3460.33 968.32 3456.97 968.32 M3452.29 966.329 Q3449.28 965.588 3447.59 963.528 Q3445.93 961.468 3445.93 958.505 Q3445.93 954.362 3448.87 951.954 Q3451.83 949.547 3456.97 949.547 Q3462.13 949.547 3465.07 951.954 Q3468.01 954.362 3468.01 958.505 Q3468.01 961.468 3466.32 963.528 Q3464.65 965.588 3461.67 966.329 Q3465.05 967.116 3466.92 969.408 Q3468.82 971.7 3468.82 975.01 Q3468.82 980.033 3465.74 982.718 Q3462.69 985.403 3456.97 985.403 Q3451.25 985.403 3448.17 982.718 Q3445.12 980.033 3445.12 975.01 Q3445.12 971.7 3447.02 969.408 Q3448.91 967.116 3452.29 966.329 M3450.58 958.945 Q3450.58 961.63 3452.25 963.135 Q3453.94 964.639 3456.97 964.639 Q3459.98 964.639 3461.67 963.135 Q3463.38 961.63 3463.38 958.945 Q3463.38 956.26 3461.67 954.755 Q3459.98 953.251 3456.97 953.251 Q3453.94 953.251 3452.25 954.755 Q3450.58 956.26 3450.58 958.945 Z" fill="#000000" fill-rule="evenodd" fill-opacity="1" /><path clip-path="url(#clip760)" d="M 0 0 M3759.01 980.797 L3766.65 980.797 L3766.65 954.431 L3758.34 956.098 L3758.34 951.839 L3766.6 950.172 L3771.28 950.172 L3771.28 980.797 L3778.92 980.797 L3778.92 984.732 L3759.01 984.732 L3759.01 980.797 Z" fill="#000000" fill-rule="evenodd" fill-opacity="1" /><path clip-path="url(#clip760)" d="M 0 0 M3783.99 978.852 L3788.87 978.852 L3788.87 984.732 L3783.99 984.732 L3783.99 978.852 Z" fill="#000000" fill-rule="evenodd" fill-opacity="1" /><path clip-path="url(#clip760)" d="M 0 0 M3803.94 953.251 Q3800.33 953.251 3798.5 956.815 Q3796.69 960.357 3796.69 967.487 Q3796.69 974.593 3798.5 978.158 Q3800.33 981.699 3803.94 981.699 Q3807.57 981.699 3809.38 978.158 Q3811.21 974.593 3811.21 967.487 Q3811.21 960.357 3809.38 956.815 Q3807.57 953.251 3803.94 953.251 M3803.94 949.547 Q3809.75 949.547 3812.81 954.153 Q3815.88 958.737 3815.88 967.487 Q3815.88 976.213 3812.81 980.82 Q3809.75 985.403 3803.94 985.403 Q3798.13 985.403 3795.05 980.82 Q3791.99 976.213 3791.99 967.487 Q3791.99 958.737 3795.05 954.153 Q3798.13 949.547 3803.94 949.547 Z" fill="#000000" fill-rule="evenodd" fill-opacity="1" /><path clip-path="url(#clip760)" d="M 0 0 M2872.69 1014.16 L2872.69 1020.43 Q2869.03 1018.68 2865.78 1017.82 Q2862.54 1016.96 2859.51 1016.96 Q2854.26 1016.96 2851.4 1019 Q2848.56 1021.04 2848.56 1024.79 Q2848.56 1027.95 2850.44 1029.57 Q2852.35 1031.16 2857.64 1032.15 L2861.52 1032.94 Q2868.71 1034.31 2872.12 1037.78 Q2875.56 1041.22 2875.56 1047.01 Q2875.56 1053.92 2870.91 1057.48 Q2866.29 1061.05 2857.35 1061.05 Q2853.98 1061.05 2850.16 1060.28 Q2846.37 1059.52 2842.29 1058.02 L2842.29 1051.4 Q2846.21 1053.6 2849.96 1054.71 Q2853.72 1055.83 2857.35 1055.83 Q2862.86 1055.83 2865.85 1053.66 Q2868.84 1051.5 2868.84 1047.49 Q2868.84 1043.99 2866.67 1042.01 Q2864.54 1040.04 2859.64 1039.05 L2855.73 1038.29 Q2848.53 1036.86 2845.32 1033.8 Q2842.1 1030.75 2842.1 1025.3 Q2842.1 1019 2846.53 1015.37 Q2850.98 1011.74 2858.78 1011.74 Q2862.12 1011.74 2865.59 1012.35 Q2869.06 1012.95 2872.69 1014.16 Z" fill="#000000" fill-rule="evenodd" fill-opacity="1" /><path clip-path="url(#clip760)" d="M 0 0 M2897.9 1042.2 Q2890.8 1042.2 2888.06 1043.83 Q2885.33 1045.45 2885.33 1049.37 Q2885.33 1052.48 2887.36 1054.33 Q2889.43 1056.15 2892.97 1056.15 Q2897.83 1056.15 2900.76 1052.71 Q2903.72 1049.24 2903.72 1043.51 L2903.72 1042.2 L2897.9 1042.2 M2909.58 1039.79 L2909.58 1060.12 L2903.72 1060.12 L2903.72 1054.71 Q2901.72 1057.96 2898.73 1059.52 Q2895.73 1061.05 2891.41 1061.05 Q2885.93 1061.05 2882.68 1057.99 Q2879.47 1054.9 2879.47 1049.75 Q2879.47 1043.73 2883.48 1040.68 Q2887.52 1037.62 2895.51 1037.62 L2903.72 1037.62 L2903.72 1037.05 Q2903.72 1033.01 2901.05 1030.81 Q2898.41 1028.58 2893.6 1028.58 Q2890.55 1028.58 2887.65 1029.31 Q2884.75 1030.05 2882.08 1031.51 L2882.08 1026.1 Q2885.29 1024.86 2888.32 1024.25 Q2891.34 1023.62 2894.21 1023.62 Q2901.94 1023.62 2905.76 1027.63 Q2909.58 1031.64 2909.58 1039.79 Z" fill="#000000" fill-rule="evenodd" fill-opacity="1" /><path clip-path="url(#clip760)" d="M 0 0 M2943.48 1031.32 Q2945.67 1027.37 2948.73 1025.49 Q2951.78 1023.62 2955.92 1023.62 Q2961.49 1023.62 2964.52 1027.53 Q2967.54 1031.41 2967.54 1038.61 L2967.54 1060.12 L2961.65 1060.12 L2961.65 1038.8 Q2961.65 1033.67 2959.84 1031.19 Q2958.02 1028.71 2954.3 1028.71 Q2949.75 1028.71 2947.11 1031.73 Q2944.46 1034.76 2944.46 1039.98 L2944.46 1060.12 L2938.58 1060.12 L2938.58 1038.8 Q2938.58 1033.64 2936.76 1031.19 Q2934.95 1028.71 2931.16 1028.71 Q2926.67 1028.71 2924.03 1031.76 Q2921.39 1034.79 2921.39 1039.98 L2921.39 1060.12 L2915.5 1060.12 L2915.5 1024.48 L2921.39 1024.48 L2921.39 1030.01 Q2923.39 1026.74 2926.19 1025.18 Q2929 1023.62 2932.85 1023.62 Q2936.73 1023.62 2939.43 1025.59 Q2942.17 1027.56 2943.48 1031.32 Z" fill="#000000" fill-rule="evenodd" fill-opacity="1" /><path clip-path="url(#clip760)" d="M 0 0 M2979.35 1054.78 L2979.35 1073.68 L2973.46 1073.68 L2973.46 1024.48 L2979.35 1024.48 L2979.35 1029.89 Q2981.19 1026.7 2983.99 1025.18 Q2986.83 1023.62 2990.74 1023.62 Q2997.24 1023.62 3001.28 1028.77 Q3005.35 1033.93 3005.35 1042.33 Q3005.35 1050.73 3001.28 1055.89 Q2997.24 1061.05 2990.74 1061.05 Q2986.83 1061.05 2983.99 1059.52 Q2981.19 1057.96 2979.35 1054.78 M2999.27 1042.33 Q2999.27 1035.87 2996.6 1032.21 Q2993.96 1028.52 2989.31 1028.52 Q2984.66 1028.52 2981.99 1032.21 Q2979.35 1035.87 2979.35 1042.33 Q2979.35 1048.79 2981.99 1052.48 Q2984.66 1056.15 2989.31 1056.15 Q2993.96 1056.15 2996.6 1052.48 Q2999.27 1048.79 2999.27 1042.33 Z" fill="#000000" fill-rule="evenodd" fill-opacity="1" /><path clip-path="url(#clip760)" d="M 0 0 M3011.49 1010.6 L3017.35 1010.6 L3017.35 1060.12 L3011.49 1060.12 L3011.49 1010.6 Z" fill="#000000" fill-rule="evenodd" fill-opacity="1" /><path clip-path="url(#clip760)" d="M 0 0 M3053.99 1040.84 L3053.99 1043.7 L3027.06 1043.7 Q3027.44 1049.75 3030.69 1052.93 Q3033.97 1056.08 3039.79 1056.08 Q3043.16 1056.08 3046.32 1055.25 Q3049.5 1054.43 3052.62 1052.77 L3052.62 1058.31 Q3049.47 1059.65 3046.16 1060.35 Q3042.85 1061.05 3039.44 1061.05 Q3030.91 1061.05 3025.91 1056.08 Q3020.95 1051.12 3020.95 1042.65 Q3020.95 1033.9 3025.66 1028.77 Q3030.4 1023.62 3038.42 1023.62 Q3045.61 1023.62 3049.78 1028.26 Q3053.99 1032.88 3053.99 1040.84 M3048.13 1039.12 Q3048.07 1034.31 3045.42 1031.45 Q3042.81 1028.58 3038.49 1028.58 Q3033.58 1028.58 3030.62 1031.35 Q3027.7 1034.12 3027.25 1039.15 L3048.13 1039.12 Z" fill="#000000" fill-rule="evenodd" fill-opacity="1" /><path clip-path="url(#clip760)" d="M 0 0 M3076.65 1024.48 L3082.85 1024.48 L3093.99 1054.39 L3105.13 1024.48 L3111.34 1024.48 L3097.97 1060.12 L3090.02 1060.12 L3076.65 1024.48 Z" fill="#000000" fill-rule="evenodd" fill-opacity="1" /><path clip-path="url(#clip760)" d="M 0 0 M3133.68 1042.2 Q3126.59 1042.2 3123.85 1043.83 Q3121.11 1045.45 3121.11 1049.37 Q3121.11 1052.48 3123.15 1054.33 Q3125.22 1056.15 3128.75 1056.15 Q3133.62 1056.15 3136.55 1052.71 Q3139.51 1049.24 3139.51 1043.51 L3139.51 1042.2 L3133.68 1042.2 M3145.37 1039.79 L3145.37 1060.12 L3139.51 1060.12 L3139.51 1054.71 Q3137.5 1057.96 3134.51 1059.52 Q3131.52 1061.05 3127.19 1061.05 Q3121.72 1061.05 3118.47 1057.99 Q3115.26 1054.9 3115.26 1049.75 Q3115.26 1043.73 3119.27 1040.68 Q3123.31 1037.62 3131.3 1037.62 L3139.51 1037.62 L3139.51 1037.05 Q3139.51 1033.01 3136.84 1030.81 Q3134.19 1028.58 3129.39 1028.58 Q3126.33 1028.58 3123.44 1029.31 Q3120.54 1030.05 3117.87 1031.51 L3117.87 1026.1 Q3121.08 1024.86 3124.1 1024.25 Q3127.13 1023.62 3129.99 1023.62 Q3137.73 1023.62 3141.55 1027.63 Q3145.37 1031.64 3145.37 1039.79 Z" fill="#000000" fill-rule="evenodd" fill-opacity="1" /><path clip-path="url(#clip760)" d="M 0 0 M3151.51 1010.6 L3157.36 1010.6 L3157.36 1060.12 L3151.51 1060.12 L3151.51 1010.6 Z" fill="#000000" fill-rule="evenodd" fill-opacity="1" /><path clip-path="url(#clip760)" d="M 0 0 M3162.9 1046.06 L3162.9 1024.48 L3168.76 1024.48 L3168.76 1045.83 Q3168.76 1050.89 3170.73 1053.44 Q3172.71 1055.95 3176.65 1055.95 Q3181.4 1055.95 3184.13 1052.93 Q3186.9 1049.91 3186.9 1044.69 L3186.9 1024.48 L3192.76 1024.48 L3192.76 1060.12 L3186.9 1060.12 L3186.9 1054.65 Q3184.77 1057.9 3181.94 1059.49 Q3179.14 1061.05 3175.41 1061.05 Q3169.27 1061.05 3166.09 1057.23 Q3162.9 1053.41 3162.9 1046.06 M3177.64 1023.62 L3177.64 1023.62 Z" fill="#000000" fill-rule="evenodd" fill-opacity="1" /><path clip-path="url(#clip760)" d="M 0 0 M3229.39 1040.84 L3229.39 1043.7 L3202.47 1043.7 Q3202.85 1049.75 3206.09 1052.93 Q3209.37 1056.08 3215.2 1056.08 Q3218.57 1056.08 3221.72 1055.25 Q3224.91 1054.43 3228.02 1052.77 L3228.02 1058.31 Q3224.87 1059.65 3221.56 1060.35 Q3218.25 1061.05 3214.85 1061.05 Q3206.32 1061.05 3201.32 1056.08 Q3196.35 1051.12 3196.35 1042.65 Q3196.35 1033.9 3201.07 1028.77 Q3205.81 1023.62 3213.83 1023.62 Q3221.02 1023.62 3225.19 1028.26 Q3229.39 1032.88 3229.39 1040.84 M3223.54 1039.12 Q3223.47 1034.31 3220.83 1031.45 Q3218.22 1028.58 3213.89 1028.58 Q3208.99 1028.58 3206.03 1031.35 Q3203.1 1034.12 3202.66 1039.15 L3223.54 1039.12 Z" fill="#000000" fill-rule="evenodd" fill-opacity="1" /><polyline clip-path="url(#clip763)" style="stroke:#000000; stroke-width:2; stroke-opacity:0.1; fill:none" points="
  2118.74,887.254 3952.76,887.254 
  "/>
<polyline clip-path="url(#clip763)" style="stroke:#000000; stroke-width:2; stroke-opacity:0.1; fill:none" points="
  2118.74,745.634 3952.76,745.634 
  "/>
<polyline clip-path="url(#clip763)" style="stroke:#000000; stroke-width:2; stroke-opacity:0.1; fill:none" points="
  2118.74,604.014 3952.76,604.014 
  "/>
<polyline clip-path="url(#clip763)" style="stroke:#000000; stroke-width:2; stroke-opacity:0.1; fill:none" points="
  2118.74,462.394 3952.76,462.394 
  "/>
<polyline clip-path="url(#clip763)" style="stroke:#000000; stroke-width:2; stroke-opacity:0.1; fill:none" points="
  2118.74,320.773 3952.76,320.773 
  "/>
<polyline clip-path="url(#clip763)" style="stroke:#000000; stroke-width:2; stroke-opacity:0.1; fill:none" points="
  2118.74,179.153 3952.76,179.153 
  "/>
<polyline clip-path="url(#clip760)" style="stroke:#000000; stroke-width:4; stroke-opacity:1; fill:none" points="
  2118.74,911.26 2118.74,62.9921 
  "/>
<polyline clip-path="url(#clip760)" style="stroke:#000000; stroke-width:4; stroke-opacity:1; fill:none" points="
  2118.74,887.254 2140.75,887.254 
  "/>
<polyline clip-path="url(#clip760)" style="stroke:#000000; stroke-width:4; stroke-opacity:1; fill:none" points="
  2118.74,745.634 2140.75,745.634 
  "/>
<polyline clip-path="url(#clip760)" style="stroke:#000000; stroke-width:4; stroke-opacity:1; fill:none" points="
  2118.74,604.014 2140.75,604.014 
  "/>
<polyline clip-path="url(#clip760)" style="stroke:#000000; stroke-width:4; stroke-opacity:1; fill:none" points="
  2118.74,462.394 2140.75,462.394 
  "/>
<polyline clip-path="url(#clip760)" style="stroke:#000000; stroke-width:4; stroke-opacity:1; fill:none" points="
  2118.74,320.773 2140.75,320.773 
  "/>
<polyline clip-path="url(#clip760)" style="stroke:#000000; stroke-width:4; stroke-opacity:1; fill:none" points="
  2118.74,179.153 2140.75,179.153 
  "/>
<path clip-path="url(#clip760)" d="M 0 0 M2009.83 873.053 Q2006.22 873.053 2004.39 876.618 Q2002.58 880.159 2002.58 887.289 Q2002.58 894.395 2004.39 897.96 Q2006.22 901.502 2009.83 901.502 Q2013.46 901.502 2015.27 897.96 Q2017.1 894.395 2017.1 887.289 Q2017.1 880.159 2015.27 876.618 Q2013.46 873.053 2009.83 873.053 M2009.83 869.349 Q2015.64 869.349 2018.69 873.956 Q2021.77 878.539 2021.77 887.289 Q2021.77 896.016 2018.69 900.622 Q2015.64 905.206 2009.83 905.206 Q2004.02 905.206 2000.94 900.622 Q1997.88 896.016 1997.88 887.289 Q1997.88 878.539 2000.94 873.956 Q2004.02 869.349 2009.83 869.349 Z" fill="#000000" fill-rule="evenodd" fill-opacity="1" /><path clip-path="url(#clip760)" d="M 0 0 M2026.84 898.655 L2031.73 898.655 L2031.73 904.534 L2026.84 904.534 L2026.84 898.655 Z" fill="#000000" fill-rule="evenodd" fill-opacity="1" /><path clip-path="url(#clip760)" d="M 0 0 M2046.8 873.053 Q2043.18 873.053 2041.36 876.618 Q2039.55 880.159 2039.55 887.289 Q2039.55 894.395 2041.36 897.96 Q2043.18 901.502 2046.8 901.502 Q2050.43 901.502 2052.24 897.96 Q2054.06 894.395 2054.06 887.289 Q2054.06 880.159 2052.24 876.618 Q2050.43 873.053 2046.8 873.053 M2046.8 869.349 Q2052.61 869.349 2055.66 873.956 Q2058.74 878.539 2058.74 887.289 Q2058.74 896.016 2055.66 900.622 Q2052.61 905.206 2046.8 905.206 Q2040.99 905.206 2037.91 900.622 Q2034.85 896.016 2034.85 887.289 Q2034.85 878.539 2037.91 873.956 Q2040.99 869.349 2046.8 869.349 Z" fill="#000000" fill-rule="evenodd" fill-opacity="1" /><path clip-path="url(#clip760)" d="M 0 0 M2010.82 731.433 Q2007.21 731.433 2005.38 734.998 Q2003.58 738.539 2003.58 745.669 Q2003.58 752.775 2005.38 756.34 Q2007.21 759.882 2010.82 759.882 Q2014.46 759.882 2016.26 756.34 Q2018.09 752.775 2018.09 745.669 Q2018.09 738.539 2016.26 734.998 Q2014.46 731.433 2010.82 731.433 M2010.82 727.729 Q2016.63 727.729 2019.69 732.336 Q2022.77 736.919 2022.77 745.669 Q2022.77 754.396 2019.69 759.002 Q2016.63 763.585 2010.82 763.585 Q2005.01 763.585 2001.93 759.002 Q1998.88 754.396 1998.88 745.669 Q1998.88 736.919 2001.93 732.336 Q2005.01 727.729 2010.82 727.729 Z" fill="#000000" fill-rule="evenodd" fill-opacity="1" /><path clip-path="url(#clip760)" d="M 0 0 M2027.84 757.034 L2032.72 757.034 L2032.72 762.914 L2027.84 762.914 L2027.84 757.034 Z" fill="#000000" fill-rule="evenodd" fill-opacity="1" /><path clip-path="url(#clip760)" d="M 0 0 M2037.84 728.354 L2056.19 728.354 L2056.19 732.289 L2042.12 732.289 L2042.12 740.761 Q2043.14 740.414 2044.16 740.252 Q2045.18 740.067 2046.19 740.067 Q2051.98 740.067 2055.36 743.238 Q2058.74 746.41 2058.74 751.826 Q2058.74 757.405 2055.27 760.507 Q2051.8 763.585 2045.48 763.585 Q2043.3 763.585 2041.03 763.215 Q2038.79 762.845 2036.38 762.104 L2036.38 757.405 Q2038.46 758.539 2040.68 759.095 Q2042.91 759.65 2045.38 759.65 Q2049.39 759.65 2051.73 757.544 Q2054.06 755.437 2054.06 751.826 Q2054.06 748.215 2051.73 746.109 Q2049.39 744.002 2045.38 744.002 Q2043.51 744.002 2041.63 744.419 Q2039.78 744.835 2037.84 745.715 L2037.84 728.354 Z" fill="#000000" fill-rule="evenodd" fill-opacity="1" /><path clip-path="url(#clip760)" d="M 0 0 M2001.87 617.359 L2009.5 617.359 L2009.5 590.993 L2001.19 592.66 L2001.19 588.401 L2009.46 586.734 L2014.13 586.734 L2014.13 617.359 L2021.77 617.359 L2021.77 621.294 L2001.87 621.294 L2001.87 617.359 Z" fill="#000000" fill-rule="evenodd" fill-opacity="1" /><path clip-path="url(#clip760)" d="M 0 0 M2026.84 615.414 L2031.73 615.414 L2031.73 621.294 L2026.84 621.294 L2026.84 615.414 Z" fill="#000000" fill-rule="evenodd" fill-opacity="1" /><path clip-path="url(#clip760)" d="M 0 0 M2046.8 589.813 Q2043.18 589.813 2041.36 593.377 Q2039.55 596.919 2039.55 604.049 Q2039.55 611.155 2041.36 614.72 Q2043.18 618.261 2046.8 618.261 Q2050.43 618.261 2052.24 614.72 Q2054.06 611.155 2054.06 604.049 Q2054.06 596.919 2052.24 593.377 Q2050.43 589.813 2046.8 589.813 M2046.8 586.109 Q2052.61 586.109 2055.66 590.715 Q2058.74 595.299 2058.74 604.049 Q2058.74 612.775 2055.66 617.382 Q2052.61 621.965 2046.8 621.965 Q2040.99 621.965 2037.91 617.382 Q2034.85 612.775 2034.85 604.049 Q2034.85 595.299 2037.91 590.715 Q2040.99 586.109 2046.8 586.109 Z" fill="#000000" fill-rule="evenodd" fill-opacity="1" /><path clip-path="url(#clip760)" d="M 0 0 M2002.86 475.738 L2010.5 475.738 L2010.5 449.373 L2002.19 451.04 L2002.19 446.78 L2010.45 445.114 L2015.13 445.114 L2015.13 475.738 L2022.77 475.738 L2022.77 479.674 L2002.86 479.674 L2002.86 475.738 Z" fill="#000000" fill-rule="evenodd" fill-opacity="1" /><path clip-path="url(#clip760)" d="M 0 0 M2027.84 473.794 L2032.72 473.794 L2032.72 479.674 L2027.84 479.674 L2027.84 473.794 Z" fill="#000000" fill-rule="evenodd" fill-opacity="1" /><path clip-path="url(#clip760)" d="M 0 0 M2037.84 445.114 L2056.19 445.114 L2056.19 449.049 L2042.12 449.049 L2042.12 457.521 Q2043.14 457.174 2044.16 457.012 Q2045.18 456.827 2046.19 456.827 Q2051.98 456.827 2055.36 459.998 Q2058.74 463.169 2058.74 468.586 Q2058.74 474.164 2055.27 477.266 Q2051.8 480.345 2045.48 480.345 Q2043.3 480.345 2041.03 479.975 Q2038.79 479.604 2036.38 478.863 L2036.38 474.164 Q2038.46 475.299 2040.68 475.854 Q2042.91 476.41 2045.38 476.41 Q2049.39 476.41 2051.73 474.303 Q2054.06 472.197 2054.06 468.586 Q2054.06 464.975 2051.73 462.868 Q2049.39 460.762 2045.38 460.762 Q2043.51 460.762 2041.63 461.178 Q2039.78 461.595 2037.84 462.475 L2037.84 445.114 Z" fill="#000000" fill-rule="evenodd" fill-opacity="1" /><path clip-path="url(#clip760)" d="M 0 0 M2005.45 334.118 L2021.77 334.118 L2021.77 338.053 L1999.83 338.053 L1999.83 334.118 Q2002.49 331.364 2007.07 326.734 Q2011.68 322.081 2012.86 320.739 Q2015.11 318.216 2015.99 316.48 Q2016.89 314.72 2016.89 313.03 Q2016.89 310.276 2014.94 308.54 Q2013.02 306.804 2009.92 306.804 Q2007.72 306.804 2005.27 307.568 Q2002.84 308.331 2000.06 309.882 L2000.06 305.16 Q2002.88 304.026 2005.34 303.447 Q2007.79 302.868 2009.83 302.868 Q2015.2 302.868 2018.39 305.554 Q2021.59 308.239 2021.59 312.73 Q2021.59 314.859 2020.78 316.78 Q2019.99 318.679 2017.88 321.271 Q2017.31 321.942 2014.2 325.16 Q2011.1 328.354 2005.45 334.118 Z" fill="#000000" fill-rule="evenodd" fill-opacity="1" /><path clip-path="url(#clip760)" d="M 0 0 M2026.84 332.174 L2031.73 332.174 L2031.73 338.053 L2026.84 338.053 L2026.84 332.174 Z" fill="#000000" fill-rule="evenodd" fill-opacity="1" /><path clip-path="url(#clip760)" d="M 0 0 M2046.8 306.572 Q2043.18 306.572 2041.36 310.137 Q2039.55 313.679 2039.55 320.808 Q2039.55 327.915 2041.36 331.479 Q2043.18 335.021 2046.8 335.021 Q2050.43 335.021 2052.24 331.479 Q2054.06 327.915 2054.06 320.808 Q2054.06 313.679 2052.24 310.137 Q2050.43 306.572 2046.8 306.572 M2046.8 302.868 Q2052.61 302.868 2055.66 307.475 Q2058.74 312.058 2058.74 320.808 Q2058.74 329.535 2055.66 334.141 Q2052.61 338.725 2046.8 338.725 Q2040.99 338.725 2037.91 334.141 Q2034.85 329.535 2034.85 320.808 Q2034.85 312.058 2037.91 307.475 Q2040.99 302.868 2046.8 302.868 Z" fill="#000000" fill-rule="evenodd" fill-opacity="1" /><path clip-path="url(#clip760)" d="M 0 0 M2006.45 192.498 L2022.77 192.498 L2022.77 196.433 L2000.82 196.433 L2000.82 192.498 Q2003.49 189.743 2008.07 185.114 Q2012.68 180.461 2013.86 179.119 Q2016.1 176.595 2016.98 174.859 Q2017.88 173.1 2017.88 171.41 Q2017.88 168.656 2015.94 166.92 Q2014.02 165.183 2010.92 165.183 Q2008.72 165.183 2006.26 165.947 Q2003.83 166.711 2001.06 168.262 L2001.06 163.54 Q2003.88 162.406 2006.33 161.827 Q2008.79 161.248 2010.82 161.248 Q2016.19 161.248 2019.39 163.933 Q2022.58 166.619 2022.58 171.109 Q2022.58 173.239 2021.77 175.16 Q2020.99 177.058 2018.88 179.651 Q2018.3 180.322 2015.2 183.54 Q2012.1 186.734 2006.45 192.498 Z" fill="#000000" fill-rule="evenodd" fill-opacity="1" /><path clip-path="url(#clip760)" d="M 0 0 M2027.84 190.554 L2032.72 190.554 L2032.72 196.433 L2027.84 196.433 L2027.84 190.554 Z" fill="#000000" fill-rule="evenodd" fill-opacity="1" /><path clip-path="url(#clip760)" d="M 0 0 M2037.84 161.873 L2056.19 161.873 L2056.19 165.808 L2042.12 165.808 L2042.12 174.281 Q2043.14 173.933 2044.16 173.771 Q2045.18 173.586 2046.19 173.586 Q2051.98 173.586 2055.36 176.757 Q2058.74 179.929 2058.74 185.345 Q2058.74 190.924 2055.27 194.026 Q2051.8 197.105 2045.48 197.105 Q2043.3 197.105 2041.03 196.734 Q2038.79 196.364 2036.38 195.623 L2036.38 190.924 Q2038.46 192.058 2040.68 192.614 Q2042.91 193.169 2045.38 193.169 Q2049.39 193.169 2051.73 191.063 Q2054.06 188.956 2054.06 185.345 Q2054.06 181.734 2051.73 179.628 Q2049.39 177.521 2045.38 177.521 Q2043.51 177.521 2041.63 177.938 Q2039.78 178.355 2037.84 179.234 L2037.84 161.873 Z" fill="#000000" fill-rule="evenodd" fill-opacity="1" /><path clip-path="url(#clip760)" d="M 0 0 M1921.39 588.579 L1958.34 588.579 L1958.34 580.813 Q1958.34 570.978 1953.89 566.427 Q1949.43 561.843 1939.82 561.843 Q1930.27 561.843 1925.85 566.427 Q1921.39 570.978 1921.39 580.813 L1921.39 588.579 M1916.11 595.009 L1916.11 581.8 Q1916.11 567.986 1921.87 561.525 Q1927.6 555.064 1939.82 555.064 Q1952.11 555.064 1957.87 561.557 Q1963.63 568.05 1963.63 581.8 L1963.63 595.009 L1916.11 595.009 Z" fill="#000000" fill-rule="evenodd" fill-opacity="1" /><path clip-path="url(#clip760)" d="M 0 0 M1944.34 518.429 L1947.2 518.429 L1947.2 545.356 Q1953.25 544.974 1956.43 541.728 Q1959.59 538.449 1959.59 532.625 Q1959.59 529.251 1958.76 526.1 Q1957.93 522.917 1956.28 519.798 L1961.81 519.798 Q1963.15 522.949 1963.85 526.259 Q1964.55 529.569 1964.55 532.975 Q1964.55 541.505 1959.59 546.502 Q1954.62 551.467 1946.15 551.467 Q1937.4 551.467 1932.28 546.757 Q1927.12 542.014 1927.12 533.993 Q1927.12 526.8 1931.77 522.631 Q1936.38 518.429 1944.34 518.429 M1942.62 524.286 Q1937.82 524.349 1934.95 526.991 Q1932.09 529.601 1932.09 533.93 Q1932.09 538.831 1934.86 541.791 Q1937.62 544.72 1942.65 545.165 L1942.62 524.286 Z" fill="#000000" fill-rule="evenodd" fill-opacity="1" /><path clip-path="url(#clip760)" d="M 0 0 M1942.11 482.654 L1963.63 482.654 L1963.63 488.511 L1942.3 488.511 Q1937.24 488.511 1934.73 490.484 Q1932.21 492.457 1932.21 496.404 Q1932.21 501.146 1935.24 503.884 Q1938.26 506.621 1943.48 506.621 L1963.63 506.621 L1963.63 512.509 L1927.98 512.509 L1927.98 506.621 L1933.52 506.621 Q1930.3 504.52 1928.71 501.688 Q1927.12 498.823 1927.12 495.099 Q1927.12 488.956 1930.94 485.805 Q1934.73 482.654 1942.11 482.654 Z" fill="#000000" fill-rule="evenodd" fill-opacity="1" /><path clip-path="url(#clip760)" d="M 0 0 M1929.03 453.786 L1934.57 453.786 Q1933.3 456.268 1932.66 458.942 Q1932.02 461.615 1932.02 464.48 Q1932.02 468.84 1933.36 471.037 Q1934.7 473.201 1937.37 473.201 Q1939.41 473.201 1940.58 471.641 Q1941.73 470.082 1942.78 465.371 L1943.23 463.366 Q1944.56 457.128 1947.01 454.518 Q1949.43 451.876 1953.79 451.876 Q1958.76 451.876 1961.65 455.823 Q1964.55 459.738 1964.55 466.612 Q1964.55 469.477 1963.98 472.596 Q1963.44 475.684 1962.32 479.121 L1956.28 479.121 Q1957.96 475.875 1958.82 472.724 Q1959.65 469.573 1959.65 466.485 Q1959.65 462.347 1958.25 460.119 Q1956.82 457.891 1954.24 457.891 Q1951.85 457.891 1950.58 459.515 Q1949.31 461.106 1948.13 466.549 L1947.65 468.586 Q1946.5 474.029 1944.15 476.448 Q1941.76 478.866 1937.62 478.866 Q1932.6 478.866 1929.86 475.302 Q1927.12 471.737 1927.12 465.18 Q1927.12 461.934 1927.6 459.069 Q1928.08 456.205 1929.03 453.786 Z" fill="#000000" fill-rule="evenodd" fill-opacity="1" /><path clip-path="url(#clip760)" d="M 0 0 M1927.98 445.733 L1927.98 439.877 L1963.63 439.877 L1963.63 445.733 L1927.98 445.733 M1914.1 445.733 L1914.1 439.877 L1921.52 439.877 L1921.52 445.733 L1914.1 445.733 Z" fill="#000000" fill-rule="evenodd" fill-opacity="1" /><path clip-path="url(#clip760)" d="M 0 0 M1917.86 427.941 L1927.98 427.941 L1927.98 415.878 L1932.53 415.878 L1932.53 427.941 L1951.88 427.941 Q1956.24 427.941 1957.49 426.763 Q1958.73 425.554 1958.73 421.893 L1958.73 415.878 L1963.63 415.878 L1963.63 421.893 Q1963.63 428.673 1961.11 431.251 Q1958.57 433.829 1951.88 433.829 L1932.53 433.829 L1932.53 438.126 L1927.98 438.126 L1927.98 433.829 L1917.86 433.829 L1917.86 427.941 Z" fill="#000000" fill-rule="evenodd" fill-opacity="1" /><path clip-path="url(#clip760)" d="M 0 0 M1966.94 394.903 Q1973.3 397.385 1975.25 399.741 Q1977.19 402.096 1977.19 406.043 L1977.19 410.722 L1972.29 410.722 L1972.29 407.284 Q1972.29 404.865 1971.14 403.528 Q1969.99 402.192 1965.73 400.568 L1963.06 399.518 L1927.98 413.936 L1927.98 407.73 L1955.86 396.59 L1927.98 385.45 L1927.98 379.243 L1966.94 394.903 Z" fill="#000000" fill-rule="evenodd" fill-opacity="1" /><path clip-path="url(#clip760)" d="M 0 0 M3048.63 43.8146 L3022.83 43.8146 Q3023.43 55.9268 3026.23 61.0714 Q3029.71 67.3908 3035.75 67.3908 Q3041.82 67.3908 3045.19 61.0309 Q3048.14 55.4407 3048.63 43.8146 M3048.51 36.928 Q3047.37 25.4235 3045.19 21.3726 Q3041.7 14.9721 3035.75 14.9721 Q3029.55 14.9721 3026.27 21.2916 Q3023.68 26.3957 3022.91 36.928 L3048.51 36.928 M3035.75 8.89579 Q3045.47 8.89579 3051.02 17.4837 Q3056.57 26.0311 3056.57 41.1815 Q3056.57 56.2914 3051.02 64.8793 Q3045.47 73.5077 3035.75 73.5077 Q3025.99 73.5077 3020.48 64.8793 Q3014.93 56.2914 3014.93 41.1815 Q3014.93 26.0311 3020.48 17.4837 Q3025.99 8.89579 3035.75 8.89579 Z" fill="#000000" fill-rule="evenodd" fill-opacity="1" /><polyline clip-path="url(#clip763)" style="stroke:#009af9; stroke-width:4; stroke-opacity:1; fill:none" points="
  2170.65,887.252 2179.34,887.252 2188.04,887.25 2196.73,887.247 2205.42,887.241 2214.12,887.232 2222.81,887.217 2231.51,887.194 2240.2,887.159 2248.9,887.107 
  2257.59,887.033 2266.29,886.93 2274.98,886.789 2283.67,886.604 2292.37,886.367 2301.06,886.071 2309.76,885.712 2318.45,885.29 2327.15,884.808 2335.84,884.274 
  2344.54,883.702 2353.23,883.109 2361.93,882.515 2370.62,881.942 2379.31,881.41 2388.01,880.933 2396.7,880.517 2405.4,880.159 2414.09,879.84 2422.79,879.525 
  2431.48,879.166 2440.18,878.697 2448.87,878.04 2457.56,877.109 2466.26,875.816 2474.95,874.077 2483.65,871.819 2492.34,868.989 2501.04,865.557 2509.73,861.518 
  2518.43,856.893 2527.12,851.725 2535.81,846.071 2544.51,839.993 2553.2,833.546 2561.9,826.774 2570.59,819.698 2579.29,812.322 2587.98,804.631 2596.68,796.606 
  2605.37,788.231 2614.07,779.507 2622.76,770.463 2631.45,761.161 2640.15,751.688 2648.84,742.156 2657.54,732.675 2666.23,723.347 2674.93,714.24 2683.62,705.38 
  2692.32,696.742 2701.01,688.259 2709.7,679.828 2718.4,671.328 2727.09,662.638 2735.79,653.657 2744.48,644.317 2753.18,634.587 2761.87,624.479 2770.57,614.044 
  2779.26,603.361 2787.96,592.534 2796.65,581.681 2805.34,570.925 2814.04,560.383 2822.73,550.164 2831.43,540.355 2840.12,531.014 2848.82,522.162 2857.51,513.778 
  2866.21,505.794 2874.9,498.095 2883.59,490.523 2892.29,482.891 2900.98,474.989 2909.68,466.598 2918.37,457.512 2927.07,447.548 2935.76,436.56 2944.46,424.453 
  2953.15,411.194 2961.84,396.812 2970.54,381.406 2979.23,365.139 2987.93,348.227 2996.62,330.931 3005.32,313.531 3014.01,296.312 3022.71,279.532 3031.4,263.409 
  3040.1,248.094 3048.79,233.661 3057.48,220.108 3066.18,207.353 3074.87,195.258 3083.57,183.649 3092.26,172.346 3100.96,161.204 3109.65,150.142 3118.35,139.176 
  3127.04,128.435 3135.73,118.159 3144.43,108.692 3153.12,100.439 3161.82,93.8263 3170.51,89.2453 3179.21,86.9997 3187.9,87.263 3196.6,90.0519 3205.29,95.2212 
  3213.99,102.48 3222.68,111.427 3231.37,121.598 3240.07,132.514 3248.76,143.737 3257.46,154.904 3266.15,165.752 3274.85,176.131 3283.54,186.001 3292.24,195.408 
  3300.93,204.465 3309.62,213.324 3318.32,222.142 3327.01,231.063 3335.71,240.202 3344.4,249.635 3353.1,259.406 3361.79,269.535 3370.49,280.034 3379.18,290.925 
  3387.87,302.251 3396.57,314.084 3405.26,326.522 3413.96,339.681 3422.65,353.675 3431.35,368.598 3440.04,384.504 3448.74,401.391 3457.43,419.201 3466.13,437.815 
  3474.82,457.073 3483.51,476.786 3492.21,496.758 3500.9,516.811 3509.6,536.79 3518.29,556.581 3526.99,576.108 3535.68,595.326 3544.38,614.219 3553.07,632.783 
  3561.76,651.017 3570.46,668.916 3579.15,686.461 3587.85,703.621 3596.54,720.349 3605.24,736.582 3613.93,752.249 3622.63,767.269 3631.32,781.556 3640.02,795.025 
  3648.71,807.596 3657.4,819.2 3666.1,829.78 3674.79,839.302 3683.49,847.753 3692.18,855.142 3700.88,861.504 3709.57,866.895 3718.27,871.39 3726.96,875.075 
  3735.65,878.046 3744.35,880.399 3753.04,882.232 3761.74,883.634 3770.43,884.688 3779.13,885.466 3787.82,886.03 3796.52,886.431 3805.21,886.71 3813.9,886.902 
  3822.6,887.03 3831.29,887.115 3839.99,887.169 3848.68,887.203 3857.38,887.224 3866.07,887.237 3874.77,887.245 3883.46,887.249 3892.16,887.251 3900.85,887.252 
  
  "/>
</svg>
