<?xml version="1.0" encoding="utf-8"?>
<svg xmlns="http://www.w3.org/2000/svg" xmlns:xlink="http://www.w3.org/1999/xlink" width="1000" height="250" viewBox="0 0 4000 1000">
<defs>
  <clipPath id="clip700">
    <rect x="0" y="0" width="4000" height="1000"/>
  </clipPath>
</defs>
<path clip-path="url(#clip700)" d="
M0 1000 L4000 1000 L4000 0 L0 0  Z
  " fill="#ffffff" fill-rule="evenodd" fill-opacity="1"/>
<defs>
  <clipPath id="clip701">
    <rect x="800" y="0" width="2801" height="1000"/>
  </clipPath>
</defs>
<path clip-path="url(#clip700)" d="
M118.74 911.26 L1952.76 911.26 L1952.76 62.9921 L118.74 62.9921  Z
  " fill="#ffffff" fill-rule="evenodd" fill-opacity="1"/>
<defs>
  <clipPath id="clip702">
    <rect x="118" y="62" width="1835" height="849"/>
  </clipPath>
</defs>
<polyline clip-path="url(#clip702)" style="stroke:#000000; stroke-width:2; stroke-opacity:0.1; fill:none" points="
  168.914,911.26 168.914,62.9921 
  "/>
<polyline clip-path="url(#clip702)" style="stroke:#000000; stroke-width:2; stroke-opacity:0.1; fill:none" points="
  601.898,911.26 601.898,62.9921 
  "/>
<polyline clip-path="url(#clip702)" style="stroke:#000000; stroke-width:2; stroke-opacity:0.1; fill:none" points="
  1034.88,911.26 1034.88,62.9921 
  "/>
<polyline clip-path="url(#clip702)" style="stroke:#000000; stroke-width:2; stroke-opacity:0.1; fill:none" points="
  1467.87,911.26 1467.87,62.9921 
  "/>
<polyline clip-path="url(#clip702)" style="stroke:#000000; stroke-width:2; stroke-opacity:0.1; fill:none" points="
  1900.85,911.26 1900.85,62.9921 
  "/>
<polyline clip-path="url(#clip700)" style="stroke:#000000; stroke-width:4; stroke-opacity:1; fill:none" points="
  118.74,911.26 1952.76,911.26 
  "/>
<polyline clip-path="url(#clip700)" style="stroke:#000000; stroke-width:4; stroke-opacity:1; fill:none" points="
  168.914,911.26 168.914,901.081 
  "/>
<polyline clip-path="url(#clip700)" style="stroke:#000000; stroke-width:4; stroke-opacity:1; fill:none" points="
  601.898,911.26 601.898,901.081 
  "/>
<polyline clip-path="url(#clip700)" style="stroke:#000000; stroke-width:4; stroke-opacity:1; fill:none" points="
  1034.88,911.26 1034.88,901.081 
  "/>
<polyline clip-path="url(#clip700)" style="stroke:#000000; stroke-width:4; stroke-opacity:1; fill:none" points="
  1467.87,911.26 1467.87,901.081 
  "/>
<polyline clip-path="url(#clip700)" style="stroke:#000000; stroke-width:4; stroke-opacity:1; fill:none" points="
  1900.85,911.26 1900.85,901.081 
  "/>
<path clip-path="url(#clip700)" d="M 0 0 M168.914 953.251 Q165.303 953.251 163.475 956.815 Q161.669 960.357 161.669 967.487 Q161.669 974.593 163.475 978.158 Q165.303 981.699 168.914 981.699 Q172.549 981.699 174.354 978.158 Q176.183 974.593 176.183 967.487 Q176.183 960.357 174.354 956.815 Q172.549 953.251 168.914 953.251 M168.914 949.547 Q174.724 949.547 177.78 954.153 Q180.859 958.737 180.859 967.487 Q180.859 976.213 177.78 980.82 Q174.724 985.403 168.914 985.403 Q163.104 985.403 160.025 980.82 Q156.97 976.213 156.97 967.487 Q156.97 958.737 160.025 954.153 Q163.104 949.547 168.914 949.547 Z" fill="#000000" fill-rule="evenodd" fill-opacity="1" /><path clip-path="url(#clip700)" d="M 0 0 M570.035 980.797 L586.354 980.797 L586.354 984.732 L564.41 984.732 L564.41 980.797 Q567.072 978.042 571.655 973.412 Q576.262 968.76 577.442 967.417 Q579.688 964.894 580.567 963.158 Q581.47 961.399 581.47 959.709 Q581.47 956.954 579.526 955.218 Q577.604 953.482 574.503 953.482 Q572.303 953.482 569.85 954.246 Q567.419 955.01 564.641 956.561 L564.641 951.839 Q567.466 950.704 569.919 950.126 Q572.373 949.547 574.41 949.547 Q579.78 949.547 582.975 952.232 Q586.169 954.917 586.169 959.408 Q586.169 961.538 585.359 963.459 Q584.572 965.357 582.465 967.95 Q581.887 968.621 578.785 971.838 Q575.683 975.033 570.035 980.797 Z" fill="#000000" fill-rule="evenodd" fill-opacity="1" /><path clip-path="url(#clip700)" d="M 0 0 M591.47 950.172 L609.826 950.172 L609.826 954.107 L595.752 954.107 L595.752 962.579 Q596.771 962.232 597.789 962.07 Q598.808 961.885 599.826 961.885 Q605.613 961.885 608.993 965.056 Q612.373 968.227 612.373 973.644 Q612.373 979.223 608.9 982.324 Q605.428 985.403 599.109 985.403 Q596.933 985.403 594.664 985.033 Q592.419 984.662 590.012 983.922 L590.012 979.223 Q592.095 980.357 594.317 980.912 Q596.539 981.468 599.016 981.468 Q603.021 981.468 605.359 979.362 Q607.697 977.255 607.697 973.644 Q607.697 970.033 605.359 967.926 Q603.021 965.82 599.016 965.82 Q597.141 965.82 595.266 966.237 Q593.414 966.653 591.47 967.533 L591.47 950.172 Z" fill="#000000" fill-rule="evenodd" fill-opacity="1" /><path clip-path="url(#clip700)" d="M 0 0 M627.442 953.251 Q623.831 953.251 622.002 956.815 Q620.197 960.357 620.197 967.487 Q620.197 974.593 622.002 978.158 Q623.831 981.699 627.442 981.699 Q631.076 981.699 632.882 978.158 Q634.711 974.593 634.711 967.487 Q634.711 960.357 632.882 956.815 Q631.076 953.251 627.442 953.251 M627.442 949.547 Q633.252 949.547 636.308 954.153 Q639.386 958.737 639.386 967.487 Q639.386 976.213 636.308 980.82 Q633.252 985.403 627.442 985.403 Q621.632 985.403 618.553 980.82 Q615.498 976.213 615.498 967.487 Q615.498 958.737 618.553 954.153 Q621.632 949.547 627.442 949.547 Z" fill="#000000" fill-rule="evenodd" fill-opacity="1" /><path clip-path="url(#clip700)" d="M 0 0 M998.146 950.172 L1016.5 950.172 L1016.5 954.107 L1002.43 954.107 L1002.43 962.579 Q1003.45 962.232 1004.47 962.07 Q1005.48 961.885 1006.5 961.885 Q1012.29 961.885 1015.67 965.056 Q1019.05 968.227 1019.05 973.644 Q1019.05 979.223 1015.58 982.324 Q1012.1 985.403 1005.78 985.403 Q1003.61 985.403 1001.34 985.033 Q999.095 984.662 996.688 983.922 L996.688 979.223 Q998.771 980.357 1000.99 980.912 Q1003.22 981.468 1005.69 981.468 Q1009.7 981.468 1012.03 979.362 Q1014.37 977.255 1014.37 973.644 Q1014.37 970.033 1012.03 967.926 Q1009.7 965.82 1005.69 965.82 Q1003.82 965.82 1001.94 966.237 Q1000.09 966.653 998.146 967.533 L998.146 950.172 Z" fill="#000000" fill-rule="evenodd" fill-opacity="1" /><path clip-path="url(#clip700)" d="M 0 0 M1034.12 953.251 Q1030.51 953.251 1028.68 956.815 Q1026.87 960.357 1026.87 967.487 Q1026.87 974.593 1028.68 978.158 Q1030.51 981.699 1034.12 981.699 Q1037.75 981.699 1039.56 978.158 Q1041.39 974.593 1041.39 967.487 Q1041.39 960.357 1039.56 956.815 Q1037.75 953.251 1034.12 953.251 M1034.12 949.547 Q1039.93 949.547 1042.98 954.153 Q1046.06 958.737 1046.06 967.487 Q1046.06 976.213 1042.98 980.82 Q1039.93 985.403 1034.12 985.403 Q1028.31 985.403 1025.23 980.82 Q1022.17 976.213 1022.17 967.487 Q1022.17 958.737 1025.23 954.153 Q1028.31 949.547 1034.12 949.547 Z" fill="#000000" fill-rule="evenodd" fill-opacity="1" /><path clip-path="url(#clip700)" d="M 0 0 M1061.13 953.251 Q1057.52 953.251 1055.69 956.815 Q1053.89 960.357 1053.89 967.487 Q1053.89 974.593 1055.69 978.158 Q1057.52 981.699 1061.13 981.699 Q1064.77 981.699 1066.57 978.158 Q1068.4 974.593 1068.4 967.487 Q1068.4 960.357 1066.57 956.815 Q1064.77 953.251 1061.13 953.251 M1061.13 949.547 Q1066.94 949.547 1070 954.153 Q1073.08 958.737 1073.08 967.487 Q1073.08 976.213 1070 980.82 Q1066.94 985.403 1061.13 985.403 Q1055.32 985.403 1052.24 980.82 Q1049.19 976.213 1049.19 967.487 Q1049.19 958.737 1052.24 954.153 Q1055.32 949.547 1061.13 949.547 Z" fill="#000000" fill-rule="evenodd" fill-opacity="1" /><path clip-path="url(#clip700)" d="M 0 0 M1430.24 950.172 L1452.46 950.172 L1452.46 952.163 L1439.91 984.732 L1435.03 984.732 L1446.84 954.107 L1430.24 954.107 L1430.24 950.172 Z" fill="#000000" fill-rule="evenodd" fill-opacity="1" /><path clip-path="url(#clip700)" d="M 0 0 M1457.58 950.172 L1475.93 950.172 L1475.93 954.107 L1461.86 954.107 L1461.86 962.579 Q1462.88 962.232 1463.9 962.07 Q1464.91 961.885 1465.93 961.885 Q1471.72 961.885 1475.1 965.056 Q1478.48 968.227 1478.48 973.644 Q1478.48 979.223 1475.01 982.324 Q1471.53 985.403 1465.22 985.403 Q1463.04 985.403 1460.77 985.033 Q1458.53 984.662 1456.12 983.922 L1456.12 979.223 Q1458.2 980.357 1460.42 980.912 Q1462.65 981.468 1465.12 981.468 Q1469.13 981.468 1471.47 979.362 Q1473.8 977.255 1473.8 973.644 Q1473.8 970.033 1471.47 967.926 Q1469.13 965.82 1465.12 965.82 Q1463.25 965.82 1461.37 966.237 Q1459.52 966.653 1457.58 967.533 L1457.58 950.172 Z" fill="#000000" fill-rule="evenodd" fill-opacity="1" /><path clip-path="url(#clip700)" d="M 0 0 M1493.55 953.251 Q1489.94 953.251 1488.11 956.815 Q1486.3 960.357 1486.3 967.487 Q1486.3 974.593 1488.11 978.158 Q1489.94 981.699 1493.55 981.699 Q1497.18 981.699 1498.99 978.158 Q1500.82 974.593 1500.82 967.487 Q1500.82 960.357 1498.99 956.815 Q1497.18 953.251 1493.55 953.251 M1493.55 949.547 Q1499.36 949.547 1502.41 954.153 Q1505.49 958.737 1505.49 967.487 Q1505.49 976.213 1502.41 980.82 Q1499.36 985.403 1493.55 985.403 Q1487.74 985.403 1484.66 980.82 Q1481.6 976.213 1481.6 967.487 Q1481.6 958.737 1484.66 954.153 Q1487.74 949.547 1493.55 949.547 Z" fill="#000000" fill-rule="evenodd" fill-opacity="1" /><path clip-path="url(#clip700)" d="M 0 0 M1850.71 980.797 L1858.35 980.797 L1858.35 954.431 L1850.04 956.098 L1850.04 951.839 L1858.3 950.172 L1862.98 950.172 L1862.98 980.797 L1870.62 980.797 L1870.62 984.732 L1850.71 984.732 L1850.71 980.797 Z" fill="#000000" fill-rule="evenodd" fill-opacity="1" /><path clip-path="url(#clip700)" d="M 0 0 M1885.69 953.251 Q1882.08 953.251 1880.25 956.815 Q1878.44 960.357 1878.44 967.487 Q1878.44 974.593 1880.25 978.158 Q1882.08 981.699 1885.69 981.699 Q1889.32 981.699 1891.13 978.158 Q1892.96 974.593 1892.96 967.487 Q1892.96 960.357 1891.13 956.815 Q1889.32 953.251 1885.69 953.251 M1885.69 949.547 Q1891.5 949.547 1894.55 954.153 Q1897.63 958.737 1897.63 967.487 Q1897.63 976.213 1894.55 980.82 Q1891.5 985.403 1885.69 985.403 Q1879.88 985.403 1876.8 980.82 Q1873.74 976.213 1873.74 967.487 Q1873.74 958.737 1876.8 954.153 Q1879.88 949.547 1885.69 949.547 Z" fill="#000000" fill-rule="evenodd" fill-opacity="1" /><path clip-path="url(#clip700)" d="M 0 0 M1912.7 953.251 Q1909.09 953.251 1907.26 956.815 Q1905.46 960.357 1905.46 967.487 Q1905.46 974.593 1907.26 978.158 Q1909.09 981.699 1912.7 981.699 Q1916.34 981.699 1918.14 978.158 Q1919.97 974.593 1919.97 967.487 Q1919.97 960.357 1918.14 956.815 Q1916.34 953.251 1912.7 953.251 M1912.7 949.547 Q1918.51 949.547 1921.57 954.153 Q1924.65 958.737 1924.65 967.487 Q1924.65 976.213 1921.57 980.82 Q1918.51 985.403 1912.7 985.403 Q1906.89 985.403 1903.81 980.82 Q1900.76 976.213 1900.76 967.487 Q1900.76 958.737 1903.81 954.153 Q1906.89 949.547 1912.7 949.547 Z" fill="#000000" fill-rule="evenodd" fill-opacity="1" /><path clip-path="url(#clip700)" d="M 0 0 M1939.72 953.251 Q1936.1 953.251 1934.28 956.815 Q1932.47 960.357 1932.47 967.487 Q1932.47 974.593 1934.28 978.158 Q1936.1 981.699 1939.72 981.699 Q1943.35 981.699 1945.16 978.158 Q1946.98 974.593 1946.98 967.487 Q1946.98 960.357 1945.16 956.815 Q1943.35 953.251 1939.72 953.251 M1939.72 949.547 Q1945.53 949.547 1948.58 954.153 Q1951.66 958.737 1951.66 967.487 Q1951.66 976.213 1948.58 980.82 Q1945.53 985.403 1939.72 985.403 Q1933.91 985.403 1930.83 980.82 Q1927.77 976.213 1927.77 967.487 Q1927.77 958.737 1930.83 954.153 Q1933.91 949.547 1939.72 949.547 Z" fill="#000000" fill-rule="evenodd" fill-opacity="1" /><path clip-path="url(#clip700)" d="M 0 0 M917.76 1012.6 L924.189 1012.6 L924.189 1060.12 L917.76 1060.12 L917.76 1012.6 Z" fill="#000000" fill-rule="evenodd" fill-opacity="1" /><path clip-path="url(#clip700)" d="M 0 0 M936.125 1014.35 L936.125 1024.48 L948.188 1024.48 L948.188 1029.03 L936.125 1029.03 L936.125 1048.38 Q936.125 1052.74 937.302 1053.98 Q938.512 1055.22 942.172 1055.22 L948.188 1055.22 L948.188 1060.12 L942.172 1060.12 Q935.393 1060.12 932.815 1057.61 Q930.236 1055.06 930.236 1048.38 L930.236 1029.03 L925.94 1029.03 L925.94 1024.48 L930.236 1024.48 L930.236 1014.35 L936.125 1014.35 Z" fill="#000000" fill-rule="evenodd" fill-opacity="1" /><path clip-path="url(#clip700)" d="M 0 0 M984.822 1040.84 L984.822 1043.7 L957.895 1043.7 Q958.277 1049.75 961.524 1052.93 Q964.802 1056.08 970.627 1056.08 Q974.001 1056.08 977.152 1055.25 Q980.335 1054.43 983.454 1052.77 L983.454 1058.31 Q980.303 1059.65 976.993 1060.35 Q973.682 1061.05 970.277 1061.05 Q961.747 1061.05 956.75 1056.08 Q951.784 1051.12 951.784 1042.65 Q951.784 1033.9 956.495 1028.77 Q961.237 1023.62 969.258 1023.62 Q976.451 1023.62 980.621 1028.26 Q984.822 1032.88 984.822 1040.84 M978.966 1039.12 Q978.902 1034.31 976.261 1031.45 Q973.651 1028.58 969.322 1028.58 Q964.42 1028.58 961.46 1031.35 Q958.532 1034.12 958.086 1039.15 L978.966 1039.12 Z" fill="#000000" fill-rule="evenodd" fill-opacity="1" /><path clip-path="url(#clip700)" d="M 0 0 M1011.62 1029.95 Q1010.64 1029.38 1009.46 1029.12 Q1008.31 1028.84 1006.91 1028.84 Q1001.95 1028.84 999.273 1032.08 Q996.631 1035.3 996.631 1041.35 L996.631 1060.12 L990.742 1060.12 L990.742 1024.48 L996.631 1024.48 L996.631 1030.01 Q998.477 1026.77 1001.44 1025.21 Q1004.4 1023.62 1008.63 1023.62 Q1009.23 1023.62 1009.97 1023.71 Q1010.7 1023.78 1011.59 1023.93 L1011.62 1029.95 Z" fill="#000000" fill-rule="evenodd" fill-opacity="1" /><path clip-path="url(#clip700)" d="M 0 0 M1033.97 1042.2 Q1026.87 1042.2 1024.13 1043.83 Q1021.39 1045.45 1021.39 1049.37 Q1021.39 1052.48 1023.43 1054.33 Q1025.5 1056.15 1029.03 1056.15 Q1033.9 1056.15 1036.83 1052.71 Q1039.79 1049.24 1039.79 1043.51 L1039.79 1042.2 L1033.97 1042.2 M1045.65 1039.79 L1045.65 1060.12 L1039.79 1060.12 L1039.79 1054.71 Q1037.79 1057.96 1034.79 1059.52 Q1031.8 1061.05 1027.47 1061.05 Q1022 1061.05 1018.75 1057.99 Q1015.54 1054.9 1015.54 1049.75 Q1015.54 1043.73 1019.55 1040.68 Q1023.59 1037.62 1031.58 1037.62 L1039.79 1037.62 L1039.79 1037.05 Q1039.79 1033.01 1037.12 1030.81 Q1034.47 1028.58 1029.67 1028.58 Q1026.61 1028.58 1023.72 1029.31 Q1020.82 1030.05 1018.15 1031.51 L1018.15 1026.1 Q1021.36 1024.86 1024.39 1024.25 Q1027.41 1023.62 1030.27 1023.62 Q1038.01 1023.62 1041.83 1027.63 Q1045.65 1031.64 1045.65 1039.79 Z" fill="#000000" fill-rule="evenodd" fill-opacity="1" /><path clip-path="url(#clip700)" d="M 0 0 M1057.58 1014.35 L1057.58 1024.48 L1069.65 1024.48 L1069.65 1029.03 L1057.58 1029.03 L1057.58 1048.38 Q1057.58 1052.74 1058.76 1053.98 Q1059.97 1055.22 1063.63 1055.22 L1069.65 1055.22 L1069.65 1060.12 L1063.63 1060.12 Q1056.85 1060.12 1054.27 1057.61 Q1051.69 1055.06 1051.69 1048.38 L1051.69 1029.03 L1047.4 1029.03 L1047.4 1024.48 L1051.69 1024.48 L1051.69 1014.35 L1057.58 1014.35 Z" fill="#000000" fill-rule="evenodd" fill-opacity="1" /><path clip-path="url(#clip700)" d="M 0 0 M1075.79 1024.48 L1081.64 1024.48 L1081.64 1060.12 L1075.79 1060.12 L1075.79 1024.48 M1075.79 1010.6 L1081.64 1010.6 L1081.64 1018.01 L1075.79 1018.01 L1075.79 1010.6 Z" fill="#000000" fill-rule="evenodd" fill-opacity="1" /><path clip-path="url(#clip700)" d="M 0 0 M1101.6 1028.58 Q1096.89 1028.58 1094.15 1032.27 Q1091.42 1035.93 1091.42 1042.33 Q1091.42 1048.73 1094.12 1052.42 Q1096.86 1056.08 1101.6 1056.08 Q1106.28 1056.08 1109.02 1052.39 Q1111.75 1048.7 1111.75 1042.33 Q1111.75 1036 1109.02 1032.31 Q1106.28 1028.58 1101.6 1028.58 M1101.6 1023.62 Q1109.24 1023.62 1113.6 1028.58 Q1117.96 1033.55 1117.96 1042.33 Q1117.96 1051.08 1113.6 1056.08 Q1109.24 1061.05 1101.6 1061.05 Q1093.93 1061.05 1089.57 1056.08 Q1085.24 1051.08 1085.24 1042.33 Q1085.24 1033.55 1089.57 1028.58 Q1093.93 1023.62 1101.6 1023.62 Z" fill="#000000" fill-rule="evenodd" fill-opacity="1" /><path clip-path="url(#clip700)" d="M 0 0 M1153.74 1038.61 L1153.74 1060.12 L1147.88 1060.12 L1147.88 1038.8 Q1147.88 1033.74 1145.91 1031.22 Q1143.93 1028.71 1139.99 1028.71 Q1135.24 1028.71 1132.51 1031.73 Q1129.77 1034.76 1129.77 1039.98 L1129.77 1060.12 L1123.88 1060.12 L1123.88 1024.48 L1129.77 1024.48 L1129.77 1030.01 Q1131.87 1026.8 1134.7 1025.21 Q1137.57 1023.62 1141.29 1023.62 Q1147.43 1023.62 1150.59 1027.44 Q1153.74 1031.22 1153.74 1038.61 Z" fill="#000000" fill-rule="evenodd" fill-opacity="1" /><polyline clip-path="url(#clip702)" style="stroke:#000000; stroke-width:2; stroke-opacity:0.1; fill:none" points="
  118.74,908.754 1952.76,908.754 
  "/>
<polyline clip-path="url(#clip702)" style="stroke:#000000; stroke-width:2; stroke-opacity:0.1; fill:none" points="
  118.74,686.201 1952.76,686.201 
  "/>
<polyline clip-path="url(#clip702)" style="stroke:#000000; stroke-width:2; stroke-opacity:0.1; fill:none" points="
  118.74,463.648 1952.76,463.648 
  "/>
<polyline clip-path="url(#clip702)" style="stroke:#000000; stroke-width:2; stroke-opacity:0.1; fill:none" points="
  118.74,241.096 1952.76,241.096 
  "/>
<polyline clip-path="url(#clip700)" style="stroke:#000000; stroke-width:4; stroke-opacity:1; fill:none" points="
  118.74,911.26 118.74,62.9921 
  "/>
<polyline clip-path="url(#clip700)" style="stroke:#000000; stroke-width:4; stroke-opacity:1; fill:none" points="
  118.74,908.754 140.748,908.754 
  "/>
<polyline clip-path="url(#clip700)" style="stroke:#000000; stroke-width:4; stroke-opacity:1; fill:none" points="
  118.74,686.201 140.748,686.201 
  "/>
<polyline clip-path="url(#clip700)" style="stroke:#000000; stroke-width:4; stroke-opacity:1; fill:none" points="
  118.74,463.648 140.748,463.648 
  "/>
<polyline clip-path="url(#clip700)" style="stroke:#000000; stroke-width:4; stroke-opacity:1; fill:none" points="
  118.74,241.096 140.748,241.096 
  "/>
<path clip-path="url(#clip700)" d="M 0 0 M11.4256 894.553 Q7.8145 894.553 5.98581 898.117 Q4.18026 901.659 4.18026 908.789 Q4.18026 915.895 5.98581 919.46 Q7.8145 923.001 11.4256 923.001 Q15.0598 923.001 16.8654 919.46 Q18.6941 915.895 18.6941 908.789 Q18.6941 901.659 16.8654 898.117 Q15.0598 894.553 11.4256 894.553 M11.4256 890.849 Q17.2358 890.849 20.2913 895.455 Q23.37 900.039 23.37 908.789 Q23.37 917.515 20.2913 922.122 Q17.2358 926.705 11.4256 926.705 Q5.61544 926.705 2.53675 922.122 Q-0.518784 917.515 -0.518784 908.789 Q-0.518784 900.039 2.53675 895.455 Q5.61544 890.849 11.4256 890.849 Z" fill="#000000" fill-rule="evenodd" fill-opacity="1" /><path clip-path="url(#clip700)" d="M 0 0 M28.4394 920.154 L33.3236 920.154 L33.3236 926.034 L28.4394 926.034 L28.4394 920.154 Z" fill="#000000" fill-rule="evenodd" fill-opacity="1" /><path clip-path="url(#clip700)" d="M 0 0 M42.4208 922.099 L58.7402 922.099 L58.7402 926.034 L36.7958 926.034 L36.7958 922.099 Q39.4579 919.344 44.0412 914.714 Q48.6476 910.062 49.8282 908.719 Q52.0735 906.196 52.9532 904.46 Q53.8559 902.701 53.8559 901.011 Q53.8559 898.256 51.9115 896.52 Q49.9902 894.784 46.8884 894.784 Q44.6893 894.784 42.2356 895.548 Q39.8051 896.312 37.0273 897.863 L37.0273 893.14 Q39.8514 892.006 42.3051 891.428 Q44.7588 890.849 46.7958 890.849 Q52.1661 890.849 55.3605 893.534 Q58.555 896.219 58.555 900.71 Q58.555 902.84 57.7448 904.761 Q56.9578 906.659 54.8513 909.252 Q54.2726 909.923 51.1708 913.14 Q48.0689 916.335 42.4208 922.099 Z" fill="#000000" fill-rule="evenodd" fill-opacity="1" /><path clip-path="url(#clip700)" d="M 0 0 M9.34227 672 Q5.73118 672 3.90249 675.565 Q2.09694 679.106 2.09694 686.236 Q2.09694 693.342 3.90249 696.907 Q5.73118 700.449 9.34227 700.449 Q12.9765 700.449 14.7821 696.907 Q16.6108 693.342 16.6108 686.236 Q16.6108 679.106 14.7821 675.565 Q12.9765 672 9.34227 672 M9.34227 668.296 Q15.1524 668.296 18.208 672.903 Q21.2867 677.486 21.2867 686.236 Q21.2867 694.963 18.208 699.569 Q15.1524 704.152 9.34227 704.152 Q3.53212 704.152 0.453433 699.569 Q-2.60211 694.963 -2.60211 686.236 Q-2.60211 677.486 0.453433 672.903 Q3.53212 668.296 9.34227 668.296 Z" fill="#000000" fill-rule="evenodd" fill-opacity="1" /><path clip-path="url(#clip700)" d="M 0 0 M26.3561 697.601 L31.2403 697.601 L31.2403 703.481 L26.3561 703.481 L26.3561 697.601 Z" fill="#000000" fill-rule="evenodd" fill-opacity="1" /><path clip-path="url(#clip700)" d="M 0 0 M49.1569 672.995 L37.3514 691.444 L49.1569 691.444 L49.1569 672.995 M47.93 668.921 L53.8096 668.921 L53.8096 691.444 L58.7402 691.444 L58.7402 695.333 L53.8096 695.333 L53.8096 703.481 L49.1569 703.481 L49.1569 695.333 L33.5551 695.333 L33.5551 690.819 L47.93 668.921 Z" fill="#000000" fill-rule="evenodd" fill-opacity="1" /><path clip-path="url(#clip700)" d="M 0 0 M9.66635 449.447 Q6.05525 449.447 4.22656 453.012 Q2.42101 456.553 2.42101 463.683 Q2.42101 470.789 4.22656 474.354 Q6.05525 477.896 9.66635 477.896 Q13.3006 477.896 15.1061 474.354 Q16.9348 470.789 16.9348 463.683 Q16.9348 456.553 15.1061 453.012 Q13.3006 449.447 9.66635 449.447 M9.66635 445.743 Q15.4765 445.743 18.532 450.35 Q21.6107 454.933 21.6107 463.683 Q21.6107 472.41 18.532 477.016 Q15.4765 481.6 9.66635 481.6 Q3.85619 481.6 0.777505 477.016 Q-2.27803 472.41 -2.27803 463.683 Q-2.27803 454.933 0.777505 450.35 Q3.85619 445.743 9.66635 445.743 Z" fill="#000000" fill-rule="evenodd" fill-opacity="1" /><path clip-path="url(#clip700)" d="M 0 0 M26.6801 475.049 L31.5644 475.049 L31.5644 480.928 L26.6801 480.928 L26.6801 475.049 Z" fill="#000000" fill-rule="evenodd" fill-opacity="1" /><path clip-path="url(#clip700)" d="M 0 0 M47.2124 461.785 Q44.0643 461.785 42.2125 463.938 Q40.3838 466.09 40.3838 469.84 Q40.3838 473.567 42.2125 475.743 Q44.0643 477.896 47.2124 477.896 Q50.3606 477.896 52.1893 475.743 Q54.0411 473.567 54.0411 469.84 Q54.0411 466.09 52.1893 463.938 Q50.3606 461.785 47.2124 461.785 M56.4948 447.132 L56.4948 451.391 Q54.7355 450.558 52.93 450.118 Q51.1476 449.679 49.3884 449.679 Q44.7588 449.679 42.3051 452.803 Q39.8745 455.928 39.5273 462.248 Q40.893 460.234 42.9532 459.169 Q45.0134 458.081 47.4902 458.081 Q52.6985 458.081 55.7078 461.253 Q58.7402 464.401 58.7402 469.84 Q58.7402 475.164 55.592 478.382 Q52.4439 481.6 47.2124 481.6 Q41.2171 481.6 38.0458 477.016 Q34.8745 472.41 34.8745 463.683 Q34.8745 455.489 38.7634 450.628 Q42.6523 445.743 49.2032 445.743 Q50.9624 445.743 52.7448 446.091 Q54.5504 446.438 56.4948 447.132 Z" fill="#000000" fill-rule="evenodd" fill-opacity="1" /><path clip-path="url(#clip700)" d="M 0 0 M9.92097 226.894 Q6.30988 226.894 4.48119 230.459 Q2.67564 234.001 2.67564 241.13 Q2.67564 248.237 4.48119 251.802 Q6.30988 255.343 9.92097 255.343 Q13.5552 255.343 15.3608 251.802 Q17.1895 248.237 17.1895 241.13 Q17.1895 234.001 15.3608 230.459 Q13.5552 226.894 9.92097 226.894 M9.92097 223.191 Q15.7311 223.191 18.7867 227.797 Q21.8654 232.38 21.8654 241.13 Q21.8654 249.857 18.7867 254.464 Q15.7311 259.047 9.92097 259.047 Q4.11082 259.047 1.03213 254.464 Q-2.02341 249.857 -2.02341 241.13 Q-2.02341 232.38 1.03213 227.797 Q4.11082 223.191 9.92097 223.191 Z" fill="#000000" fill-rule="evenodd" fill-opacity="1" /><path clip-path="url(#clip700)" d="M 0 0 M26.9348 252.496 L31.819 252.496 L31.819 258.376 L26.9348 258.376 L26.9348 252.496 Z" fill="#000000" fill-rule="evenodd" fill-opacity="1" /><path clip-path="url(#clip700)" d="M 0 0 M46.8884 241.964 Q43.5551 241.964 41.6338 243.746 Q39.7356 245.528 39.7356 248.653 Q39.7356 251.778 41.6338 253.561 Q43.5551 255.343 46.8884 255.343 Q50.2217 255.343 52.143 253.561 Q54.0643 251.755 54.0643 248.653 Q54.0643 245.528 52.143 243.746 Q50.2448 241.964 46.8884 241.964 M42.2125 239.973 Q39.2032 239.232 37.5134 237.172 Q35.8468 235.112 35.8468 232.149 Q35.8468 228.005 38.7866 225.598 Q41.7495 223.191 46.8884 223.191 Q52.0504 223.191 54.9902 225.598 Q57.93 228.005 57.93 232.149 Q57.93 235.112 56.2402 237.172 Q54.5735 239.232 51.5874 239.973 Q54.967 240.76 56.842 243.052 Q58.7402 245.343 58.7402 248.653 Q58.7402 253.677 55.6615 256.362 Q52.6059 259.047 46.8884 259.047 Q41.1708 259.047 38.0921 256.362 Q35.0366 253.677 35.0366 248.653 Q35.0366 245.343 36.9347 243.052 Q38.8329 240.76 42.2125 239.973 M40.4995 232.589 Q40.4995 235.274 42.1662 236.778 Q43.856 238.283 46.8884 238.283 Q49.8976 238.283 51.5874 236.778 Q53.3004 235.274 53.3004 232.589 Q53.3004 229.904 51.5874 228.399 Q49.8976 226.894 46.8884 226.894 Q43.856 226.894 42.1662 228.399 Q40.4995 229.904 40.4995 232.589 Z" fill="#000000" fill-rule="evenodd" fill-opacity="1" /><path clip-path="url(#clip700)" d="M 0 0 M-82.8185 650.184 L-76.5483 650.184 Q-78.2989 653.844 -79.1582 657.09 Q-80.0176 660.337 -80.0176 663.361 Q-80.0176 668.612 -77.9806 671.477 Q-75.9435 674.31 -72.1878 674.31 Q-69.0368 674.31 -67.4135 672.432 Q-65.8221 670.522 -64.8354 665.238 L-64.0397 661.355 Q-62.671 654.162 -59.2017 650.756 Q-55.7643 647.319 -49.9715 647.319 Q-43.0647 647.319 -39.4999 651.966 Q-35.9351 656.581 -35.9351 665.525 Q-35.9351 668.899 -36.699 672.718 Q-37.4628 676.506 -38.9588 680.58 L-45.5791 680.58 Q-43.383 676.665 -42.269 672.909 Q-41.155 669.153 -41.155 665.525 Q-41.155 660.019 -43.3193 657.027 Q-45.4836 654.035 -49.494 654.035 Q-52.9952 654.035 -54.9685 656.199 Q-56.9419 658.332 -57.9286 663.233 L-58.6925 667.148 Q-60.1248 674.341 -63.1803 677.556 Q-66.2358 680.771 -71.6785 680.771 Q-77.9806 680.771 -81.609 676.347 Q-85.2375 671.891 -85.2375 664.093 Q-85.2375 660.751 -84.6327 657.281 Q-84.028 653.812 -82.8185 650.184 Z" fill="#000000" fill-rule="evenodd" fill-opacity="1" /><path clip-path="url(#clip700)" d="M 0 0 M-54.7776 624.975 Q-54.7776 632.073 -53.1543 634.81 Q-51.5311 637.548 -47.6162 637.548 Q-44.497 637.548 -42.6509 635.511 Q-40.8367 633.442 -40.8367 629.909 Q-40.8367 625.039 -44.2742 622.111 Q-47.7435 619.151 -53.4726 619.151 L-54.7776 619.151 L-54.7776 624.975 M-57.1965 613.294 L-36.8581 613.294 L-36.8581 619.151 L-42.269 619.151 Q-39.0224 621.156 -37.4628 624.148 Q-35.9351 627.14 -35.9351 631.468 Q-35.9351 636.943 -38.9906 640.189 Q-42.078 643.404 -47.2342 643.404 Q-53.2498 643.404 -56.3053 639.394 Q-59.3609 635.351 -59.3609 627.363 L-59.3609 619.151 L-59.9338 619.151 Q-63.976 619.151 -66.1722 621.824 Q-68.4002 624.466 -68.4002 629.272 Q-68.4002 632.328 -67.6681 635.224 Q-66.9361 638.121 -65.472 640.794 L-70.8828 640.794 Q-72.1241 637.579 -72.7289 634.556 Q-73.3654 631.532 -73.3654 628.667 Q-73.3654 620.933 -69.355 617.114 Q-65.3446 613.294 -57.1965 613.294 Z" fill="#000000" fill-rule="evenodd" fill-opacity="1" /><path clip-path="url(#clip700)" d="M 0 0 M-65.6629 579.397 Q-69.6097 577.201 -71.4876 574.145 Q-73.3654 571.09 -73.3654 566.952 Q-73.3654 561.382 -69.4505 558.358 Q-65.5674 555.335 -58.3742 555.335 L-36.8581 555.335 L-36.8581 561.223 L-58.1832 561.223 Q-63.3076 561.223 -65.7902 563.037 Q-68.2729 564.851 -68.2729 568.575 Q-68.2729 573.127 -65.2492 575.768 Q-62.2254 578.41 -57.0056 578.41 L-36.8581 578.41 L-36.8581 584.298 L-58.1832 584.298 Q-63.3394 584.298 -65.7902 586.113 Q-68.2729 587.927 -68.2729 591.715 Q-68.2729 596.202 -65.2173 598.844 Q-62.1936 601.486 -57.0056 601.486 L-36.8581 601.486 L-36.8581 607.374 L-72.5061 607.374 L-72.5061 601.486 L-66.9679 601.486 Q-70.2462 599.481 -71.8058 596.68 Q-73.3654 593.879 -73.3654 590.028 Q-73.3654 586.145 -71.3921 583.439 Q-69.4187 580.702 -65.6629 579.397 Z" fill="#000000" fill-rule="evenodd" fill-opacity="1" /><path clip-path="url(#clip700)" d="M 0 0 M-42.2053 543.526 L-23.2992 543.526 L-23.2992 549.414 L-72.5061 549.414 L-72.5061 543.526 L-67.0952 543.526 Q-70.2781 541.68 -71.8058 538.879 Q-73.3654 536.046 -73.3654 532.132 Q-73.3654 525.639 -68.2092 521.596 Q-63.053 517.522 -54.6503 517.522 Q-46.2475 517.522 -41.0913 521.596 Q-35.9351 525.639 -35.9351 532.132 Q-35.9351 536.046 -37.4628 538.879 Q-39.0224 541.68 -42.2053 543.526 M-54.6503 523.601 Q-61.1114 523.601 -64.7717 526.275 Q-68.4638 528.917 -68.4638 533.564 Q-68.4638 538.211 -64.7717 540.884 Q-61.1114 543.526 -54.6503 543.526 Q-48.1891 543.526 -44.497 540.884 Q-40.8367 538.211 -40.8367 533.564 Q-40.8367 528.917 -44.497 526.275 Q-48.1891 523.601 -54.6503 523.601 Z" fill="#000000" fill-rule="evenodd" fill-opacity="1" /><path clip-path="url(#clip700)" d="M 0 0 M-86.3833 511.379 L-86.3833 505.523 L-36.8581 505.523 L-36.8581 511.379 L-86.3833 511.379 Z" fill="#000000" fill-rule="evenodd" fill-opacity="1" /><path clip-path="url(#clip700)" d="M 0 0 M-56.1462 468.888 L-53.2816 468.888 L-53.2816 495.815 Q-47.2342 495.433 -44.0514 492.187 Q-40.9003 488.908 -40.9003 483.084 Q-40.9003 479.71 -41.7279 476.559 Q-42.5554 473.376 -44.2105 470.257 L-38.6723 470.257 Q-37.3355 473.408 -36.6353 476.718 Q-35.9351 480.028 -35.9351 483.434 Q-35.9351 491.964 -40.9003 496.961 Q-45.8656 501.926 -54.332 501.926 Q-63.0848 501.926 -68.2092 497.216 Q-73.3654 492.473 -73.3654 484.452 Q-73.3654 477.259 -68.7185 473.09 Q-64.1033 468.888 -56.1462 468.888 M-57.8649 474.745 Q-62.671 474.808 -65.5356 477.45 Q-68.4002 480.06 -68.4002 484.389 Q-68.4002 489.29 -65.6311 492.25 Q-62.862 495.179 -57.8331 495.624 L-57.8649 474.745 Z" fill="#000000" fill-rule="evenodd" fill-opacity="1" /><path clip-path="url(#clip700)" d="M 0 0 M-72.5061 446.226 L-72.5061 440.02 L-42.5872 428.88 L-72.5061 417.74 L-72.5061 411.533 L-36.8581 424.901 L-36.8581 432.858 L-72.5061 446.226 Z" fill="#000000" fill-rule="evenodd" fill-opacity="1" /><path clip-path="url(#clip700)" d="M 0 0 M-54.7776 389.19 Q-54.7776 396.287 -53.1543 399.025 Q-51.5311 401.762 -47.6162 401.762 Q-44.497 401.762 -42.6509 399.725 Q-40.8367 397.656 -40.8367 394.123 Q-40.8367 389.253 -44.2742 386.325 Q-47.7435 383.365 -53.4726 383.365 L-54.7776 383.365 L-54.7776 389.19 M-57.1965 377.509 L-36.8581 377.509 L-36.8581 383.365 L-42.269 383.365 Q-39.0224 385.37 -37.4628 388.362 Q-35.9351 391.354 -35.9351 395.683 Q-35.9351 401.157 -38.9906 404.404 Q-42.078 407.618 -47.2342 407.618 Q-53.2498 407.618 -56.3053 403.608 Q-59.3609 399.566 -59.3609 391.577 L-59.3609 383.365 L-59.9338 383.365 Q-63.976 383.365 -66.1722 386.039 Q-68.4002 388.68 -68.4002 393.486 Q-68.4002 396.542 -67.6681 399.438 Q-66.9361 402.335 -65.472 405.008 L-70.8828 405.008 Q-72.1241 401.794 -72.7289 398.77 Q-73.3654 395.746 -73.3654 392.882 Q-73.3654 385.147 -69.355 381.328 Q-65.3446 377.509 -57.1965 377.509 Z" fill="#000000" fill-rule="evenodd" fill-opacity="1" /><path clip-path="url(#clip700)" d="M 0 0 M-86.3833 371.366 L-86.3833 365.509 L-36.8581 365.509 L-36.8581 371.366 L-86.3833 371.366 Z" fill="#000000" fill-rule="evenodd" fill-opacity="1" /><path clip-path="url(#clip700)" d="M 0 0 M-50.9263 359.971 L-72.5061 359.971 L-72.5061 354.115 L-51.1491 354.115 Q-46.0884 354.115 -43.5421 352.141 Q-41.0276 350.168 -41.0276 346.221 Q-41.0276 341.479 -44.0514 338.741 Q-47.0751 335.972 -52.2949 335.972 L-72.5061 335.972 L-72.5061 330.116 L-36.8581 330.116 L-36.8581 335.972 L-42.3326 335.972 Q-39.0861 338.105 -37.4947 340.938 Q-35.9351 343.738 -35.9351 347.462 Q-35.9351 353.605 -39.7545 356.788 Q-43.5739 359.971 -50.9263 359.971 M-73.3654 345.234 L-73.3654 345.234 Z" fill="#000000" fill-rule="evenodd" fill-opacity="1" /><path clip-path="url(#clip700)" d="M 0 0 M-56.1462 293.481 L-53.2816 293.481 L-53.2816 320.408 Q-47.2342 320.026 -44.0514 316.78 Q-40.9003 313.501 -40.9003 307.677 Q-40.9003 304.303 -41.7279 301.152 Q-42.5554 297.969 -44.2105 294.85 L-38.6723 294.85 Q-37.3355 298.001 -36.6353 301.311 Q-35.9351 304.621 -35.9351 308.027 Q-35.9351 316.557 -40.9003 321.554 Q-45.8656 326.519 -54.332 326.519 Q-63.0848 326.519 -68.2092 321.809 Q-73.3654 317.066 -73.3654 309.045 Q-73.3654 301.852 -68.7185 297.683 Q-64.1033 293.481 -56.1462 293.481 M-57.8649 299.338 Q-62.671 299.401 -65.5356 302.043 Q-68.4002 304.653 -68.4002 308.982 Q-68.4002 313.883 -65.6311 316.843 Q-62.862 319.772 -57.8331 320.217 L-57.8649 299.338 Z" fill="#000000" fill-rule="evenodd" fill-opacity="1" /><path clip-path="url(#clip700)" d="M 0 0 M1048.63 43.8146 L1022.83 43.8146 Q1023.43 55.9268 1026.23 61.0714 Q1029.71 67.3908 1035.75 67.3908 Q1041.82 67.3908 1045.19 61.0309 Q1048.14 55.4407 1048.63 43.8146 M1048.51 36.928 Q1047.37 25.4235 1045.19 21.3726 Q1041.7 14.9721 1035.75 14.9721 Q1029.55 14.9721 1026.27 21.2916 Q1023.68 26.3957 1022.91 36.928 L1048.51 36.928 M1035.75 8.89579 Q1045.47 8.89579 1051.02 17.4837 Q1056.57 26.0311 1056.57 41.1815 Q1056.57 56.2914 1051.02 64.8793 Q1045.47 73.5077 1035.75 73.5077 Q1025.99 73.5077 1020.48 64.8793 Q1014.93 56.2914 1014.93 41.1815 Q1014.93 26.0311 1020.48 17.4837 Q1025.99 8.89579 1035.75 8.89579 Z" fill="#000000" fill-rule="evenodd" fill-opacity="1" /><polyline clip-path="url(#clip702)" style="stroke:#009af9; stroke-width:4; stroke-opacity:1; fill:none" points="
  170.646,316.07 172.378,387.32 174.11,441.39 175.842,558.863 177.574,445.33 179.306,478.49 181.038,646.273 182.77,584.231 184.502,213.241 186.234,237.008 
  187.966,479.476 189.698,479.476 191.429,479.476 193.161,479.476 194.893,479.476 196.625,390.328 198.357,325.308 200.089,435.313 201.821,454.656 203.553,251.621 
  205.285,251.621 207.017,446.781 208.749,446.781 210.481,446.781 212.213,446.781 213.945,453.777 215.677,768.956 217.409,184.198 219.14,264.468 220.872,327.864 
  222.604,327.864 224.336,283.342 226.068,334.446 227.8,334.446 229.532,333.591 231.264,538.358 232.996,509.09 234.728,509.09 236.46,131.138 238.192,131.138 
  239.924,580.661 241.656,685.789 243.388,310.729 245.119,470.756 246.851,414.986 248.583,414.986 250.315,284.723 252.047,234.488 253.779,167.39 255.511,456.694 
  257.243,315.299 258.975,315.299 260.707,512.428 262.439,512.428 264.171,575.014 265.903,523.636 267.635,410.768 269.367,163.504 271.099,304.127 272.83,533.787 
  274.562,533.787 276.294,533.787 278.026,465.48 279.758,293.229 281.49,320.941 283.222,389.651 284.954,389.651 286.686,154.225 288.418,339.439 290.15,701.449 
  291.882,628.227 293.614,386.749 295.346,113.707 297.078,178.165 298.809,327.977 300.541,327.977 302.273,520.23 304.005,420.315 305.737,348.965 307.469,293.155 
  309.201,293.827 310.933,388.429 312.665,388.429 314.397,388.429 316.129,359.917 317.861,509.02 319.593,509.02 321.325,509.02 323.057,509.02 324.789,515.328 
  326.52,472.515 328.252,472.515 329.984,259.526 331.716,579.333 333.448,502.544 335.18,220.051 336.912,120.722 338.644,170.63 340.376,407.542 342.108,407.542 
  343.84,716.027 345.572,727.014 347.304,191.38 349.036,287.803 350.768,243.687 352.499,579.391 354.231,621.761 355.963,492.904 357.695,425.514 359.427,499.496 
  361.159,474.032 362.891,474.032 364.623,247.484 366.355,319.818 368.087,252.582 369.819,279.752 371.551,102.964 373.283,538.191 375.015,510.276 376.747,502.185 
  378.479,395.092 380.21,371.917 381.942,371.917 383.674,371.917 385.406,371.917 387.138,371.917 388.87,244.006 390.602,172.423 392.334,259.132 394.066,430.736 
  395.798,405.153 397.53,405.153 399.262,401.907 400.994,463.564 402.726,421.077 404.458,321.783 406.189,321.783 407.921,321.783 409.653,191.481 411.385,247.896 
  413.117,175.053 414.849,152.574 416.581,152.574 418.313,360.877 420.045,422.721 421.777,422.721 423.509,422.721 425.241,380.459 426.973,210.275 428.705,324.706 
  430.437,355.679 432.169,544.485 433.9,682.603 435.632,665.379 437.364,359.455 439.096,359.353 440.828,359.353 442.56,310.461 444.292,534.81 446.024,317.732 
  447.756,334.337 449.488,334.337 451.22,334.337 452.952,334.337 454.684,334.337 456.416,460.163 458.148,103.898 459.879,286.449 461.611,449.829 463.343,502.434 
  465.075,357.268 466.807,357.268 468.539,634.354 470.271,375.311 472.003,316.662 473.735,316.662 475.467,526.524 477.199,637.26 478.931,267.618 480.663,426.413 
  482.395,519.782 484.127,609.014 485.859,699.163 487.59,457.885 489.322,462.985 491.054,610.682 492.786,582.673 494.518,769.969 496.25,503.787 497.982,213.194 
  499.714,204.939 501.446,514.556 503.178,395.437 504.91,390.29 506.642,435.081 508.374,435.081 510.106,653.7 511.838,653.7 513.569,735.234 515.301,452.609 
  517.033,437.204 518.765,369.402 520.497,526.076 522.229,413.217 523.961,413.217 525.693,471.459 527.425,600.627 529.157,294.468 530.889,352.885 532.621,375.13 
  534.353,375.13 536.085,385.583 537.817,258.221 539.549,272.797 541.28,450.492 543.012,450.492 544.744,408.679 546.476,582.907 548.208,582.907 549.94,538.037 
  551.672,514.19 553.404,364.675 555.136,343.83 556.868,343.83 558.6,343.83 560.332,534.363 562.064,385.206 563.796,385.206 565.528,385.206 567.259,385.206 
  568.991,213.243 570.723,522.453 572.455,367.873 574.187,336.122 575.919,488.229 577.651,452.313 579.383,452.313 581.115,452.313 582.847,460.146 584.579,337.846 
  586.311,327.871 588.043,255.057 589.775,209.548 591.507,290.185 593.239,430.669 594.97,430.669 596.702,211.375 598.434,358.509 600.166,481.01 601.898,245.95 
  603.63,255.495 605.362,653.918 607.094,500.107 608.826,623.015 610.558,243.709 612.29,322.36 614.022,304.605 615.754,470.655 617.486,455.916 619.218,487.495 
  620.949,487.495 622.681,487.495 624.413,509.481 626.145,509.481 627.877,509.481 629.609,365.906 631.341,400.063 633.073,758.334 634.805,621.056 636.537,520.093 
  638.269,370.546 640.001,325.235 641.733,122.917 643.465,185.488 645.197,442.145 646.929,284.851 648.66,228.095 650.392,166.978 652.124,143.375 653.856,112.874 
  655.588,294.142 657.32,378.497 659.052,378.497 660.784,297.443 662.516,297.443 664.248,746.688 665.98,717.16 667.712,717.16 669.444,321.214 671.176,321.214 
  672.908,153.568 674.639,622.962 676.371,622.962 678.103,418.383 679.835,573.692 681.567,643.361 683.299,568.446 685.031,645.115 686.763,581.532 688.495,665.551 
  690.227,391.308 691.959,305.127 693.691,208.653 695.423,563.414 697.155,440.631 698.887,440.631 700.619,481.49 702.35,389.987 704.082,413.171 705.814,509.134 
  707.546,268.029 709.278,202.687 711.01,553.69 712.742,318.869 714.474,426.471 716.206,377.989 717.938,430.963 719.67,280.854 721.402,153.245 723.134,298.311 
  724.866,341.419 726.598,183.247 728.329,364.307 730.061,281.302 731.793,402.075 733.525,464.67 735.257,464.67 736.989,320.683 738.721,280.103 740.453,368.861 
  742.185,557.748 743.917,474.803 745.649,448.558 747.381,630.762 749.113,272.519 750.845,479.233 752.577,479.233 754.309,479.233 756.04,301.486 757.772,301.486 
  759.504,483.16 761.236,483.16 762.968,263.971 764.7,203.461 766.432,396.986 768.164,400.723 769.896,356.16 771.628,356.16 773.36,145.802 775.092,280.671 
  776.824,280.671 778.556,231.943 780.288,269.176 782.019,419.099 783.751,222.512 785.483,627.419 787.215,599.267 788.947,489.6 790.679,431.945 792.411,285.682 
  794.143,428.064 795.875,428.064 797.607,675.016 799.339,427.799 801.071,435.304 802.803,455.217 804.535,455.217 806.267,238.076 807.999,465.849 809.73,118.467 
  811.462,160.239 813.194,266.785 814.926,261.388 816.658,128.577 818.39,266.137 820.122,250.847 821.854,204.946 823.586,88.9182 825.318,205.87 827.05,231.584 
  828.782,231.584 830.514,231.584 832.246,684.7 833.978,673.053 835.709,508.205 837.441,368.745 839.173,335.372 840.905,498.705 842.637,666.171 844.369,432.511 
  846.101,310.422 847.833,310.422 849.565,278.357 851.297,311.755 853.029,188.201 854.761,104.238 856.493,276.794 858.225,310.852 859.957,358.141 861.689,379.478 
  863.42,295.98 865.152,295.98 866.884,379.141 868.616,365.21 870.348,330.662 872.08,330.662 873.812,288.672 875.544,288.672 877.276,394.168 879.008,383.766 
  880.74,369.43 882.472,383.534 884.204,183.895 885.936,381.077 887.668,692.855 889.399,594.502 891.131,545.357 892.863,406.173 894.595,406.173 896.327,749.58 
  898.059,391.765 899.791,802.607 901.523,410.449 903.255,410.449 904.987,491.208 906.719,529.355 908.451,272.813 910.183,237.693 911.915,349.184 913.647,323.81 
  915.379,549.596 917.11,537.816 918.842,537.816 920.574,537.816 922.306,615.296 924.038,277.766 925.77,272.005 927.502,284.885 929.234,284.885 930.966,265.099 
  932.698,351.386 934.43,289.796 936.162,289.796 937.894,602.701 939.626,550.9 941.358,329.474 943.089,355.108 944.821,397.977 946.553,305.252 948.285,433.341 
  950.017,694.339 951.749,563.877 953.481,310.681 955.213,563.65 956.945,196.88 958.677,277.496 960.409,217.031 962.141,241.443 963.873,594.408 965.605,358.738 
  967.337,565.821 969.069,694.988 970.8,810.157 972.532,620.016 974.264,512.597 975.996,159.572 977.728,272.032 979.46,323 981.192,267.087 982.924,193.46 
  984.656,329.828 986.388,329.828 988.12,329.828 989.852,319.181 991.584,319.181 993.316,248.816 995.048,291.253 996.779,388.147 998.511,388.147 1000.24,811.071 
  1001.98,614.595 1003.71,196.821 1005.44,680.148 1007.17,551.693 1008.9,643.833 1010.63,257.5 1012.37,579.347 1014.1,392.612 1015.83,385.729 1017.56,166.379 
  1019.29,637.354 1021.03,411.412 1022.76,411.412 1024.49,357.404 1026.22,734.874 1027.95,878.381 1029.69,887.252 1031.42,560.011 1033.15,296.807 1034.88,493.79 
  1036.61,479.401 1038.35,612.453 1040.08,626.831 1041.81,443.556 1043.54,443.556 1045.27,445.974 1047.01,445.974 1048.74,629.98 1050.47,773.533 1052.2,491.162 
  1053.93,796.818 1055.67,582.8 1057.4,422.195 1059.13,651.781 1060.86,310.558 1062.59,370.663 1064.32,380.411 1066.06,380.411 1067.79,186.763 1069.52,336.013 
  1071.25,336.013 1072.98,764.388 1074.72,677.232 1076.45,394.678 1078.18,224.817 1079.91,400.89 1081.64,400.89 1083.38,400.89 1085.11,627.389 1086.84,270.405 
  1088.57,548.889 1090.3,638.52 1092.04,582.501 1093.77,753.938 1095.5,700.93 1097.23,151.996 1098.96,253.291 1100.7,243.769 1102.43,363.944 1104.16,217.558 
  1105.89,360.887 1107.62,360.887 1109.36,360.887 1111.09,360.887 1112.82,242.291 1114.55,495.04 1116.28,495.04 1118.01,169.888 1119.75,194.926 1121.48,503.842 
  1123.21,503.842 1124.94,250.655 1126.67,206 1128.41,344.115 1130.14,293.31 1131.87,461.612 1133.6,258.803 1135.33,484.326 1137.07,272.167 1138.8,344.909 
  1140.53,321.521 1142.26,381.731 1143.99,238.053 1145.73,444.634 1147.46,265.772 1149.19,436.467 1150.92,675.396 1152.65,675.396 1154.39,502.144 1156.12,325.836 
  1157.85,325.836 1159.58,530.955 1161.31,530.955 1163.05,530.955 1164.78,483.444 1166.51,483.444 1168.24,483.444 1169.97,304.313 1171.7,452.532 1173.44,417.705 
  1175.17,647.275 1176.9,742.143 1178.63,396.354 1180.36,396.354 1182.1,438.252 1183.83,501.376 1185.56,501.376 1187.29,434.296 1189.02,434.296 1190.76,434.296 
  1192.49,692.083 1194.22,561.744 1195.95,517.445 1197.68,361.861 1199.42,361.861 1201.15,691.972 1202.88,473.565 1204.61,473.565 1206.34,570.611 1208.08,841.996 
  1209.81,705.535 1211.54,412.778 1213.27,464.064 1215,705.805 1216.74,158.08 1218.47,395.763 1220.2,530.972 1221.93,530.972 1223.66,439.793 1225.39,377.881 
  1227.13,377.881 1228.86,298.027 1230.59,286.776 1232.32,477.483 1234.05,346.958 1235.79,418.28 1237.52,352.632 1239.25,517.307 1240.98,356.25 1242.71,696.347 
  1244.45,390.852 1246.18,269.579 1247.91,195.349 1249.64,571.969 1251.37,412.928 1253.11,288.026 1254.84,353.142 1256.57,185.508 1258.3,175.117 1260.03,280.545 
  1261.77,200.193 1263.5,381.588 1265.23,340.966 1266.96,398.076 1268.69,464.108 1270.43,605.158 1272.16,177.438 1273.89,691.638 1275.62,395.579 1277.35,636.616 
  1279.08,727.786 1280.82,148.589 1282.55,566.834 1284.28,566.834 1286.01,429.263 1287.74,224.85 1289.48,630.126 1291.21,630.126 1292.94,440.81 1294.67,298.833 
  1296.4,113.607 1298.14,586.491 1299.87,586.491 1301.6,568.944 1303.33,309.688 1305.06,309.688 1306.8,358.002 1308.53,587.644 1310.26,638.954 1311.99,764.464 
  1313.72,386.958 1315.46,386.958 1317.19,606.58 1318.92,451.642 1320.65,467.905 1322.38,242.962 1324.12,417.133 1325.85,376.894 1327.58,154.709 1329.31,258.919 
  1331.04,452.951 1332.77,460.433 1334.51,527.439 1336.24,424.571 1337.97,323.55 1339.7,323.55 1341.43,273.146 1343.17,513.468 1344.9,327.039 1346.63,325.081 
  1348.36,128.208 1350.09,835.017 1351.83,402.707 1353.56,402.707 1355.29,250.839 1357.02,157.798 1358.75,200.674 1360.49,527.654 1362.22,527.654 1363.95,275.621 
  1365.68,275.621 1367.41,235.606 1369.15,296.838 1370.88,416.983 1372.61,608.371 1374.34,697.274 1376.07,377.967 1377.81,377.967 1379.54,493.614 1381.27,793.998 
  1383,140.201 1384.73,437.113 1386.46,350.779 1388.2,428.58 1389.93,573.32 1391.66,680.66 1393.39,178.515 1395.12,443.272 1396.86,431.763 1398.59,431.763 
  1400.32,440.895 1402.05,266.448 1403.78,413.556 1405.52,216.258 1407.25,418.8 1408.98,550.623 1410.71,426.293 1412.44,242.959 1414.18,632.382 1415.91,661.727 
  1417.64,664.976 1419.37,433.785 1421.1,289.752 1422.84,317.764 1424.57,480.736 1426.3,268.777 1428.03,636.708 1429.76,636.708 1431.5,636.708 1433.23,263.325 
  1434.96,359.788 1436.69,447.04 1438.42,447.04 1440.15,447.04 1441.89,278.242 1443.62,236.284 1445.35,258.789 1447.08,210.184 1448.81,385.327 1450.55,385.327 
  1452.28,366.557 1454.01,239.166 1455.74,508.574 1457.47,650.252 1459.21,200.178 1460.94,716.806 1462.67,664.592 1464.4,249.301 1466.13,388.246 1467.87,438.331 
  1469.6,262.16 1471.33,262.16 1473.06,432.155 1474.79,476.018 1476.53,383.243 1478.26,338.275 1479.99,544.517 1481.72,493.214 1483.45,394.756 1485.19,285.705 
  1486.92,495.986 1488.65,495.986 1490.38,522.467 1492.11,522.467 1493.84,522.467 1495.58,436.924 1497.31,555.311 1499.04,180.095 1500.77,289.731 1502.5,404.916 
  1504.24,804.717 1505.97,379.118 1507.7,461.645 1509.43,476.544 1511.16,485.014 1512.9,485.014 1514.63,485.014 1516.36,467.968 1518.09,550.369 1519.82,550.369 
  1521.56,177.143 1523.29,286.669 1525.02,402.358 1526.75,402.358 1528.48,261.186 1530.22,428.466 1531.95,309.376 1533.68,325.624 1535.41,296.253 1537.14,296.253 
  1538.88,296.253 1540.61,296.253 1542.34,301.447 1544.07,227.298 1545.8,511.337 1547.53,566.473 1549.27,467.469 1551,255.317 1552.73,249.751 1554.46,232.145 
  1556.19,462.047 1557.93,462.047 1559.66,456.581 1561.39,473.1 1563.12,365.294 1564.85,330.191 1566.59,254.73 1568.32,399.887 1570.05,248.977 1571.78,348.09 
  1573.51,339.38 1575.25,356.595 1576.98,383.164 1578.71,347.12 1580.44,349.121 1582.17,523.644 1583.91,734.154 1585.64,440.725 1587.37,502.455 1589.1,469.361 
  1590.83,458.183 1592.57,668.766 1594.3,401.476 1596.03,378.017 1597.76,378.017 1599.49,378.017 1601.22,431.626 1602.96,304.317 1604.69,445.349 1606.42,445.349 
  1608.15,770.733 1609.88,372.376 1611.62,414.161 1613.35,497.278 1615.08,497.278 1616.81,522.936 1618.54,418.156 1620.28,388.787 1622.01,388.787 1623.74,450.777 
  1625.47,389.175 1627.2,327.613 1628.94,612.224 1630.67,678.312 1632.4,678.312 1634.13,764.012 1635.86,455.891 1637.6,455.891 1639.33,467.657 1641.06,230.336 
  1642.79,206.842 1644.52,247.48 1646.26,489.955 1647.99,669.126 1649.72,453.03 1651.45,252.725 1653.18,440.905 1654.91,440.905 1656.65,440.905 1658.38,308.658 
  1660.11,466.238 1661.84,326.931 1663.57,117.17 1665.31,313.861 1667.04,313.861 1668.77,290.857 1670.5,374.685 1672.23,194.694 1673.97,151.451 1675.7,282.987 
  1677.43,403.386 1679.16,260.068 1680.89,412.27 1682.63,412.27 1684.36,412.27 1686.09,412.27 1687.82,498.99 1689.55,498.99 1691.29,537.086 1693.02,376.622 
  1694.75,868.987 1696.48,518.664 1698.21,358.577 1699.95,424.954 1701.68,424.954 1703.41,424.954 1705.14,748.051 1706.87,559.64 1708.6,439.889 1710.34,536.534 
  1712.07,536.534 1713.8,584.162 1715.53,611.348 1717.26,230.67 1719,409.055 1720.73,409.055 1722.46,401.467 1724.19,398.093 1725.92,398.093 1727.66,425.622 
  1729.39,272.009 1731.12,623.274 1732.85,650.377 1734.58,671.57 1736.32,213.692 1738.05,170.277 1739.78,334.615 1741.51,522.768 1743.24,413.616 1744.98,413.616 
  1746.71,479.19 1748.44,479.19 1750.17,334.956 1751.9,360.333 1753.64,504.689 1755.37,504.689 1757.1,477.457 1758.83,729.889 1760.56,395.515 1762.29,302.906 
  1764.03,401.215 1765.76,373.068 1767.49,281.751 1769.22,434.395 1770.95,357.788 1772.69,138.174 1774.42,117.982 1776.15,167.999 1777.88,86.9997 1779.61,195.53 
  1781.35,552.135 1783.08,449.894 1784.81,501.483 1786.54,446.626 1788.27,446.626 1790.01,425.18 1791.74,630.951 1793.47,589.829 1795.2,573.914 1796.93,573.914 
  1798.67,608.063 1800.4,611.828 1802.13,684.628 1803.86,684.628 1805.59,605.392 1807.33,729.724 1809.06,296.242 1810.79,404.375 1812.52,373.475 1814.25,744.045 
  1815.98,529.269 1817.72,403.227 1819.45,483.037 1821.18,483.037 1822.91,476.519 1824.64,476.519 1826.38,441.945 1828.11,438.98 1829.84,438.98 1831.57,438.98 
  1833.3,438.98 1835.04,438.98 1836.77,436.065 1838.5,436.065 1840.23,376.545 1841.96,183.712 1843.7,183.712 1845.43,666.368 1847.16,357.767 1848.89,580.053 
  1850.62,239.964 1852.36,618.729 1854.09,593.582 1855.82,476.509 1857.55,518.136 1859.28,690.507 1861.02,593.461 1862.75,370.4 1864.48,848.951 1866.21,353.079 
  1867.94,375.913 1869.67,424.441 1871.41,460.768 1873.14,460.768 1874.87,580.589 1876.6,580.589 1878.33,580.589 1880.07,607.088 1881.8,161.019 1883.53,140.367 
  1885.26,345.134 1886.99,418.516 1888.73,418.516 1890.46,418.516 1892.19,178.275 1893.92,573.218 1895.65,573.218 1897.39,466.599 1899.12,710.362 1900.85,197.084 
  
  "/>
<path clip-path="url(#clip700)" d="
M2118.74 911.26 L3952.76 911.26 L3952.76 62.9921 L2118.74 62.9921  Z
  " fill="#ffffff" fill-rule="evenodd" fill-opacity="1"/>
<defs>
  <clipPath id="clip703">
    <rect x="2118" y="62" width="1835" height="849"/>
  </clipPath>
</defs>
<polyline clip-path="url(#clip703)" style="stroke:#000000; stroke-width:2; stroke-opacity:0.1; fill:none" points="
  2353.04,911.26 2353.04,62.9921 
  "/>
<polyline clip-path="url(#clip703)" style="stroke:#000000; stroke-width:2; stroke-opacity:0.1; fill:none" points="
  2713.4,911.26 2713.4,62.9921 
  "/>
<polyline clip-path="url(#clip703)" style="stroke:#000000; stroke-width:2; stroke-opacity:0.1; fill:none" points="
  3073.76,911.26 3073.76,62.9921 
  "/>
<polyline clip-path="url(#clip703)" style="stroke:#000000; stroke-width:2; stroke-opacity:0.1; fill:none" points="
  3434.12,911.26 3434.12,62.9921 
  "/>
<polyline clip-path="url(#clip703)" style="stroke:#000000; stroke-width:2; stroke-opacity:0.1; fill:none" points="
  3794.49,911.26 3794.49,62.9921 
  "/>
<polyline clip-path="url(#clip700)" style="stroke:#000000; stroke-width:4; stroke-opacity:1; fill:none" points="
  2118.74,911.26 3952.76,911.26 
  "/>
<polyline clip-path="url(#clip700)" style="stroke:#000000; stroke-width:4; stroke-opacity:1; fill:none" points="
  2353.04,911.26 2353.04,901.081 
  "/>
<polyline clip-path="url(#clip700)" style="stroke:#000000; stroke-width:4; stroke-opacity:1; fill:none" points="
  2713.4,911.26 2713.4,901.081 
  "/>
<polyline clip-path="url(#clip700)" style="stroke:#000000; stroke-width:4; stroke-opacity:1; fill:none" points="
  3073.76,911.26 3073.76,901.081 
  "/>
<polyline clip-path="url(#clip700)" style="stroke:#000000; stroke-width:4; stroke-opacity:1; fill:none" points="
  3434.12,911.26 3434.12,901.081 
  "/>
<polyline clip-path="url(#clip700)" style="stroke:#000000; stroke-width:4; stroke-opacity:1; fill:none" points="
  3794.49,911.26 3794.49,901.081 
  "/>
<path clip-path="url(#clip700)" d="M 0 0 M2335.36 953.251 Q2331.74 953.251 2329.92 956.815 Q2328.11 960.357 2328.11 967.487 Q2328.11 974.593 2329.92 978.158 Q2331.74 981.699 2335.36 981.699 Q2338.99 981.699 2340.8 978.158 Q2342.62 974.593 2342.62 967.487 Q2342.62 960.357 2340.8 956.815 Q2338.99 953.251 2335.36 953.251 M2335.36 949.547 Q2341.17 949.547 2344.22 954.153 Q2347.3 958.737 2347.3 967.487 Q2347.3 976.213 2344.22 980.82 Q2341.17 985.403 2335.36 985.403 Q2329.55 985.403 2326.47 980.82 Q2323.41 976.213 2323.41 967.487 Q2323.41 958.737 2326.47 954.153 Q2329.55 949.547 2335.36 949.547 Z" fill="#000000" fill-rule="evenodd" fill-opacity="1" /><path clip-path="url(#clip700)" d="M 0 0 M2352.37 978.852 L2357.25 978.852 L2357.25 984.732 L2352.37 984.732 L2352.37 978.852 Z" fill="#000000" fill-rule="evenodd" fill-opacity="1" /><path clip-path="url(#clip700)" d="M 0 0 M2366.35 980.797 L2382.67 980.797 L2382.67 984.732 L2360.73 984.732 L2360.73 980.797 Q2363.39 978.042 2367.97 973.412 Q2372.58 968.76 2373.76 967.417 Q2376 964.894 2376.88 963.158 Q2377.79 961.399 2377.79 959.709 Q2377.79 956.954 2375.84 955.218 Q2373.92 953.482 2370.82 953.482 Q2368.62 953.482 2366.17 954.246 Q2363.73 955.01 2360.96 956.561 L2360.96 951.839 Q2363.78 950.704 2366.23 950.126 Q2368.69 949.547 2370.73 949.547 Q2376.1 949.547 2379.29 952.232 Q2382.48 954.917 2382.48 959.408 Q2382.48 961.538 2381.67 963.459 Q2380.89 965.357 2378.78 967.95 Q2378.2 968.621 2375.1 971.838 Q2372 975.033 2366.35 980.797 Z" fill="#000000" fill-rule="evenodd" fill-opacity="1" /><path clip-path="url(#clip700)" d="M 0 0 M2694.68 953.251 Q2691.06 953.251 2689.24 956.815 Q2687.43 960.357 2687.43 967.487 Q2687.43 974.593 2689.24 978.158 Q2691.06 981.699 2694.68 981.699 Q2698.31 981.699 2700.12 978.158 Q2701.94 974.593 2701.94 967.487 Q2701.94 960.357 2700.12 956.815 Q2698.31 953.251 2694.68 953.251 M2694.68 949.547 Q2700.49 949.547 2703.54 954.153 Q2706.62 958.737 2706.62 967.487 Q2706.62 976.213 2703.54 980.82 Q2700.49 985.403 2694.68 985.403 Q2688.87 985.403 2685.79 980.82 Q2682.73 976.213 2682.73 967.487 Q2682.73 958.737 2685.79 954.153 Q2688.87 949.547 2694.68 949.547 Z" fill="#000000" fill-rule="evenodd" fill-opacity="1" /><path clip-path="url(#clip700)" d="M 0 0 M2711.69 978.852 L2716.57 978.852 L2716.57 984.732 L2711.69 984.732 L2711.69 978.852 Z" fill="#000000" fill-rule="evenodd" fill-opacity="1" /><path clip-path="url(#clip700)" d="M 0 0 M2734.49 954.246 L2722.68 972.695 L2734.49 972.695 L2734.49 954.246 M2733.26 950.172 L2739.14 950.172 L2739.14 972.695 L2744.07 972.695 L2744.07 976.584 L2739.14 976.584 L2739.14 984.732 L2734.49 984.732 L2734.49 976.584 L2718.89 976.584 L2718.89 972.07 L2733.26 950.172 Z" fill="#000000" fill-rule="evenodd" fill-opacity="1" /><path clip-path="url(#clip700)" d="M 0 0 M3055.2 953.251 Q3051.59 953.251 3049.76 956.815 Q3047.95 960.357 3047.95 967.487 Q3047.95 974.593 3049.76 978.158 Q3051.59 981.699 3055.2 981.699 Q3058.83 981.699 3060.64 978.158 Q3062.47 974.593 3062.47 967.487 Q3062.47 960.357 3060.64 956.815 Q3058.83 953.251 3055.2 953.251 M3055.2 949.547 Q3061.01 949.547 3064.06 954.153 Q3067.14 958.737 3067.14 967.487 Q3067.14 976.213 3064.06 980.82 Q3061.01 985.403 3055.2 985.403 Q3049.39 985.403 3046.31 980.82 Q3043.25 976.213 3043.25 967.487 Q3043.25 958.737 3046.31 954.153 Q3049.39 949.547 3055.2 949.547 Z" fill="#000000" fill-rule="evenodd" fill-opacity="1" /><path clip-path="url(#clip700)" d="M 0 0 M3072.21 978.852 L3077.1 978.852 L3077.1 984.732 L3072.21 984.732 L3072.21 978.852 Z" fill="#000000" fill-rule="evenodd" fill-opacity="1" /><path clip-path="url(#clip700)" d="M 0 0 M3092.74 965.588 Q3089.6 965.588 3087.74 967.741 Q3085.92 969.894 3085.92 973.644 Q3085.92 977.371 3087.74 979.547 Q3089.6 981.699 3092.74 981.699 Q3095.89 981.699 3097.72 979.547 Q3099.57 977.371 3099.57 973.644 Q3099.57 969.894 3097.72 967.741 Q3095.89 965.588 3092.74 965.588 M3102.03 950.936 L3102.03 955.195 Q3100.27 954.362 3098.46 953.922 Q3096.68 953.482 3094.92 953.482 Q3090.29 953.482 3087.84 956.607 Q3085.41 959.732 3085.06 966.051 Q3086.43 964.038 3088.49 962.973 Q3090.55 961.885 3093.02 961.885 Q3098.23 961.885 3101.24 965.056 Q3104.27 968.204 3104.27 973.644 Q3104.27 978.968 3101.12 982.186 Q3097.98 985.403 3092.74 985.403 Q3086.75 985.403 3083.58 980.82 Q3080.41 976.213 3080.41 967.487 Q3080.41 959.292 3084.3 954.431 Q3088.18 949.547 3094.74 949.547 Q3096.49 949.547 3098.28 949.894 Q3100.08 950.241 3102.03 950.936 Z" fill="#000000" fill-rule="evenodd" fill-opacity="1" /><path clip-path="url(#clip700)" d="M 0 0 M3415.69 953.251 Q3412.08 953.251 3410.25 956.815 Q3408.44 960.357 3408.44 967.487 Q3408.44 974.593 3410.25 978.158 Q3412.08 981.699 3415.69 981.699 Q3419.32 981.699 3421.13 978.158 Q3422.96 974.593 3422.96 967.487 Q3422.96 960.357 3421.13 956.815 Q3419.32 953.251 3415.69 953.251 M3415.69 949.547 Q3421.5 949.547 3424.55 954.153 Q3427.63 958.737 3427.63 967.487 Q3427.63 976.213 3424.55 980.82 Q3421.5 985.403 3415.69 985.403 Q3409.88 985.403 3406.8 980.82 Q3403.74 976.213 3403.74 967.487 Q3403.74 958.737 3406.8 954.153 Q3409.88 949.547 3415.69 949.547 Z" fill="#000000" fill-rule="evenodd" fill-opacity="1" /><path clip-path="url(#clip700)" d="M 0 0 M3432.7 978.852 L3437.59 978.852 L3437.59 984.732 L3432.7 984.732 L3432.7 978.852 Z" fill="#000000" fill-rule="evenodd" fill-opacity="1" /><path clip-path="url(#clip700)" d="M 0 0 M3452.65 968.32 Q3449.32 968.32 3447.4 970.102 Q3445.5 971.885 3445.5 975.01 Q3445.5 978.135 3447.4 979.917 Q3449.32 981.699 3452.65 981.699 Q3455.99 981.699 3457.91 979.917 Q3459.83 978.112 3459.83 975.01 Q3459.83 971.885 3457.91 970.102 Q3456.01 968.32 3452.65 968.32 M3447.98 966.329 Q3444.97 965.588 3443.28 963.528 Q3441.61 961.468 3441.61 958.505 Q3441.61 954.362 3444.55 951.954 Q3447.52 949.547 3452.65 949.547 Q3457.82 949.547 3460.76 951.954 Q3463.7 954.362 3463.7 958.505 Q3463.7 961.468 3462.01 963.528 Q3460.34 965.588 3457.35 966.329 Q3460.73 967.116 3462.61 969.408 Q3464.51 971.7 3464.51 975.01 Q3464.51 980.033 3461.43 982.718 Q3458.37 985.403 3452.65 985.403 Q3446.94 985.403 3443.86 982.718 Q3440.8 980.033 3440.8 975.01 Q3440.8 971.7 3442.7 969.408 Q3444.6 967.116 3447.98 966.329 M3446.27 958.945 Q3446.27 961.63 3447.93 963.135 Q3449.62 964.639 3452.65 964.639 Q3455.66 964.639 3457.35 963.135 Q3459.07 961.63 3459.07 958.945 Q3459.07 956.26 3457.35 954.755 Q3455.66 953.251 3452.65 953.251 Q3449.62 953.251 3447.93 954.755 Q3446.27 956.26 3446.27 958.945 Z" fill="#000000" fill-rule="evenodd" fill-opacity="1" /><path clip-path="url(#clip700)" d="M 0 0 M3766.38 980.797 L3774.02 980.797 L3774.02 954.431 L3765.71 956.098 L3765.71 951.839 L3773.98 950.172 L3778.65 950.172 L3778.65 980.797 L3786.29 980.797 L3786.29 984.732 L3766.38 984.732 L3766.38 980.797 Z" fill="#000000" fill-rule="evenodd" fill-opacity="1" /><path clip-path="url(#clip700)" d="M 0 0 M3791.36 978.852 L3796.25 978.852 L3796.25 984.732 L3791.36 984.732 L3791.36 978.852 Z" fill="#000000" fill-rule="evenodd" fill-opacity="1" /><path clip-path="url(#clip700)" d="M 0 0 M3811.32 953.251 Q3807.7 953.251 3805.88 956.815 Q3804.07 960.357 3804.07 967.487 Q3804.07 974.593 3805.88 978.158 Q3807.7 981.699 3811.32 981.699 Q3814.95 981.699 3816.75 978.158 Q3818.58 974.593 3818.58 967.487 Q3818.58 960.357 3816.75 956.815 Q3814.95 953.251 3811.32 953.251 M3811.32 949.547 Q3817.13 949.547 3820.18 954.153 Q3823.26 958.737 3823.26 967.487 Q3823.26 976.213 3820.18 980.82 Q3817.13 985.403 3811.32 985.403 Q3805.5 985.403 3802.43 980.82 Q3799.37 976.213 3799.37 967.487 Q3799.37 958.737 3802.43 954.153 Q3805.5 949.547 3811.32 949.547 Z" fill="#000000" fill-rule="evenodd" fill-opacity="1" /><path clip-path="url(#clip700)" d="M 0 0 M2872.69 1014.16 L2872.69 1020.43 Q2869.03 1018.68 2865.78 1017.82 Q2862.54 1016.96 2859.51 1016.96 Q2854.26 1016.96 2851.4 1019 Q2848.56 1021.04 2848.56 1024.79 Q2848.56 1027.95 2850.44 1029.57 Q2852.35 1031.16 2857.64 1032.15 L2861.52 1032.94 Q2868.71 1034.31 2872.12 1037.78 Q2875.56 1041.22 2875.56 1047.01 Q2875.56 1053.92 2870.91 1057.48 Q2866.29 1061.05 2857.35 1061.05 Q2853.98 1061.05 2850.16 1060.28 Q2846.37 1059.52 2842.29 1058.02 L2842.29 1051.4 Q2846.21 1053.6 2849.96 1054.71 Q2853.72 1055.83 2857.35 1055.83 Q2862.86 1055.83 2865.85 1053.66 Q2868.84 1051.5 2868.84 1047.49 Q2868.84 1043.99 2866.67 1042.01 Q2864.54 1040.04 2859.64 1039.05 L2855.73 1038.29 Q2848.53 1036.86 2845.32 1033.8 Q2842.1 1030.75 2842.1 1025.3 Q2842.1 1019 2846.53 1015.37 Q2850.98 1011.74 2858.78 1011.74 Q2862.12 1011.74 2865.59 1012.35 Q2869.06 1012.95 2872.69 1014.16 Z" fill="#000000" fill-rule="evenodd" fill-opacity="1" /><path clip-path="url(#clip700)" d="M 0 0 M2897.9 1042.2 Q2890.8 1042.2 2888.06 1043.83 Q2885.33 1045.45 2885.33 1049.37 Q2885.33 1052.48 2887.36 1054.33 Q2889.43 1056.15 2892.97 1056.15 Q2897.83 1056.15 2900.76 1052.71 Q2903.72 1049.24 2903.72 1043.51 L2903.72 1042.2 L2897.9 1042.2 M2909.58 1039.79 L2909.58 1060.12 L2903.72 1060.12 L2903.72 1054.71 Q2901.72 1057.96 2898.73 1059.52 Q2895.73 1061.05 2891.41 1061.05 Q2885.93 1061.05 2882.68 1057.99 Q2879.47 1054.9 2879.47 1049.75 Q2879.47 1043.73 2883.48 1040.68 Q2887.52 1037.62 2895.51 1037.62 L2903.72 1037.62 L2903.72 1037.05 Q2903.72 1033.01 2901.05 1030.81 Q2898.41 1028.58 2893.6 1028.58 Q2890.55 1028.58 2887.65 1029.31 Q2884.75 1030.05 2882.08 1031.51 L2882.08 1026.1 Q2885.29 1024.86 2888.32 1024.25 Q2891.34 1023.62 2894.21 1023.62 Q2901.94 1023.62 2905.76 1027.63 Q2909.58 1031.64 2909.58 1039.79 Z" fill="#000000" fill-rule="evenodd" fill-opacity="1" /><path clip-path="url(#clip700)" d="M 0 0 M2943.48 1031.32 Q2945.67 1027.37 2948.73 1025.49 Q2951.78 1023.62 2955.92 1023.62 Q2961.49 1023.62 2964.52 1027.53 Q2967.54 1031.41 2967.54 1038.61 L2967.54 1060.12 L2961.65 1060.12 L2961.65 1038.8 Q2961.65 1033.67 2959.84 1031.19 Q2958.02 1028.71 2954.3 1028.71 Q2949.75 1028.71 2947.11 1031.73 Q2944.46 1034.76 2944.46 1039.98 L2944.46 1060.12 L2938.58 1060.12 L2938.58 1038.8 Q2938.58 1033.64 2936.76 1031.19 Q2934.95 1028.71 2931.16 1028.71 Q2926.67 1028.71 2924.03 1031.76 Q2921.39 1034.79 2921.39 1039.98 L2921.39 1060.12 L2915.5 1060.12 L2915.5 1024.48 L2921.39 1024.48 L2921.39 1030.01 Q2923.39 1026.74 2926.19 1025.18 Q2929 1023.62 2932.85 1023.62 Q2936.73 1023.62 2939.43 1025.59 Q2942.17 1027.56 2943.48 1031.32 Z" fill="#000000" fill-rule="evenodd" fill-opacity="1" /><path clip-path="url(#clip700)" d="M 0 0 M2979.35 1054.78 L2979.35 1073.68 L2973.46 1073.68 L2973.46 1024.48 L2979.35 1024.48 L2979.35 1029.89 Q2981.19 1026.7 2983.99 1025.18 Q2986.83 1023.62 2990.74 1023.62 Q2997.24 1023.62 3001.28 1028.77 Q3005.35 1033.93 3005.35 1042.33 Q3005.35 1050.73 3001.28 1055.89 Q2997.24 1061.05 2990.74 1061.05 Q2986.83 1061.05 2983.99 1059.52 Q2981.19 1057.96 2979.35 1054.78 M2999.27 1042.33 Q2999.27 1035.87 2996.6 1032.21 Q2993.96 1028.52 2989.31 1028.52 Q2984.66 1028.52 2981.99 1032.21 Q2979.35 1035.87 2979.35 1042.33 Q2979.35 1048.79 2981.99 1052.48 Q2984.66 1056.15 2989.31 1056.15 Q2993.96 1056.15 2996.6 1052.48 Q2999.27 1048.79 2999.27 1042.33 Z" fill="#000000" fill-rule="evenodd" fill-opacity="1" /><path clip-path="url(#clip700)" d="M 0 0 M3011.49 1010.6 L3017.35 1010.6 L3017.35 1060.12 L3011.49 1060.12 L3011.49 1010.6 Z" fill="#000000" fill-rule="evenodd" fill-opacity="1" /><path clip-path="url(#clip700)" d="M 0 0 M3053.99 1040.84 L3053.99 1043.7 L3027.06 1043.7 Q3027.44 1049.75 3030.69 1052.93 Q3033.97 1056.08 3039.79 1056.08 Q3043.16 1056.08 3046.32 1055.25 Q3049.5 1054.43 3052.62 1052.77 L3052.62 1058.31 Q3049.47 1059.65 3046.16 1060.35 Q3042.85 1061.05 3039.44 1061.05 Q3030.91 1061.05 3025.91 1056.08 Q3020.95 1051.12 3020.95 1042.65 Q3020.95 1033.9 3025.66 1028.77 Q3030.4 1023.62 3038.42 1023.62 Q3045.61 1023.62 3049.78 1028.26 Q3053.99 1032.88 3053.99 1040.84 M3048.13 1039.12 Q3048.07 1034.31 3045.42 1031.45 Q3042.81 1028.58 3038.49 1028.58 Q3033.58 1028.58 3030.62 1031.35 Q3027.7 1034.12 3027.25 1039.15 L3048.13 1039.12 Z" fill="#000000" fill-rule="evenodd" fill-opacity="1" /><path clip-path="url(#clip700)" d="M 0 0 M3076.65 1024.48 L3082.85 1024.48 L3093.99 1054.39 L3105.13 1024.48 L3111.34 1024.48 L3097.97 1060.12 L3090.02 1060.12 L3076.65 1024.48 Z" fill="#000000" fill-rule="evenodd" fill-opacity="1" /><path clip-path="url(#clip700)" d="M 0 0 M3133.68 1042.2 Q3126.59 1042.2 3123.85 1043.83 Q3121.11 1045.45 3121.11 1049.37 Q3121.11 1052.48 3123.15 1054.33 Q3125.22 1056.15 3128.75 1056.15 Q3133.62 1056.15 3136.55 1052.71 Q3139.51 1049.24 3139.51 1043.51 L3139.51 1042.2 L3133.68 1042.2 M3145.37 1039.79 L3145.37 1060.12 L3139.51 1060.12 L3139.51 1054.71 Q3137.5 1057.96 3134.51 1059.52 Q3131.52 1061.05 3127.19 1061.05 Q3121.72 1061.05 3118.47 1057.99 Q3115.26 1054.9 3115.26 1049.75 Q3115.26 1043.73 3119.27 1040.68 Q3123.31 1037.62 3131.3 1037.62 L3139.51 1037.62 L3139.51 1037.05 Q3139.51 1033.01 3136.84 1030.81 Q3134.19 1028.58 3129.39 1028.58 Q3126.33 1028.58 3123.44 1029.31 Q3120.54 1030.05 3117.87 1031.51 L3117.87 1026.1 Q3121.08 1024.86 3124.1 1024.25 Q3127.13 1023.62 3129.99 1023.62 Q3137.73 1023.62 3141.55 1027.63 Q3145.37 1031.64 3145.37 1039.79 Z" fill="#000000" fill-rule="evenodd" fill-opacity="1" /><path clip-path="url(#clip700)" d="M 0 0 M3151.51 1010.6 L3157.36 1010.6 L3157.36 1060.12 L3151.51 1060.12 L3151.51 1010.6 Z" fill="#000000" fill-rule="evenodd" fill-opacity="1" /><path clip-path="url(#clip700)" d="M 0 0 M3162.9 1046.06 L3162.9 1024.48 L3168.76 1024.48 L3168.76 1045.83 Q3168.76 1050.89 3170.73 1053.44 Q3172.71 1055.95 3176.65 1055.95 Q3181.4 1055.95 3184.13 1052.93 Q3186.9 1049.91 3186.9 1044.69 L3186.9 1024.48 L3192.76 1024.48 L3192.76 1060.12 L3186.9 1060.12 L3186.9 1054.65 Q3184.77 1057.9 3181.94 1059.49 Q3179.14 1061.05 3175.41 1061.05 Q3169.27 1061.05 3166.09 1057.23 Q3162.9 1053.41 3162.9 1046.06 M3177.64 1023.62 L3177.64 1023.62 Z" fill="#000000" fill-rule="evenodd" fill-opacity="1" /><path clip-path="url(#clip700)" d="M 0 0 M3229.39 1040.84 L3229.39 1043.7 L3202.47 1043.7 Q3202.85 1049.75 3206.09 1052.93 Q3209.37 1056.08 3215.2 1056.08 Q3218.57 1056.08 3221.72 1055.25 Q3224.91 1054.43 3228.02 1052.77 L3228.02 1058.31 Q3224.87 1059.65 3221.56 1060.35 Q3218.25 1061.05 3214.85 1061.05 Q3206.32 1061.05 3201.32 1056.08 Q3196.35 1051.12 3196.35 1042.65 Q3196.35 1033.9 3201.07 1028.77 Q3205.81 1023.62 3213.83 1023.62 Q3221.02 1023.62 3225.19 1028.26 Q3229.39 1032.88 3229.39 1040.84 M3223.54 1039.12 Q3223.47 1034.31 3220.83 1031.45 Q3218.22 1028.58 3213.89 1028.58 Q3208.99 1028.58 3206.03 1031.35 Q3203.1 1034.12 3202.66 1039.15 L3223.54 1039.12 Z" fill="#000000" fill-rule="evenodd" fill-opacity="1" /><polyline clip-path="url(#clip703)" style="stroke:#000000; stroke-width:2; stroke-opacity:0.1; fill:none" points="
  2118.74,887.255 3952.76,887.255 
  "/>
<polyline clip-path="url(#clip703)" style="stroke:#000000; stroke-width:2; stroke-opacity:0.1; fill:none" points="
  2118.74,627.298 3952.76,627.298 
  "/>
<polyline clip-path="url(#clip703)" style="stroke:#000000; stroke-width:2; stroke-opacity:0.1; fill:none" points="
  2118.74,367.342 3952.76,367.342 
  "/>
<polyline clip-path="url(#clip703)" style="stroke:#000000; stroke-width:2; stroke-opacity:0.1; fill:none" points="
  2118.74,107.385 3952.76,107.385 
  "/>
<polyline clip-path="url(#clip700)" style="stroke:#000000; stroke-width:4; stroke-opacity:1; fill:none" points="
  2118.74,911.26 2118.74,62.9921 
  "/>
<polyline clip-path="url(#clip700)" style="stroke:#000000; stroke-width:4; stroke-opacity:1; fill:none" points="
  2118.74,887.255 2140.75,887.255 
  "/>
<polyline clip-path="url(#clip700)" style="stroke:#000000; stroke-width:4; stroke-opacity:1; fill:none" points="
  2118.74,627.298 2140.75,627.298 
  "/>
<polyline clip-path="url(#clip700)" style="stroke:#000000; stroke-width:4; stroke-opacity:1; fill:none" points="
  2118.74,367.342 2140.75,367.342 
  "/>
<polyline clip-path="url(#clip700)" style="stroke:#000000; stroke-width:4; stroke-opacity:1; fill:none" points="
  2118.74,107.385 2140.75,107.385 
  "/>
<path clip-path="url(#clip700)" d="M 0 0 M2046.8 873.054 Q2043.18 873.054 2041.36 876.619 Q2039.55 880.16 2039.55 887.29 Q2039.55 894.397 2041.36 897.961 Q2043.18 901.503 2046.8 901.503 Q2050.43 901.503 2052.24 897.961 Q2054.06 894.397 2054.06 887.29 Q2054.06 880.16 2052.24 876.619 Q2050.43 873.054 2046.8 873.054 M2046.8 869.35 Q2052.61 869.35 2055.66 873.957 Q2058.74 878.54 2058.74 887.29 Q2058.74 896.017 2055.66 900.623 Q2052.61 905.207 2046.8 905.207 Q2040.99 905.207 2037.91 900.623 Q2034.85 896.017 2034.85 887.29 Q2034.85 878.54 2037.91 873.957 Q2040.99 869.35 2046.8 869.35 Z" fill="#000000" fill-rule="evenodd" fill-opacity="1" /><path clip-path="url(#clip700)" d="M 0 0 M2038.83 640.643 L2046.47 640.643 L2046.47 614.278 L2038.16 615.944 L2038.16 611.685 L2046.43 610.018 L2051.1 610.018 L2051.1 640.643 L2058.74 640.643 L2058.74 644.578 L2038.83 644.578 L2038.83 640.643 Z" fill="#000000" fill-rule="evenodd" fill-opacity="1" /><path clip-path="url(#clip700)" d="M 0 0 M2042.42 380.686 L2058.74 380.686 L2058.74 384.622 L2036.8 384.622 L2036.8 380.686 Q2039.46 377.932 2044.04 373.302 Q2048.65 368.649 2049.83 367.307 Q2052.07 364.784 2052.95 363.048 Q2053.86 361.288 2053.86 359.599 Q2053.86 356.844 2051.91 355.108 Q2049.99 353.372 2046.89 353.372 Q2044.69 353.372 2042.24 354.136 Q2039.81 354.9 2037.03 356.45 L2037.03 351.728 Q2039.85 350.594 2042.31 350.015 Q2044.76 349.437 2046.8 349.437 Q2052.17 349.437 2055.36 352.122 Q2058.55 354.807 2058.55 359.298 Q2058.55 361.427 2057.74 363.349 Q2056.96 365.247 2054.85 367.839 Q2054.27 368.511 2051.17 371.728 Q2048.07 374.923 2042.42 380.686 Z" fill="#000000" fill-rule="evenodd" fill-opacity="1" /><path clip-path="url(#clip700)" d="M 0 0 M2051.61 106.031 Q2054.97 106.748 2056.84 109.017 Q2058.74 111.285 2058.74 114.618 Q2058.74 119.734 2055.22 122.535 Q2051.7 125.336 2045.22 125.336 Q2043.05 125.336 2040.73 124.896 Q2038.44 124.48 2035.99 123.623 L2035.99 119.109 Q2037.93 120.243 2040.24 120.822 Q2042.56 121.401 2045.08 121.401 Q2049.48 121.401 2051.77 119.665 Q2054.09 117.929 2054.09 114.618 Q2054.09 111.563 2051.93 109.85 Q2049.81 108.114 2045.99 108.114 L2041.96 108.114 L2041.96 104.271 L2046.17 104.271 Q2049.62 104.271 2051.45 102.906 Q2053.28 101.517 2053.28 98.9241 Q2053.28 96.2621 2051.38 94.85 Q2049.5 93.4149 2045.99 93.4149 Q2044.06 93.4149 2041.87 93.8315 Q2039.67 94.2482 2037.03 95.1278 L2037.03 90.9612 Q2039.69 90.2204 2042 89.8501 Q2044.34 89.4797 2046.4 89.4797 Q2051.73 89.4797 2054.83 91.9102 Q2057.93 94.3176 2057.93 98.438 Q2057.93 101.308 2056.29 103.299 Q2054.64 105.267 2051.61 106.031 Z" fill="#000000" fill-rule="evenodd" fill-opacity="1" /><path clip-path="url(#clip700)" d="M 0 0 M1958.36 588.579 L1995.31 588.579 L1995.31 580.813 Q1995.31 570.978 1990.86 566.427 Q1986.4 561.843 1976.79 561.843 Q1967.24 561.843 1962.81 566.427 Q1958.36 570.978 1958.36 580.813 L1958.36 588.579 M1953.08 595.009 L1953.08 581.8 Q1953.08 567.986 1958.84 561.525 Q1964.57 555.064 1976.79 555.064 Q1989.07 555.064 1994.83 561.557 Q2000.6 568.05 2000.6 581.8 L2000.6 595.009 L1953.08 595.009 Z" fill="#000000" fill-rule="evenodd" fill-opacity="1" /><path clip-path="url(#clip700)" d="M 0 0 M1981.31 518.429 L1984.17 518.429 L1984.17 545.356 Q1990.22 544.974 1993.4 541.728 Q1996.55 538.449 1996.55 532.625 Q1996.55 529.251 1995.73 526.1 Q1994.9 522.917 1993.24 519.798 L1998.78 519.798 Q2000.12 522.949 2000.82 526.259 Q2001.52 529.569 2001.52 532.975 Q2001.52 541.505 1996.55 546.502 Q1991.59 551.467 1983.12 551.467 Q1974.37 551.467 1969.24 546.757 Q1964.09 542.014 1964.09 533.993 Q1964.09 526.8 1968.74 522.631 Q1973.35 518.429 1981.31 518.429 M1979.59 524.286 Q1974.78 524.349 1971.92 526.991 Q1969.05 529.601 1969.05 533.93 Q1969.05 538.831 1971.82 541.791 Q1974.59 544.72 1979.62 545.165 L1979.59 524.286 Z" fill="#000000" fill-rule="evenodd" fill-opacity="1" /><path clip-path="url(#clip700)" d="M 0 0 M1979.08 482.654 L2000.6 482.654 L2000.6 488.511 L1979.27 488.511 Q1974.21 488.511 1971.7 490.484 Q1969.18 492.457 1969.18 496.404 Q1969.18 501.146 1972.2 503.884 Q1975.23 506.621 1980.45 506.621 L2000.6 506.621 L2000.6 512.509 L1964.95 512.509 L1964.95 506.621 L1970.49 506.621 Q1967.27 504.52 1965.68 501.688 Q1964.09 498.823 1964.09 495.099 Q1964.09 488.956 1967.91 485.805 Q1971.7 482.654 1979.08 482.654 Z" fill="#000000" fill-rule="evenodd" fill-opacity="1" /><path clip-path="url(#clip700)" d="M 0 0 M1966 453.786 L1971.54 453.786 Q1970.26 456.268 1969.63 458.942 Q1968.99 461.615 1968.99 464.48 Q1968.99 468.84 1970.33 471.037 Q1971.66 473.201 1974.34 473.201 Q1976.37 473.201 1977.55 471.641 Q1978.7 470.082 1979.75 465.371 L1980.19 463.366 Q1981.53 457.128 1983.98 454.518 Q1986.4 451.876 1990.76 451.876 Q1995.73 451.876 1998.62 455.823 Q2001.52 459.738 2001.52 466.612 Q2001.52 469.477 2000.95 472.596 Q2000.4 475.684 1999.29 479.121 L1993.24 479.121 Q1994.93 475.875 1995.79 472.724 Q1996.62 469.573 1996.62 466.485 Q1996.62 462.347 1995.22 460.119 Q1993.78 457.891 1991.21 457.891 Q1988.82 457.891 1987.55 459.515 Q1986.27 461.106 1985.09 466.549 L1984.62 468.586 Q1983.47 474.029 1981.12 476.448 Q1978.73 478.866 1974.59 478.866 Q1969.56 478.866 1966.83 475.302 Q1964.09 471.737 1964.09 465.18 Q1964.09 461.934 1964.57 459.069 Q1965.04 456.205 1966 453.786 Z" fill="#000000" fill-rule="evenodd" fill-opacity="1" /><path clip-path="url(#clip700)" d="M 0 0 M1964.95 445.733 L1964.95 439.877 L2000.6 439.877 L2000.6 445.733 L1964.95 445.733 M1951.07 445.733 L1951.07 439.877 L1958.49 439.877 L1958.49 445.733 L1951.07 445.733 Z" fill="#000000" fill-rule="evenodd" fill-opacity="1" /><path clip-path="url(#clip700)" d="M 0 0 M1954.83 427.941 L1964.95 427.941 L1964.95 415.878 L1969.5 415.878 L1969.5 427.941 L1988.85 427.941 Q1993.21 427.941 1994.45 426.763 Q1995.69 425.554 1995.69 421.893 L1995.69 415.878 L2000.6 415.878 L2000.6 421.893 Q2000.6 428.673 1998.08 431.251 Q1995.53 433.829 1988.85 433.829 L1969.5 433.829 L1969.5 438.126 L1964.95 438.126 L1964.95 433.829 L1954.83 433.829 L1954.83 427.941 Z" fill="#000000" fill-rule="evenodd" fill-opacity="1" /><path clip-path="url(#clip700)" d="M 0 0 M2003.91 394.903 Q2010.27 397.385 2012.21 399.741 Q2014.15 402.096 2014.15 406.043 L2014.15 410.722 L2009.25 410.722 L2009.25 407.284 Q2009.25 404.865 2008.11 403.528 Q2006.96 402.192 2002.7 400.568 L2000.02 399.518 L1964.95 413.936 L1964.95 407.73 L1992.83 396.59 L1964.95 385.45 L1964.95 379.243 L2003.91 394.903 Z" fill="#000000" fill-rule="evenodd" fill-opacity="1" /><path clip-path="url(#clip700)" d="M 0 0 M3048.63 43.8146 L3022.83 43.8146 Q3023.43 55.9268 3026.23 61.0714 Q3029.71 67.3908 3035.75 67.3908 Q3041.82 67.3908 3045.19 61.0309 Q3048.14 55.4407 3048.63 43.8146 M3048.51 36.928 Q3047.37 25.4235 3045.19 21.3726 Q3041.7 14.9721 3035.75 14.9721 Q3029.55 14.9721 3026.27 21.2916 Q3023.68 26.3957 3022.91 36.928 L3048.51 36.928 M3035.75 8.89579 Q3045.47 8.89579 3051.02 17.4837 Q3056.57 26.0311 3056.57 41.1815 Q3056.57 56.2914 3051.02 64.8793 Q3045.47 73.5077 3035.75 73.5077 Q3025.99 73.5077 3020.48 64.8793 Q3014.93 56.2914 3014.93 41.1815 Q3014.93 26.0311 3020.48 17.4837 Q3025.99 8.89579 3035.75 8.89579 Z" fill="#000000" fill-rule="evenodd" fill-opacity="1" /><polyline clip-path="url(#clip703)" style="stroke:#009af9; stroke-width:4; stroke-opacity:1; fill:none" points="
  2170.65,887.252 2179.34,887.251 2188.04,887.249 2196.73,887.244 2205.42,887.236 2214.12,887.222 2222.81,887.2 2231.51,887.164 2240.2,887.108 2248.9,887.025 
  2257.59,886.903 2266.29,886.729 2274.98,886.487 2283.67,886.16 2292.37,885.73 2301.06,885.177 2309.76,884.486 2318.45,883.646 2327.15,882.648 2335.84,881.495 
  2344.54,880.195 2353.23,878.764 2361.93,877.227 2370.62,875.611 2379.31,873.947 2388.01,872.26 2396.7,870.575 2405.4,868.904 2414.09,867.25 2422.79,865.606 
  2431.48,863.952 2440.18,862.26 2448.87,860.494 2457.56,858.615 2466.26,856.581 2474.95,854.352 2483.65,851.893 2492.34,849.171 2501.04,846.162 2509.73,842.845 
  2518.43,839.211 2527.12,835.256 2535.81,830.984 2544.51,826.409 2553.2,821.551 2561.9,816.433 2570.59,811.079 2579.29,805.511 2587.98,799.74 2596.68,793.766 
  2605.37,787.577 2614.07,781.147 2622.76,774.443 2631.45,767.43 2640.15,760.083 2648.84,752.393 2657.54,744.376 2666.23,736.078 2674.93,727.572 2683.62,718.954 
  2692.32,710.331 2701.01,701.812 2709.7,693.492 2718.4,685.446 2727.09,677.722 2735.79,670.338 2744.48,663.289 2753.18,656.552 2761.87,650.094 2770.57,643.88 
  2779.26,637.876 2787.96,632.047 2796.65,626.363 2805.34,620.785 2814.04,615.27 2822.73,609.763 2831.43,604.197 2840.12,598.492 2848.82,592.561 2857.51,586.302 
  2866.21,579.607 2874.9,572.351 2883.59,564.403 2892.29,555.617 2900.98,545.843 2909.68,534.934 2918.37,522.758 2927.07,509.215 2935.76,494.249 2944.46,477.862 
  2953.15,460.116 2961.84,441.134 2970.54,421.087 2979.23,400.182 2987.93,378.638 2996.62,356.678 3005.32,334.507 3014.01,312.31 3022.71,290.249 3031.4,268.472 
  3040.1,247.124 3048.79,226.354 3057.48,206.328 3066.18,187.235 3074.87,169.278 3083.57,152.672 3092.26,137.626 3100.96,124.329 3109.65,112.939 3118.35,103.566 
  3127.04,96.278 3135.73,91.0979 3144.43,88.0161 3153.12,86.9997 3161.82,88.0018 3170.51,90.965 3179.21,95.8183 3187.9,102.468 3196.6,110.786 3205.29,120.593 
  3213.99,131.659 3222.68,143.695 3231.37,156.372 3240.07,169.339 3248.76,182.253 3257.46,194.81 3266.15,206.773 3274.85,217.992 3283.54,228.416 3292.24,238.094 
  3300.93,247.162 3309.62,255.826 3318.32,264.344 3327.01,273 3335.71,282.081 3344.4,291.861 3353.1,302.582 3361.79,314.439 3370.49,327.566 3379.18,342.023 
  3387.87,357.792 3396.57,374.771 3405.26,392.775 3413.96,411.543 3422.65,430.761 3431.35,450.078 3440.04,469.141 3448.74,487.621 3457.43,505.248 3466.13,521.828 
  3474.82,537.265 3483.51,551.565 3492.21,564.825 3500.9,577.22 3509.6,588.979 3518.29,600.355 3526.99,611.596 3535.68,622.921 3544.38,634.502 3553.07,646.448 
  3561.76,658.811 3570.46,671.581 3579.15,684.705 3587.85,698.094 3596.54,711.637 3605.24,725.219 3613.93,738.724 3622.63,752.043 3631.32,765.076 3640.02,777.733 
  3648.71,789.929 3657.4,801.583 3666.1,812.617 3674.79,822.956 3683.49,832.532 3692.18,841.287 3700.88,849.177 3709.57,856.177 3718.27,862.283 3726.96,867.515 
  3735.65,871.914 3744.35,875.541 3753.04,878.473 3761.74,880.793 3770.43,882.591 3779.13,883.954 3787.82,884.965 3796.52,885.699 3805.21,886.219 3813.9,886.58 
  3822.6,886.825 3831.29,886.986 3839.99,887.091 3848.68,887.157 3857.38,887.198 3866.07,887.223 3874.77,887.237 3883.46,887.245 3892.16,887.25 3900.85,887.252 
  
  "/>
</svg>
