<?xml version="1.0" encoding="utf-8"?>
<svg xmlns="http://www.w3.org/2000/svg" xmlns:xlink="http://www.w3.org/1999/xlink" width="1000" height="250" viewBox="0 0 4000 1000">
<defs>
  <clipPath id="clip240">
    <rect x="0" y="0" width="4000" height="1000"/>
  </clipPath>
</defs>
<path clip-path="url(#clip240)" d="
M0 1000 L4000 1000 L4000 0 L0 0  Z
  " fill="#ffffff" fill-rule="evenodd" fill-opacity="1"/>
<defs>
  <clipPath id="clip241">
    <rect x="800" y="0" width="2801" height="1000"/>
  </clipPath>
</defs>
<path clip-path="url(#clip240)" d="
M118.74 911.26 L1952.76 911.26 L1952.76 62.9921 L118.74 62.9921  Z
  " fill="#ffffff" fill-rule="evenodd" fill-opacity="1"/>
<defs>
  <clipPath id="clip242">
    <rect x="118" y="62" width="1835" height="849"/>
  </clipPath>
</defs>
<polyline clip-path="url(#clip242)" style="stroke:#000000; stroke-width:2; stroke-opacity:0.1; fill:none" points="
  168.914,911.26 168.914,62.9921 
  "/>
<polyline clip-path="url(#clip242)" style="stroke:#000000; stroke-width:2; stroke-opacity:0.1; fill:none" points="
  601.898,911.26 601.898,62.9921 
  "/>
<polyline clip-path="url(#clip242)" style="stroke:#000000; stroke-width:2; stroke-opacity:0.1; fill:none" points="
  1034.88,911.26 1034.88,62.9921 
  "/>
<polyline clip-path="url(#clip242)" style="stroke:#000000; stroke-width:2; stroke-opacity:0.1; fill:none" points="
  1467.87,911.26 1467.87,62.9921 
  "/>
<polyline clip-path="url(#clip242)" style="stroke:#000000; stroke-width:2; stroke-opacity:0.1; fill:none" points="
  1900.85,911.26 1900.85,62.9921 
  "/>
<polyline clip-path="url(#clip240)" style="stroke:#000000; stroke-width:4; stroke-opacity:1; fill:none" points="
  118.74,911.26 1952.76,911.26 
  "/>
<polyline clip-path="url(#clip240)" style="stroke:#000000; stroke-width:4; stroke-opacity:1; fill:none" points="
  168.914,911.26 168.914,901.081 
  "/>
<polyline clip-path="url(#clip240)" style="stroke:#000000; stroke-width:4; stroke-opacity:1; fill:none" points="
  601.898,911.26 601.898,901.081 
  "/>
<polyline clip-path="url(#clip240)" style="stroke:#000000; stroke-width:4; stroke-opacity:1; fill:none" points="
  1034.88,911.26 1034.88,901.081 
  "/>
<polyline clip-path="url(#clip240)" style="stroke:#000000; stroke-width:4; stroke-opacity:1; fill:none" points="
  1467.87,911.26 1467.87,901.081 
  "/>
<polyline clip-path="url(#clip240)" style="stroke:#000000; stroke-width:4; stroke-opacity:1; fill:none" points="
  1900.85,911.26 1900.85,901.081 
  "/>
<path clip-path="url(#clip240)" d="M 0 0 M168.914 953.251 Q165.303 953.251 163.475 956.815 Q161.669 960.357 161.669 967.487 Q161.669 974.593 163.475 978.158 Q165.303 981.699 168.914 981.699 Q172.549 981.699 174.354 978.158 Q176.183 974.593 176.183 967.487 Q176.183 960.357 174.354 956.815 Q172.549 953.251 168.914 953.251 M168.914 949.547 Q174.724 949.547 177.78 954.153 Q180.859 958.737 180.859 967.487 Q180.859 976.213 177.78 980.82 Q174.724 985.403 168.914 985.403 Q163.104 985.403 160.025 980.82 Q156.97 976.213 156.97 967.487 Q156.97 958.737 160.025 954.153 Q163.104 949.547 168.914 949.547 Z" fill="#000000" fill-rule="evenodd" fill-opacity="1" /><path clip-path="url(#clip240)" d="M 0 0 M570.035 980.797 L586.354 980.797 L586.354 984.732 L564.41 984.732 L564.41 980.797 Q567.072 978.042 571.655 973.412 Q576.262 968.76 577.442 967.417 Q579.688 964.894 580.567 963.158 Q581.47 961.399 581.47 959.709 Q581.47 956.954 579.526 955.218 Q577.604 953.482 574.503 953.482 Q572.303 953.482 569.85 954.246 Q567.419 955.01 564.641 956.561 L564.641 951.839 Q567.466 950.704 569.919 950.126 Q572.373 949.547 574.41 949.547 Q579.78 949.547 582.975 952.232 Q586.169 954.917 586.169 959.408 Q586.169 961.538 585.359 963.459 Q584.572 965.357 582.465 967.95 Q581.887 968.621 578.785 971.838 Q575.683 975.033 570.035 980.797 Z" fill="#000000" fill-rule="evenodd" fill-opacity="1" /><path clip-path="url(#clip240)" d="M 0 0 M591.47 950.172 L609.826 950.172 L609.826 954.107 L595.752 954.107 L595.752 962.579 Q596.771 962.232 597.789 962.07 Q598.808 961.885 599.826 961.885 Q605.613 961.885 608.993 965.056 Q612.373 968.227 612.373 973.644 Q612.373 979.223 608.9 982.324 Q605.428 985.403 599.109 985.403 Q596.933 985.403 594.664 985.033 Q592.419 984.662 590.012 983.922 L590.012 979.223 Q592.095 980.357 594.317 980.912 Q596.539 981.468 599.016 981.468 Q603.021 981.468 605.359 979.362 Q607.697 977.255 607.697 973.644 Q607.697 970.033 605.359 967.926 Q603.021 965.82 599.016 965.82 Q597.141 965.82 595.266 966.237 Q593.414 966.653 591.47 967.533 L591.47 950.172 Z" fill="#000000" fill-rule="evenodd" fill-opacity="1" /><path clip-path="url(#clip240)" d="M 0 0 M627.442 953.251 Q623.831 953.251 622.002 956.815 Q620.197 960.357 620.197 967.487 Q620.197 974.593 622.002 978.158 Q623.831 981.699 627.442 981.699 Q631.076 981.699 632.882 978.158 Q634.711 974.593 634.711 967.487 Q634.711 960.357 632.882 956.815 Q631.076 953.251 627.442 953.251 M627.442 949.547 Q633.252 949.547 636.308 954.153 Q639.386 958.737 639.386 967.487 Q639.386 976.213 636.308 980.82 Q633.252 985.403 627.442 985.403 Q621.632 985.403 618.553 980.82 Q615.498 976.213 615.498 967.487 Q615.498 958.737 618.553 954.153 Q621.632 949.547 627.442 949.547 Z" fill="#000000" fill-rule="evenodd" fill-opacity="1" /><path clip-path="url(#clip240)" d="M 0 0 M998.146 950.172 L1016.5 950.172 L1016.5 954.107 L1002.43 954.107 L1002.43 962.579 Q1003.45 962.232 1004.47 962.07 Q1005.48 961.885 1006.5 961.885 Q1012.29 961.885 1015.67 965.056 Q1019.05 968.227 1019.05 973.644 Q1019.05 979.223 1015.58 982.324 Q1012.1 985.403 1005.78 985.403 Q1003.61 985.403 1001.34 985.033 Q999.095 984.662 996.688 983.922 L996.688 979.223 Q998.771 980.357 1000.99 980.912 Q1003.22 981.468 1005.69 981.468 Q1009.7 981.468 1012.03 979.362 Q1014.37 977.255 1014.37 973.644 Q1014.37 970.033 1012.03 967.926 Q1009.7 965.82 1005.69 965.82 Q1003.82 965.82 1001.94 966.237 Q1000.09 966.653 998.146 967.533 L998.146 950.172 Z" fill="#000000" fill-rule="evenodd" fill-opacity="1" /><path clip-path="url(#clip240)" d="M 0 0 M1034.12 953.251 Q1030.51 953.251 1028.68 956.815 Q1026.87 960.357 1026.87 967.487 Q1026.87 974.593 1028.68 978.158 Q1030.51 981.699 1034.12 981.699 Q1037.75 981.699 1039.56 978.158 Q1041.39 974.593 1041.39 967.487 Q1041.39 960.357 1039.56 956.815 Q1037.75 953.251 1034.12 953.251 M1034.12 949.547 Q1039.93 949.547 1042.98 954.153 Q1046.06 958.737 1046.06 967.487 Q1046.06 976.213 1042.98 980.82 Q1039.93 985.403 1034.12 985.403 Q1028.31 985.403 1025.23 980.82 Q1022.17 976.213 1022.17 967.487 Q1022.17 958.737 1025.23 954.153 Q1028.31 949.547 1034.12 949.547 Z" fill="#000000" fill-rule="evenodd" fill-opacity="1" /><path clip-path="url(#clip240)" d="M 0 0 M1061.13 953.251 Q1057.52 953.251 1055.69 956.815 Q1053.89 960.357 1053.89 967.487 Q1053.89 974.593 1055.69 978.158 Q1057.52 981.699 1061.13 981.699 Q1064.77 981.699 1066.57 978.158 Q1068.4 974.593 1068.4 967.487 Q1068.4 960.357 1066.57 956.815 Q1064.77 953.251 1061.13 953.251 M1061.13 949.547 Q1066.94 949.547 1070 954.153 Q1073.08 958.737 1073.08 967.487 Q1073.08 976.213 1070 980.82 Q1066.94 985.403 1061.13 985.403 Q1055.32 985.403 1052.24 980.82 Q1049.19 976.213 1049.19 967.487 Q1049.19 958.737 1052.24 954.153 Q1055.32 949.547 1061.13 949.547 Z" fill="#000000" fill-rule="evenodd" fill-opacity="1" /><path clip-path="url(#clip240)" d="M 0 0 M1430.24 950.172 L1452.46 950.172 L1452.46 952.163 L1439.91 984.732 L1435.03 984.732 L1446.84 954.107 L1430.24 954.107 L1430.24 950.172 Z" fill="#000000" fill-rule="evenodd" fill-opacity="1" /><path clip-path="url(#clip240)" d="M 0 0 M1457.58 950.172 L1475.93 950.172 L1475.93 954.107 L1461.86 954.107 L1461.86 962.579 Q1462.88 962.232 1463.9 962.07 Q1464.91 961.885 1465.93 961.885 Q1471.72 961.885 1475.1 965.056 Q1478.48 968.227 1478.48 973.644 Q1478.48 979.223 1475.01 982.324 Q1471.53 985.403 1465.22 985.403 Q1463.04 985.403 1460.77 985.033 Q1458.53 984.662 1456.12 983.922 L1456.12 979.223 Q1458.2 980.357 1460.42 980.912 Q1462.65 981.468 1465.12 981.468 Q1469.13 981.468 1471.47 979.362 Q1473.8 977.255 1473.8 973.644 Q1473.8 970.033 1471.47 967.926 Q1469.13 965.82 1465.12 965.82 Q1463.25 965.82 1461.37 966.237 Q1459.52 966.653 1457.58 967.533 L1457.58 950.172 Z" fill="#000000" fill-rule="evenodd" fill-opacity="1" /><path clip-path="url(#clip240)" d="M 0 0 M1493.55 953.251 Q1489.94 953.251 1488.11 956.815 Q1486.3 960.357 1486.3 967.487 Q1486.3 974.593 1488.11 978.158 Q1489.94 981.699 1493.55 981.699 Q1497.18 981.699 1498.99 978.158 Q1500.82 974.593 1500.82 967.487 Q1500.82 960.357 1498.99 956.815 Q1497.18 953.251 1493.55 953.251 M1493.55 949.547 Q1499.36 949.547 1502.41 954.153 Q1505.49 958.737 1505.49 967.487 Q1505.49 976.213 1502.41 980.82 Q1499.36 985.403 1493.55 985.403 Q1487.74 985.403 1484.66 980.82 Q1481.6 976.213 1481.6 967.487 Q1481.6 958.737 1484.66 954.153 Q1487.74 949.547 1493.55 949.547 Z" fill="#000000" fill-rule="evenodd" fill-opacity="1" /><path clip-path="url(#clip240)" d="M 0 0 M1850.71 980.797 L1858.35 980.797 L1858.35 954.431 L1850.04 956.098 L1850.04 951.839 L1858.3 950.172 L1862.98 950.172 L1862.98 980.797 L1870.62 980.797 L1870.62 984.732 L1850.71 984.732 L1850.71 980.797 Z" fill="#000000" fill-rule="evenodd" fill-opacity="1" /><path clip-path="url(#clip240)" d="M 0 0 M1885.69 953.251 Q1882.08 953.251 1880.25 956.815 Q1878.44 960.357 1878.44 967.487 Q1878.44 974.593 1880.25 978.158 Q1882.08 981.699 1885.69 981.699 Q1889.32 981.699 1891.13 978.158 Q1892.96 974.593 1892.96 967.487 Q1892.96 960.357 1891.13 956.815 Q1889.32 953.251 1885.69 953.251 M1885.69 949.547 Q1891.5 949.547 1894.55 954.153 Q1897.63 958.737 1897.63 967.487 Q1897.63 976.213 1894.55 980.82 Q1891.5 985.403 1885.69 985.403 Q1879.88 985.403 1876.8 980.82 Q1873.74 976.213 1873.74 967.487 Q1873.74 958.737 1876.8 954.153 Q1879.88 949.547 1885.69 949.547 Z" fill="#000000" fill-rule="evenodd" fill-opacity="1" /><path clip-path="url(#clip240)" d="M 0 0 M1912.7 953.251 Q1909.09 953.251 1907.26 956.815 Q1905.46 960.357 1905.46 967.487 Q1905.46 974.593 1907.26 978.158 Q1909.09 981.699 1912.7 981.699 Q1916.34 981.699 1918.14 978.158 Q1919.97 974.593 1919.97 967.487 Q1919.97 960.357 1918.14 956.815 Q1916.34 953.251 1912.7 953.251 M1912.7 949.547 Q1918.51 949.547 1921.57 954.153 Q1924.65 958.737 1924.65 967.487 Q1924.65 976.213 1921.57 980.82 Q1918.51 985.403 1912.7 985.403 Q1906.89 985.403 1903.81 980.82 Q1900.76 976.213 1900.76 967.487 Q1900.76 958.737 1903.81 954.153 Q1906.89 949.547 1912.7 949.547 Z" fill="#000000" fill-rule="evenodd" fill-opacity="1" /><path clip-path="url(#clip240)" d="M 0 0 M1939.72 953.251 Q1936.1 953.251 1934.28 956.815 Q1932.47 960.357 1932.47 967.487 Q1932.47 974.593 1934.28 978.158 Q1936.1 981.699 1939.72 981.699 Q1943.35 981.699 1945.16 978.158 Q1946.98 974.593 1946.98 967.487 Q1946.98 960.357 1945.16 956.815 Q1943.35 953.251 1939.72 953.251 M1939.72 949.547 Q1945.53 949.547 1948.58 954.153 Q1951.66 958.737 1951.66 967.487 Q1951.66 976.213 1948.58 980.82 Q1945.53 985.403 1939.72 985.403 Q1933.91 985.403 1930.83 980.82 Q1927.77 976.213 1927.77 967.487 Q1927.77 958.737 1930.83 954.153 Q1933.91 949.547 1939.72 949.547 Z" fill="#000000" fill-rule="evenodd" fill-opacity="1" /><path clip-path="url(#clip240)" d="M 0 0 M917.76 1012.6 L924.189 1012.6 L924.189 1060.12 L917.76 1060.12 L917.76 1012.6 Z" fill="#000000" fill-rule="evenodd" fill-opacity="1" /><path clip-path="url(#clip240)" d="M 0 0 M936.125 1014.35 L936.125 1024.48 L948.188 1024.48 L948.188 1029.03 L936.125 1029.03 L936.125 1048.38 Q936.125 1052.74 937.302 1053.98 Q938.512 1055.22 942.172 1055.22 L948.188 1055.22 L948.188 1060.12 L942.172 1060.12 Q935.393 1060.12 932.815 1057.61 Q930.236 1055.06 930.236 1048.38 L930.236 1029.03 L925.94 1029.03 L925.94 1024.48 L930.236 1024.48 L930.236 1014.35 L936.125 1014.35 Z" fill="#000000" fill-rule="evenodd" fill-opacity="1" /><path clip-path="url(#clip240)" d="M 0 0 M984.822 1040.84 L984.822 1043.7 L957.895 1043.7 Q958.277 1049.75 961.524 1052.93 Q964.802 1056.08 970.627 1056.08 Q974.001 1056.08 977.152 1055.25 Q980.335 1054.43 983.454 1052.77 L983.454 1058.31 Q980.303 1059.65 976.993 1060.35 Q973.682 1061.05 970.277 1061.05 Q961.747 1061.05 956.75 1056.08 Q951.784 1051.12 951.784 1042.65 Q951.784 1033.9 956.495 1028.77 Q961.237 1023.62 969.258 1023.62 Q976.451 1023.62 980.621 1028.26 Q984.822 1032.88 984.822 1040.84 M978.966 1039.12 Q978.902 1034.31 976.261 1031.45 Q973.651 1028.58 969.322 1028.58 Q964.42 1028.58 961.46 1031.35 Q958.532 1034.12 958.086 1039.15 L978.966 1039.12 Z" fill="#000000" fill-rule="evenodd" fill-opacity="1" /><path clip-path="url(#clip240)" d="M 0 0 M1011.62 1029.95 Q1010.64 1029.38 1009.46 1029.12 Q1008.31 1028.84 1006.91 1028.84 Q1001.95 1028.84 999.273 1032.08 Q996.631 1035.3 996.631 1041.35 L996.631 1060.12 L990.742 1060.12 L990.742 1024.48 L996.631 1024.48 L996.631 1030.01 Q998.477 1026.77 1001.44 1025.21 Q1004.4 1023.62 1008.63 1023.62 Q1009.23 1023.62 1009.97 1023.71 Q1010.7 1023.78 1011.59 1023.93 L1011.62 1029.95 Z" fill="#000000" fill-rule="evenodd" fill-opacity="1" /><path clip-path="url(#clip240)" d="M 0 0 M1033.97 1042.2 Q1026.87 1042.2 1024.13 1043.83 Q1021.39 1045.45 1021.39 1049.37 Q1021.39 1052.48 1023.43 1054.33 Q1025.5 1056.15 1029.03 1056.15 Q1033.9 1056.15 1036.83 1052.71 Q1039.79 1049.24 1039.79 1043.51 L1039.79 1042.2 L1033.97 1042.2 M1045.65 1039.79 L1045.65 1060.12 L1039.79 1060.12 L1039.79 1054.71 Q1037.79 1057.96 1034.79 1059.52 Q1031.8 1061.05 1027.47 1061.05 Q1022 1061.05 1018.75 1057.99 Q1015.54 1054.9 1015.54 1049.75 Q1015.54 1043.73 1019.55 1040.68 Q1023.59 1037.62 1031.58 1037.62 L1039.79 1037.62 L1039.79 1037.05 Q1039.79 1033.01 1037.12 1030.81 Q1034.47 1028.58 1029.67 1028.58 Q1026.61 1028.58 1023.72 1029.31 Q1020.82 1030.05 1018.15 1031.51 L1018.15 1026.1 Q1021.36 1024.86 1024.39 1024.25 Q1027.41 1023.62 1030.27 1023.62 Q1038.01 1023.62 1041.83 1027.63 Q1045.65 1031.64 1045.65 1039.79 Z" fill="#000000" fill-rule="evenodd" fill-opacity="1" /><path clip-path="url(#clip240)" d="M 0 0 M1057.58 1014.35 L1057.58 1024.48 L1069.65 1024.48 L1069.65 1029.03 L1057.58 1029.03 L1057.58 1048.38 Q1057.58 1052.74 1058.76 1053.98 Q1059.97 1055.22 1063.63 1055.22 L1069.65 1055.22 L1069.65 1060.12 L1063.63 1060.12 Q1056.85 1060.12 1054.27 1057.61 Q1051.69 1055.06 1051.69 1048.38 L1051.69 1029.03 L1047.4 1029.03 L1047.4 1024.48 L1051.69 1024.48 L1051.69 1014.35 L1057.58 1014.35 Z" fill="#000000" fill-rule="evenodd" fill-opacity="1" /><path clip-path="url(#clip240)" d="M 0 0 M1075.79 1024.48 L1081.64 1024.48 L1081.64 1060.12 L1075.79 1060.12 L1075.79 1024.48 M1075.79 1010.6 L1081.64 1010.6 L1081.64 1018.01 L1075.79 1018.01 L1075.79 1010.6 Z" fill="#000000" fill-rule="evenodd" fill-opacity="1" /><path clip-path="url(#clip240)" d="M 0 0 M1101.6 1028.58 Q1096.89 1028.58 1094.15 1032.27 Q1091.42 1035.93 1091.42 1042.33 Q1091.42 1048.73 1094.12 1052.42 Q1096.86 1056.08 1101.6 1056.08 Q1106.28 1056.08 1109.02 1052.39 Q1111.75 1048.7 1111.75 1042.33 Q1111.75 1036 1109.02 1032.31 Q1106.28 1028.58 1101.6 1028.58 M1101.6 1023.62 Q1109.24 1023.62 1113.6 1028.58 Q1117.96 1033.55 1117.96 1042.33 Q1117.96 1051.08 1113.6 1056.08 Q1109.24 1061.05 1101.6 1061.05 Q1093.93 1061.05 1089.57 1056.08 Q1085.24 1051.08 1085.24 1042.33 Q1085.24 1033.55 1089.57 1028.58 Q1093.93 1023.62 1101.6 1023.62 Z" fill="#000000" fill-rule="evenodd" fill-opacity="1" /><path clip-path="url(#clip240)" d="M 0 0 M1153.74 1038.61 L1153.74 1060.12 L1147.88 1060.12 L1147.88 1038.8 Q1147.88 1033.74 1145.91 1031.22 Q1143.93 1028.71 1139.99 1028.71 Q1135.24 1028.71 1132.51 1031.73 Q1129.77 1034.76 1129.77 1039.98 L1129.77 1060.12 L1123.88 1060.12 L1123.88 1024.48 L1129.77 1024.48 L1129.77 1030.01 Q1131.87 1026.8 1134.7 1025.21 Q1137.57 1023.62 1141.29 1023.62 Q1147.43 1023.62 1150.59 1027.44 Q1153.74 1031.22 1153.74 1038.61 Z" fill="#000000" fill-rule="evenodd" fill-opacity="1" /><polyline clip-path="url(#clip242)" style="stroke:#000000; stroke-width:2; stroke-opacity:0.1; fill:none" points="
  118.74,879.341 1952.76,879.341 
  "/>
<polyline clip-path="url(#clip242)" style="stroke:#000000; stroke-width:2; stroke-opacity:0.1; fill:none" points="
  118.74,673.827 1952.76,673.827 
  "/>
<polyline clip-path="url(#clip242)" style="stroke:#000000; stroke-width:2; stroke-opacity:0.1; fill:none" points="
  118.74,468.313 1952.76,468.313 
  "/>
<polyline clip-path="url(#clip242)" style="stroke:#000000; stroke-width:2; stroke-opacity:0.1; fill:none" points="
  118.74,262.798 1952.76,262.798 
  "/>
<polyline clip-path="url(#clip240)" style="stroke:#000000; stroke-width:4; stroke-opacity:1; fill:none" points="
  118.74,911.26 118.74,62.9921 
  "/>
<polyline clip-path="url(#clip240)" style="stroke:#000000; stroke-width:4; stroke-opacity:1; fill:none" points="
  118.74,879.341 140.748,879.341 
  "/>
<polyline clip-path="url(#clip240)" style="stroke:#000000; stroke-width:4; stroke-opacity:1; fill:none" points="
  118.74,673.827 140.748,673.827 
  "/>
<polyline clip-path="url(#clip240)" style="stroke:#000000; stroke-width:4; stroke-opacity:1; fill:none" points="
  118.74,468.313 140.748,468.313 
  "/>
<polyline clip-path="url(#clip240)" style="stroke:#000000; stroke-width:4; stroke-opacity:1; fill:none" points="
  118.74,262.798 140.748,262.798 
  "/>
<path clip-path="url(#clip240)" d="M 0 0 M11.4256 865.14 Q7.8145 865.14 5.98581 868.704 Q4.18026 872.246 4.18026 879.376 Q4.18026 886.482 5.98581 890.047 Q7.8145 893.588 11.4256 893.588 Q15.0598 893.588 16.8654 890.047 Q18.6941 886.482 18.6941 879.376 Q18.6941 872.246 16.8654 868.704 Q15.0598 865.14 11.4256 865.14 M11.4256 861.436 Q17.2358 861.436 20.2913 866.042 Q23.37 870.626 23.37 879.376 Q23.37 888.102 20.2913 892.709 Q17.2358 897.292 11.4256 897.292 Q5.61544 897.292 2.53675 892.709 Q-0.518784 888.102 -0.518784 879.376 Q-0.518784 870.626 2.53675 866.042 Q5.61544 861.436 11.4256 861.436 Z" fill="#000000" fill-rule="evenodd" fill-opacity="1" /><path clip-path="url(#clip240)" d="M 0 0 M28.4394 890.741 L33.3236 890.741 L33.3236 896.621 L28.4394 896.621 L28.4394 890.741 Z" fill="#000000" fill-rule="evenodd" fill-opacity="1" /><path clip-path="url(#clip240)" d="M 0 0 M42.4208 892.686 L58.7402 892.686 L58.7402 896.621 L36.7958 896.621 L36.7958 892.686 Q39.4579 889.931 44.0412 885.301 Q48.6476 880.649 49.8282 879.306 Q52.0735 876.783 52.9532 875.047 Q53.8559 873.288 53.8559 871.598 Q53.8559 868.843 51.9115 867.107 Q49.9902 865.371 46.8884 865.371 Q44.6893 865.371 42.2356 866.135 Q39.8051 866.899 37.0273 868.45 L37.0273 863.728 Q39.8514 862.593 42.3051 862.015 Q44.7588 861.436 46.7958 861.436 Q52.1661 861.436 55.3605 864.121 Q58.555 866.806 58.555 871.297 Q58.555 873.427 57.7448 875.348 Q56.9578 877.246 54.8513 879.839 Q54.2726 880.51 51.1708 883.727 Q48.0689 886.922 42.4208 892.686 Z" fill="#000000" fill-rule="evenodd" fill-opacity="1" /><path clip-path="url(#clip240)" d="M 0 0 M9.34227 659.625 Q5.73118 659.625 3.90249 663.19 Q2.09694 666.732 2.09694 673.861 Q2.09694 680.968 3.90249 684.533 Q5.73118 688.074 9.34227 688.074 Q12.9765 688.074 14.7821 684.533 Q16.6108 680.968 16.6108 673.861 Q16.6108 666.732 14.7821 663.19 Q12.9765 659.625 9.34227 659.625 M9.34227 655.922 Q15.1524 655.922 18.208 660.528 Q21.2867 665.111 21.2867 673.861 Q21.2867 682.588 18.208 687.195 Q15.1524 691.778 9.34227 691.778 Q3.53212 691.778 0.453433 687.195 Q-2.60211 682.588 -2.60211 673.861 Q-2.60211 665.111 0.453433 660.528 Q3.53212 655.922 9.34227 655.922 Z" fill="#000000" fill-rule="evenodd" fill-opacity="1" /><path clip-path="url(#clip240)" d="M 0 0 M26.3561 685.227 L31.2403 685.227 L31.2403 691.107 L26.3561 691.107 L26.3561 685.227 Z" fill="#000000" fill-rule="evenodd" fill-opacity="1" /><path clip-path="url(#clip240)" d="M 0 0 M49.1569 660.621 L37.3514 679.07 L49.1569 679.07 L49.1569 660.621 M47.93 656.547 L53.8096 656.547 L53.8096 679.07 L58.7402 679.07 L58.7402 682.959 L53.8096 682.959 L53.8096 691.107 L49.1569 691.107 L49.1569 682.959 L33.5551 682.959 L33.5551 678.445 L47.93 656.547 Z" fill="#000000" fill-rule="evenodd" fill-opacity="1" /><path clip-path="url(#clip240)" d="M 0 0 M9.66635 454.111 Q6.05525 454.111 4.22656 457.676 Q2.42101 461.218 2.42101 468.347 Q2.42101 475.454 4.22656 479.018 Q6.05525 482.56 9.66635 482.56 Q13.3006 482.56 15.1061 479.018 Q16.9348 475.454 16.9348 468.347 Q16.9348 461.218 15.1061 457.676 Q13.3006 454.111 9.66635 454.111 M9.66635 450.408 Q15.4765 450.408 18.532 455.014 Q21.6107 459.597 21.6107 468.347 Q21.6107 477.074 18.532 481.681 Q15.4765 486.264 9.66635 486.264 Q3.85619 486.264 0.777505 481.681 Q-2.27803 477.074 -2.27803 468.347 Q-2.27803 459.597 0.777505 455.014 Q3.85619 450.408 9.66635 450.408 Z" fill="#000000" fill-rule="evenodd" fill-opacity="1" /><path clip-path="url(#clip240)" d="M 0 0 M26.6801 479.713 L31.5644 479.713 L31.5644 485.593 L26.6801 485.593 L26.6801 479.713 Z" fill="#000000" fill-rule="evenodd" fill-opacity="1" /><path clip-path="url(#clip240)" d="M 0 0 M47.2124 466.449 Q44.0643 466.449 42.2125 468.602 Q40.3838 470.755 40.3838 474.505 Q40.3838 478.231 42.2125 480.407 Q44.0643 482.56 47.2124 482.56 Q50.3606 482.56 52.1893 480.407 Q54.0411 478.231 54.0411 474.505 Q54.0411 470.755 52.1893 468.602 Q50.3606 466.449 47.2124 466.449 M56.4948 451.796 L56.4948 456.056 Q54.7355 455.222 52.93 454.783 Q51.1476 454.343 49.3884 454.343 Q44.7588 454.343 42.3051 457.468 Q39.8745 460.593 39.5273 466.912 Q40.893 464.898 42.9532 463.833 Q45.0134 462.745 47.4902 462.745 Q52.6985 462.745 55.7078 465.917 Q58.7402 469.065 58.7402 474.505 Q58.7402 479.829 55.592 483.046 Q52.4439 486.264 47.2124 486.264 Q41.2171 486.264 38.0458 481.681 Q34.8745 477.074 34.8745 468.347 Q34.8745 460.153 38.7634 455.292 Q42.6523 450.408 49.2032 450.408 Q50.9624 450.408 52.7448 450.755 Q54.5504 451.102 56.4948 451.796 Z" fill="#000000" fill-rule="evenodd" fill-opacity="1" /><path clip-path="url(#clip240)" d="M 0 0 M9.92097 248.597 Q6.30988 248.597 4.48119 252.162 Q2.67564 255.703 2.67564 262.833 Q2.67564 269.94 4.48119 273.504 Q6.30988 277.046 9.92097 277.046 Q13.5552 277.046 15.3608 273.504 Q17.1895 269.94 17.1895 262.833 Q17.1895 255.703 15.3608 252.162 Q13.5552 248.597 9.92097 248.597 M9.92097 244.893 Q15.7311 244.893 18.7867 249.5 Q21.8654 254.083 21.8654 262.833 Q21.8654 271.56 18.7867 276.166 Q15.7311 280.75 9.92097 280.75 Q4.11082 280.75 1.03213 276.166 Q-2.02341 271.56 -2.02341 262.833 Q-2.02341 254.083 1.03213 249.5 Q4.11082 244.893 9.92097 244.893 Z" fill="#000000" fill-rule="evenodd" fill-opacity="1" /><path clip-path="url(#clip240)" d="M 0 0 M26.9348 274.199 L31.819 274.199 L31.819 280.078 L26.9348 280.078 L26.9348 274.199 Z" fill="#000000" fill-rule="evenodd" fill-opacity="1" /><path clip-path="url(#clip240)" d="M 0 0 M46.8884 263.666 Q43.5551 263.666 41.6338 265.449 Q39.7356 267.231 39.7356 270.356 Q39.7356 273.481 41.6338 275.264 Q43.5551 277.046 46.8884 277.046 Q50.2217 277.046 52.143 275.264 Q54.0643 273.458 54.0643 270.356 Q54.0643 267.231 52.143 265.449 Q50.2448 263.666 46.8884 263.666 M42.2125 261.676 Q39.2032 260.935 37.5134 258.875 Q35.8468 256.815 35.8468 253.852 Q35.8468 249.708 38.7866 247.301 Q41.7495 244.893 46.8884 244.893 Q52.0504 244.893 54.9902 247.301 Q57.93 249.708 57.93 253.852 Q57.93 256.815 56.2402 258.875 Q54.5735 260.935 51.5874 261.676 Q54.967 262.463 56.842 264.754 Q58.7402 267.046 58.7402 270.356 Q58.7402 275.379 55.6615 278.064 Q52.6059 280.75 46.8884 280.75 Q41.1708 280.75 38.0921 278.064 Q35.0366 275.379 35.0366 270.356 Q35.0366 267.046 36.9347 264.754 Q38.8329 262.463 42.2125 261.676 M40.4995 254.291 Q40.4995 256.977 42.1662 258.481 Q43.856 259.986 46.8884 259.986 Q49.8976 259.986 51.5874 258.481 Q53.3004 256.977 53.3004 254.291 Q53.3004 251.606 51.5874 250.102 Q49.8976 248.597 46.8884 248.597 Q43.856 248.597 42.1662 250.102 Q40.4995 251.606 40.4995 254.291 Z" fill="#000000" fill-rule="evenodd" fill-opacity="1" /><path clip-path="url(#clip240)" d="M 0 0 M-82.8185 650.184 L-76.5483 650.184 Q-78.2989 653.844 -79.1582 657.09 Q-80.0176 660.337 -80.0176 663.361 Q-80.0176 668.612 -77.9806 671.477 Q-75.9435 674.31 -72.1878 674.31 Q-69.0368 674.31 -67.4135 672.432 Q-65.8221 670.522 -64.8354 665.238 L-64.0397 661.355 Q-62.671 654.162 -59.2017 650.756 Q-55.7643 647.319 -49.9715 647.319 Q-43.0647 647.319 -39.4999 651.966 Q-35.9351 656.581 -35.9351 665.525 Q-35.9351 668.899 -36.699 672.718 Q-37.4628 676.506 -38.9588 680.58 L-45.5791 680.58 Q-43.383 676.665 -42.269 672.909 Q-41.155 669.153 -41.155 665.525 Q-41.155 660.019 -43.3193 657.027 Q-45.4836 654.035 -49.494 654.035 Q-52.9952 654.035 -54.9685 656.199 Q-56.9419 658.332 -57.9286 663.233 L-58.6925 667.148 Q-60.1248 674.341 -63.1803 677.556 Q-66.2358 680.771 -71.6785 680.771 Q-77.9806 680.771 -81.609 676.347 Q-85.2375 671.891 -85.2375 664.093 Q-85.2375 660.751 -84.6327 657.281 Q-84.028 653.812 -82.8185 650.184 Z" fill="#000000" fill-rule="evenodd" fill-opacity="1" /><path clip-path="url(#clip240)" d="M 0 0 M-54.7776 624.975 Q-54.7776 632.073 -53.1543 634.81 Q-51.5311 637.548 -47.6162 637.548 Q-44.497 637.548 -42.6509 635.511 Q-40.8367 633.442 -40.8367 629.909 Q-40.8367 625.039 -44.2742 622.111 Q-47.7435 619.151 -53.4726 619.151 L-54.7776 619.151 L-54.7776 624.975 M-57.1965 613.294 L-36.8581 613.294 L-36.8581 619.151 L-42.269 619.151 Q-39.0224 621.156 -37.4628 624.148 Q-35.9351 627.14 -35.9351 631.468 Q-35.9351 636.943 -38.9906 640.189 Q-42.078 643.404 -47.2342 643.404 Q-53.2498 643.404 -56.3053 639.394 Q-59.3609 635.351 -59.3609 627.363 L-59.3609 619.151 L-59.9338 619.151 Q-63.976 619.151 -66.1722 621.824 Q-68.4002 624.466 -68.4002 629.272 Q-68.4002 632.328 -67.6681 635.224 Q-66.9361 638.121 -65.472 640.794 L-70.8828 640.794 Q-72.1241 637.579 -72.7289 634.556 Q-73.3654 631.532 -73.3654 628.667 Q-73.3654 620.933 -69.355 617.114 Q-65.3446 613.294 -57.1965 613.294 Z" fill="#000000" fill-rule="evenodd" fill-opacity="1" /><path clip-path="url(#clip240)" d="M 0 0 M-65.6629 579.397 Q-69.6097 577.201 -71.4876 574.145 Q-73.3654 571.09 -73.3654 566.952 Q-73.3654 561.382 -69.4505 558.358 Q-65.5674 555.335 -58.3742 555.335 L-36.8581 555.335 L-36.8581 561.223 L-58.1832 561.223 Q-63.3076 561.223 -65.7902 563.037 Q-68.2729 564.851 -68.2729 568.575 Q-68.2729 573.127 -65.2492 575.768 Q-62.2254 578.41 -57.0056 578.41 L-36.8581 578.41 L-36.8581 584.298 L-58.1832 584.298 Q-63.3394 584.298 -65.7902 586.113 Q-68.2729 587.927 -68.2729 591.715 Q-68.2729 596.202 -65.2173 598.844 Q-62.1936 601.486 -57.0056 601.486 L-36.8581 601.486 L-36.8581 607.374 L-72.5061 607.374 L-72.5061 601.486 L-66.9679 601.486 Q-70.2462 599.481 -71.8058 596.68 Q-73.3654 593.879 -73.3654 590.028 Q-73.3654 586.145 -71.3921 583.439 Q-69.4187 580.702 -65.6629 579.397 Z" fill="#000000" fill-rule="evenodd" fill-opacity="1" /><path clip-path="url(#clip240)" d="M 0 0 M-42.2053 543.526 L-23.2992 543.526 L-23.2992 549.414 L-72.5061 549.414 L-72.5061 543.526 L-67.0952 543.526 Q-70.2781 541.68 -71.8058 538.879 Q-73.3654 536.046 -73.3654 532.132 Q-73.3654 525.639 -68.2092 521.596 Q-63.053 517.522 -54.6503 517.522 Q-46.2475 517.522 -41.0913 521.596 Q-35.9351 525.639 -35.9351 532.132 Q-35.9351 536.046 -37.4628 538.879 Q-39.0224 541.68 -42.2053 543.526 M-54.6503 523.601 Q-61.1114 523.601 -64.7717 526.275 Q-68.4638 528.917 -68.4638 533.564 Q-68.4638 538.211 -64.7717 540.884 Q-61.1114 543.526 -54.6503 543.526 Q-48.1891 543.526 -44.497 540.884 Q-40.8367 538.211 -40.8367 533.564 Q-40.8367 528.917 -44.497 526.275 Q-48.1891 523.601 -54.6503 523.601 Z" fill="#000000" fill-rule="evenodd" fill-opacity="1" /><path clip-path="url(#clip240)" d="M 0 0 M-86.3833 511.379 L-86.3833 505.523 L-36.8581 505.523 L-36.8581 511.379 L-86.3833 511.379 Z" fill="#000000" fill-rule="evenodd" fill-opacity="1" /><path clip-path="url(#clip240)" d="M 0 0 M-56.1462 468.888 L-53.2816 468.888 L-53.2816 495.815 Q-47.2342 495.433 -44.0514 492.187 Q-40.9003 488.908 -40.9003 483.084 Q-40.9003 479.71 -41.7279 476.559 Q-42.5554 473.376 -44.2105 470.257 L-38.6723 470.257 Q-37.3355 473.408 -36.6353 476.718 Q-35.9351 480.028 -35.9351 483.434 Q-35.9351 491.964 -40.9003 496.961 Q-45.8656 501.926 -54.332 501.926 Q-63.0848 501.926 -68.2092 497.216 Q-73.3654 492.473 -73.3654 484.452 Q-73.3654 477.259 -68.7185 473.09 Q-64.1033 468.888 -56.1462 468.888 M-57.8649 474.745 Q-62.671 474.808 -65.5356 477.45 Q-68.4002 480.06 -68.4002 484.389 Q-68.4002 489.29 -65.6311 492.25 Q-62.862 495.179 -57.8331 495.624 L-57.8649 474.745 Z" fill="#000000" fill-rule="evenodd" fill-opacity="1" /><path clip-path="url(#clip240)" d="M 0 0 M-72.5061 446.226 L-72.5061 440.02 L-42.5872 428.88 L-72.5061 417.74 L-72.5061 411.533 L-36.8581 424.901 L-36.8581 432.858 L-72.5061 446.226 Z" fill="#000000" fill-rule="evenodd" fill-opacity="1" /><path clip-path="url(#clip240)" d="M 0 0 M-54.7776 389.19 Q-54.7776 396.287 -53.1543 399.025 Q-51.5311 401.762 -47.6162 401.762 Q-44.497 401.762 -42.6509 399.725 Q-40.8367 397.656 -40.8367 394.123 Q-40.8367 389.253 -44.2742 386.325 Q-47.7435 383.365 -53.4726 383.365 L-54.7776 383.365 L-54.7776 389.19 M-57.1965 377.509 L-36.8581 377.509 L-36.8581 383.365 L-42.269 383.365 Q-39.0224 385.37 -37.4628 388.362 Q-35.9351 391.354 -35.9351 395.683 Q-35.9351 401.157 -38.9906 404.404 Q-42.078 407.618 -47.2342 407.618 Q-53.2498 407.618 -56.3053 403.608 Q-59.3609 399.566 -59.3609 391.577 L-59.3609 383.365 L-59.9338 383.365 Q-63.976 383.365 -66.1722 386.039 Q-68.4002 388.68 -68.4002 393.486 Q-68.4002 396.542 -67.6681 399.438 Q-66.9361 402.335 -65.472 405.008 L-70.8828 405.008 Q-72.1241 401.794 -72.7289 398.77 Q-73.3654 395.746 -73.3654 392.882 Q-73.3654 385.147 -69.355 381.328 Q-65.3446 377.509 -57.1965 377.509 Z" fill="#000000" fill-rule="evenodd" fill-opacity="1" /><path clip-path="url(#clip240)" d="M 0 0 M-86.3833 371.366 L-86.3833 365.509 L-36.8581 365.509 L-36.8581 371.366 L-86.3833 371.366 Z" fill="#000000" fill-rule="evenodd" fill-opacity="1" /><path clip-path="url(#clip240)" d="M 0 0 M-50.9263 359.971 L-72.5061 359.971 L-72.5061 354.115 L-51.1491 354.115 Q-46.0884 354.115 -43.5421 352.141 Q-41.0276 350.168 -41.0276 346.221 Q-41.0276 341.479 -44.0514 338.741 Q-47.0751 335.972 -52.2949 335.972 L-72.5061 335.972 L-72.5061 330.116 L-36.8581 330.116 L-36.8581 335.972 L-42.3326 335.972 Q-39.0861 338.105 -37.4947 340.938 Q-35.9351 343.738 -35.9351 347.462 Q-35.9351 353.605 -39.7545 356.788 Q-43.5739 359.971 -50.9263 359.971 M-73.3654 345.234 L-73.3654 345.234 Z" fill="#000000" fill-rule="evenodd" fill-opacity="1" /><path clip-path="url(#clip240)" d="M 0 0 M-56.1462 293.481 L-53.2816 293.481 L-53.2816 320.408 Q-47.2342 320.026 -44.0514 316.78 Q-40.9003 313.501 -40.9003 307.677 Q-40.9003 304.303 -41.7279 301.152 Q-42.5554 297.969 -44.2105 294.85 L-38.6723 294.85 Q-37.3355 298.001 -36.6353 301.311 Q-35.9351 304.621 -35.9351 308.027 Q-35.9351 316.557 -40.9003 321.554 Q-45.8656 326.519 -54.332 326.519 Q-63.0848 326.519 -68.2092 321.809 Q-73.3654 317.066 -73.3654 309.045 Q-73.3654 301.852 -68.7185 297.683 Q-64.1033 293.481 -56.1462 293.481 M-57.8649 299.338 Q-62.671 299.401 -65.5356 302.043 Q-68.4002 304.653 -68.4002 308.982 Q-68.4002 313.883 -65.6311 316.843 Q-62.862 319.772 -57.8331 320.217 L-57.8649 299.338 Z" fill="#000000" fill-rule="evenodd" fill-opacity="1" /><path clip-path="url(#clip240)" d="M 0 0 M1048.63 43.8146 L1022.83 43.8146 Q1023.43 55.9268 1026.23 61.0714 Q1029.71 67.3908 1035.75 67.3908 Q1041.82 67.3908 1045.19 61.0309 Q1048.14 55.4407 1048.63 43.8146 M1048.51 36.928 Q1047.37 25.4235 1045.19 21.3726 Q1041.7 14.9721 1035.75 14.9721 Q1029.55 14.9721 1026.27 21.2916 Q1023.68 26.3957 1022.91 36.928 L1048.51 36.928 M1035.75 8.89579 Q1045.47 8.89579 1051.02 17.4837 Q1056.57 26.0311 1056.57 41.1815 Q1056.57 56.2914 1051.02 64.8793 Q1045.47 73.5077 1035.75 73.5077 Q1025.99 73.5077 1020.48 64.8793 Q1014.93 56.2914 1014.93 41.1815 Q1014.93 26.0311 1020.48 17.4837 Q1025.99 8.89579 1035.75 8.89579 Z" fill="#000000" fill-rule="evenodd" fill-opacity="1" /><polyline clip-path="url(#clip242)" style="stroke:#009af9; stroke-width:4; stroke-opacity:1; fill:none" points="
  170.646,301.415 172.378,234.109 174.11,391.729 175.842,479.456 177.574,425.208 179.306,418.731 181.038,342.734 182.77,515.151 184.502,528.686 186.234,528.686 
  187.966,607.213 189.698,509.29 191.429,763.148 193.161,364.984 194.893,351.756 196.625,315.209 198.357,280.195 200.089,491.644 201.821,301.049 203.553,329.021 
  205.285,441.435 207.017,441.435 208.749,441.435 210.481,441.435 212.213,353.98 213.945,353.98 215.677,400.364 217.409,720.873 219.14,190.811 220.872,209.683 
  222.604,621.151 224.336,586.707 226.068,455.583 227.8,329.836 229.532,558.099 231.264,558.099 232.996,404.587 234.728,425.949 236.46,425.949 238.192,425.949 
  239.924,347.65 241.656,390.977 243.388,439.641 245.119,468.336 246.851,333.203 248.583,217.317 250.315,696.371 252.047,355.947 253.779,451.081 255.511,568.487 
  257.243,254.184 258.975,371.176 260.707,338.165 262.439,247.353 264.171,576.277 265.903,435.629 267.635,414.224 269.367,480.18 271.099,519.218 272.83,435.044 
  274.562,333.313 276.294,547.13 278.026,413.477 279.758,373.804 281.49,373.804 283.222,625.045 284.954,266.043 286.686,561.982 288.418,438.472 290.15,438.146 
  291.882,437.391 293.614,513.151 295.346,355.43 297.078,447.331 298.809,504.821 300.541,544.12 302.273,246.491 304.005,612.525 305.737,284.255 307.469,406.83 
  309.201,646.206 310.933,641.198 312.665,436.987 314.397,550.863 316.129,391.472 317.861,391.472 319.593,330.703 321.325,555.073 323.057,497.995 324.789,499.783 
  326.52,666.657 328.252,666.657 329.984,551.025 331.716,555.348 333.448,243.07 335.18,297.041 336.912,403.838 338.644,414.569 340.376,387.137 342.108,387.137 
  343.84,396.075 345.572,396.075 347.304,342.86 349.036,297.576 350.768,280.62 352.499,345.991 354.231,264.236 355.963,578.648 357.695,547.99 359.427,547.99 
  361.159,546.394 362.891,506.181 364.623,743.264 366.355,419.263 368.087,345.952 369.819,261.933 371.551,441.513 373.283,772.531 375.015,649.336 376.747,519.706 
  378.479,535.376 380.21,483.941 381.942,722.51 383.674,672.588 385.406,603.86 387.138,520.12 388.87,260.163 390.602,226.829 392.334,296.861 394.066,353.042 
  395.798,353.042 397.53,490.234 399.262,583.104 400.994,224.306 402.726,111.163 404.458,230.688 406.189,230.688 407.921,641.65 409.653,505.76 411.385,305.037 
  413.117,461.61 414.849,461.61 416.581,545.388 418.313,210.07 420.045,610.424 421.777,469.528 423.509,469.528 425.241,472.561 426.973,211.464 428.705,319.774 
  430.437,244.145 432.169,393.581 433.9,394.607 435.632,394.607 437.364,474.082 439.096,474.082 440.828,498.604 442.56,370.872 444.292,297.391 446.024,402.252 
  447.756,416.091 449.488,405.003 451.22,683.731 452.952,627.385 454.684,239.3 456.416,340.722 458.148,351.619 459.879,426.798 461.611,426.798 463.343,419.544 
  465.075,435.591 466.807,324.362 468.539,416.117 470.271,440.535 472.003,482.14 473.735,289.308 475.467,212.535 477.199,375.625 478.931,311.48 480.663,280.682 
  482.395,575.301 484.127,544.812 485.859,391.067 487.59,463.984 489.322,484.769 491.054,412.872 492.786,351.455 494.518,382.764 496.25,382.764 497.982,328.275 
  499.714,553.844 501.446,497.794 503.178,414.241 504.91,593.001 506.642,270.553 508.374,607.7 510.106,588.052 511.838,672.107 513.569,664.474 515.301,473.3 
  517.033,571.877 518.765,316.943 520.497,355.098 522.229,417.468 523.961,417.468 525.693,417.468 527.425,470.35 529.157,416.905 530.889,439.753 532.621,439.753 
  534.353,439.753 536.085,715.526 537.817,561.91 539.549,645.788 541.28,665.473 543.012,586.079 544.744,586.079 546.476,431.344 548.208,233.231 549.94,621.004 
  551.672,683.079 553.404,407.618 555.136,351.067 556.868,492.408 558.6,823.321 560.332,475.356 562.064,377.92 563.796,384.679 565.528,359.476 567.259,359.476 
  568.991,386.144 570.723,467.843 572.455,492.092 574.187,492.092 575.919,714.694 577.651,593.549 579.383,494.826 581.115,494.826 582.847,599.869 584.579,593.644 
  586.311,283.756 588.043,405.902 589.775,719.387 591.507,220.096 593.239,261.383 594.97,582.219 596.702,636.156 598.434,467.708 600.166,389.475 601.898,394.73 
  603.63,384.681 605.362,420.844 607.094,359.738 608.826,288.904 610.558,574.929 612.29,156.592 614.022,331.12 615.754,435.721 617.486,435.721 619.218,545.325 
  620.949,302.841 622.681,318.418 624.413,400.134 626.145,626.189 627.877,248.767 629.609,430.315 631.341,620.922 633.073,205.489 634.805,167.888 636.537,167.888 
  638.269,276.719 640.001,625.511 641.733,656.304 643.465,186.821 645.197,324.844 646.929,352.857 648.66,490.242 650.392,375.515 652.124,258.257 653.856,210.241 
  655.588,344.516 657.32,327.188 659.052,352.12 660.784,270.17 662.516,366.617 664.248,512.979 665.98,661.834 667.712,661.834 669.444,661.834 671.176,231.624 
  672.908,293.655 674.639,331.518 676.371,529.549 678.103,529.549 679.835,278.01 681.567,320.003 683.299,415.343 685.031,415.343 686.763,395.695 688.495,395.695 
  690.227,667.494 691.959,534.593 693.691,498.05 695.423,490.722 697.155,523.542 698.887,648.628 700.619,583.761 702.35,583.761 704.082,835.474 705.814,656.179 
  707.546,505.685 709.278,767.933 711.01,606.062 712.742,606.062 714.474,606.062 716.206,653.293 717.938,653.293 719.67,512.958 721.402,258.975 723.134,258.975 
  724.866,142.481 726.598,534.131 728.329,576.079 730.061,543.897 731.793,585.397 733.525,585.397 735.257,606.114 736.989,627.619 738.721,626.446 740.453,469.069 
  742.185,450.898 743.917,450.898 745.649,273.927 747.381,307.354 749.113,225.205 750.845,632.172 752.577,266.268 754.309,252.4 756.04,325.924 757.772,437.26 
  759.504,437.26 761.236,437.26 762.968,437.26 764.7,658.284 766.432,677.708 768.164,658.449 769.896,481.713 771.628,481.713 773.36,605.644 775.092,413.714 
  776.824,343.879 778.556,534.103 780.288,306.599 782.019,336.537 783.751,432.202 785.483,432.202 787.215,470.078 788.947,221.118 790.679,718.711 792.411,770.634 
  794.143,613.168 795.875,613.168 797.607,613.168 799.339,719.158 801.071,689.883 802.803,188.954 804.535,188.954 806.267,188.454 807.999,763.676 809.73,738.606 
  811.462,515.433 813.194,611.622 814.926,550.087 816.658,330.144 818.39,553.507 820.122,523.582 821.854,460.701 823.586,297.371 825.318,297.371 827.05,528.655 
  828.782,481.615 830.514,570.831 832.246,581.44 833.978,227.185 835.709,287.87 837.441,379.942 839.173,663.071 840.905,470.482 842.637,371.162 844.369,462.516 
  846.101,336.705 847.833,336.705 849.565,549.616 851.297,300.748 853.029,543.027 854.761,338.329 856.493,338.329 858.225,418.813 859.957,418.813 861.689,596.833 
  863.42,528.806 865.152,784.382 866.884,587.505 868.616,293.644 870.348,515.894 872.08,333.162 873.812,252.44 875.544,205.222 877.276,180.557 879.008,288.1 
  880.74,223.204 882.472,690.197 884.204,503.105 885.936,503.105 887.668,736.949 889.399,713.351 891.131,713.351 892.863,589.607 894.595,589.607 896.327,563.178 
  898.059,435.059 899.791,364.915 901.523,329.209 903.255,424.876 904.987,424.876 906.719,424.876 908.451,344.045 910.183,344.045 911.915,274.91 913.647,343.896 
  915.379,537.681 917.11,705.337 918.842,415.115 920.574,500.139 922.306,520.843 924.038,325.411 925.77,453.65 927.502,592.302 929.234,661.4 930.966,407.457 
  932.698,237.128 934.43,557.955 936.162,557.955 937.894,512.996 939.626,479.578 941.358,319.636 943.089,569.657 944.821,290.903 946.553,268.9 948.285,268.321 
  950.017,332.498 951.749,410.125 953.481,694.13 955.213,694.13 956.945,694.13 958.677,618.902 960.409,618.902 962.141,492.451 963.873,492.451 965.605,361.519 
  967.337,429.82 969.069,306.68 970.8,205.293 972.532,338.591 974.264,250.724 975.996,392.237 977.728,836.386 979.46,836.386 981.192,382.31 982.924,323.273 
  984.656,194.344 986.388,610.55 988.12,473.841 989.852,473.841 991.584,474.246 993.316,474.246 995.048,530.25 996.779,310.67 998.511,277.09 1000.24,147.908 
  1001.98,203.04 1003.71,189.73 1005.44,652.634 1007.17,421.241 1008.9,496.804 1010.63,496.804 1012.37,496.804 1014.1,296.818 1015.83,530.795 1017.56,160.96 
  1019.29,356.984 1021.03,246.985 1022.76,588.285 1024.49,429.64 1026.22,357.638 1027.95,379.498 1029.69,463.795 1031.42,308.12 1033.15,372.658 1034.88,295.836 
  1036.61,887.252 1038.35,887.252 1040.08,86.9997 1041.81,709.799 1043.54,417.467 1045.27,129.621 1047.01,323.509 1048.74,386.644 1050.47,265.417 1052.2,376.214 
  1053.93,376.214 1055.67,502.089 1057.4,502.089 1059.13,503.856 1060.86,314.61 1062.59,314.61 1064.32,456.596 1066.06,456.596 1067.79,558.212 1069.52,558.212 
  1071.25,295.364 1072.98,217.055 1074.72,441.633 1076.45,599.015 1078.18,295.551 1079.91,229.302 1081.64,292.103 1083.38,276.582 1085.11,381.013 1086.84,479.891 
  1088.57,612.525 1090.3,467.143 1092.04,469.105 1093.77,468.838 1095.5,426.82 1097.23,636.273 1098.96,512.174 1100.7,512.174 1102.43,512.174 1104.16,274.119 
  1105.89,274.119 1107.62,348.025 1109.36,348.025 1111.09,459.184 1112.82,570.062 1114.55,453.313 1116.28,419.638 1118.01,230.752 1119.75,268.682 1121.48,557.39 
  1123.21,557.39 1124.94,557.39 1126.67,580.872 1128.41,289.868 1130.14,175.031 1131.87,174.302 1133.6,267.534 1135.33,520.226 1137.07,520.226 1138.8,590.608 
  1140.53,462.269 1142.26,724.149 1143.99,574.226 1145.73,317.646 1147.46,545.278 1149.19,268.375 1150.92,143.617 1152.65,688.512 1154.39,722.459 1156.12,179.719 
  1157.85,483.247 1159.58,591.659 1161.31,457.417 1163.05,612.059 1164.78,244.653 1166.51,563.558 1168.24,436.507 1169.97,545.511 1171.7,457.071 1173.44,410.64 
  1175.17,410.64 1176.9,445.157 1178.63,445.157 1180.36,640.212 1182.1,485.406 1183.83,485.406 1185.56,485.406 1187.29,562.834 1189.02,542.041 1190.76,542.041 
  1192.49,337.925 1194.22,507.284 1195.95,507.284 1197.68,448.837 1199.42,525.218 1201.15,665.136 1202.88,494.012 1204.61,753.642 1206.34,457.478 1208.08,299.763 
  1209.81,341.94 1211.54,315.716 1213.27,323.438 1215,323.438 1216.74,330.415 1218.47,432.575 1220.2,306.561 1221.93,521.013 1223.66,460.093 1225.39,412.048 
  1227.13,590.57 1228.86,590.57 1230.59,559.18 1232.32,566.97 1234.05,321.276 1235.79,513.186 1237.52,267.764 1239.25,118.355 1240.98,481.006 1242.71,732.048 
  1244.45,529.005 1246.18,505.123 1247.91,472.323 1249.64,472.323 1251.37,472.323 1253.11,676.88 1254.84,676.88 1256.57,477.103 1258.3,799.547 1260.03,750.947 
  1261.77,595.522 1263.5,425.003 1265.23,277.621 1266.96,577.797 1268.69,561.383 1270.43,491.597 1272.16,510.747 1273.89,361.634 1275.62,194.073 1277.35,346.182 
  1279.08,346.182 1280.82,346.182 1282.55,494.71 1284.28,494.71 1286.01,681.589 1287.74,476.691 1289.48,398.634 1291.21,398.634 1292.94,339.812 1294.67,334.554 
  1296.4,350.727 1298.14,383.114 1299.87,587.435 1301.6,416.635 1303.33,390.199 1305.06,390.199 1306.8,241.948 1308.53,143.026 1310.26,242.754 1311.99,309.931 
  1313.72,317.337 1315.46,418.28 1317.19,340.594 1318.92,357.594 1320.65,324.753 1322.38,330.36 1324.12,404.936 1325.85,390.97 1327.58,229.698 1329.31,260.613 
  1331.04,225.167 1332.77,317.866 1334.51,276.602 1336.24,347.752 1337.97,283.697 1339.7,303.232 1341.43,451.12 1343.17,565.454 1344.9,435.265 1346.63,461.092 
  1348.36,307.276 1350.09,526.265 1351.83,279.274 1353.56,331.044 1355.29,438.817 1357.02,438.817 1358.75,211.672 1360.49,659.14 1362.22,258.176 1363.95,390.891 
  1365.68,390.891 1367.41,390.891 1369.15,817.458 1370.88,371.154 1372.61,216.36 1374.34,256.636 1376.07,256.636 1377.81,630.004 1379.54,693.592 1381.27,471.002 
  1383,377.486 1384.73,443.61 1386.46,425.749 1388.2,425.749 1389.93,425.749 1391.66,425.749 1393.39,208.559 1395.12,346.927 1396.86,518.282 1398.59,355.749 
  1400.32,360.297 1402.05,466.593 1403.78,728.093 1405.52,543.437 1407.25,543.437 1408.98,562.582 1410.71,724.358 1412.44,554.39 1414.18,307.185 1415.91,277.944 
  1417.64,275.058 1419.37,321.323 1421.1,256.562 1422.84,606.342 1424.57,212.599 1426.3,403.16 1428.03,403.16 1429.76,259.545 1431.5,296.498 1433.23,514.537 
  1434.96,460.82 1436.69,460.82 1438.42,460.82 1440.15,405.923 1441.89,307.677 1443.62,422.56 1445.35,427.856 1447.08,533.56 1448.81,533.56 1450.55,308.074 
  1452.28,370.745 1454.01,455.335 1455.74,502.863 1457.47,333.528 1459.21,382.089 1460.94,308.228 1462.67,420.141 1464.4,314.751 1466.13,505.005 1467.87,319.189 
  1469.6,494.988 1471.33,226.13 1473.06,221.001 1474.79,328.644 1476.53,529.743 1478.26,497.401 1479.99,544.052 1481.72,494.094 1483.45,562.518 1485.19,562.518 
  1486.92,563.511 1488.65,576.789 1490.38,311.902 1492.11,197.889 1493.84,257.179 1495.58,365.942 1497.31,352.038 1499.04,342.276 1500.77,293.473 1502.5,508.22 
  1504.24,461.372 1505.97,461.372 1507.7,461.372 1509.43,336.197 1511.16,338.61 1512.9,427.092 1514.63,506.58 1516.36,579.052 1518.09,579.052 1519.82,692.926 
  1521.56,526.719 1523.29,430.365 1525.02,244.673 1526.75,305.252 1528.48,590.309 1530.22,590.309 1531.95,301.718 1533.68,309.879 1535.41,309.879 1537.14,277.374 
  1538.88,493.239 1540.61,505.018 1542.34,330.371 1544.07,381.486 1545.8,381.486 1547.53,480.066 1549.27,453.558 1551,586.597 1552.73,613.913 1554.46,707.622 
  1556.19,707.622 1557.93,496.662 1559.66,488.011 1561.39,576.323 1563.12,499.424 1564.85,294.628 1566.59,417.84 1568.32,383.943 1570.05,569.874 1571.78,640.705 
  1573.51,691.161 1575.25,570.567 1576.98,570.567 1578.71,570.567 1580.44,233.806 1582.17,309.658 1583.91,309.658 1585.64,582.339 1587.37,470.977 1589.1,564.533 
  1590.83,763.968 1592.57,433.764 1594.3,469.443 1596.03,239.977 1597.76,296.427 1599.49,422.331 1601.22,519.414 1602.96,357.688 1604.69,309.183 1606.42,326.896 
  1608.15,292.729 1609.88,326.744 1611.62,326.744 1613.35,535.631 1615.08,449.694 1616.81,373.73 1618.54,373.73 1620.28,460.456 1622.01,319.834 1623.74,379.111 
  1625.47,379.111 1627.2,375.524 1628.94,451.796 1630.67,590.078 1632.4,551.119 1634.13,660.175 1635.86,705.71 1637.6,613.995 1639.33,687.709 1641.06,687.709 
  1642.79,544.801 1644.52,636.264 1646.26,205.869 1647.99,205.869 1649.72,353.212 1651.45,477.807 1653.18,477.807 1654.91,428.469 1656.65,428.469 1658.38,525.154 
  1660.11,305.561 1661.84,227.81 1663.57,395.534 1665.31,395.534 1667.04,362.32 1668.77,362.32 1670.5,362.32 1672.23,201.038 1673.97,427.855 1675.7,427.855 
  1677.43,851.139 1679.16,433.707 1680.89,335.061 1682.63,335.061 1684.36,490.031 1686.09,700.765 1687.82,453.232 1689.55,326.872 1691.29,458.516 1693.02,562.325 
  1694.75,290.318 1696.48,290.318 1698.21,359.725 1699.95,520.187 1701.68,547.657 1703.41,439.092 1705.14,439.092 1706.87,390.712 1708.6,462 1710.34,392.793 
  1712.07,392.793 1713.8,282.848 1715.53,282.848 1717.26,284.891 1719,317.673 1720.73,279.486 1722.46,377.873 1724.19,324.245 1725.92,555.399 1727.66,440.741 
  1729.39,460.75 1731.12,388.529 1732.85,363.225 1734.58,449.254 1736.32,432.306 1738.05,362.304 1739.78,497.035 1741.51,490.153 1743.24,520.447 1744.98,495.926 
  1746.71,508.065 1748.44,319.798 1750.17,461.947 1751.9,322.198 1753.64,442.789 1755.37,459.474 1757.1,459.474 1758.83,303.652 1760.56,230.398 1762.29,292.729 
  1764.03,315.564 1765.76,401.899 1767.49,293.08 1769.22,521.305 1770.95,671.35 1772.69,478.255 1774.42,367.526 1776.15,386.735 1777.88,262.912 1779.61,179.898 
  1781.35,682.825 1783.08,234.048 1784.81,424.87 1786.54,308.818 1788.27,359.99 1790.01,347.988 1791.74,253.96 1793.47,374.173 1795.2,295.03 1796.93,368.23 
  1798.67,349.854 1800.4,289.147 1802.13,612.64 1803.86,651.118 1805.59,448.315 1807.33,672.462 1809.06,675.992 1810.79,478.335 1812.52,305.941 1814.25,288.896 
  1815.98,294.162 1817.72,374.114 1819.45,424.304 1821.18,424.304 1822.91,579.324 1824.64,577.168 1826.38,656.433 1828.11,678.404 1829.84,179.559 1831.57,118.674 
  1833.3,268.238 1835.04,268.238 1836.77,426.409 1838.5,359.148 1840.23,269.396 1841.96,269.396 1843.7,134.072 1845.43,210.389 1847.16,352.603 1848.89,297.731 
  1850.62,389.872 1852.36,483.014 1854.09,482.15 1855.82,454.692 1857.55,437.979 1859.28,518.35 1861.02,570.701 1862.75,185.764 1864.48,480.006 1866.21,480.006 
  1867.94,554.11 1869.67,554.11 1871.41,419.957 1873.14,419.957 1874.87,428.018 1876.6,428.018 1878.33,754.386 1880.07,564.752 1881.8,564.752 1883.53,564.752 
  1885.26,539.342 1886.99,539.342 1888.73,528.31 1890.46,684.384 1892.19,648.147 1893.92,461.12 1895.65,461.12 1897.39,576.031 1899.12,252.94 1900.85,667.166 
  
  "/>
<path clip-path="url(#clip240)" d="
M2118.74 911.26 L3952.76 911.26 L3952.76 62.9921 L2118.74 62.9921  Z
  " fill="#ffffff" fill-rule="evenodd" fill-opacity="1"/>
<defs>
  <clipPath id="clip243">
    <rect x="2118" y="62" width="1835" height="849"/>
  </clipPath>
</defs>
<polyline clip-path="url(#clip243)" style="stroke:#000000; stroke-width:2; stroke-opacity:0.1; fill:none" points="
  2395.6,911.26 2395.6,62.9921 
  "/>
<polyline clip-path="url(#clip243)" style="stroke:#000000; stroke-width:2; stroke-opacity:0.1; fill:none" points="
  2731.03,911.26 2731.03,62.9921 
  "/>
<polyline clip-path="url(#clip243)" style="stroke:#000000; stroke-width:2; stroke-opacity:0.1; fill:none" points="
  3066.45,911.26 3066.45,62.9921 
  "/>
<polyline clip-path="url(#clip243)" style="stroke:#000000; stroke-width:2; stroke-opacity:0.1; fill:none" points="
  3401.88,911.26 3401.88,62.9921 
  "/>
<polyline clip-path="url(#clip243)" style="stroke:#000000; stroke-width:2; stroke-opacity:0.1; fill:none" points="
  3737.31,911.26 3737.31,62.9921 
  "/>
<polyline clip-path="url(#clip240)" style="stroke:#000000; stroke-width:4; stroke-opacity:1; fill:none" points="
  2118.74,911.26 3952.76,911.26 
  "/>
<polyline clip-path="url(#clip240)" style="stroke:#000000; stroke-width:4; stroke-opacity:1; fill:none" points="
  2395.6,911.26 2395.6,901.081 
  "/>
<polyline clip-path="url(#clip240)" style="stroke:#000000; stroke-width:4; stroke-opacity:1; fill:none" points="
  2731.03,911.26 2731.03,901.081 
  "/>
<polyline clip-path="url(#clip240)" style="stroke:#000000; stroke-width:4; stroke-opacity:1; fill:none" points="
  3066.45,911.26 3066.45,901.081 
  "/>
<polyline clip-path="url(#clip240)" style="stroke:#000000; stroke-width:4; stroke-opacity:1; fill:none" points="
  3401.88,911.26 3401.88,901.081 
  "/>
<polyline clip-path="url(#clip240)" style="stroke:#000000; stroke-width:4; stroke-opacity:1; fill:none" points="
  3737.31,911.26 3737.31,901.081 
  "/>
<path clip-path="url(#clip240)" d="M 0 0 M2377.91 953.251 Q2374.3 953.251 2372.47 956.815 Q2370.67 960.357 2370.67 967.487 Q2370.67 974.593 2372.47 978.158 Q2374.3 981.699 2377.91 981.699 Q2381.55 981.699 2383.35 978.158 Q2385.18 974.593 2385.18 967.487 Q2385.18 960.357 2383.35 956.815 Q2381.55 953.251 2377.91 953.251 M2377.91 949.547 Q2383.72 949.547 2386.78 954.153 Q2389.86 958.737 2389.86 967.487 Q2389.86 976.213 2386.78 980.82 Q2383.72 985.403 2377.91 985.403 Q2372.1 985.403 2369.02 980.82 Q2365.97 976.213 2365.97 967.487 Q2365.97 958.737 2369.02 954.153 Q2372.1 949.547 2377.91 949.547 Z" fill="#000000" fill-rule="evenodd" fill-opacity="1" /><path clip-path="url(#clip240)" d="M 0 0 M2394.93 978.852 L2399.81 978.852 L2399.81 984.732 L2394.93 984.732 L2394.93 978.852 Z" fill="#000000" fill-rule="evenodd" fill-opacity="1" /><path clip-path="url(#clip240)" d="M 0 0 M2408.91 980.797 L2425.23 980.797 L2425.23 984.732 L2403.28 984.732 L2403.28 980.797 Q2405.95 978.042 2410.53 973.412 Q2415.13 968.76 2416.32 967.417 Q2418.56 964.894 2419.44 963.158 Q2420.34 961.399 2420.34 959.709 Q2420.34 956.954 2418.4 955.218 Q2416.48 953.482 2413.38 953.482 Q2411.18 953.482 2408.72 954.246 Q2406.29 955.01 2403.51 956.561 L2403.51 951.839 Q2406.34 950.704 2408.79 950.126 Q2411.25 949.547 2413.28 949.547 Q2418.65 949.547 2421.85 952.232 Q2425.04 954.917 2425.04 959.408 Q2425.04 961.538 2424.23 963.459 Q2423.45 965.357 2421.34 967.95 Q2420.76 968.621 2417.66 971.838 Q2414.56 975.033 2408.91 980.797 Z" fill="#000000" fill-rule="evenodd" fill-opacity="1" /><path clip-path="url(#clip240)" d="M 0 0 M2712.3 953.251 Q2708.69 953.251 2706.86 956.815 Q2705.05 960.357 2705.05 967.487 Q2705.05 974.593 2706.86 978.158 Q2708.69 981.699 2712.3 981.699 Q2715.93 981.699 2717.74 978.158 Q2719.57 974.593 2719.57 967.487 Q2719.57 960.357 2717.74 956.815 Q2715.93 953.251 2712.3 953.251 M2712.3 949.547 Q2718.11 949.547 2721.17 954.153 Q2724.24 958.737 2724.24 967.487 Q2724.24 976.213 2721.17 980.82 Q2718.11 985.403 2712.3 985.403 Q2706.49 985.403 2703.41 980.82 Q2700.35 976.213 2700.35 967.487 Q2700.35 958.737 2703.41 954.153 Q2706.49 949.547 2712.3 949.547 Z" fill="#000000" fill-rule="evenodd" fill-opacity="1" /><path clip-path="url(#clip240)" d="M 0 0 M2729.31 978.852 L2734.2 978.852 L2734.2 984.732 L2729.31 984.732 L2729.31 978.852 Z" fill="#000000" fill-rule="evenodd" fill-opacity="1" /><path clip-path="url(#clip240)" d="M 0 0 M2752.11 954.246 L2740.31 972.695 L2752.11 972.695 L2752.11 954.246 M2750.89 950.172 L2756.77 950.172 L2756.77 972.695 L2761.7 972.695 L2761.7 976.584 L2756.77 976.584 L2756.77 984.732 L2752.11 984.732 L2752.11 976.584 L2736.51 976.584 L2736.51 972.07 L2750.89 950.172 Z" fill="#000000" fill-rule="evenodd" fill-opacity="1" /><path clip-path="url(#clip240)" d="M 0 0 M3047.89 953.251 Q3044.28 953.251 3042.45 956.815 Q3040.64 960.357 3040.64 967.487 Q3040.64 974.593 3042.45 978.158 Q3044.28 981.699 3047.89 981.699 Q3051.52 981.699 3053.33 978.158 Q3055.16 974.593 3055.16 967.487 Q3055.16 960.357 3053.33 956.815 Q3051.52 953.251 3047.89 953.251 M3047.89 949.547 Q3053.7 949.547 3056.76 954.153 Q3059.83 958.737 3059.83 967.487 Q3059.83 976.213 3056.76 980.82 Q3053.7 985.403 3047.89 985.403 Q3042.08 985.403 3039 980.82 Q3035.95 976.213 3035.95 967.487 Q3035.95 958.737 3039 954.153 Q3042.08 949.547 3047.89 949.547 Z" fill="#000000" fill-rule="evenodd" fill-opacity="1" /><path clip-path="url(#clip240)" d="M 0 0 M3064.9 978.852 L3069.79 978.852 L3069.79 984.732 L3064.9 984.732 L3064.9 978.852 Z" fill="#000000" fill-rule="evenodd" fill-opacity="1" /><path clip-path="url(#clip240)" d="M 0 0 M3085.44 965.588 Q3082.29 965.588 3080.44 967.741 Q3078.61 969.894 3078.61 973.644 Q3078.61 977.371 3080.44 979.547 Q3082.29 981.699 3085.44 981.699 Q3088.58 981.699 3090.41 979.547 Q3092.26 977.371 3092.26 973.644 Q3092.26 969.894 3090.41 967.741 Q3088.58 965.588 3085.44 965.588 M3094.72 950.936 L3094.72 955.195 Q3092.96 954.362 3091.15 953.922 Q3089.37 953.482 3087.61 953.482 Q3082.98 953.482 3080.53 956.607 Q3078.1 959.732 3077.75 966.051 Q3079.12 964.038 3081.18 962.973 Q3083.24 961.885 3085.71 961.885 Q3090.92 961.885 3093.93 965.056 Q3096.96 968.204 3096.96 973.644 Q3096.96 978.968 3093.82 982.186 Q3090.67 985.403 3085.44 985.403 Q3079.44 985.403 3076.27 980.82 Q3073.1 976.213 3073.1 967.487 Q3073.1 959.292 3076.99 954.431 Q3080.88 949.547 3087.43 949.547 Q3089.19 949.547 3090.97 949.894 Q3092.77 950.241 3094.72 950.936 Z" fill="#000000" fill-rule="evenodd" fill-opacity="1" /><path clip-path="url(#clip240)" d="M 0 0 M3383.44 953.251 Q3379.83 953.251 3378.01 956.815 Q3376.2 960.357 3376.2 967.487 Q3376.2 974.593 3378.01 978.158 Q3379.83 981.699 3383.44 981.699 Q3387.08 981.699 3388.88 978.158 Q3390.71 974.593 3390.71 967.487 Q3390.71 960.357 3388.88 956.815 Q3387.08 953.251 3383.44 953.251 M3383.44 949.547 Q3389.26 949.547 3392.31 954.153 Q3395.39 958.737 3395.39 967.487 Q3395.39 976.213 3392.31 980.82 Q3389.26 985.403 3383.44 985.403 Q3377.63 985.403 3374.56 980.82 Q3371.5 976.213 3371.5 967.487 Q3371.5 958.737 3374.56 954.153 Q3377.63 949.547 3383.44 949.547 Z" fill="#000000" fill-rule="evenodd" fill-opacity="1" /><path clip-path="url(#clip240)" d="M 0 0 M3400.46 978.852 L3405.34 978.852 L3405.34 984.732 L3400.46 984.732 L3400.46 978.852 Z" fill="#000000" fill-rule="evenodd" fill-opacity="1" /><path clip-path="url(#clip240)" d="M 0 0 M3420.41 968.32 Q3417.08 968.32 3415.16 970.102 Q3413.26 971.885 3413.26 975.01 Q3413.26 978.135 3415.16 979.917 Q3417.08 981.699 3420.41 981.699 Q3423.75 981.699 3425.67 979.917 Q3427.59 978.112 3427.59 975.01 Q3427.59 971.885 3425.67 970.102 Q3423.77 968.32 3420.41 968.32 M3415.74 966.329 Q3412.73 965.588 3411.04 963.528 Q3409.37 961.468 3409.37 958.505 Q3409.37 954.362 3412.31 951.954 Q3415.27 949.547 3420.41 949.547 Q3425.57 949.547 3428.51 951.954 Q3431.45 954.362 3431.45 958.505 Q3431.45 961.468 3429.76 963.528 Q3428.1 965.588 3425.11 966.329 Q3428.49 967.116 3430.37 969.408 Q3432.26 971.7 3432.26 975.01 Q3432.26 980.033 3429.19 982.718 Q3426.13 985.403 3420.41 985.403 Q3414.69 985.403 3411.62 982.718 Q3408.56 980.033 3408.56 975.01 Q3408.56 971.7 3410.46 969.408 Q3412.36 967.116 3415.74 966.329 M3414.02 958.945 Q3414.02 961.63 3415.69 963.135 Q3417.38 964.639 3420.41 964.639 Q3423.42 964.639 3425.11 963.135 Q3426.82 961.63 3426.82 958.945 Q3426.82 956.26 3425.11 954.755 Q3423.42 953.251 3420.41 953.251 Q3417.38 953.251 3415.69 954.755 Q3414.02 956.26 3414.02 958.945 Z" fill="#000000" fill-rule="evenodd" fill-opacity="1" /><path clip-path="url(#clip240)" d="M 0 0 M3709.21 980.797 L3716.85 980.797 L3716.85 954.431 L3708.54 956.098 L3708.54 951.839 L3716.8 950.172 L3721.48 950.172 L3721.48 980.797 L3729.12 980.797 L3729.12 984.732 L3709.21 984.732 L3709.21 980.797 Z" fill="#000000" fill-rule="evenodd" fill-opacity="1" /><path clip-path="url(#clip240)" d="M 0 0 M3734.19 978.852 L3739.07 978.852 L3739.07 984.732 L3734.19 984.732 L3734.19 978.852 Z" fill="#000000" fill-rule="evenodd" fill-opacity="1" /><path clip-path="url(#clip240)" d="M 0 0 M3754.14 953.251 Q3750.53 953.251 3748.7 956.815 Q3746.89 960.357 3746.89 967.487 Q3746.89 974.593 3748.7 978.158 Q3750.53 981.699 3754.14 981.699 Q3757.77 981.699 3759.58 978.158 Q3761.41 974.593 3761.41 967.487 Q3761.41 960.357 3759.58 956.815 Q3757.77 953.251 3754.14 953.251 M3754.14 949.547 Q3759.95 949.547 3763 954.153 Q3766.08 958.737 3766.08 967.487 Q3766.08 976.213 3763 980.82 Q3759.95 985.403 3754.14 985.403 Q3748.33 985.403 3745.25 980.82 Q3742.19 976.213 3742.19 967.487 Q3742.19 958.737 3745.25 954.153 Q3748.33 949.547 3754.14 949.547 Z" fill="#000000" fill-rule="evenodd" fill-opacity="1" /><path clip-path="url(#clip240)" d="M 0 0 M2872.69 1014.16 L2872.69 1020.43 Q2869.03 1018.68 2865.78 1017.82 Q2862.54 1016.96 2859.51 1016.96 Q2854.26 1016.96 2851.4 1019 Q2848.56 1021.04 2848.56 1024.79 Q2848.56 1027.95 2850.44 1029.57 Q2852.35 1031.16 2857.64 1032.15 L2861.52 1032.94 Q2868.71 1034.31 2872.12 1037.78 Q2875.56 1041.22 2875.56 1047.01 Q2875.56 1053.92 2870.91 1057.48 Q2866.29 1061.05 2857.35 1061.05 Q2853.98 1061.05 2850.16 1060.28 Q2846.37 1059.52 2842.29 1058.02 L2842.29 1051.4 Q2846.21 1053.6 2849.96 1054.71 Q2853.72 1055.83 2857.35 1055.83 Q2862.86 1055.83 2865.85 1053.66 Q2868.84 1051.5 2868.84 1047.49 Q2868.84 1043.99 2866.67 1042.01 Q2864.54 1040.04 2859.64 1039.05 L2855.73 1038.29 Q2848.53 1036.86 2845.32 1033.8 Q2842.1 1030.75 2842.1 1025.3 Q2842.1 1019 2846.53 1015.37 Q2850.98 1011.74 2858.78 1011.74 Q2862.12 1011.74 2865.59 1012.35 Q2869.06 1012.95 2872.69 1014.16 Z" fill="#000000" fill-rule="evenodd" fill-opacity="1" /><path clip-path="url(#clip240)" d="M 0 0 M2897.9 1042.2 Q2890.8 1042.2 2888.06 1043.83 Q2885.33 1045.45 2885.33 1049.37 Q2885.33 1052.48 2887.36 1054.33 Q2889.43 1056.15 2892.97 1056.15 Q2897.83 1056.15 2900.76 1052.71 Q2903.72 1049.24 2903.72 1043.51 L2903.72 1042.2 L2897.9 1042.2 M2909.58 1039.79 L2909.58 1060.12 L2903.72 1060.12 L2903.72 1054.71 Q2901.72 1057.96 2898.73 1059.52 Q2895.73 1061.05 2891.41 1061.05 Q2885.93 1061.05 2882.68 1057.99 Q2879.47 1054.9 2879.47 1049.75 Q2879.47 1043.73 2883.48 1040.68 Q2887.52 1037.62 2895.51 1037.62 L2903.72 1037.62 L2903.72 1037.05 Q2903.72 1033.01 2901.05 1030.81 Q2898.41 1028.58 2893.6 1028.58 Q2890.55 1028.58 2887.65 1029.31 Q2884.75 1030.05 2882.08 1031.51 L2882.08 1026.1 Q2885.29 1024.86 2888.32 1024.25 Q2891.34 1023.62 2894.21 1023.62 Q2901.94 1023.62 2905.76 1027.63 Q2909.58 1031.64 2909.58 1039.79 Z" fill="#000000" fill-rule="evenodd" fill-opacity="1" /><path clip-path="url(#clip240)" d="M 0 0 M2943.48 1031.32 Q2945.67 1027.37 2948.73 1025.49 Q2951.78 1023.62 2955.92 1023.62 Q2961.49 1023.62 2964.52 1027.53 Q2967.54 1031.41 2967.54 1038.61 L2967.54 1060.12 L2961.65 1060.12 L2961.65 1038.8 Q2961.65 1033.67 2959.84 1031.19 Q2958.02 1028.71 2954.3 1028.71 Q2949.75 1028.71 2947.11 1031.73 Q2944.46 1034.76 2944.46 1039.98 L2944.46 1060.12 L2938.58 1060.12 L2938.58 1038.8 Q2938.58 1033.64 2936.76 1031.19 Q2934.95 1028.71 2931.16 1028.71 Q2926.67 1028.71 2924.03 1031.76 Q2921.39 1034.79 2921.39 1039.98 L2921.39 1060.12 L2915.5 1060.12 L2915.5 1024.48 L2921.39 1024.48 L2921.39 1030.01 Q2923.39 1026.74 2926.19 1025.18 Q2929 1023.62 2932.85 1023.62 Q2936.73 1023.62 2939.43 1025.59 Q2942.17 1027.56 2943.48 1031.32 Z" fill="#000000" fill-rule="evenodd" fill-opacity="1" /><path clip-path="url(#clip240)" d="M 0 0 M2979.35 1054.78 L2979.35 1073.68 L2973.46 1073.68 L2973.46 1024.48 L2979.35 1024.48 L2979.35 1029.89 Q2981.19 1026.7 2983.99 1025.18 Q2986.83 1023.62 2990.74 1023.62 Q2997.24 1023.62 3001.28 1028.77 Q3005.35 1033.93 3005.35 1042.33 Q3005.35 1050.73 3001.28 1055.89 Q2997.24 1061.05 2990.74 1061.05 Q2986.83 1061.05 2983.99 1059.52 Q2981.19 1057.96 2979.35 1054.78 M2999.27 1042.33 Q2999.27 1035.87 2996.6 1032.21 Q2993.96 1028.52 2989.31 1028.52 Q2984.66 1028.52 2981.99 1032.21 Q2979.35 1035.87 2979.35 1042.33 Q2979.35 1048.79 2981.99 1052.48 Q2984.66 1056.15 2989.31 1056.15 Q2993.96 1056.15 2996.6 1052.48 Q2999.27 1048.79 2999.27 1042.33 Z" fill="#000000" fill-rule="evenodd" fill-opacity="1" /><path clip-path="url(#clip240)" d="M 0 0 M3011.49 1010.6 L3017.35 1010.6 L3017.35 1060.12 L3011.49 1060.12 L3011.49 1010.6 Z" fill="#000000" fill-rule="evenodd" fill-opacity="1" /><path clip-path="url(#clip240)" d="M 0 0 M3053.99 1040.84 L3053.99 1043.7 L3027.06 1043.7 Q3027.44 1049.75 3030.69 1052.93 Q3033.97 1056.08 3039.79 1056.08 Q3043.16 1056.08 3046.32 1055.25 Q3049.5 1054.43 3052.62 1052.77 L3052.62 1058.31 Q3049.47 1059.65 3046.16 1060.35 Q3042.85 1061.05 3039.44 1061.05 Q3030.91 1061.05 3025.91 1056.08 Q3020.95 1051.12 3020.95 1042.65 Q3020.95 1033.9 3025.66 1028.77 Q3030.4 1023.62 3038.42 1023.62 Q3045.61 1023.62 3049.78 1028.26 Q3053.99 1032.88 3053.99 1040.84 M3048.13 1039.12 Q3048.07 1034.31 3045.42 1031.45 Q3042.81 1028.58 3038.49 1028.58 Q3033.58 1028.58 3030.62 1031.35 Q3027.7 1034.12 3027.25 1039.15 L3048.13 1039.12 Z" fill="#000000" fill-rule="evenodd" fill-opacity="1" /><path clip-path="url(#clip240)" d="M 0 0 M3076.65 1024.48 L3082.85 1024.48 L3093.99 1054.39 L3105.13 1024.48 L3111.34 1024.48 L3097.97 1060.12 L3090.02 1060.12 L3076.65 1024.48 Z" fill="#000000" fill-rule="evenodd" fill-opacity="1" /><path clip-path="url(#clip240)" d="M 0 0 M3133.68 1042.2 Q3126.59 1042.2 3123.85 1043.83 Q3121.11 1045.45 3121.11 1049.37 Q3121.11 1052.48 3123.15 1054.33 Q3125.22 1056.15 3128.75 1056.15 Q3133.62 1056.15 3136.55 1052.71 Q3139.51 1049.24 3139.51 1043.51 L3139.51 1042.2 L3133.68 1042.2 M3145.37 1039.79 L3145.37 1060.12 L3139.51 1060.12 L3139.51 1054.71 Q3137.5 1057.96 3134.51 1059.52 Q3131.52 1061.05 3127.19 1061.05 Q3121.72 1061.05 3118.47 1057.99 Q3115.26 1054.9 3115.26 1049.75 Q3115.26 1043.73 3119.27 1040.68 Q3123.31 1037.62 3131.3 1037.62 L3139.51 1037.62 L3139.51 1037.05 Q3139.51 1033.01 3136.84 1030.81 Q3134.19 1028.58 3129.39 1028.58 Q3126.33 1028.58 3123.44 1029.31 Q3120.54 1030.05 3117.87 1031.51 L3117.87 1026.1 Q3121.08 1024.86 3124.1 1024.25 Q3127.13 1023.62 3129.99 1023.62 Q3137.73 1023.62 3141.55 1027.63 Q3145.37 1031.64 3145.37 1039.79 Z" fill="#000000" fill-rule="evenodd" fill-opacity="1" /><path clip-path="url(#clip240)" d="M 0 0 M3151.51 1010.6 L3157.36 1010.6 L3157.36 1060.12 L3151.51 1060.12 L3151.51 1010.6 Z" fill="#000000" fill-rule="evenodd" fill-opacity="1" /><path clip-path="url(#clip240)" d="M 0 0 M3162.9 1046.06 L3162.9 1024.48 L3168.76 1024.48 L3168.76 1045.83 Q3168.76 1050.89 3170.73 1053.44 Q3172.71 1055.95 3176.65 1055.95 Q3181.4 1055.95 3184.13 1052.93 Q3186.9 1049.91 3186.9 1044.69 L3186.9 1024.48 L3192.76 1024.48 L3192.76 1060.12 L3186.9 1060.12 L3186.9 1054.65 Q3184.77 1057.9 3181.94 1059.49 Q3179.14 1061.05 3175.41 1061.05 Q3169.27 1061.05 3166.09 1057.23 Q3162.9 1053.41 3162.9 1046.06 M3177.64 1023.62 L3177.64 1023.62 Z" fill="#000000" fill-rule="evenodd" fill-opacity="1" /><path clip-path="url(#clip240)" d="M 0 0 M3229.39 1040.84 L3229.39 1043.7 L3202.47 1043.7 Q3202.85 1049.75 3206.09 1052.93 Q3209.37 1056.08 3215.2 1056.08 Q3218.57 1056.08 3221.72 1055.25 Q3224.91 1054.43 3228.02 1052.77 L3228.02 1058.31 Q3224.87 1059.65 3221.56 1060.35 Q3218.25 1061.05 3214.85 1061.05 Q3206.32 1061.05 3201.32 1056.08 Q3196.35 1051.12 3196.35 1042.65 Q3196.35 1033.9 3201.07 1028.77 Q3205.81 1023.62 3213.83 1023.62 Q3221.02 1023.62 3225.19 1028.26 Q3229.39 1032.88 3229.39 1040.84 M3223.54 1039.12 Q3223.47 1034.31 3220.83 1031.45 Q3218.22 1028.58 3213.89 1028.58 Q3208.99 1028.58 3206.03 1031.35 Q3203.1 1034.12 3202.66 1039.15 L3223.54 1039.12 Z" fill="#000000" fill-rule="evenodd" fill-opacity="1" /><polyline clip-path="url(#clip243)" style="stroke:#000000; stroke-width:2; stroke-opacity:0.1; fill:none" points="
  2118.74,887.255 3952.76,887.255 
  "/>
<polyline clip-path="url(#clip243)" style="stroke:#000000; stroke-width:2; stroke-opacity:0.1; fill:none" points="
  2118.74,737.364 3952.76,737.364 
  "/>
<polyline clip-path="url(#clip243)" style="stroke:#000000; stroke-width:2; stroke-opacity:0.1; fill:none" points="
  2118.74,587.474 3952.76,587.474 
  "/>
<polyline clip-path="url(#clip243)" style="stroke:#000000; stroke-width:2; stroke-opacity:0.1; fill:none" points="
  2118.74,437.583 3952.76,437.583 
  "/>
<polyline clip-path="url(#clip243)" style="stroke:#000000; stroke-width:2; stroke-opacity:0.1; fill:none" points="
  2118.74,287.693 3952.76,287.693 
  "/>
<polyline clip-path="url(#clip243)" style="stroke:#000000; stroke-width:2; stroke-opacity:0.1; fill:none" points="
  2118.74,137.802 3952.76,137.802 
  "/>
<polyline clip-path="url(#clip240)" style="stroke:#000000; stroke-width:4; stroke-opacity:1; fill:none" points="
  2118.74,911.26 2118.74,62.9921 
  "/>
<polyline clip-path="url(#clip240)" style="stroke:#000000; stroke-width:4; stroke-opacity:1; fill:none" points="
  2118.74,887.255 2140.75,887.255 
  "/>
<polyline clip-path="url(#clip240)" style="stroke:#000000; stroke-width:4; stroke-opacity:1; fill:none" points="
  2118.74,737.364 2140.75,737.364 
  "/>
<polyline clip-path="url(#clip240)" style="stroke:#000000; stroke-width:4; stroke-opacity:1; fill:none" points="
  2118.74,587.474 2140.75,587.474 
  "/>
<polyline clip-path="url(#clip240)" style="stroke:#000000; stroke-width:4; stroke-opacity:1; fill:none" points="
  2118.74,437.583 2140.75,437.583 
  "/>
<polyline clip-path="url(#clip240)" style="stroke:#000000; stroke-width:4; stroke-opacity:1; fill:none" points="
  2118.74,287.693 2140.75,287.693 
  "/>
<polyline clip-path="url(#clip240)" style="stroke:#000000; stroke-width:4; stroke-opacity:1; fill:none" points="
  2118.74,137.802 2140.75,137.802 
  "/>
<path clip-path="url(#clip240)" d="M 0 0 M2009.83 873.054 Q2006.22 873.054 2004.39 876.619 Q2002.58 880.16 2002.58 887.29 Q2002.58 894.396 2004.39 897.961 Q2006.22 901.503 2009.83 901.503 Q2013.46 901.503 2015.27 897.961 Q2017.1 894.396 2017.1 887.29 Q2017.1 880.16 2015.27 876.619 Q2013.46 873.054 2009.83 873.054 M2009.83 869.35 Q2015.64 869.35 2018.69 873.957 Q2021.77 878.54 2021.77 887.29 Q2021.77 896.017 2018.69 900.623 Q2015.64 905.206 2009.83 905.206 Q2004.02 905.206 2000.94 900.623 Q1997.88 896.017 1997.88 887.29 Q1997.88 878.54 2000.94 873.957 Q2004.02 869.35 2009.83 869.35 Z" fill="#000000" fill-rule="evenodd" fill-opacity="1" /><path clip-path="url(#clip240)" d="M 0 0 M2026.84 898.655 L2031.73 898.655 L2031.73 904.535 L2026.84 904.535 L2026.84 898.655 Z" fill="#000000" fill-rule="evenodd" fill-opacity="1" /><path clip-path="url(#clip240)" d="M 0 0 M2046.8 873.054 Q2043.18 873.054 2041.36 876.619 Q2039.55 880.16 2039.55 887.29 Q2039.55 894.396 2041.36 897.961 Q2043.18 901.503 2046.8 901.503 Q2050.43 901.503 2052.24 897.961 Q2054.06 894.396 2054.06 887.29 Q2054.06 880.16 2052.24 876.619 Q2050.43 873.054 2046.8 873.054 M2046.8 869.35 Q2052.61 869.35 2055.66 873.957 Q2058.74 878.54 2058.74 887.29 Q2058.74 896.017 2055.66 900.623 Q2052.61 905.206 2046.8 905.206 Q2040.99 905.206 2037.91 900.623 Q2034.85 896.017 2034.85 887.29 Q2034.85 878.54 2037.91 873.957 Q2040.99 869.35 2046.8 869.35 Z" fill="#000000" fill-rule="evenodd" fill-opacity="1" /><path clip-path="url(#clip240)" d="M 0 0 M2010.82 723.163 Q2007.21 723.163 2005.38 726.728 Q2003.58 730.27 2003.58 737.399 Q2003.58 744.506 2005.38 748.07 Q2007.21 751.612 2010.82 751.612 Q2014.46 751.612 2016.26 748.07 Q2018.09 744.506 2018.09 737.399 Q2018.09 730.27 2016.26 726.728 Q2014.46 723.163 2010.82 723.163 M2010.82 719.459 Q2016.63 719.459 2019.69 724.066 Q2022.77 728.649 2022.77 737.399 Q2022.77 746.126 2019.69 750.732 Q2016.63 755.316 2010.82 755.316 Q2005.01 755.316 2001.93 750.732 Q1998.88 746.126 1998.88 737.399 Q1998.88 728.649 2001.93 724.066 Q2005.01 719.459 2010.82 719.459 Z" fill="#000000" fill-rule="evenodd" fill-opacity="1" /><path clip-path="url(#clip240)" d="M 0 0 M2027.84 748.765 L2032.72 748.765 L2032.72 754.644 L2027.84 754.644 L2027.84 748.765 Z" fill="#000000" fill-rule="evenodd" fill-opacity="1" /><path clip-path="url(#clip240)" d="M 0 0 M2037.84 720.084 L2056.19 720.084 L2056.19 724.02 L2042.12 724.02 L2042.12 732.492 Q2043.14 732.145 2044.16 731.983 Q2045.18 731.797 2046.19 731.797 Q2051.98 731.797 2055.36 734.969 Q2058.74 738.14 2058.74 743.557 Q2058.74 749.135 2055.27 752.237 Q2051.8 755.316 2045.48 755.316 Q2043.3 755.316 2041.03 754.945 Q2038.79 754.575 2036.38 753.834 L2036.38 749.135 Q2038.46 750.27 2040.68 750.825 Q2042.91 751.381 2045.38 751.381 Q2049.39 751.381 2051.73 749.274 Q2054.06 747.168 2054.06 743.557 Q2054.06 739.945 2051.73 737.839 Q2049.39 735.733 2045.38 735.733 Q2043.51 735.733 2041.63 736.149 Q2039.78 736.566 2037.84 737.446 L2037.84 720.084 Z" fill="#000000" fill-rule="evenodd" fill-opacity="1" /><path clip-path="url(#clip240)" d="M 0 0 M2001.87 600.819 L2009.5 600.819 L2009.5 574.453 L2001.19 576.12 L2001.19 571.861 L2009.46 570.194 L2014.13 570.194 L2014.13 600.819 L2021.77 600.819 L2021.77 604.754 L2001.87 604.754 L2001.87 600.819 Z" fill="#000000" fill-rule="evenodd" fill-opacity="1" /><path clip-path="url(#clip240)" d="M 0 0 M2026.84 598.874 L2031.73 598.874 L2031.73 604.754 L2026.84 604.754 L2026.84 598.874 Z" fill="#000000" fill-rule="evenodd" fill-opacity="1" /><path clip-path="url(#clip240)" d="M 0 0 M2046.8 573.273 Q2043.18 573.273 2041.36 576.837 Q2039.55 580.379 2039.55 587.509 Q2039.55 594.615 2041.36 598.18 Q2043.18 601.722 2046.8 601.722 Q2050.43 601.722 2052.24 598.18 Q2054.06 594.615 2054.06 587.509 Q2054.06 580.379 2052.24 576.837 Q2050.43 573.273 2046.8 573.273 M2046.8 569.569 Q2052.61 569.569 2055.66 574.175 Q2058.74 578.759 2058.74 587.509 Q2058.74 596.235 2055.66 600.842 Q2052.61 605.425 2046.8 605.425 Q2040.99 605.425 2037.91 600.842 Q2034.85 596.235 2034.85 587.509 Q2034.85 578.759 2037.91 574.175 Q2040.99 569.569 2046.8 569.569 Z" fill="#000000" fill-rule="evenodd" fill-opacity="1" /><path clip-path="url(#clip240)" d="M 0 0 M2002.86 450.928 L2010.5 450.928 L2010.5 424.563 L2002.19 426.229 L2002.19 421.97 L2010.45 420.303 L2015.13 420.303 L2015.13 450.928 L2022.77 450.928 L2022.77 454.863 L2002.86 454.863 L2002.86 450.928 Z" fill="#000000" fill-rule="evenodd" fill-opacity="1" /><path clip-path="url(#clip240)" d="M 0 0 M2027.84 448.984 L2032.72 448.984 L2032.72 454.863 L2027.84 454.863 L2027.84 448.984 Z" fill="#000000" fill-rule="evenodd" fill-opacity="1" /><path clip-path="url(#clip240)" d="M 0 0 M2037.84 420.303 L2056.19 420.303 L2056.19 424.239 L2042.12 424.239 L2042.12 432.711 Q2043.14 432.363 2044.16 432.201 Q2045.18 432.016 2046.19 432.016 Q2051.98 432.016 2055.36 435.188 Q2058.74 438.359 2058.74 443.775 Q2058.74 449.354 2055.27 452.456 Q2051.8 455.535 2045.48 455.535 Q2043.3 455.535 2041.03 455.164 Q2038.79 454.794 2036.38 454.053 L2036.38 449.354 Q2038.46 450.488 2040.68 451.044 Q2042.91 451.599 2045.38 451.599 Q2049.39 451.599 2051.73 449.493 Q2054.06 447.387 2054.06 443.775 Q2054.06 440.164 2051.73 438.058 Q2049.39 435.951 2045.38 435.951 Q2043.51 435.951 2041.63 436.368 Q2039.78 436.785 2037.84 437.664 L2037.84 420.303 Z" fill="#000000" fill-rule="evenodd" fill-opacity="1" /><path clip-path="url(#clip240)" d="M 0 0 M2005.45 301.038 L2021.77 301.038 L2021.77 304.973 L1999.83 304.973 L1999.83 301.038 Q2002.49 298.283 2007.07 293.653 Q2011.68 289.001 2012.86 287.658 Q2015.11 285.135 2015.99 283.399 Q2016.89 281.64 2016.89 279.95 Q2016.89 277.195 2014.94 275.459 Q2013.02 273.723 2009.92 273.723 Q2007.72 273.723 2005.27 274.487 Q2002.84 275.251 2000.06 276.802 L2000.06 272.079 Q2002.88 270.945 2005.34 270.367 Q2007.79 269.788 2009.83 269.788 Q2015.2 269.788 2018.39 272.473 Q2021.59 275.158 2021.59 279.649 Q2021.59 281.778 2020.78 283.7 Q2019.99 285.598 2017.88 288.19 Q2017.31 288.862 2014.2 292.079 Q2011.1 295.274 2005.45 301.038 Z" fill="#000000" fill-rule="evenodd" fill-opacity="1" /><path clip-path="url(#clip240)" d="M 0 0 M2026.84 299.093 L2031.73 299.093 L2031.73 304.973 L2026.84 304.973 L2026.84 299.093 Z" fill="#000000" fill-rule="evenodd" fill-opacity="1" /><path clip-path="url(#clip240)" d="M 0 0 M2046.8 273.491 Q2043.18 273.491 2041.36 277.056 Q2039.55 280.598 2039.55 287.728 Q2039.55 294.834 2041.36 298.399 Q2043.18 301.94 2046.8 301.94 Q2050.43 301.94 2052.24 298.399 Q2054.06 294.834 2054.06 287.728 Q2054.06 280.598 2052.24 277.056 Q2050.43 273.491 2046.8 273.491 M2046.8 269.788 Q2052.61 269.788 2055.66 274.394 Q2058.74 278.978 2058.74 287.728 Q2058.74 296.454 2055.66 301.061 Q2052.61 305.644 2046.8 305.644 Q2040.99 305.644 2037.91 301.061 Q2034.85 296.454 2034.85 287.728 Q2034.85 278.978 2037.91 274.394 Q2040.99 269.788 2046.8 269.788 Z" fill="#000000" fill-rule="evenodd" fill-opacity="1" /><path clip-path="url(#clip240)" d="M 0 0 M2006.45 151.147 L2022.77 151.147 L2022.77 155.082 L2000.82 155.082 L2000.82 151.147 Q2003.49 148.392 2008.07 143.763 Q2012.68 139.11 2013.86 137.768 Q2016.1 135.244 2016.98 133.508 Q2017.88 131.749 2017.88 130.059 Q2017.88 127.305 2015.94 125.569 Q2014.02 123.832 2010.92 123.832 Q2008.72 123.832 2006.26 124.596 Q2003.83 125.36 2001.06 126.911 L2001.06 122.189 Q2003.88 121.055 2006.33 120.476 Q2008.79 119.897 2010.82 119.897 Q2016.19 119.897 2019.39 122.582 Q2022.58 125.268 2022.58 129.758 Q2022.58 131.888 2021.77 133.809 Q2020.99 135.707 2018.88 138.3 Q2018.3 138.971 2015.2 142.189 Q2012.1 145.383 2006.45 151.147 Z" fill="#000000" fill-rule="evenodd" fill-opacity="1" /><path clip-path="url(#clip240)" d="M 0 0 M2027.84 149.203 L2032.72 149.203 L2032.72 155.082 L2027.84 155.082 L2027.84 149.203 Z" fill="#000000" fill-rule="evenodd" fill-opacity="1" /><path clip-path="url(#clip240)" d="M 0 0 M2037.84 120.522 L2056.19 120.522 L2056.19 124.457 L2042.12 124.457 L2042.12 132.93 Q2043.14 132.582 2044.16 132.42 Q2045.18 132.235 2046.19 132.235 Q2051.98 132.235 2055.36 135.406 Q2058.74 138.578 2058.74 143.994 Q2058.74 149.573 2055.27 152.675 Q2051.8 155.754 2045.48 155.754 Q2043.3 155.754 2041.03 155.383 Q2038.79 155.013 2036.38 154.272 L2036.38 149.573 Q2038.46 150.707 2040.68 151.263 Q2042.91 151.818 2045.38 151.818 Q2049.39 151.818 2051.73 149.712 Q2054.06 147.605 2054.06 143.994 Q2054.06 140.383 2051.73 138.277 Q2049.39 136.17 2045.38 136.17 Q2043.51 136.17 2041.63 136.587 Q2039.78 137.004 2037.84 137.883 L2037.84 120.522 Z" fill="#000000" fill-rule="evenodd" fill-opacity="1" /><path clip-path="url(#clip240)" d="M 0 0 M1921.39 588.579 L1958.34 588.579 L1958.34 580.813 Q1958.34 570.978 1953.89 566.427 Q1949.43 561.843 1939.82 561.843 Q1930.27 561.843 1925.85 566.427 Q1921.39 570.978 1921.39 580.813 L1921.39 588.579 M1916.11 595.009 L1916.11 581.8 Q1916.11 567.986 1921.87 561.525 Q1927.6 555.064 1939.82 555.064 Q1952.11 555.064 1957.87 561.557 Q1963.63 568.05 1963.63 581.8 L1963.63 595.009 L1916.11 595.009 Z" fill="#000000" fill-rule="evenodd" fill-opacity="1" /><path clip-path="url(#clip240)" d="M 0 0 M1944.34 518.429 L1947.2 518.429 L1947.2 545.356 Q1953.25 544.974 1956.43 541.728 Q1959.59 538.449 1959.59 532.625 Q1959.59 529.251 1958.76 526.1 Q1957.93 522.917 1956.28 519.798 L1961.81 519.798 Q1963.15 522.949 1963.85 526.259 Q1964.55 529.569 1964.55 532.975 Q1964.55 541.505 1959.59 546.502 Q1954.62 551.467 1946.15 551.467 Q1937.4 551.467 1932.28 546.757 Q1927.12 542.014 1927.12 533.993 Q1927.12 526.8 1931.77 522.631 Q1936.38 518.429 1944.34 518.429 M1942.62 524.286 Q1937.82 524.349 1934.95 526.991 Q1932.09 529.601 1932.09 533.93 Q1932.09 538.831 1934.86 541.791 Q1937.62 544.72 1942.65 545.165 L1942.62 524.286 Z" fill="#000000" fill-rule="evenodd" fill-opacity="1" /><path clip-path="url(#clip240)" d="M 0 0 M1942.11 482.654 L1963.63 482.654 L1963.63 488.511 L1942.3 488.511 Q1937.24 488.511 1934.73 490.484 Q1932.21 492.457 1932.21 496.404 Q1932.21 501.146 1935.24 503.884 Q1938.26 506.621 1943.48 506.621 L1963.63 506.621 L1963.63 512.509 L1927.98 512.509 L1927.98 506.621 L1933.52 506.621 Q1930.3 504.52 1928.71 501.688 Q1927.12 498.823 1927.12 495.099 Q1927.12 488.956 1930.94 485.805 Q1934.73 482.654 1942.11 482.654 Z" fill="#000000" fill-rule="evenodd" fill-opacity="1" /><path clip-path="url(#clip240)" d="M 0 0 M1929.03 453.786 L1934.57 453.786 Q1933.3 456.268 1932.66 458.942 Q1932.02 461.615 1932.02 464.48 Q1932.02 468.84 1933.36 471.037 Q1934.7 473.201 1937.37 473.201 Q1939.41 473.201 1940.58 471.641 Q1941.73 470.082 1942.78 465.371 L1943.23 463.366 Q1944.56 457.128 1947.01 454.518 Q1949.43 451.876 1953.79 451.876 Q1958.76 451.876 1961.65 455.823 Q1964.55 459.738 1964.55 466.612 Q1964.55 469.477 1963.98 472.596 Q1963.44 475.684 1962.32 479.121 L1956.28 479.121 Q1957.96 475.875 1958.82 472.724 Q1959.65 469.573 1959.65 466.485 Q1959.65 462.347 1958.25 460.119 Q1956.82 457.891 1954.24 457.891 Q1951.85 457.891 1950.58 459.515 Q1949.31 461.106 1948.13 466.549 L1947.65 468.586 Q1946.5 474.029 1944.15 476.448 Q1941.76 478.866 1937.62 478.866 Q1932.6 478.866 1929.86 475.302 Q1927.12 471.737 1927.12 465.18 Q1927.12 461.934 1927.6 459.069 Q1928.08 456.205 1929.03 453.786 Z" fill="#000000" fill-rule="evenodd" fill-opacity="1" /><path clip-path="url(#clip240)" d="M 0 0 M1927.98 445.733 L1927.98 439.877 L1963.63 439.877 L1963.63 445.733 L1927.98 445.733 M1914.1 445.733 L1914.1 439.877 L1921.52 439.877 L1921.52 445.733 L1914.1 445.733 Z" fill="#000000" fill-rule="evenodd" fill-opacity="1" /><path clip-path="url(#clip240)" d="M 0 0 M1917.86 427.941 L1927.98 427.941 L1927.98 415.878 L1932.53 415.878 L1932.53 427.941 L1951.88 427.941 Q1956.24 427.941 1957.49 426.763 Q1958.73 425.554 1958.73 421.893 L1958.73 415.878 L1963.63 415.878 L1963.63 421.893 Q1963.63 428.673 1961.11 431.251 Q1958.57 433.829 1951.88 433.829 L1932.53 433.829 L1932.53 438.126 L1927.98 438.126 L1927.98 433.829 L1917.86 433.829 L1917.86 427.941 Z" fill="#000000" fill-rule="evenodd" fill-opacity="1" /><path clip-path="url(#clip240)" d="M 0 0 M1966.94 394.903 Q1973.3 397.385 1975.25 399.741 Q1977.19 402.096 1977.19 406.043 L1977.19 410.722 L1972.29 410.722 L1972.29 407.284 Q1972.29 404.865 1971.14 403.528 Q1969.99 402.192 1965.73 400.568 L1963.06 399.518 L1927.98 413.936 L1927.98 407.73 L1955.86 396.59 L1927.98 385.45 L1927.98 379.243 L1966.94 394.903 Z" fill="#000000" fill-rule="evenodd" fill-opacity="1" /><path clip-path="url(#clip240)" d="M 0 0 M3048.63 43.8146 L3022.83 43.8146 Q3023.43 55.9268 3026.23 61.0714 Q3029.71 67.3908 3035.75 67.3908 Q3041.82 67.3908 3045.19 61.0309 Q3048.14 55.4407 3048.63 43.8146 M3048.51 36.928 Q3047.37 25.4235 3045.19 21.3726 Q3041.7 14.9721 3035.75 14.9721 Q3029.55 14.9721 3026.27 21.2916 Q3023.68 26.3957 3022.91 36.928 L3048.51 36.928 M3035.75 8.89579 Q3045.47 8.89579 3051.02 17.4837 Q3056.57 26.0311 3056.57 41.1815 Q3056.57 56.2914 3051.02 64.8793 Q3045.47 73.5077 3035.75 73.5077 Q3025.99 73.5077 3020.48 64.8793 Q3014.93 56.2914 3014.93 41.1815 Q3014.93 26.0311 3020.48 17.4837 Q3025.99 8.89579 3035.75 8.89579 Z" fill="#000000" fill-rule="evenodd" fill-opacity="1" /><polyline clip-path="url(#clip243)" style="stroke:#009af9; stroke-width:4; stroke-opacity:1; fill:none" points="
  2170.65,887.252 2179.34,887.25 2188.04,887.246 2196.73,887.238 2205.42,887.226 2214.12,887.205 2222.81,887.172 2231.51,887.12 2240.2,887.043 2248.9,886.929 
  2257.59,886.766 2266.29,886.541 2274.98,886.238 2283.67,885.842 2292.37,885.339 2301.06,884.716 2309.76,883.965 2318.45,883.085 2327.15,882.077 2335.84,880.949 
  2344.54,879.712 2353.23,878.377 2361.93,876.96 2370.62,875.47 2379.31,873.917 2388.01,872.308 2396.7,870.651 2405.4,868.955 2414.09,867.234 2422.79,865.506 
  2431.48,863.791 2440.18,862.111 2448.87,860.484 2457.56,858.916 2466.26,857.394 2474.95,855.884 2483.65,854.327 2492.34,852.645 2501.04,850.737 2509.73,848.499 
  2518.43,845.823 2527.12,842.614 2535.81,838.789 2544.51,834.29 2553.2,829.075 2561.9,823.121 2570.59,816.418 2579.29,808.965 2587.98,800.766 2596.68,791.831 
  2605.37,782.177 2614.07,771.833 2622.76,760.842 2631.45,749.271 2640.15,737.211 2648.84,724.782 2657.54,712.13 2666.23,699.424 2674.93,686.852 2683.62,674.608 
  2692.32,662.882 2701.01,651.844 2709.7,641.623 2718.4,632.293 2727.09,623.847 2735.79,616.192 2744.48,609.134 2753.18,602.383 2761.87,595.574 2770.57,588.283 
  2779.26,580.073 2787.96,570.532 2796.65,559.317 2805.34,546.195 2814.04,531.075 2822.73,514.022 2831.43,495.259 2840.12,475.156 2848.82,454.198 2857.51,432.943 
  2866.21,411.973 2874.9,391.84 2883.59,373.015 2892.29,355.843 2900.98,340.512 2909.68,327.038 2918.37,315.268 2927.07,304.901 2935.76,295.529 2944.46,286.681 
  2953.15,277.883 2961.84,268.708 2970.54,258.819 2979.23,247.999 2987.93,236.165 2996.62,223.365 3005.32,209.756 3014.01,195.58 3022.71,181.13 3031.4,166.726 
  3040.1,152.686 3048.79,139.315 3057.48,126.904 3066.18,115.724 3074.87,106.039 3083.57,98.1031 3092.26,92.154 3100.96,88.4009 3109.65,86.9997 3118.35,88.0237 
  3127.04,91.4352 3135.73,97.0634 3144.43,104.596 3153.12,113.59 3161.82,123.495 3170.51,133.7 3179.21,143.587 3187.9,152.582 3196.6,160.213 3205.29,166.145 
  3213.99,170.211 3222.68,172.42 3231.37,172.952 3240.07,172.137 3248.76,170.426 3257.46,168.354 3266.15,166.502 3274.85,165.454 3283.54,165.759 3292.24,167.904 
  3300.93,172.285 3309.62,179.189 3318.32,188.786 3327.01,201.124 3335.71,216.134 3344.4,233.644 3353.1,253.386 3361.79,275.022 3370.49,298.16 3379.18,322.385 
  3387.87,347.278 3396.57,372.442 3405.26,397.528 3413.96,422.249 3422.65,446.397 3431.35,469.846 3440.04,492.551 3448.74,514.533 3457.43,535.871 3466.13,556.668 
  3474.82,577.037 3483.51,597.07 3492.21,616.824 3500.9,636.31 3509.6,655.484 3518.29,674.256 3526.99,692.498 3535.68,710.061 3544.38,726.792 3553.07,742.552 
  3561.76,757.233 3570.46,770.766 3579.15,783.128 3587.85,794.338 3596.54,804.458 3605.24,813.573 3613.93,821.79 3622.63,829.216 3631.32,835.956 3640.02,842.099 
  3648.71,847.717 3657.4,852.862 3666.1,857.569 3674.79,861.861 3683.49,865.748 3692.18,869.239 3700.88,872.341 3709.57,875.064 3718.27,877.423 3726.96,879.437 
  3735.65,881.13 3744.35,882.53 3753.04,883.67 3761.74,884.58 3770.43,885.295 3779.13,885.845 3787.82,886.26 3796.52,886.567 3805.21,886.789 3813.9,886.946 
  3822.6,887.054 3831.29,887.128 3839.99,887.176 3848.68,887.207 3857.38,887.227 3866.07,887.239 3874.77,887.246 3883.46,887.25 3892.16,887.252 3900.85,887.252 
  
  "/>
</svg>
