<?xml version="1.0" encoding="utf-8"?>
<svg xmlns="http://www.w3.org/2000/svg" xmlns:xlink="http://www.w3.org/1999/xlink" width="1000" height="250" viewBox="0 0 4000 1000">
<defs>
  <clipPath id="clip010">
    <rect x="0" y="0" width="4000" height="1000"/>
  </clipPath>
</defs>
<path clip-path="url(#clip010)" d="
M0 1000 L4000 1000 L4000 0 L0 0  Z
  " fill="#ffffff" fill-rule="evenodd" fill-opacity="1"/>
<defs>
  <clipPath id="clip011">
    <rect x="800" y="0" width="2801" height="1000"/>
  </clipPath>
</defs>
<path clip-path="url(#clip010)" d="
M118.74 911.26 L1952.76 911.26 L1952.76 62.9921 L118.74 62.9921  Z
  " fill="#ffffff" fill-rule="evenodd" fill-opacity="1"/>
<defs>
  <clipPath id="clip012">
    <rect x="118" y="62" width="1835" height="849"/>
  </clipPath>
</defs>
<polyline clip-path="url(#clip012)" style="stroke:#000000; stroke-width:2; stroke-opacity:0.1; fill:none" points="
  168.914,911.26 168.914,62.9921 
  "/>
<polyline clip-path="url(#clip012)" style="stroke:#000000; stroke-width:2; stroke-opacity:0.1; fill:none" points="
  601.898,911.26 601.898,62.9921 
  "/>
<polyline clip-path="url(#clip012)" style="stroke:#000000; stroke-width:2; stroke-opacity:0.1; fill:none" points="
  1034.88,911.26 1034.88,62.9921 
  "/>
<polyline clip-path="url(#clip012)" style="stroke:#000000; stroke-width:2; stroke-opacity:0.1; fill:none" points="
  1467.87,911.26 1467.87,62.9921 
  "/>
<polyline clip-path="url(#clip012)" style="stroke:#000000; stroke-width:2; stroke-opacity:0.1; fill:none" points="
  1900.85,911.26 1900.85,62.9921 
  "/>
<polyline clip-path="url(#clip010)" style="stroke:#000000; stroke-width:4; stroke-opacity:1; fill:none" points="
  118.74,911.26 1952.76,911.26 
  "/>
<polyline clip-path="url(#clip010)" style="stroke:#000000; stroke-width:4; stroke-opacity:1; fill:none" points="
  168.914,911.26 168.914,901.081 
  "/>
<polyline clip-path="url(#clip010)" style="stroke:#000000; stroke-width:4; stroke-opacity:1; fill:none" points="
  601.898,911.26 601.898,901.081 
  "/>
<polyline clip-path="url(#clip010)" style="stroke:#000000; stroke-width:4; stroke-opacity:1; fill:none" points="
  1034.88,911.26 1034.88,901.081 
  "/>
<polyline clip-path="url(#clip010)" style="stroke:#000000; stroke-width:4; stroke-opacity:1; fill:none" points="
  1467.87,911.26 1467.87,901.081 
  "/>
<polyline clip-path="url(#clip010)" style="stroke:#000000; stroke-width:4; stroke-opacity:1; fill:none" points="
  1900.85,911.26 1900.85,901.081 
  "/>
<path clip-path="url(#clip010)" d="M 0 0 M168.914 953.251 Q165.303 953.251 163.475 956.815 Q161.669 960.357 161.669 967.487 Q161.669 974.593 163.475 978.158 Q165.303 981.699 168.914 981.699 Q172.549 981.699 174.354 978.158 Q176.183 974.593 176.183 967.487 Q176.183 960.357 174.354 956.815 Q172.549 953.251 168.914 953.251 M168.914 949.547 Q174.724 949.547 177.78 954.153 Q180.859 958.737 180.859 967.487 Q180.859 976.213 177.78 980.82 Q174.724 985.403 168.914 985.403 Q163.104 985.403 160.025 980.82 Q156.97 976.213 156.97 967.487 Q156.97 958.737 160.025 954.153 Q163.104 949.547 168.914 949.547 Z" fill="#000000" fill-rule="evenodd" fill-opacity="1" /><path clip-path="url(#clip010)" d="M 0 0 M570.035 980.797 L586.354 980.797 L586.354 984.732 L564.41 984.732 L564.41 980.797 Q567.072 978.042 571.655 973.412 Q576.262 968.76 577.442 967.417 Q579.688 964.894 580.567 963.158 Q581.47 961.399 581.47 959.709 Q581.47 956.954 579.526 955.218 Q577.604 953.482 574.503 953.482 Q572.303 953.482 569.85 954.246 Q567.419 955.01 564.641 956.561 L564.641 951.839 Q567.466 950.704 569.919 950.126 Q572.373 949.547 574.41 949.547 Q579.78 949.547 582.975 952.232 Q586.169 954.917 586.169 959.408 Q586.169 961.538 585.359 963.459 Q584.572 965.357 582.465 967.95 Q581.887 968.621 578.785 971.838 Q575.683 975.033 570.035 980.797 Z" fill="#000000" fill-rule="evenodd" fill-opacity="1" /><path clip-path="url(#clip010)" d="M 0 0 M591.47 950.172 L609.826 950.172 L609.826 954.107 L595.752 954.107 L595.752 962.579 Q596.771 962.232 597.789 962.07 Q598.808 961.885 599.826 961.885 Q605.613 961.885 608.993 965.056 Q612.373 968.227 612.373 973.644 Q612.373 979.223 608.9 982.324 Q605.428 985.403 599.109 985.403 Q596.933 985.403 594.664 985.033 Q592.419 984.662 590.012 983.922 L590.012 979.223 Q592.095 980.357 594.317 980.912 Q596.539 981.468 599.016 981.468 Q603.021 981.468 605.359 979.362 Q607.697 977.255 607.697 973.644 Q607.697 970.033 605.359 967.926 Q603.021 965.82 599.016 965.82 Q597.141 965.82 595.266 966.237 Q593.414 966.653 591.47 967.533 L591.47 950.172 Z" fill="#000000" fill-rule="evenodd" fill-opacity="1" /><path clip-path="url(#clip010)" d="M 0 0 M627.442 953.251 Q623.831 953.251 622.002 956.815 Q620.197 960.357 620.197 967.487 Q620.197 974.593 622.002 978.158 Q623.831 981.699 627.442 981.699 Q631.076 981.699 632.882 978.158 Q634.711 974.593 634.711 967.487 Q634.711 960.357 632.882 956.815 Q631.076 953.251 627.442 953.251 M627.442 949.547 Q633.252 949.547 636.308 954.153 Q639.386 958.737 639.386 967.487 Q639.386 976.213 636.308 980.82 Q633.252 985.403 627.442 985.403 Q621.632 985.403 618.553 980.82 Q615.498 976.213 615.498 967.487 Q615.498 958.737 618.553 954.153 Q621.632 949.547 627.442 949.547 Z" fill="#000000" fill-rule="evenodd" fill-opacity="1" /><path clip-path="url(#clip010)" d="M 0 0 M998.146 950.172 L1016.5 950.172 L1016.5 954.107 L1002.43 954.107 L1002.43 962.579 Q1003.45 962.232 1004.47 962.07 Q1005.48 961.885 1006.5 961.885 Q1012.29 961.885 1015.67 965.056 Q1019.05 968.227 1019.05 973.644 Q1019.05 979.223 1015.58 982.324 Q1012.1 985.403 1005.78 985.403 Q1003.61 985.403 1001.34 985.033 Q999.095 984.662 996.688 983.922 L996.688 979.223 Q998.771 980.357 1000.99 980.912 Q1003.22 981.468 1005.69 981.468 Q1009.7 981.468 1012.03 979.362 Q1014.37 977.255 1014.37 973.644 Q1014.37 970.033 1012.03 967.926 Q1009.7 965.82 1005.69 965.82 Q1003.82 965.82 1001.94 966.237 Q1000.09 966.653 998.146 967.533 L998.146 950.172 Z" fill="#000000" fill-rule="evenodd" fill-opacity="1" /><path clip-path="url(#clip010)" d="M 0 0 M1034.12 953.251 Q1030.51 953.251 1028.68 956.815 Q1026.87 960.357 1026.87 967.487 Q1026.87 974.593 1028.68 978.158 Q1030.51 981.699 1034.12 981.699 Q1037.75 981.699 1039.56 978.158 Q1041.39 974.593 1041.39 967.487 Q1041.39 960.357 1039.56 956.815 Q1037.75 953.251 1034.12 953.251 M1034.12 949.547 Q1039.93 949.547 1042.98 954.153 Q1046.06 958.737 1046.06 967.487 Q1046.06 976.213 1042.98 980.82 Q1039.93 985.403 1034.12 985.403 Q1028.31 985.403 1025.23 980.82 Q1022.17 976.213 1022.17 967.487 Q1022.17 958.737 1025.23 954.153 Q1028.31 949.547 1034.12 949.547 Z" fill="#000000" fill-rule="evenodd" fill-opacity="1" /><path clip-path="url(#clip010)" d="M 0 0 M1061.13 953.251 Q1057.52 953.251 1055.69 956.815 Q1053.89 960.357 1053.89 967.487 Q1053.89 974.593 1055.69 978.158 Q1057.52 981.699 1061.13 981.699 Q1064.77 981.699 1066.57 978.158 Q1068.4 974.593 1068.4 967.487 Q1068.4 960.357 1066.57 956.815 Q1064.77 953.251 1061.13 953.251 M1061.13 949.547 Q1066.94 949.547 1070 954.153 Q1073.08 958.737 1073.08 967.487 Q1073.08 976.213 1070 980.82 Q1066.94 985.403 1061.13 985.403 Q1055.32 985.403 1052.24 980.82 Q1049.19 976.213 1049.19 967.487 Q1049.19 958.737 1052.24 954.153 Q1055.32 949.547 1061.13 949.547 Z" fill="#000000" fill-rule="evenodd" fill-opacity="1" /><path clip-path="url(#clip010)" d="M 0 0 M1430.24 950.172 L1452.46 950.172 L1452.46 952.163 L1439.91 984.732 L1435.03 984.732 L1446.84 954.107 L1430.24 954.107 L1430.24 950.172 Z" fill="#000000" fill-rule="evenodd" fill-opacity="1" /><path clip-path="url(#clip010)" d="M 0 0 M1457.58 950.172 L1475.93 950.172 L1475.93 954.107 L1461.86 954.107 L1461.86 962.579 Q1462.88 962.232 1463.9 962.07 Q1464.91 961.885 1465.93 961.885 Q1471.72 961.885 1475.1 965.056 Q1478.48 968.227 1478.48 973.644 Q1478.48 979.223 1475.01 982.324 Q1471.53 985.403 1465.22 985.403 Q1463.04 985.403 1460.77 985.033 Q1458.53 984.662 1456.12 983.922 L1456.12 979.223 Q1458.2 980.357 1460.42 980.912 Q1462.65 981.468 1465.12 981.468 Q1469.13 981.468 1471.47 979.362 Q1473.8 977.255 1473.8 973.644 Q1473.8 970.033 1471.47 967.926 Q1469.13 965.82 1465.12 965.82 Q1463.25 965.82 1461.37 966.237 Q1459.52 966.653 1457.58 967.533 L1457.58 950.172 Z" fill="#000000" fill-rule="evenodd" fill-opacity="1" /><path clip-path="url(#clip010)" d="M 0 0 M1493.55 953.251 Q1489.94 953.251 1488.11 956.815 Q1486.3 960.357 1486.3 967.487 Q1486.3 974.593 1488.11 978.158 Q1489.94 981.699 1493.55 981.699 Q1497.18 981.699 1498.99 978.158 Q1500.82 974.593 1500.82 967.487 Q1500.82 960.357 1498.99 956.815 Q1497.18 953.251 1493.55 953.251 M1493.55 949.547 Q1499.36 949.547 1502.41 954.153 Q1505.49 958.737 1505.49 967.487 Q1505.49 976.213 1502.41 980.82 Q1499.36 985.403 1493.55 985.403 Q1487.74 985.403 1484.66 980.82 Q1481.6 976.213 1481.6 967.487 Q1481.6 958.737 1484.66 954.153 Q1487.74 949.547 1493.55 949.547 Z" fill="#000000" fill-rule="evenodd" fill-opacity="1" /><path clip-path="url(#clip010)" d="M 0 0 M1850.71 980.797 L1858.35 980.797 L1858.35 954.431 L1850.04 956.098 L1850.04 951.839 L1858.3 950.172 L1862.98 950.172 L1862.98 980.797 L1870.62 980.797 L1870.62 984.732 L1850.71 984.732 L1850.71 980.797 Z" fill="#000000" fill-rule="evenodd" fill-opacity="1" /><path clip-path="url(#clip010)" d="M 0 0 M1885.69 953.251 Q1882.08 953.251 1880.25 956.815 Q1878.44 960.357 1878.44 967.487 Q1878.44 974.593 1880.25 978.158 Q1882.08 981.699 1885.69 981.699 Q1889.32 981.699 1891.13 978.158 Q1892.96 974.593 1892.96 967.487 Q1892.96 960.357 1891.13 956.815 Q1889.32 953.251 1885.69 953.251 M1885.69 949.547 Q1891.5 949.547 1894.55 954.153 Q1897.63 958.737 1897.63 967.487 Q1897.63 976.213 1894.55 980.82 Q1891.5 985.403 1885.69 985.403 Q1879.88 985.403 1876.8 980.82 Q1873.74 976.213 1873.74 967.487 Q1873.74 958.737 1876.8 954.153 Q1879.88 949.547 1885.69 949.547 Z" fill="#000000" fill-rule="evenodd" fill-opacity="1" /><path clip-path="url(#clip010)" d="M 0 0 M1912.7 953.251 Q1909.09 953.251 1907.26 956.815 Q1905.46 960.357 1905.46 967.487 Q1905.46 974.593 1907.26 978.158 Q1909.09 981.699 1912.7 981.699 Q1916.34 981.699 1918.14 978.158 Q1919.97 974.593 1919.97 967.487 Q1919.97 960.357 1918.14 956.815 Q1916.34 953.251 1912.7 953.251 M1912.7 949.547 Q1918.51 949.547 1921.57 954.153 Q1924.65 958.737 1924.65 967.487 Q1924.65 976.213 1921.57 980.82 Q1918.51 985.403 1912.7 985.403 Q1906.89 985.403 1903.81 980.82 Q1900.76 976.213 1900.76 967.487 Q1900.76 958.737 1903.81 954.153 Q1906.89 949.547 1912.7 949.547 Z" fill="#000000" fill-rule="evenodd" fill-opacity="1" /><path clip-path="url(#clip010)" d="M 0 0 M1939.72 953.251 Q1936.1 953.251 1934.28 956.815 Q1932.47 960.357 1932.47 967.487 Q1932.47 974.593 1934.28 978.158 Q1936.1 981.699 1939.72 981.699 Q1943.35 981.699 1945.16 978.158 Q1946.98 974.593 1946.98 967.487 Q1946.98 960.357 1945.16 956.815 Q1943.35 953.251 1939.72 953.251 M1939.72 949.547 Q1945.53 949.547 1948.58 954.153 Q1951.66 958.737 1951.66 967.487 Q1951.66 976.213 1948.58 980.82 Q1945.53 985.403 1939.72 985.403 Q1933.91 985.403 1930.83 980.82 Q1927.77 976.213 1927.77 967.487 Q1927.77 958.737 1930.83 954.153 Q1933.91 949.547 1939.72 949.547 Z" fill="#000000" fill-rule="evenodd" fill-opacity="1" /><path clip-path="url(#clip010)" d="M 0 0 M917.76 1012.6 L924.189 1012.6 L924.189 1060.12 L917.76 1060.12 L917.76 1012.6 Z" fill="#000000" fill-rule="evenodd" fill-opacity="1" /><path clip-path="url(#clip010)" d="M 0 0 M936.125 1014.35 L936.125 1024.48 L948.188 1024.48 L948.188 1029.03 L936.125 1029.03 L936.125 1048.38 Q936.125 1052.74 937.302 1053.98 Q938.512 1055.22 942.172 1055.22 L948.188 1055.22 L948.188 1060.12 L942.172 1060.12 Q935.393 1060.12 932.815 1057.61 Q930.236 1055.06 930.236 1048.38 L930.236 1029.03 L925.94 1029.03 L925.94 1024.48 L930.236 1024.48 L930.236 1014.35 L936.125 1014.35 Z" fill="#000000" fill-rule="evenodd" fill-opacity="1" /><path clip-path="url(#clip010)" d="M 0 0 M984.822 1040.84 L984.822 1043.7 L957.895 1043.7 Q958.277 1049.75 961.524 1052.93 Q964.802 1056.08 970.627 1056.08 Q974.001 1056.08 977.152 1055.25 Q980.335 1054.43 983.454 1052.77 L983.454 1058.31 Q980.303 1059.65 976.993 1060.35 Q973.682 1061.05 970.277 1061.05 Q961.747 1061.05 956.75 1056.08 Q951.784 1051.12 951.784 1042.65 Q951.784 1033.9 956.495 1028.77 Q961.237 1023.62 969.258 1023.62 Q976.451 1023.62 980.621 1028.26 Q984.822 1032.88 984.822 1040.84 M978.966 1039.12 Q978.902 1034.31 976.261 1031.45 Q973.651 1028.58 969.322 1028.58 Q964.42 1028.58 961.46 1031.35 Q958.532 1034.12 958.086 1039.15 L978.966 1039.12 Z" fill="#000000" fill-rule="evenodd" fill-opacity="1" /><path clip-path="url(#clip010)" d="M 0 0 M1011.62 1029.95 Q1010.64 1029.38 1009.46 1029.12 Q1008.31 1028.84 1006.91 1028.84 Q1001.95 1028.84 999.273 1032.08 Q996.631 1035.3 996.631 1041.35 L996.631 1060.12 L990.742 1060.12 L990.742 1024.48 L996.631 1024.48 L996.631 1030.01 Q998.477 1026.77 1001.44 1025.21 Q1004.4 1023.62 1008.63 1023.62 Q1009.23 1023.62 1009.97 1023.71 Q1010.7 1023.78 1011.59 1023.93 L1011.62 1029.95 Z" fill="#000000" fill-rule="evenodd" fill-opacity="1" /><path clip-path="url(#clip010)" d="M 0 0 M1033.97 1042.2 Q1026.87 1042.2 1024.13 1043.83 Q1021.39 1045.45 1021.39 1049.37 Q1021.39 1052.48 1023.43 1054.33 Q1025.5 1056.15 1029.03 1056.15 Q1033.9 1056.15 1036.83 1052.71 Q1039.79 1049.24 1039.79 1043.51 L1039.79 1042.2 L1033.97 1042.2 M1045.65 1039.79 L1045.65 1060.12 L1039.79 1060.12 L1039.79 1054.71 Q1037.79 1057.96 1034.79 1059.52 Q1031.8 1061.05 1027.47 1061.05 Q1022 1061.05 1018.75 1057.99 Q1015.54 1054.9 1015.54 1049.75 Q1015.54 1043.73 1019.55 1040.68 Q1023.59 1037.62 1031.58 1037.62 L1039.79 1037.62 L1039.79 1037.05 Q1039.79 1033.01 1037.12 1030.81 Q1034.47 1028.58 1029.67 1028.58 Q1026.61 1028.58 1023.72 1029.31 Q1020.82 1030.05 1018.15 1031.51 L1018.15 1026.1 Q1021.36 1024.86 1024.39 1024.25 Q1027.41 1023.62 1030.27 1023.62 Q1038.01 1023.62 1041.83 1027.63 Q1045.65 1031.64 1045.65 1039.79 Z" fill="#000000" fill-rule="evenodd" fill-opacity="1" /><path clip-path="url(#clip010)" d="M 0 0 M1057.58 1014.35 L1057.58 1024.48 L1069.65 1024.48 L1069.65 1029.03 L1057.58 1029.03 L1057.58 1048.38 Q1057.58 1052.74 1058.76 1053.98 Q1059.97 1055.22 1063.63 1055.22 L1069.65 1055.22 L1069.65 1060.12 L1063.63 1060.12 Q1056.85 1060.12 1054.27 1057.61 Q1051.69 1055.06 1051.69 1048.38 L1051.69 1029.03 L1047.4 1029.03 L1047.4 1024.48 L1051.69 1024.48 L1051.69 1014.35 L1057.58 1014.35 Z" fill="#000000" fill-rule="evenodd" fill-opacity="1" /><path clip-path="url(#clip010)" d="M 0 0 M1075.79 1024.48 L1081.64 1024.48 L1081.64 1060.12 L1075.79 1060.12 L1075.79 1024.48 M1075.79 1010.6 L1081.64 1010.6 L1081.64 1018.01 L1075.79 1018.01 L1075.79 1010.6 Z" fill="#000000" fill-rule="evenodd" fill-opacity="1" /><path clip-path="url(#clip010)" d="M 0 0 M1101.6 1028.58 Q1096.89 1028.58 1094.15 1032.27 Q1091.42 1035.93 1091.42 1042.33 Q1091.42 1048.73 1094.12 1052.42 Q1096.86 1056.08 1101.6 1056.08 Q1106.28 1056.08 1109.02 1052.39 Q1111.75 1048.7 1111.75 1042.33 Q1111.75 1036 1109.02 1032.31 Q1106.28 1028.58 1101.6 1028.58 M1101.6 1023.62 Q1109.24 1023.62 1113.6 1028.58 Q1117.96 1033.55 1117.96 1042.33 Q1117.96 1051.08 1113.6 1056.08 Q1109.24 1061.05 1101.6 1061.05 Q1093.93 1061.05 1089.57 1056.08 Q1085.24 1051.08 1085.24 1042.33 Q1085.24 1033.55 1089.57 1028.58 Q1093.93 1023.62 1101.6 1023.62 Z" fill="#000000" fill-rule="evenodd" fill-opacity="1" /><path clip-path="url(#clip010)" d="M 0 0 M1153.74 1038.61 L1153.74 1060.12 L1147.88 1060.12 L1147.88 1038.8 Q1147.88 1033.74 1145.91 1031.22 Q1143.93 1028.71 1139.99 1028.71 Q1135.24 1028.71 1132.51 1031.73 Q1129.77 1034.76 1129.77 1039.98 L1129.77 1060.12 L1123.88 1060.12 L1123.88 1024.48 L1129.77 1024.48 L1129.77 1030.01 Q1131.87 1026.8 1134.7 1025.21 Q1137.57 1023.62 1141.29 1023.62 Q1147.43 1023.62 1150.59 1027.44 Q1153.74 1031.22 1153.74 1038.61 Z" fill="#000000" fill-rule="evenodd" fill-opacity="1" /><polyline clip-path="url(#clip012)" style="stroke:#000000; stroke-width:2; stroke-opacity:0.1; fill:none" points="
  118.74,885.74 1952.76,885.74 
  "/>
<polyline clip-path="url(#clip012)" style="stroke:#000000; stroke-width:2; stroke-opacity:0.1; fill:none" points="
  118.74,673.804 1952.76,673.804 
  "/>
<polyline clip-path="url(#clip012)" style="stroke:#000000; stroke-width:2; stroke-opacity:0.1; fill:none" points="
  118.74,461.869 1952.76,461.869 
  "/>
<polyline clip-path="url(#clip012)" style="stroke:#000000; stroke-width:2; stroke-opacity:0.1; fill:none" points="
  118.74,249.933 1952.76,249.933 
  "/>
<polyline clip-path="url(#clip010)" style="stroke:#000000; stroke-width:4; stroke-opacity:1; fill:none" points="
  118.74,911.26 118.74,62.9921 
  "/>
<polyline clip-path="url(#clip010)" style="stroke:#000000; stroke-width:4; stroke-opacity:1; fill:none" points="
  118.74,885.74 140.748,885.74 
  "/>
<polyline clip-path="url(#clip010)" style="stroke:#000000; stroke-width:4; stroke-opacity:1; fill:none" points="
  118.74,673.804 140.748,673.804 
  "/>
<polyline clip-path="url(#clip010)" style="stroke:#000000; stroke-width:4; stroke-opacity:1; fill:none" points="
  118.74,461.869 140.748,461.869 
  "/>
<polyline clip-path="url(#clip010)" style="stroke:#000000; stroke-width:4; stroke-opacity:1; fill:none" points="
  118.74,249.933 140.748,249.933 
  "/>
<path clip-path="url(#clip010)" d="M 0 0 M11.4256 871.539 Q7.8145 871.539 5.98581 875.104 Q4.18026 878.645 4.18026 885.775 Q4.18026 892.881 5.98581 896.446 Q7.8145 899.988 11.4256 899.988 Q15.0598 899.988 16.8654 896.446 Q18.6941 892.881 18.6941 885.775 Q18.6941 878.645 16.8654 875.104 Q15.0598 871.539 11.4256 871.539 M11.4256 867.835 Q17.2358 867.835 20.2913 872.442 Q23.37 877.025 23.37 885.775 Q23.37 894.502 20.2913 899.108 Q17.2358 903.691 11.4256 903.691 Q5.61544 903.691 2.53675 899.108 Q-0.518784 894.502 -0.518784 885.775 Q-0.518784 877.025 2.53675 872.442 Q5.61544 867.835 11.4256 867.835 Z" fill="#000000" fill-rule="evenodd" fill-opacity="1" /><path clip-path="url(#clip010)" d="M 0 0 M28.4394 897.141 L33.3236 897.141 L33.3236 903.02 L28.4394 903.02 L28.4394 897.141 Z" fill="#000000" fill-rule="evenodd" fill-opacity="1" /><path clip-path="url(#clip010)" d="M 0 0 M42.4208 899.085 L58.7402 899.085 L58.7402 903.02 L36.7958 903.02 L36.7958 899.085 Q39.4579 896.33 44.0412 891.701 Q48.6476 887.048 49.8282 885.705 Q52.0735 883.182 52.9532 881.446 Q53.8559 879.687 53.8559 877.997 Q53.8559 875.243 51.9115 873.506 Q49.9902 871.77 46.8884 871.77 Q44.6893 871.77 42.2356 872.534 Q39.8051 873.298 37.0273 874.849 L37.0273 870.127 Q39.8514 868.993 42.3051 868.414 Q44.7588 867.835 46.7958 867.835 Q52.1661 867.835 55.3605 870.52 Q58.555 873.206 58.555 877.696 Q58.555 879.826 57.7448 881.747 Q56.9578 883.645 54.8513 886.238 Q54.2726 886.909 51.1708 890.127 Q48.0689 893.321 42.4208 899.085 Z" fill="#000000" fill-rule="evenodd" fill-opacity="1" /><path clip-path="url(#clip010)" d="M 0 0 M9.34227 659.603 Q5.73118 659.603 3.90249 663.168 Q2.09694 666.71 2.09694 673.839 Q2.09694 680.946 3.90249 684.51 Q5.73118 688.052 9.34227 688.052 Q12.9765 688.052 14.7821 684.51 Q16.6108 680.946 16.6108 673.839 Q16.6108 666.71 14.7821 663.168 Q12.9765 659.603 9.34227 659.603 M9.34227 655.899 Q15.1524 655.899 18.208 660.506 Q21.2867 665.089 21.2867 673.839 Q21.2867 682.566 18.208 687.172 Q15.1524 691.756 9.34227 691.756 Q3.53212 691.756 0.453433 687.172 Q-2.60211 682.566 -2.60211 673.839 Q-2.60211 665.089 0.453433 660.506 Q3.53212 655.899 9.34227 655.899 Z" fill="#000000" fill-rule="evenodd" fill-opacity="1" /><path clip-path="url(#clip010)" d="M 0 0 M26.3561 685.205 L31.2403 685.205 L31.2403 691.084 L26.3561 691.084 L26.3561 685.205 Z" fill="#000000" fill-rule="evenodd" fill-opacity="1" /><path clip-path="url(#clip010)" d="M 0 0 M49.1569 660.599 L37.3514 679.047 L49.1569 679.047 L49.1569 660.599 M47.93 656.524 L53.8096 656.524 L53.8096 679.047 L58.7402 679.047 L58.7402 682.936 L53.8096 682.936 L53.8096 691.084 L49.1569 691.084 L49.1569 682.936 L33.5551 682.936 L33.5551 678.422 L47.93 656.524 Z" fill="#000000" fill-rule="evenodd" fill-opacity="1" /><path clip-path="url(#clip010)" d="M 0 0 M9.66635 447.667 Q6.05525 447.667 4.22656 451.232 Q2.42101 454.774 2.42101 461.903 Q2.42101 469.01 4.22656 472.575 Q6.05525 476.116 9.66635 476.116 Q13.3006 476.116 15.1061 472.575 Q16.9348 469.01 16.9348 461.903 Q16.9348 454.774 15.1061 451.232 Q13.3006 447.667 9.66635 447.667 M9.66635 443.964 Q15.4765 443.964 18.532 448.57 Q21.6107 453.154 21.6107 461.903 Q21.6107 470.63 18.532 475.237 Q15.4765 479.82 9.66635 479.82 Q3.85619 479.82 0.777505 475.237 Q-2.27803 470.63 -2.27803 461.903 Q-2.27803 453.154 0.777505 448.57 Q3.85619 443.964 9.66635 443.964 Z" fill="#000000" fill-rule="evenodd" fill-opacity="1" /><path clip-path="url(#clip010)" d="M 0 0 M26.6801 473.269 L31.5644 473.269 L31.5644 479.149 L26.6801 479.149 L26.6801 473.269 Z" fill="#000000" fill-rule="evenodd" fill-opacity="1" /><path clip-path="url(#clip010)" d="M 0 0 M47.2124 460.005 Q44.0643 460.005 42.2125 462.158 Q40.3838 464.311 40.3838 468.061 Q40.3838 471.788 42.2125 473.964 Q44.0643 476.116 47.2124 476.116 Q50.3606 476.116 52.1893 473.964 Q54.0411 471.788 54.0411 468.061 Q54.0411 464.311 52.1893 462.158 Q50.3606 460.005 47.2124 460.005 M56.4948 445.353 L56.4948 449.612 Q54.7355 448.779 52.93 448.339 Q51.1476 447.899 49.3884 447.899 Q44.7588 447.899 42.3051 451.024 Q39.8745 454.149 39.5273 460.468 Q40.893 458.454 42.9532 457.39 Q45.0134 456.302 47.4902 456.302 Q52.6985 456.302 55.7078 459.473 Q58.7402 462.621 58.7402 468.061 Q58.7402 473.385 55.592 476.602 Q52.4439 479.82 47.2124 479.82 Q41.2171 479.82 38.0458 475.237 Q34.8745 470.63 34.8745 461.903 Q34.8745 453.709 38.7634 448.848 Q42.6523 443.964 49.2032 443.964 Q50.9624 443.964 52.7448 444.311 Q54.5504 444.658 56.4948 445.353 Z" fill="#000000" fill-rule="evenodd" fill-opacity="1" /><path clip-path="url(#clip010)" d="M 0 0 M9.92097 235.732 Q6.30988 235.732 4.48119 239.296 Q2.67564 242.838 2.67564 249.968 Q2.67564 257.074 4.48119 260.639 Q6.30988 264.181 9.92097 264.181 Q13.5552 264.181 15.3608 260.639 Q17.1895 257.074 17.1895 249.968 Q17.1895 242.838 15.3608 239.296 Q13.5552 235.732 9.92097 235.732 M9.92097 232.028 Q15.7311 232.028 18.7867 236.634 Q21.8654 241.218 21.8654 249.968 Q21.8654 258.695 18.7867 263.301 Q15.7311 267.884 9.92097 267.884 Q4.11082 267.884 1.03213 263.301 Q-2.02341 258.695 -2.02341 249.968 Q-2.02341 241.218 1.03213 236.634 Q4.11082 232.028 9.92097 232.028 Z" fill="#000000" fill-rule="evenodd" fill-opacity="1" /><path clip-path="url(#clip010)" d="M 0 0 M26.9348 261.333 L31.819 261.333 L31.819 267.213 L26.9348 267.213 L26.9348 261.333 Z" fill="#000000" fill-rule="evenodd" fill-opacity="1" /><path clip-path="url(#clip010)" d="M 0 0 M46.8884 250.801 Q43.5551 250.801 41.6338 252.583 Q39.7356 254.366 39.7356 257.491 Q39.7356 260.616 41.6338 262.398 Q43.5551 264.181 46.8884 264.181 Q50.2217 264.181 52.143 262.398 Q54.0643 260.593 54.0643 257.491 Q54.0643 254.366 52.143 252.583 Q50.2448 250.801 46.8884 250.801 M42.2125 248.81 Q39.2032 248.07 37.5134 246.009 Q35.8468 243.949 35.8468 240.986 Q35.8468 236.843 38.7866 234.435 Q41.7495 232.028 46.8884 232.028 Q52.0504 232.028 54.9902 234.435 Q57.93 236.843 57.93 240.986 Q57.93 243.949 56.2402 246.009 Q54.5735 248.07 51.5874 248.81 Q54.967 249.597 56.842 251.889 Q58.7402 254.181 58.7402 257.491 Q58.7402 262.514 55.6615 265.199 Q52.6059 267.884 46.8884 267.884 Q41.1708 267.884 38.0921 265.199 Q35.0366 262.514 35.0366 257.491 Q35.0366 254.181 36.9347 251.889 Q38.8329 249.597 42.2125 248.81 M40.4995 241.426 Q40.4995 244.111 42.1662 245.616 Q43.856 247.121 46.8884 247.121 Q49.8976 247.121 51.5874 245.616 Q53.3004 244.111 53.3004 241.426 Q53.3004 238.741 51.5874 237.236 Q49.8976 235.732 46.8884 235.732 Q43.856 235.732 42.1662 237.236 Q40.4995 238.741 40.4995 241.426 Z" fill="#000000" fill-rule="evenodd" fill-opacity="1" /><path clip-path="url(#clip010)" d="M 0 0 M-82.8185 650.184 L-76.5483 650.184 Q-78.2989 653.844 -79.1582 657.09 Q-80.0176 660.337 -80.0176 663.361 Q-80.0176 668.612 -77.9806 671.477 Q-75.9435 674.31 -72.1878 674.31 Q-69.0368 674.31 -67.4135 672.432 Q-65.8221 670.522 -64.8354 665.238 L-64.0397 661.355 Q-62.671 654.162 -59.2017 650.756 Q-55.7643 647.319 -49.9715 647.319 Q-43.0647 647.319 -39.4999 651.966 Q-35.9351 656.581 -35.9351 665.525 Q-35.9351 668.899 -36.699 672.718 Q-37.4628 676.506 -38.9588 680.58 L-45.5791 680.58 Q-43.383 676.665 -42.269 672.909 Q-41.155 669.153 -41.155 665.525 Q-41.155 660.019 -43.3193 657.027 Q-45.4836 654.035 -49.494 654.035 Q-52.9952 654.035 -54.9685 656.199 Q-56.9419 658.332 -57.9286 663.233 L-58.6925 667.148 Q-60.1248 674.341 -63.1803 677.556 Q-66.2358 680.771 -71.6785 680.771 Q-77.9806 680.771 -81.609 676.347 Q-85.2375 671.891 -85.2375 664.093 Q-85.2375 660.751 -84.6327 657.281 Q-84.028 653.812 -82.8185 650.184 Z" fill="#000000" fill-rule="evenodd" fill-opacity="1" /><path clip-path="url(#clip010)" d="M 0 0 M-54.7776 624.975 Q-54.7776 632.073 -53.1543 634.81 Q-51.5311 637.548 -47.6162 637.548 Q-44.497 637.548 -42.6509 635.511 Q-40.8367 633.442 -40.8367 629.909 Q-40.8367 625.039 -44.2742 622.111 Q-47.7435 619.151 -53.4726 619.151 L-54.7776 619.151 L-54.7776 624.975 M-57.1965 613.294 L-36.8581 613.294 L-36.8581 619.151 L-42.269 619.151 Q-39.0224 621.156 -37.4628 624.148 Q-35.9351 627.14 -35.9351 631.468 Q-35.9351 636.943 -38.9906 640.189 Q-42.078 643.404 -47.2342 643.404 Q-53.2498 643.404 -56.3053 639.394 Q-59.3609 635.351 -59.3609 627.363 L-59.3609 619.151 L-59.9338 619.151 Q-63.976 619.151 -66.1722 621.824 Q-68.4002 624.466 -68.4002 629.272 Q-68.4002 632.328 -67.6681 635.224 Q-66.9361 638.121 -65.472 640.794 L-70.8828 640.794 Q-72.1241 637.579 -72.7289 634.556 Q-73.3654 631.532 -73.3654 628.667 Q-73.3654 620.933 -69.355 617.114 Q-65.3446 613.294 -57.1965 613.294 Z" fill="#000000" fill-rule="evenodd" fill-opacity="1" /><path clip-path="url(#clip010)" d="M 0 0 M-65.6629 579.397 Q-69.6097 577.201 -71.4876 574.145 Q-73.3654 571.09 -73.3654 566.952 Q-73.3654 561.382 -69.4505 558.358 Q-65.5674 555.335 -58.3742 555.335 L-36.8581 555.335 L-36.8581 561.223 L-58.1832 561.223 Q-63.3076 561.223 -65.7902 563.037 Q-68.2729 564.851 -68.2729 568.575 Q-68.2729 573.127 -65.2492 575.768 Q-62.2254 578.41 -57.0056 578.41 L-36.8581 578.41 L-36.8581 584.298 L-58.1832 584.298 Q-63.3394 584.298 -65.7902 586.113 Q-68.2729 587.927 -68.2729 591.715 Q-68.2729 596.202 -65.2173 598.844 Q-62.1936 601.486 -57.0056 601.486 L-36.8581 601.486 L-36.8581 607.374 L-72.5061 607.374 L-72.5061 601.486 L-66.9679 601.486 Q-70.2462 599.481 -71.8058 596.68 Q-73.3654 593.879 -73.3654 590.028 Q-73.3654 586.145 -71.3921 583.439 Q-69.4187 580.702 -65.6629 579.397 Z" fill="#000000" fill-rule="evenodd" fill-opacity="1" /><path clip-path="url(#clip010)" d="M 0 0 M-42.2053 543.526 L-23.2992 543.526 L-23.2992 549.414 L-72.5061 549.414 L-72.5061 543.526 L-67.0952 543.526 Q-70.2781 541.68 -71.8058 538.879 Q-73.3654 536.046 -73.3654 532.132 Q-73.3654 525.639 -68.2092 521.596 Q-63.053 517.522 -54.6503 517.522 Q-46.2475 517.522 -41.0913 521.596 Q-35.9351 525.639 -35.9351 532.132 Q-35.9351 536.046 -37.4628 538.879 Q-39.0224 541.68 -42.2053 543.526 M-54.6503 523.601 Q-61.1114 523.601 -64.7717 526.275 Q-68.4638 528.917 -68.4638 533.564 Q-68.4638 538.211 -64.7717 540.884 Q-61.1114 543.526 -54.6503 543.526 Q-48.1891 543.526 -44.497 540.884 Q-40.8367 538.211 -40.8367 533.564 Q-40.8367 528.917 -44.497 526.275 Q-48.1891 523.601 -54.6503 523.601 Z" fill="#000000" fill-rule="evenodd" fill-opacity="1" /><path clip-path="url(#clip010)" d="M 0 0 M-86.3833 511.379 L-86.3833 505.523 L-36.8581 505.523 L-36.8581 511.379 L-86.3833 511.379 Z" fill="#000000" fill-rule="evenodd" fill-opacity="1" /><path clip-path="url(#clip010)" d="M 0 0 M-56.1462 468.888 L-53.2816 468.888 L-53.2816 495.815 Q-47.2342 495.433 -44.0514 492.187 Q-40.9003 488.908 -40.9003 483.084 Q-40.9003 479.71 -41.7279 476.559 Q-42.5554 473.376 -44.2105 470.257 L-38.6723 470.257 Q-37.3355 473.408 -36.6353 476.718 Q-35.9351 480.028 -35.9351 483.434 Q-35.9351 491.964 -40.9003 496.961 Q-45.8656 501.926 -54.332 501.926 Q-63.0848 501.926 -68.2092 497.216 Q-73.3654 492.473 -73.3654 484.452 Q-73.3654 477.259 -68.7185 473.09 Q-64.1033 468.888 -56.1462 468.888 M-57.8649 474.745 Q-62.671 474.808 -65.5356 477.45 Q-68.4002 480.06 -68.4002 484.389 Q-68.4002 489.29 -65.6311 492.25 Q-62.862 495.179 -57.8331 495.624 L-57.8649 474.745 Z" fill="#000000" fill-rule="evenodd" fill-opacity="1" /><path clip-path="url(#clip010)" d="M 0 0 M-72.5061 446.226 L-72.5061 440.02 L-42.5872 428.88 L-72.5061 417.74 L-72.5061 411.533 L-36.8581 424.901 L-36.8581 432.858 L-72.5061 446.226 Z" fill="#000000" fill-rule="evenodd" fill-opacity="1" /><path clip-path="url(#clip010)" d="M 0 0 M-54.7776 389.19 Q-54.7776 396.287 -53.1543 399.025 Q-51.5311 401.762 -47.6162 401.762 Q-44.497 401.762 -42.6509 399.725 Q-40.8367 397.656 -40.8367 394.123 Q-40.8367 389.253 -44.2742 386.325 Q-47.7435 383.365 -53.4726 383.365 L-54.7776 383.365 L-54.7776 389.19 M-57.1965 377.509 L-36.8581 377.509 L-36.8581 383.365 L-42.269 383.365 Q-39.0224 385.37 -37.4628 388.362 Q-35.9351 391.354 -35.9351 395.683 Q-35.9351 401.157 -38.9906 404.404 Q-42.078 407.618 -47.2342 407.618 Q-53.2498 407.618 -56.3053 403.608 Q-59.3609 399.566 -59.3609 391.577 L-59.3609 383.365 L-59.9338 383.365 Q-63.976 383.365 -66.1722 386.039 Q-68.4002 388.68 -68.4002 393.486 Q-68.4002 396.542 -67.6681 399.438 Q-66.9361 402.335 -65.472 405.008 L-70.8828 405.008 Q-72.1241 401.794 -72.7289 398.77 Q-73.3654 395.746 -73.3654 392.882 Q-73.3654 385.147 -69.355 381.328 Q-65.3446 377.509 -57.1965 377.509 Z" fill="#000000" fill-rule="evenodd" fill-opacity="1" /><path clip-path="url(#clip010)" d="M 0 0 M-86.3833 371.366 L-86.3833 365.509 L-36.8581 365.509 L-36.8581 371.366 L-86.3833 371.366 Z" fill="#000000" fill-rule="evenodd" fill-opacity="1" /><path clip-path="url(#clip010)" d="M 0 0 M-50.9263 359.971 L-72.5061 359.971 L-72.5061 354.115 L-51.1491 354.115 Q-46.0884 354.115 -43.5421 352.141 Q-41.0276 350.168 -41.0276 346.221 Q-41.0276 341.479 -44.0514 338.741 Q-47.0751 335.972 -52.2949 335.972 L-72.5061 335.972 L-72.5061 330.116 L-36.8581 330.116 L-36.8581 335.972 L-42.3326 335.972 Q-39.0861 338.105 -37.4947 340.938 Q-35.9351 343.738 -35.9351 347.462 Q-35.9351 353.605 -39.7545 356.788 Q-43.5739 359.971 -50.9263 359.971 M-73.3654 345.234 L-73.3654 345.234 Z" fill="#000000" fill-rule="evenodd" fill-opacity="1" /><path clip-path="url(#clip010)" d="M 0 0 M-56.1462 293.481 L-53.2816 293.481 L-53.2816 320.408 Q-47.2342 320.026 -44.0514 316.78 Q-40.9003 313.501 -40.9003 307.677 Q-40.9003 304.303 -41.7279 301.152 Q-42.5554 297.969 -44.2105 294.85 L-38.6723 294.85 Q-37.3355 298.001 -36.6353 301.311 Q-35.9351 304.621 -35.9351 308.027 Q-35.9351 316.557 -40.9003 321.554 Q-45.8656 326.519 -54.332 326.519 Q-63.0848 326.519 -68.2092 321.809 Q-73.3654 317.066 -73.3654 309.045 Q-73.3654 301.852 -68.7185 297.683 Q-64.1033 293.481 -56.1462 293.481 M-57.8649 299.338 Q-62.671 299.401 -65.5356 302.043 Q-68.4002 304.653 -68.4002 308.982 Q-68.4002 313.883 -65.6311 316.843 Q-62.862 319.772 -57.8331 320.217 L-57.8649 299.338 Z" fill="#000000" fill-rule="evenodd" fill-opacity="1" /><path clip-path="url(#clip010)" d="M 0 0 M1048.63 43.8146 L1022.83 43.8146 Q1023.43 55.9268 1026.23 61.0714 Q1029.71 67.3908 1035.75 67.3908 Q1041.82 67.3908 1045.19 61.0309 Q1048.14 55.4407 1048.63 43.8146 M1048.51 36.928 Q1047.37 25.4235 1045.19 21.3726 Q1041.7 14.9721 1035.75 14.9721 Q1029.55 14.9721 1026.27 21.2916 Q1023.68 26.3957 1022.91 36.928 L1048.51 36.928 M1035.75 8.89579 Q1045.47 8.89579 1051.02 17.4837 Q1056.57 26.0311 1056.57 41.1815 Q1056.57 56.2914 1051.02 64.8793 Q1045.47 73.5077 1035.75 73.5077 Q1025.99 73.5077 1020.48 64.8793 Q1014.93 56.2914 1014.93 41.1815 Q1014.93 26.0311 1020.48 17.4837 Q1025.99 8.89579 1035.75 8.89579 Z" fill="#000000" fill-rule="evenodd" fill-opacity="1" /><polyline clip-path="url(#clip012)" style="stroke:#009af9; stroke-width:4; stroke-opacity:1; fill:none" points="
  170.646,463.272 172.378,468.715 174.11,468.715 175.842,475.246 177.574,497.943 179.306,474.824 181.038,608.492 182.77,256.469 184.502,549.961 186.234,296.018 
  187.966,190.771 189.698,226.477 191.429,98.9855 193.161,210.419 194.893,164.009 196.625,257.922 198.357,278.632 200.089,222.573 201.821,675.189 203.553,396.174 
  205.285,396.174 207.017,396.174 208.749,313.653 210.481,551.332 212.213,215.475 213.945,288.801 215.677,237.954 217.409,328.286 219.14,322.312 220.872,261.319 
  222.604,243.365 224.336,567.909 226.068,596.209 227.8,268.981 229.532,235.199 231.264,612.581 232.996,612.581 234.728,724.653 236.46,542 238.192,301.457 
  239.924,302.706 241.656,326.955 243.388,429.164 245.119,574.247 246.851,551.585 248.583,551.585 250.315,655.574 252.047,620.728 253.779,521.752 255.511,521.752 
  257.243,311.662 258.975,553.13 260.707,313.062 262.439,313.062 264.171,277.802 265.903,601.395 267.635,185.916 269.367,720.896 271.099,579.043 272.83,223.68 
  274.562,184.421 276.294,285.84 278.026,319.553 279.758,319.553 281.49,319.553 283.222,501.264 284.954,407.205 286.686,407.205 288.418,261.992 290.15,248.228 
  291.882,305.91 293.614,475.315 295.346,426.361 297.078,504.526 298.809,504.526 300.541,443.946 302.273,551.172 304.005,424.513 305.737,368.295 307.469,256.842 
  309.201,280.544 310.933,537.164 312.665,677.931 314.397,408.432 316.129,440.786 317.861,440.786 319.593,440.786 321.325,342.368 323.057,514.835 324.789,343.827 
  326.52,270.466 328.252,568.03 329.984,529.926 331.716,440.429 333.448,440.429 335.18,533.806 336.912,285.853 338.644,285.853 340.376,201.196 342.108,887.252 
  343.84,420.977 345.572,396.816 347.304,384.687 349.036,373.296 350.768,377.561 352.499,176.724 354.231,247.04 355.963,627.312 357.695,704.057 359.427,704.057 
  361.159,404.156 362.891,542.722 364.623,542.722 366.355,316.647 368.087,209.528 369.819,659.861 371.551,608.107 373.283,835.917 375.015,311.53 376.747,343.117 
  378.479,343.117 380.21,454.757 381.942,454.757 383.674,454.757 385.406,226.147 387.138,306.981 388.87,383.586 390.602,206.12 392.334,678.902 394.066,446.381 
  395.798,446.381 397.53,470.542 399.262,628.861 400.994,528.663 402.726,528.663 404.458,528.663 406.189,291.591 407.921,291.591 409.653,168.4 411.385,341.227 
  413.117,205.151 414.849,143.404 416.581,159.076 418.313,280.909 420.045,261.423 421.777,582.957 423.509,607.588 425.241,264.028 426.973,612.18 428.705,412.226 
  430.437,366.929 432.169,366.929 433.9,452.876 435.632,452.876 437.364,452.876 439.096,790.109 440.828,388.502 442.56,388.502 444.292,388.502 446.024,323.082 
  447.756,302.24 449.488,361.214 451.22,361.214 452.952,291.204 454.684,389.187 456.416,389.187 458.148,389.187 459.879,427.649 461.611,378.472 463.343,284.476 
  465.075,333.273 466.807,226.163 468.539,226.163 470.271,187.869 472.003,743.058 473.735,332.351 475.467,412.827 477.199,381.253 478.931,440.632 480.663,359.254 
  482.395,359.254 484.127,442.877 485.859,452.291 487.59,348.44 489.322,287.764 491.054,372.042 492.786,286.492 494.518,225.401 496.25,600.582 497.982,461.429 
  499.714,589.345 501.446,533.011 503.178,321.028 504.91,413.334 506.642,413.334 508.374,229.655 510.106,284.305 511.838,284.305 513.569,366.478 515.301,476.241 
  517.033,490.824 518.765,490.824 520.497,614.227 522.229,224.268 523.961,314.587 525.693,544.223 527.425,320.219 529.157,534.468 530.889,440.494 532.621,798.445 
  534.353,611.369 536.085,726.343 537.817,165.65 539.549,512.705 541.28,498.774 543.012,290.671 544.744,425.906 546.476,707.014 548.208,513.993 549.94,701.706 
  551.672,212.853 553.404,680.119 555.136,446.906 556.868,517.735 558.6,587.403 560.332,423.057 562.064,663.956 563.796,236.036 565.528,276.289 567.259,571.858 
  568.991,246.401 570.723,611.852 572.455,532.986 574.187,196.379 575.919,244.028 577.651,241.064 579.383,346.943 581.115,310.758 582.847,310.758 584.579,164.023 
  586.311,256.707 588.043,303.447 589.775,336.972 591.507,338.587 593.239,281.23 594.97,209.305 596.702,299.361 598.434,273.015 600.166,554.042 601.898,525.596 
  603.63,271.157 605.362,331.821 607.094,209.054 608.826,209.054 610.558,356.897 612.29,284.415 614.022,399.501 615.754,411.752 617.486,411.752 619.218,437.211 
  620.949,437.211 622.681,507.987 624.413,697.296 626.145,714.605 627.877,449.312 629.609,429.015 631.341,727.395 633.073,524.517 634.805,195.086 636.537,346.57 
  638.269,346.57 640.001,500.552 641.733,354.642 643.465,354.642 645.197,356.563 646.929,367.581 648.66,311.313 650.392,374.768 652.124,371.921 653.856,309.981 
  655.588,395.803 657.32,412.387 659.052,438.394 660.784,438.394 662.516,438.394 664.248,438.394 665.98,411.911 667.712,554.883 669.444,554.883 671.176,535.007 
  672.908,535.007 674.639,604.686 676.371,604.686 678.103,507.43 679.835,618.977 681.567,429.284 683.299,315.188 685.031,374.752 686.763,272.785 688.495,578.588 
  690.227,236.387 691.959,200.452 693.691,200.452 695.423,282.557 697.155,331.97 698.887,497.292 700.619,582.546 702.35,549.95 704.082,482.735 705.814,362.878 
  707.546,255.838 709.278,548.954 711.01,422.087 712.742,500.297 714.474,623.118 716.206,460.869 717.938,632.554 719.67,196.106 721.402,635.437 723.134,508.844 
  724.866,339.765 726.598,368.615 728.329,230.173 730.061,574.133 731.793,606.621 733.525,685.355 735.257,495.257 736.989,332.336 738.721,368.464 740.453,355.363 
  742.185,324.161 743.917,396.831 745.649,386.541 747.381,320.688 749.113,471.971 750.845,357.353 752.577,394.532 754.309,699.938 756.04,558.262 757.772,491.914 
  759.504,491.914 761.236,491.914 762.968,187.764 764.7,217.637 766.432,110.074 768.164,258.357 769.896,374.154 771.628,374.154 773.36,374.154 775.092,317.518 
  776.824,471.397 778.556,471.397 780.288,527.425 782.019,310.196 783.751,264.7 785.483,384.578 787.215,210.863 788.947,260.718 790.679,625.72 792.411,537.175 
  794.143,265.134 795.875,351.093 797.607,428.24 799.339,376.977 801.071,333.003 802.803,419.894 804.535,419.894 806.267,335.257 807.999,519.487 809.73,601.477 
  811.462,560.963 813.194,289.971 814.926,353.821 816.658,500.869 818.39,308.01 820.122,308.01 821.854,155.31 823.586,306.381 825.318,480.658 827.05,480.658 
  828.782,480.658 830.514,480.658 832.246,606.181 833.978,629.36 835.709,577.866 837.441,251.106 839.173,109.24 840.905,320.675 842.637,320.675 844.369,309.677 
  846.101,276.766 847.833,276.766 849.565,276.766 851.297,215.947 853.029,266.453 854.761,343.901 856.493,437.463 858.225,560.883 859.957,509.73 861.689,338.132 
  863.42,338.132 865.152,514.479 866.884,406.152 868.616,396.999 870.348,396.999 872.08,445.358 873.812,445.358 875.544,581.772 877.276,426.899 879.008,426.899 
  880.74,685.644 882.472,513.501 884.204,309.896 885.936,556.884 887.668,146.676 889.399,269.927 891.131,362.915 892.863,353.601 894.595,500.274 896.327,589.177 
  898.059,190.113 899.791,346.048 901.523,356.759 903.255,345.649 904.987,509.532 906.719,507.61 908.451,281.37 910.183,513.153 911.915,335.504 913.647,312.456 
  915.379,355.123 917.11,304.757 918.842,198.349 920.574,265.465 922.306,153.411 924.038,287.319 925.77,167.563 927.502,661.947 929.234,610.112 930.966,480.228 
  932.698,516.25 934.43,336.183 936.162,448.451 937.894,493.304 939.626,300.226 941.358,284.783 943.089,390.76 944.821,390.76 946.553,332.105 948.285,494.04 
  950.017,527.669 951.749,431.279 953.481,696.578 955.213,510.107 956.945,713.055 958.677,428.73 960.409,428.73 962.141,428.73 963.873,513.78 965.605,338.195 
  967.337,447.683 969.069,373.655 970.8,480.118 972.532,534.785 974.264,534.785 975.996,286.032 977.728,286.032 979.46,374.824 981.192,173.11 982.924,347.3 
  984.656,171.001 986.388,718.546 988.12,420.432 989.852,383.602 991.584,353.461 993.316,458.739 995.048,377.769 996.779,309.082 998.511,237.234 1000.24,96.2944 
  1001.98,305.681 1003.71,311.473 1005.44,164.644 1007.17,132.795 1008.9,339.264 1010.63,339.264 1012.37,339.264 1014.1,226.644 1015.83,190.625 1017.56,291.376 
  1019.29,397.545 1021.03,450.427 1022.76,571.815 1024.49,263.285 1026.22,210.77 1027.95,696.607 1029.69,447.894 1031.42,452.968 1033.15,452.968 1034.88,657.756 
  1036.61,544.288 1038.35,802.016 1040.08,568.455 1041.81,600.305 1043.54,470.54 1045.27,376.885 1047.01,447.963 1048.74,391.749 1050.47,409.021 1052.2,264.224 
  1053.93,264.224 1055.67,275.879 1057.4,182.583 1059.13,157.857 1060.86,724.901 1062.59,383.44 1064.32,221.744 1066.06,360.26 1067.79,413.986 1069.52,572.439 
  1071.25,613.308 1072.98,613.308 1074.72,580.949 1076.45,558.482 1078.18,655.624 1079.91,545.9 1081.64,492.176 1083.38,462.064 1085.11,462.064 1086.84,486.224 
  1088.57,486.224 1090.3,579.177 1092.04,613.083 1093.77,624.792 1095.5,500.55 1097.23,570.509 1098.96,433.652 1100.7,407.491 1102.43,365.893 1104.16,430.966 
  1105.89,430.966 1107.62,348.844 1109.36,499.36 1111.09,463.274 1112.82,566.121 1114.55,781.133 1116.28,397.501 1118.01,397.501 1119.75,736.111 1121.48,158.405 
  1123.21,730.172 1124.94,561.173 1126.67,279.938 1128.41,394.71 1130.14,256.299 1131.87,240.503 1133.6,382.913 1135.33,399.753 1137.07,399.753 1138.8,613.515 
  1140.53,509.736 1142.26,690.057 1143.99,690.057 1145.73,850.639 1147.46,866.639 1149.19,699.396 1150.92,410.224 1152.65,373.716 1154.39,468.874 1156.12,590.874 
  1157.85,528.731 1159.58,157.902 1161.31,497.701 1163.05,497.701 1164.78,195.25 1166.51,249.96 1168.24,270.981 1169.97,270.981 1171.7,185.242 1173.44,290.301 
  1175.17,395.636 1176.9,334.602 1178.63,393.441 1180.36,393.441 1182.1,282.696 1183.83,518.205 1185.56,571.707 1187.29,246.413 1189.02,285.854 1190.76,291.35 
  1192.49,409.261 1194.22,381.151 1195.95,230.07 1197.68,265.091 1199.42,618.218 1201.15,423.26 1202.88,470.412 1204.61,470.412 1206.34,537.185 1208.08,673.61 
  1209.81,886.291 1211.54,502.605 1213.27,502.605 1215,417.44 1216.74,417.44 1218.47,464.941 1220.2,387.425 1221.93,393.432 1223.66,564.433 1225.39,269.778 
  1227.13,465.972 1228.86,522.889 1230.59,506.623 1232.32,404.217 1234.05,389.844 1235.79,369.574 1237.52,277.158 1239.25,335.212 1240.98,179.363 1242.71,249.858 
  1244.45,241.458 1246.18,104.218 1247.91,255.666 1249.64,255.666 1251.37,214.134 1253.11,321.029 1254.84,297.474 1256.57,214.197 1258.3,148.676 1260.03,253.855 
  1261.77,272.717 1263.5,376.454 1265.23,474.648 1266.96,496.946 1268.69,452.836 1270.43,695.163 1272.16,513.726 1273.89,659.446 1275.62,454.687 1277.35,583.324 
  1279.08,628.416 1280.82,607.02 1282.55,535.717 1284.28,427.995 1286.01,450.226 1287.74,450.226 1289.48,863.495 1291.21,563.743 1292.94,620.998 1294.67,611.392 
  1296.4,749.98 1298.14,479.691 1299.87,489.113 1301.6,489.113 1303.33,617.775 1305.06,468.095 1306.8,535.264 1308.53,454.486 1310.26,470.975 1311.99,431.916 
  1313.72,424.988 1315.46,672.048 1317.19,443.657 1318.92,345.242 1320.65,273.992 1322.38,326.871 1324.12,327.392 1325.85,233.401 1327.58,201.912 1329.31,305.468 
  1331.04,388.116 1332.77,444.768 1334.51,544.148 1336.24,166.312 1337.97,712.187 1339.7,779.481 1341.43,469.864 1343.17,517.384 1344.9,493.366 1346.63,426.818 
  1348.36,749.502 1350.09,431.613 1351.83,431.613 1353.56,471.714 1355.29,325.133 1357.02,325.133 1358.75,304.674 1360.49,480.995 1362.22,532.143 1363.95,532.143 
  1365.68,428.522 1367.41,784.675 1369.15,483.274 1370.88,335.996 1372.61,224.063 1374.34,320.584 1376.07,469.95 1377.81,382.149 1379.54,327.119 1381.27,455.487 
  1383,455.487 1384.73,208.667 1386.46,372.713 1388.2,372.713 1389.93,377.503 1391.66,244.164 1393.39,120.056 1395.12,170.535 1396.86,306.253 1398.59,316.92 
  1400.32,227.264 1402.05,627.87 1403.78,484.975 1405.52,484.975 1407.25,354.904 1408.98,245.869 1410.71,563.376 1412.44,189.148 1414.18,322.73 1415.91,187.498 
  1417.64,697.947 1419.37,697.947 1421.1,539.618 1422.84,539.618 1424.57,619.442 1426.3,262.871 1428.03,246.052 1429.76,374.288 1431.5,479.413 1433.23,513.586 
  1434.96,419.042 1436.69,324.98 1438.42,396.96 1440.15,449.566 1441.89,431.021 1443.62,431.021 1445.35,607.083 1447.08,219.769 1448.81,349.364 1450.55,349.364 
  1452.28,349.364 1454.01,356.736 1455.74,275.347 1457.47,389.733 1459.21,306.732 1460.94,248.599 1462.67,283.39 1464.4,221.016 1466.13,226.888 1467.87,137.935 
  1469.6,777.472 1471.33,469.192 1473.06,561.635 1474.79,545.935 1476.53,474.446 1478.26,507.377 1479.99,423.368 1481.72,423.368 1483.45,357.494 1485.19,266.613 
  1486.92,402.849 1488.65,399.947 1490.38,677.402 1492.11,526.664 1493.84,511.335 1495.58,678.744 1497.31,425.857 1499.04,425.857 1500.77,463.381 1502.5,530.88 
  1504.24,530.88 1505.97,281.732 1507.7,281.732 1509.43,350.109 1511.16,191.622 1512.9,342.806 1514.63,279.78 1516.36,273.775 1518.09,315.904 1519.82,243.712 
  1521.56,280.996 1523.29,357.045 1525.02,184.732 1526.75,676.367 1528.48,451.687 1530.22,443.157 1531.95,336.825 1533.68,480.571 1535.41,507.394 1537.14,405.87 
  1538.88,648.482 1540.61,431.481 1542.34,431.481 1544.07,490.324 1545.8,490.324 1547.53,466.506 1549.27,509.654 1551,512.643 1552.73,569.042 1554.46,603.911 
  1556.19,601.725 1557.93,239.538 1559.66,623.085 1561.39,603.886 1563.12,436.42 1564.85,436.42 1566.59,407.751 1568.32,818.869 1570.05,552.588 1571.78,236.253 
  1573.51,663.791 1575.25,602.611 1576.98,557.929 1578.71,287.912 1580.44,366.935 1582.17,396.289 1583.91,545.262 1585.64,545.262 1587.37,537.154 1589.1,522.174 
  1590.83,535.398 1592.57,597.08 1594.3,597.08 1596.03,417.936 1597.76,317.437 1599.49,241.576 1601.22,346.062 1602.96,510.974 1604.69,549.111 1606.42,550.797 
  1608.15,541.22 1609.88,541.22 1611.62,630.252 1613.35,459.137 1615.08,366.109 1616.81,275.567 1618.54,390.295 1620.28,349.207 1622.01,272.991 1623.74,285.603 
  1625.47,202.72 1627.2,249.297 1628.94,563.984 1630.67,472.864 1632.4,258.014 1634.13,99.5015 1635.86,225.258 1637.6,242.454 1639.33,167.497 1641.06,746.678 
  1642.79,436.386 1644.52,742.125 1646.26,630.34 1647.99,559.069 1649.72,483.58 1651.45,450.269 1653.18,391.944 1654.91,375.993 1656.65,269.861 1658.38,611.08 
  1660.11,441.213 1661.84,426.599 1663.57,397.99 1665.31,447.399 1667.04,508.678 1668.77,317.661 1670.5,360.533 1672.23,481.371 1673.97,839.279 1675.7,471.332 
  1677.43,373.039 1679.16,418.443 1680.89,480.051 1682.63,480.051 1684.36,675.127 1686.09,598.347 1687.82,279.95 1689.55,236.576 1691.29,275.847 1693.02,305.975 
  1694.75,334.215 1696.48,301.469 1698.21,485.114 1699.95,345.573 1701.68,398.881 1703.41,270.795 1705.14,374.188 1706.87,317.544 1708.6,260.621 1710.34,148.045 
  1712.07,188.836 1713.8,220.375 1715.53,684.647 1717.26,401.963 1719,401.963 1720.73,269.994 1722.46,339.097 1724.19,370.273 1725.92,274.834 1727.66,274.834 
  1729.39,254.339 1731.12,254.339 1732.85,606.64 1734.58,447.357 1736.32,648.924 1738.05,648.924 1739.78,648.924 1741.51,625.783 1743.24,592.521 1744.98,592.521 
  1746.71,536.062 1748.44,721.781 1750.17,639.312 1751.9,657.71 1753.64,571.278 1755.37,574.163 1757.1,405.578 1758.83,257.881 1760.56,224.061 1762.29,303.976 
  1764.03,550.058 1765.76,736.182 1767.49,724.28 1769.22,724.28 1770.95,392.793 1772.69,86.9997 1774.42,133.73 1776.15,428.846 1777.88,428.846 1779.61,428.846 
  1781.35,526.361 1783.08,481.302 1784.81,481.302 1786.54,451.544 1788.27,553.061 1790.01,444.547 1791.74,591.252 1793.47,591.252 1795.2,323.737 1796.93,323.737 
  1798.67,386.766 1800.4,389.232 1802.13,691.053 1803.86,790.477 1805.59,367.857 1807.33,393.258 1809.06,310.021 1810.79,551.151 1812.52,713.027 1814.25,418.023 
  1815.98,430.285 1817.72,430.285 1819.45,430.285 1821.18,430.285 1822.91,305.454 1824.64,395.767 1826.38,768.911 1828.11,561.634 1829.84,603.292 1831.57,668.447 
  1833.3,229.175 1835.04,318.853 1836.77,481.577 1838.5,736.108 1840.23,502.39 1841.96,530.798 1843.7,319.523 1845.43,288.518 1847.16,580.065 1848.89,552.273 
  1850.62,313.139 1852.36,302.41 1854.09,323.812 1855.82,271.379 1857.55,589.695 1859.28,589.695 1861.02,440.895 1862.75,422.633 1864.48,422.633 1866.21,396.95 
  1867.94,379.813 1869.67,451.022 1871.41,423.585 1873.14,622.812 1874.87,451.148 1876.6,504.059 1878.33,328.767 1880.07,263.182 1881.8,334.316 1883.53,406.953 
  1885.26,418.876 1886.99,379.705 1888.73,379.705 1890.46,425.077 1892.19,629.72 1893.92,252.435 1895.65,377.946 1897.39,434.715 1899.12,434.715 1900.85,434.715 
  
  "/>
<path clip-path="url(#clip010)" d="
M2118.74 911.26 L3952.76 911.26 L3952.76 62.9921 L2118.74 62.9921  Z
  " fill="#ffffff" fill-rule="evenodd" fill-opacity="1"/>
<defs>
  <clipPath id="clip013">
    <rect x="2118" y="62" width="1835" height="849"/>
  </clipPath>
</defs>
<polyline clip-path="url(#clip013)" style="stroke:#000000; stroke-width:2; stroke-opacity:0.1; fill:none" points="
  2392.31,911.26 2392.31,62.9921 
  "/>
<polyline clip-path="url(#clip013)" style="stroke:#000000; stroke-width:2; stroke-opacity:0.1; fill:none" points="
  2734.41,911.26 2734.41,62.9921 
  "/>
<polyline clip-path="url(#clip013)" style="stroke:#000000; stroke-width:2; stroke-opacity:0.1; fill:none" points="
  3076.52,911.26 3076.52,62.9921 
  "/>
<polyline clip-path="url(#clip013)" style="stroke:#000000; stroke-width:2; stroke-opacity:0.1; fill:none" points="
  3418.62,911.26 3418.62,62.9921 
  "/>
<polyline clip-path="url(#clip013)" style="stroke:#000000; stroke-width:2; stroke-opacity:0.1; fill:none" points="
  3760.73,911.26 3760.73,62.9921 
  "/>
<polyline clip-path="url(#clip010)" style="stroke:#000000; stroke-width:4; stroke-opacity:1; fill:none" points="
  2118.74,911.26 3952.76,911.26 
  "/>
<polyline clip-path="url(#clip010)" style="stroke:#000000; stroke-width:4; stroke-opacity:1; fill:none" points="
  2392.31,911.26 2392.31,901.081 
  "/>
<polyline clip-path="url(#clip010)" style="stroke:#000000; stroke-width:4; stroke-opacity:1; fill:none" points="
  2734.41,911.26 2734.41,901.081 
  "/>
<polyline clip-path="url(#clip010)" style="stroke:#000000; stroke-width:4; stroke-opacity:1; fill:none" points="
  3076.52,911.26 3076.52,901.081 
  "/>
<polyline clip-path="url(#clip010)" style="stroke:#000000; stroke-width:4; stroke-opacity:1; fill:none" points="
  3418.62,911.26 3418.62,901.081 
  "/>
<polyline clip-path="url(#clip010)" style="stroke:#000000; stroke-width:4; stroke-opacity:1; fill:none" points="
  3760.73,911.26 3760.73,901.081 
  "/>
<path clip-path="url(#clip010)" d="M 0 0 M2374.62 953.251 Q2371.01 953.251 2369.18 956.815 Q2367.38 960.357 2367.38 967.487 Q2367.38 974.593 2369.18 978.158 Q2371.01 981.699 2374.62 981.699 Q2378.26 981.699 2380.06 978.158 Q2381.89 974.593 2381.89 967.487 Q2381.89 960.357 2380.06 956.815 Q2378.26 953.251 2374.62 953.251 M2374.62 949.547 Q2380.43 949.547 2383.49 954.153 Q2386.57 958.737 2386.57 967.487 Q2386.57 976.213 2383.49 980.82 Q2380.43 985.403 2374.62 985.403 Q2368.81 985.403 2365.73 980.82 Q2362.68 976.213 2362.68 967.487 Q2362.68 958.737 2365.73 954.153 Q2368.81 949.547 2374.62 949.547 Z" fill="#000000" fill-rule="evenodd" fill-opacity="1" /><path clip-path="url(#clip010)" d="M 0 0 M2391.64 978.852 L2396.52 978.852 L2396.52 984.732 L2391.64 984.732 L2391.64 978.852 Z" fill="#000000" fill-rule="evenodd" fill-opacity="1" /><path clip-path="url(#clip010)" d="M 0 0 M2405.62 980.797 L2421.94 980.797 L2421.94 984.732 L2399.99 984.732 L2399.99 980.797 Q2402.66 978.042 2407.24 973.412 Q2411.85 968.76 2413.03 967.417 Q2415.27 964.894 2416.15 963.158 Q2417.05 961.399 2417.05 959.709 Q2417.05 956.954 2415.11 955.218 Q2413.19 953.482 2410.09 953.482 Q2407.89 953.482 2405.43 954.246 Q2403 955.01 2400.22 956.561 L2400.22 951.839 Q2403.05 950.704 2405.5 950.126 Q2407.96 949.547 2409.99 949.547 Q2415.36 949.547 2418.56 952.232 Q2421.75 954.917 2421.75 959.408 Q2421.75 961.538 2420.94 963.459 Q2420.16 965.357 2418.05 967.95 Q2417.47 968.621 2414.37 971.838 Q2411.27 975.033 2405.62 980.797 Z" fill="#000000" fill-rule="evenodd" fill-opacity="1" /><path clip-path="url(#clip010)" d="M 0 0 M2715.69 953.251 Q2712.08 953.251 2710.25 956.815 Q2708.44 960.357 2708.44 967.487 Q2708.44 974.593 2710.25 978.158 Q2712.08 981.699 2715.69 981.699 Q2719.32 981.699 2721.13 978.158 Q2722.95 974.593 2722.95 967.487 Q2722.95 960.357 2721.13 956.815 Q2719.32 953.251 2715.69 953.251 M2715.69 949.547 Q2721.5 949.547 2724.55 954.153 Q2727.63 958.737 2727.63 967.487 Q2727.63 976.213 2724.55 980.82 Q2721.5 985.403 2715.69 985.403 Q2709.88 985.403 2706.8 980.82 Q2703.74 976.213 2703.74 967.487 Q2703.74 958.737 2706.8 954.153 Q2709.88 949.547 2715.69 949.547 Z" fill="#000000" fill-rule="evenodd" fill-opacity="1" /><path clip-path="url(#clip010)" d="M 0 0 M2732.7 978.852 L2737.58 978.852 L2737.58 984.732 L2732.7 984.732 L2732.7 978.852 Z" fill="#000000" fill-rule="evenodd" fill-opacity="1" /><path clip-path="url(#clip010)" d="M 0 0 M2755.5 954.246 L2743.7 972.695 L2755.5 972.695 L2755.5 954.246 M2754.27 950.172 L2760.15 950.172 L2760.15 972.695 L2765.08 972.695 L2765.08 976.584 L2760.15 976.584 L2760.15 984.732 L2755.5 984.732 L2755.5 976.584 L2739.9 976.584 L2739.9 972.07 L2754.27 950.172 Z" fill="#000000" fill-rule="evenodd" fill-opacity="1" /><path clip-path="url(#clip010)" d="M 0 0 M3057.95 953.251 Q3054.34 953.251 3052.51 956.815 Q3050.71 960.357 3050.71 967.487 Q3050.71 974.593 3052.51 978.158 Q3054.34 981.699 3057.95 981.699 Q3061.59 981.699 3063.39 978.158 Q3065.22 974.593 3065.22 967.487 Q3065.22 960.357 3063.39 956.815 Q3061.59 953.251 3057.95 953.251 M3057.95 949.547 Q3063.76 949.547 3066.82 954.153 Q3069.9 958.737 3069.9 967.487 Q3069.9 976.213 3066.82 980.82 Q3063.76 985.403 3057.95 985.403 Q3052.14 985.403 3049.06 980.82 Q3046.01 976.213 3046.01 967.487 Q3046.01 958.737 3049.06 954.153 Q3052.14 949.547 3057.95 949.547 Z" fill="#000000" fill-rule="evenodd" fill-opacity="1" /><path clip-path="url(#clip010)" d="M 0 0 M3074.97 978.852 L3079.85 978.852 L3079.85 984.732 L3074.97 984.732 L3074.97 978.852 Z" fill="#000000" fill-rule="evenodd" fill-opacity="1" /><path clip-path="url(#clip010)" d="M 0 0 M3095.5 965.588 Q3092.35 965.588 3090.5 967.741 Q3088.67 969.894 3088.67 973.644 Q3088.67 977.371 3090.5 979.547 Q3092.35 981.699 3095.5 981.699 Q3098.65 981.699 3100.48 979.547 Q3102.33 977.371 3102.33 973.644 Q3102.33 969.894 3100.48 967.741 Q3098.65 965.588 3095.5 965.588 M3104.78 950.936 L3104.78 955.195 Q3103.02 954.362 3101.22 953.922 Q3099.43 953.482 3097.68 953.482 Q3093.05 953.482 3090.59 956.607 Q3088.16 959.732 3087.81 966.051 Q3089.18 964.038 3091.24 962.973 Q3093.3 961.885 3095.78 961.885 Q3100.99 961.885 3103.99 965.056 Q3107.03 968.204 3107.03 973.644 Q3107.03 978.968 3103.88 982.186 Q3100.73 985.403 3095.5 985.403 Q3089.5 985.403 3086.33 980.82 Q3083.16 976.213 3083.16 967.487 Q3083.16 959.292 3087.05 954.431 Q3090.94 949.547 3097.49 949.547 Q3099.25 949.547 3101.03 949.894 Q3102.84 950.241 3104.78 950.936 Z" fill="#000000" fill-rule="evenodd" fill-opacity="1" /><path clip-path="url(#clip010)" d="M 0 0 M3400.19 953.251 Q3396.57 953.251 3394.75 956.815 Q3392.94 960.357 3392.94 967.487 Q3392.94 974.593 3394.75 978.158 Q3396.57 981.699 3400.19 981.699 Q3403.82 981.699 3405.63 978.158 Q3407.45 974.593 3407.45 967.487 Q3407.45 960.357 3405.63 956.815 Q3403.82 953.251 3400.19 953.251 M3400.19 949.547 Q3406 949.547 3409.05 954.153 Q3412.13 958.737 3412.13 967.487 Q3412.13 976.213 3409.05 980.82 Q3406 985.403 3400.19 985.403 Q3394.38 985.403 3391.3 980.82 Q3388.24 976.213 3388.24 967.487 Q3388.24 958.737 3391.3 954.153 Q3394.38 949.547 3400.19 949.547 Z" fill="#000000" fill-rule="evenodd" fill-opacity="1" /><path clip-path="url(#clip010)" d="M 0 0 M3417.2 978.852 L3422.08 978.852 L3422.08 984.732 L3417.2 984.732 L3417.2 978.852 Z" fill="#000000" fill-rule="evenodd" fill-opacity="1" /><path clip-path="url(#clip010)" d="M 0 0 M3437.15 968.32 Q3433.82 968.32 3431.9 970.102 Q3430 971.885 3430 975.01 Q3430 978.135 3431.9 979.917 Q3433.82 981.699 3437.15 981.699 Q3440.49 981.699 3442.41 979.917 Q3444.33 978.112 3444.33 975.01 Q3444.33 971.885 3442.41 970.102 Q3440.51 968.32 3437.15 968.32 M3432.48 966.329 Q3429.47 965.588 3427.78 963.528 Q3426.11 961.468 3426.11 958.505 Q3426.11 954.362 3429.05 951.954 Q3432.01 949.547 3437.15 949.547 Q3442.32 949.547 3445.25 951.954 Q3448.19 954.362 3448.19 958.505 Q3448.19 961.468 3446.5 963.528 Q3444.84 965.588 3441.85 966.329 Q3445.23 967.116 3447.11 969.408 Q3449 971.7 3449 975.01 Q3449 980.033 3445.93 982.718 Q3442.87 985.403 3437.15 985.403 Q3431.44 985.403 3428.36 982.718 Q3425.3 980.033 3425.3 975.01 Q3425.3 971.7 3427.2 969.408 Q3429.1 967.116 3432.48 966.329 M3430.76 958.945 Q3430.76 961.63 3432.43 963.135 Q3434.12 964.639 3437.15 964.639 Q3440.16 964.639 3441.85 963.135 Q3443.57 961.63 3443.57 958.945 Q3443.57 956.26 3441.85 954.755 Q3440.16 953.251 3437.15 953.251 Q3434.12 953.251 3432.43 954.755 Q3430.76 956.26 3430.76 958.945 Z" fill="#000000" fill-rule="evenodd" fill-opacity="1" /><path clip-path="url(#clip010)" d="M 0 0 M3732.63 980.797 L3740.27 980.797 L3740.27 954.431 L3731.96 956.098 L3731.96 951.839 L3740.22 950.172 L3744.89 950.172 L3744.89 980.797 L3752.53 980.797 L3752.53 984.732 L3732.63 984.732 L3732.63 980.797 Z" fill="#000000" fill-rule="evenodd" fill-opacity="1" /><path clip-path="url(#clip010)" d="M 0 0 M3757.6 978.852 L3762.49 978.852 L3762.49 984.732 L3757.6 984.732 L3757.6 978.852 Z" fill="#000000" fill-rule="evenodd" fill-opacity="1" /><path clip-path="url(#clip010)" d="M 0 0 M3777.56 953.251 Q3773.95 953.251 3772.12 956.815 Q3770.31 960.357 3770.31 967.487 Q3770.31 974.593 3772.12 978.158 Q3773.95 981.699 3777.56 981.699 Q3781.19 981.699 3783 978.158 Q3784.83 974.593 3784.83 967.487 Q3784.83 960.357 3783 956.815 Q3781.19 953.251 3777.56 953.251 M3777.56 949.547 Q3783.37 949.547 3786.42 954.153 Q3789.5 958.737 3789.5 967.487 Q3789.5 976.213 3786.42 980.82 Q3783.37 985.403 3777.56 985.403 Q3771.75 985.403 3768.67 980.82 Q3765.61 976.213 3765.61 967.487 Q3765.61 958.737 3768.67 954.153 Q3771.75 949.547 3777.56 949.547 Z" fill="#000000" fill-rule="evenodd" fill-opacity="1" /><path clip-path="url(#clip010)" d="M 0 0 M2872.69 1014.16 L2872.69 1020.43 Q2869.03 1018.68 2865.78 1017.82 Q2862.54 1016.96 2859.51 1016.96 Q2854.26 1016.96 2851.4 1019 Q2848.56 1021.04 2848.56 1024.79 Q2848.56 1027.95 2850.44 1029.57 Q2852.35 1031.16 2857.64 1032.15 L2861.52 1032.94 Q2868.71 1034.31 2872.12 1037.78 Q2875.56 1041.22 2875.56 1047.01 Q2875.56 1053.92 2870.91 1057.48 Q2866.29 1061.05 2857.35 1061.05 Q2853.98 1061.05 2850.16 1060.28 Q2846.37 1059.52 2842.29 1058.02 L2842.29 1051.4 Q2846.21 1053.6 2849.96 1054.71 Q2853.72 1055.83 2857.35 1055.83 Q2862.86 1055.83 2865.85 1053.66 Q2868.84 1051.5 2868.84 1047.49 Q2868.84 1043.99 2866.67 1042.01 Q2864.54 1040.04 2859.64 1039.05 L2855.73 1038.29 Q2848.53 1036.86 2845.32 1033.8 Q2842.1 1030.75 2842.1 1025.3 Q2842.1 1019 2846.53 1015.37 Q2850.98 1011.74 2858.78 1011.74 Q2862.12 1011.74 2865.59 1012.35 Q2869.06 1012.95 2872.69 1014.16 Z" fill="#000000" fill-rule="evenodd" fill-opacity="1" /><path clip-path="url(#clip010)" d="M 0 0 M2897.9 1042.2 Q2890.8 1042.2 2888.06 1043.83 Q2885.33 1045.45 2885.33 1049.37 Q2885.33 1052.48 2887.36 1054.33 Q2889.43 1056.15 2892.97 1056.15 Q2897.83 1056.15 2900.76 1052.71 Q2903.72 1049.24 2903.72 1043.51 L2903.72 1042.2 L2897.9 1042.2 M2909.58 1039.79 L2909.58 1060.12 L2903.72 1060.12 L2903.72 1054.71 Q2901.72 1057.96 2898.73 1059.52 Q2895.73 1061.05 2891.41 1061.05 Q2885.93 1061.05 2882.68 1057.99 Q2879.47 1054.9 2879.47 1049.75 Q2879.47 1043.73 2883.48 1040.68 Q2887.52 1037.62 2895.51 1037.62 L2903.72 1037.62 L2903.72 1037.05 Q2903.72 1033.01 2901.05 1030.81 Q2898.41 1028.58 2893.6 1028.58 Q2890.55 1028.58 2887.65 1029.31 Q2884.75 1030.05 2882.08 1031.51 L2882.08 1026.1 Q2885.29 1024.86 2888.32 1024.25 Q2891.34 1023.62 2894.21 1023.62 Q2901.94 1023.62 2905.76 1027.63 Q2909.58 1031.64 2909.58 1039.79 Z" fill="#000000" fill-rule="evenodd" fill-opacity="1" /><path clip-path="url(#clip010)" d="M 0 0 M2943.48 1031.32 Q2945.67 1027.37 2948.73 1025.49 Q2951.78 1023.62 2955.92 1023.62 Q2961.49 1023.62 2964.52 1027.53 Q2967.54 1031.41 2967.54 1038.61 L2967.54 1060.12 L2961.65 1060.12 L2961.65 1038.8 Q2961.65 1033.67 2959.84 1031.19 Q2958.02 1028.71 2954.3 1028.71 Q2949.75 1028.71 2947.11 1031.73 Q2944.46 1034.76 2944.46 1039.98 L2944.46 1060.12 L2938.58 1060.12 L2938.58 1038.8 Q2938.58 1033.64 2936.76 1031.19 Q2934.95 1028.71 2931.16 1028.71 Q2926.67 1028.71 2924.03 1031.76 Q2921.39 1034.79 2921.39 1039.98 L2921.39 1060.12 L2915.5 1060.12 L2915.5 1024.48 L2921.39 1024.48 L2921.39 1030.01 Q2923.39 1026.74 2926.19 1025.18 Q2929 1023.62 2932.85 1023.62 Q2936.73 1023.62 2939.43 1025.59 Q2942.17 1027.56 2943.48 1031.32 Z" fill="#000000" fill-rule="evenodd" fill-opacity="1" /><path clip-path="url(#clip010)" d="M 0 0 M2979.35 1054.78 L2979.35 1073.68 L2973.46 1073.68 L2973.46 1024.48 L2979.35 1024.48 L2979.35 1029.89 Q2981.19 1026.7 2983.99 1025.18 Q2986.83 1023.62 2990.74 1023.62 Q2997.24 1023.62 3001.28 1028.77 Q3005.35 1033.93 3005.35 1042.33 Q3005.35 1050.73 3001.28 1055.89 Q2997.24 1061.05 2990.74 1061.05 Q2986.83 1061.05 2983.99 1059.52 Q2981.19 1057.96 2979.35 1054.78 M2999.27 1042.33 Q2999.27 1035.87 2996.6 1032.21 Q2993.96 1028.52 2989.31 1028.52 Q2984.66 1028.52 2981.99 1032.21 Q2979.35 1035.87 2979.35 1042.33 Q2979.35 1048.79 2981.99 1052.48 Q2984.66 1056.15 2989.31 1056.15 Q2993.96 1056.15 2996.6 1052.48 Q2999.27 1048.79 2999.27 1042.33 Z" fill="#000000" fill-rule="evenodd" fill-opacity="1" /><path clip-path="url(#clip010)" d="M 0 0 M3011.49 1010.6 L3017.35 1010.6 L3017.35 1060.12 L3011.49 1060.12 L3011.49 1010.6 Z" fill="#000000" fill-rule="evenodd" fill-opacity="1" /><path clip-path="url(#clip010)" d="M 0 0 M3053.99 1040.84 L3053.99 1043.7 L3027.06 1043.7 Q3027.44 1049.75 3030.69 1052.93 Q3033.97 1056.08 3039.79 1056.08 Q3043.16 1056.08 3046.32 1055.25 Q3049.5 1054.43 3052.62 1052.77 L3052.62 1058.31 Q3049.47 1059.65 3046.16 1060.35 Q3042.85 1061.05 3039.44 1061.05 Q3030.91 1061.05 3025.91 1056.08 Q3020.95 1051.12 3020.95 1042.65 Q3020.95 1033.9 3025.66 1028.77 Q3030.4 1023.62 3038.42 1023.62 Q3045.61 1023.62 3049.78 1028.26 Q3053.99 1032.88 3053.99 1040.84 M3048.13 1039.12 Q3048.07 1034.31 3045.42 1031.45 Q3042.81 1028.58 3038.49 1028.58 Q3033.58 1028.58 3030.62 1031.35 Q3027.7 1034.12 3027.25 1039.15 L3048.13 1039.12 Z" fill="#000000" fill-rule="evenodd" fill-opacity="1" /><path clip-path="url(#clip010)" d="M 0 0 M3076.65 1024.48 L3082.85 1024.48 L3093.99 1054.39 L3105.13 1024.48 L3111.34 1024.48 L3097.97 1060.12 L3090.02 1060.12 L3076.65 1024.48 Z" fill="#000000" fill-rule="evenodd" fill-opacity="1" /><path clip-path="url(#clip010)" d="M 0 0 M3133.68 1042.2 Q3126.59 1042.2 3123.85 1043.83 Q3121.11 1045.45 3121.11 1049.37 Q3121.11 1052.48 3123.15 1054.33 Q3125.22 1056.15 3128.75 1056.15 Q3133.62 1056.15 3136.55 1052.71 Q3139.51 1049.24 3139.51 1043.51 L3139.51 1042.2 L3133.68 1042.2 M3145.37 1039.79 L3145.37 1060.12 L3139.51 1060.12 L3139.51 1054.71 Q3137.5 1057.96 3134.51 1059.52 Q3131.52 1061.05 3127.19 1061.05 Q3121.72 1061.05 3118.47 1057.99 Q3115.26 1054.9 3115.26 1049.75 Q3115.26 1043.73 3119.27 1040.68 Q3123.31 1037.62 3131.3 1037.62 L3139.51 1037.62 L3139.51 1037.05 Q3139.51 1033.01 3136.84 1030.81 Q3134.19 1028.58 3129.39 1028.58 Q3126.33 1028.58 3123.44 1029.31 Q3120.54 1030.05 3117.87 1031.51 L3117.87 1026.1 Q3121.08 1024.86 3124.1 1024.25 Q3127.13 1023.62 3129.99 1023.62 Q3137.73 1023.62 3141.55 1027.63 Q3145.37 1031.64 3145.37 1039.79 Z" fill="#000000" fill-rule="evenodd" fill-opacity="1" /><path clip-path="url(#clip010)" d="M 0 0 M3151.51 1010.6 L3157.36 1010.6 L3157.36 1060.12 L3151.51 1060.12 L3151.51 1010.6 Z" fill="#000000" fill-rule="evenodd" fill-opacity="1" /><path clip-path="url(#clip010)" d="M 0 0 M3162.9 1046.06 L3162.9 1024.48 L3168.76 1024.48 L3168.76 1045.83 Q3168.76 1050.89 3170.73 1053.44 Q3172.71 1055.95 3176.65 1055.95 Q3181.4 1055.95 3184.13 1052.93 Q3186.9 1049.91 3186.9 1044.69 L3186.9 1024.48 L3192.76 1024.48 L3192.76 1060.12 L3186.9 1060.12 L3186.9 1054.65 Q3184.77 1057.9 3181.94 1059.49 Q3179.14 1061.05 3175.41 1061.05 Q3169.27 1061.05 3166.09 1057.23 Q3162.9 1053.41 3162.9 1046.06 M3177.64 1023.62 L3177.64 1023.62 Z" fill="#000000" fill-rule="evenodd" fill-opacity="1" /><path clip-path="url(#clip010)" d="M 0 0 M3229.39 1040.84 L3229.39 1043.7 L3202.47 1043.7 Q3202.85 1049.75 3206.09 1052.93 Q3209.37 1056.08 3215.2 1056.08 Q3218.57 1056.08 3221.72 1055.25 Q3224.91 1054.43 3228.02 1052.77 L3228.02 1058.31 Q3224.87 1059.65 3221.56 1060.35 Q3218.25 1061.05 3214.85 1061.05 Q3206.32 1061.05 3201.32 1056.08 Q3196.35 1051.12 3196.35 1042.65 Q3196.35 1033.9 3201.07 1028.77 Q3205.81 1023.62 3213.83 1023.62 Q3221.02 1023.62 3225.19 1028.26 Q3229.39 1032.88 3229.39 1040.84 M3223.54 1039.12 Q3223.47 1034.31 3220.83 1031.45 Q3218.22 1028.58 3213.89 1028.58 Q3208.99 1028.58 3206.03 1031.35 Q3203.1 1034.12 3202.66 1039.15 L3223.54 1039.12 Z" fill="#000000" fill-rule="evenodd" fill-opacity="1" /><polyline clip-path="url(#clip013)" style="stroke:#000000; stroke-width:2; stroke-opacity:0.1; fill:none" points="
  2118.74,887.256 3952.76,887.256 
  "/>
<polyline clip-path="url(#clip013)" style="stroke:#000000; stroke-width:2; stroke-opacity:0.1; fill:none" points="
  2118.74,736.516 3952.76,736.516 
  "/>
<polyline clip-path="url(#clip013)" style="stroke:#000000; stroke-width:2; stroke-opacity:0.1; fill:none" points="
  2118.74,585.777 3952.76,585.777 
  "/>
<polyline clip-path="url(#clip013)" style="stroke:#000000; stroke-width:2; stroke-opacity:0.1; fill:none" points="
  2118.74,435.037 3952.76,435.037 
  "/>
<polyline clip-path="url(#clip013)" style="stroke:#000000; stroke-width:2; stroke-opacity:0.1; fill:none" points="
  2118.74,284.297 3952.76,284.297 
  "/>
<polyline clip-path="url(#clip013)" style="stroke:#000000; stroke-width:2; stroke-opacity:0.1; fill:none" points="
  2118.74,133.557 3952.76,133.557 
  "/>
<polyline clip-path="url(#clip010)" style="stroke:#000000; stroke-width:4; stroke-opacity:1; fill:none" points="
  2118.74,911.26 2118.74,62.9921 
  "/>
<polyline clip-path="url(#clip010)" style="stroke:#000000; stroke-width:4; stroke-opacity:1; fill:none" points="
  2118.74,887.256 2140.75,887.256 
  "/>
<polyline clip-path="url(#clip010)" style="stroke:#000000; stroke-width:4; stroke-opacity:1; fill:none" points="
  2118.74,736.516 2140.75,736.516 
  "/>
<polyline clip-path="url(#clip010)" style="stroke:#000000; stroke-width:4; stroke-opacity:1; fill:none" points="
  2118.74,585.777 2140.75,585.777 
  "/>
<polyline clip-path="url(#clip010)" style="stroke:#000000; stroke-width:4; stroke-opacity:1; fill:none" points="
  2118.74,435.037 2140.75,435.037 
  "/>
<polyline clip-path="url(#clip010)" style="stroke:#000000; stroke-width:4; stroke-opacity:1; fill:none" points="
  2118.74,284.297 2140.75,284.297 
  "/>
<polyline clip-path="url(#clip010)" style="stroke:#000000; stroke-width:4; stroke-opacity:1; fill:none" points="
  2118.74,133.557 2140.75,133.557 
  "/>
<path clip-path="url(#clip010)" d="M 0 0 M2009.83 873.055 Q2006.22 873.055 2004.39 876.62 Q2002.58 880.161 2002.58 887.291 Q2002.58 894.397 2004.39 897.962 Q2006.22 901.504 2009.83 901.504 Q2013.46 901.504 2015.27 897.962 Q2017.1 894.397 2017.1 887.291 Q2017.1 880.161 2015.27 876.62 Q2013.46 873.055 2009.83 873.055 M2009.83 869.351 Q2015.64 869.351 2018.69 873.958 Q2021.77 878.541 2021.77 887.291 Q2021.77 896.018 2018.69 900.624 Q2015.64 905.208 2009.83 905.208 Q2004.02 905.208 2000.94 900.624 Q1997.88 896.018 1997.88 887.291 Q1997.88 878.541 2000.94 873.958 Q2004.02 869.351 2009.83 869.351 Z" fill="#000000" fill-rule="evenodd" fill-opacity="1" /><path clip-path="url(#clip010)" d="M 0 0 M2026.84 898.657 L2031.73 898.657 L2031.73 904.536 L2026.84 904.536 L2026.84 898.657 Z" fill="#000000" fill-rule="evenodd" fill-opacity="1" /><path clip-path="url(#clip010)" d="M 0 0 M2046.8 873.055 Q2043.18 873.055 2041.36 876.62 Q2039.55 880.161 2039.55 887.291 Q2039.55 894.397 2041.36 897.962 Q2043.18 901.504 2046.8 901.504 Q2050.43 901.504 2052.24 897.962 Q2054.06 894.397 2054.06 887.291 Q2054.06 880.161 2052.24 876.62 Q2050.43 873.055 2046.8 873.055 M2046.8 869.351 Q2052.61 869.351 2055.66 873.958 Q2058.74 878.541 2058.74 887.291 Q2058.74 896.018 2055.66 900.624 Q2052.61 905.208 2046.8 905.208 Q2040.99 905.208 2037.91 900.624 Q2034.85 896.018 2034.85 887.291 Q2034.85 878.541 2037.91 873.958 Q2040.99 869.351 2046.8 869.351 Z" fill="#000000" fill-rule="evenodd" fill-opacity="1" /><path clip-path="url(#clip010)" d="M 0 0 M2010.82 722.315 Q2007.21 722.315 2005.38 725.88 Q2003.58 729.422 2003.58 736.551 Q2003.58 743.658 2005.38 747.222 Q2007.21 750.764 2010.82 750.764 Q2014.46 750.764 2016.26 747.222 Q2018.09 743.658 2018.09 736.551 Q2018.09 729.422 2016.26 725.88 Q2014.46 722.315 2010.82 722.315 M2010.82 718.611 Q2016.63 718.611 2019.69 723.218 Q2022.77 727.801 2022.77 736.551 Q2022.77 745.278 2019.69 749.884 Q2016.63 754.468 2010.82 754.468 Q2005.01 754.468 2001.93 749.884 Q1998.88 745.278 1998.88 736.551 Q1998.88 727.801 2001.93 723.218 Q2005.01 718.611 2010.82 718.611 Z" fill="#000000" fill-rule="evenodd" fill-opacity="1" /><path clip-path="url(#clip010)" d="M 0 0 M2027.84 747.917 L2032.72 747.917 L2032.72 753.796 L2027.84 753.796 L2027.84 747.917 Z" fill="#000000" fill-rule="evenodd" fill-opacity="1" /><path clip-path="url(#clip010)" d="M 0 0 M2037.84 719.236 L2056.19 719.236 L2056.19 723.172 L2042.12 723.172 L2042.12 731.644 Q2043.14 731.297 2044.16 731.135 Q2045.18 730.949 2046.19 730.949 Q2051.98 730.949 2055.36 734.121 Q2058.74 737.292 2058.74 742.709 Q2058.74 748.287 2055.27 751.389 Q2051.8 754.468 2045.48 754.468 Q2043.3 754.468 2041.03 754.097 Q2038.79 753.727 2036.38 752.986 L2036.38 748.287 Q2038.46 749.421 2040.68 749.977 Q2042.91 750.533 2045.38 750.533 Q2049.39 750.533 2051.73 748.426 Q2054.06 746.32 2054.06 742.709 Q2054.06 739.097 2051.73 736.991 Q2049.39 734.885 2045.38 734.885 Q2043.51 734.885 2041.63 735.301 Q2039.78 735.718 2037.84 736.597 L2037.84 719.236 Z" fill="#000000" fill-rule="evenodd" fill-opacity="1" /><path clip-path="url(#clip010)" d="M 0 0 M2001.87 599.121 L2009.5 599.121 L2009.5 572.756 L2001.19 574.423 L2001.19 570.163 L2009.46 568.497 L2014.13 568.497 L2014.13 599.121 L2021.77 599.121 L2021.77 603.057 L2001.87 603.057 L2001.87 599.121 Z" fill="#000000" fill-rule="evenodd" fill-opacity="1" /><path clip-path="url(#clip010)" d="M 0 0 M2026.84 597.177 L2031.73 597.177 L2031.73 603.057 L2026.84 603.057 L2026.84 597.177 Z" fill="#000000" fill-rule="evenodd" fill-opacity="1" /><path clip-path="url(#clip010)" d="M 0 0 M2046.8 571.575 Q2043.18 571.575 2041.36 575.14 Q2039.55 578.682 2039.55 585.811 Q2039.55 592.918 2041.36 596.483 Q2043.18 600.024 2046.8 600.024 Q2050.43 600.024 2052.24 596.483 Q2054.06 592.918 2054.06 585.811 Q2054.06 578.682 2052.24 575.14 Q2050.43 571.575 2046.8 571.575 M2046.8 567.872 Q2052.61 567.872 2055.66 572.478 Q2058.74 577.061 2058.74 585.811 Q2058.74 594.538 2055.66 599.145 Q2052.61 603.728 2046.8 603.728 Q2040.99 603.728 2037.91 599.145 Q2034.85 594.538 2034.85 585.811 Q2034.85 577.061 2037.91 572.478 Q2040.99 567.872 2046.8 567.872 Z" fill="#000000" fill-rule="evenodd" fill-opacity="1" /><path clip-path="url(#clip010)" d="M 0 0 M2002.86 448.382 L2010.5 448.382 L2010.5 422.016 L2002.19 423.683 L2002.19 419.424 L2010.45 417.757 L2015.13 417.757 L2015.13 448.382 L2022.77 448.382 L2022.77 452.317 L2002.86 452.317 L2002.86 448.382 Z" fill="#000000" fill-rule="evenodd" fill-opacity="1" /><path clip-path="url(#clip010)" d="M 0 0 M2027.84 446.437 L2032.72 446.437 L2032.72 452.317 L2027.84 452.317 L2027.84 446.437 Z" fill="#000000" fill-rule="evenodd" fill-opacity="1" /><path clip-path="url(#clip010)" d="M 0 0 M2037.84 417.757 L2056.19 417.757 L2056.19 421.692 L2042.12 421.692 L2042.12 430.164 Q2043.14 429.817 2044.16 429.655 Q2045.18 429.47 2046.19 429.47 Q2051.98 429.47 2055.36 432.641 Q2058.74 435.812 2058.74 441.229 Q2058.74 446.808 2055.27 449.909 Q2051.8 452.988 2045.48 452.988 Q2043.3 452.988 2041.03 452.618 Q2038.79 452.247 2036.38 451.507 L2036.38 446.808 Q2038.46 447.942 2040.68 448.497 Q2042.91 449.053 2045.38 449.053 Q2049.39 449.053 2051.73 446.947 Q2054.06 444.84 2054.06 441.229 Q2054.06 437.618 2051.73 435.511 Q2049.39 433.405 2045.38 433.405 Q2043.51 433.405 2041.63 433.822 Q2039.78 434.238 2037.84 435.118 L2037.84 417.757 Z" fill="#000000" fill-rule="evenodd" fill-opacity="1" /><path clip-path="url(#clip010)" d="M 0 0 M2005.45 297.642 L2021.77 297.642 L2021.77 301.577 L1999.83 301.577 L1999.83 297.642 Q2002.49 294.887 2007.07 290.258 Q2011.68 285.605 2012.86 284.262 Q2015.11 281.739 2015.99 280.003 Q2016.89 278.244 2016.89 276.554 Q2016.89 273.799 2014.94 272.063 Q2013.02 270.327 2009.92 270.327 Q2007.72 270.327 2005.27 271.091 Q2002.84 271.855 2000.06 273.406 L2000.06 268.684 Q2002.88 267.549 2005.34 266.971 Q2007.79 266.392 2009.83 266.392 Q2015.2 266.392 2018.39 269.077 Q2021.59 271.762 2021.59 276.253 Q2021.59 278.383 2020.78 280.304 Q2019.99 282.202 2017.88 284.795 Q2017.31 285.466 2014.2 288.684 Q2011.1 291.878 2005.45 297.642 Z" fill="#000000" fill-rule="evenodd" fill-opacity="1" /><path clip-path="url(#clip010)" d="M 0 0 M2026.84 295.697 L2031.73 295.697 L2031.73 301.577 L2026.84 301.577 L2026.84 295.697 Z" fill="#000000" fill-rule="evenodd" fill-opacity="1" /><path clip-path="url(#clip010)" d="M 0 0 M2046.8 270.096 Q2043.18 270.096 2041.36 273.661 Q2039.55 277.202 2039.55 284.332 Q2039.55 291.438 2041.36 295.003 Q2043.18 298.545 2046.8 298.545 Q2050.43 298.545 2052.24 295.003 Q2054.06 291.438 2054.06 284.332 Q2054.06 277.202 2052.24 273.661 Q2050.43 270.096 2046.8 270.096 M2046.8 266.392 Q2052.61 266.392 2055.66 270.999 Q2058.74 275.582 2058.74 284.332 Q2058.74 293.059 2055.66 297.665 Q2052.61 302.248 2046.8 302.248 Q2040.99 302.248 2037.91 297.665 Q2034.85 293.059 2034.85 284.332 Q2034.85 275.582 2037.91 270.999 Q2040.99 266.392 2046.8 266.392 Z" fill="#000000" fill-rule="evenodd" fill-opacity="1" /><path clip-path="url(#clip010)" d="M 0 0 M2006.45 146.902 L2022.77 146.902 L2022.77 150.837 L2000.82 150.837 L2000.82 146.902 Q2003.49 144.147 2008.07 139.518 Q2012.68 134.865 2013.86 133.523 Q2016.1 130.999 2016.98 129.263 Q2017.88 127.504 2017.88 125.814 Q2017.88 123.06 2015.94 121.324 Q2014.02 119.587 2010.92 119.587 Q2008.72 119.587 2006.26 120.351 Q2003.83 121.115 2001.06 122.666 L2001.06 117.944 Q2003.88 116.81 2006.33 116.231 Q2008.79 115.652 2010.82 115.652 Q2016.19 115.652 2019.39 118.337 Q2022.58 121.023 2022.58 125.513 Q2022.58 127.643 2021.77 129.564 Q2020.99 131.462 2018.88 134.055 Q2018.3 134.726 2015.2 137.944 Q2012.1 141.138 2006.45 146.902 Z" fill="#000000" fill-rule="evenodd" fill-opacity="1" /><path clip-path="url(#clip010)" d="M 0 0 M2027.84 144.958 L2032.72 144.958 L2032.72 150.837 L2027.84 150.837 L2027.84 144.958 Z" fill="#000000" fill-rule="evenodd" fill-opacity="1" /><path clip-path="url(#clip010)" d="M 0 0 M2037.84 116.277 L2056.19 116.277 L2056.19 120.212 L2042.12 120.212 L2042.12 128.685 Q2043.14 128.337 2044.16 128.175 Q2045.18 127.99 2046.19 127.99 Q2051.98 127.99 2055.36 131.161 Q2058.74 134.333 2058.74 139.749 Q2058.74 145.328 2055.27 148.43 Q2051.8 151.509 2045.48 151.509 Q2043.3 151.509 2041.03 151.138 Q2038.79 150.768 2036.38 150.027 L2036.38 145.328 Q2038.46 146.462 2040.68 147.018 Q2042.91 147.573 2045.38 147.573 Q2049.39 147.573 2051.73 145.467 Q2054.06 143.36 2054.06 139.749 Q2054.06 136.138 2051.73 134.032 Q2049.39 131.925 2045.38 131.925 Q2043.51 131.925 2041.63 132.342 Q2039.78 132.759 2037.84 133.638 L2037.84 116.277 Z" fill="#000000" fill-rule="evenodd" fill-opacity="1" /><path clip-path="url(#clip010)" d="M 0 0 M1921.39 588.579 L1958.34 588.579 L1958.34 580.813 Q1958.34 570.978 1953.89 566.427 Q1949.43 561.843 1939.82 561.843 Q1930.27 561.843 1925.85 566.427 Q1921.39 570.978 1921.39 580.813 L1921.39 588.579 M1916.11 595.009 L1916.11 581.8 Q1916.11 567.986 1921.87 561.525 Q1927.6 555.064 1939.82 555.064 Q1952.11 555.064 1957.87 561.557 Q1963.63 568.05 1963.63 581.8 L1963.63 595.009 L1916.11 595.009 Z" fill="#000000" fill-rule="evenodd" fill-opacity="1" /><path clip-path="url(#clip010)" d="M 0 0 M1944.34 518.429 L1947.2 518.429 L1947.2 545.356 Q1953.25 544.974 1956.43 541.728 Q1959.59 538.449 1959.59 532.625 Q1959.59 529.251 1958.76 526.1 Q1957.93 522.917 1956.28 519.798 L1961.81 519.798 Q1963.15 522.949 1963.85 526.259 Q1964.55 529.569 1964.55 532.975 Q1964.55 541.505 1959.59 546.502 Q1954.62 551.467 1946.15 551.467 Q1937.4 551.467 1932.28 546.757 Q1927.12 542.014 1927.12 533.993 Q1927.12 526.8 1931.77 522.631 Q1936.38 518.429 1944.34 518.429 M1942.62 524.286 Q1937.82 524.349 1934.95 526.991 Q1932.09 529.601 1932.09 533.93 Q1932.09 538.831 1934.86 541.791 Q1937.62 544.72 1942.65 545.165 L1942.62 524.286 Z" fill="#000000" fill-rule="evenodd" fill-opacity="1" /><path clip-path="url(#clip010)" d="M 0 0 M1942.11 482.654 L1963.63 482.654 L1963.63 488.511 L1942.3 488.511 Q1937.24 488.511 1934.73 490.484 Q1932.21 492.457 1932.21 496.404 Q1932.21 501.146 1935.24 503.884 Q1938.26 506.621 1943.48 506.621 L1963.63 506.621 L1963.63 512.509 L1927.98 512.509 L1927.98 506.621 L1933.52 506.621 Q1930.3 504.52 1928.71 501.688 Q1927.12 498.823 1927.12 495.099 Q1927.12 488.956 1930.94 485.805 Q1934.73 482.654 1942.11 482.654 Z" fill="#000000" fill-rule="evenodd" fill-opacity="1" /><path clip-path="url(#clip010)" d="M 0 0 M1929.03 453.786 L1934.57 453.786 Q1933.3 456.268 1932.66 458.942 Q1932.02 461.615 1932.02 464.48 Q1932.02 468.84 1933.36 471.037 Q1934.7 473.201 1937.37 473.201 Q1939.41 473.201 1940.58 471.641 Q1941.73 470.082 1942.78 465.371 L1943.23 463.366 Q1944.56 457.128 1947.01 454.518 Q1949.43 451.876 1953.79 451.876 Q1958.76 451.876 1961.65 455.823 Q1964.55 459.738 1964.55 466.612 Q1964.55 469.477 1963.98 472.596 Q1963.44 475.684 1962.32 479.121 L1956.28 479.121 Q1957.96 475.875 1958.82 472.724 Q1959.65 469.573 1959.65 466.485 Q1959.65 462.347 1958.25 460.119 Q1956.82 457.891 1954.24 457.891 Q1951.85 457.891 1950.58 459.515 Q1949.31 461.106 1948.13 466.549 L1947.65 468.586 Q1946.5 474.029 1944.15 476.448 Q1941.76 478.866 1937.62 478.866 Q1932.6 478.866 1929.86 475.302 Q1927.12 471.737 1927.12 465.18 Q1927.12 461.934 1927.6 459.069 Q1928.08 456.205 1929.03 453.786 Z" fill="#000000" fill-rule="evenodd" fill-opacity="1" /><path clip-path="url(#clip010)" d="M 0 0 M1927.98 445.733 L1927.98 439.877 L1963.63 439.877 L1963.63 445.733 L1927.98 445.733 M1914.1 445.733 L1914.1 439.877 L1921.52 439.877 L1921.52 445.733 L1914.1 445.733 Z" fill="#000000" fill-rule="evenodd" fill-opacity="1" /><path clip-path="url(#clip010)" d="M 0 0 M1917.86 427.941 L1927.98 427.941 L1927.98 415.878 L1932.53 415.878 L1932.53 427.941 L1951.88 427.941 Q1956.24 427.941 1957.49 426.763 Q1958.73 425.554 1958.73 421.893 L1958.73 415.878 L1963.63 415.878 L1963.63 421.893 Q1963.63 428.673 1961.11 431.251 Q1958.57 433.829 1951.88 433.829 L1932.53 433.829 L1932.53 438.126 L1927.98 438.126 L1927.98 433.829 L1917.86 433.829 L1917.86 427.941 Z" fill="#000000" fill-rule="evenodd" fill-opacity="1" /><path clip-path="url(#clip010)" d="M 0 0 M1966.94 394.903 Q1973.3 397.385 1975.25 399.741 Q1977.19 402.096 1977.19 406.043 L1977.19 410.722 L1972.29 410.722 L1972.29 407.284 Q1972.29 404.865 1971.14 403.528 Q1969.99 402.192 1965.73 400.568 L1963.06 399.518 L1927.98 413.936 L1927.98 407.73 L1955.86 396.59 L1927.98 385.45 L1927.98 379.243 L1966.94 394.903 Z" fill="#000000" fill-rule="evenodd" fill-opacity="1" /><path clip-path="url(#clip010)" d="M 0 0 M3048.63 43.8146 L3022.83 43.8146 Q3023.43 55.9268 3026.23 61.0714 Q3029.71 67.3908 3035.75 67.3908 Q3041.82 67.3908 3045.19 61.0309 Q3048.14 55.4407 3048.63 43.8146 M3048.51 36.928 Q3047.37 25.4235 3045.19 21.3726 Q3041.7 14.9721 3035.75 14.9721 Q3029.55 14.9721 3026.27 21.2916 Q3023.68 26.3957 3022.91 36.928 L3048.51 36.928 M3035.75 8.89579 Q3045.47 8.89579 3051.02 17.4837 Q3056.57 26.0311 3056.57 41.1815 Q3056.57 56.2914 3051.02 64.8793 Q3045.47 73.5077 3035.75 73.5077 Q3025.99 73.5077 3020.48 64.8793 Q3014.93 56.2914 3014.93 41.1815 Q3014.93 26.0311 3020.48 17.4837 Q3025.99 8.89579 3035.75 8.89579 Z" fill="#000000" fill-rule="evenodd" fill-opacity="1" /><polyline clip-path="url(#clip013)" style="stroke:#009af9; stroke-width:4; stroke-opacity:1; fill:none" points="
  2170.65,887.252 2179.34,887.251 2188.04,887.247 2196.73,887.24 2205.42,887.228 2214.12,887.208 2222.81,887.176 2231.51,887.127 2240.2,887.051 2248.9,886.938 
  2257.59,886.775 2266.29,886.544 2274.98,886.226 2283.67,885.799 2292.37,885.241 2301.06,884.529 2309.76,883.644 2318.45,882.571 2327.15,881.303 2335.84,879.842 
  2344.54,878.201 2353.23,876.403 2361.93,874.483 2370.62,872.481 2379.31,870.444 2388.01,868.419 2396.7,866.448 2405.4,864.566 2414.09,862.793 2422.79,861.137 
  2431.48,859.586 2440.18,858.113 2448.87,856.679 2457.56,855.23 2466.26,853.711 2474.95,852.064 2483.65,850.235 2492.34,848.177 2501.04,845.85 2509.73,843.22 
  2518.43,840.258 2527.12,836.932 2535.81,833.205 2544.51,829.032 2553.2,824.358 2561.9,819.124 2570.59,813.273 2579.29,806.756 2587.98,799.552 2596.68,791.67 
  2605.37,783.163 2614.07,774.129 2622.76,764.713 2631.45,755.092 2640.15,745.471 2648.84,736.056 2657.54,727.043 2666.23,718.594 2674.93,710.815 2683.62,703.744 
  2692.32,697.342 2701.01,691.482 2709.7,685.956 2718.4,680.488 2727.09,674.75 2735.79,668.391 2744.48,661.075 2753.18,652.512 2761.87,642.496 2770.57,630.929 
  2779.26,617.842 2787.96,603.39 2796.65,587.84 2805.34,571.534 2814.04,554.849 2822.73,538.149 2831.43,521.74 2840.12,505.836 2848.82,490.542 2857.51,475.853 
  2866.21,461.677 2874.9,447.865 2883.59,434.25 2892.29,420.686 2900.98,407.076 2909.68,393.391 2918.37,379.671 2927.07,366.009 2935.76,352.532 2944.46,339.372 
  2953.15,326.634 2961.84,314.378 2970.54,302.602 2979.23,291.238 2987.93,280.158 2996.62,269.185 3005.32,258.119 3014.01,246.757 3022.71,234.92 3031.4,222.482 
  3040.1,209.387 3048.79,195.673 3057.48,181.478 3066.18,167.043 3074.87,152.699 3083.57,138.844 3092.26,125.913 3100.96,114.335 3109.65,104.499 3118.35,96.7113 
  3127.04,91.1693 3135.73,87.9485 3144.43,86.9997 3153.12,88.1604 3161.82,91.176 3170.51,95.7264 3179.21,101.453 3187.9,107.984 3196.6,114.957 3205.29,122.032 
  3213.99,128.912 3222.68,135.343 3231.37,141.132 3240.07,146.151 3248.76,150.338 3257.46,153.705 3266.15,156.33 3274.85,158.352 3283.54,159.963 3292.24,161.392 
  3300.93,162.898 3309.62,164.758 3318.32,167.258 3327.01,170.688 3335.71,175.334 3344.4,181.469 3353.1,189.343 3361.79,199.166 3370.49,211.094 3379.18,225.206 
  3387.87,241.499 3396.57,259.875 3405.26,280.144 3413.96,302.043 3422.65,325.248 3431.35,349.406 3440.04,374.164 3448.74,399.19 3457.43,424.197 3466.13,448.956 
  3474.82,473.301 3483.51,497.125 3492.21,520.371 3500.9,543.025 3509.6,565.093 3518.29,586.597 3526.99,607.554 3535.68,627.969 3544.38,647.828 3553.07,667.092 
  3561.76,685.7 3570.46,703.57 3579.15,720.612 3587.85,736.732 3596.54,751.848 3605.24,765.899 3613.93,778.853 3622.63,790.714 3631.32,801.52 3640.02,811.335 
  3648.71,820.246 3657.4,828.347 3666.1,835.732 3674.79,842.481 3683.49,848.658 3692.18,854.305 3700.88,859.446 3709.57,864.091 3718.27,868.24 3726.96,871.894 
  3735.65,875.059 3744.35,877.747 3753.04,879.984 3761.74,881.805 3770.43,883.254 3779.13,884.379 3787.82,885.232 3796.52,885.863 3805.21,886.319 3813.9,886.639 
  3822.6,886.859 3831.29,887.007 3839.99,887.103 3848.68,887.164 3857.38,887.202 3866.07,887.225 3874.77,887.239 3883.46,887.246 3892.16,887.251 3900.85,887.252 
  
  "/>
</svg>
