<?xml version="1.0" encoding="utf-8"?>
<svg xmlns="http://www.w3.org/2000/svg" xmlns:xlink="http://www.w3.org/1999/xlink" width="1000" height="250" viewBox="0 0 4000 1000">
<defs>
  <clipPath id="clip860">
    <rect x="0" y="0" width="4000" height="1000"/>
  </clipPath>
</defs>
<path clip-path="url(#clip860)" d="
M0 1000 L4000 1000 L4000 0 L0 0  Z
  " fill="#ffffff" fill-rule="evenodd" fill-opacity="1"/>
<defs>
  <clipPath id="clip861">
    <rect x="800" y="0" width="2801" height="1000"/>
  </clipPath>
</defs>
<path clip-path="url(#clip860)" d="
M118.74 911.26 L1952.76 911.26 L1952.76 62.9921 L118.74 62.9921  Z
  " fill="#ffffff" fill-rule="evenodd" fill-opacity="1"/>
<defs>
  <clipPath id="clip862">
    <rect x="118" y="62" width="1835" height="849"/>
  </clipPath>
</defs>
<polyline clip-path="url(#clip862)" style="stroke:#000000; stroke-width:2; stroke-opacity:0.1; fill:none" points="
  168.914,911.26 168.914,62.9921 
  "/>
<polyline clip-path="url(#clip862)" style="stroke:#000000; stroke-width:2; stroke-opacity:0.1; fill:none" points="
  601.898,911.26 601.898,62.9921 
  "/>
<polyline clip-path="url(#clip862)" style="stroke:#000000; stroke-width:2; stroke-opacity:0.1; fill:none" points="
  1034.88,911.26 1034.88,62.9921 
  "/>
<polyline clip-path="url(#clip862)" style="stroke:#000000; stroke-width:2; stroke-opacity:0.1; fill:none" points="
  1467.87,911.26 1467.87,62.9921 
  "/>
<polyline clip-path="url(#clip862)" style="stroke:#000000; stroke-width:2; stroke-opacity:0.1; fill:none" points="
  1900.85,911.26 1900.85,62.9921 
  "/>
<polyline clip-path="url(#clip860)" style="stroke:#000000; stroke-width:4; stroke-opacity:1; fill:none" points="
  118.74,911.26 1952.76,911.26 
  "/>
<polyline clip-path="url(#clip860)" style="stroke:#000000; stroke-width:4; stroke-opacity:1; fill:none" points="
  168.914,911.26 168.914,901.081 
  "/>
<polyline clip-path="url(#clip860)" style="stroke:#000000; stroke-width:4; stroke-opacity:1; fill:none" points="
  601.898,911.26 601.898,901.081 
  "/>
<polyline clip-path="url(#clip860)" style="stroke:#000000; stroke-width:4; stroke-opacity:1; fill:none" points="
  1034.88,911.26 1034.88,901.081 
  "/>
<polyline clip-path="url(#clip860)" style="stroke:#000000; stroke-width:4; stroke-opacity:1; fill:none" points="
  1467.87,911.26 1467.87,901.081 
  "/>
<polyline clip-path="url(#clip860)" style="stroke:#000000; stroke-width:4; stroke-opacity:1; fill:none" points="
  1900.85,911.26 1900.85,901.081 
  "/>
<path clip-path="url(#clip860)" d="M 0 0 M168.914 953.251 Q165.303 953.251 163.475 956.815 Q161.669 960.357 161.669 967.487 Q161.669 974.593 163.475 978.158 Q165.303 981.699 168.914 981.699 Q172.549 981.699 174.354 978.158 Q176.183 974.593 176.183 967.487 Q176.183 960.357 174.354 956.815 Q172.549 953.251 168.914 953.251 M168.914 949.547 Q174.724 949.547 177.78 954.153 Q180.859 958.737 180.859 967.487 Q180.859 976.213 177.78 980.82 Q174.724 985.403 168.914 985.403 Q163.104 985.403 160.025 980.82 Q156.97 976.213 156.97 967.487 Q156.97 958.737 160.025 954.153 Q163.104 949.547 168.914 949.547 Z" fill="#000000" fill-rule="evenodd" fill-opacity="1" /><path clip-path="url(#clip860)" d="M 0 0 M570.035 980.797 L586.354 980.797 L586.354 984.732 L564.41 984.732 L564.41 980.797 Q567.072 978.042 571.655 973.412 Q576.262 968.76 577.442 967.417 Q579.688 964.894 580.567 963.158 Q581.47 961.399 581.47 959.709 Q581.47 956.954 579.526 955.218 Q577.604 953.482 574.503 953.482 Q572.303 953.482 569.85 954.246 Q567.419 955.01 564.641 956.561 L564.641 951.839 Q567.466 950.704 569.919 950.126 Q572.373 949.547 574.41 949.547 Q579.78 949.547 582.975 952.232 Q586.169 954.917 586.169 959.408 Q586.169 961.538 585.359 963.459 Q584.572 965.357 582.465 967.95 Q581.887 968.621 578.785 971.838 Q575.683 975.033 570.035 980.797 Z" fill="#000000" fill-rule="evenodd" fill-opacity="1" /><path clip-path="url(#clip860)" d="M 0 0 M591.47 950.172 L609.826 950.172 L609.826 954.107 L595.752 954.107 L595.752 962.579 Q596.771 962.232 597.789 962.07 Q598.808 961.885 599.826 961.885 Q605.613 961.885 608.993 965.056 Q612.373 968.227 612.373 973.644 Q612.373 979.223 608.9 982.324 Q605.428 985.403 599.109 985.403 Q596.933 985.403 594.664 985.033 Q592.419 984.662 590.012 983.922 L590.012 979.223 Q592.095 980.357 594.317 980.912 Q596.539 981.468 599.016 981.468 Q603.021 981.468 605.359 979.362 Q607.697 977.255 607.697 973.644 Q607.697 970.033 605.359 967.926 Q603.021 965.82 599.016 965.82 Q597.141 965.82 595.266 966.237 Q593.414 966.653 591.47 967.533 L591.47 950.172 Z" fill="#000000" fill-rule="evenodd" fill-opacity="1" /><path clip-path="url(#clip860)" d="M 0 0 M627.442 953.251 Q623.831 953.251 622.002 956.815 Q620.197 960.357 620.197 967.487 Q620.197 974.593 622.002 978.158 Q623.831 981.699 627.442 981.699 Q631.076 981.699 632.882 978.158 Q634.711 974.593 634.711 967.487 Q634.711 960.357 632.882 956.815 Q631.076 953.251 627.442 953.251 M627.442 949.547 Q633.252 949.547 636.308 954.153 Q639.386 958.737 639.386 967.487 Q639.386 976.213 636.308 980.82 Q633.252 985.403 627.442 985.403 Q621.632 985.403 618.553 980.82 Q615.498 976.213 615.498 967.487 Q615.498 958.737 618.553 954.153 Q621.632 949.547 627.442 949.547 Z" fill="#000000" fill-rule="evenodd" fill-opacity="1" /><path clip-path="url(#clip860)" d="M 0 0 M998.146 950.172 L1016.5 950.172 L1016.5 954.107 L1002.43 954.107 L1002.43 962.579 Q1003.45 962.232 1004.47 962.07 Q1005.48 961.885 1006.5 961.885 Q1012.29 961.885 1015.67 965.056 Q1019.05 968.227 1019.05 973.644 Q1019.05 979.223 1015.58 982.324 Q1012.1 985.403 1005.78 985.403 Q1003.61 985.403 1001.34 985.033 Q999.095 984.662 996.688 983.922 L996.688 979.223 Q998.771 980.357 1000.99 980.912 Q1003.22 981.468 1005.69 981.468 Q1009.7 981.468 1012.03 979.362 Q1014.37 977.255 1014.37 973.644 Q1014.37 970.033 1012.03 967.926 Q1009.7 965.82 1005.69 965.82 Q1003.82 965.82 1001.94 966.237 Q1000.09 966.653 998.146 967.533 L998.146 950.172 Z" fill="#000000" fill-rule="evenodd" fill-opacity="1" /><path clip-path="url(#clip860)" d="M 0 0 M1034.12 953.251 Q1030.51 953.251 1028.68 956.815 Q1026.87 960.357 1026.87 967.487 Q1026.87 974.593 1028.68 978.158 Q1030.51 981.699 1034.12 981.699 Q1037.75 981.699 1039.56 978.158 Q1041.39 974.593 1041.39 967.487 Q1041.39 960.357 1039.56 956.815 Q1037.75 953.251 1034.12 953.251 M1034.12 949.547 Q1039.93 949.547 1042.98 954.153 Q1046.06 958.737 1046.06 967.487 Q1046.06 976.213 1042.98 980.82 Q1039.93 985.403 1034.12 985.403 Q1028.31 985.403 1025.23 980.82 Q1022.17 976.213 1022.17 967.487 Q1022.17 958.737 1025.23 954.153 Q1028.31 949.547 1034.12 949.547 Z" fill="#000000" fill-rule="evenodd" fill-opacity="1" /><path clip-path="url(#clip860)" d="M 0 0 M1061.13 953.251 Q1057.52 953.251 1055.69 956.815 Q1053.89 960.357 1053.89 967.487 Q1053.89 974.593 1055.69 978.158 Q1057.52 981.699 1061.13 981.699 Q1064.77 981.699 1066.57 978.158 Q1068.4 974.593 1068.4 967.487 Q1068.4 960.357 1066.57 956.815 Q1064.77 953.251 1061.13 953.251 M1061.13 949.547 Q1066.94 949.547 1070 954.153 Q1073.08 958.737 1073.08 967.487 Q1073.08 976.213 1070 980.82 Q1066.94 985.403 1061.13 985.403 Q1055.32 985.403 1052.24 980.82 Q1049.19 976.213 1049.19 967.487 Q1049.19 958.737 1052.24 954.153 Q1055.32 949.547 1061.13 949.547 Z" fill="#000000" fill-rule="evenodd" fill-opacity="1" /><path clip-path="url(#clip860)" d="M 0 0 M1430.24 950.172 L1452.46 950.172 L1452.46 952.163 L1439.91 984.732 L1435.03 984.732 L1446.84 954.107 L1430.24 954.107 L1430.24 950.172 Z" fill="#000000" fill-rule="evenodd" fill-opacity="1" /><path clip-path="url(#clip860)" d="M 0 0 M1457.58 950.172 L1475.93 950.172 L1475.93 954.107 L1461.86 954.107 L1461.86 962.579 Q1462.88 962.232 1463.9 962.07 Q1464.91 961.885 1465.93 961.885 Q1471.72 961.885 1475.1 965.056 Q1478.48 968.227 1478.48 973.644 Q1478.48 979.223 1475.01 982.324 Q1471.53 985.403 1465.22 985.403 Q1463.04 985.403 1460.77 985.033 Q1458.53 984.662 1456.12 983.922 L1456.12 979.223 Q1458.2 980.357 1460.42 980.912 Q1462.65 981.468 1465.12 981.468 Q1469.13 981.468 1471.47 979.362 Q1473.8 977.255 1473.8 973.644 Q1473.8 970.033 1471.47 967.926 Q1469.13 965.82 1465.12 965.82 Q1463.25 965.82 1461.37 966.237 Q1459.52 966.653 1457.58 967.533 L1457.58 950.172 Z" fill="#000000" fill-rule="evenodd" fill-opacity="1" /><path clip-path="url(#clip860)" d="M 0 0 M1493.55 953.251 Q1489.94 953.251 1488.11 956.815 Q1486.3 960.357 1486.3 967.487 Q1486.3 974.593 1488.11 978.158 Q1489.94 981.699 1493.55 981.699 Q1497.18 981.699 1498.99 978.158 Q1500.82 974.593 1500.82 967.487 Q1500.82 960.357 1498.99 956.815 Q1497.18 953.251 1493.55 953.251 M1493.55 949.547 Q1499.36 949.547 1502.41 954.153 Q1505.49 958.737 1505.49 967.487 Q1505.49 976.213 1502.41 980.82 Q1499.36 985.403 1493.55 985.403 Q1487.74 985.403 1484.66 980.82 Q1481.6 976.213 1481.6 967.487 Q1481.6 958.737 1484.66 954.153 Q1487.74 949.547 1493.55 949.547 Z" fill="#000000" fill-rule="evenodd" fill-opacity="1" /><path clip-path="url(#clip860)" d="M 0 0 M1850.71 980.797 L1858.35 980.797 L1858.35 954.431 L1850.04 956.098 L1850.04 951.839 L1858.3 950.172 L1862.98 950.172 L1862.98 980.797 L1870.62 980.797 L1870.62 984.732 L1850.71 984.732 L1850.71 980.797 Z" fill="#000000" fill-rule="evenodd" fill-opacity="1" /><path clip-path="url(#clip860)" d="M 0 0 M1885.69 953.251 Q1882.08 953.251 1880.25 956.815 Q1878.44 960.357 1878.44 967.487 Q1878.44 974.593 1880.25 978.158 Q1882.08 981.699 1885.69 981.699 Q1889.32 981.699 1891.13 978.158 Q1892.96 974.593 1892.96 967.487 Q1892.96 960.357 1891.13 956.815 Q1889.32 953.251 1885.69 953.251 M1885.69 949.547 Q1891.5 949.547 1894.55 954.153 Q1897.63 958.737 1897.63 967.487 Q1897.63 976.213 1894.55 980.82 Q1891.5 985.403 1885.69 985.403 Q1879.88 985.403 1876.8 980.82 Q1873.74 976.213 1873.74 967.487 Q1873.74 958.737 1876.8 954.153 Q1879.88 949.547 1885.69 949.547 Z" fill="#000000" fill-rule="evenodd" fill-opacity="1" /><path clip-path="url(#clip860)" d="M 0 0 M1912.7 953.251 Q1909.09 953.251 1907.26 956.815 Q1905.46 960.357 1905.46 967.487 Q1905.46 974.593 1907.26 978.158 Q1909.09 981.699 1912.7 981.699 Q1916.34 981.699 1918.14 978.158 Q1919.97 974.593 1919.97 967.487 Q1919.97 960.357 1918.14 956.815 Q1916.34 953.251 1912.7 953.251 M1912.7 949.547 Q1918.51 949.547 1921.57 954.153 Q1924.65 958.737 1924.65 967.487 Q1924.65 976.213 1921.57 980.82 Q1918.51 985.403 1912.7 985.403 Q1906.89 985.403 1903.81 980.82 Q1900.76 976.213 1900.76 967.487 Q1900.76 958.737 1903.81 954.153 Q1906.89 949.547 1912.7 949.547 Z" fill="#000000" fill-rule="evenodd" fill-opacity="1" /><path clip-path="url(#clip860)" d="M 0 0 M1939.72 953.251 Q1936.1 953.251 1934.28 956.815 Q1932.47 960.357 1932.47 967.487 Q1932.47 974.593 1934.28 978.158 Q1936.1 981.699 1939.72 981.699 Q1943.35 981.699 1945.16 978.158 Q1946.98 974.593 1946.98 967.487 Q1946.98 960.357 1945.16 956.815 Q1943.35 953.251 1939.72 953.251 M1939.72 949.547 Q1945.53 949.547 1948.58 954.153 Q1951.66 958.737 1951.66 967.487 Q1951.66 976.213 1948.58 980.82 Q1945.53 985.403 1939.72 985.403 Q1933.91 985.403 1930.83 980.82 Q1927.77 976.213 1927.77 967.487 Q1927.77 958.737 1930.83 954.153 Q1933.91 949.547 1939.72 949.547 Z" fill="#000000" fill-rule="evenodd" fill-opacity="1" /><path clip-path="url(#clip860)" d="M 0 0 M917.76 1012.6 L924.189 1012.6 L924.189 1060.12 L917.76 1060.12 L917.76 1012.6 Z" fill="#000000" fill-rule="evenodd" fill-opacity="1" /><path clip-path="url(#clip860)" d="M 0 0 M936.125 1014.35 L936.125 1024.48 L948.188 1024.48 L948.188 1029.03 L936.125 1029.03 L936.125 1048.38 Q936.125 1052.74 937.302 1053.98 Q938.512 1055.22 942.172 1055.22 L948.188 1055.22 L948.188 1060.12 L942.172 1060.12 Q935.393 1060.12 932.815 1057.61 Q930.236 1055.06 930.236 1048.38 L930.236 1029.03 L925.94 1029.03 L925.94 1024.48 L930.236 1024.48 L930.236 1014.35 L936.125 1014.35 Z" fill="#000000" fill-rule="evenodd" fill-opacity="1" /><path clip-path="url(#clip860)" d="M 0 0 M984.822 1040.84 L984.822 1043.7 L957.895 1043.7 Q958.277 1049.75 961.524 1052.93 Q964.802 1056.08 970.627 1056.08 Q974.001 1056.08 977.152 1055.25 Q980.335 1054.43 983.454 1052.77 L983.454 1058.31 Q980.303 1059.65 976.993 1060.35 Q973.682 1061.05 970.277 1061.05 Q961.747 1061.05 956.75 1056.08 Q951.784 1051.12 951.784 1042.65 Q951.784 1033.9 956.495 1028.77 Q961.237 1023.62 969.258 1023.62 Q976.451 1023.62 980.621 1028.26 Q984.822 1032.88 984.822 1040.84 M978.966 1039.12 Q978.902 1034.31 976.261 1031.45 Q973.651 1028.58 969.322 1028.58 Q964.42 1028.58 961.46 1031.35 Q958.532 1034.12 958.086 1039.15 L978.966 1039.12 Z" fill="#000000" fill-rule="evenodd" fill-opacity="1" /><path clip-path="url(#clip860)" d="M 0 0 M1011.62 1029.95 Q1010.64 1029.38 1009.46 1029.12 Q1008.31 1028.84 1006.91 1028.84 Q1001.95 1028.84 999.273 1032.08 Q996.631 1035.3 996.631 1041.35 L996.631 1060.12 L990.742 1060.12 L990.742 1024.48 L996.631 1024.48 L996.631 1030.01 Q998.477 1026.77 1001.44 1025.21 Q1004.4 1023.62 1008.63 1023.62 Q1009.23 1023.62 1009.97 1023.71 Q1010.7 1023.78 1011.59 1023.93 L1011.62 1029.95 Z" fill="#000000" fill-rule="evenodd" fill-opacity="1" /><path clip-path="url(#clip860)" d="M 0 0 M1033.97 1042.2 Q1026.87 1042.2 1024.13 1043.83 Q1021.39 1045.45 1021.39 1049.37 Q1021.39 1052.48 1023.43 1054.33 Q1025.5 1056.15 1029.03 1056.15 Q1033.9 1056.15 1036.83 1052.71 Q1039.79 1049.24 1039.79 1043.51 L1039.79 1042.2 L1033.97 1042.2 M1045.65 1039.79 L1045.65 1060.12 L1039.79 1060.12 L1039.79 1054.71 Q1037.79 1057.96 1034.79 1059.52 Q1031.8 1061.05 1027.47 1061.05 Q1022 1061.05 1018.75 1057.99 Q1015.54 1054.9 1015.54 1049.75 Q1015.54 1043.73 1019.55 1040.68 Q1023.59 1037.62 1031.58 1037.62 L1039.79 1037.62 L1039.79 1037.05 Q1039.79 1033.01 1037.12 1030.81 Q1034.47 1028.58 1029.67 1028.58 Q1026.61 1028.58 1023.72 1029.31 Q1020.82 1030.05 1018.15 1031.51 L1018.15 1026.1 Q1021.36 1024.86 1024.39 1024.25 Q1027.41 1023.62 1030.27 1023.62 Q1038.01 1023.62 1041.83 1027.63 Q1045.65 1031.64 1045.65 1039.79 Z" fill="#000000" fill-rule="evenodd" fill-opacity="1" /><path clip-path="url(#clip860)" d="M 0 0 M1057.58 1014.35 L1057.58 1024.48 L1069.65 1024.48 L1069.65 1029.03 L1057.58 1029.03 L1057.58 1048.38 Q1057.58 1052.74 1058.76 1053.98 Q1059.97 1055.22 1063.63 1055.22 L1069.65 1055.22 L1069.65 1060.12 L1063.63 1060.12 Q1056.85 1060.12 1054.27 1057.61 Q1051.69 1055.06 1051.69 1048.38 L1051.69 1029.03 L1047.4 1029.03 L1047.4 1024.48 L1051.69 1024.48 L1051.69 1014.35 L1057.58 1014.35 Z" fill="#000000" fill-rule="evenodd" fill-opacity="1" /><path clip-path="url(#clip860)" d="M 0 0 M1075.79 1024.48 L1081.64 1024.48 L1081.64 1060.12 L1075.79 1060.12 L1075.79 1024.48 M1075.79 1010.6 L1081.64 1010.6 L1081.64 1018.01 L1075.79 1018.01 L1075.79 1010.6 Z" fill="#000000" fill-rule="evenodd" fill-opacity="1" /><path clip-path="url(#clip860)" d="M 0 0 M1101.6 1028.58 Q1096.89 1028.58 1094.15 1032.27 Q1091.42 1035.93 1091.42 1042.33 Q1091.42 1048.73 1094.12 1052.42 Q1096.86 1056.08 1101.6 1056.08 Q1106.28 1056.08 1109.02 1052.39 Q1111.75 1048.7 1111.75 1042.33 Q1111.75 1036 1109.02 1032.31 Q1106.28 1028.58 1101.6 1028.58 M1101.6 1023.62 Q1109.24 1023.62 1113.6 1028.58 Q1117.96 1033.55 1117.96 1042.33 Q1117.96 1051.08 1113.6 1056.08 Q1109.24 1061.05 1101.6 1061.05 Q1093.93 1061.05 1089.57 1056.08 Q1085.24 1051.08 1085.24 1042.33 Q1085.24 1033.55 1089.57 1028.58 Q1093.93 1023.62 1101.6 1023.62 Z" fill="#000000" fill-rule="evenodd" fill-opacity="1" /><path clip-path="url(#clip860)" d="M 0 0 M1153.74 1038.61 L1153.74 1060.12 L1147.88 1060.12 L1147.88 1038.8 Q1147.88 1033.74 1145.91 1031.22 Q1143.93 1028.71 1139.99 1028.71 Q1135.24 1028.71 1132.51 1031.73 Q1129.77 1034.76 1129.77 1039.98 L1129.77 1060.12 L1123.88 1060.12 L1123.88 1024.48 L1129.77 1024.48 L1129.77 1030.01 Q1131.87 1026.8 1134.7 1025.21 Q1137.57 1023.62 1141.29 1023.62 Q1147.43 1023.62 1150.59 1027.44 Q1153.74 1031.22 1153.74 1038.61 Z" fill="#000000" fill-rule="evenodd" fill-opacity="1" /><polyline clip-path="url(#clip862)" style="stroke:#000000; stroke-width:2; stroke-opacity:0.1; fill:none" points="
  118.74,824.691 1952.76,824.691 
  "/>
<polyline clip-path="url(#clip862)" style="stroke:#000000; stroke-width:2; stroke-opacity:0.1; fill:none" points="
  118.74,626.05 1952.76,626.05 
  "/>
<polyline clip-path="url(#clip862)" style="stroke:#000000; stroke-width:2; stroke-opacity:0.1; fill:none" points="
  118.74,427.41 1952.76,427.41 
  "/>
<polyline clip-path="url(#clip862)" style="stroke:#000000; stroke-width:2; stroke-opacity:0.1; fill:none" points="
  118.74,228.769 1952.76,228.769 
  "/>
<polyline clip-path="url(#clip860)" style="stroke:#000000; stroke-width:4; stroke-opacity:1; fill:none" points="
  118.74,911.26 118.74,62.9921 
  "/>
<polyline clip-path="url(#clip860)" style="stroke:#000000; stroke-width:4; stroke-opacity:1; fill:none" points="
  118.74,824.691 140.748,824.691 
  "/>
<polyline clip-path="url(#clip860)" style="stroke:#000000; stroke-width:4; stroke-opacity:1; fill:none" points="
  118.74,626.05 140.748,626.05 
  "/>
<polyline clip-path="url(#clip860)" style="stroke:#000000; stroke-width:4; stroke-opacity:1; fill:none" points="
  118.74,427.41 140.748,427.41 
  "/>
<polyline clip-path="url(#clip860)" style="stroke:#000000; stroke-width:4; stroke-opacity:1; fill:none" points="
  118.74,228.769 140.748,228.769 
  "/>
<path clip-path="url(#clip860)" d="M 0 0 M11.4256 810.49 Q7.8145 810.49 5.98581 814.054 Q4.18026 817.596 4.18026 824.726 Q4.18026 831.832 5.98581 835.397 Q7.8145 838.938 11.4256 838.938 Q15.0598 838.938 16.8654 835.397 Q18.6941 831.832 18.6941 824.726 Q18.6941 817.596 16.8654 814.054 Q15.0598 810.49 11.4256 810.49 M11.4256 806.786 Q17.2358 806.786 20.2913 811.392 Q23.37 815.976 23.37 824.726 Q23.37 833.452 20.2913 838.059 Q17.2358 842.642 11.4256 842.642 Q5.61544 842.642 2.53675 838.059 Q-0.518784 833.452 -0.518784 824.726 Q-0.518784 815.976 2.53675 811.392 Q5.61544 806.786 11.4256 806.786 Z" fill="#000000" fill-rule="evenodd" fill-opacity="1" /><path clip-path="url(#clip860)" d="M 0 0 M28.4394 836.091 L33.3236 836.091 L33.3236 841.971 L28.4394 841.971 L28.4394 836.091 Z" fill="#000000" fill-rule="evenodd" fill-opacity="1" /><path clip-path="url(#clip860)" d="M 0 0 M42.4208 838.036 L58.7402 838.036 L58.7402 841.971 L36.7958 841.971 L36.7958 838.036 Q39.4579 835.281 44.0412 830.651 Q48.6476 825.999 49.8282 824.656 Q52.0735 822.133 52.9532 820.397 Q53.8559 818.638 53.8559 816.948 Q53.8559 814.193 51.9115 812.457 Q49.9902 810.721 46.8884 810.721 Q44.6893 810.721 42.2356 811.485 Q39.8051 812.249 37.0273 813.8 L37.0273 809.077 Q39.8514 807.943 42.3051 807.365 Q44.7588 806.786 46.7958 806.786 Q52.1661 806.786 55.3605 809.471 Q58.555 812.156 58.555 816.647 Q58.555 818.776 57.7448 820.698 Q56.9578 822.596 54.8513 825.188 Q54.2726 825.86 51.1708 829.077 Q48.0689 832.272 42.4208 838.036 Z" fill="#000000" fill-rule="evenodd" fill-opacity="1" /><path clip-path="url(#clip860)" d="M 0 0 M9.34227 611.849 Q5.73118 611.849 3.90249 615.414 Q2.09694 618.955 2.09694 626.085 Q2.09694 633.192 3.90249 636.756 Q5.73118 640.298 9.34227 640.298 Q12.9765 640.298 14.7821 636.756 Q16.6108 633.192 16.6108 626.085 Q16.6108 618.955 14.7821 615.414 Q12.9765 611.849 9.34227 611.849 M9.34227 608.145 Q15.1524 608.145 18.208 612.752 Q21.2867 617.335 21.2867 626.085 Q21.2867 634.812 18.208 639.418 Q15.1524 644.002 9.34227 644.002 Q3.53212 644.002 0.453433 639.418 Q-2.60211 634.812 -2.60211 626.085 Q-2.60211 617.335 0.453433 612.752 Q3.53212 608.145 9.34227 608.145 Z" fill="#000000" fill-rule="evenodd" fill-opacity="1" /><path clip-path="url(#clip860)" d="M 0 0 M26.3561 637.451 L31.2403 637.451 L31.2403 643.33 L26.3561 643.33 L26.3561 637.451 Z" fill="#000000" fill-rule="evenodd" fill-opacity="1" /><path clip-path="url(#clip860)" d="M 0 0 M49.1569 612.844 L37.3514 631.293 L49.1569 631.293 L49.1569 612.844 M47.93 608.77 L53.8096 608.77 L53.8096 631.293 L58.7402 631.293 L58.7402 635.182 L53.8096 635.182 L53.8096 643.33 L49.1569 643.33 L49.1569 635.182 L33.5551 635.182 L33.5551 630.668 L47.93 608.77 Z" fill="#000000" fill-rule="evenodd" fill-opacity="1" /><path clip-path="url(#clip860)" d="M 0 0 M9.66635 413.209 Q6.05525 413.209 4.22656 416.773 Q2.42101 420.315 2.42101 427.445 Q2.42101 434.551 4.22656 438.116 Q6.05525 441.658 9.66635 441.658 Q13.3006 441.658 15.1061 438.116 Q16.9348 434.551 16.9348 427.445 Q16.9348 420.315 15.1061 416.773 Q13.3006 413.209 9.66635 413.209 M9.66635 409.505 Q15.4765 409.505 18.532 414.111 Q21.6107 418.695 21.6107 427.445 Q21.6107 436.171 18.532 440.778 Q15.4765 445.361 9.66635 445.361 Q3.85619 445.361 0.777505 440.778 Q-2.27803 436.171 -2.27803 427.445 Q-2.27803 418.695 0.777505 414.111 Q3.85619 409.505 9.66635 409.505 Z" fill="#000000" fill-rule="evenodd" fill-opacity="1" /><path clip-path="url(#clip860)" d="M 0 0 M26.6801 438.81 L31.5644 438.81 L31.5644 444.69 L26.6801 444.69 L26.6801 438.81 Z" fill="#000000" fill-rule="evenodd" fill-opacity="1" /><path clip-path="url(#clip860)" d="M 0 0 M47.2124 425.546 Q44.0643 425.546 42.2125 427.699 Q40.3838 429.852 40.3838 433.602 Q40.3838 437.329 42.2125 439.505 Q44.0643 441.658 47.2124 441.658 Q50.3606 441.658 52.1893 439.505 Q54.0411 437.329 54.0411 433.602 Q54.0411 429.852 52.1893 427.699 Q50.3606 425.546 47.2124 425.546 M56.4948 410.894 L56.4948 415.153 Q54.7355 414.32 52.93 413.88 Q51.1476 413.44 49.3884 413.44 Q44.7588 413.44 42.3051 416.565 Q39.8745 419.69 39.5273 426.009 Q40.893 423.996 42.9532 422.931 Q45.0134 421.843 47.4902 421.843 Q52.6985 421.843 55.7078 425.014 Q58.7402 428.162 58.7402 433.602 Q58.7402 438.926 55.592 442.144 Q52.4439 445.361 47.2124 445.361 Q41.2171 445.361 38.0458 440.778 Q34.8745 436.171 34.8745 427.445 Q34.8745 419.25 38.7634 414.389 Q42.6523 409.505 49.2032 409.505 Q50.9624 409.505 52.7448 409.852 Q54.5504 410.199 56.4948 410.894 Z" fill="#000000" fill-rule="evenodd" fill-opacity="1" /><path clip-path="url(#clip860)" d="M 0 0 M9.92097 214.568 Q6.30988 214.568 4.48119 218.133 Q2.67564 221.675 2.67564 228.804 Q2.67564 235.911 4.48119 239.475 Q6.30988 243.017 9.92097 243.017 Q13.5552 243.017 15.3608 239.475 Q17.1895 235.911 17.1895 228.804 Q17.1895 221.675 15.3608 218.133 Q13.5552 214.568 9.92097 214.568 M9.92097 210.864 Q15.7311 210.864 18.7867 215.471 Q21.8654 220.054 21.8654 228.804 Q21.8654 237.531 18.7867 242.137 Q15.7311 246.721 9.92097 246.721 Q4.11082 246.721 1.03213 242.137 Q-2.02341 237.531 -2.02341 228.804 Q-2.02341 220.054 1.03213 215.471 Q4.11082 210.864 9.92097 210.864 Z" fill="#000000" fill-rule="evenodd" fill-opacity="1" /><path clip-path="url(#clip860)" d="M 0 0 M26.9348 240.17 L31.819 240.17 L31.819 246.049 L26.9348 246.049 L26.9348 240.17 Z" fill="#000000" fill-rule="evenodd" fill-opacity="1" /><path clip-path="url(#clip860)" d="M 0 0 M46.8884 229.637 Q43.5551 229.637 41.6338 231.42 Q39.7356 233.202 39.7356 236.327 Q39.7356 239.452 41.6338 241.235 Q43.5551 243.017 46.8884 243.017 Q50.2217 243.017 52.143 241.235 Q54.0643 239.429 54.0643 236.327 Q54.0643 233.202 52.143 231.42 Q50.2448 229.637 46.8884 229.637 M42.2125 227.647 Q39.2032 226.906 37.5134 224.846 Q35.8468 222.786 35.8468 219.823 Q35.8468 215.679 38.7866 213.272 Q41.7495 210.864 46.8884 210.864 Q52.0504 210.864 54.9902 213.272 Q57.93 215.679 57.93 219.823 Q57.93 222.786 56.2402 224.846 Q54.5735 226.906 51.5874 227.647 Q54.967 228.434 56.842 230.725 Q58.7402 233.017 58.7402 236.327 Q58.7402 241.35 55.6615 244.036 Q52.6059 246.721 46.8884 246.721 Q41.1708 246.721 38.0921 244.036 Q35.0366 241.35 35.0366 236.327 Q35.0366 233.017 36.9347 230.725 Q38.8329 228.434 42.2125 227.647 M40.4995 220.263 Q40.4995 222.948 42.1662 224.452 Q43.856 225.957 46.8884 225.957 Q49.8976 225.957 51.5874 224.452 Q53.3004 222.948 53.3004 220.263 Q53.3004 217.577 51.5874 216.073 Q49.8976 214.568 46.8884 214.568 Q43.856 214.568 42.1662 216.073 Q40.4995 217.577 40.4995 220.263 Z" fill="#000000" fill-rule="evenodd" fill-opacity="1" /><path clip-path="url(#clip860)" d="M 0 0 M-82.8185 650.184 L-76.5483 650.184 Q-78.2989 653.844 -79.1582 657.09 Q-80.0176 660.337 -80.0176 663.361 Q-80.0176 668.612 -77.9806 671.477 Q-75.9435 674.31 -72.1878 674.31 Q-69.0368 674.31 -67.4135 672.432 Q-65.8221 670.522 -64.8354 665.238 L-64.0397 661.355 Q-62.671 654.162 -59.2017 650.756 Q-55.7643 647.319 -49.9715 647.319 Q-43.0647 647.319 -39.4999 651.966 Q-35.9351 656.581 -35.9351 665.525 Q-35.9351 668.899 -36.699 672.718 Q-37.4628 676.506 -38.9588 680.58 L-45.5791 680.58 Q-43.383 676.665 -42.269 672.909 Q-41.155 669.153 -41.155 665.525 Q-41.155 660.019 -43.3193 657.027 Q-45.4836 654.035 -49.494 654.035 Q-52.9952 654.035 -54.9685 656.199 Q-56.9419 658.332 -57.9286 663.233 L-58.6925 667.148 Q-60.1248 674.341 -63.1803 677.556 Q-66.2358 680.771 -71.6785 680.771 Q-77.9806 680.771 -81.609 676.347 Q-85.2375 671.891 -85.2375 664.093 Q-85.2375 660.751 -84.6327 657.281 Q-84.028 653.812 -82.8185 650.184 Z" fill="#000000" fill-rule="evenodd" fill-opacity="1" /><path clip-path="url(#clip860)" d="M 0 0 M-54.7776 624.975 Q-54.7776 632.073 -53.1543 634.81 Q-51.5311 637.548 -47.6162 637.548 Q-44.497 637.548 -42.6509 635.511 Q-40.8367 633.442 -40.8367 629.909 Q-40.8367 625.039 -44.2742 622.111 Q-47.7435 619.151 -53.4726 619.151 L-54.7776 619.151 L-54.7776 624.975 M-57.1965 613.294 L-36.8581 613.294 L-36.8581 619.151 L-42.269 619.151 Q-39.0224 621.156 -37.4628 624.148 Q-35.9351 627.14 -35.9351 631.468 Q-35.9351 636.943 -38.9906 640.189 Q-42.078 643.404 -47.2342 643.404 Q-53.2498 643.404 -56.3053 639.394 Q-59.3609 635.351 -59.3609 627.363 L-59.3609 619.151 L-59.9338 619.151 Q-63.976 619.151 -66.1722 621.824 Q-68.4002 624.466 -68.4002 629.272 Q-68.4002 632.328 -67.6681 635.224 Q-66.9361 638.121 -65.472 640.794 L-70.8828 640.794 Q-72.1241 637.579 -72.7289 634.556 Q-73.3654 631.532 -73.3654 628.667 Q-73.3654 620.933 -69.355 617.114 Q-65.3446 613.294 -57.1965 613.294 Z" fill="#000000" fill-rule="evenodd" fill-opacity="1" /><path clip-path="url(#clip860)" d="M 0 0 M-65.6629 579.397 Q-69.6097 577.201 -71.4876 574.145 Q-73.3654 571.09 -73.3654 566.952 Q-73.3654 561.382 -69.4505 558.358 Q-65.5674 555.335 -58.3742 555.335 L-36.8581 555.335 L-36.8581 561.223 L-58.1832 561.223 Q-63.3076 561.223 -65.7902 563.037 Q-68.2729 564.851 -68.2729 568.575 Q-68.2729 573.127 -65.2492 575.768 Q-62.2254 578.41 -57.0056 578.41 L-36.8581 578.41 L-36.8581 584.298 L-58.1832 584.298 Q-63.3394 584.298 -65.7902 586.113 Q-68.2729 587.927 -68.2729 591.715 Q-68.2729 596.202 -65.2173 598.844 Q-62.1936 601.486 -57.0056 601.486 L-36.8581 601.486 L-36.8581 607.374 L-72.5061 607.374 L-72.5061 601.486 L-66.9679 601.486 Q-70.2462 599.481 -71.8058 596.68 Q-73.3654 593.879 -73.3654 590.028 Q-73.3654 586.145 -71.3921 583.439 Q-69.4187 580.702 -65.6629 579.397 Z" fill="#000000" fill-rule="evenodd" fill-opacity="1" /><path clip-path="url(#clip860)" d="M 0 0 M-42.2053 543.526 L-23.2992 543.526 L-23.2992 549.414 L-72.5061 549.414 L-72.5061 543.526 L-67.0952 543.526 Q-70.2781 541.68 -71.8058 538.879 Q-73.3654 536.046 -73.3654 532.132 Q-73.3654 525.639 -68.2092 521.596 Q-63.053 517.522 -54.6503 517.522 Q-46.2475 517.522 -41.0913 521.596 Q-35.9351 525.639 -35.9351 532.132 Q-35.9351 536.046 -37.4628 538.879 Q-39.0224 541.68 -42.2053 543.526 M-54.6503 523.601 Q-61.1114 523.601 -64.7717 526.275 Q-68.4638 528.917 -68.4638 533.564 Q-68.4638 538.211 -64.7717 540.884 Q-61.1114 543.526 -54.6503 543.526 Q-48.1891 543.526 -44.497 540.884 Q-40.8367 538.211 -40.8367 533.564 Q-40.8367 528.917 -44.497 526.275 Q-48.1891 523.601 -54.6503 523.601 Z" fill="#000000" fill-rule="evenodd" fill-opacity="1" /><path clip-path="url(#clip860)" d="M 0 0 M-86.3833 511.379 L-86.3833 505.523 L-36.8581 505.523 L-36.8581 511.379 L-86.3833 511.379 Z" fill="#000000" fill-rule="evenodd" fill-opacity="1" /><path clip-path="url(#clip860)" d="M 0 0 M-56.1462 468.888 L-53.2816 468.888 L-53.2816 495.815 Q-47.2342 495.433 -44.0514 492.187 Q-40.9003 488.908 -40.9003 483.084 Q-40.9003 479.71 -41.7279 476.559 Q-42.5554 473.376 -44.2105 470.257 L-38.6723 470.257 Q-37.3355 473.408 -36.6353 476.718 Q-35.9351 480.028 -35.9351 483.434 Q-35.9351 491.964 -40.9003 496.961 Q-45.8656 501.926 -54.332 501.926 Q-63.0848 501.926 -68.2092 497.216 Q-73.3654 492.473 -73.3654 484.452 Q-73.3654 477.259 -68.7185 473.09 Q-64.1033 468.888 -56.1462 468.888 M-57.8649 474.745 Q-62.671 474.808 -65.5356 477.45 Q-68.4002 480.06 -68.4002 484.389 Q-68.4002 489.29 -65.6311 492.25 Q-62.862 495.179 -57.8331 495.624 L-57.8649 474.745 Z" fill="#000000" fill-rule="evenodd" fill-opacity="1" /><path clip-path="url(#clip860)" d="M 0 0 M-72.5061 446.226 L-72.5061 440.02 L-42.5872 428.88 L-72.5061 417.74 L-72.5061 411.533 L-36.8581 424.901 L-36.8581 432.858 L-72.5061 446.226 Z" fill="#000000" fill-rule="evenodd" fill-opacity="1" /><path clip-path="url(#clip860)" d="M 0 0 M-54.7776 389.19 Q-54.7776 396.287 -53.1543 399.025 Q-51.5311 401.762 -47.6162 401.762 Q-44.497 401.762 -42.6509 399.725 Q-40.8367 397.656 -40.8367 394.123 Q-40.8367 389.253 -44.2742 386.325 Q-47.7435 383.365 -53.4726 383.365 L-54.7776 383.365 L-54.7776 389.19 M-57.1965 377.509 L-36.8581 377.509 L-36.8581 383.365 L-42.269 383.365 Q-39.0224 385.37 -37.4628 388.362 Q-35.9351 391.354 -35.9351 395.683 Q-35.9351 401.157 -38.9906 404.404 Q-42.078 407.618 -47.2342 407.618 Q-53.2498 407.618 -56.3053 403.608 Q-59.3609 399.566 -59.3609 391.577 L-59.3609 383.365 L-59.9338 383.365 Q-63.976 383.365 -66.1722 386.039 Q-68.4002 388.68 -68.4002 393.486 Q-68.4002 396.542 -67.6681 399.438 Q-66.9361 402.335 -65.472 405.008 L-70.8828 405.008 Q-72.1241 401.794 -72.7289 398.77 Q-73.3654 395.746 -73.3654 392.882 Q-73.3654 385.147 -69.355 381.328 Q-65.3446 377.509 -57.1965 377.509 Z" fill="#000000" fill-rule="evenodd" fill-opacity="1" /><path clip-path="url(#clip860)" d="M 0 0 M-86.3833 371.366 L-86.3833 365.509 L-36.8581 365.509 L-36.8581 371.366 L-86.3833 371.366 Z" fill="#000000" fill-rule="evenodd" fill-opacity="1" /><path clip-path="url(#clip860)" d="M 0 0 M-50.9263 359.971 L-72.5061 359.971 L-72.5061 354.115 L-51.1491 354.115 Q-46.0884 354.115 -43.5421 352.141 Q-41.0276 350.168 -41.0276 346.221 Q-41.0276 341.479 -44.0514 338.741 Q-47.0751 335.972 -52.2949 335.972 L-72.5061 335.972 L-72.5061 330.116 L-36.8581 330.116 L-36.8581 335.972 L-42.3326 335.972 Q-39.0861 338.105 -37.4947 340.938 Q-35.9351 343.738 -35.9351 347.462 Q-35.9351 353.605 -39.7545 356.788 Q-43.5739 359.971 -50.9263 359.971 M-73.3654 345.234 L-73.3654 345.234 Z" fill="#000000" fill-rule="evenodd" fill-opacity="1" /><path clip-path="url(#clip860)" d="M 0 0 M-56.1462 293.481 L-53.2816 293.481 L-53.2816 320.408 Q-47.2342 320.026 -44.0514 316.78 Q-40.9003 313.501 -40.9003 307.677 Q-40.9003 304.303 -41.7279 301.152 Q-42.5554 297.969 -44.2105 294.85 L-38.6723 294.85 Q-37.3355 298.001 -36.6353 301.311 Q-35.9351 304.621 -35.9351 308.027 Q-35.9351 316.557 -40.9003 321.554 Q-45.8656 326.519 -54.332 326.519 Q-63.0848 326.519 -68.2092 321.809 Q-73.3654 317.066 -73.3654 309.045 Q-73.3654 301.852 -68.7185 297.683 Q-64.1033 293.481 -56.1462 293.481 M-57.8649 299.338 Q-62.671 299.401 -65.5356 302.043 Q-68.4002 304.653 -68.4002 308.982 Q-68.4002 313.883 -65.6311 316.843 Q-62.862 319.772 -57.8331 320.217 L-57.8649 299.338 Z" fill="#000000" fill-rule="evenodd" fill-opacity="1" /><path clip-path="url(#clip860)" d="M 0 0 M1048.63 43.8146 L1022.83 43.8146 Q1023.43 55.9268 1026.23 61.0714 Q1029.71 67.3908 1035.75 67.3908 Q1041.82 67.3908 1045.19 61.0309 Q1048.14 55.4407 1048.63 43.8146 M1048.51 36.928 Q1047.37 25.4235 1045.19 21.3726 Q1041.7 14.9721 1035.75 14.9721 Q1029.55 14.9721 1026.27 21.2916 Q1023.68 26.3957 1022.91 36.928 L1048.51 36.928 M1035.75 8.89579 Q1045.47 8.89579 1051.02 17.4837 Q1056.57 26.0311 1056.57 41.1815 Q1056.57 56.2914 1051.02 64.8793 Q1045.47 73.5077 1035.75 73.5077 Q1025.99 73.5077 1020.48 64.8793 Q1014.93 56.2914 1014.93 41.1815 Q1014.93 26.0311 1020.48 17.4837 Q1025.99 8.89579 1035.75 8.89579 Z" fill="#000000" fill-rule="evenodd" fill-opacity="1" /><polyline clip-path="url(#clip862)" style="stroke:#009af9; stroke-width:4; stroke-opacity:1; fill:none" points="
  170.646,283.252 172.378,644.791 174.11,586.15 175.842,451.019 177.574,451.019 179.306,290.99 181.038,269.033 182.77,275.675 184.502,172.53 186.234,374.436 
  187.966,395.677 189.698,395.677 191.429,419.252 193.161,591.524 194.893,591.524 196.625,475.116 198.357,530.646 200.089,556.797 201.821,548.626 203.553,402.218 
  205.285,402.218 207.017,402.218 208.749,402.218 210.481,329.314 212.213,329.314 213.945,329.314 215.677,329.314 217.409,429.764 219.14,637.423 220.872,607.207 
  222.604,362.955 224.336,307.002 226.068,530.529 227.8,548.755 229.532,323.958 231.264,386.13 232.996,386.13 234.728,312.744 236.46,312.744 238.192,513.239 
  239.924,408.271 241.656,408.271 243.388,408.271 245.119,488.751 246.851,458.734 248.583,310.411 250.315,310.411 252.047,310.411 253.779,511.086 255.511,510.967 
  257.243,323.4 258.975,345.151 260.707,433.14 262.439,300.37 264.171,538.188 265.903,538.188 267.635,445.948 269.367,445.948 271.099,170.155 272.83,240.822 
  274.562,442.135 276.294,494.753 278.026,471.593 279.758,282.383 281.49,282.383 283.222,190.804 284.954,251.196 286.686,275.031 288.418,467.366 290.15,211.677 
  291.882,580.432 293.614,448.564 295.346,464.104 297.078,464.104 298.809,459.961 300.541,532.25 302.273,491.638 304.005,274.443 305.737,267.744 307.469,475.546 
  309.201,496.681 310.933,513.557 312.665,321.245 314.397,579.155 316.129,493.678 317.861,791.001 319.593,308.853 321.325,317.554 323.057,317.554 324.789,317.554 
  326.52,283.584 328.252,480.959 329.984,270.813 331.716,340.983 333.448,340.983 335.18,340.983 336.912,609.539 338.644,186.664 340.376,178.425 342.108,186.48 
  343.84,436.003 345.572,470.509 347.304,522.817 349.036,316.895 350.768,292.428 352.499,377.932 354.231,369.375 355.963,496.768 357.695,547.257 359.427,435.809 
  361.159,435.809 362.891,331.822 364.623,482.965 366.355,214.266 368.087,452.089 369.819,432.197 371.551,425.822 373.283,540.159 375.015,425.735 376.747,392.827 
  378.479,728.561 380.21,308.933 381.942,516.613 383.674,520.115 385.406,523.076 387.138,523.076 388.87,302.083 390.602,423.871 392.334,289.503 394.066,516.945 
  395.798,320.087 397.53,320.087 399.262,320.087 400.994,320.087 402.726,165.167 404.458,290.384 406.189,340.292 407.921,458.732 409.653,458.732 411.385,381.328 
  413.117,381.328 414.849,212.832 416.581,606.81 418.313,587.047 420.045,337.684 421.777,337.684 423.509,337.684 425.241,309.359 426.973,309.359 428.705,527.764 
  430.437,556.325 432.169,431.053 433.9,431.053 435.632,511.102 437.364,209.473 439.096,457.079 440.828,446.438 442.56,496.042 444.292,366.854 446.024,343.251 
  447.756,722.799 449.488,239.967 451.22,316.883 452.952,316.883 454.684,255.953 456.416,472.128 458.148,761.107 459.879,357.111 461.611,357.111 463.343,357.111 
  465.075,491.353 466.807,400.424 468.539,400.424 470.271,400.424 472.003,261.785 473.735,400.974 475.467,400.974 477.199,310.415 478.931,263.013 480.663,158.135 
  482.395,331.191 484.127,331.842 485.859,331.842 487.59,524.226 489.322,524.226 491.054,708.409 492.786,411.789 494.518,343.052 496.25,257.724 497.982,257.724 
  499.714,257.724 501.446,593.382 503.178,416.329 504.91,418.203 506.642,318.051 508.374,318.051 510.106,312.996 511.838,312.996 513.569,295.728 515.301,445.172 
  517.033,445.172 518.765,204.874 520.497,255.536 522.229,241.435 523.961,251.431 525.693,384.871 527.425,644.34 529.157,729.066 530.889,246.877 532.621,236.577 
  534.353,236.577 536.085,134.46 537.817,237.657 539.549,226.788 541.28,458.118 543.012,289.393 544.744,384.833 546.476,457.27 548.208,457.27 549.94,271.807 
  551.672,567.947 553.404,438.114 555.136,393.348 556.868,407.895 558.6,414.858 560.332,414.858 562.064,307.682 563.796,416.644 565.528,416.644 567.259,357.778 
  568.991,357.778 570.723,357.778 572.455,264.143 574.187,254.099 575.919,504.141 577.651,439.33 579.383,325.389 581.115,370.378 582.847,370.378 584.579,158.54 
  586.311,319.051 588.043,319.051 589.775,319.051 591.507,183.586 593.239,484.536 594.97,484.536 596.702,484.536 598.434,180.304 600.166,385.442 601.898,385.442 
  603.63,385.442 605.362,385.442 607.094,385.442 608.826,385.442 610.558,172.726 612.29,292.326 614.022,333.862 615.754,153.377 617.486,210.802 619.218,402.8 
  620.949,402.8 622.681,402.8 624.413,171.511 626.145,460.052 627.877,460.052 629.609,455.988 631.341,163.975 633.073,173.804 634.805,424.274 636.537,424.22 
  638.269,424.22 640.001,228.148 641.733,335.582 643.465,318.733 645.197,635.983 646.929,753.663 648.66,495.308 650.392,573.132 652.124,380.274 653.856,282.107 
  655.588,378.838 657.32,276.805 659.052,300.532 660.784,300.532 662.516,300.532 664.248,224.178 665.98,212.74 667.712,212.74 669.444,647.265 671.176,154.066 
  672.908,218.357 674.639,616.292 676.371,321.679 678.103,441.051 679.835,229.946 681.567,590.7 683.299,304.463 685.031,323.562 686.763,352.686 688.495,252.418 
  690.227,318.435 691.959,440.39 693.691,386.49 695.423,270.756 697.155,277.654 698.887,277.654 700.619,440.325 702.35,440.325 704.082,440.325 705.814,500.589 
  707.546,466.825 709.278,831.458 711.01,326.333 712.742,326.333 714.474,326.333 716.206,326.333 717.938,326.333 719.67,480.954 721.402,236.445 723.134,253.518 
  724.866,642.176 726.598,509.211 728.329,320.873 730.061,302.828 731.793,398.922 733.525,371.213 735.257,371.213 736.989,373.663 738.721,373.663 740.453,203.374 
  742.185,203.374 743.917,253.52 745.649,426.743 747.381,511.458 749.113,93.4457 750.845,579.594 752.577,330.239 754.309,564.263 756.04,224.488 757.772,411.551 
  759.504,326.836 761.236,326.836 762.968,319.381 764.7,269.39 766.432,420.405 768.164,423.153 769.896,423.153 771.628,183.365 773.36,225.645 775.092,399.239 
  776.824,288.351 778.556,135.972 780.288,287.577 782.019,198.954 783.751,292.979 785.483,548.591 787.215,180.493 788.947,188.061 790.679,645.482 792.411,146.813 
  794.143,665.438 795.875,605.414 797.607,445.839 799.339,445.839 801.071,646.59 802.803,419.003 804.535,579.727 806.267,652.839 807.999,723.567 809.73,383.888 
  811.462,383.888 813.194,383.888 814.926,471.497 816.658,552.513 818.39,390.299 820.122,249.088 821.854,503.107 823.586,522.803 825.318,440.964 827.05,198.926 
  828.782,267.974 830.514,489.227 832.246,489.227 833.978,489.227 835.709,318.901 837.441,523.817 839.173,679.851 840.905,626.256 842.637,473.235 844.369,392.469 
  846.101,341.683 847.833,341.683 849.565,481.987 851.297,481.987 853.029,340.745 854.761,459.536 856.493,491.561 858.225,616.162 859.957,498.45 861.689,498.45 
  863.42,246.217 865.152,482.854 866.884,484.397 868.616,484.397 870.348,470.468 872.08,458.24 873.812,375.051 875.544,375.051 877.276,375.051 879.008,375.051 
  880.74,542.992 882.472,296.507 884.204,314.672 885.936,521.259 887.668,483.189 889.399,392.117 891.131,392.117 892.863,282.83 894.595,282.83 896.327,693.545 
  898.059,693.545 899.791,703.699 901.523,703.699 903.255,440.115 904.987,393.663 906.719,541.362 908.451,388.318 910.183,388.318 911.915,388.318 913.647,340.492 
  915.379,175.729 917.11,141.007 918.842,216.357 920.574,225.635 922.306,439.213 924.038,498.985 925.77,498.985 927.502,269.536 929.234,196.083 930.966,245.567 
  932.698,180.261 934.43,183.773 936.162,239.736 937.894,238.097 939.626,238.305 941.358,357.142 943.089,357.142 944.821,357.142 946.553,357.142 948.285,329.165 
  950.017,249.015 951.749,333.872 953.481,422.084 955.213,422.084 956.945,414.354 958.677,414.354 960.409,375.709 962.141,376.791 963.873,376.791 965.605,223.343 
  967.337,223.343 969.069,493.284 970.8,427.878 972.532,529.544 974.264,474.954 975.996,373.412 977.728,373.412 979.46,340.449 981.192,217.468 982.924,478.227 
  984.656,195.455 986.388,167.779 988.12,258.039 989.852,271.405 991.584,470.358 993.316,418.079 995.048,418.079 996.779,418.079 998.511,643.861 1000.24,643.861 
  1001.98,439.839 1003.71,439.839 1005.44,439.839 1007.17,372.907 1008.9,372.907 1010.63,372.907 1012.37,498.151 1014.1,414.884 1015.83,215.923 1017.56,164.886 
  1019.29,491.772 1021.03,491.772 1022.76,330.842 1024.49,378.985 1026.22,702.079 1027.95,243.048 1029.69,198.532 1031.42,415.204 1033.15,415.204 1034.88,415.204 
  1036.61,468.473 1038.35,468.473 1040.08,431.121 1041.81,423.533 1043.54,423.533 1045.27,247.647 1047.01,388.435 1048.74,347.346 1050.47,347.346 1052.2,347.346 
  1053.93,571.877 1055.67,571.877 1057.4,428.467 1059.13,426.943 1060.86,426.943 1062.59,263.018 1064.32,249.708 1066.06,516.609 1067.79,485.294 1069.52,497.046 
  1071.25,497.046 1072.98,410.883 1074.72,410.883 1076.45,250.055 1078.18,179.512 1079.91,272.145 1081.64,386.386 1083.38,547.289 1085.11,547.289 1086.84,414.231 
  1088.57,414.231 1090.3,414.231 1092.04,385.306 1093.77,300.845 1095.5,300.845 1097.23,260.029 1098.96,392.257 1100.7,392.257 1102.43,179.555 1104.16,282.755 
  1105.89,388.781 1107.62,388.781 1109.36,388.781 1111.09,388.781 1112.82,541.968 1114.55,226.641 1116.28,187.691 1118.01,455.668 1119.75,455.668 1121.48,455.668 
  1123.21,455.668 1124.94,351.326 1126.67,183.075 1128.41,240.938 1130.14,258.495 1131.87,388.049 1133.6,537.509 1135.33,390.903 1137.07,390.903 1138.8,390.903 
  1140.53,457.216 1142.26,545.365 1143.99,455.932 1145.73,384.109 1147.46,353.966 1149.19,642.955 1150.92,546.258 1152.65,546.258 1154.39,887.252 1156.12,370.078 
  1157.85,370.078 1159.58,484.934 1161.31,505.262 1163.05,203.758 1164.78,675.721 1166.51,563.821 1168.24,194.624 1169.97,230.831 1171.7,221.143 1173.44,210.752 
  1175.17,628.292 1176.9,595.076 1178.63,556.043 1180.36,291.286 1182.1,648.243 1183.83,158.235 1185.56,218.725 1187.29,247.096 1189.02,247.096 1190.76,483.763 
  1192.49,483.763 1194.22,483.763 1195.95,483.763 1197.68,248.682 1199.42,128.633 1201.15,422.385 1202.88,273.46 1204.61,293.073 1206.34,355.683 1208.08,355.683 
  1209.81,355.683 1211.54,636.196 1213.27,211.675 1215,599.728 1216.74,256.648 1218.47,223.612 1220.2,193.136 1221.93,660.003 1223.66,367.037 1225.39,253.617 
  1227.13,253.617 1228.86,304.301 1230.59,250.923 1232.32,326.064 1234.05,326.064 1235.79,326.064 1237.52,507.746 1239.25,507.746 1240.98,507.746 1242.71,519.281 
  1244.45,419.662 1246.18,572.738 1247.91,383.106 1249.64,440.147 1251.37,440.147 1253.11,479.975 1254.84,189.305 1256.57,189.305 1258.3,313.392 1260.03,302.066 
  1261.77,269.783 1263.5,255.192 1265.23,351.305 1266.96,239.673 1268.69,355.557 1270.43,530.414 1272.16,530.414 1273.89,292.394 1275.62,292.394 1277.35,435.32 
  1279.08,134.126 1280.82,686.731 1282.55,324.753 1284.28,448.697 1286.01,700.059 1287.74,262.338 1289.48,483.537 1291.21,538.05 1292.94,444.335 1294.67,500.036 
  1296.4,500.036 1298.14,252.949 1299.87,529.739 1301.6,553.474 1303.33,593.516 1305.06,300.232 1306.8,300.232 1308.53,227.207 1310.26,199.082 1311.99,220.072 
  1313.72,265.517 1315.46,304.927 1317.19,304.927 1318.92,98.2815 1320.65,541.959 1322.38,183.707 1324.12,180.477 1325.85,507.47 1327.58,235.332 1329.31,223.268 
  1331.04,388.275 1332.77,405.974 1334.51,272.935 1336.24,346.578 1337.97,335.525 1339.7,356.975 1341.43,366.149 1343.17,306.295 1344.9,280.182 1346.63,235.837 
  1348.36,182.831 1350.09,202.292 1351.83,496.689 1353.56,255.194 1355.29,249.844 1357.02,380.764 1358.75,380.764 1360.49,316.194 1362.22,316.194 1363.95,316.194 
  1365.68,151.281 1367.41,210.474 1369.15,339.634 1370.88,289.084 1372.61,341.009 1374.34,341.009 1376.07,315.712 1377.81,298.765 1379.54,211.819 1381.27,211.819 
  1383,475.384 1384.73,462.53 1386.46,445.83 1388.2,331.778 1389.93,331.778 1391.66,331.778 1393.39,331.778 1395.12,341.054 1396.86,198.849 1398.59,500.956 
  1400.32,528.803 1402.05,308.858 1403.78,631.221 1405.52,610.718 1407.25,327.222 1408.98,319.325 1410.71,510.975 1412.44,489.95 1414.18,194.583 1415.91,421.432 
  1417.64,644.364 1419.37,168.314 1421.1,361.207 1422.84,266.386 1424.57,338.624 1426.3,287.979 1428.03,483.683 1429.76,484.079 1431.5,484.079 1433.23,245.092 
  1434.96,398.494 1436.69,340.206 1438.42,280.942 1440.15,280.942 1441.89,280.942 1443.62,270.184 1445.35,297.986 1447.08,570.826 1448.81,351.575 1450.55,349.861 
  1452.28,184.793 1454.01,185.258 1455.74,403.852 1457.47,290.175 1459.21,393.754 1460.94,393.754 1462.67,321.46 1464.4,359.054 1466.13,359.054 1467.87,271.972 
  1469.6,212.393 1471.33,328.239 1473.06,328.239 1474.79,288.643 1476.53,201.558 1478.26,677.825 1479.99,543.776 1481.72,494.339 1483.45,438.129 1485.19,438.129 
  1486.92,335.345 1488.65,740.742 1490.38,605.425 1492.11,242.306 1493.84,208.314 1495.58,400.313 1497.31,400.313 1499.04,480.438 1500.77,218.495 1502.5,363.819 
  1504.24,363.819 1505.97,363.819 1507.7,598.795 1509.43,598.795 1511.16,367.006 1512.9,367.006 1514.63,365.329 1516.36,443.096 1518.09,497.32 1519.82,414.442 
  1521.56,758.232 1523.29,86.9997 1525.02,438.726 1526.75,186.364 1528.48,431.108 1530.22,283.576 1531.95,143.667 1533.68,479.017 1535.41,495.181 1537.14,371.001 
  1538.88,371.001 1540.61,352.794 1542.34,232.932 1544.07,343.849 1545.8,461.534 1547.53,461.534 1549.27,215.972 1551,442.968 1552.73,305.174 1554.46,277.692 
  1556.19,366.937 1557.93,123.739 1559.66,667.561 1561.39,449.819 1563.12,473.477 1564.85,775.873 1566.59,524.03 1568.32,295.738 1570.05,268.625 1571.78,225.521 
  1573.51,225.521 1575.25,399.681 1576.98,355.676 1578.71,355.676 1580.44,355.328 1582.17,355.328 1583.91,361.346 1585.64,298.121 1587.37,234.691 1589.1,443.528 
  1590.83,443.528 1592.57,659.394 1594.3,360.024 1596.03,360.024 1597.76,411.03 1599.49,497.741 1601.22,334.314 1602.96,334.314 1604.69,603.347 1606.42,562.472 
  1608.15,510.083 1609.88,665.597 1611.62,103.246 1613.35,195.221 1615.08,295.224 1616.81,310.415 1618.54,310.415 1620.28,269.337 1622.01,260.065 1623.74,297.757 
  1625.47,178.018 1627.2,219.796 1628.94,219.796 1630.67,213.344 1632.4,599.498 1634.13,599.498 1635.86,175.858 1637.6,382.88 1639.33,536.233 1641.06,673.891 
  1642.79,309.269 1644.52,325.992 1646.26,200.692 1647.99,446.817 1649.72,325.791 1651.45,325.791 1653.18,311.841 1654.91,375.548 1656.65,592.178 1658.38,367.015 
  1660.11,451.101 1661.84,451.101 1663.57,451.101 1665.31,483.635 1667.04,483.635 1668.77,417.297 1670.5,553.412 1672.23,553.412 1673.97,287.321 1675.7,289.391 
  1677.43,289.391 1679.16,385.126 1680.89,309.572 1682.63,257.559 1684.36,311.816 1686.09,412.793 1687.82,412.793 1689.55,412.793 1691.29,587.884 1693.02,610.438 
  1694.75,448.335 1696.48,448.335 1698.21,448.335 1699.95,221.824 1701.68,577.699 1703.41,577.699 1705.14,350.469 1706.87,250.38 1708.6,311.485 1710.34,267.272 
  1712.07,567.633 1713.8,651.332 1715.53,717.862 1717.26,301.944 1719,302.8 1720.73,518.625 1722.46,135.06 1724.19,153.243 1725.92,609.184 1727.66,384.248 
  1729.39,440.422 1731.12,454.552 1732.85,435.157 1734.58,435.157 1736.32,560.681 1738.05,720.383 1739.78,390.084 1741.51,207.867 1743.24,379.024 1744.98,379.024 
  1746.71,287.663 1748.44,591.185 1750.17,131.869 1751.9,149.965 1753.64,467.302 1755.37,467.302 1757.1,485.774 1758.83,460.144 1760.56,529.826 1762.29,515.068 
  1764.03,485.354 1765.76,583.791 1767.49,581.755 1769.22,463.293 1770.95,616.611 1772.69,532.784 1774.42,532.784 1776.15,132.972 1777.88,513.956 1779.61,396.609 
  1781.35,317.152 1783.08,317.152 1784.81,430.108 1786.54,306.538 1788.27,190.836 1790.01,395.633 1791.74,395.633 1793.47,304.355 1795.2,304.355 1796.93,200.495 
  1798.67,156.707 1800.4,225.801 1802.13,637.757 1803.86,185.292 1805.59,433.585 1807.33,321.802 1809.06,255.974 1810.79,491.924 1812.52,245.166 1814.25,773.188 
  1815.98,783.367 1817.72,594.05 1819.45,369.561 1821.18,483.084 1822.91,336.156 1824.64,183.634 1826.38,268.828 1828.11,591.435 1829.84,599.048 1831.57,517.124 
  1833.3,466.293 1835.04,466.293 1836.77,524.6 1838.5,422.759 1840.23,422.759 1841.96,386.187 1843.7,524.736 1845.43,383.267 1847.16,383.267 1848.89,383.267 
  1850.62,383.267 1852.36,141.961 1854.09,652.949 1855.82,381.556 1857.55,551.535 1859.28,278.996 1861.02,550.487 1862.75,516.266 1864.48,271.841 1866.21,329.438 
  1867.94,329.438 1869.67,384.854 1871.41,307.938 1873.14,387.094 1874.87,168.145 1876.6,536.889 1878.33,513.727 1880.07,487.542 1881.8,486.489 1883.53,491.141 
  1885.26,370.903 1886.99,291.587 1888.73,345.795 1890.46,317.317 1892.19,773.272 1893.92,500.876 1895.65,595.069 1897.39,317.704 1899.12,273.696 1900.85,548.146 
  
  "/>
<path clip-path="url(#clip860)" d="
M2118.74 911.26 L3952.76 911.26 L3952.76 62.9921 L2118.74 62.9921  Z
  " fill="#ffffff" fill-rule="evenodd" fill-opacity="1"/>
<defs>
  <clipPath id="clip863">
    <rect x="2118" y="62" width="1835" height="849"/>
  </clipPath>
</defs>
<polyline clip-path="url(#clip863)" style="stroke:#000000; stroke-width:2; stroke-opacity:0.1; fill:none" points="
  2147.94,911.26 2147.94,62.9921 
  "/>
<polyline clip-path="url(#clip863)" style="stroke:#000000; stroke-width:2; stroke-opacity:0.1; fill:none" points="
  2559.06,911.26 2559.06,62.9921 
  "/>
<polyline clip-path="url(#clip863)" style="stroke:#000000; stroke-width:2; stroke-opacity:0.1; fill:none" points="
  2970.17,911.26 2970.17,62.9921 
  "/>
<polyline clip-path="url(#clip863)" style="stroke:#000000; stroke-width:2; stroke-opacity:0.1; fill:none" points="
  3381.29,911.26 3381.29,62.9921 
  "/>
<polyline clip-path="url(#clip863)" style="stroke:#000000; stroke-width:2; stroke-opacity:0.1; fill:none" points="
  3792.41,911.26 3792.41,62.9921 
  "/>
<polyline clip-path="url(#clip860)" style="stroke:#000000; stroke-width:4; stroke-opacity:1; fill:none" points="
  2118.74,911.26 3952.76,911.26 
  "/>
<polyline clip-path="url(#clip860)" style="stroke:#000000; stroke-width:4; stroke-opacity:1; fill:none" points="
  2147.94,911.26 2147.94,901.081 
  "/>
<polyline clip-path="url(#clip860)" style="stroke:#000000; stroke-width:4; stroke-opacity:1; fill:none" points="
  2559.06,911.26 2559.06,901.081 
  "/>
<polyline clip-path="url(#clip860)" style="stroke:#000000; stroke-width:4; stroke-opacity:1; fill:none" points="
  2970.17,911.26 2970.17,901.081 
  "/>
<polyline clip-path="url(#clip860)" style="stroke:#000000; stroke-width:4; stroke-opacity:1; fill:none" points="
  3381.29,911.26 3381.29,901.081 
  "/>
<polyline clip-path="url(#clip860)" style="stroke:#000000; stroke-width:4; stroke-opacity:1; fill:none" points="
  3792.41,911.26 3792.41,901.081 
  "/>
<path clip-path="url(#clip860)" d="M 0 0 M2115.95 953.251 Q2112.34 953.251 2110.51 956.815 Q2108.71 960.357 2108.71 967.487 Q2108.71 974.593 2110.51 978.158 Q2112.34 981.699 2115.95 981.699 Q2119.59 981.699 2121.39 978.158 Q2123.22 974.593 2123.22 967.487 Q2123.22 960.357 2121.39 956.815 Q2119.59 953.251 2115.95 953.251 M2115.95 949.547 Q2121.76 949.547 2124.82 954.153 Q2127.9 958.737 2127.9 967.487 Q2127.9 976.213 2124.82 980.82 Q2121.76 985.403 2115.95 985.403 Q2110.14 985.403 2107.06 980.82 Q2104.01 976.213 2104.01 967.487 Q2104.01 958.737 2107.06 954.153 Q2110.14 949.547 2115.95 949.547 Z" fill="#000000" fill-rule="evenodd" fill-opacity="1" /><path clip-path="url(#clip860)" d="M 0 0 M2132.97 978.852 L2137.85 978.852 L2137.85 984.732 L2132.97 984.732 L2132.97 978.852 Z" fill="#000000" fill-rule="evenodd" fill-opacity="1" /><path clip-path="url(#clip860)" d="M 0 0 M2152.92 953.251 Q2149.31 953.251 2147.48 956.815 Q2145.68 960.357 2145.68 967.487 Q2145.68 974.593 2147.48 978.158 Q2149.31 981.699 2152.92 981.699 Q2156.55 981.699 2158.36 978.158 Q2160.19 974.593 2160.19 967.487 Q2160.19 960.357 2158.36 956.815 Q2156.55 953.251 2152.92 953.251 M2152.92 949.547 Q2158.73 949.547 2161.79 954.153 Q2164.86 958.737 2164.86 967.487 Q2164.86 976.213 2161.79 980.82 Q2158.73 985.403 2152.92 985.403 Q2147.11 985.403 2144.03 980.82 Q2140.98 976.213 2140.98 967.487 Q2140.98 958.737 2144.03 954.153 Q2147.11 949.547 2152.92 949.547 Z" fill="#000000" fill-rule="evenodd" fill-opacity="1" /><path clip-path="url(#clip860)" d="M 0 0 M2179.93 953.251 Q2176.32 953.251 2174.49 956.815 Q2172.69 960.357 2172.69 967.487 Q2172.69 974.593 2174.49 978.158 Q2176.32 981.699 2179.93 981.699 Q2183.57 981.699 2185.37 978.158 Q2187.2 974.593 2187.2 967.487 Q2187.2 960.357 2185.37 956.815 Q2183.57 953.251 2179.93 953.251 M2179.93 949.547 Q2185.74 949.547 2188.8 954.153 Q2191.88 958.737 2191.88 967.487 Q2191.88 976.213 2188.8 980.82 Q2185.74 985.403 2179.93 985.403 Q2174.12 985.403 2171.05 980.82 Q2167.99 976.213 2167.99 967.487 Q2167.99 958.737 2171.05 954.153 Q2174.12 949.547 2179.93 949.547 Z" fill="#000000" fill-rule="evenodd" fill-opacity="1" /><path clip-path="url(#clip860)" d="M 0 0 M2528.36 953.251 Q2524.75 953.251 2522.93 956.815 Q2521.12 960.357 2521.12 967.487 Q2521.12 974.593 2522.93 978.158 Q2524.75 981.699 2528.36 981.699 Q2532 981.699 2533.8 978.158 Q2535.63 974.593 2535.63 967.487 Q2535.63 960.357 2533.8 956.815 Q2532 953.251 2528.36 953.251 M2528.36 949.547 Q2534.18 949.547 2537.23 954.153 Q2540.31 958.737 2540.31 967.487 Q2540.31 976.213 2537.23 980.82 Q2534.18 985.403 2528.36 985.403 Q2522.55 985.403 2519.48 980.82 Q2516.42 976.213 2516.42 967.487 Q2516.42 958.737 2519.48 954.153 Q2522.55 949.547 2528.36 949.547 Z" fill="#000000" fill-rule="evenodd" fill-opacity="1" /><path clip-path="url(#clip860)" d="M 0 0 M2545.38 978.852 L2550.26 978.852 L2550.26 984.732 L2545.38 984.732 L2545.38 978.852 Z" fill="#000000" fill-rule="evenodd" fill-opacity="1" /><path clip-path="url(#clip860)" d="M 0 0 M2559.36 980.797 L2575.68 980.797 L2575.68 984.732 L2553.74 984.732 L2553.74 980.797 Q2556.4 978.042 2560.98 973.412 Q2565.59 968.76 2566.77 967.417 Q2569.01 964.894 2569.89 963.158 Q2570.8 961.399 2570.8 959.709 Q2570.8 956.954 2568.85 955.218 Q2566.93 953.482 2563.83 953.482 Q2561.63 953.482 2559.17 954.246 Q2556.74 955.01 2553.97 956.561 L2553.97 951.839 Q2556.79 950.704 2559.24 950.126 Q2561.7 949.547 2563.74 949.547 Q2569.11 949.547 2572.3 952.232 Q2575.49 954.917 2575.49 959.408 Q2575.49 961.538 2574.68 963.459 Q2573.9 965.357 2571.79 967.95 Q2571.21 968.621 2568.11 971.838 Q2565.01 975.033 2559.36 980.797 Z" fill="#000000" fill-rule="evenodd" fill-opacity="1" /><path clip-path="url(#clip860)" d="M 0 0 M2580.8 950.172 L2599.15 950.172 L2599.15 954.107 L2585.08 954.107 L2585.08 962.579 Q2586.1 962.232 2587.11 962.07 Q2588.13 961.885 2589.15 961.885 Q2594.94 961.885 2598.32 965.056 Q2601.7 968.227 2601.7 973.644 Q2601.7 979.223 2598.23 982.324 Q2594.75 985.403 2588.43 985.403 Q2586.26 985.403 2583.99 985.033 Q2581.74 984.662 2579.34 983.922 L2579.34 979.223 Q2581.42 980.357 2583.64 980.912 Q2585.86 981.468 2588.34 981.468 Q2592.35 981.468 2594.68 979.362 Q2597.02 977.255 2597.02 973.644 Q2597.02 970.033 2594.68 967.926 Q2592.35 965.82 2588.34 965.82 Q2586.47 965.82 2584.59 966.237 Q2582.74 966.653 2580.8 967.533 L2580.8 950.172 Z" fill="#000000" fill-rule="evenodd" fill-opacity="1" /><path clip-path="url(#clip860)" d="M 0 0 M2938.68 953.251 Q2935.07 953.251 2933.24 956.815 Q2931.44 960.357 2931.44 967.487 Q2931.44 974.593 2933.24 978.158 Q2935.07 981.699 2938.68 981.699 Q2942.32 981.699 2944.12 978.158 Q2945.95 974.593 2945.95 967.487 Q2945.95 960.357 2944.12 956.815 Q2942.32 953.251 2938.68 953.251 M2938.68 949.547 Q2944.49 949.547 2947.55 954.153 Q2950.63 958.737 2950.63 967.487 Q2950.63 976.213 2947.55 980.82 Q2944.49 985.403 2938.68 985.403 Q2932.87 985.403 2929.79 980.82 Q2926.74 976.213 2926.74 967.487 Q2926.74 958.737 2929.79 954.153 Q2932.87 949.547 2938.68 949.547 Z" fill="#000000" fill-rule="evenodd" fill-opacity="1" /><path clip-path="url(#clip860)" d="M 0 0 M2955.7 978.852 L2960.58 978.852 L2960.58 984.732 L2955.7 984.732 L2955.7 978.852 Z" fill="#000000" fill-rule="evenodd" fill-opacity="1" /><path clip-path="url(#clip860)" d="M 0 0 M2965.7 950.172 L2984.05 950.172 L2984.05 954.107 L2969.98 954.107 L2969.98 962.579 Q2971 962.232 2972.02 962.07 Q2973.03 961.885 2974.05 961.885 Q2979.84 961.885 2983.22 965.056 Q2986.6 968.227 2986.6 973.644 Q2986.6 979.223 2983.13 982.324 Q2979.65 985.403 2973.33 985.403 Q2971.16 985.403 2968.89 985.033 Q2966.64 984.662 2964.24 983.922 L2964.24 979.223 Q2966.32 980.357 2968.54 980.912 Q2970.77 981.468 2973.24 981.468 Q2977.25 981.468 2979.58 979.362 Q2981.92 977.255 2981.92 973.644 Q2981.92 970.033 2979.58 967.926 Q2977.25 965.82 2973.24 965.82 Q2971.37 965.82 2969.49 966.237 Q2967.64 966.653 2965.7 967.533 L2965.7 950.172 Z" fill="#000000" fill-rule="evenodd" fill-opacity="1" /><path clip-path="url(#clip860)" d="M 0 0 M3001.67 953.251 Q2998.06 953.251 2996.23 956.815 Q2994.42 960.357 2994.42 967.487 Q2994.42 974.593 2996.23 978.158 Q2998.06 981.699 3001.67 981.699 Q3005.3 981.699 3007.11 978.158 Q3008.94 974.593 3008.94 967.487 Q3008.94 960.357 3007.11 956.815 Q3005.3 953.251 3001.67 953.251 M3001.67 949.547 Q3007.48 949.547 3010.53 954.153 Q3013.61 958.737 3013.61 967.487 Q3013.61 976.213 3010.53 980.82 Q3007.48 985.403 3001.67 985.403 Q2995.86 985.403 2992.78 980.82 Q2989.72 976.213 2989.72 967.487 Q2989.72 958.737 2992.78 954.153 Q2995.86 949.547 3001.67 949.547 Z" fill="#000000" fill-rule="evenodd" fill-opacity="1" /><path clip-path="url(#clip860)" d="M 0 0 M3350.25 953.251 Q3346.64 953.251 3344.81 956.815 Q3343 960.357 3343 967.487 Q3343 974.593 3344.81 978.158 Q3346.64 981.699 3350.25 981.699 Q3353.88 981.699 3355.69 978.158 Q3357.52 974.593 3357.52 967.487 Q3357.52 960.357 3355.69 956.815 Q3353.88 953.251 3350.25 953.251 M3350.25 949.547 Q3356.06 949.547 3359.11 954.153 Q3362.19 958.737 3362.19 967.487 Q3362.19 976.213 3359.11 980.82 Q3356.06 985.403 3350.25 985.403 Q3344.44 985.403 3341.36 980.82 Q3338.3 976.213 3338.3 967.487 Q3338.3 958.737 3341.36 954.153 Q3344.44 949.547 3350.25 949.547 Z" fill="#000000" fill-rule="evenodd" fill-opacity="1" /><path clip-path="url(#clip860)" d="M 0 0 M3367.26 978.852 L3372.15 978.852 L3372.15 984.732 L3367.26 984.732 L3367.26 978.852 Z" fill="#000000" fill-rule="evenodd" fill-opacity="1" /><path clip-path="url(#clip860)" d="M 0 0 M3376.04 950.172 L3398.26 950.172 L3398.26 952.163 L3385.71 984.732 L3380.83 984.732 L3392.63 954.107 L3376.04 954.107 L3376.04 950.172 Z" fill="#000000" fill-rule="evenodd" fill-opacity="1" /><path clip-path="url(#clip860)" d="M 0 0 M3403.37 950.172 L3421.73 950.172 L3421.73 954.107 L3407.66 954.107 L3407.66 962.579 Q3408.67 962.232 3409.69 962.07 Q3410.71 961.885 3411.73 961.885 Q3417.52 961.885 3420.9 965.056 Q3424.28 968.227 3424.28 973.644 Q3424.28 979.223 3420.8 982.324 Q3417.33 985.403 3411.01 985.403 Q3408.84 985.403 3406.57 985.033 Q3404.32 984.662 3401.92 983.922 L3401.92 979.223 Q3404 980.357 3406.22 980.912 Q3408.44 981.468 3410.92 981.468 Q3414.92 981.468 3417.26 979.362 Q3419.6 977.255 3419.6 973.644 Q3419.6 970.033 3417.26 967.926 Q3414.92 965.82 3410.92 965.82 Q3409.04 965.82 3407.17 966.237 Q3405.32 966.653 3403.37 967.533 L3403.37 950.172 Z" fill="#000000" fill-rule="evenodd" fill-opacity="1" /><path clip-path="url(#clip860)" d="M 0 0 M3750.8 980.797 L3758.44 980.797 L3758.44 954.431 L3750.13 956.098 L3750.13 951.839 L3758.39 950.172 L3763.07 950.172 L3763.07 980.797 L3770.7 980.797 L3770.7 984.732 L3750.8 984.732 L3750.8 980.797 Z" fill="#000000" fill-rule="evenodd" fill-opacity="1" /><path clip-path="url(#clip860)" d="M 0 0 M3775.77 978.852 L3780.66 978.852 L3780.66 984.732 L3775.77 984.732 L3775.77 978.852 Z" fill="#000000" fill-rule="evenodd" fill-opacity="1" /><path clip-path="url(#clip860)" d="M 0 0 M3795.73 953.251 Q3792.12 953.251 3790.29 956.815 Q3788.48 960.357 3788.48 967.487 Q3788.48 974.593 3790.29 978.158 Q3792.12 981.699 3795.73 981.699 Q3799.36 981.699 3801.17 978.158 Q3803 974.593 3803 967.487 Q3803 960.357 3801.17 956.815 Q3799.36 953.251 3795.73 953.251 M3795.73 949.547 Q3801.54 949.547 3804.59 954.153 Q3807.67 958.737 3807.67 967.487 Q3807.67 976.213 3804.59 980.82 Q3801.54 985.403 3795.73 985.403 Q3789.92 985.403 3786.84 980.82 Q3783.78 976.213 3783.78 967.487 Q3783.78 958.737 3786.84 954.153 Q3789.92 949.547 3795.73 949.547 Z" fill="#000000" fill-rule="evenodd" fill-opacity="1" /><path clip-path="url(#clip860)" d="M 0 0 M3822.74 953.251 Q3819.13 953.251 3817.3 956.815 Q3815.5 960.357 3815.5 967.487 Q3815.5 974.593 3817.3 978.158 Q3819.13 981.699 3822.74 981.699 Q3826.38 981.699 3828.18 978.158 Q3830.01 974.593 3830.01 967.487 Q3830.01 960.357 3828.18 956.815 Q3826.38 953.251 3822.74 953.251 M3822.74 949.547 Q3828.55 949.547 3831.61 954.153 Q3834.69 958.737 3834.69 967.487 Q3834.69 976.213 3831.61 980.82 Q3828.55 985.403 3822.74 985.403 Q3816.93 985.403 3813.85 980.82 Q3810.8 976.213 3810.8 967.487 Q3810.8 958.737 3813.85 954.153 Q3816.93 949.547 3822.74 949.547 Z" fill="#000000" fill-rule="evenodd" fill-opacity="1" /><path clip-path="url(#clip860)" d="M 0 0 M2872.69 1014.16 L2872.69 1020.43 Q2869.03 1018.68 2865.78 1017.82 Q2862.54 1016.96 2859.51 1016.96 Q2854.26 1016.96 2851.4 1019 Q2848.56 1021.04 2848.56 1024.79 Q2848.56 1027.95 2850.44 1029.57 Q2852.35 1031.16 2857.64 1032.15 L2861.52 1032.94 Q2868.71 1034.31 2872.12 1037.78 Q2875.56 1041.22 2875.56 1047.01 Q2875.56 1053.92 2870.91 1057.48 Q2866.29 1061.05 2857.35 1061.05 Q2853.98 1061.05 2850.16 1060.28 Q2846.37 1059.52 2842.29 1058.02 L2842.29 1051.4 Q2846.21 1053.6 2849.96 1054.71 Q2853.72 1055.83 2857.35 1055.83 Q2862.86 1055.83 2865.85 1053.66 Q2868.84 1051.5 2868.84 1047.49 Q2868.84 1043.99 2866.67 1042.01 Q2864.54 1040.04 2859.64 1039.05 L2855.73 1038.29 Q2848.53 1036.86 2845.32 1033.8 Q2842.1 1030.75 2842.1 1025.3 Q2842.1 1019 2846.53 1015.37 Q2850.98 1011.74 2858.78 1011.74 Q2862.12 1011.74 2865.59 1012.35 Q2869.06 1012.95 2872.69 1014.16 Z" fill="#000000" fill-rule="evenodd" fill-opacity="1" /><path clip-path="url(#clip860)" d="M 0 0 M2897.9 1042.2 Q2890.8 1042.2 2888.06 1043.83 Q2885.33 1045.45 2885.33 1049.37 Q2885.33 1052.48 2887.36 1054.33 Q2889.43 1056.15 2892.97 1056.15 Q2897.83 1056.15 2900.76 1052.71 Q2903.72 1049.24 2903.72 1043.51 L2903.72 1042.2 L2897.9 1042.2 M2909.58 1039.79 L2909.58 1060.12 L2903.72 1060.12 L2903.72 1054.71 Q2901.72 1057.96 2898.73 1059.52 Q2895.73 1061.05 2891.41 1061.05 Q2885.93 1061.05 2882.68 1057.99 Q2879.47 1054.9 2879.47 1049.75 Q2879.47 1043.73 2883.48 1040.68 Q2887.52 1037.62 2895.51 1037.62 L2903.72 1037.62 L2903.72 1037.05 Q2903.72 1033.01 2901.05 1030.81 Q2898.41 1028.58 2893.6 1028.58 Q2890.55 1028.58 2887.65 1029.31 Q2884.75 1030.05 2882.08 1031.51 L2882.08 1026.1 Q2885.29 1024.86 2888.32 1024.25 Q2891.34 1023.62 2894.21 1023.62 Q2901.94 1023.62 2905.76 1027.63 Q2909.58 1031.64 2909.58 1039.79 Z" fill="#000000" fill-rule="evenodd" fill-opacity="1" /><path clip-path="url(#clip860)" d="M 0 0 M2943.48 1031.32 Q2945.67 1027.37 2948.73 1025.49 Q2951.78 1023.62 2955.92 1023.62 Q2961.49 1023.62 2964.52 1027.53 Q2967.54 1031.41 2967.54 1038.61 L2967.54 1060.12 L2961.65 1060.12 L2961.65 1038.8 Q2961.65 1033.67 2959.84 1031.19 Q2958.02 1028.71 2954.3 1028.71 Q2949.75 1028.71 2947.11 1031.73 Q2944.46 1034.76 2944.46 1039.98 L2944.46 1060.12 L2938.58 1060.12 L2938.58 1038.8 Q2938.58 1033.64 2936.76 1031.19 Q2934.95 1028.71 2931.16 1028.71 Q2926.67 1028.71 2924.03 1031.76 Q2921.39 1034.79 2921.39 1039.98 L2921.39 1060.12 L2915.5 1060.12 L2915.5 1024.48 L2921.39 1024.48 L2921.39 1030.01 Q2923.39 1026.74 2926.19 1025.18 Q2929 1023.62 2932.85 1023.62 Q2936.73 1023.62 2939.43 1025.59 Q2942.17 1027.56 2943.48 1031.32 Z" fill="#000000" fill-rule="evenodd" fill-opacity="1" /><path clip-path="url(#clip860)" d="M 0 0 M2979.35 1054.78 L2979.35 1073.68 L2973.46 1073.68 L2973.46 1024.48 L2979.35 1024.48 L2979.35 1029.89 Q2981.19 1026.7 2983.99 1025.18 Q2986.83 1023.62 2990.74 1023.62 Q2997.24 1023.62 3001.28 1028.77 Q3005.35 1033.93 3005.35 1042.33 Q3005.35 1050.73 3001.28 1055.89 Q2997.24 1061.05 2990.74 1061.05 Q2986.83 1061.05 2983.99 1059.52 Q2981.19 1057.96 2979.35 1054.78 M2999.27 1042.33 Q2999.27 1035.87 2996.6 1032.21 Q2993.96 1028.52 2989.31 1028.52 Q2984.66 1028.52 2981.99 1032.21 Q2979.35 1035.87 2979.35 1042.33 Q2979.35 1048.79 2981.99 1052.48 Q2984.66 1056.15 2989.31 1056.15 Q2993.96 1056.15 2996.6 1052.48 Q2999.27 1048.79 2999.27 1042.33 Z" fill="#000000" fill-rule="evenodd" fill-opacity="1" /><path clip-path="url(#clip860)" d="M 0 0 M3011.49 1010.6 L3017.35 1010.6 L3017.35 1060.12 L3011.49 1060.12 L3011.49 1010.6 Z" fill="#000000" fill-rule="evenodd" fill-opacity="1" /><path clip-path="url(#clip860)" d="M 0 0 M3053.99 1040.84 L3053.99 1043.7 L3027.06 1043.7 Q3027.44 1049.75 3030.69 1052.93 Q3033.97 1056.08 3039.79 1056.08 Q3043.16 1056.08 3046.32 1055.25 Q3049.5 1054.43 3052.62 1052.77 L3052.62 1058.31 Q3049.47 1059.65 3046.16 1060.35 Q3042.85 1061.05 3039.44 1061.05 Q3030.91 1061.05 3025.91 1056.08 Q3020.95 1051.12 3020.95 1042.65 Q3020.95 1033.9 3025.66 1028.77 Q3030.4 1023.62 3038.42 1023.62 Q3045.61 1023.62 3049.78 1028.26 Q3053.99 1032.88 3053.99 1040.84 M3048.13 1039.12 Q3048.07 1034.31 3045.42 1031.45 Q3042.81 1028.58 3038.49 1028.58 Q3033.58 1028.58 3030.62 1031.35 Q3027.7 1034.12 3027.25 1039.15 L3048.13 1039.12 Z" fill="#000000" fill-rule="evenodd" fill-opacity="1" /><path clip-path="url(#clip860)" d="M 0 0 M3076.65 1024.48 L3082.85 1024.48 L3093.99 1054.39 L3105.13 1024.48 L3111.34 1024.48 L3097.97 1060.12 L3090.02 1060.12 L3076.65 1024.48 Z" fill="#000000" fill-rule="evenodd" fill-opacity="1" /><path clip-path="url(#clip860)" d="M 0 0 M3133.68 1042.2 Q3126.59 1042.2 3123.85 1043.83 Q3121.11 1045.45 3121.11 1049.37 Q3121.11 1052.48 3123.15 1054.33 Q3125.22 1056.15 3128.75 1056.15 Q3133.62 1056.15 3136.55 1052.71 Q3139.51 1049.24 3139.51 1043.51 L3139.51 1042.2 L3133.68 1042.2 M3145.37 1039.79 L3145.37 1060.12 L3139.51 1060.12 L3139.51 1054.71 Q3137.5 1057.96 3134.51 1059.52 Q3131.52 1061.05 3127.19 1061.05 Q3121.72 1061.05 3118.47 1057.99 Q3115.26 1054.9 3115.26 1049.75 Q3115.26 1043.73 3119.27 1040.68 Q3123.31 1037.62 3131.3 1037.62 L3139.51 1037.62 L3139.51 1037.05 Q3139.51 1033.01 3136.84 1030.81 Q3134.19 1028.58 3129.39 1028.58 Q3126.33 1028.58 3123.44 1029.31 Q3120.54 1030.05 3117.87 1031.51 L3117.87 1026.1 Q3121.08 1024.86 3124.1 1024.25 Q3127.13 1023.62 3129.99 1023.62 Q3137.73 1023.62 3141.55 1027.63 Q3145.37 1031.64 3145.37 1039.79 Z" fill="#000000" fill-rule="evenodd" fill-opacity="1" /><path clip-path="url(#clip860)" d="M 0 0 M3151.51 1010.6 L3157.36 1010.6 L3157.36 1060.12 L3151.51 1060.12 L3151.51 1010.6 Z" fill="#000000" fill-rule="evenodd" fill-opacity="1" /><path clip-path="url(#clip860)" d="M 0 0 M3162.9 1046.06 L3162.9 1024.48 L3168.76 1024.48 L3168.76 1045.83 Q3168.76 1050.89 3170.73 1053.44 Q3172.71 1055.95 3176.65 1055.95 Q3181.4 1055.95 3184.13 1052.93 Q3186.9 1049.91 3186.9 1044.69 L3186.9 1024.48 L3192.76 1024.48 L3192.76 1060.12 L3186.9 1060.12 L3186.9 1054.65 Q3184.77 1057.9 3181.94 1059.49 Q3179.14 1061.05 3175.41 1061.05 Q3169.27 1061.05 3166.09 1057.23 Q3162.9 1053.41 3162.9 1046.06 M3177.64 1023.62 L3177.64 1023.62 Z" fill="#000000" fill-rule="evenodd" fill-opacity="1" /><path clip-path="url(#clip860)" d="M 0 0 M3229.39 1040.84 L3229.39 1043.7 L3202.47 1043.7 Q3202.85 1049.75 3206.09 1052.93 Q3209.37 1056.08 3215.2 1056.08 Q3218.57 1056.08 3221.72 1055.25 Q3224.91 1054.43 3228.02 1052.77 L3228.02 1058.31 Q3224.87 1059.65 3221.56 1060.35 Q3218.25 1061.05 3214.85 1061.05 Q3206.32 1061.05 3201.32 1056.08 Q3196.35 1051.12 3196.35 1042.65 Q3196.35 1033.9 3201.07 1028.77 Q3205.81 1023.62 3213.83 1023.62 Q3221.02 1023.62 3225.19 1028.26 Q3229.39 1032.88 3229.39 1040.84 M3223.54 1039.12 Q3223.47 1034.31 3220.83 1031.45 Q3218.22 1028.58 3213.89 1028.58 Q3208.99 1028.58 3206.03 1031.35 Q3203.1 1034.12 3202.66 1039.15 L3223.54 1039.12 Z" fill="#000000" fill-rule="evenodd" fill-opacity="1" /><polyline clip-path="url(#clip863)" style="stroke:#000000; stroke-width:2; stroke-opacity:0.1; fill:none" points="
  2118.74,887.255 3952.76,887.255 
  "/>
<polyline clip-path="url(#clip863)" style="stroke:#000000; stroke-width:2; stroke-opacity:0.1; fill:none" points="
  2118.74,744.263 3952.76,744.263 
  "/>
<polyline clip-path="url(#clip863)" style="stroke:#000000; stroke-width:2; stroke-opacity:0.1; fill:none" points="
  2118.74,601.272 3952.76,601.272 
  "/>
<polyline clip-path="url(#clip863)" style="stroke:#000000; stroke-width:2; stroke-opacity:0.1; fill:none" points="
  2118.74,458.28 3952.76,458.28 
  "/>
<polyline clip-path="url(#clip863)" style="stroke:#000000; stroke-width:2; stroke-opacity:0.1; fill:none" points="
  2118.74,315.288 3952.76,315.288 
  "/>
<polyline clip-path="url(#clip863)" style="stroke:#000000; stroke-width:2; stroke-opacity:0.1; fill:none" points="
  2118.74,172.297 3952.76,172.297 
  "/>
<polyline clip-path="url(#clip860)" style="stroke:#000000; stroke-width:4; stroke-opacity:1; fill:none" points="
  2118.74,911.26 2118.74,62.9921 
  "/>
<polyline clip-path="url(#clip860)" style="stroke:#000000; stroke-width:4; stroke-opacity:1; fill:none" points="
  2118.74,887.255 2140.75,887.255 
  "/>
<polyline clip-path="url(#clip860)" style="stroke:#000000; stroke-width:4; stroke-opacity:1; fill:none" points="
  2118.74,744.263 2140.75,744.263 
  "/>
<polyline clip-path="url(#clip860)" style="stroke:#000000; stroke-width:4; stroke-opacity:1; fill:none" points="
  2118.74,601.272 2140.75,601.272 
  "/>
<polyline clip-path="url(#clip860)" style="stroke:#000000; stroke-width:4; stroke-opacity:1; fill:none" points="
  2118.74,458.28 2140.75,458.28 
  "/>
<polyline clip-path="url(#clip860)" style="stroke:#000000; stroke-width:4; stroke-opacity:1; fill:none" points="
  2118.74,315.288 2140.75,315.288 
  "/>
<polyline clip-path="url(#clip860)" style="stroke:#000000; stroke-width:4; stroke-opacity:1; fill:none" points="
  2118.74,172.297 2140.75,172.297 
  "/>
<path clip-path="url(#clip860)" d="M 0 0 M2009.83 873.053 Q2006.22 873.053 2004.39 876.618 Q2002.58 880.16 2002.58 887.289 Q2002.58 894.396 2004.39 897.961 Q2006.22 901.502 2009.83 901.502 Q2013.46 901.502 2015.27 897.961 Q2017.1 894.396 2017.1 887.289 Q2017.1 880.16 2015.27 876.618 Q2013.46 873.053 2009.83 873.053 M2009.83 869.35 Q2015.64 869.35 2018.69 873.956 Q2021.77 878.539 2021.77 887.289 Q2021.77 896.016 2018.69 900.623 Q2015.64 905.206 2009.83 905.206 Q2004.02 905.206 2000.94 900.623 Q1997.88 896.016 1997.88 887.289 Q1997.88 878.539 2000.94 873.956 Q2004.02 869.35 2009.83 869.35 Z" fill="#000000" fill-rule="evenodd" fill-opacity="1" /><path clip-path="url(#clip860)" d="M 0 0 M2026.84 898.655 L2031.73 898.655 L2031.73 904.535 L2026.84 904.535 L2026.84 898.655 Z" fill="#000000" fill-rule="evenodd" fill-opacity="1" /><path clip-path="url(#clip860)" d="M 0 0 M2046.8 873.053 Q2043.18 873.053 2041.36 876.618 Q2039.55 880.16 2039.55 887.289 Q2039.55 894.396 2041.36 897.961 Q2043.18 901.502 2046.8 901.502 Q2050.43 901.502 2052.24 897.961 Q2054.06 894.396 2054.06 887.289 Q2054.06 880.16 2052.24 876.618 Q2050.43 873.053 2046.8 873.053 M2046.8 869.35 Q2052.61 869.35 2055.66 873.956 Q2058.74 878.539 2058.74 887.289 Q2058.74 896.016 2055.66 900.623 Q2052.61 905.206 2046.8 905.206 Q2040.99 905.206 2037.91 900.623 Q2034.85 896.016 2034.85 887.289 Q2034.85 878.539 2037.91 873.956 Q2040.99 869.35 2046.8 869.35 Z" fill="#000000" fill-rule="evenodd" fill-opacity="1" /><path clip-path="url(#clip860)" d="M 0 0 M2010.82 730.062 Q2007.21 730.062 2005.38 733.627 Q2003.58 737.168 2003.58 744.298 Q2003.58 751.404 2005.38 754.969 Q2007.21 758.511 2010.82 758.511 Q2014.46 758.511 2016.26 754.969 Q2018.09 751.404 2018.09 744.298 Q2018.09 737.168 2016.26 733.627 Q2014.46 730.062 2010.82 730.062 M2010.82 726.358 Q2016.63 726.358 2019.69 730.965 Q2022.77 735.548 2022.77 744.298 Q2022.77 753.025 2019.69 757.631 Q2016.63 762.214 2010.82 762.214 Q2005.01 762.214 2001.93 757.631 Q1998.88 753.025 1998.88 744.298 Q1998.88 735.548 2001.93 730.965 Q2005.01 726.358 2010.82 726.358 Z" fill="#000000" fill-rule="evenodd" fill-opacity="1" /><path clip-path="url(#clip860)" d="M 0 0 M2027.84 755.664 L2032.72 755.664 L2032.72 761.543 L2027.84 761.543 L2027.84 755.664 Z" fill="#000000" fill-rule="evenodd" fill-opacity="1" /><path clip-path="url(#clip860)" d="M 0 0 M2037.84 726.983 L2056.19 726.983 L2056.19 730.918 L2042.12 730.918 L2042.12 739.39 Q2043.14 739.043 2044.16 738.881 Q2045.18 738.696 2046.19 738.696 Q2051.98 738.696 2055.36 741.867 Q2058.74 745.039 2058.74 750.455 Q2058.74 756.034 2055.27 759.136 Q2051.8 762.214 2045.48 762.214 Q2043.3 762.214 2041.03 761.844 Q2038.79 761.474 2036.38 760.733 L2036.38 756.034 Q2038.46 757.168 2040.68 757.724 Q2042.91 758.279 2045.38 758.279 Q2049.39 758.279 2051.73 756.173 Q2054.06 754.066 2054.06 750.455 Q2054.06 746.844 2051.73 744.738 Q2049.39 742.631 2045.38 742.631 Q2043.51 742.631 2041.63 743.048 Q2039.78 743.464 2037.84 744.344 L2037.84 726.983 Z" fill="#000000" fill-rule="evenodd" fill-opacity="1" /><path clip-path="url(#clip860)" d="M 0 0 M2001.87 614.616 L2009.5 614.616 L2009.5 588.251 L2001.19 589.917 L2001.19 585.658 L2009.46 583.992 L2014.13 583.992 L2014.13 614.616 L2021.77 614.616 L2021.77 618.552 L2001.87 618.552 L2001.87 614.616 Z" fill="#000000" fill-rule="evenodd" fill-opacity="1" /><path clip-path="url(#clip860)" d="M 0 0 M2026.84 612.672 L2031.73 612.672 L2031.73 618.552 L2026.84 618.552 L2026.84 612.672 Z" fill="#000000" fill-rule="evenodd" fill-opacity="1" /><path clip-path="url(#clip860)" d="M 0 0 M2046.8 587.07 Q2043.18 587.07 2041.36 590.635 Q2039.55 594.177 2039.55 601.306 Q2039.55 608.413 2041.36 611.977 Q2043.18 615.519 2046.8 615.519 Q2050.43 615.519 2052.24 611.977 Q2054.06 608.413 2054.06 601.306 Q2054.06 594.177 2052.24 590.635 Q2050.43 587.07 2046.8 587.07 M2046.8 583.367 Q2052.61 583.367 2055.66 587.973 Q2058.74 592.556 2058.74 601.306 Q2058.74 610.033 2055.66 614.64 Q2052.61 619.223 2046.8 619.223 Q2040.99 619.223 2037.91 614.64 Q2034.85 610.033 2034.85 601.306 Q2034.85 592.556 2037.91 587.973 Q2040.99 583.367 2046.8 583.367 Z" fill="#000000" fill-rule="evenodd" fill-opacity="1" /><path clip-path="url(#clip860)" d="M 0 0 M2002.86 471.625 L2010.5 471.625 L2010.5 445.259 L2002.19 446.926 L2002.19 442.667 L2010.45 441 L2015.13 441 L2015.13 471.625 L2022.77 471.625 L2022.77 475.56 L2002.86 475.56 L2002.86 471.625 Z" fill="#000000" fill-rule="evenodd" fill-opacity="1" /><path clip-path="url(#clip860)" d="M 0 0 M2027.84 469.68 L2032.72 469.68 L2032.72 475.56 L2027.84 475.56 L2027.84 469.68 Z" fill="#000000" fill-rule="evenodd" fill-opacity="1" /><path clip-path="url(#clip860)" d="M 0 0 M2037.84 441 L2056.19 441 L2056.19 444.935 L2042.12 444.935 L2042.12 453.407 Q2043.14 453.06 2044.16 452.898 Q2045.18 452.713 2046.19 452.713 Q2051.98 452.713 2055.36 455.884 Q2058.74 459.055 2058.74 464.472 Q2058.74 470.051 2055.27 473.153 Q2051.8 476.231 2045.48 476.231 Q2043.3 476.231 2041.03 475.861 Q2038.79 475.491 2036.38 474.75 L2036.38 470.051 Q2038.46 471.185 2040.68 471.741 Q2042.91 472.296 2045.38 472.296 Q2049.39 472.296 2051.73 470.19 Q2054.06 468.083 2054.06 464.472 Q2054.06 460.861 2051.73 458.754 Q2049.39 456.648 2045.38 456.648 Q2043.51 456.648 2041.63 457.065 Q2039.78 457.481 2037.84 458.361 L2037.84 441 Z" fill="#000000" fill-rule="evenodd" fill-opacity="1" /><path clip-path="url(#clip860)" d="M 0 0 M2005.45 328.633 L2021.77 328.633 L2021.77 332.568 L1999.83 332.568 L1999.83 328.633 Q2002.49 325.879 2007.07 321.249 Q2011.68 316.596 2012.86 315.254 Q2015.11 312.731 2015.99 310.994 Q2016.89 309.235 2016.89 307.545 Q2016.89 304.791 2014.94 303.055 Q2013.02 301.319 2009.92 301.319 Q2007.72 301.319 2005.27 302.082 Q2002.84 302.846 2000.06 304.397 L2000.06 299.675 Q2002.88 298.541 2005.34 297.962 Q2007.79 297.383 2009.83 297.383 Q2015.2 297.383 2018.39 300.069 Q2021.59 302.754 2021.59 307.244 Q2021.59 309.374 2020.78 311.295 Q2019.99 313.193 2017.88 315.786 Q2017.31 316.457 2014.2 319.675 Q2011.1 322.869 2005.45 328.633 Z" fill="#000000" fill-rule="evenodd" fill-opacity="1" /><path clip-path="url(#clip860)" d="M 0 0 M2026.84 326.689 L2031.73 326.689 L2031.73 332.568 L2026.84 332.568 L2026.84 326.689 Z" fill="#000000" fill-rule="evenodd" fill-opacity="1" /><path clip-path="url(#clip860)" d="M 0 0 M2046.8 301.087 Q2043.18 301.087 2041.36 304.652 Q2039.55 308.194 2039.55 315.323 Q2039.55 322.43 2041.36 325.994 Q2043.18 329.536 2046.8 329.536 Q2050.43 329.536 2052.24 325.994 Q2054.06 322.43 2054.06 315.323 Q2054.06 308.194 2052.24 304.652 Q2050.43 301.087 2046.8 301.087 M2046.8 297.383 Q2052.61 297.383 2055.66 301.99 Q2058.74 306.573 2058.74 315.323 Q2058.74 324.05 2055.66 328.656 Q2052.61 333.24 2046.8 333.24 Q2040.99 333.24 2037.91 328.656 Q2034.85 324.05 2034.85 315.323 Q2034.85 306.573 2037.91 301.99 Q2040.99 297.383 2046.8 297.383 Z" fill="#000000" fill-rule="evenodd" fill-opacity="1" /><path clip-path="url(#clip860)" d="M 0 0 M2006.45 185.642 L2022.77 185.642 L2022.77 189.577 L2000.82 189.577 L2000.82 185.642 Q2003.49 182.887 2008.07 178.257 Q2012.68 173.605 2013.86 172.262 Q2016.1 169.739 2016.98 168.003 Q2017.88 166.244 2017.88 164.554 Q2017.88 161.799 2015.94 160.063 Q2014.02 158.327 2010.92 158.327 Q2008.72 158.327 2006.26 159.091 Q2003.83 159.855 2001.06 161.406 L2001.06 156.683 Q2003.88 155.549 2006.33 154.971 Q2008.79 154.392 2010.82 154.392 Q2016.19 154.392 2019.39 157.077 Q2022.58 159.762 2022.58 164.253 Q2022.58 166.382 2021.77 168.304 Q2020.99 170.202 2018.88 172.794 Q2018.3 173.466 2015.2 176.683 Q2012.1 179.878 2006.45 185.642 Z" fill="#000000" fill-rule="evenodd" fill-opacity="1" /><path clip-path="url(#clip860)" d="M 0 0 M2027.84 183.697 L2032.72 183.697 L2032.72 189.577 L2027.84 189.577 L2027.84 183.697 Z" fill="#000000" fill-rule="evenodd" fill-opacity="1" /><path clip-path="url(#clip860)" d="M 0 0 M2037.84 155.017 L2056.19 155.017 L2056.19 158.952 L2042.12 158.952 L2042.12 167.424 Q2043.14 167.077 2044.16 166.915 Q2045.18 166.73 2046.19 166.73 Q2051.98 166.73 2055.36 169.901 Q2058.74 173.072 2058.74 178.489 Q2058.74 184.068 2055.27 187.169 Q2051.8 190.248 2045.48 190.248 Q2043.3 190.248 2041.03 189.878 Q2038.79 189.507 2036.38 188.767 L2036.38 184.068 Q2038.46 185.202 2040.68 185.757 Q2042.91 186.313 2045.38 186.313 Q2049.39 186.313 2051.73 184.206 Q2054.06 182.1 2054.06 178.489 Q2054.06 174.878 2051.73 172.771 Q2049.39 170.665 2045.38 170.665 Q2043.51 170.665 2041.63 171.082 Q2039.78 171.498 2037.84 172.378 L2037.84 155.017 Z" fill="#000000" fill-rule="evenodd" fill-opacity="1" /><path clip-path="url(#clip860)" d="M 0 0 M1921.39 588.579 L1958.34 588.579 L1958.34 580.813 Q1958.34 570.978 1953.89 566.427 Q1949.43 561.843 1939.82 561.843 Q1930.27 561.843 1925.85 566.427 Q1921.39 570.978 1921.39 580.813 L1921.39 588.579 M1916.11 595.009 L1916.11 581.8 Q1916.11 567.986 1921.87 561.525 Q1927.6 555.064 1939.82 555.064 Q1952.11 555.064 1957.87 561.557 Q1963.63 568.05 1963.63 581.8 L1963.63 595.009 L1916.11 595.009 Z" fill="#000000" fill-rule="evenodd" fill-opacity="1" /><path clip-path="url(#clip860)" d="M 0 0 M1944.34 518.429 L1947.2 518.429 L1947.2 545.356 Q1953.25 544.974 1956.43 541.728 Q1959.59 538.449 1959.59 532.625 Q1959.59 529.251 1958.76 526.1 Q1957.93 522.917 1956.28 519.798 L1961.81 519.798 Q1963.15 522.949 1963.85 526.259 Q1964.55 529.569 1964.55 532.975 Q1964.55 541.505 1959.59 546.502 Q1954.62 551.467 1946.15 551.467 Q1937.4 551.467 1932.28 546.757 Q1927.12 542.014 1927.12 533.993 Q1927.12 526.8 1931.77 522.631 Q1936.38 518.429 1944.34 518.429 M1942.62 524.286 Q1937.82 524.349 1934.95 526.991 Q1932.09 529.601 1932.09 533.93 Q1932.09 538.831 1934.86 541.791 Q1937.62 544.72 1942.65 545.165 L1942.62 524.286 Z" fill="#000000" fill-rule="evenodd" fill-opacity="1" /><path clip-path="url(#clip860)" d="M 0 0 M1942.11 482.654 L1963.63 482.654 L1963.63 488.511 L1942.3 488.511 Q1937.24 488.511 1934.73 490.484 Q1932.21 492.457 1932.21 496.404 Q1932.21 501.146 1935.24 503.884 Q1938.26 506.621 1943.48 506.621 L1963.63 506.621 L1963.63 512.509 L1927.98 512.509 L1927.98 506.621 L1933.52 506.621 Q1930.3 504.52 1928.71 501.688 Q1927.12 498.823 1927.12 495.099 Q1927.12 488.956 1930.94 485.805 Q1934.73 482.654 1942.11 482.654 Z" fill="#000000" fill-rule="evenodd" fill-opacity="1" /><path clip-path="url(#clip860)" d="M 0 0 M1929.03 453.786 L1934.57 453.786 Q1933.3 456.268 1932.66 458.942 Q1932.02 461.615 1932.02 464.48 Q1932.02 468.84 1933.36 471.037 Q1934.7 473.201 1937.37 473.201 Q1939.41 473.201 1940.58 471.641 Q1941.73 470.082 1942.78 465.371 L1943.23 463.366 Q1944.56 457.128 1947.01 454.518 Q1949.43 451.876 1953.79 451.876 Q1958.76 451.876 1961.65 455.823 Q1964.55 459.738 1964.55 466.612 Q1964.55 469.477 1963.98 472.596 Q1963.44 475.684 1962.32 479.121 L1956.28 479.121 Q1957.96 475.875 1958.82 472.724 Q1959.65 469.573 1959.65 466.485 Q1959.65 462.347 1958.25 460.119 Q1956.82 457.891 1954.24 457.891 Q1951.85 457.891 1950.58 459.515 Q1949.31 461.106 1948.13 466.549 L1947.65 468.586 Q1946.5 474.029 1944.15 476.448 Q1941.76 478.866 1937.62 478.866 Q1932.6 478.866 1929.86 475.302 Q1927.12 471.737 1927.12 465.18 Q1927.12 461.934 1927.6 459.069 Q1928.08 456.205 1929.03 453.786 Z" fill="#000000" fill-rule="evenodd" fill-opacity="1" /><path clip-path="url(#clip860)" d="M 0 0 M1927.98 445.733 L1927.98 439.877 L1963.63 439.877 L1963.63 445.733 L1927.98 445.733 M1914.1 445.733 L1914.1 439.877 L1921.52 439.877 L1921.52 445.733 L1914.1 445.733 Z" fill="#000000" fill-rule="evenodd" fill-opacity="1" /><path clip-path="url(#clip860)" d="M 0 0 M1917.86 427.941 L1927.98 427.941 L1927.98 415.878 L1932.53 415.878 L1932.53 427.941 L1951.88 427.941 Q1956.24 427.941 1957.49 426.763 Q1958.73 425.554 1958.73 421.893 L1958.73 415.878 L1963.63 415.878 L1963.63 421.893 Q1963.63 428.673 1961.11 431.251 Q1958.57 433.829 1951.88 433.829 L1932.53 433.829 L1932.53 438.126 L1927.98 438.126 L1927.98 433.829 L1917.86 433.829 L1917.86 427.941 Z" fill="#000000" fill-rule="evenodd" fill-opacity="1" /><path clip-path="url(#clip860)" d="M 0 0 M1966.94 394.903 Q1973.3 397.385 1975.25 399.741 Q1977.19 402.096 1977.19 406.043 L1977.19 410.722 L1972.29 410.722 L1972.29 407.284 Q1972.29 404.865 1971.14 403.528 Q1969.99 402.192 1965.73 400.568 L1963.06 399.518 L1927.98 413.936 L1927.98 407.73 L1955.86 396.59 L1927.98 385.45 L1927.98 379.243 L1966.94 394.903 Z" fill="#000000" fill-rule="evenodd" fill-opacity="1" /><path clip-path="url(#clip860)" d="M 0 0 M3048.63 43.8146 L3022.83 43.8146 Q3023.43 55.9268 3026.23 61.0714 Q3029.71 67.3908 3035.75 67.3908 Q3041.82 67.3908 3045.19 61.0309 Q3048.14 55.4407 3048.63 43.8146 M3048.51 36.928 Q3047.37 25.4235 3045.19 21.3726 Q3041.7 14.9721 3035.75 14.9721 Q3029.55 14.9721 3026.27 21.2916 Q3023.68 26.3957 3022.91 36.928 L3048.51 36.928 M3035.75 8.89579 Q3045.47 8.89579 3051.02 17.4837 Q3056.57 26.0311 3056.57 41.1815 Q3056.57 56.2914 3051.02 64.8793 Q3045.47 73.5077 3035.75 73.5077 Q3025.99 73.5077 3020.48 64.8793 Q3014.93 56.2914 3014.93 41.1815 Q3014.93 26.0311 3020.48 17.4837 Q3025.99 8.89579 3035.75 8.89579 Z" fill="#000000" fill-rule="evenodd" fill-opacity="1" /><polyline clip-path="url(#clip863)" style="stroke:#009af9; stroke-width:4; stroke-opacity:1; fill:none" points="
  2170.65,887.252 2179.34,887.252 2188.04,887.25 2196.73,887.246 2205.42,887.239 2214.12,887.227 2222.81,887.209 2231.51,887.179 2240.2,887.135 2248.9,887.07 
  2257.59,886.977 2266.29,886.85 2274.98,886.683 2283.67,886.468 2292.37,886.204 2301.06,885.889 2309.76,885.53 2318.45,885.135 2327.15,884.717 2335.84,884.295 
  2344.54,883.886 2353.23,883.508 2361.93,883.171 2370.62,882.883 2379.31,882.641 2388.01,882.434 2396.7,882.242 2405.4,882.038 2414.09,881.792 2422.79,881.47 
  2431.48,881.035 2440.18,880.452 2448.87,879.685 2457.56,878.699 2466.26,877.464 2474.95,875.952 2483.65,874.148 2492.34,872.048 2501.04,869.664 2509.73,867.03 
  2518.43,864.193 2527.12,861.216 2535.81,858.166 2544.51,855.108 2553.2,852.094 2561.9,849.154 2570.59,846.299 2579.29,843.512 2587.98,840.76 2596.68,837.999 
  2605.37,835.182 2614.07,832.267 2622.76,829.223 2631.45,826.029 2640.15,822.67 2648.84,819.132 2657.54,815.393 2666.23,811.421 2674.93,807.172 2683.62,802.592 
  2692.32,797.629 2701.01,792.239 2709.7,786.403 2718.4,780.129 2727.09,773.458 2735.79,766.455 2744.48,759.198 2753.18,751.762 2761.87,744.202 2770.57,736.547 
  2779.26,728.788 2787.96,720.892 2796.65,712.811 2805.34,704.499 2814.04,695.928 2822.73,687.092 2831.43,678.006 2840.12,668.692 2848.82,659.157 2857.51,649.37 
  2866.21,639.249 2874.9,628.653 2883.59,617.391 2892.29,605.241 2900.98,591.981 2909.68,577.418 2918.37,561.416 2927.07,543.917 2935.76,524.948 2944.46,504.626 
  2953.15,483.148 2961.84,460.782 2970.54,437.855 2979.23,414.739 2987.93,391.827 2996.62,369.518 3005.32,348.185 3014.01,328.145 3022.71,309.635 3031.4,292.787 
  3040.1,277.621 3048.79,264.045 3057.48,251.875 3066.18,240.864 3074.87,230.732 3083.57,221.201 3092.26,212.018 3100.96,202.968 3109.65,193.89 3118.35,184.676 
  3127.04,175.278 3135.73,165.714 3144.43,156.071 3153.12,146.515 3161.82,137.273 3170.51,128.623 3179.21,120.849 3187.9,114.199 3196.6,108.827 3205.29,104.754 
  3213.99,101.847 3222.68,99.8291 3231.37,98.3297 3240.07,96.9581 3248.76,95.3953 3257.46,93.4813 3266.15,91.2779 3274.85,89.0902 3283.54,87.4411 3292.24,86.9997 
  3300.93,88.4779 3309.62,92.5151 3318.32,99.5737 3327.01,109.865 3335.71,123.318 3344.4,139.597 3353.1,158.156 3361.79,178.32 3370.49,199.382 3379.18,220.68 
  3387.87,241.663 3396.57,261.929 3405.26,281.227 3413.96,299.45 3422.65,316.604 3431.35,332.78 3440.04,348.127 3448.74,362.832 3457.43,377.107 3466.13,391.185 
  3474.82,405.319 3483.51,419.774 3492.21,434.82 3500.9,450.713 3509.6,467.676 3518.29,485.877 3526.99,505.405 3535.68,526.256 3544.38,548.326 3553.07,571.411 
  3561.76,595.228 3570.46,619.432 3579.15,643.647 3587.85,667.495 3596.54,690.622 3605.24,712.717 3613.93,733.527 3622.63,752.864 3631.32,770.605 3640.02,786.688 
  3648.71,801.107 3657.4,813.905 3666.1,825.163 3674.79,834.991 3683.49,843.518 3692.18,850.881 3700.88,857.214 3709.57,862.643 3718.27,867.282 3726.96,871.226 
  3735.65,874.556 3744.35,877.342 3753.04,879.644 3761.74,881.518 3770.43,883.016 3779.13,884.188 3787.82,885.086 3796.52,885.756 3805.21,886.245 3813.9,886.591 
  3822.6,886.829 3831.29,886.989 3839.99,887.093 3848.68,887.159 3857.38,887.2 3866.07,887.224 3874.77,887.238 3883.46,887.246 3892.16,887.25 3900.85,887.252 
  
  "/>
</svg>
