<?xml version="1.0" encoding="utf-8"?>
<svg xmlns="http://www.w3.org/2000/svg" xmlns:xlink="http://www.w3.org/1999/xlink" width="1000" height="250" viewBox="0 0 4000 1000">
<defs>
  <clipPath id="clip850">
    <rect x="0" y="0" width="4000" height="1000"/>
  </clipPath>
</defs>
<path clip-path="url(#clip850)" d="
M0 1000 L4000 1000 L4000 0 L0 0  Z
  " fill="#ffffff" fill-rule="evenodd" fill-opacity="1"/>
<defs>
  <clipPath id="clip851">
    <rect x="800" y="0" width="2801" height="1000"/>
  </clipPath>
</defs>
<path clip-path="url(#clip850)" d="
M118.74 911.26 L1952.76 911.26 L1952.76 62.9921 L118.74 62.9921  Z
  " fill="#ffffff" fill-rule="evenodd" fill-opacity="1"/>
<defs>
  <clipPath id="clip852">
    <rect x="118" y="62" width="1835" height="849"/>
  </clipPath>
</defs>
<polyline clip-path="url(#clip852)" style="stroke:#000000; stroke-width:2; stroke-opacity:0.1; fill:none" points="
  168.914,911.26 168.914,62.9921 
  "/>
<polyline clip-path="url(#clip852)" style="stroke:#000000; stroke-width:2; stroke-opacity:0.1; fill:none" points="
  601.898,911.26 601.898,62.9921 
  "/>
<polyline clip-path="url(#clip852)" style="stroke:#000000; stroke-width:2; stroke-opacity:0.1; fill:none" points="
  1034.88,911.26 1034.88,62.9921 
  "/>
<polyline clip-path="url(#clip852)" style="stroke:#000000; stroke-width:2; stroke-opacity:0.1; fill:none" points="
  1467.87,911.26 1467.87,62.9921 
  "/>
<polyline clip-path="url(#clip852)" style="stroke:#000000; stroke-width:2; stroke-opacity:0.1; fill:none" points="
  1900.85,911.26 1900.85,62.9921 
  "/>
<polyline clip-path="url(#clip850)" style="stroke:#000000; stroke-width:4; stroke-opacity:1; fill:none" points="
  118.74,911.26 1952.76,911.26 
  "/>
<polyline clip-path="url(#clip850)" style="stroke:#000000; stroke-width:4; stroke-opacity:1; fill:none" points="
  168.914,911.26 168.914,901.081 
  "/>
<polyline clip-path="url(#clip850)" style="stroke:#000000; stroke-width:4; stroke-opacity:1; fill:none" points="
  601.898,911.26 601.898,901.081 
  "/>
<polyline clip-path="url(#clip850)" style="stroke:#000000; stroke-width:4; stroke-opacity:1; fill:none" points="
  1034.88,911.26 1034.88,901.081 
  "/>
<polyline clip-path="url(#clip850)" style="stroke:#000000; stroke-width:4; stroke-opacity:1; fill:none" points="
  1467.87,911.26 1467.87,901.081 
  "/>
<polyline clip-path="url(#clip850)" style="stroke:#000000; stroke-width:4; stroke-opacity:1; fill:none" points="
  1900.85,911.26 1900.85,901.081 
  "/>
<path clip-path="url(#clip850)" d="M 0 0 M168.914 953.251 Q165.303 953.251 163.475 956.815 Q161.669 960.357 161.669 967.487 Q161.669 974.593 163.475 978.158 Q165.303 981.699 168.914 981.699 Q172.549 981.699 174.354 978.158 Q176.183 974.593 176.183 967.487 Q176.183 960.357 174.354 956.815 Q172.549 953.251 168.914 953.251 M168.914 949.547 Q174.724 949.547 177.78 954.153 Q180.859 958.737 180.859 967.487 Q180.859 976.213 177.78 980.82 Q174.724 985.403 168.914 985.403 Q163.104 985.403 160.025 980.82 Q156.97 976.213 156.97 967.487 Q156.97 958.737 160.025 954.153 Q163.104 949.547 168.914 949.547 Z" fill="#000000" fill-rule="evenodd" fill-opacity="1" /><path clip-path="url(#clip850)" d="M 0 0 M570.035 980.797 L586.354 980.797 L586.354 984.732 L564.41 984.732 L564.41 980.797 Q567.072 978.042 571.655 973.412 Q576.262 968.76 577.442 967.417 Q579.688 964.894 580.567 963.158 Q581.47 961.399 581.47 959.709 Q581.47 956.954 579.526 955.218 Q577.604 953.482 574.503 953.482 Q572.303 953.482 569.85 954.246 Q567.419 955.01 564.641 956.561 L564.641 951.839 Q567.466 950.704 569.919 950.126 Q572.373 949.547 574.41 949.547 Q579.78 949.547 582.975 952.232 Q586.169 954.917 586.169 959.408 Q586.169 961.538 585.359 963.459 Q584.572 965.357 582.465 967.95 Q581.887 968.621 578.785 971.838 Q575.683 975.033 570.035 980.797 Z" fill="#000000" fill-rule="evenodd" fill-opacity="1" /><path clip-path="url(#clip850)" d="M 0 0 M591.47 950.172 L609.826 950.172 L609.826 954.107 L595.752 954.107 L595.752 962.579 Q596.771 962.232 597.789 962.07 Q598.808 961.885 599.826 961.885 Q605.613 961.885 608.993 965.056 Q612.373 968.227 612.373 973.644 Q612.373 979.223 608.9 982.324 Q605.428 985.403 599.109 985.403 Q596.933 985.403 594.664 985.033 Q592.419 984.662 590.012 983.922 L590.012 979.223 Q592.095 980.357 594.317 980.912 Q596.539 981.468 599.016 981.468 Q603.021 981.468 605.359 979.362 Q607.697 977.255 607.697 973.644 Q607.697 970.033 605.359 967.926 Q603.021 965.82 599.016 965.82 Q597.141 965.82 595.266 966.237 Q593.414 966.653 591.47 967.533 L591.47 950.172 Z" fill="#000000" fill-rule="evenodd" fill-opacity="1" /><path clip-path="url(#clip850)" d="M 0 0 M627.442 953.251 Q623.831 953.251 622.002 956.815 Q620.197 960.357 620.197 967.487 Q620.197 974.593 622.002 978.158 Q623.831 981.699 627.442 981.699 Q631.076 981.699 632.882 978.158 Q634.711 974.593 634.711 967.487 Q634.711 960.357 632.882 956.815 Q631.076 953.251 627.442 953.251 M627.442 949.547 Q633.252 949.547 636.308 954.153 Q639.386 958.737 639.386 967.487 Q639.386 976.213 636.308 980.82 Q633.252 985.403 627.442 985.403 Q621.632 985.403 618.553 980.82 Q615.498 976.213 615.498 967.487 Q615.498 958.737 618.553 954.153 Q621.632 949.547 627.442 949.547 Z" fill="#000000" fill-rule="evenodd" fill-opacity="1" /><path clip-path="url(#clip850)" d="M 0 0 M998.146 950.172 L1016.5 950.172 L1016.5 954.107 L1002.43 954.107 L1002.43 962.579 Q1003.45 962.232 1004.47 962.07 Q1005.48 961.885 1006.5 961.885 Q1012.29 961.885 1015.67 965.056 Q1019.05 968.227 1019.05 973.644 Q1019.05 979.223 1015.58 982.324 Q1012.1 985.403 1005.78 985.403 Q1003.61 985.403 1001.34 985.033 Q999.095 984.662 996.688 983.922 L996.688 979.223 Q998.771 980.357 1000.99 980.912 Q1003.22 981.468 1005.69 981.468 Q1009.7 981.468 1012.03 979.362 Q1014.37 977.255 1014.37 973.644 Q1014.37 970.033 1012.03 967.926 Q1009.7 965.82 1005.69 965.82 Q1003.82 965.82 1001.94 966.237 Q1000.09 966.653 998.146 967.533 L998.146 950.172 Z" fill="#000000" fill-rule="evenodd" fill-opacity="1" /><path clip-path="url(#clip850)" d="M 0 0 M1034.12 953.251 Q1030.51 953.251 1028.68 956.815 Q1026.87 960.357 1026.87 967.487 Q1026.87 974.593 1028.68 978.158 Q1030.51 981.699 1034.12 981.699 Q1037.75 981.699 1039.56 978.158 Q1041.39 974.593 1041.39 967.487 Q1041.39 960.357 1039.56 956.815 Q1037.75 953.251 1034.12 953.251 M1034.12 949.547 Q1039.93 949.547 1042.98 954.153 Q1046.06 958.737 1046.06 967.487 Q1046.06 976.213 1042.98 980.82 Q1039.93 985.403 1034.12 985.403 Q1028.31 985.403 1025.23 980.82 Q1022.17 976.213 1022.17 967.487 Q1022.17 958.737 1025.23 954.153 Q1028.31 949.547 1034.12 949.547 Z" fill="#000000" fill-rule="evenodd" fill-opacity="1" /><path clip-path="url(#clip850)" d="M 0 0 M1061.13 953.251 Q1057.52 953.251 1055.69 956.815 Q1053.89 960.357 1053.89 967.487 Q1053.89 974.593 1055.69 978.158 Q1057.52 981.699 1061.13 981.699 Q1064.77 981.699 1066.57 978.158 Q1068.4 974.593 1068.4 967.487 Q1068.4 960.357 1066.57 956.815 Q1064.77 953.251 1061.13 953.251 M1061.13 949.547 Q1066.94 949.547 1070 954.153 Q1073.08 958.737 1073.08 967.487 Q1073.08 976.213 1070 980.82 Q1066.94 985.403 1061.13 985.403 Q1055.32 985.403 1052.24 980.82 Q1049.19 976.213 1049.19 967.487 Q1049.19 958.737 1052.24 954.153 Q1055.32 949.547 1061.13 949.547 Z" fill="#000000" fill-rule="evenodd" fill-opacity="1" /><path clip-path="url(#clip850)" d="M 0 0 M1430.24 950.172 L1452.46 950.172 L1452.46 952.163 L1439.91 984.732 L1435.03 984.732 L1446.84 954.107 L1430.24 954.107 L1430.24 950.172 Z" fill="#000000" fill-rule="evenodd" fill-opacity="1" /><path clip-path="url(#clip850)" d="M 0 0 M1457.58 950.172 L1475.93 950.172 L1475.93 954.107 L1461.86 954.107 L1461.86 962.579 Q1462.88 962.232 1463.9 962.07 Q1464.91 961.885 1465.93 961.885 Q1471.72 961.885 1475.1 965.056 Q1478.48 968.227 1478.48 973.644 Q1478.48 979.223 1475.01 982.324 Q1471.53 985.403 1465.22 985.403 Q1463.04 985.403 1460.77 985.033 Q1458.53 984.662 1456.12 983.922 L1456.12 979.223 Q1458.2 980.357 1460.42 980.912 Q1462.65 981.468 1465.12 981.468 Q1469.13 981.468 1471.47 979.362 Q1473.8 977.255 1473.8 973.644 Q1473.8 970.033 1471.47 967.926 Q1469.13 965.82 1465.12 965.82 Q1463.25 965.82 1461.37 966.237 Q1459.52 966.653 1457.58 967.533 L1457.58 950.172 Z" fill="#000000" fill-rule="evenodd" fill-opacity="1" /><path clip-path="url(#clip850)" d="M 0 0 M1493.55 953.251 Q1489.94 953.251 1488.11 956.815 Q1486.3 960.357 1486.3 967.487 Q1486.3 974.593 1488.11 978.158 Q1489.94 981.699 1493.55 981.699 Q1497.18 981.699 1498.99 978.158 Q1500.82 974.593 1500.82 967.487 Q1500.82 960.357 1498.99 956.815 Q1497.18 953.251 1493.55 953.251 M1493.55 949.547 Q1499.36 949.547 1502.41 954.153 Q1505.49 958.737 1505.49 967.487 Q1505.49 976.213 1502.41 980.82 Q1499.36 985.403 1493.55 985.403 Q1487.74 985.403 1484.66 980.82 Q1481.6 976.213 1481.6 967.487 Q1481.6 958.737 1484.66 954.153 Q1487.74 949.547 1493.55 949.547 Z" fill="#000000" fill-rule="evenodd" fill-opacity="1" /><path clip-path="url(#clip850)" d="M 0 0 M1850.71 980.797 L1858.35 980.797 L1858.35 954.431 L1850.04 956.098 L1850.04 951.839 L1858.3 950.172 L1862.98 950.172 L1862.98 980.797 L1870.62 980.797 L1870.62 984.732 L1850.71 984.732 L1850.71 980.797 Z" fill="#000000" fill-rule="evenodd" fill-opacity="1" /><path clip-path="url(#clip850)" d="M 0 0 M1885.69 953.251 Q1882.08 953.251 1880.25 956.815 Q1878.44 960.357 1878.44 967.487 Q1878.44 974.593 1880.25 978.158 Q1882.08 981.699 1885.69 981.699 Q1889.32 981.699 1891.13 978.158 Q1892.96 974.593 1892.96 967.487 Q1892.96 960.357 1891.13 956.815 Q1889.32 953.251 1885.69 953.251 M1885.69 949.547 Q1891.5 949.547 1894.55 954.153 Q1897.63 958.737 1897.63 967.487 Q1897.63 976.213 1894.55 980.82 Q1891.5 985.403 1885.69 985.403 Q1879.88 985.403 1876.8 980.82 Q1873.74 976.213 1873.74 967.487 Q1873.74 958.737 1876.8 954.153 Q1879.88 949.547 1885.69 949.547 Z" fill="#000000" fill-rule="evenodd" fill-opacity="1" /><path clip-path="url(#clip850)" d="M 0 0 M1912.7 953.251 Q1909.09 953.251 1907.26 956.815 Q1905.46 960.357 1905.46 967.487 Q1905.46 974.593 1907.26 978.158 Q1909.09 981.699 1912.7 981.699 Q1916.34 981.699 1918.14 978.158 Q1919.97 974.593 1919.97 967.487 Q1919.97 960.357 1918.14 956.815 Q1916.34 953.251 1912.7 953.251 M1912.7 949.547 Q1918.51 949.547 1921.57 954.153 Q1924.65 958.737 1924.65 967.487 Q1924.65 976.213 1921.57 980.82 Q1918.51 985.403 1912.7 985.403 Q1906.89 985.403 1903.81 980.82 Q1900.76 976.213 1900.76 967.487 Q1900.76 958.737 1903.81 954.153 Q1906.89 949.547 1912.7 949.547 Z" fill="#000000" fill-rule="evenodd" fill-opacity="1" /><path clip-path="url(#clip850)" d="M 0 0 M1939.72 953.251 Q1936.1 953.251 1934.28 956.815 Q1932.47 960.357 1932.47 967.487 Q1932.47 974.593 1934.28 978.158 Q1936.1 981.699 1939.72 981.699 Q1943.35 981.699 1945.16 978.158 Q1946.98 974.593 1946.98 967.487 Q1946.98 960.357 1945.16 956.815 Q1943.35 953.251 1939.72 953.251 M1939.72 949.547 Q1945.53 949.547 1948.58 954.153 Q1951.66 958.737 1951.66 967.487 Q1951.66 976.213 1948.58 980.82 Q1945.53 985.403 1939.72 985.403 Q1933.91 985.403 1930.83 980.82 Q1927.77 976.213 1927.77 967.487 Q1927.77 958.737 1930.83 954.153 Q1933.91 949.547 1939.72 949.547 Z" fill="#000000" fill-rule="evenodd" fill-opacity="1" /><path clip-path="url(#clip850)" d="M 0 0 M917.76 1012.6 L924.189 1012.6 L924.189 1060.12 L917.76 1060.12 L917.76 1012.6 Z" fill="#000000" fill-rule="evenodd" fill-opacity="1" /><path clip-path="url(#clip850)" d="M 0 0 M936.125 1014.35 L936.125 1024.48 L948.188 1024.48 L948.188 1029.03 L936.125 1029.03 L936.125 1048.38 Q936.125 1052.74 937.302 1053.98 Q938.512 1055.22 942.172 1055.22 L948.188 1055.22 L948.188 1060.12 L942.172 1060.12 Q935.393 1060.12 932.815 1057.61 Q930.236 1055.06 930.236 1048.38 L930.236 1029.03 L925.94 1029.03 L925.94 1024.48 L930.236 1024.48 L930.236 1014.35 L936.125 1014.35 Z" fill="#000000" fill-rule="evenodd" fill-opacity="1" /><path clip-path="url(#clip850)" d="M 0 0 M984.822 1040.84 L984.822 1043.7 L957.895 1043.7 Q958.277 1049.75 961.524 1052.93 Q964.802 1056.08 970.627 1056.08 Q974.001 1056.08 977.152 1055.25 Q980.335 1054.43 983.454 1052.77 L983.454 1058.31 Q980.303 1059.65 976.993 1060.35 Q973.682 1061.05 970.277 1061.05 Q961.747 1061.05 956.75 1056.08 Q951.784 1051.12 951.784 1042.65 Q951.784 1033.9 956.495 1028.77 Q961.237 1023.62 969.258 1023.62 Q976.451 1023.62 980.621 1028.26 Q984.822 1032.88 984.822 1040.84 M978.966 1039.12 Q978.902 1034.31 976.261 1031.45 Q973.651 1028.58 969.322 1028.58 Q964.42 1028.58 961.46 1031.35 Q958.532 1034.12 958.086 1039.15 L978.966 1039.12 Z" fill="#000000" fill-rule="evenodd" fill-opacity="1" /><path clip-path="url(#clip850)" d="M 0 0 M1011.62 1029.95 Q1010.64 1029.38 1009.46 1029.12 Q1008.31 1028.84 1006.91 1028.84 Q1001.95 1028.84 999.273 1032.08 Q996.631 1035.3 996.631 1041.35 L996.631 1060.12 L990.742 1060.12 L990.742 1024.48 L996.631 1024.48 L996.631 1030.01 Q998.477 1026.77 1001.44 1025.21 Q1004.4 1023.62 1008.63 1023.62 Q1009.23 1023.62 1009.97 1023.71 Q1010.7 1023.78 1011.59 1023.93 L1011.62 1029.95 Z" fill="#000000" fill-rule="evenodd" fill-opacity="1" /><path clip-path="url(#clip850)" d="M 0 0 M1033.97 1042.2 Q1026.87 1042.2 1024.13 1043.83 Q1021.39 1045.45 1021.39 1049.37 Q1021.39 1052.48 1023.43 1054.33 Q1025.5 1056.15 1029.03 1056.15 Q1033.9 1056.15 1036.83 1052.71 Q1039.79 1049.24 1039.79 1043.51 L1039.79 1042.2 L1033.97 1042.2 M1045.65 1039.79 L1045.65 1060.12 L1039.79 1060.12 L1039.79 1054.71 Q1037.79 1057.96 1034.79 1059.52 Q1031.8 1061.05 1027.47 1061.05 Q1022 1061.05 1018.75 1057.99 Q1015.54 1054.9 1015.54 1049.75 Q1015.54 1043.73 1019.55 1040.68 Q1023.59 1037.62 1031.58 1037.62 L1039.79 1037.62 L1039.79 1037.05 Q1039.79 1033.01 1037.12 1030.81 Q1034.47 1028.58 1029.67 1028.58 Q1026.61 1028.58 1023.72 1029.31 Q1020.82 1030.05 1018.15 1031.51 L1018.15 1026.1 Q1021.36 1024.86 1024.39 1024.25 Q1027.41 1023.62 1030.27 1023.62 Q1038.01 1023.62 1041.83 1027.63 Q1045.65 1031.64 1045.65 1039.79 Z" fill="#000000" fill-rule="evenodd" fill-opacity="1" /><path clip-path="url(#clip850)" d="M 0 0 M1057.58 1014.35 L1057.58 1024.48 L1069.65 1024.48 L1069.65 1029.03 L1057.58 1029.03 L1057.58 1048.38 Q1057.58 1052.74 1058.76 1053.98 Q1059.97 1055.22 1063.63 1055.22 L1069.65 1055.22 L1069.65 1060.12 L1063.63 1060.12 Q1056.85 1060.12 1054.27 1057.61 Q1051.69 1055.06 1051.69 1048.38 L1051.69 1029.03 L1047.4 1029.03 L1047.4 1024.48 L1051.69 1024.48 L1051.69 1014.35 L1057.58 1014.35 Z" fill="#000000" fill-rule="evenodd" fill-opacity="1" /><path clip-path="url(#clip850)" d="M 0 0 M1075.79 1024.48 L1081.64 1024.48 L1081.64 1060.12 L1075.79 1060.12 L1075.79 1024.48 M1075.79 1010.6 L1081.64 1010.6 L1081.64 1018.01 L1075.79 1018.01 L1075.79 1010.6 Z" fill="#000000" fill-rule="evenodd" fill-opacity="1" /><path clip-path="url(#clip850)" d="M 0 0 M1101.6 1028.58 Q1096.89 1028.58 1094.15 1032.27 Q1091.42 1035.93 1091.42 1042.33 Q1091.42 1048.73 1094.12 1052.42 Q1096.86 1056.08 1101.6 1056.08 Q1106.28 1056.08 1109.02 1052.39 Q1111.75 1048.7 1111.75 1042.33 Q1111.75 1036 1109.02 1032.31 Q1106.28 1028.58 1101.6 1028.58 M1101.6 1023.62 Q1109.24 1023.62 1113.6 1028.58 Q1117.96 1033.55 1117.96 1042.33 Q1117.96 1051.08 1113.6 1056.08 Q1109.24 1061.05 1101.6 1061.05 Q1093.93 1061.05 1089.57 1056.08 Q1085.24 1051.08 1085.24 1042.33 Q1085.24 1033.55 1089.57 1028.58 Q1093.93 1023.62 1101.6 1023.62 Z" fill="#000000" fill-rule="evenodd" fill-opacity="1" /><path clip-path="url(#clip850)" d="M 0 0 M1153.74 1038.61 L1153.74 1060.12 L1147.88 1060.12 L1147.88 1038.8 Q1147.88 1033.74 1145.91 1031.22 Q1143.93 1028.71 1139.99 1028.71 Q1135.24 1028.71 1132.51 1031.73 Q1129.77 1034.76 1129.77 1039.98 L1129.77 1060.12 L1123.88 1060.12 L1123.88 1024.48 L1129.77 1024.48 L1129.77 1030.01 Q1131.87 1026.8 1134.7 1025.21 Q1137.57 1023.62 1141.29 1023.62 Q1147.43 1023.62 1150.59 1027.44 Q1153.74 1031.22 1153.74 1038.61 Z" fill="#000000" fill-rule="evenodd" fill-opacity="1" /><polyline clip-path="url(#clip852)" style="stroke:#000000; stroke-width:2; stroke-opacity:0.1; fill:none" points="
  118.74,891.259 1952.76,891.259 
  "/>
<polyline clip-path="url(#clip852)" style="stroke:#000000; stroke-width:2; stroke-opacity:0.1; fill:none" points="
  118.74,671.55 1952.76,671.55 
  "/>
<polyline clip-path="url(#clip852)" style="stroke:#000000; stroke-width:2; stroke-opacity:0.1; fill:none" points="
  118.74,451.841 1952.76,451.841 
  "/>
<polyline clip-path="url(#clip852)" style="stroke:#000000; stroke-width:2; stroke-opacity:0.1; fill:none" points="
  118.74,232.132 1952.76,232.132 
  "/>
<polyline clip-path="url(#clip850)" style="stroke:#000000; stroke-width:4; stroke-opacity:1; fill:none" points="
  118.74,911.26 118.74,62.9921 
  "/>
<polyline clip-path="url(#clip850)" style="stroke:#000000; stroke-width:4; stroke-opacity:1; fill:none" points="
  118.74,891.259 140.748,891.259 
  "/>
<polyline clip-path="url(#clip850)" style="stroke:#000000; stroke-width:4; stroke-opacity:1; fill:none" points="
  118.74,671.55 140.748,671.55 
  "/>
<polyline clip-path="url(#clip850)" style="stroke:#000000; stroke-width:4; stroke-opacity:1; fill:none" points="
  118.74,451.841 140.748,451.841 
  "/>
<polyline clip-path="url(#clip850)" style="stroke:#000000; stroke-width:4; stroke-opacity:1; fill:none" points="
  118.74,232.132 140.748,232.132 
  "/>
<path clip-path="url(#clip850)" d="M 0 0 M11.4256 877.058 Q7.8145 877.058 5.98581 880.622 Q4.18026 884.164 4.18026 891.294 Q4.18026 898.4 5.98581 901.965 Q7.8145 905.507 11.4256 905.507 Q15.0598 905.507 16.8654 901.965 Q18.6941 898.4 18.6941 891.294 Q18.6941 884.164 16.8654 880.622 Q15.0598 877.058 11.4256 877.058 M11.4256 873.354 Q17.2358 873.354 20.2913 877.96 Q23.37 882.544 23.37 891.294 Q23.37 900.02 20.2913 904.627 Q17.2358 909.21 11.4256 909.21 Q5.61544 909.21 2.53675 904.627 Q-0.518784 900.02 -0.518784 891.294 Q-0.518784 882.544 2.53675 877.96 Q5.61544 873.354 11.4256 873.354 Z" fill="#000000" fill-rule="evenodd" fill-opacity="1" /><path clip-path="url(#clip850)" d="M 0 0 M28.4394 902.659 L33.3236 902.659 L33.3236 908.539 L28.4394 908.539 L28.4394 902.659 Z" fill="#000000" fill-rule="evenodd" fill-opacity="1" /><path clip-path="url(#clip850)" d="M 0 0 M42.4208 904.604 L58.7402 904.604 L58.7402 908.539 L36.7958 908.539 L36.7958 904.604 Q39.4579 901.849 44.0412 897.22 Q48.6476 892.567 49.8282 891.224 Q52.0735 888.701 52.9532 886.965 Q53.8559 885.206 53.8559 883.516 Q53.8559 880.761 51.9115 879.025 Q49.9902 877.289 46.8884 877.289 Q44.6893 877.289 42.2356 878.053 Q39.8051 878.817 37.0273 880.368 L37.0273 875.646 Q39.8514 874.511 42.3051 873.933 Q44.7588 873.354 46.7958 873.354 Q52.1661 873.354 55.3605 876.039 Q58.555 878.724 58.555 883.215 Q58.555 885.345 57.7448 887.266 Q56.9578 889.164 54.8513 891.757 Q54.2726 892.428 51.1708 895.645 Q48.0689 898.84 42.4208 904.604 Z" fill="#000000" fill-rule="evenodd" fill-opacity="1" /><path clip-path="url(#clip850)" d="M 0 0 M9.34227 657.349 Q5.73118 657.349 3.90249 660.913 Q2.09694 664.455 2.09694 671.585 Q2.09694 678.691 3.90249 682.256 Q5.73118 685.798 9.34227 685.798 Q12.9765 685.798 14.7821 682.256 Q16.6108 678.691 16.6108 671.585 Q16.6108 664.455 14.7821 660.913 Q12.9765 657.349 9.34227 657.349 M9.34227 653.645 Q15.1524 653.645 18.208 658.251 Q21.2867 662.835 21.2867 671.585 Q21.2867 680.311 18.208 684.918 Q15.1524 689.501 9.34227 689.501 Q3.53212 689.501 0.453433 684.918 Q-2.60211 680.311 -2.60211 671.585 Q-2.60211 662.835 0.453433 658.251 Q3.53212 653.645 9.34227 653.645 Z" fill="#000000" fill-rule="evenodd" fill-opacity="1" /><path clip-path="url(#clip850)" d="M 0 0 M26.3561 682.95 L31.2403 682.95 L31.2403 688.83 L26.3561 688.83 L26.3561 682.95 Z" fill="#000000" fill-rule="evenodd" fill-opacity="1" /><path clip-path="url(#clip850)" d="M 0 0 M49.1569 658.344 L37.3514 676.793 L49.1569 676.793 L49.1569 658.344 M47.93 654.27 L53.8096 654.27 L53.8096 676.793 L58.7402 676.793 L58.7402 680.682 L53.8096 680.682 L53.8096 688.83 L49.1569 688.83 L49.1569 680.682 L33.5551 680.682 L33.5551 676.168 L47.93 654.27 Z" fill="#000000" fill-rule="evenodd" fill-opacity="1" /><path clip-path="url(#clip850)" d="M 0 0 M9.66635 437.64 Q6.05525 437.64 4.22656 441.204 Q2.42101 444.746 2.42101 451.876 Q2.42101 458.982 4.22656 462.547 Q6.05525 466.088 9.66635 466.088 Q13.3006 466.088 15.1061 462.547 Q16.9348 458.982 16.9348 451.876 Q16.9348 444.746 15.1061 441.204 Q13.3006 437.64 9.66635 437.64 M9.66635 433.936 Q15.4765 433.936 18.532 438.542 Q21.6107 443.126 21.6107 451.876 Q21.6107 460.602 18.532 465.209 Q15.4765 469.792 9.66635 469.792 Q3.85619 469.792 0.777505 465.209 Q-2.27803 460.602 -2.27803 451.876 Q-2.27803 443.126 0.777505 438.542 Q3.85619 433.936 9.66635 433.936 Z" fill="#000000" fill-rule="evenodd" fill-opacity="1" /><path clip-path="url(#clip850)" d="M 0 0 M26.6801 463.241 L31.5644 463.241 L31.5644 469.121 L26.6801 469.121 L26.6801 463.241 Z" fill="#000000" fill-rule="evenodd" fill-opacity="1" /><path clip-path="url(#clip850)" d="M 0 0 M47.2124 449.977 Q44.0643 449.977 42.2125 452.13 Q40.3838 454.283 40.3838 458.033 Q40.3838 461.76 42.2125 463.936 Q44.0643 466.088 47.2124 466.088 Q50.3606 466.088 52.1893 463.936 Q54.0411 461.76 54.0411 458.033 Q54.0411 454.283 52.1893 452.13 Q50.3606 449.977 47.2124 449.977 M56.4948 435.325 L56.4948 439.584 Q54.7355 438.751 52.93 438.311 Q51.1476 437.871 49.3884 437.871 Q44.7588 437.871 42.3051 440.996 Q39.8745 444.121 39.5273 450.44 Q40.893 448.427 42.9532 447.362 Q45.0134 446.274 47.4902 446.274 Q52.6985 446.274 55.7078 449.445 Q58.7402 452.593 58.7402 458.033 Q58.7402 463.357 55.592 466.575 Q52.4439 469.792 47.2124 469.792 Q41.2171 469.792 38.0458 465.209 Q34.8745 460.602 34.8745 451.876 Q34.8745 443.681 38.7634 438.82 Q42.6523 433.936 49.2032 433.936 Q50.9624 433.936 52.7448 434.283 Q54.5504 434.63 56.4948 435.325 Z" fill="#000000" fill-rule="evenodd" fill-opacity="1" /><path clip-path="url(#clip850)" d="M 0 0 M9.92097 217.93 Q6.30988 217.93 4.48119 221.495 Q2.67564 225.037 2.67564 232.167 Q2.67564 239.273 4.48119 242.838 Q6.30988 246.379 9.92097 246.379 Q13.5552 246.379 15.3608 242.838 Q17.1895 239.273 17.1895 232.167 Q17.1895 225.037 15.3608 221.495 Q13.5552 217.93 9.92097 217.93 M9.92097 214.227 Q15.7311 214.227 18.7867 218.833 Q21.8654 223.417 21.8654 232.167 Q21.8654 240.893 18.7867 245.5 Q15.7311 250.083 9.92097 250.083 Q4.11082 250.083 1.03213 245.5 Q-2.02341 240.893 -2.02341 232.167 Q-2.02341 223.417 1.03213 218.833 Q4.11082 214.227 9.92097 214.227 Z" fill="#000000" fill-rule="evenodd" fill-opacity="1" /><path clip-path="url(#clip850)" d="M 0 0 M26.9348 243.532 L31.819 243.532 L31.819 249.412 L26.9348 249.412 L26.9348 243.532 Z" fill="#000000" fill-rule="evenodd" fill-opacity="1" /><path clip-path="url(#clip850)" d="M 0 0 M46.8884 233 Q43.5551 233 41.6338 234.782 Q39.7356 236.565 39.7356 239.69 Q39.7356 242.815 41.6338 244.597 Q43.5551 246.379 46.8884 246.379 Q50.2217 246.379 52.143 244.597 Q54.0643 242.791 54.0643 239.69 Q54.0643 236.565 52.143 234.782 Q50.2448 233 46.8884 233 M42.2125 231.009 Q39.2032 230.268 37.5134 228.208 Q35.8468 226.148 35.8468 223.185 Q35.8468 219.042 38.7866 216.634 Q41.7495 214.227 46.8884 214.227 Q52.0504 214.227 54.9902 216.634 Q57.93 219.042 57.93 223.185 Q57.93 226.148 56.2402 228.208 Q54.5735 230.268 51.5874 231.009 Q54.967 231.796 56.842 234.088 Q58.7402 236.379 58.7402 239.69 Q58.7402 244.713 55.6615 247.398 Q52.6059 250.083 46.8884 250.083 Q41.1708 250.083 38.0921 247.398 Q35.0366 244.713 35.0366 239.69 Q35.0366 236.379 36.9347 234.088 Q38.8329 231.796 42.2125 231.009 M40.4995 223.625 Q40.4995 226.31 42.1662 227.815 Q43.856 229.319 46.8884 229.319 Q49.8976 229.319 51.5874 227.815 Q53.3004 226.31 53.3004 223.625 Q53.3004 220.94 51.5874 219.435 Q49.8976 217.93 46.8884 217.93 Q43.856 217.93 42.1662 219.435 Q40.4995 220.94 40.4995 223.625 Z" fill="#000000" fill-rule="evenodd" fill-opacity="1" /><path clip-path="url(#clip850)" d="M 0 0 M-82.8185 650.184 L-76.5483 650.184 Q-78.2989 653.844 -79.1582 657.09 Q-80.0176 660.337 -80.0176 663.361 Q-80.0176 668.612 -77.9806 671.477 Q-75.9435 674.31 -72.1878 674.31 Q-69.0368 674.31 -67.4135 672.432 Q-65.8221 670.522 -64.8354 665.238 L-64.0397 661.355 Q-62.671 654.162 -59.2017 650.756 Q-55.7643 647.319 -49.9715 647.319 Q-43.0647 647.319 -39.4999 651.966 Q-35.9351 656.581 -35.9351 665.525 Q-35.9351 668.899 -36.699 672.718 Q-37.4628 676.506 -38.9588 680.58 L-45.5791 680.58 Q-43.383 676.665 -42.269 672.909 Q-41.155 669.153 -41.155 665.525 Q-41.155 660.019 -43.3193 657.027 Q-45.4836 654.035 -49.494 654.035 Q-52.9952 654.035 -54.9685 656.199 Q-56.9419 658.332 -57.9286 663.233 L-58.6925 667.148 Q-60.1248 674.341 -63.1803 677.556 Q-66.2358 680.771 -71.6785 680.771 Q-77.9806 680.771 -81.609 676.347 Q-85.2375 671.891 -85.2375 664.093 Q-85.2375 660.751 -84.6327 657.281 Q-84.028 653.812 -82.8185 650.184 Z" fill="#000000" fill-rule="evenodd" fill-opacity="1" /><path clip-path="url(#clip850)" d="M 0 0 M-54.7776 624.975 Q-54.7776 632.073 -53.1543 634.81 Q-51.5311 637.548 -47.6162 637.548 Q-44.497 637.548 -42.6509 635.511 Q-40.8367 633.442 -40.8367 629.909 Q-40.8367 625.039 -44.2742 622.111 Q-47.7435 619.151 -53.4726 619.151 L-54.7776 619.151 L-54.7776 624.975 M-57.1965 613.294 L-36.8581 613.294 L-36.8581 619.151 L-42.269 619.151 Q-39.0224 621.156 -37.4628 624.148 Q-35.9351 627.14 -35.9351 631.468 Q-35.9351 636.943 -38.9906 640.189 Q-42.078 643.404 -47.2342 643.404 Q-53.2498 643.404 -56.3053 639.394 Q-59.3609 635.351 -59.3609 627.363 L-59.3609 619.151 L-59.9338 619.151 Q-63.976 619.151 -66.1722 621.824 Q-68.4002 624.466 -68.4002 629.272 Q-68.4002 632.328 -67.6681 635.224 Q-66.9361 638.121 -65.472 640.794 L-70.8828 640.794 Q-72.1241 637.579 -72.7289 634.556 Q-73.3654 631.532 -73.3654 628.667 Q-73.3654 620.933 -69.355 617.114 Q-65.3446 613.294 -57.1965 613.294 Z" fill="#000000" fill-rule="evenodd" fill-opacity="1" /><path clip-path="url(#clip850)" d="M 0 0 M-65.6629 579.397 Q-69.6097 577.201 -71.4876 574.145 Q-73.3654 571.09 -73.3654 566.952 Q-73.3654 561.382 -69.4505 558.358 Q-65.5674 555.335 -58.3742 555.335 L-36.8581 555.335 L-36.8581 561.223 L-58.1832 561.223 Q-63.3076 561.223 -65.7902 563.037 Q-68.2729 564.851 -68.2729 568.575 Q-68.2729 573.127 -65.2492 575.768 Q-62.2254 578.41 -57.0056 578.41 L-36.8581 578.41 L-36.8581 584.298 L-58.1832 584.298 Q-63.3394 584.298 -65.7902 586.113 Q-68.2729 587.927 -68.2729 591.715 Q-68.2729 596.202 -65.2173 598.844 Q-62.1936 601.486 -57.0056 601.486 L-36.8581 601.486 L-36.8581 607.374 L-72.5061 607.374 L-72.5061 601.486 L-66.9679 601.486 Q-70.2462 599.481 -71.8058 596.68 Q-73.3654 593.879 -73.3654 590.028 Q-73.3654 586.145 -71.3921 583.439 Q-69.4187 580.702 -65.6629 579.397 Z" fill="#000000" fill-rule="evenodd" fill-opacity="1" /><path clip-path="url(#clip850)" d="M 0 0 M-42.2053 543.526 L-23.2992 543.526 L-23.2992 549.414 L-72.5061 549.414 L-72.5061 543.526 L-67.0952 543.526 Q-70.2781 541.68 -71.8058 538.879 Q-73.3654 536.046 -73.3654 532.132 Q-73.3654 525.639 -68.2092 521.596 Q-63.053 517.522 -54.6503 517.522 Q-46.2475 517.522 -41.0913 521.596 Q-35.9351 525.639 -35.9351 532.132 Q-35.9351 536.046 -37.4628 538.879 Q-39.0224 541.68 -42.2053 543.526 M-54.6503 523.601 Q-61.1114 523.601 -64.7717 526.275 Q-68.4638 528.917 -68.4638 533.564 Q-68.4638 538.211 -64.7717 540.884 Q-61.1114 543.526 -54.6503 543.526 Q-48.1891 543.526 -44.497 540.884 Q-40.8367 538.211 -40.8367 533.564 Q-40.8367 528.917 -44.497 526.275 Q-48.1891 523.601 -54.6503 523.601 Z" fill="#000000" fill-rule="evenodd" fill-opacity="1" /><path clip-path="url(#clip850)" d="M 0 0 M-86.3833 511.379 L-86.3833 505.523 L-36.8581 505.523 L-36.8581 511.379 L-86.3833 511.379 Z" fill="#000000" fill-rule="evenodd" fill-opacity="1" /><path clip-path="url(#clip850)" d="M 0 0 M-56.1462 468.888 L-53.2816 468.888 L-53.2816 495.815 Q-47.2342 495.433 -44.0514 492.187 Q-40.9003 488.908 -40.9003 483.084 Q-40.9003 479.71 -41.7279 476.559 Q-42.5554 473.376 -44.2105 470.257 L-38.6723 470.257 Q-37.3355 473.408 -36.6353 476.718 Q-35.9351 480.028 -35.9351 483.434 Q-35.9351 491.964 -40.9003 496.961 Q-45.8656 501.926 -54.332 501.926 Q-63.0848 501.926 -68.2092 497.216 Q-73.3654 492.473 -73.3654 484.452 Q-73.3654 477.259 -68.7185 473.09 Q-64.1033 468.888 -56.1462 468.888 M-57.8649 474.745 Q-62.671 474.808 -65.5356 477.45 Q-68.4002 480.06 -68.4002 484.389 Q-68.4002 489.29 -65.6311 492.25 Q-62.862 495.179 -57.8331 495.624 L-57.8649 474.745 Z" fill="#000000" fill-rule="evenodd" fill-opacity="1" /><path clip-path="url(#clip850)" d="M 0 0 M-72.5061 446.226 L-72.5061 440.02 L-42.5872 428.88 L-72.5061 417.74 L-72.5061 411.533 L-36.8581 424.901 L-36.8581 432.858 L-72.5061 446.226 Z" fill="#000000" fill-rule="evenodd" fill-opacity="1" /><path clip-path="url(#clip850)" d="M 0 0 M-54.7776 389.19 Q-54.7776 396.287 -53.1543 399.025 Q-51.5311 401.762 -47.6162 401.762 Q-44.497 401.762 -42.6509 399.725 Q-40.8367 397.656 -40.8367 394.123 Q-40.8367 389.253 -44.2742 386.325 Q-47.7435 383.365 -53.4726 383.365 L-54.7776 383.365 L-54.7776 389.19 M-57.1965 377.509 L-36.8581 377.509 L-36.8581 383.365 L-42.269 383.365 Q-39.0224 385.37 -37.4628 388.362 Q-35.9351 391.354 -35.9351 395.683 Q-35.9351 401.157 -38.9906 404.404 Q-42.078 407.618 -47.2342 407.618 Q-53.2498 407.618 -56.3053 403.608 Q-59.3609 399.566 -59.3609 391.577 L-59.3609 383.365 L-59.9338 383.365 Q-63.976 383.365 -66.1722 386.039 Q-68.4002 388.68 -68.4002 393.486 Q-68.4002 396.542 -67.6681 399.438 Q-66.9361 402.335 -65.472 405.008 L-70.8828 405.008 Q-72.1241 401.794 -72.7289 398.77 Q-73.3654 395.746 -73.3654 392.882 Q-73.3654 385.147 -69.355 381.328 Q-65.3446 377.509 -57.1965 377.509 Z" fill="#000000" fill-rule="evenodd" fill-opacity="1" /><path clip-path="url(#clip850)" d="M 0 0 M-86.3833 371.366 L-86.3833 365.509 L-36.8581 365.509 L-36.8581 371.366 L-86.3833 371.366 Z" fill="#000000" fill-rule="evenodd" fill-opacity="1" /><path clip-path="url(#clip850)" d="M 0 0 M-50.9263 359.971 L-72.5061 359.971 L-72.5061 354.115 L-51.1491 354.115 Q-46.0884 354.115 -43.5421 352.141 Q-41.0276 350.168 -41.0276 346.221 Q-41.0276 341.479 -44.0514 338.741 Q-47.0751 335.972 -52.2949 335.972 L-72.5061 335.972 L-72.5061 330.116 L-36.8581 330.116 L-36.8581 335.972 L-42.3326 335.972 Q-39.0861 338.105 -37.4947 340.938 Q-35.9351 343.738 -35.9351 347.462 Q-35.9351 353.605 -39.7545 356.788 Q-43.5739 359.971 -50.9263 359.971 M-73.3654 345.234 L-73.3654 345.234 Z" fill="#000000" fill-rule="evenodd" fill-opacity="1" /><path clip-path="url(#clip850)" d="M 0 0 M-56.1462 293.481 L-53.2816 293.481 L-53.2816 320.408 Q-47.2342 320.026 -44.0514 316.78 Q-40.9003 313.501 -40.9003 307.677 Q-40.9003 304.303 -41.7279 301.152 Q-42.5554 297.969 -44.2105 294.85 L-38.6723 294.85 Q-37.3355 298.001 -36.6353 301.311 Q-35.9351 304.621 -35.9351 308.027 Q-35.9351 316.557 -40.9003 321.554 Q-45.8656 326.519 -54.332 326.519 Q-63.0848 326.519 -68.2092 321.809 Q-73.3654 317.066 -73.3654 309.045 Q-73.3654 301.852 -68.7185 297.683 Q-64.1033 293.481 -56.1462 293.481 M-57.8649 299.338 Q-62.671 299.401 -65.5356 302.043 Q-68.4002 304.653 -68.4002 308.982 Q-68.4002 313.883 -65.6311 316.843 Q-62.862 319.772 -57.8331 320.217 L-57.8649 299.338 Z" fill="#000000" fill-rule="evenodd" fill-opacity="1" /><path clip-path="url(#clip850)" d="M 0 0 M1048.63 43.8146 L1022.83 43.8146 Q1023.43 55.9268 1026.23 61.0714 Q1029.71 67.3908 1035.75 67.3908 Q1041.82 67.3908 1045.19 61.0309 Q1048.14 55.4407 1048.63 43.8146 M1048.51 36.928 Q1047.37 25.4235 1045.19 21.3726 Q1041.7 14.9721 1035.75 14.9721 Q1029.55 14.9721 1026.27 21.2916 Q1023.68 26.3957 1022.91 36.928 L1048.51 36.928 M1035.75 8.89579 Q1045.47 8.89579 1051.02 17.4837 Q1056.57 26.0311 1056.57 41.1815 Q1056.57 56.2914 1051.02 64.8793 Q1045.47 73.5077 1035.75 73.5077 Q1025.99 73.5077 1020.48 64.8793 Q1014.93 56.2914 1014.93 41.1815 Q1014.93 26.0311 1020.48 17.4837 Q1025.99 8.89579 1035.75 8.89579 Z" fill="#000000" fill-rule="evenodd" fill-opacity="1" /><polyline clip-path="url(#clip852)" style="stroke:#009af9; stroke-width:4; stroke-opacity:1; fill:none" points="
  170.646,285.304 172.378,283.901 174.11,193.911 175.842,779.724 177.574,598.732 179.306,473.662 181.038,535.588 182.77,580.993 184.502,442.734 186.234,442.734 
  187.966,522.136 189.698,320.555 191.429,587.131 193.161,593.314 194.893,597.034 196.625,342.359 198.357,342.359 200.089,338.513 201.821,257.181 203.553,645.827 
  205.285,604.228 207.017,264.015 208.749,264.523 210.481,651.588 212.213,277.617 213.945,530.624 215.677,687.208 217.409,570.786 219.14,652.854 220.872,255.108 
  222.604,254.872 224.336,740.263 226.068,612.772 227.8,506.097 229.532,605.042 231.264,493.039 232.996,404.898 234.728,327.503 236.46,349.758 238.192,306.788 
  239.924,370.842 241.656,367.986 243.388,367.986 245.119,319.83 246.851,352.663 248.583,293.566 250.315,291.584 252.047,768.677 253.779,887.252 255.511,299.329 
  257.243,317.025 258.975,425.743 260.707,425.743 262.439,382.295 264.171,320.967 265.903,320.967 267.635,401.526 269.367,744.705 271.099,705.147 272.83,264.72 
  274.562,302.887 276.294,302.887 278.026,290.246 279.758,657.441 281.49,657.441 283.222,543.466 284.954,371.476 286.686,402.865 288.418,372.697 290.15,372.697 
  291.882,418.215 293.614,308.33 295.346,407.452 297.078,442.692 298.809,528.348 300.541,578.199 302.273,476.588 304.005,478.697 305.737,157.392 307.469,370.676 
  309.201,236.404 310.933,209.106 312.665,97.8529 314.397,467.425 316.129,473.723 317.861,618.345 319.593,441.243 321.325,548.695 323.057,343.321 324.789,329.513 
  326.52,674.345 328.252,509.232 329.984,473.545 331.716,253.503 333.448,417.785 335.18,332.047 336.912,332.047 338.644,261.945 340.376,300.404 342.108,247.315 
  343.84,670.52 345.572,729.92 347.304,225.193 349.036,199.42 350.768,850.257 352.499,681.709 354.231,274.137 355.963,312.001 357.695,321.653 359.427,321.653 
  361.159,460.608 362.891,255.859 364.623,280.112 366.355,396.546 368.087,396.546 369.819,680.963 371.551,365.395 373.283,399.075 375.015,389.16 376.747,523.493 
  378.479,502.975 380.21,472.418 381.942,556.59 383.674,556.59 385.406,556.59 387.138,499.321 388.87,531.402 390.602,583.385 392.334,390.785 394.066,579.466 
  395.798,395.038 397.53,269.164 399.262,266.783 400.994,642.801 402.726,642.801 404.458,480.479 406.189,624.585 407.921,450.179 409.653,524.085 411.385,359.614 
  413.117,257.871 414.849,240.526 416.581,347.626 418.313,500.851 420.045,466.82 421.777,366.931 423.509,366.931 425.241,366.931 426.973,429.539 428.705,549.92 
  430.437,547.615 432.169,370.747 433.9,371.168 435.632,448.555 437.364,401.09 439.096,208.688 440.828,197.523 442.56,331.178 444.292,385.249 446.024,331.333 
  447.756,291.58 449.488,266.368 451.22,188.909 452.952,298.144 454.684,675.283 456.416,471.219 458.148,561.336 459.879,485.121 461.611,486.778 463.343,721.998 
  465.075,731.86 466.807,311.731 468.539,282.201 470.271,140.467 472.003,266.048 473.735,367.828 475.467,555.577 477.199,597.755 478.931,610.463 480.663,359.875 
  482.395,449.463 484.127,469.028 485.859,389.092 487.59,389.092 489.322,476.926 491.054,441.879 492.786,530.042 494.518,464.232 496.25,388.294 497.982,388.294 
  499.714,375.599 501.446,364.617 503.178,287.708 504.91,316.254 506.642,294.912 508.374,294.912 510.106,362.329 511.838,417.721 513.569,413.269 515.301,599.416 
  517.033,348.803 518.765,580.065 520.497,368.31 522.229,332.389 523.961,335.061 525.693,276.843 527.425,276.843 529.157,333.708 530.889,373.901 532.621,299.793 
  534.353,610.108 536.085,480.747 537.817,480.747 539.549,700.398 541.28,606.003 543.012,383.971 544.744,383.971 546.476,326.393 548.208,462.451 549.94,152.776 
  551.672,256.062 553.404,376.227 555.136,161.674 556.868,813.463 558.6,515.932 560.332,515.932 562.064,591.782 563.796,591.782 565.528,353.688 567.259,291.214 
  568.991,291.077 570.723,306.532 572.455,335.321 574.187,366.243 575.919,366.083 577.651,366.083 579.383,364.102 581.115,364.102 582.847,396.991 584.579,217.969 
  586.311,563.942 588.043,524.192 589.775,439.503 591.507,511.999 593.239,665.786 594.97,641.369 596.702,416.407 598.434,425.54 600.166,454.502 601.898,454.502 
  603.63,454.502 605.362,502.909 607.094,397.792 608.826,371.977 610.558,394.138 612.29,394.138 614.022,374.575 615.754,227.047 617.486,718.387 619.218,708.74 
  620.949,387.12 622.681,369.118 624.413,415.242 626.145,553.741 627.877,458.67 629.609,353.428 631.341,573.929 633.073,339.901 634.805,231.436 636.537,688.473 
  638.269,641.571 640.001,489.498 641.733,573.501 643.465,247.719 645.197,204.394 646.929,204.394 648.66,296.752 650.392,296.752 652.124,573.438 653.856,439.173 
  655.588,447.737 657.32,213.077 659.052,316.276 660.784,273.567 662.516,273.567 664.248,678.62 665.98,240.317 667.712,263.948 669.444,315.106 671.176,353.422 
  672.908,243.166 674.639,519.69 676.371,680.304 678.103,543.649 679.835,418.458 681.567,450.88 683.299,440.509 685.031,347.158 686.763,314.347 688.495,579.734 
  690.227,635.18 691.959,154.513 693.691,113.588 695.423,112.302 697.155,272.877 698.887,308.189 700.619,337.414 702.35,399.341 704.082,792.908 705.814,623.299 
  707.546,348.735 709.278,682.023 711.01,523.396 712.742,523.396 714.474,504.296 716.206,390.177 717.938,366.778 719.67,367.731 721.402,381.872 723.134,338.76 
  724.866,256.394 726.598,142.881 728.329,187.659 730.061,455.829 731.793,146.725 733.525,413.631 735.257,413.631 736.989,211.961 738.721,348.712 740.453,354.874 
  742.185,416.197 743.917,416.197 745.649,202.425 747.381,266.105 749.113,377.138 750.845,377.138 752.577,268.022 754.309,268.369 756.04,391.255 757.772,391.255 
  759.504,218.211 761.236,154.776 762.968,147.685 764.7,267.416 766.432,281.336 768.164,619.695 769.896,765.342 771.628,577.882 773.36,524.491 775.092,381.565 
  776.824,203.74 778.556,323.757 780.288,428.259 782.019,572.281 783.751,287.853 785.483,226.832 787.215,247.845 788.947,247.845 790.679,685.864 792.411,291.237 
  794.143,372.489 795.875,292.708 797.607,233.384 799.339,684.043 801.071,132.876 802.803,196.071 804.535,206.929 806.267,424.012 807.999,296.337 809.73,210.402 
  811.462,275.993 813.194,245.262 814.926,669.601 816.658,500.598 818.39,478.46 820.122,590.31 821.854,397.588 823.586,404.988 825.318,577.462 827.05,674.046 
  828.782,248.313 830.514,629.008 832.246,182.671 833.978,585.283 835.709,690.515 837.441,690.515 839.173,151.404 840.905,246.625 842.637,315.349 844.369,251.622 
  846.101,256.282 847.833,228.06 849.565,225.066 851.297,169.978 853.029,791.261 854.761,641.76 856.493,862.643 858.225,342.293 859.957,314.81 861.689,314.81 
  863.42,320.286 865.152,347.199 866.884,324.139 868.616,324.139 870.348,372.081 872.08,535.531 873.812,343.558 875.544,340.869 877.276,578.101 879.008,247.532 
  880.74,316.278 882.472,376.033 884.204,374.909 885.936,578.533 887.668,311.19 889.399,241.544 891.131,150.442 892.863,184.013 894.595,271.653 896.327,240.046 
  898.059,458.931 899.791,469.067 901.523,314.543 903.255,655.284 904.987,361.053 906.719,601.736 908.451,162.897 910.183,179.5 911.915,185.938 913.647,249.326 
  915.379,337.34 917.11,388.628 918.842,519.15 920.574,593.927 922.306,542.076 924.038,395.483 925.77,324.697 927.502,150.198 929.234,369.124 930.966,403.05 
  932.698,165.305 934.43,228.592 936.162,366.035 937.894,375.762 939.626,98.166 941.358,180.833 943.089,421.43 944.821,638.164 946.553,398.752 948.285,466.415 
  950.017,247.551 951.749,468.107 953.481,431.005 955.213,431.005 956.945,422.814 958.677,465.849 960.409,443.306 962.141,507.18 963.873,232.461 965.605,228.932 
  967.337,491.25 969.069,442.662 970.8,245.402 972.532,143.248 974.264,693.52 975.996,475.486 977.728,385.12 979.46,461.073 981.192,430.954 982.924,430.954 
  984.656,446.565 986.388,281.499 988.12,339.122 989.852,540.991 991.584,214.326 993.316,238.372 995.048,465.757 996.779,461.896 998.511,569.579 1000.24,475.965 
  1001.98,579.47 1003.71,352.823 1005.44,352.823 1007.17,626.143 1008.9,254.247 1010.63,99.8317 1012.37,190.715 1014.1,240.699 1015.83,122.41 1017.56,202.038 
  1019.29,297.494 1021.03,297.494 1022.76,318.405 1024.49,318.353 1026.22,329.462 1027.95,375.522 1029.69,375.522 1031.42,385.436 1033.15,254.878 1034.88,271.823 
  1036.61,313.76 1038.35,665.499 1040.08,463.045 1041.81,262.684 1043.54,206.647 1045.27,618.325 1047.01,265.904 1048.74,265.904 1050.47,359.569 1052.2,688.563 
  1053.93,216.985 1055.67,331.927 1057.4,286.575 1059.13,580.39 1060.86,522.377 1062.59,664.564 1064.32,594.994 1066.06,464.531 1067.79,499.401 1069.52,546.3 
  1071.25,488.631 1072.98,439.431 1074.72,429.182 1076.45,427.831 1078.18,459.899 1079.91,473.628 1081.64,473.628 1083.38,426.027 1085.11,533.552 1086.84,396.03 
  1088.57,406.858 1090.3,567.587 1092.04,364.417 1093.77,246.346 1095.5,358.566 1097.23,350.59 1098.96,420.662 1100.7,481.832 1102.43,444.95 1104.16,437.062 
  1105.89,499.884 1107.62,471.843 1109.36,409.173 1111.09,527.691 1112.82,740.418 1114.55,791.61 1116.28,427.884 1118.01,427.884 1119.75,491.783 1121.48,471.305 
  1123.21,435.313 1124.94,325.69 1126.67,269.103 1128.41,426.743 1130.14,437.698 1131.87,275.841 1133.6,235.241 1135.33,369.737 1137.07,712.975 1138.8,763.635 
  1140.53,532.394 1142.26,340.113 1143.99,423.812 1145.73,411.303 1147.46,287.601 1149.19,332.848 1150.92,387.879 1152.65,449.19 1154.39,522.641 1156.12,522.641 
  1157.85,485.334 1159.58,588.295 1161.31,777.514 1163.05,483.71 1164.78,294.059 1166.51,373.744 1168.24,396.265 1169.97,517.723 1171.7,144.244 1173.44,445.226 
  1175.17,197.915 1176.9,331.542 1178.63,731.365 1180.36,394.044 1182.1,499.689 1183.83,456.542 1185.56,417.332 1187.29,367.534 1189.02,348.639 1190.76,423.613 
  1192.49,330.003 1194.22,426.093 1195.95,495.391 1197.68,396.469 1199.42,368.667 1201.15,375.029 1202.88,542.557 1204.61,451.408 1206.34,501.717 1208.08,412.566 
  1209.81,390.87 1211.54,644.928 1213.27,345.084 1215,339.26 1216.74,299.649 1218.47,673.827 1220.2,598.991 1221.93,512.467 1223.66,487.193 1225.39,311.435 
  1227.13,374.451 1228.86,365.742 1230.59,290.08 1232.32,225.108 1234.05,225.108 1235.79,243.751 1237.52,298.977 1239.25,432.206 1240.98,520.85 1242.71,454.112 
  1244.45,586.077 1246.18,548.825 1247.91,407.859 1249.64,309.768 1251.37,251.005 1253.11,181.444 1254.84,186.8 1256.57,299.103 1258.3,215.478 1260.03,159.305 
  1261.77,284.21 1263.5,336.871 1265.23,270.607 1266.96,393.712 1268.69,142.266 1270.43,184.852 1272.16,289.747 1273.89,315.599 1275.62,461.706 1277.35,340.293 
  1279.08,340.293 1280.82,497.094 1282.55,681.665 1284.28,553.26 1286.01,677.254 1287.74,416.838 1289.48,383.395 1291.21,322.569 1292.94,287.157 1294.67,209.721 
  1296.4,136.932 1298.14,207.839 1299.87,267.355 1301.6,250.405 1303.33,267.728 1305.06,224.031 1306.8,435.632 1308.53,435.632 1310.26,796.703 1311.99,304.088 
  1313.72,271.185 1315.46,499.578 1317.19,419.642 1318.92,419.642 1320.65,419.642 1322.38,429.074 1324.12,488.758 1325.85,429.675 1327.58,471.582 1329.31,363.201 
  1331.04,392.607 1332.77,470.62 1334.51,491.498 1336.24,529.493 1337.97,184.967 1339.7,295.916 1341.43,325.99 1343.17,298.462 1344.9,214.888 1346.63,180.158 
  1348.36,406.62 1350.09,376.338 1351.83,298.06 1353.56,281.862 1355.29,633.48 1357.02,340.308 1358.75,385.65 1360.49,343.631 1362.22,630.215 1363.95,630.215 
  1365.68,258.163 1367.41,690.294 1369.15,226.713 1370.88,368.56 1372.61,398.087 1374.34,576.652 1376.07,576.652 1377.81,386.273 1379.54,335.935 1381.27,524.637 
  1383,524.637 1384.73,422.757 1386.46,485.839 1388.2,402.619 1389.93,397.161 1391.66,460.768 1393.39,453.043 1395.12,296.544 1396.86,507.944 1398.59,598.718 
  1400.32,504.727 1402.05,495.674 1403.78,393.396 1405.52,500.691 1407.25,562.716 1408.98,321.381 1410.71,527.914 1412.44,354.686 1414.18,401.831 1415.91,324.641 
  1417.64,267.855 1419.37,343.708 1421.1,408.79 1422.84,352.293 1424.57,325.24 1426.3,98.2876 1428.03,735.951 1429.76,470.893 1431.5,544.746 1433.23,386.52 
  1434.96,366.126 1436.69,277.011 1438.42,310.127 1440.15,318.433 1441.89,194.345 1443.62,623.373 1445.35,252.676 1447.08,750.69 1448.81,793.201 1450.55,366.064 
  1452.28,497.112 1454.01,477.881 1455.74,477.881 1457.47,541.299 1459.21,310.692 1460.94,570.148 1462.67,445.787 1464.4,446.778 1466.13,515.222 1467.87,199.502 
  1469.6,143.303 1471.33,489.36 1473.06,505.804 1474.79,486.968 1476.53,486.968 1478.26,486.968 1479.99,322.618 1481.72,561.714 1483.45,509.374 1485.19,406.758 
  1486.92,371.166 1488.65,261.861 1490.38,311.032 1492.11,322.446 1493.84,385.636 1495.58,336.535 1497.31,339.514 1499.04,86.9997 1500.77,492.419 1502.5,511.778 
  1504.24,619.436 1505.97,373.581 1507.7,308.521 1509.43,190.354 1511.16,278.774 1512.9,278.774 1514.63,409.401 1516.36,409.401 1518.09,421.294 1519.82,550.425 
  1521.56,379.103 1523.29,317.434 1525.02,333.715 1526.75,469.142 1528.48,465.49 1530.22,141.435 1531.95,258.509 1533.68,331.412 1535.41,352.908 1537.14,322.067 
  1538.88,334.049 1540.61,217.35 1542.34,93.8824 1544.07,148.961 1545.8,209.615 1547.53,450.008 1549.27,470.6 1551,411.598 1552.73,534.943 1554.46,421.877 
  1556.19,421.877 1557.93,491.005 1559.66,471.507 1561.39,609.247 1563.12,625.423 1564.85,563.355 1566.59,563.355 1568.32,518.41 1570.05,458.034 1571.78,303.354 
  1573.51,303.354 1575.25,305.246 1576.98,163.973 1578.71,228.303 1580.44,223.354 1582.17,369.812 1583.91,601.462 1585.64,451.366 1587.37,610.707 1589.1,318.671 
  1590.83,323.085 1592.57,741.831 1594.3,233.587 1596.03,263.993 1597.76,432.232 1599.49,207.724 1601.22,412.095 1602.96,291.007 1604.69,498.747 1606.42,473.11 
  1608.15,682.273 1609.88,330.785 1611.62,627.101 1613.35,555.811 1615.08,237.126 1616.81,237.126 1618.54,197.527 1620.28,319.306 1622.01,351.118 1623.74,224.413 
  1625.47,676.745 1627.2,492.984 1628.94,594.537 1630.67,622.691 1632.4,548.093 1634.13,489.886 1635.86,397.782 1637.6,338.08 1639.33,522.149 1641.06,422.838 
  1642.79,344.518 1644.52,325.646 1646.26,365.056 1647.99,535.599 1649.72,535.599 1651.45,456.994 1653.18,435.606 1654.91,408.666 1656.65,395.265 1658.38,195.254 
  1660.11,314.982 1661.84,294.882 1663.57,294.882 1665.31,331.168 1667.04,238.284 1668.77,327.214 1670.5,374.946 1672.23,302.707 1673.97,379.057 1675.7,333.002 
  1677.43,290.41 1679.16,257.119 1680.89,355.38 1682.63,327.275 1684.36,216.623 1686.09,296.118 1687.82,296.118 1689.55,433.154 1691.29,505.812 1693.02,505.812 
  1694.75,462.023 1696.48,429.053 1698.21,421.139 1699.95,310.517 1701.68,354.395 1703.41,216.262 1705.14,284.874 1706.87,284.874 1708.6,316.369 1710.34,343.563 
  1712.07,399.364 1713.8,465.31 1715.53,465.31 1717.26,468.601 1719,336.659 1720.73,336.659 1722.46,345.389 1724.19,228.704 1725.92,414.819 1727.66,332.263 
  1729.39,391.936 1731.12,390.135 1732.85,200.442 1734.58,282.586 1736.32,220.303 1738.05,331.618 1739.78,340.595 1741.51,455.337 1743.24,678.704 1744.98,256.399 
  1746.71,256.399 1748.44,280.648 1750.17,351.25 1751.9,567.038 1753.64,629.731 1755.37,550.335 1757.1,247.776 1758.83,255.769 1760.56,261.034 1762.29,522.249 
  1764.03,436.44 1765.76,455.729 1767.49,166.779 1769.22,229.936 1770.95,285.963 1772.69,502.332 1774.42,550.266 1776.15,622.003 1777.88,280.463 1779.61,601.967 
  1781.35,601.967 1783.08,370.981 1784.81,292.326 1786.54,292.326 1788.27,278.283 1790.01,282.815 1791.74,156.237 1793.47,146.919 1795.2,175.38 1796.93,406.75 
  1798.67,700.744 1800.4,348.402 1802.13,389.304 1803.86,259.143 1805.59,342.732 1807.33,165.559 1809.06,121.264 1810.79,128.632 1812.52,297.727 1814.25,344.073 
  1815.98,417.635 1817.72,752.165 1819.45,379.657 1821.18,223.58 1822.91,297.274 1824.64,302.556 1826.38,560.304 1828.11,377.156 1829.84,466.33 1831.57,689.969 
  1833.3,691.671 1835.04,265.439 1836.77,330.146 1838.5,185.061 1840.23,368.506 1841.96,368.506 1843.7,487.76 1845.43,419.559 1847.16,547.569 1848.89,369.607 
  1850.62,540.541 1852.36,269.575 1854.09,306.367 1855.82,553.11 1857.55,617.669 1859.28,434.884 1861.02,441.746 1862.75,567.865 1864.48,560.965 1866.21,482.643 
  1867.94,480.398 1869.67,480.398 1871.41,467.563 1873.14,500.336 1874.87,441.255 1876.6,441.255 1878.33,556.63 1880.07,565.823 1881.8,503.935 1883.53,392.499 
  1885.26,337.169 1886.99,438.231 1888.73,445.757 1890.46,250.211 1892.19,271.053 1893.92,299.835 1895.65,498.832 1897.39,673.29 1899.12,673.29 1900.85,364.839 
  
  "/>
<path clip-path="url(#clip850)" d="
M2118.74 911.26 L3952.76 911.26 L3952.76 62.9921 L2118.74 62.9921  Z
  " fill="#ffffff" fill-rule="evenodd" fill-opacity="1"/>
<defs>
  <clipPath id="clip853">
    <rect x="2118" y="62" width="1835" height="849"/>
  </clipPath>
</defs>
<polyline clip-path="url(#clip853)" style="stroke:#000000; stroke-width:2; stroke-opacity:0.1; fill:none" points="
  2379.44,911.26 2379.44,62.9921 
  "/>
<polyline clip-path="url(#clip853)" style="stroke:#000000; stroke-width:2; stroke-opacity:0.1; fill:none" points="
  2736.25,911.26 2736.25,62.9921 
  "/>
<polyline clip-path="url(#clip853)" style="stroke:#000000; stroke-width:2; stroke-opacity:0.1; fill:none" points="
  3093.05,911.26 3093.05,62.9921 
  "/>
<polyline clip-path="url(#clip853)" style="stroke:#000000; stroke-width:2; stroke-opacity:0.1; fill:none" points="
  3449.86,911.26 3449.86,62.9921 
  "/>
<polyline clip-path="url(#clip853)" style="stroke:#000000; stroke-width:2; stroke-opacity:0.1; fill:none" points="
  3806.66,911.26 3806.66,62.9921 
  "/>
<polyline clip-path="url(#clip850)" style="stroke:#000000; stroke-width:4; stroke-opacity:1; fill:none" points="
  2118.74,911.26 3952.76,911.26 
  "/>
<polyline clip-path="url(#clip850)" style="stroke:#000000; stroke-width:4; stroke-opacity:1; fill:none" points="
  2379.44,911.26 2379.44,901.081 
  "/>
<polyline clip-path="url(#clip850)" style="stroke:#000000; stroke-width:4; stroke-opacity:1; fill:none" points="
  2736.25,911.26 2736.25,901.081 
  "/>
<polyline clip-path="url(#clip850)" style="stroke:#000000; stroke-width:4; stroke-opacity:1; fill:none" points="
  3093.05,911.26 3093.05,901.081 
  "/>
<polyline clip-path="url(#clip850)" style="stroke:#000000; stroke-width:4; stroke-opacity:1; fill:none" points="
  3449.86,911.26 3449.86,901.081 
  "/>
<polyline clip-path="url(#clip850)" style="stroke:#000000; stroke-width:4; stroke-opacity:1; fill:none" points="
  3806.66,911.26 3806.66,901.081 
  "/>
<path clip-path="url(#clip850)" d="M 0 0 M2361.75 953.251 Q2358.14 953.251 2356.31 956.815 Q2354.51 960.357 2354.51 967.487 Q2354.51 974.593 2356.31 978.158 Q2358.14 981.699 2361.75 981.699 Q2365.39 981.699 2367.19 978.158 Q2369.02 974.593 2369.02 967.487 Q2369.02 960.357 2367.19 956.815 Q2365.39 953.251 2361.75 953.251 M2361.75 949.547 Q2367.56 949.547 2370.62 954.153 Q2373.7 958.737 2373.7 967.487 Q2373.7 976.213 2370.62 980.82 Q2367.56 985.403 2361.75 985.403 Q2355.94 985.403 2352.87 980.82 Q2349.81 976.213 2349.81 967.487 Q2349.81 958.737 2352.87 954.153 Q2355.94 949.547 2361.75 949.547 Z" fill="#000000" fill-rule="evenodd" fill-opacity="1" /><path clip-path="url(#clip850)" d="M 0 0 M2378.77 978.852 L2383.65 978.852 L2383.65 984.732 L2378.77 984.732 L2378.77 978.852 Z" fill="#000000" fill-rule="evenodd" fill-opacity="1" /><path clip-path="url(#clip850)" d="M 0 0 M2392.75 980.797 L2409.07 980.797 L2409.07 984.732 L2387.12 984.732 L2387.12 980.797 Q2389.79 978.042 2394.37 973.412 Q2398.98 968.76 2400.16 967.417 Q2402.4 964.894 2403.28 963.158 Q2404.19 961.399 2404.19 959.709 Q2404.19 956.954 2402.24 955.218 Q2400.32 953.482 2397.22 953.482 Q2395.02 953.482 2392.56 954.246 Q2390.13 955.01 2387.36 956.561 L2387.36 951.839 Q2390.18 950.704 2392.63 950.126 Q2395.09 949.547 2397.12 949.547 Q2402.5 949.547 2405.69 952.232 Q2408.88 954.917 2408.88 959.408 Q2408.88 961.538 2408.07 963.459 Q2407.29 965.357 2405.18 967.95 Q2404.6 968.621 2401.5 971.838 Q2398.4 975.033 2392.75 980.797 Z" fill="#000000" fill-rule="evenodd" fill-opacity="1" /><path clip-path="url(#clip850)" d="M 0 0 M2717.52 953.251 Q2713.91 953.251 2712.08 956.815 Q2710.27 960.357 2710.27 967.487 Q2710.27 974.593 2712.08 978.158 Q2713.91 981.699 2717.52 981.699 Q2721.15 981.699 2722.96 978.158 Q2724.79 974.593 2724.79 967.487 Q2724.79 960.357 2722.96 956.815 Q2721.15 953.251 2717.52 953.251 M2717.52 949.547 Q2723.33 949.547 2726.38 954.153 Q2729.46 958.737 2729.46 967.487 Q2729.46 976.213 2726.38 980.82 Q2723.33 985.403 2717.52 985.403 Q2711.71 985.403 2708.63 980.82 Q2705.57 976.213 2705.57 967.487 Q2705.57 958.737 2708.63 954.153 Q2711.71 949.547 2717.52 949.547 Z" fill="#000000" fill-rule="evenodd" fill-opacity="1" /><path clip-path="url(#clip850)" d="M 0 0 M2734.53 978.852 L2739.42 978.852 L2739.42 984.732 L2734.53 984.732 L2734.53 978.852 Z" fill="#000000" fill-rule="evenodd" fill-opacity="1" /><path clip-path="url(#clip850)" d="M 0 0 M2757.33 954.246 L2745.53 972.695 L2757.33 972.695 L2757.33 954.246 M2756.11 950.172 L2761.99 950.172 L2761.99 972.695 L2766.92 972.695 L2766.92 976.584 L2761.99 976.584 L2761.99 984.732 L2757.33 984.732 L2757.33 976.584 L2741.73 976.584 L2741.73 972.07 L2756.11 950.172 Z" fill="#000000" fill-rule="evenodd" fill-opacity="1" /><path clip-path="url(#clip850)" d="M 0 0 M3074.49 953.251 Q3070.87 953.251 3069.05 956.815 Q3067.24 960.357 3067.24 967.487 Q3067.24 974.593 3069.05 978.158 Q3070.87 981.699 3074.49 981.699 Q3078.12 981.699 3079.93 978.158 Q3081.75 974.593 3081.75 967.487 Q3081.75 960.357 3079.93 956.815 Q3078.12 953.251 3074.49 953.251 M3074.49 949.547 Q3080.3 949.547 3083.35 954.153 Q3086.43 958.737 3086.43 967.487 Q3086.43 976.213 3083.35 980.82 Q3080.3 985.403 3074.49 985.403 Q3068.68 985.403 3065.6 980.82 Q3062.54 976.213 3062.54 967.487 Q3062.54 958.737 3065.6 954.153 Q3068.68 949.547 3074.49 949.547 Z" fill="#000000" fill-rule="evenodd" fill-opacity="1" /><path clip-path="url(#clip850)" d="M 0 0 M3091.5 978.852 L3096.38 978.852 L3096.38 984.732 L3091.5 984.732 L3091.5 978.852 Z" fill="#000000" fill-rule="evenodd" fill-opacity="1" /><path clip-path="url(#clip850)" d="M 0 0 M3112.03 965.588 Q3108.88 965.588 3107.03 967.741 Q3105.2 969.894 3105.2 973.644 Q3105.2 977.371 3107.03 979.547 Q3108.88 981.699 3112.03 981.699 Q3115.18 981.699 3117.01 979.547 Q3118.86 977.371 3118.86 973.644 Q3118.86 969.894 3117.01 967.741 Q3115.18 965.588 3112.03 965.588 M3121.31 950.936 L3121.31 955.195 Q3119.56 954.362 3117.75 953.922 Q3115.97 953.482 3114.21 953.482 Q3109.58 953.482 3107.12 956.607 Q3104.69 959.732 3104.35 966.051 Q3105.71 964.038 3107.77 962.973 Q3109.83 961.885 3112.31 961.885 Q3117.52 961.885 3120.53 965.056 Q3123.56 968.204 3123.56 973.644 Q3123.56 978.968 3120.41 982.186 Q3117.26 985.403 3112.03 985.403 Q3106.04 985.403 3102.87 980.82 Q3099.69 976.213 3099.69 967.487 Q3099.69 959.292 3103.58 954.431 Q3107.47 949.547 3114.02 949.547 Q3115.78 949.547 3117.56 949.894 Q3119.37 950.241 3121.31 950.936 Z" fill="#000000" fill-rule="evenodd" fill-opacity="1" /><path clip-path="url(#clip850)" d="M 0 0 M3431.42 953.251 Q3427.81 953.251 3425.98 956.815 Q3424.17 960.357 3424.17 967.487 Q3424.17 974.593 3425.98 978.158 Q3427.81 981.699 3431.42 981.699 Q3435.05 981.699 3436.86 978.158 Q3438.69 974.593 3438.69 967.487 Q3438.69 960.357 3436.86 956.815 Q3435.05 953.251 3431.42 953.251 M3431.42 949.547 Q3437.23 949.547 3440.28 954.153 Q3443.36 958.737 3443.36 967.487 Q3443.36 976.213 3440.28 980.82 Q3437.23 985.403 3431.42 985.403 Q3425.61 985.403 3422.53 980.82 Q3419.47 976.213 3419.47 967.487 Q3419.47 958.737 3422.53 954.153 Q3425.61 949.547 3431.42 949.547 Z" fill="#000000" fill-rule="evenodd" fill-opacity="1" /><path clip-path="url(#clip850)" d="M 0 0 M3448.43 978.852 L3453.32 978.852 L3453.32 984.732 L3448.43 984.732 L3448.43 978.852 Z" fill="#000000" fill-rule="evenodd" fill-opacity="1" /><path clip-path="url(#clip850)" d="M 0 0 M3468.39 968.32 Q3465.05 968.32 3463.13 970.102 Q3461.23 971.885 3461.23 975.01 Q3461.23 978.135 3463.13 979.917 Q3465.05 981.699 3468.39 981.699 Q3471.72 981.699 3473.64 979.917 Q3475.56 978.112 3475.56 975.01 Q3475.56 971.885 3473.64 970.102 Q3471.74 968.32 3468.39 968.32 M3463.71 966.329 Q3460.7 965.588 3459.01 963.528 Q3457.34 961.468 3457.34 958.505 Q3457.34 954.362 3460.28 951.954 Q3463.25 949.547 3468.39 949.547 Q3473.55 949.547 3476.49 951.954 Q3479.43 954.362 3479.43 958.505 Q3479.43 961.468 3477.74 963.528 Q3476.07 965.588 3473.09 966.329 Q3476.46 967.116 3478.34 969.408 Q3480.24 971.7 3480.24 975.01 Q3480.24 980.033 3477.16 982.718 Q3474.1 985.403 3468.39 985.403 Q3462.67 985.403 3459.59 982.718 Q3456.53 980.033 3456.53 975.01 Q3456.53 971.7 3458.43 969.408 Q3460.33 967.116 3463.71 966.329 M3462 958.945 Q3462 961.63 3463.66 963.135 Q3465.35 964.639 3468.39 964.639 Q3471.4 964.639 3473.09 963.135 Q3474.8 961.63 3474.8 958.945 Q3474.8 956.26 3473.09 954.755 Q3471.4 953.251 3468.39 953.251 Q3465.35 953.251 3463.66 954.755 Q3462 956.26 3462 958.945 Z" fill="#000000" fill-rule="evenodd" fill-opacity="1" /><path clip-path="url(#clip850)" d="M 0 0 M3778.56 980.797 L3786.2 980.797 L3786.2 954.431 L3777.89 956.098 L3777.89 951.839 L3786.15 950.172 L3790.83 950.172 L3790.83 980.797 L3798.47 980.797 L3798.47 984.732 L3778.56 984.732 L3778.56 980.797 Z" fill="#000000" fill-rule="evenodd" fill-opacity="1" /><path clip-path="url(#clip850)" d="M 0 0 M3803.54 978.852 L3808.42 978.852 L3808.42 984.732 L3803.54 984.732 L3803.54 978.852 Z" fill="#000000" fill-rule="evenodd" fill-opacity="1" /><path clip-path="url(#clip850)" d="M 0 0 M3823.49 953.251 Q3819.88 953.251 3818.05 956.815 Q3816.25 960.357 3816.25 967.487 Q3816.25 974.593 3818.05 978.158 Q3819.88 981.699 3823.49 981.699 Q3827.12 981.699 3828.93 978.158 Q3830.76 974.593 3830.76 967.487 Q3830.76 960.357 3828.93 956.815 Q3827.12 953.251 3823.49 953.251 M3823.49 949.547 Q3829.3 949.547 3832.36 954.153 Q3835.43 958.737 3835.43 967.487 Q3835.43 976.213 3832.36 980.82 Q3829.3 985.403 3823.49 985.403 Q3817.68 985.403 3814.6 980.82 Q3811.55 976.213 3811.55 967.487 Q3811.55 958.737 3814.6 954.153 Q3817.68 949.547 3823.49 949.547 Z" fill="#000000" fill-rule="evenodd" fill-opacity="1" /><path clip-path="url(#clip850)" d="M 0 0 M2872.69 1014.16 L2872.69 1020.43 Q2869.03 1018.68 2865.78 1017.82 Q2862.54 1016.96 2859.51 1016.96 Q2854.26 1016.96 2851.4 1019 Q2848.56 1021.04 2848.56 1024.79 Q2848.56 1027.95 2850.44 1029.57 Q2852.35 1031.16 2857.64 1032.15 L2861.52 1032.94 Q2868.71 1034.31 2872.12 1037.78 Q2875.56 1041.22 2875.56 1047.01 Q2875.56 1053.92 2870.91 1057.48 Q2866.29 1061.05 2857.35 1061.05 Q2853.98 1061.05 2850.16 1060.28 Q2846.37 1059.52 2842.29 1058.02 L2842.29 1051.4 Q2846.21 1053.6 2849.96 1054.71 Q2853.72 1055.83 2857.35 1055.83 Q2862.86 1055.83 2865.85 1053.66 Q2868.84 1051.5 2868.84 1047.49 Q2868.84 1043.99 2866.67 1042.01 Q2864.54 1040.04 2859.64 1039.05 L2855.73 1038.29 Q2848.53 1036.86 2845.32 1033.8 Q2842.1 1030.75 2842.1 1025.3 Q2842.1 1019 2846.53 1015.37 Q2850.98 1011.74 2858.78 1011.74 Q2862.12 1011.74 2865.59 1012.35 Q2869.06 1012.95 2872.69 1014.16 Z" fill="#000000" fill-rule="evenodd" fill-opacity="1" /><path clip-path="url(#clip850)" d="M 0 0 M2897.9 1042.2 Q2890.8 1042.2 2888.06 1043.83 Q2885.33 1045.45 2885.33 1049.37 Q2885.33 1052.48 2887.36 1054.33 Q2889.43 1056.15 2892.97 1056.15 Q2897.83 1056.15 2900.76 1052.71 Q2903.72 1049.24 2903.72 1043.51 L2903.72 1042.2 L2897.9 1042.2 M2909.58 1039.79 L2909.58 1060.12 L2903.72 1060.12 L2903.72 1054.71 Q2901.72 1057.96 2898.73 1059.52 Q2895.73 1061.05 2891.41 1061.05 Q2885.93 1061.05 2882.68 1057.99 Q2879.47 1054.9 2879.47 1049.75 Q2879.47 1043.73 2883.48 1040.68 Q2887.52 1037.62 2895.51 1037.62 L2903.72 1037.62 L2903.72 1037.05 Q2903.72 1033.01 2901.05 1030.81 Q2898.41 1028.58 2893.6 1028.58 Q2890.55 1028.58 2887.65 1029.31 Q2884.75 1030.05 2882.08 1031.51 L2882.08 1026.1 Q2885.29 1024.86 2888.32 1024.25 Q2891.34 1023.62 2894.21 1023.62 Q2901.94 1023.62 2905.76 1027.63 Q2909.58 1031.64 2909.58 1039.79 Z" fill="#000000" fill-rule="evenodd" fill-opacity="1" /><path clip-path="url(#clip850)" d="M 0 0 M2943.48 1031.32 Q2945.67 1027.37 2948.73 1025.49 Q2951.78 1023.62 2955.92 1023.62 Q2961.49 1023.62 2964.52 1027.53 Q2967.54 1031.41 2967.54 1038.61 L2967.54 1060.12 L2961.65 1060.12 L2961.65 1038.8 Q2961.65 1033.67 2959.84 1031.19 Q2958.02 1028.71 2954.3 1028.71 Q2949.75 1028.71 2947.11 1031.73 Q2944.46 1034.76 2944.46 1039.98 L2944.46 1060.12 L2938.58 1060.12 L2938.58 1038.8 Q2938.58 1033.64 2936.76 1031.19 Q2934.95 1028.71 2931.16 1028.71 Q2926.67 1028.71 2924.03 1031.76 Q2921.39 1034.79 2921.39 1039.98 L2921.39 1060.12 L2915.5 1060.12 L2915.5 1024.48 L2921.39 1024.48 L2921.39 1030.01 Q2923.39 1026.74 2926.19 1025.18 Q2929 1023.62 2932.85 1023.62 Q2936.73 1023.62 2939.43 1025.59 Q2942.17 1027.56 2943.48 1031.32 Z" fill="#000000" fill-rule="evenodd" fill-opacity="1" /><path clip-path="url(#clip850)" d="M 0 0 M2979.35 1054.78 L2979.35 1073.68 L2973.46 1073.68 L2973.46 1024.48 L2979.35 1024.48 L2979.35 1029.89 Q2981.19 1026.7 2983.99 1025.18 Q2986.83 1023.62 2990.74 1023.62 Q2997.24 1023.62 3001.28 1028.77 Q3005.35 1033.93 3005.35 1042.33 Q3005.35 1050.73 3001.28 1055.89 Q2997.24 1061.05 2990.74 1061.05 Q2986.83 1061.05 2983.99 1059.52 Q2981.19 1057.96 2979.35 1054.78 M2999.27 1042.33 Q2999.27 1035.87 2996.6 1032.21 Q2993.96 1028.52 2989.31 1028.52 Q2984.66 1028.52 2981.99 1032.21 Q2979.35 1035.87 2979.35 1042.33 Q2979.35 1048.79 2981.99 1052.48 Q2984.66 1056.15 2989.31 1056.15 Q2993.96 1056.15 2996.6 1052.48 Q2999.27 1048.79 2999.27 1042.33 Z" fill="#000000" fill-rule="evenodd" fill-opacity="1" /><path clip-path="url(#clip850)" d="M 0 0 M3011.49 1010.6 L3017.35 1010.6 L3017.35 1060.12 L3011.49 1060.12 L3011.49 1010.6 Z" fill="#000000" fill-rule="evenodd" fill-opacity="1" /><path clip-path="url(#clip850)" d="M 0 0 M3053.99 1040.84 L3053.99 1043.7 L3027.06 1043.7 Q3027.44 1049.75 3030.69 1052.93 Q3033.97 1056.08 3039.79 1056.08 Q3043.16 1056.08 3046.32 1055.25 Q3049.5 1054.43 3052.62 1052.77 L3052.62 1058.31 Q3049.47 1059.65 3046.16 1060.35 Q3042.85 1061.05 3039.44 1061.05 Q3030.91 1061.05 3025.91 1056.08 Q3020.95 1051.12 3020.95 1042.65 Q3020.95 1033.9 3025.66 1028.77 Q3030.4 1023.62 3038.42 1023.62 Q3045.61 1023.62 3049.78 1028.26 Q3053.99 1032.88 3053.99 1040.84 M3048.13 1039.12 Q3048.07 1034.31 3045.42 1031.45 Q3042.81 1028.58 3038.49 1028.58 Q3033.58 1028.58 3030.62 1031.35 Q3027.7 1034.12 3027.25 1039.15 L3048.13 1039.12 Z" fill="#000000" fill-rule="evenodd" fill-opacity="1" /><path clip-path="url(#clip850)" d="M 0 0 M3076.65 1024.48 L3082.85 1024.48 L3093.99 1054.39 L3105.13 1024.48 L3111.34 1024.48 L3097.97 1060.12 L3090.02 1060.12 L3076.65 1024.48 Z" fill="#000000" fill-rule="evenodd" fill-opacity="1" /><path clip-path="url(#clip850)" d="M 0 0 M3133.68 1042.2 Q3126.59 1042.2 3123.85 1043.83 Q3121.11 1045.45 3121.11 1049.37 Q3121.11 1052.48 3123.15 1054.33 Q3125.22 1056.15 3128.75 1056.15 Q3133.62 1056.15 3136.55 1052.71 Q3139.51 1049.24 3139.51 1043.51 L3139.51 1042.2 L3133.68 1042.2 M3145.37 1039.79 L3145.37 1060.12 L3139.51 1060.12 L3139.51 1054.71 Q3137.5 1057.96 3134.51 1059.52 Q3131.52 1061.05 3127.19 1061.05 Q3121.72 1061.05 3118.47 1057.99 Q3115.26 1054.9 3115.26 1049.75 Q3115.26 1043.73 3119.27 1040.68 Q3123.31 1037.62 3131.3 1037.62 L3139.51 1037.62 L3139.51 1037.05 Q3139.51 1033.01 3136.84 1030.81 Q3134.19 1028.58 3129.39 1028.58 Q3126.33 1028.58 3123.44 1029.31 Q3120.54 1030.05 3117.87 1031.51 L3117.87 1026.1 Q3121.08 1024.86 3124.1 1024.25 Q3127.13 1023.62 3129.99 1023.62 Q3137.73 1023.62 3141.55 1027.63 Q3145.37 1031.64 3145.37 1039.79 Z" fill="#000000" fill-rule="evenodd" fill-opacity="1" /><path clip-path="url(#clip850)" d="M 0 0 M3151.51 1010.6 L3157.36 1010.6 L3157.36 1060.12 L3151.51 1060.12 L3151.51 1010.6 Z" fill="#000000" fill-rule="evenodd" fill-opacity="1" /><path clip-path="url(#clip850)" d="M 0 0 M3162.9 1046.06 L3162.9 1024.48 L3168.76 1024.48 L3168.76 1045.83 Q3168.76 1050.89 3170.73 1053.44 Q3172.71 1055.95 3176.65 1055.95 Q3181.4 1055.95 3184.13 1052.93 Q3186.9 1049.91 3186.9 1044.69 L3186.9 1024.48 L3192.76 1024.48 L3192.76 1060.12 L3186.9 1060.12 L3186.9 1054.65 Q3184.77 1057.9 3181.94 1059.49 Q3179.14 1061.05 3175.41 1061.05 Q3169.27 1061.05 3166.09 1057.23 Q3162.9 1053.41 3162.9 1046.06 M3177.64 1023.62 L3177.64 1023.62 Z" fill="#000000" fill-rule="evenodd" fill-opacity="1" /><path clip-path="url(#clip850)" d="M 0 0 M3229.39 1040.84 L3229.39 1043.7 L3202.47 1043.7 Q3202.85 1049.75 3206.09 1052.93 Q3209.37 1056.08 3215.2 1056.08 Q3218.57 1056.08 3221.72 1055.25 Q3224.91 1054.43 3228.02 1052.77 L3228.02 1058.31 Q3224.87 1059.65 3221.56 1060.35 Q3218.25 1061.05 3214.85 1061.05 Q3206.32 1061.05 3201.32 1056.08 Q3196.35 1051.12 3196.35 1042.65 Q3196.35 1033.9 3201.07 1028.77 Q3205.81 1023.62 3213.83 1023.62 Q3221.02 1023.62 3225.19 1028.26 Q3229.39 1032.88 3229.39 1040.84 M3223.54 1039.12 Q3223.47 1034.31 3220.83 1031.45 Q3218.22 1028.58 3213.89 1028.58 Q3208.99 1028.58 3206.03 1031.35 Q3203.1 1034.12 3202.66 1039.15 L3223.54 1039.12 Z" fill="#000000" fill-rule="evenodd" fill-opacity="1" /><polyline clip-path="url(#clip853)" style="stroke:#000000; stroke-width:2; stroke-opacity:0.1; fill:none" points="
  2118.74,887.255 3952.76,887.255 
  "/>
<polyline clip-path="url(#clip853)" style="stroke:#000000; stroke-width:2; stroke-opacity:0.1; fill:none" points="
  2118.74,624.14 3952.76,624.14 
  "/>
<polyline clip-path="url(#clip853)" style="stroke:#000000; stroke-width:2; stroke-opacity:0.1; fill:none" points="
  2118.74,361.024 3952.76,361.024 
  "/>
<polyline clip-path="url(#clip853)" style="stroke:#000000; stroke-width:2; stroke-opacity:0.1; fill:none" points="
  2118.74,97.9091 3952.76,97.9091 
  "/>
<polyline clip-path="url(#clip850)" style="stroke:#000000; stroke-width:4; stroke-opacity:1; fill:none" points="
  2118.74,911.26 2118.74,62.9921 
  "/>
<polyline clip-path="url(#clip850)" style="stroke:#000000; stroke-width:4; stroke-opacity:1; fill:none" points="
  2118.74,887.255 2140.75,887.255 
  "/>
<polyline clip-path="url(#clip850)" style="stroke:#000000; stroke-width:4; stroke-opacity:1; fill:none" points="
  2118.74,624.14 2140.75,624.14 
  "/>
<polyline clip-path="url(#clip850)" style="stroke:#000000; stroke-width:4; stroke-opacity:1; fill:none" points="
  2118.74,361.024 2140.75,361.024 
  "/>
<polyline clip-path="url(#clip850)" style="stroke:#000000; stroke-width:4; stroke-opacity:1; fill:none" points="
  2118.74,97.9091 2140.75,97.9091 
  "/>
<path clip-path="url(#clip850)" d="M 0 0 M2046.8 873.054 Q2043.18 873.054 2041.36 876.619 Q2039.55 880.16 2039.55 887.29 Q2039.55 894.396 2041.36 897.961 Q2043.18 901.503 2046.8 901.503 Q2050.43 901.503 2052.24 897.961 Q2054.06 894.396 2054.06 887.29 Q2054.06 880.16 2052.24 876.619 Q2050.43 873.054 2046.8 873.054 M2046.8 869.35 Q2052.61 869.35 2055.66 873.956 Q2058.74 878.54 2058.74 887.29 Q2058.74 896.017 2055.66 900.623 Q2052.61 905.206 2046.8 905.206 Q2040.99 905.206 2037.91 900.623 Q2034.85 896.017 2034.85 887.29 Q2034.85 878.54 2037.91 873.956 Q2040.99 869.35 2046.8 869.35 Z" fill="#000000" fill-rule="evenodd" fill-opacity="1" /><path clip-path="url(#clip850)" d="M 0 0 M2038.83 637.485 L2046.47 637.485 L2046.47 611.119 L2038.16 612.786 L2038.16 608.526 L2046.43 606.86 L2051.1 606.86 L2051.1 637.485 L2058.74 637.485 L2058.74 641.42 L2038.83 641.42 L2038.83 637.485 Z" fill="#000000" fill-rule="evenodd" fill-opacity="1" /><path clip-path="url(#clip850)" d="M 0 0 M2042.42 374.369 L2058.74 374.369 L2058.74 378.304 L2036.8 378.304 L2036.8 374.369 Q2039.46 371.615 2044.04 366.985 Q2048.65 362.332 2049.83 360.99 Q2052.07 358.467 2052.95 356.73 Q2053.86 354.971 2053.86 353.281 Q2053.86 350.527 2051.91 348.791 Q2049.99 347.055 2046.89 347.055 Q2044.69 347.055 2042.24 347.818 Q2039.81 348.582 2037.03 350.133 L2037.03 345.411 Q2039.85 344.277 2042.31 343.698 Q2044.76 343.119 2046.8 343.119 Q2052.17 343.119 2055.36 345.805 Q2058.55 348.49 2058.55 352.98 Q2058.55 355.11 2057.74 357.031 Q2056.96 358.93 2054.85 361.522 Q2054.27 362.193 2051.17 365.411 Q2048.07 368.605 2042.42 374.369 Z" fill="#000000" fill-rule="evenodd" fill-opacity="1" /><path clip-path="url(#clip850)" d="M 0 0 M2051.61 96.555 Q2054.97 97.2725 2056.84 99.5411 Q2058.74 101.81 2058.74 105.143 Q2058.74 110.259 2055.22 113.059 Q2051.7 115.86 2045.22 115.86 Q2043.05 115.86 2040.73 115.421 Q2038.44 115.004 2035.99 114.147 L2035.99 109.634 Q2037.93 110.768 2040.24 111.347 Q2042.56 111.925 2045.08 111.925 Q2049.48 111.925 2051.77 110.189 Q2054.09 108.453 2054.09 105.143 Q2054.09 102.087 2051.93 100.374 Q2049.81 98.6383 2045.99 98.6383 L2041.96 98.6383 L2041.96 94.7957 L2046.17 94.7957 Q2049.62 94.7957 2051.45 93.43 Q2053.28 92.0411 2053.28 89.4485 Q2053.28 86.7865 2051.38 85.3745 Q2049.5 83.9393 2045.99 83.9393 Q2044.06 83.9393 2041.87 84.3559 Q2039.67 84.7726 2037.03 85.6522 L2037.03 81.4856 Q2039.69 80.7449 2042 80.3745 Q2044.34 80.0041 2046.4 80.0041 Q2051.73 80.0041 2054.83 82.4347 Q2057.93 84.8421 2057.93 88.9624 Q2057.93 91.8328 2056.29 93.8235 Q2054.64 95.7911 2051.61 96.555 Z" fill="#000000" fill-rule="evenodd" fill-opacity="1" /><path clip-path="url(#clip850)" d="M 0 0 M1958.36 588.579 L1995.31 588.579 L1995.31 580.813 Q1995.31 570.978 1990.86 566.427 Q1986.4 561.843 1976.79 561.843 Q1967.24 561.843 1962.81 566.427 Q1958.36 570.978 1958.36 580.813 L1958.36 588.579 M1953.08 595.009 L1953.08 581.8 Q1953.08 567.986 1958.84 561.525 Q1964.57 555.064 1976.79 555.064 Q1989.07 555.064 1994.83 561.557 Q2000.6 568.05 2000.6 581.8 L2000.6 595.009 L1953.08 595.009 Z" fill="#000000" fill-rule="evenodd" fill-opacity="1" /><path clip-path="url(#clip850)" d="M 0 0 M1981.31 518.429 L1984.17 518.429 L1984.17 545.356 Q1990.22 544.974 1993.4 541.728 Q1996.55 538.449 1996.55 532.625 Q1996.55 529.251 1995.73 526.1 Q1994.9 522.917 1993.24 519.798 L1998.78 519.798 Q2000.12 522.949 2000.82 526.259 Q2001.52 529.569 2001.52 532.975 Q2001.52 541.505 1996.55 546.502 Q1991.59 551.467 1983.12 551.467 Q1974.37 551.467 1969.24 546.757 Q1964.09 542.014 1964.09 533.993 Q1964.09 526.8 1968.74 522.631 Q1973.35 518.429 1981.31 518.429 M1979.59 524.286 Q1974.78 524.349 1971.92 526.991 Q1969.05 529.601 1969.05 533.93 Q1969.05 538.831 1971.82 541.791 Q1974.59 544.72 1979.62 545.165 L1979.59 524.286 Z" fill="#000000" fill-rule="evenodd" fill-opacity="1" /><path clip-path="url(#clip850)" d="M 0 0 M1979.08 482.654 L2000.6 482.654 L2000.6 488.511 L1979.27 488.511 Q1974.21 488.511 1971.7 490.484 Q1969.18 492.457 1969.18 496.404 Q1969.18 501.146 1972.2 503.884 Q1975.23 506.621 1980.45 506.621 L2000.6 506.621 L2000.6 512.509 L1964.95 512.509 L1964.95 506.621 L1970.49 506.621 Q1967.27 504.52 1965.68 501.688 Q1964.09 498.823 1964.09 495.099 Q1964.09 488.956 1967.91 485.805 Q1971.7 482.654 1979.08 482.654 Z" fill="#000000" fill-rule="evenodd" fill-opacity="1" /><path clip-path="url(#clip850)" d="M 0 0 M1966 453.786 L1971.54 453.786 Q1970.26 456.268 1969.63 458.942 Q1968.99 461.615 1968.99 464.48 Q1968.99 468.84 1970.33 471.037 Q1971.66 473.201 1974.34 473.201 Q1976.37 473.201 1977.55 471.641 Q1978.7 470.082 1979.75 465.371 L1980.19 463.366 Q1981.53 457.128 1983.98 454.518 Q1986.4 451.876 1990.76 451.876 Q1995.73 451.876 1998.62 455.823 Q2001.52 459.738 2001.52 466.612 Q2001.52 469.477 2000.95 472.596 Q2000.4 475.684 1999.29 479.121 L1993.24 479.121 Q1994.93 475.875 1995.79 472.724 Q1996.62 469.573 1996.62 466.485 Q1996.62 462.347 1995.22 460.119 Q1993.78 457.891 1991.21 457.891 Q1988.82 457.891 1987.55 459.515 Q1986.27 461.106 1985.09 466.549 L1984.62 468.586 Q1983.47 474.029 1981.12 476.448 Q1978.73 478.866 1974.59 478.866 Q1969.56 478.866 1966.83 475.302 Q1964.09 471.737 1964.09 465.18 Q1964.09 461.934 1964.57 459.069 Q1965.04 456.205 1966 453.786 Z" fill="#000000" fill-rule="evenodd" fill-opacity="1" /><path clip-path="url(#clip850)" d="M 0 0 M1964.95 445.733 L1964.95 439.877 L2000.6 439.877 L2000.6 445.733 L1964.95 445.733 M1951.07 445.733 L1951.07 439.877 L1958.49 439.877 L1958.49 445.733 L1951.07 445.733 Z" fill="#000000" fill-rule="evenodd" fill-opacity="1" /><path clip-path="url(#clip850)" d="M 0 0 M1954.83 427.941 L1964.95 427.941 L1964.95 415.878 L1969.5 415.878 L1969.5 427.941 L1988.85 427.941 Q1993.21 427.941 1994.45 426.763 Q1995.69 425.554 1995.69 421.893 L1995.69 415.878 L2000.6 415.878 L2000.6 421.893 Q2000.6 428.673 1998.08 431.251 Q1995.53 433.829 1988.85 433.829 L1969.5 433.829 L1969.5 438.126 L1964.95 438.126 L1964.95 433.829 L1954.83 433.829 L1954.83 427.941 Z" fill="#000000" fill-rule="evenodd" fill-opacity="1" /><path clip-path="url(#clip850)" d="M 0 0 M2003.91 394.903 Q2010.27 397.385 2012.21 399.741 Q2014.15 402.096 2014.15 406.043 L2014.15 410.722 L2009.25 410.722 L2009.25 407.284 Q2009.25 404.865 2008.11 403.528 Q2006.96 402.192 2002.7 400.568 L2000.02 399.518 L1964.95 413.936 L1964.95 407.73 L1992.83 396.59 L1964.95 385.45 L1964.95 379.243 L2003.91 394.903 Z" fill="#000000" fill-rule="evenodd" fill-opacity="1" /><path clip-path="url(#clip850)" d="M 0 0 M3048.63 43.8146 L3022.83 43.8146 Q3023.43 55.9268 3026.23 61.0714 Q3029.71 67.3908 3035.75 67.3908 Q3041.82 67.3908 3045.19 61.0309 Q3048.14 55.4407 3048.63 43.8146 M3048.51 36.928 Q3047.37 25.4235 3045.19 21.3726 Q3041.7 14.9721 3035.75 14.9721 Q3029.55 14.9721 3026.27 21.2916 Q3023.68 26.3957 3022.91 36.928 L3048.51 36.928 M3035.75 8.89579 Q3045.47 8.89579 3051.02 17.4837 Q3056.57 26.0311 3056.57 41.1815 Q3056.57 56.2914 3051.02 64.8793 Q3045.47 73.5077 3035.75 73.5077 Q3025.99 73.5077 3020.48 64.8793 Q3014.93 56.2914 3014.93 41.1815 Q3014.93 26.0311 3020.48 17.4837 Q3025.99 8.89579 3035.75 8.89579 Z" fill="#000000" fill-rule="evenodd" fill-opacity="1" /><polyline clip-path="url(#clip853)" style="stroke:#009af9; stroke-width:4; stroke-opacity:1; fill:none" points="
  2170.65,887.252 2179.34,887.252 2188.04,887.25 2196.73,887.247 2205.42,887.241 2214.12,887.231 2222.81,887.215 2231.51,887.191 2240.2,887.153 2248.9,887.097 
  2257.59,887.015 2266.29,886.901 2274.98,886.743 2283.67,886.533 2292.37,886.259 2301.06,885.911 2309.76,885.481 2318.45,884.964 2327.15,884.358 2335.84,883.665 
  2344.54,882.893 2353.23,882.057 2361.93,881.171 2370.62,880.254 2379.31,879.324 2388.01,878.396 2396.7,877.475 2405.4,876.559 2414.09,875.633 2422.79,874.667 
  2431.48,873.621 2440.18,872.443 2448.87,871.077 2457.56,869.467 2466.26,867.564 2474.95,865.334 2483.65,862.761 2492.34,859.852 2501.04,856.636 2509.73,853.16 
  2518.43,849.484 2527.12,845.673 2535.81,841.789 2544.51,837.88 2553.2,833.975 2561.9,830.079 2570.59,826.17 2579.29,822.198 2587.98,818.088 2596.68,813.745 
  2605.37,809.059 2614.07,803.917 2622.76,798.211 2631.45,791.856 2640.15,784.803 2648.84,777.052 2657.54,768.664 2666.23,759.762 2674.93,750.53 2683.62,741.196 
  2692.32,732.009 2701.01,723.208 2709.7,714.991 2718.4,707.489 2727.09,700.741 2735.79,694.693 2744.48,689.197 2753.18,684.038 2761.87,678.958 2770.57,673.692 
  2779.26,667.997 2787.96,661.682 2796.65,654.624 2805.34,646.772 2814.04,638.15 2822.73,628.839 2831.43,618.967 2840.12,608.687 2848.82,598.159 2857.51,587.534 
  2866.21,576.937 2874.9,566.459 2883.59,556.149 2892.29,546.006 2900.98,535.984 2909.68,525.993 2918.37,515.905 2927.07,505.572 2935.76,494.837 2944.46,483.547 
  2953.15,471.58 2961.84,458.853 2970.54,445.337 2979.23,431.066 2987.93,416.142 2996.62,400.724 3005.32,385.025 3014.01,369.288 3022.71,353.768 3031.4,338.706 
  3040.1,324.31 3048.79,310.728 3057.48,298.038 3066.18,286.24 3074.87,275.259 3083.57,264.952 3092.26,255.131 3100.96,245.577 3109.65,236.07 3118.35,226.409 
  3127.04,216.435 3135.73,206.045 3144.43,195.204 3153.12,183.953 3161.82,172.403 3170.51,160.73 3179.21,149.159 3187.9,137.945 3196.6,127.355 3205.29,117.638 
  3213.99,109.017 3222.68,101.669 3231.37,95.7257 3240.07,91.2716 3248.76,88.3552 3257.46,86.9997 3266.15,87.2148 3274.85,89.0054 3283.54,92.3764 3292.24,97.3323 
  3300.93,103.875 3309.62,111.996 3318.32,121.678 3327.01,132.887 3335.71,145.577 3344.4,159.692 3353.1,175.166 3361.79,191.933 3370.49,209.919 3379.18,229.048 
  3387.87,249.233 3396.57,270.374 3405.26,292.354 3413.96,315.035 3422.65,338.265 3431.35,361.873 3440.04,385.686 3448.74,409.527 3457.43,433.228 3466.13,456.634 
  3474.82,479.605 3483.51,502.016 3492.21,523.76 3500.9,544.75 3509.6,564.917 3518.29,584.215 3526.99,602.627 3535.68,620.167 3544.38,636.88 3553.07,652.841 
  3561.76,668.146 3570.46,682.9 3579.15,697.203 3587.85,711.139 3596.54,724.761 3605.24,738.087 3613.93,751.103 3622.63,763.762 3631.32,775.999 3640.02,787.741 
  3648.71,798.916 3657.4,809.461 3666.1,819.327 3674.79,828.481 3683.49,836.902 3692.18,844.579 3700.88,851.511 3709.57,857.701 3718.27,863.161 3726.96,867.911 
  3735.65,871.977 3744.35,875.398 3753.04,878.222 3761.74,880.506 3770.43,882.313 3779.13,883.712 3787.82,884.769 3796.52,885.548 3805.21,886.11 3813.9,886.504 
  3822.6,886.774 3831.29,886.954 3839.99,887.071 3848.68,887.145 3857.38,887.191 3866.07,887.219 3874.77,887.235 3883.46,887.244 3892.16,887.249 3900.85,887.251 
  
  "/>
</svg>
