<?xml version="1.0" encoding="utf-8"?>
<svg xmlns="http://www.w3.org/2000/svg" xmlns:xlink="http://www.w3.org/1999/xlink" width="1000" height="250" viewBox="0 0 4000 1000">
<defs>
  <clipPath id="clip540">
    <rect x="0" y="0" width="4000" height="1000"/>
  </clipPath>
</defs>
<path clip-path="url(#clip540)" d="
M0 1000 L4000 1000 L4000 0 L0 0  Z
  " fill="#ffffff" fill-rule="evenodd" fill-opacity="1"/>
<defs>
  <clipPath id="clip541">
    <rect x="800" y="0" width="2801" height="1000"/>
  </clipPath>
</defs>
<path clip-path="url(#clip540)" d="
M118.74 911.26 L1952.76 911.26 L1952.76 62.9921 L118.74 62.9921  Z
  " fill="#ffffff" fill-rule="evenodd" fill-opacity="1"/>
<defs>
  <clipPath id="clip542">
    <rect x="118" y="62" width="1835" height="849"/>
  </clipPath>
</defs>
<polyline clip-path="url(#clip542)" style="stroke:#000000; stroke-width:2; stroke-opacity:0.1; fill:none" points="
  168.914,911.26 168.914,62.9921 
  "/>
<polyline clip-path="url(#clip542)" style="stroke:#000000; stroke-width:2; stroke-opacity:0.1; fill:none" points="
  601.898,911.26 601.898,62.9921 
  "/>
<polyline clip-path="url(#clip542)" style="stroke:#000000; stroke-width:2; stroke-opacity:0.1; fill:none" points="
  1034.88,911.26 1034.88,62.9921 
  "/>
<polyline clip-path="url(#clip542)" style="stroke:#000000; stroke-width:2; stroke-opacity:0.1; fill:none" points="
  1467.87,911.26 1467.87,62.9921 
  "/>
<polyline clip-path="url(#clip542)" style="stroke:#000000; stroke-width:2; stroke-opacity:0.1; fill:none" points="
  1900.85,911.26 1900.85,62.9921 
  "/>
<polyline clip-path="url(#clip540)" style="stroke:#000000; stroke-width:4; stroke-opacity:1; fill:none" points="
  118.74,911.26 1952.76,911.26 
  "/>
<polyline clip-path="url(#clip540)" style="stroke:#000000; stroke-width:4; stroke-opacity:1; fill:none" points="
  168.914,911.26 168.914,901.081 
  "/>
<polyline clip-path="url(#clip540)" style="stroke:#000000; stroke-width:4; stroke-opacity:1; fill:none" points="
  601.898,911.26 601.898,901.081 
  "/>
<polyline clip-path="url(#clip540)" style="stroke:#000000; stroke-width:4; stroke-opacity:1; fill:none" points="
  1034.88,911.26 1034.88,901.081 
  "/>
<polyline clip-path="url(#clip540)" style="stroke:#000000; stroke-width:4; stroke-opacity:1; fill:none" points="
  1467.87,911.26 1467.87,901.081 
  "/>
<polyline clip-path="url(#clip540)" style="stroke:#000000; stroke-width:4; stroke-opacity:1; fill:none" points="
  1900.85,911.26 1900.85,901.081 
  "/>
<path clip-path="url(#clip540)" d="M 0 0 M168.914 953.251 Q165.303 953.251 163.475 956.815 Q161.669 960.357 161.669 967.487 Q161.669 974.593 163.475 978.158 Q165.303 981.699 168.914 981.699 Q172.549 981.699 174.354 978.158 Q176.183 974.593 176.183 967.487 Q176.183 960.357 174.354 956.815 Q172.549 953.251 168.914 953.251 M168.914 949.547 Q174.724 949.547 177.78 954.153 Q180.859 958.737 180.859 967.487 Q180.859 976.213 177.78 980.82 Q174.724 985.403 168.914 985.403 Q163.104 985.403 160.025 980.82 Q156.97 976.213 156.97 967.487 Q156.97 958.737 160.025 954.153 Q163.104 949.547 168.914 949.547 Z" fill="#000000" fill-rule="evenodd" fill-opacity="1" /><path clip-path="url(#clip540)" d="M 0 0 M570.035 980.797 L586.354 980.797 L586.354 984.732 L564.41 984.732 L564.41 980.797 Q567.072 978.042 571.655 973.412 Q576.262 968.76 577.442 967.417 Q579.688 964.894 580.567 963.158 Q581.47 961.399 581.47 959.709 Q581.47 956.954 579.526 955.218 Q577.604 953.482 574.503 953.482 Q572.303 953.482 569.85 954.246 Q567.419 955.01 564.641 956.561 L564.641 951.839 Q567.466 950.704 569.919 950.126 Q572.373 949.547 574.41 949.547 Q579.78 949.547 582.975 952.232 Q586.169 954.917 586.169 959.408 Q586.169 961.538 585.359 963.459 Q584.572 965.357 582.465 967.95 Q581.887 968.621 578.785 971.838 Q575.683 975.033 570.035 980.797 Z" fill="#000000" fill-rule="evenodd" fill-opacity="1" /><path clip-path="url(#clip540)" d="M 0 0 M591.47 950.172 L609.826 950.172 L609.826 954.107 L595.752 954.107 L595.752 962.579 Q596.771 962.232 597.789 962.07 Q598.808 961.885 599.826 961.885 Q605.613 961.885 608.993 965.056 Q612.373 968.227 612.373 973.644 Q612.373 979.223 608.9 982.324 Q605.428 985.403 599.109 985.403 Q596.933 985.403 594.664 985.033 Q592.419 984.662 590.012 983.922 L590.012 979.223 Q592.095 980.357 594.317 980.912 Q596.539 981.468 599.016 981.468 Q603.021 981.468 605.359 979.362 Q607.697 977.255 607.697 973.644 Q607.697 970.033 605.359 967.926 Q603.021 965.82 599.016 965.82 Q597.141 965.82 595.266 966.237 Q593.414 966.653 591.47 967.533 L591.47 950.172 Z" fill="#000000" fill-rule="evenodd" fill-opacity="1" /><path clip-path="url(#clip540)" d="M 0 0 M627.442 953.251 Q623.831 953.251 622.002 956.815 Q620.197 960.357 620.197 967.487 Q620.197 974.593 622.002 978.158 Q623.831 981.699 627.442 981.699 Q631.076 981.699 632.882 978.158 Q634.711 974.593 634.711 967.487 Q634.711 960.357 632.882 956.815 Q631.076 953.251 627.442 953.251 M627.442 949.547 Q633.252 949.547 636.308 954.153 Q639.386 958.737 639.386 967.487 Q639.386 976.213 636.308 980.82 Q633.252 985.403 627.442 985.403 Q621.632 985.403 618.553 980.82 Q615.498 976.213 615.498 967.487 Q615.498 958.737 618.553 954.153 Q621.632 949.547 627.442 949.547 Z" fill="#000000" fill-rule="evenodd" fill-opacity="1" /><path clip-path="url(#clip540)" d="M 0 0 M998.146 950.172 L1016.5 950.172 L1016.5 954.107 L1002.43 954.107 L1002.43 962.579 Q1003.45 962.232 1004.47 962.07 Q1005.48 961.885 1006.5 961.885 Q1012.29 961.885 1015.67 965.056 Q1019.05 968.227 1019.05 973.644 Q1019.05 979.223 1015.58 982.324 Q1012.1 985.403 1005.78 985.403 Q1003.61 985.403 1001.34 985.033 Q999.095 984.662 996.688 983.922 L996.688 979.223 Q998.771 980.357 1000.99 980.912 Q1003.22 981.468 1005.69 981.468 Q1009.7 981.468 1012.03 979.362 Q1014.37 977.255 1014.37 973.644 Q1014.37 970.033 1012.03 967.926 Q1009.7 965.82 1005.69 965.82 Q1003.82 965.82 1001.94 966.237 Q1000.09 966.653 998.146 967.533 L998.146 950.172 Z" fill="#000000" fill-rule="evenodd" fill-opacity="1" /><path clip-path="url(#clip540)" d="M 0 0 M1034.12 953.251 Q1030.51 953.251 1028.68 956.815 Q1026.87 960.357 1026.87 967.487 Q1026.87 974.593 1028.68 978.158 Q1030.51 981.699 1034.12 981.699 Q1037.75 981.699 1039.56 978.158 Q1041.39 974.593 1041.39 967.487 Q1041.39 960.357 1039.56 956.815 Q1037.75 953.251 1034.12 953.251 M1034.12 949.547 Q1039.93 949.547 1042.98 954.153 Q1046.06 958.737 1046.06 967.487 Q1046.06 976.213 1042.98 980.82 Q1039.93 985.403 1034.12 985.403 Q1028.31 985.403 1025.23 980.82 Q1022.17 976.213 1022.17 967.487 Q1022.17 958.737 1025.23 954.153 Q1028.31 949.547 1034.12 949.547 Z" fill="#000000" fill-rule="evenodd" fill-opacity="1" /><path clip-path="url(#clip540)" d="M 0 0 M1061.13 953.251 Q1057.52 953.251 1055.69 956.815 Q1053.89 960.357 1053.89 967.487 Q1053.89 974.593 1055.69 978.158 Q1057.52 981.699 1061.13 981.699 Q1064.77 981.699 1066.57 978.158 Q1068.4 974.593 1068.4 967.487 Q1068.4 960.357 1066.57 956.815 Q1064.77 953.251 1061.13 953.251 M1061.13 949.547 Q1066.94 949.547 1070 954.153 Q1073.08 958.737 1073.08 967.487 Q1073.08 976.213 1070 980.82 Q1066.94 985.403 1061.13 985.403 Q1055.32 985.403 1052.24 980.82 Q1049.19 976.213 1049.19 967.487 Q1049.19 958.737 1052.24 954.153 Q1055.32 949.547 1061.13 949.547 Z" fill="#000000" fill-rule="evenodd" fill-opacity="1" /><path clip-path="url(#clip540)" d="M 0 0 M1430.24 950.172 L1452.46 950.172 L1452.46 952.163 L1439.91 984.732 L1435.03 984.732 L1446.84 954.107 L1430.24 954.107 L1430.24 950.172 Z" fill="#000000" fill-rule="evenodd" fill-opacity="1" /><path clip-path="url(#clip540)" d="M 0 0 M1457.58 950.172 L1475.93 950.172 L1475.93 954.107 L1461.86 954.107 L1461.86 962.579 Q1462.88 962.232 1463.9 962.07 Q1464.91 961.885 1465.93 961.885 Q1471.72 961.885 1475.1 965.056 Q1478.48 968.227 1478.48 973.644 Q1478.48 979.223 1475.01 982.324 Q1471.53 985.403 1465.22 985.403 Q1463.04 985.403 1460.77 985.033 Q1458.53 984.662 1456.12 983.922 L1456.12 979.223 Q1458.2 980.357 1460.42 980.912 Q1462.65 981.468 1465.12 981.468 Q1469.13 981.468 1471.47 979.362 Q1473.8 977.255 1473.8 973.644 Q1473.8 970.033 1471.47 967.926 Q1469.13 965.82 1465.12 965.82 Q1463.25 965.82 1461.37 966.237 Q1459.52 966.653 1457.58 967.533 L1457.58 950.172 Z" fill="#000000" fill-rule="evenodd" fill-opacity="1" /><path clip-path="url(#clip540)" d="M 0 0 M1493.55 953.251 Q1489.94 953.251 1488.11 956.815 Q1486.3 960.357 1486.3 967.487 Q1486.3 974.593 1488.11 978.158 Q1489.94 981.699 1493.55 981.699 Q1497.18 981.699 1498.99 978.158 Q1500.82 974.593 1500.82 967.487 Q1500.82 960.357 1498.99 956.815 Q1497.18 953.251 1493.55 953.251 M1493.55 949.547 Q1499.36 949.547 1502.41 954.153 Q1505.49 958.737 1505.49 967.487 Q1505.49 976.213 1502.41 980.82 Q1499.36 985.403 1493.55 985.403 Q1487.74 985.403 1484.66 980.82 Q1481.6 976.213 1481.6 967.487 Q1481.6 958.737 1484.66 954.153 Q1487.74 949.547 1493.55 949.547 Z" fill="#000000" fill-rule="evenodd" fill-opacity="1" /><path clip-path="url(#clip540)" d="M 0 0 M1850.71 980.797 L1858.35 980.797 L1858.35 954.431 L1850.04 956.098 L1850.04 951.839 L1858.3 950.172 L1862.98 950.172 L1862.98 980.797 L1870.62 980.797 L1870.62 984.732 L1850.71 984.732 L1850.71 980.797 Z" fill="#000000" fill-rule="evenodd" fill-opacity="1" /><path clip-path="url(#clip540)" d="M 0 0 M1885.69 953.251 Q1882.08 953.251 1880.25 956.815 Q1878.44 960.357 1878.44 967.487 Q1878.44 974.593 1880.25 978.158 Q1882.08 981.699 1885.69 981.699 Q1889.32 981.699 1891.13 978.158 Q1892.96 974.593 1892.96 967.487 Q1892.96 960.357 1891.13 956.815 Q1889.32 953.251 1885.69 953.251 M1885.69 949.547 Q1891.5 949.547 1894.55 954.153 Q1897.63 958.737 1897.63 967.487 Q1897.63 976.213 1894.55 980.82 Q1891.5 985.403 1885.69 985.403 Q1879.88 985.403 1876.8 980.82 Q1873.74 976.213 1873.74 967.487 Q1873.74 958.737 1876.8 954.153 Q1879.88 949.547 1885.69 949.547 Z" fill="#000000" fill-rule="evenodd" fill-opacity="1" /><path clip-path="url(#clip540)" d="M 0 0 M1912.7 953.251 Q1909.09 953.251 1907.26 956.815 Q1905.46 960.357 1905.46 967.487 Q1905.46 974.593 1907.26 978.158 Q1909.09 981.699 1912.7 981.699 Q1916.34 981.699 1918.14 978.158 Q1919.97 974.593 1919.97 967.487 Q1919.97 960.357 1918.14 956.815 Q1916.34 953.251 1912.7 953.251 M1912.7 949.547 Q1918.51 949.547 1921.57 954.153 Q1924.65 958.737 1924.65 967.487 Q1924.65 976.213 1921.57 980.82 Q1918.51 985.403 1912.7 985.403 Q1906.89 985.403 1903.81 980.82 Q1900.76 976.213 1900.76 967.487 Q1900.76 958.737 1903.81 954.153 Q1906.89 949.547 1912.7 949.547 Z" fill="#000000" fill-rule="evenodd" fill-opacity="1" /><path clip-path="url(#clip540)" d="M 0 0 M1939.72 953.251 Q1936.1 953.251 1934.28 956.815 Q1932.47 960.357 1932.47 967.487 Q1932.47 974.593 1934.28 978.158 Q1936.1 981.699 1939.72 981.699 Q1943.35 981.699 1945.16 978.158 Q1946.98 974.593 1946.98 967.487 Q1946.98 960.357 1945.16 956.815 Q1943.35 953.251 1939.72 953.251 M1939.72 949.547 Q1945.53 949.547 1948.58 954.153 Q1951.66 958.737 1951.66 967.487 Q1951.66 976.213 1948.58 980.82 Q1945.53 985.403 1939.72 985.403 Q1933.91 985.403 1930.83 980.82 Q1927.77 976.213 1927.77 967.487 Q1927.77 958.737 1930.83 954.153 Q1933.91 949.547 1939.72 949.547 Z" fill="#000000" fill-rule="evenodd" fill-opacity="1" /><path clip-path="url(#clip540)" d="M 0 0 M917.76 1012.6 L924.189 1012.6 L924.189 1060.12 L917.76 1060.12 L917.76 1012.6 Z" fill="#000000" fill-rule="evenodd" fill-opacity="1" /><path clip-path="url(#clip540)" d="M 0 0 M936.125 1014.35 L936.125 1024.48 L948.188 1024.48 L948.188 1029.03 L936.125 1029.03 L936.125 1048.38 Q936.125 1052.74 937.302 1053.98 Q938.512 1055.22 942.172 1055.22 L948.188 1055.22 L948.188 1060.12 L942.172 1060.12 Q935.393 1060.12 932.815 1057.61 Q930.236 1055.06 930.236 1048.38 L930.236 1029.03 L925.94 1029.03 L925.94 1024.48 L930.236 1024.48 L930.236 1014.35 L936.125 1014.35 Z" fill="#000000" fill-rule="evenodd" fill-opacity="1" /><path clip-path="url(#clip540)" d="M 0 0 M984.822 1040.84 L984.822 1043.7 L957.895 1043.7 Q958.277 1049.75 961.524 1052.93 Q964.802 1056.08 970.627 1056.08 Q974.001 1056.08 977.152 1055.25 Q980.335 1054.43 983.454 1052.77 L983.454 1058.31 Q980.303 1059.65 976.993 1060.35 Q973.682 1061.05 970.277 1061.05 Q961.747 1061.05 956.75 1056.08 Q951.784 1051.12 951.784 1042.65 Q951.784 1033.9 956.495 1028.77 Q961.237 1023.62 969.258 1023.62 Q976.451 1023.62 980.621 1028.26 Q984.822 1032.88 984.822 1040.84 M978.966 1039.12 Q978.902 1034.31 976.261 1031.45 Q973.651 1028.58 969.322 1028.58 Q964.42 1028.58 961.46 1031.35 Q958.532 1034.12 958.086 1039.15 L978.966 1039.12 Z" fill="#000000" fill-rule="evenodd" fill-opacity="1" /><path clip-path="url(#clip540)" d="M 0 0 M1011.62 1029.95 Q1010.64 1029.38 1009.46 1029.12 Q1008.31 1028.84 1006.91 1028.84 Q1001.95 1028.84 999.273 1032.08 Q996.631 1035.3 996.631 1041.35 L996.631 1060.12 L990.742 1060.12 L990.742 1024.48 L996.631 1024.48 L996.631 1030.01 Q998.477 1026.77 1001.44 1025.21 Q1004.4 1023.62 1008.63 1023.62 Q1009.23 1023.62 1009.97 1023.71 Q1010.7 1023.78 1011.59 1023.93 L1011.62 1029.95 Z" fill="#000000" fill-rule="evenodd" fill-opacity="1" /><path clip-path="url(#clip540)" d="M 0 0 M1033.97 1042.2 Q1026.87 1042.2 1024.13 1043.83 Q1021.39 1045.45 1021.39 1049.37 Q1021.39 1052.48 1023.43 1054.33 Q1025.5 1056.15 1029.03 1056.15 Q1033.9 1056.15 1036.83 1052.71 Q1039.79 1049.24 1039.79 1043.51 L1039.79 1042.2 L1033.97 1042.2 M1045.65 1039.79 L1045.65 1060.12 L1039.79 1060.12 L1039.79 1054.71 Q1037.79 1057.96 1034.79 1059.52 Q1031.8 1061.05 1027.47 1061.05 Q1022 1061.05 1018.75 1057.99 Q1015.54 1054.9 1015.54 1049.75 Q1015.54 1043.73 1019.55 1040.68 Q1023.59 1037.62 1031.58 1037.62 L1039.79 1037.62 L1039.79 1037.05 Q1039.79 1033.01 1037.12 1030.81 Q1034.47 1028.58 1029.67 1028.58 Q1026.61 1028.58 1023.72 1029.31 Q1020.82 1030.05 1018.15 1031.51 L1018.15 1026.1 Q1021.36 1024.86 1024.39 1024.25 Q1027.41 1023.62 1030.27 1023.62 Q1038.01 1023.62 1041.83 1027.63 Q1045.65 1031.64 1045.65 1039.79 Z" fill="#000000" fill-rule="evenodd" fill-opacity="1" /><path clip-path="url(#clip540)" d="M 0 0 M1057.58 1014.35 L1057.58 1024.48 L1069.65 1024.48 L1069.65 1029.03 L1057.58 1029.03 L1057.58 1048.38 Q1057.58 1052.74 1058.76 1053.98 Q1059.97 1055.22 1063.63 1055.22 L1069.65 1055.22 L1069.65 1060.12 L1063.63 1060.12 Q1056.85 1060.12 1054.27 1057.61 Q1051.69 1055.06 1051.69 1048.38 L1051.69 1029.03 L1047.4 1029.03 L1047.4 1024.48 L1051.69 1024.48 L1051.69 1014.35 L1057.58 1014.35 Z" fill="#000000" fill-rule="evenodd" fill-opacity="1" /><path clip-path="url(#clip540)" d="M 0 0 M1075.79 1024.48 L1081.64 1024.48 L1081.64 1060.12 L1075.79 1060.12 L1075.79 1024.48 M1075.79 1010.6 L1081.64 1010.6 L1081.64 1018.01 L1075.79 1018.01 L1075.79 1010.6 Z" fill="#000000" fill-rule="evenodd" fill-opacity="1" /><path clip-path="url(#clip540)" d="M 0 0 M1101.6 1028.58 Q1096.89 1028.58 1094.15 1032.27 Q1091.42 1035.93 1091.42 1042.33 Q1091.42 1048.73 1094.12 1052.42 Q1096.86 1056.08 1101.6 1056.08 Q1106.28 1056.08 1109.02 1052.39 Q1111.75 1048.7 1111.75 1042.33 Q1111.75 1036 1109.02 1032.31 Q1106.28 1028.58 1101.6 1028.58 M1101.6 1023.62 Q1109.24 1023.62 1113.6 1028.58 Q1117.96 1033.55 1117.96 1042.33 Q1117.96 1051.08 1113.6 1056.08 Q1109.24 1061.05 1101.6 1061.05 Q1093.93 1061.05 1089.57 1056.08 Q1085.24 1051.08 1085.24 1042.33 Q1085.24 1033.55 1089.57 1028.58 Q1093.93 1023.62 1101.6 1023.62 Z" fill="#000000" fill-rule="evenodd" fill-opacity="1" /><path clip-path="url(#clip540)" d="M 0 0 M1153.74 1038.61 L1153.74 1060.12 L1147.88 1060.12 L1147.88 1038.8 Q1147.88 1033.74 1145.91 1031.22 Q1143.93 1028.71 1139.99 1028.71 Q1135.24 1028.71 1132.51 1031.73 Q1129.77 1034.76 1129.77 1039.98 L1129.77 1060.12 L1123.88 1060.12 L1123.88 1024.48 L1129.77 1024.48 L1129.77 1030.01 Q1131.87 1026.8 1134.7 1025.21 Q1137.57 1023.62 1141.29 1023.62 Q1147.43 1023.62 1150.59 1027.44 Q1153.74 1031.22 1153.74 1038.61 Z" fill="#000000" fill-rule="evenodd" fill-opacity="1" /><polyline clip-path="url(#clip542)" style="stroke:#000000; stroke-width:2; stroke-opacity:0.1; fill:none" points="
  118.74,804.195 1952.76,804.195 
  "/>
<polyline clip-path="url(#clip542)" style="stroke:#000000; stroke-width:2; stroke-opacity:0.1; fill:none" points="
  118.74,617.102 1952.76,617.102 
  "/>
<polyline clip-path="url(#clip542)" style="stroke:#000000; stroke-width:2; stroke-opacity:0.1; fill:none" points="
  118.74,430.009 1952.76,430.009 
  "/>
<polyline clip-path="url(#clip542)" style="stroke:#000000; stroke-width:2; stroke-opacity:0.1; fill:none" points="
  118.74,242.916 1952.76,242.916 
  "/>
<polyline clip-path="url(#clip540)" style="stroke:#000000; stroke-width:4; stroke-opacity:1; fill:none" points="
  118.74,911.26 118.74,62.9921 
  "/>
<polyline clip-path="url(#clip540)" style="stroke:#000000; stroke-width:4; stroke-opacity:1; fill:none" points="
  118.74,804.195 140.748,804.195 
  "/>
<polyline clip-path="url(#clip540)" style="stroke:#000000; stroke-width:4; stroke-opacity:1; fill:none" points="
  118.74,617.102 140.748,617.102 
  "/>
<polyline clip-path="url(#clip540)" style="stroke:#000000; stroke-width:4; stroke-opacity:1; fill:none" points="
  118.74,430.009 140.748,430.009 
  "/>
<polyline clip-path="url(#clip540)" style="stroke:#000000; stroke-width:4; stroke-opacity:1; fill:none" points="
  118.74,242.916 140.748,242.916 
  "/>
<path clip-path="url(#clip540)" d="M 0 0 M11.4256 789.994 Q7.8145 789.994 5.98581 793.559 Q4.18026 797.1 4.18026 804.23 Q4.18026 811.336 5.98581 814.901 Q7.8145 818.443 11.4256 818.443 Q15.0598 818.443 16.8654 814.901 Q18.6941 811.336 18.6941 804.23 Q18.6941 797.1 16.8654 793.559 Q15.0598 789.994 11.4256 789.994 M11.4256 786.29 Q17.2358 786.29 20.2913 790.897 Q23.37 795.48 23.37 804.23 Q23.37 812.957 20.2913 817.563 Q17.2358 822.146 11.4256 822.146 Q5.61544 822.146 2.53675 817.563 Q-0.518784 812.957 -0.518784 804.23 Q-0.518784 795.48 2.53675 790.897 Q5.61544 786.29 11.4256 786.29 Z" fill="#000000" fill-rule="evenodd" fill-opacity="1" /><path clip-path="url(#clip540)" d="M 0 0 M28.4394 815.596 L33.3236 815.596 L33.3236 821.475 L28.4394 821.475 L28.4394 815.596 Z" fill="#000000" fill-rule="evenodd" fill-opacity="1" /><path clip-path="url(#clip540)" d="M 0 0 M42.4208 817.54 L58.7402 817.54 L58.7402 821.475 L36.7958 821.475 L36.7958 817.54 Q39.4579 814.785 44.0412 810.156 Q48.6476 805.503 49.8282 804.16 Q52.0735 801.637 52.9532 799.901 Q53.8559 798.142 53.8559 796.452 Q53.8559 793.698 51.9115 791.961 Q49.9902 790.225 46.8884 790.225 Q44.6893 790.225 42.2356 790.989 Q39.8051 791.753 37.0273 793.304 L37.0273 788.582 Q39.8514 787.448 42.3051 786.869 Q44.7588 786.29 46.7958 786.29 Q52.1661 786.29 55.3605 788.975 Q58.555 791.661 58.555 796.151 Q58.555 798.281 57.7448 800.202 Q56.9578 802.1 54.8513 804.693 Q54.2726 805.364 51.1708 808.582 Q48.0689 811.776 42.4208 817.54 Z" fill="#000000" fill-rule="evenodd" fill-opacity="1" /><path clip-path="url(#clip540)" d="M 0 0 M9.34227 602.901 Q5.73118 602.901 3.90249 606.466 Q2.09694 610.007 2.09694 617.137 Q2.09694 624.243 3.90249 627.808 Q5.73118 631.35 9.34227 631.35 Q12.9765 631.35 14.7821 627.808 Q16.6108 624.243 16.6108 617.137 Q16.6108 610.007 14.7821 606.466 Q12.9765 602.901 9.34227 602.901 M9.34227 599.197 Q15.1524 599.197 18.208 603.804 Q21.2867 608.387 21.2867 617.137 Q21.2867 625.864 18.208 630.47 Q15.1524 635.054 9.34227 635.054 Q3.53212 635.054 0.453433 630.47 Q-2.60211 625.864 -2.60211 617.137 Q-2.60211 608.387 0.453433 603.804 Q3.53212 599.197 9.34227 599.197 Z" fill="#000000" fill-rule="evenodd" fill-opacity="1" /><path clip-path="url(#clip540)" d="M 0 0 M26.3561 628.503 L31.2403 628.503 L31.2403 634.382 L26.3561 634.382 L26.3561 628.503 Z" fill="#000000" fill-rule="evenodd" fill-opacity="1" /><path clip-path="url(#clip540)" d="M 0 0 M49.1569 603.896 L37.3514 622.345 L49.1569 622.345 L49.1569 603.896 M47.93 599.822 L53.8096 599.822 L53.8096 622.345 L58.7402 622.345 L58.7402 626.234 L53.8096 626.234 L53.8096 634.382 L49.1569 634.382 L49.1569 626.234 L33.5551 626.234 L33.5551 621.72 L47.93 599.822 Z" fill="#000000" fill-rule="evenodd" fill-opacity="1" /><path clip-path="url(#clip540)" d="M 0 0 M9.66635 415.808 Q6.05525 415.808 4.22656 419.373 Q2.42101 422.915 2.42101 430.044 Q2.42101 437.151 4.22656 440.715 Q6.05525 444.257 9.66635 444.257 Q13.3006 444.257 15.1061 440.715 Q16.9348 437.151 16.9348 430.044 Q16.9348 422.915 15.1061 419.373 Q13.3006 415.808 9.66635 415.808 M9.66635 412.104 Q15.4765 412.104 18.532 416.711 Q21.6107 421.294 21.6107 430.044 Q21.6107 438.771 18.532 443.377 Q15.4765 447.961 9.66635 447.961 Q3.85619 447.961 0.777505 443.377 Q-2.27803 438.771 -2.27803 430.044 Q-2.27803 421.294 0.777505 416.711 Q3.85619 412.104 9.66635 412.104 Z" fill="#000000" fill-rule="evenodd" fill-opacity="1" /><path clip-path="url(#clip540)" d="M 0 0 M26.6801 441.41 L31.5644 441.41 L31.5644 447.289 L26.6801 447.289 L26.6801 441.41 Z" fill="#000000" fill-rule="evenodd" fill-opacity="1" /><path clip-path="url(#clip540)" d="M 0 0 M47.2124 428.146 Q44.0643 428.146 42.2125 430.299 Q40.3838 432.451 40.3838 436.201 Q40.3838 439.928 42.2125 442.104 Q44.0643 444.257 47.2124 444.257 Q50.3606 444.257 52.1893 442.104 Q54.0411 439.928 54.0411 436.201 Q54.0411 432.451 52.1893 430.299 Q50.3606 428.146 47.2124 428.146 M56.4948 413.493 L56.4948 417.752 Q54.7355 416.919 52.93 416.479 Q51.1476 416.04 49.3884 416.04 Q44.7588 416.04 42.3051 419.165 Q39.8745 422.29 39.5273 428.609 Q40.893 426.595 42.9532 425.53 Q45.0134 424.442 47.4902 424.442 Q52.6985 424.442 55.7078 427.614 Q58.7402 430.762 58.7402 436.201 Q58.7402 441.526 55.592 444.743 Q52.4439 447.961 47.2124 447.961 Q41.2171 447.961 38.0458 443.377 Q34.8745 438.771 34.8745 430.044 Q34.8745 421.85 38.7634 416.989 Q42.6523 412.104 49.2032 412.104 Q50.9624 412.104 52.7448 412.452 Q54.5504 412.799 56.4948 413.493 Z" fill="#000000" fill-rule="evenodd" fill-opacity="1" /><path clip-path="url(#clip540)" d="M 0 0 M9.92097 228.715 Q6.30988 228.715 4.48119 232.28 Q2.67564 235.822 2.67564 242.951 Q2.67564 250.058 4.48119 253.622 Q6.30988 257.164 9.92097 257.164 Q13.5552 257.164 15.3608 253.622 Q17.1895 250.058 17.1895 242.951 Q17.1895 235.822 15.3608 232.28 Q13.5552 228.715 9.92097 228.715 M9.92097 225.011 Q15.7311 225.011 18.7867 229.618 Q21.8654 234.201 21.8654 242.951 Q21.8654 251.678 18.7867 256.284 Q15.7311 260.868 9.92097 260.868 Q4.11082 260.868 1.03213 256.284 Q-2.02341 251.678 -2.02341 242.951 Q-2.02341 234.201 1.03213 229.618 Q4.11082 225.011 9.92097 225.011 Z" fill="#000000" fill-rule="evenodd" fill-opacity="1" /><path clip-path="url(#clip540)" d="M 0 0 M26.9348 254.317 L31.819 254.317 L31.819 260.196 L26.9348 260.196 L26.9348 254.317 Z" fill="#000000" fill-rule="evenodd" fill-opacity="1" /><path clip-path="url(#clip540)" d="M 0 0 M46.8884 243.785 Q43.5551 243.785 41.6338 245.567 Q39.7356 247.349 39.7356 250.474 Q39.7356 253.599 41.6338 255.382 Q43.5551 257.164 46.8884 257.164 Q50.2217 257.164 52.143 255.382 Q54.0643 253.576 54.0643 250.474 Q54.0643 247.349 52.143 245.567 Q50.2448 243.785 46.8884 243.785 M42.2125 241.794 Q39.2032 241.053 37.5134 238.993 Q35.8468 236.933 35.8468 233.97 Q35.8468 229.826 38.7866 227.419 Q41.7495 225.011 46.8884 225.011 Q52.0504 225.011 54.9902 227.419 Q57.93 229.826 57.93 233.97 Q57.93 236.933 56.2402 238.993 Q54.5735 241.053 51.5874 241.794 Q54.967 242.581 56.842 244.872 Q58.7402 247.164 58.7402 250.474 Q58.7402 255.497 55.6615 258.183 Q52.6059 260.868 46.8884 260.868 Q41.1708 260.868 38.0921 258.183 Q35.0366 255.497 35.0366 250.474 Q35.0366 247.164 36.9347 244.872 Q38.8329 242.581 42.2125 241.794 M40.4995 234.41 Q40.4995 237.095 42.1662 238.599 Q43.856 240.104 46.8884 240.104 Q49.8976 240.104 51.5874 238.599 Q53.3004 237.095 53.3004 234.41 Q53.3004 231.724 51.5874 230.22 Q49.8976 228.715 46.8884 228.715 Q43.856 228.715 42.1662 230.22 Q40.4995 231.724 40.4995 234.41 Z" fill="#000000" fill-rule="evenodd" fill-opacity="1" /><path clip-path="url(#clip540)" d="M 0 0 M-82.8185 650.184 L-76.5483 650.184 Q-78.2989 653.844 -79.1582 657.09 Q-80.0176 660.337 -80.0176 663.361 Q-80.0176 668.612 -77.9806 671.477 Q-75.9435 674.31 -72.1878 674.31 Q-69.0368 674.31 -67.4135 672.432 Q-65.8221 670.522 -64.8354 665.238 L-64.0397 661.355 Q-62.671 654.162 -59.2017 650.756 Q-55.7643 647.319 -49.9715 647.319 Q-43.0647 647.319 -39.4999 651.966 Q-35.9351 656.581 -35.9351 665.525 Q-35.9351 668.899 -36.699 672.718 Q-37.4628 676.506 -38.9588 680.58 L-45.5791 680.58 Q-43.383 676.665 -42.269 672.909 Q-41.155 669.153 -41.155 665.525 Q-41.155 660.019 -43.3193 657.027 Q-45.4836 654.035 -49.494 654.035 Q-52.9952 654.035 -54.9685 656.199 Q-56.9419 658.332 -57.9286 663.233 L-58.6925 667.148 Q-60.1248 674.341 -63.1803 677.556 Q-66.2358 680.771 -71.6785 680.771 Q-77.9806 680.771 -81.609 676.347 Q-85.2375 671.891 -85.2375 664.093 Q-85.2375 660.751 -84.6327 657.281 Q-84.028 653.812 -82.8185 650.184 Z" fill="#000000" fill-rule="evenodd" fill-opacity="1" /><path clip-path="url(#clip540)" d="M 0 0 M-54.7776 624.975 Q-54.7776 632.073 -53.1543 634.81 Q-51.5311 637.548 -47.6162 637.548 Q-44.497 637.548 -42.6509 635.511 Q-40.8367 633.442 -40.8367 629.909 Q-40.8367 625.039 -44.2742 622.111 Q-47.7435 619.151 -53.4726 619.151 L-54.7776 619.151 L-54.7776 624.975 M-57.1965 613.294 L-36.8581 613.294 L-36.8581 619.151 L-42.269 619.151 Q-39.0224 621.156 -37.4628 624.148 Q-35.9351 627.14 -35.9351 631.468 Q-35.9351 636.943 -38.9906 640.189 Q-42.078 643.404 -47.2342 643.404 Q-53.2498 643.404 -56.3053 639.394 Q-59.3609 635.351 -59.3609 627.363 L-59.3609 619.151 L-59.9338 619.151 Q-63.976 619.151 -66.1722 621.824 Q-68.4002 624.466 -68.4002 629.272 Q-68.4002 632.328 -67.6681 635.224 Q-66.9361 638.121 -65.472 640.794 L-70.8828 640.794 Q-72.1241 637.579 -72.7289 634.556 Q-73.3654 631.532 -73.3654 628.667 Q-73.3654 620.933 -69.355 617.114 Q-65.3446 613.294 -57.1965 613.294 Z" fill="#000000" fill-rule="evenodd" fill-opacity="1" /><path clip-path="url(#clip540)" d="M 0 0 M-65.6629 579.397 Q-69.6097 577.201 -71.4876 574.145 Q-73.3654 571.09 -73.3654 566.952 Q-73.3654 561.382 -69.4505 558.358 Q-65.5674 555.335 -58.3742 555.335 L-36.8581 555.335 L-36.8581 561.223 L-58.1832 561.223 Q-63.3076 561.223 -65.7902 563.037 Q-68.2729 564.851 -68.2729 568.575 Q-68.2729 573.127 -65.2492 575.768 Q-62.2254 578.41 -57.0056 578.41 L-36.8581 578.41 L-36.8581 584.298 L-58.1832 584.298 Q-63.3394 584.298 -65.7902 586.113 Q-68.2729 587.927 -68.2729 591.715 Q-68.2729 596.202 -65.2173 598.844 Q-62.1936 601.486 -57.0056 601.486 L-36.8581 601.486 L-36.8581 607.374 L-72.5061 607.374 L-72.5061 601.486 L-66.9679 601.486 Q-70.2462 599.481 -71.8058 596.68 Q-73.3654 593.879 -73.3654 590.028 Q-73.3654 586.145 -71.3921 583.439 Q-69.4187 580.702 -65.6629 579.397 Z" fill="#000000" fill-rule="evenodd" fill-opacity="1" /><path clip-path="url(#clip540)" d="M 0 0 M-42.2053 543.526 L-23.2992 543.526 L-23.2992 549.414 L-72.5061 549.414 L-72.5061 543.526 L-67.0952 543.526 Q-70.2781 541.68 -71.8058 538.879 Q-73.3654 536.046 -73.3654 532.132 Q-73.3654 525.639 -68.2092 521.596 Q-63.053 517.522 -54.6503 517.522 Q-46.2475 517.522 -41.0913 521.596 Q-35.9351 525.639 -35.9351 532.132 Q-35.9351 536.046 -37.4628 538.879 Q-39.0224 541.68 -42.2053 543.526 M-54.6503 523.601 Q-61.1114 523.601 -64.7717 526.275 Q-68.4638 528.917 -68.4638 533.564 Q-68.4638 538.211 -64.7717 540.884 Q-61.1114 543.526 -54.6503 543.526 Q-48.1891 543.526 -44.497 540.884 Q-40.8367 538.211 -40.8367 533.564 Q-40.8367 528.917 -44.497 526.275 Q-48.1891 523.601 -54.6503 523.601 Z" fill="#000000" fill-rule="evenodd" fill-opacity="1" /><path clip-path="url(#clip540)" d="M 0 0 M-86.3833 511.379 L-86.3833 505.523 L-36.8581 505.523 L-36.8581 511.379 L-86.3833 511.379 Z" fill="#000000" fill-rule="evenodd" fill-opacity="1" /><path clip-path="url(#clip540)" d="M 0 0 M-56.1462 468.888 L-53.2816 468.888 L-53.2816 495.815 Q-47.2342 495.433 -44.0514 492.187 Q-40.9003 488.908 -40.9003 483.084 Q-40.9003 479.71 -41.7279 476.559 Q-42.5554 473.376 -44.2105 470.257 L-38.6723 470.257 Q-37.3355 473.408 -36.6353 476.718 Q-35.9351 480.028 -35.9351 483.434 Q-35.9351 491.964 -40.9003 496.961 Q-45.8656 501.926 -54.332 501.926 Q-63.0848 501.926 -68.2092 497.216 Q-73.3654 492.473 -73.3654 484.452 Q-73.3654 477.259 -68.7185 473.09 Q-64.1033 468.888 -56.1462 468.888 M-57.8649 474.745 Q-62.671 474.808 -65.5356 477.45 Q-68.4002 480.06 -68.4002 484.389 Q-68.4002 489.29 -65.6311 492.25 Q-62.862 495.179 -57.8331 495.624 L-57.8649 474.745 Z" fill="#000000" fill-rule="evenodd" fill-opacity="1" /><path clip-path="url(#clip540)" d="M 0 0 M-72.5061 446.226 L-72.5061 440.02 L-42.5872 428.88 L-72.5061 417.74 L-72.5061 411.533 L-36.8581 424.901 L-36.8581 432.858 L-72.5061 446.226 Z" fill="#000000" fill-rule="evenodd" fill-opacity="1" /><path clip-path="url(#clip540)" d="M 0 0 M-54.7776 389.19 Q-54.7776 396.287 -53.1543 399.025 Q-51.5311 401.762 -47.6162 401.762 Q-44.497 401.762 -42.6509 399.725 Q-40.8367 397.656 -40.8367 394.123 Q-40.8367 389.253 -44.2742 386.325 Q-47.7435 383.365 -53.4726 383.365 L-54.7776 383.365 L-54.7776 389.19 M-57.1965 377.509 L-36.8581 377.509 L-36.8581 383.365 L-42.269 383.365 Q-39.0224 385.37 -37.4628 388.362 Q-35.9351 391.354 -35.9351 395.683 Q-35.9351 401.157 -38.9906 404.404 Q-42.078 407.618 -47.2342 407.618 Q-53.2498 407.618 -56.3053 403.608 Q-59.3609 399.566 -59.3609 391.577 L-59.3609 383.365 L-59.9338 383.365 Q-63.976 383.365 -66.1722 386.039 Q-68.4002 388.68 -68.4002 393.486 Q-68.4002 396.542 -67.6681 399.438 Q-66.9361 402.335 -65.472 405.008 L-70.8828 405.008 Q-72.1241 401.794 -72.7289 398.77 Q-73.3654 395.746 -73.3654 392.882 Q-73.3654 385.147 -69.355 381.328 Q-65.3446 377.509 -57.1965 377.509 Z" fill="#000000" fill-rule="evenodd" fill-opacity="1" /><path clip-path="url(#clip540)" d="M 0 0 M-86.3833 371.366 L-86.3833 365.509 L-36.8581 365.509 L-36.8581 371.366 L-86.3833 371.366 Z" fill="#000000" fill-rule="evenodd" fill-opacity="1" /><path clip-path="url(#clip540)" d="M 0 0 M-50.9263 359.971 L-72.5061 359.971 L-72.5061 354.115 L-51.1491 354.115 Q-46.0884 354.115 -43.5421 352.141 Q-41.0276 350.168 -41.0276 346.221 Q-41.0276 341.479 -44.0514 338.741 Q-47.0751 335.972 -52.2949 335.972 L-72.5061 335.972 L-72.5061 330.116 L-36.8581 330.116 L-36.8581 335.972 L-42.3326 335.972 Q-39.0861 338.105 -37.4947 340.938 Q-35.9351 343.738 -35.9351 347.462 Q-35.9351 353.605 -39.7545 356.788 Q-43.5739 359.971 -50.9263 359.971 M-73.3654 345.234 L-73.3654 345.234 Z" fill="#000000" fill-rule="evenodd" fill-opacity="1" /><path clip-path="url(#clip540)" d="M 0 0 M-56.1462 293.481 L-53.2816 293.481 L-53.2816 320.408 Q-47.2342 320.026 -44.0514 316.78 Q-40.9003 313.501 -40.9003 307.677 Q-40.9003 304.303 -41.7279 301.152 Q-42.5554 297.969 -44.2105 294.85 L-38.6723 294.85 Q-37.3355 298.001 -36.6353 301.311 Q-35.9351 304.621 -35.9351 308.027 Q-35.9351 316.557 -40.9003 321.554 Q-45.8656 326.519 -54.332 326.519 Q-63.0848 326.519 -68.2092 321.809 Q-73.3654 317.066 -73.3654 309.045 Q-73.3654 301.852 -68.7185 297.683 Q-64.1033 293.481 -56.1462 293.481 M-57.8649 299.338 Q-62.671 299.401 -65.5356 302.043 Q-68.4002 304.653 -68.4002 308.982 Q-68.4002 313.883 -65.6311 316.843 Q-62.862 319.772 -57.8331 320.217 L-57.8649 299.338 Z" fill="#000000" fill-rule="evenodd" fill-opacity="1" /><path clip-path="url(#clip540)" d="M 0 0 M1048.63 43.8146 L1022.83 43.8146 Q1023.43 55.9268 1026.23 61.0714 Q1029.71 67.3908 1035.75 67.3908 Q1041.82 67.3908 1045.19 61.0309 Q1048.14 55.4407 1048.63 43.8146 M1048.51 36.928 Q1047.37 25.4235 1045.19 21.3726 Q1041.7 14.9721 1035.75 14.9721 Q1029.55 14.9721 1026.27 21.2916 Q1023.68 26.3957 1022.91 36.928 L1048.51 36.928 M1035.75 8.89579 Q1045.47 8.89579 1051.02 17.4837 Q1056.57 26.0311 1056.57 41.1815 Q1056.57 56.2914 1051.02 64.8793 Q1045.47 73.5077 1035.75 73.5077 Q1025.99 73.5077 1020.48 64.8793 Q1014.93 56.2914 1014.93 41.1815 Q1014.93 26.0311 1020.48 17.4837 Q1025.99 8.89579 1035.75 8.89579 Z" fill="#000000" fill-rule="evenodd" fill-opacity="1" /><polyline clip-path="url(#clip542)" style="stroke:#009af9; stroke-width:4; stroke-opacity:1; fill:none" points="
  170.646,231.306 172.378,275.041 174.11,275.041 175.842,488.322 177.574,488.322 179.306,494.296 181.038,207.064 182.77,190.531 184.502,187.469 186.234,378.042 
  187.966,340.229 189.698,294.469 191.429,324.651 193.161,499.7 194.893,458.863 196.625,458.863 198.357,395.655 200.089,283.09 201.821,161.71 203.553,212.298 
  205.285,175.395 207.017,516.128 208.749,652.012 210.481,618.55 212.213,506.636 213.945,506.636 215.677,378.391 217.409,378.391 219.14,591.517 220.872,710.696 
  222.604,576.375 224.336,252.29 226.068,338.011 227.8,364.474 229.532,352.469 231.264,467.254 232.996,467.254 234.728,425.679 236.46,416.08 238.192,462.467 
  239.924,508.86 241.656,445.81 243.388,438.31 245.119,438.31 246.851,516.068 248.583,204.827 250.315,204.827 252.047,189.111 253.779,408.144 255.511,417.457 
  257.243,690.107 258.975,686.261 260.707,590.346 262.439,609.312 264.171,609.312 265.903,218.611 267.635,211.084 269.367,619.143 271.099,574.815 272.83,557.103 
  274.562,710.511 276.294,565.857 278.026,611.575 279.758,409.237 281.49,409.237 283.222,647.397 284.954,887.252 286.686,605.073 288.418,510.221 290.15,538.481 
  291.882,532.12 293.614,374.898 295.346,309.007 297.078,486.748 298.809,339.222 300.541,659.937 302.273,570.859 304.005,561.391 305.737,502.316 307.469,482.734 
  309.201,417.176 310.933,417.176 312.665,179.721 314.397,268.122 316.129,268.122 317.861,336.933 319.593,303.262 321.325,336.512 323.057,423.703 324.789,379.471 
  326.52,393.54 328.252,264.74 329.984,296.546 331.716,518.071 333.448,736.776 335.18,161.582 336.912,344.987 338.644,463.557 340.376,466.262 342.108,455.067 
  343.84,768.173 345.572,660.437 347.304,484.458 349.036,264.162 350.768,565.335 352.499,525.394 354.231,418.76 355.963,382.653 357.695,748.887 359.427,540.941 
  361.159,486.728 362.891,506.335 364.623,308.673 366.355,503.949 368.087,316.801 369.819,487.676 371.551,259.02 373.283,200.468 375.015,316.891 376.747,495.903 
  378.479,391.374 380.21,391.374 381.942,421.908 383.674,380.314 385.406,354.789 387.138,261.489 388.87,366.378 390.602,366.378 392.334,366.378 394.066,362.976 
  395.798,500.214 397.53,445.924 399.262,464.723 400.994,353.582 402.726,446.465 404.458,355.937 406.189,428.189 407.921,274.74 409.653,448.649 411.385,294.768 
  413.117,239.87 414.849,260.104 416.581,345.943 418.313,447.292 420.045,447.292 421.777,495.691 423.509,517.048 425.241,438.634 426.973,347.21 428.705,269.704 
  430.437,325.586 432.169,325.586 433.9,397.234 435.632,397.234 437.364,397.234 439.096,308.733 440.828,355.915 442.56,282.702 444.292,334.395 446.024,361.449 
  447.756,289.152 449.488,288.827 451.22,279.498 452.952,292.658 454.684,318.092 456.416,333.384 458.148,467.696 459.879,521.275 461.611,416.972 463.343,452.92 
  465.075,441.655 466.807,472.19 468.539,472.19 470.271,434.621 472.003,272.246 473.735,383.594 475.467,350.58 477.199,350.58 478.931,277.363 480.663,158.397 
  482.395,379.481 484.127,419.053 485.859,522.715 487.59,534.789 489.322,458.271 491.054,342.597 492.786,329.195 494.518,349.567 496.25,259.08 497.982,452.365 
  499.714,350.066 501.446,369.211 503.178,369.211 504.91,369.211 506.642,327.622 508.374,209.086 510.106,372.355 511.838,324.242 513.569,317.514 515.301,491.321 
  517.033,240.227 518.765,198.688 520.497,318.036 522.229,485.375 523.961,110.142 525.693,674.118 527.425,142.36 529.157,86.9997 530.889,165.902 532.621,248.316 
  534.353,345.412 536.085,380.254 537.817,582.109 539.549,562.333 541.28,401.558 543.012,401.558 544.744,396.902 546.476,452.444 548.208,423.873 549.94,272.425 
  551.672,259.065 553.404,244.547 555.136,197.831 556.868,284.123 558.6,331.877 560.332,278.655 562.064,301.769 563.796,281.071 565.528,319.071 567.259,490.959 
  568.991,432.354 570.723,367.647 572.455,284.854 574.187,284.854 575.919,329.654 577.651,220.619 579.383,184.587 581.115,157.096 582.847,182.419 584.579,308.592 
  586.311,178.451 588.043,337.463 589.775,467.768 591.507,443.426 593.239,332.906 594.97,332.906 596.702,332.906 598.434,483.14 600.166,462.289 601.898,348.142 
  603.63,275.195 605.362,234.954 607.094,248.842 608.826,368.425 610.558,140.444 612.29,548.321 614.022,277.148 615.754,364.326 617.486,364.326 619.218,631.249 
  620.949,398.385 622.681,404.162 624.413,410.778 626.145,504.251 627.877,309.17 629.609,245.216 631.341,455.393 633.073,504.118 634.805,287.998 636.537,218.912 
  638.269,218.912 640.001,426.176 641.733,409.905 643.465,553.256 645.197,195.611 646.929,535.017 648.66,437.473 650.392,550.464 652.124,233.771 653.856,336.945 
  655.588,414.217 657.32,645.25 659.052,573.638 660.784,209.844 662.516,286.006 664.248,304.064 665.98,219.253 667.712,380.841 669.444,362.834 671.176,318.029 
  672.908,235.265 674.639,192.202 676.371,193.72 678.103,397.679 679.835,348.627 681.567,431.106 683.299,523.894 685.031,553.594 686.763,447.241 688.495,584.819 
  690.227,368.016 691.959,345.94 693.691,653.378 695.423,345.365 697.155,307.87 698.887,307.87 700.619,346.27 702.35,283.725 704.082,554.29 705.814,270.754 
  707.546,291.119 709.278,291.119 711.01,291.119 712.742,502.293 714.474,559.503 716.206,431.526 717.938,449.537 719.67,377.075 721.402,366.559 723.134,382.518 
  724.866,359.067 726.598,396.936 728.329,358.098 730.061,358.098 731.793,203.258 733.525,189.442 735.257,681.73 736.989,437.497 738.721,498.088 740.453,315.12 
  742.185,494.389 743.917,316.581 745.649,498.021 747.381,451.065 749.113,451.065 750.845,295.603 752.577,295.809 754.309,295.809 756.04,372.119 757.772,363.016 
  759.504,348.357 761.236,280.015 762.968,544.215 764.7,278.911 766.432,228.595 768.164,282.8 769.896,284.533 771.628,473.393 773.36,428.817 775.092,416.215 
  776.824,416.215 778.556,416.215 780.288,412.222 782.019,412.222 783.751,380.65 785.483,375.199 787.215,492.028 788.947,450.647 790.679,560.325 792.411,585.775 
  794.143,686.018 795.875,498.857 797.607,444.523 799.339,473.561 801.071,492.988 802.803,515.135 804.535,547.797 806.267,483.715 807.999,505.545 809.73,687.951 
  811.462,712.789 813.194,475.678 814.926,475.678 816.658,324.512 818.39,324.512 820.122,215.987 821.854,458.372 823.586,247.173 825.318,582.367 827.05,497.976 
  828.782,388.245 830.514,414.775 832.246,459.928 833.978,443.646 835.709,497.874 837.441,255.599 839.173,255.599 840.905,784.374 842.637,448.196 844.369,711.685 
  846.101,282.532 847.833,585.516 849.565,438.571 851.297,438.571 853.029,488.027 854.761,430.095 856.493,429.589 858.225,551.48 859.957,267.854 861.689,305.237 
  863.42,576.4 865.152,389.133 866.884,389.133 868.616,408.405 870.348,408.405 872.08,255.53 873.812,542.601 875.544,472.805 877.276,627.052 879.008,428.633 
  880.74,349.933 882.472,349.933 884.204,269.012 885.936,348.217 887.668,601.434 889.399,577.158 891.131,256.466 892.863,575.604 894.595,449.026 896.327,494.218 
  898.059,435.671 899.791,187.68 901.523,171.744 903.255,463.806 904.987,439.843 906.719,439.843 908.451,547.609 910.183,637.027 911.915,637.027 913.647,391.806 
  915.379,391.806 917.11,402.37 918.842,245.299 920.574,240.079 922.306,168.336 924.038,661.478 925.77,509.944 927.502,280.007 929.234,318.854 930.966,274.359 
  932.698,545.364 934.43,467.499 936.162,358.147 937.894,376.816 939.626,421.97 941.358,379.695 943.089,503.425 944.821,497.985 946.553,491.565 948.285,199.952 
  950.017,199.952 951.749,280.219 953.481,303.521 955.213,399.428 956.945,487.734 958.677,420.509 960.409,479.163 962.141,563.072 963.873,563.072 965.605,563.072 
  967.337,273.845 969.069,153.235 970.8,180.509 972.532,180.509 974.264,588.635 975.996,630.062 977.728,674.324 979.46,674.324 981.192,198.316 982.924,198.316 
  984.656,384.101 986.388,528.476 988.12,528.476 989.852,414.505 991.584,422.871 993.316,572.305 995.048,432.51 996.779,360.162 998.511,337.068 1000.24,393.539 
  1001.98,390.579 1003.71,143.47 1005.44,181.12 1007.17,253.942 1008.9,375.061 1010.63,591.781 1012.37,249.903 1014.1,548.858 1015.83,426.322 1017.56,644.315 
  1019.29,418.653 1021.03,307.49 1022.76,307.49 1024.49,315.566 1026.22,315.566 1027.95,295.548 1029.69,397.077 1031.42,523.358 1033.15,298.866 1034.88,281.358 
  1036.61,281.358 1038.35,538.442 1040.08,390.408 1041.81,358.988 1043.54,445.496 1045.27,455.312 1047.01,609.571 1048.74,159.966 1050.47,172.57 1052.2,140.533 
  1053.93,229.861 1055.67,354.14 1057.4,379.397 1059.13,379.397 1060.86,572.832 1062.59,572.832 1064.32,371.831 1066.06,296.994 1067.79,347.739 1069.52,306.872 
  1071.25,306.872 1072.98,240.245 1074.72,286.296 1076.45,311.428 1078.18,314.832 1079.91,184.023 1081.64,320.71 1083.38,311.714 1085.11,501.676 1086.84,468.282 
  1088.57,288.76 1090.3,169.244 1092.04,366.638 1093.77,361.791 1095.5,563.967 1097.23,679.767 1098.96,649.64 1100.7,453.674 1102.43,583.903 1104.16,236.318 
  1105.89,336.102 1107.62,358.767 1109.36,390.821 1111.09,367.982 1112.82,168.222 1114.55,249.841 1116.28,460.309 1118.01,632.683 1119.75,678.001 1121.48,398.629 
  1123.21,376.388 1124.94,327.023 1126.67,153.009 1128.41,338.064 1130.14,462.363 1131.87,326.798 1133.6,468.111 1135.33,554.792 1137.07,461.023 1138.8,301.614 
  1140.53,287.387 1142.26,175.543 1143.99,175.52 1145.73,285.082 1147.46,388.238 1149.19,621.843 1150.92,575.714 1152.65,464.151 1154.39,443.686 1156.12,513.708 
  1157.85,541.006 1159.58,493.36 1161.31,318.926 1163.05,261.393 1164.78,373.908 1166.51,317.382 1168.24,350.629 1169.97,244.336 1171.7,293.892 1173.44,493.482 
  1175.17,429.79 1176.9,518.899 1178.63,678.717 1180.36,326.57 1182.1,480.362 1183.83,503.139 1185.56,253.101 1187.29,219.78 1189.02,269.932 1190.76,250.414 
  1192.49,356.768 1194.22,594.024 1195.95,591.794 1197.68,476.128 1199.42,420.78 1201.15,420.78 1202.88,486.063 1204.61,453.763 1206.34,354.946 1208.08,449.54 
  1209.81,605.343 1211.54,445.607 1213.27,445.607 1215,465.891 1216.74,432.873 1218.47,366.274 1220.2,315.853 1221.93,277.945 1223.66,250.588 1225.39,392.564 
  1227.13,566.849 1228.86,358.785 1230.59,424.819 1232.32,705.645 1234.05,280.68 1235.79,177.891 1237.52,219.215 1239.25,219.215 1240.98,228.147 1242.71,402.13 
  1244.45,366.043 1246.18,366.043 1247.91,448.646 1249.64,448.646 1251.37,434.1 1253.11,565.994 1254.84,677.483 1256.57,535.614 1258.3,568.762 1260.03,661.093 
  1261.77,602.063 1263.5,667.171 1265.23,631.951 1266.96,357.594 1268.69,345.916 1270.43,345.916 1272.16,296.849 1273.89,368.014 1275.62,341.376 1277.35,341.376 
  1279.08,294.159 1280.82,268.006 1282.55,318.68 1284.28,322.155 1286.01,212.454 1287.74,290.77 1289.48,353.19 1291.21,285.351 1292.94,313.927 1294.67,374.26 
  1296.4,364.435 1298.14,364.435 1299.87,672.307 1301.6,557.315 1303.33,411.104 1305.06,433.145 1306.8,447.489 1308.53,459.101 1310.26,403.489 1311.99,376.905 
  1313.72,378.667 1315.46,390.943 1317.19,505.435 1318.92,394.293 1320.65,460.846 1322.38,461.676 1324.12,348.809 1325.85,380.148 1327.58,423.147 1329.31,472.527 
  1331.04,502.231 1332.77,524.196 1334.51,495.619 1336.24,582.757 1337.97,413.879 1339.7,485.682 1341.43,318.103 1343.17,212.554 1344.9,212.554 1346.63,331.833 
  1348.36,310.137 1350.09,327.9 1351.83,338.267 1353.56,244.151 1355.29,300.547 1357.02,294.567 1358.75,239.091 1360.49,374.529 1362.22,625.934 1363.95,369.246 
  1365.68,594.774 1367.41,417.142 1369.15,417.142 1370.88,546.183 1372.61,515.006 1374.34,429.958 1376.07,429.958 1377.81,379.275 1379.54,382.134 1381.27,356.806 
  1383,353.989 1384.73,391.108 1386.46,569.176 1388.2,374.28 1389.93,630.486 1391.66,584.4 1393.39,404.342 1395.12,455.325 1396.86,434.612 1398.59,506.257 
  1400.32,598.474 1402.05,524.174 1403.78,484.901 1405.52,325.39 1407.25,342.629 1408.98,218.116 1410.71,358.251 1412.44,393.784 1414.18,463.411 1415.91,564.452 
  1417.64,536.475 1419.37,545.238 1421.1,699.382 1422.84,693.056 1424.57,203.944 1426.3,271.509 1428.03,214.365 1429.76,640.365 1431.5,514.629 1433.23,558.569 
  1434.96,377.641 1436.69,571.094 1438.42,545.273 1440.15,568.676 1441.89,625.884 1443.62,219.148 1445.35,286.057 1447.08,307.662 1448.81,261.926 1450.55,639.44 
  1452.28,496.038 1454.01,534.273 1455.74,261.715 1457.47,340.964 1459.21,151.568 1460.94,223.179 1462.67,274.85 1464.4,312.983 1466.13,502.673 1467.87,267.862 
  1469.6,292.772 1471.33,344.451 1473.06,260.632 1474.79,260.632 1476.53,260.632 1478.26,260.632 1479.99,334.159 1481.72,249.146 1483.45,299.803 1485.19,299.803 
  1486.92,378.911 1488.65,378.911 1490.38,594.863 1492.11,643.28 1493.84,224.046 1495.58,304.267 1497.31,529.315 1499.04,412.094 1500.77,441.954 1502.5,451.737 
  1504.24,333.422 1505.97,165.894 1507.7,388.182 1509.43,203.636 1511.16,213.754 1512.9,259.061 1514.63,259.061 1516.36,447.262 1518.09,357.789 1519.82,274.887 
  1521.56,390.054 1523.29,225.328 1525.02,162.462 1526.75,104.219 1528.48,426.749 1530.22,507.15 1531.95,428.07 1533.68,552.124 1535.41,593.977 1537.14,680.545 
  1538.88,639.502 1540.61,498.476 1542.34,269.849 1544.07,292.322 1545.8,363.134 1547.53,439.666 1549.27,412.611 1551,397.514 1552.73,281.344 1554.46,161.944 
  1556.19,195.183 1557.93,331.995 1559.66,227.519 1561.39,441.868 1563.12,508.822 1564.85,700.491 1566.59,664.504 1568.32,461.281 1570.05,499.677 1571.78,440.038 
  1573.51,470.074 1575.25,507.806 1576.98,547.5 1578.71,557.987 1580.44,557.987 1582.17,424.969 1583.91,419.293 1585.64,419.293 1587.37,380.91 1589.1,226.471 
  1590.83,623.156 1592.57,231.161 1594.3,359.839 1596.03,420.995 1597.76,404.247 1599.49,394.489 1601.22,386.166 1602.96,246.821 1604.69,223.717 1606.42,287.863 
  1608.15,407.3 1609.88,377.292 1611.62,299.922 1613.35,751.559 1615.08,326.451 1616.81,514.205 1618.54,281.976 1620.28,313.193 1622.01,127.925 1623.74,230.293 
  1625.47,283.137 1627.2,246.957 1628.94,295.903 1630.67,283.159 1632.4,159.016 1634.13,159.016 1635.86,306.041 1637.6,472.035 1639.33,472.035 1641.06,337.2 
  1642.79,358.258 1644.52,334.983 1646.26,250.118 1647.99,284.084 1649.72,363.359 1651.45,278.032 1653.18,537.333 1654.91,523.572 1656.65,523.572 1658.38,523.572 
  1660.11,523.572 1661.84,564.731 1663.57,580.889 1665.31,457.092 1667.04,351.741 1668.77,309.253 1670.5,342.26 1672.23,342.26 1673.97,431.39 1675.7,130.204 
  1677.43,212.895 1679.16,297.528 1680.89,367.429 1682.63,367.429 1684.36,311.408 1686.09,498.377 1687.82,422.132 1689.55,495.644 1691.29,426.918 1693.02,562.181 
  1694.75,239.884 1696.48,248.273 1698.21,317.354 1699.95,216.748 1701.68,224.068 1703.41,228.476 1705.14,192.342 1706.87,236.307 1708.6,312.819 1710.34,356.159 
  1712.07,271.596 1713.8,226.607 1715.53,185.367 1717.26,164.485 1719,302.925 1720.73,278.29 1722.46,268.719 1724.19,501 1725.92,573.818 1727.66,439.395 
  1729.39,690.032 1731.12,503.888 1732.85,515.508 1734.58,566.436 1736.32,566.436 1738.05,424.401 1739.78,373.028 1741.51,371.161 1743.24,371.161 1744.98,543.957 
  1746.71,424 1748.44,534.58 1750.17,540.476 1751.9,680.853 1753.64,316.654 1755.37,383.424 1757.1,500.749 1758.83,674.156 1760.56,191.263 1762.29,521.81 
  1764.03,521.81 1765.76,479.324 1767.49,506.523 1769.22,403.315 1770.95,531.176 1772.69,488.33 1774.42,627.334 1776.15,366.862 1777.88,356.276 1779.61,344.034 
  1781.35,468.23 1783.08,529.393 1784.81,650.682 1786.54,466.654 1788.27,439.772 1790.01,439.772 1791.74,512.858 1793.47,290.673 1795.2,249.511 1796.93,561.251 
  1798.67,543.287 1800.4,492.459 1802.13,408.692 1803.86,375.024 1805.59,388.975 1807.33,399.519 1809.06,516.802 1810.79,303.854 1812.52,366.12 1814.25,275.445 
  1815.98,353.251 1817.72,458.777 1819.45,341.698 1821.18,355.262 1822.91,414.349 1824.64,383.968 1826.38,360.857 1828.11,494.489 1829.84,432.915 1831.57,523.28 
  1833.3,411.965 1835.04,449.964 1836.77,449.964 1838.5,175.899 1840.23,315.372 1841.96,382.076 1843.7,560.247 1845.43,266.25 1847.16,528.358 1848.89,290.352 
  1850.62,371.14 1852.36,342.251 1854.09,199.037 1855.82,399.42 1857.55,576.019 1859.28,594.119 1861.02,517.151 1862.75,559.664 1864.48,559.664 1866.21,270.765 
  1867.94,390.833 1869.67,390.833 1871.41,179.011 1873.14,550.232 1874.87,442.292 1876.6,442.292 1878.33,525.132 1880.07,525.132 1881.8,525.132 1883.53,669.831 
  1885.26,453.998 1886.99,455.58 1888.73,474.723 1890.46,286.64 1892.19,436.782 1893.92,561.017 1895.65,497.95 1897.39,497.95 1899.12,555.343 1900.85,431.242 
  
  "/>
<path clip-path="url(#clip540)" d="
M2118.74 911.26 L3952.76 911.26 L3952.76 62.9921 L2118.74 62.9921  Z
  " fill="#ffffff" fill-rule="evenodd" fill-opacity="1"/>
<defs>
  <clipPath id="clip543">
    <rect x="2118" y="62" width="1835" height="849"/>
  </clipPath>
</defs>
<polyline clip-path="url(#clip543)" style="stroke:#000000; stroke-width:2; stroke-opacity:0.1; fill:none" points="
  2197.05,911.26 2197.05,62.9921 
  "/>
<polyline clip-path="url(#clip543)" style="stroke:#000000; stroke-width:2; stroke-opacity:0.1; fill:none" points="
  2586.1,911.26 2586.1,62.9921 
  "/>
<polyline clip-path="url(#clip543)" style="stroke:#000000; stroke-width:2; stroke-opacity:0.1; fill:none" points="
  2975.15,911.26 2975.15,62.9921 
  "/>
<polyline clip-path="url(#clip543)" style="stroke:#000000; stroke-width:2; stroke-opacity:0.1; fill:none" points="
  3364.19,911.26 3364.19,62.9921 
  "/>
<polyline clip-path="url(#clip543)" style="stroke:#000000; stroke-width:2; stroke-opacity:0.1; fill:none" points="
  3753.24,911.26 3753.24,62.9921 
  "/>
<polyline clip-path="url(#clip540)" style="stroke:#000000; stroke-width:4; stroke-opacity:1; fill:none" points="
  2118.74,911.26 3952.76,911.26 
  "/>
<polyline clip-path="url(#clip540)" style="stroke:#000000; stroke-width:4; stroke-opacity:1; fill:none" points="
  2197.05,911.26 2197.05,901.081 
  "/>
<polyline clip-path="url(#clip540)" style="stroke:#000000; stroke-width:4; stroke-opacity:1; fill:none" points="
  2586.1,911.26 2586.1,901.081 
  "/>
<polyline clip-path="url(#clip540)" style="stroke:#000000; stroke-width:4; stroke-opacity:1; fill:none" points="
  2975.15,911.26 2975.15,901.081 
  "/>
<polyline clip-path="url(#clip540)" style="stroke:#000000; stroke-width:4; stroke-opacity:1; fill:none" points="
  3364.19,911.26 3364.19,901.081 
  "/>
<polyline clip-path="url(#clip540)" style="stroke:#000000; stroke-width:4; stroke-opacity:1; fill:none" points="
  3753.24,911.26 3753.24,901.081 
  "/>
<path clip-path="url(#clip540)" d="M 0 0 M2165.06 953.251 Q2161.45 953.251 2159.62 956.815 Q2157.82 960.357 2157.82 967.487 Q2157.82 974.593 2159.62 978.158 Q2161.45 981.699 2165.06 981.699 Q2168.7 981.699 2170.5 978.158 Q2172.33 974.593 2172.33 967.487 Q2172.33 960.357 2170.5 956.815 Q2168.7 953.251 2165.06 953.251 M2165.06 949.547 Q2170.87 949.547 2173.93 954.153 Q2177.01 958.737 2177.01 967.487 Q2177.01 976.213 2173.93 980.82 Q2170.87 985.403 2165.06 985.403 Q2159.25 985.403 2156.17 980.82 Q2153.12 976.213 2153.12 967.487 Q2153.12 958.737 2156.17 954.153 Q2159.25 949.547 2165.06 949.547 Z" fill="#000000" fill-rule="evenodd" fill-opacity="1" /><path clip-path="url(#clip540)" d="M 0 0 M2182.08 978.852 L2186.96 978.852 L2186.96 984.732 L2182.08 984.732 L2182.08 978.852 Z" fill="#000000" fill-rule="evenodd" fill-opacity="1" /><path clip-path="url(#clip540)" d="M 0 0 M2202.03 953.251 Q2198.42 953.251 2196.59 956.815 Q2194.78 960.357 2194.78 967.487 Q2194.78 974.593 2196.59 978.158 Q2198.42 981.699 2202.03 981.699 Q2205.66 981.699 2207.47 978.158 Q2209.3 974.593 2209.3 967.487 Q2209.3 960.357 2207.47 956.815 Q2205.66 953.251 2202.03 953.251 M2202.03 949.547 Q2207.84 949.547 2210.89 954.153 Q2213.97 958.737 2213.97 967.487 Q2213.97 976.213 2210.89 980.82 Q2207.84 985.403 2202.03 985.403 Q2196.22 985.403 2193.14 980.82 Q2190.08 976.213 2190.08 967.487 Q2190.08 958.737 2193.14 954.153 Q2196.22 949.547 2202.03 949.547 Z" fill="#000000" fill-rule="evenodd" fill-opacity="1" /><path clip-path="url(#clip540)" d="M 0 0 M2229.04 953.251 Q2225.43 953.251 2223.6 956.815 Q2221.8 960.357 2221.8 967.487 Q2221.8 974.593 2223.6 978.158 Q2225.43 981.699 2229.04 981.699 Q2232.68 981.699 2234.48 978.158 Q2236.31 974.593 2236.31 967.487 Q2236.31 960.357 2234.48 956.815 Q2232.68 953.251 2229.04 953.251 M2229.04 949.547 Q2234.85 949.547 2237.91 954.153 Q2240.99 958.737 2240.99 967.487 Q2240.99 976.213 2237.91 980.82 Q2234.85 985.403 2229.04 985.403 Q2223.23 985.403 2220.15 980.82 Q2217.1 976.213 2217.1 967.487 Q2217.1 958.737 2220.15 954.153 Q2223.23 949.547 2229.04 949.547 Z" fill="#000000" fill-rule="evenodd" fill-opacity="1" /><path clip-path="url(#clip540)" d="M 0 0 M2555.4 953.251 Q2551.79 953.251 2549.96 956.815 Q2548.16 960.357 2548.16 967.487 Q2548.16 974.593 2549.96 978.158 Q2551.79 981.699 2555.4 981.699 Q2559.04 981.699 2560.84 978.158 Q2562.67 974.593 2562.67 967.487 Q2562.67 960.357 2560.84 956.815 Q2559.04 953.251 2555.4 953.251 M2555.4 949.547 Q2561.21 949.547 2564.27 954.153 Q2567.35 958.737 2567.35 967.487 Q2567.35 976.213 2564.27 980.82 Q2561.21 985.403 2555.4 985.403 Q2549.59 985.403 2546.52 980.82 Q2543.46 976.213 2543.46 967.487 Q2543.46 958.737 2546.52 954.153 Q2549.59 949.547 2555.4 949.547 Z" fill="#000000" fill-rule="evenodd" fill-opacity="1" /><path clip-path="url(#clip540)" d="M 0 0 M2572.42 978.852 L2577.3 978.852 L2577.3 984.732 L2572.42 984.732 L2572.42 978.852 Z" fill="#000000" fill-rule="evenodd" fill-opacity="1" /><path clip-path="url(#clip540)" d="M 0 0 M2586.4 980.797 L2602.72 980.797 L2602.72 984.732 L2580.77 984.732 L2580.77 980.797 Q2583.44 978.042 2588.02 973.412 Q2592.63 968.76 2593.81 967.417 Q2596.05 964.894 2596.93 963.158 Q2597.83 961.399 2597.83 959.709 Q2597.83 956.954 2595.89 955.218 Q2593.97 953.482 2590.87 953.482 Q2588.67 953.482 2586.21 954.246 Q2583.78 955.01 2581.01 956.561 L2581.01 951.839 Q2583.83 950.704 2586.28 950.126 Q2588.74 949.547 2590.77 949.547 Q2596.14 949.547 2599.34 952.232 Q2602.53 954.917 2602.53 959.408 Q2602.53 961.538 2601.72 963.459 Q2600.94 965.357 2598.83 967.95 Q2598.25 968.621 2595.15 971.838 Q2592.05 975.033 2586.4 980.797 Z" fill="#000000" fill-rule="evenodd" fill-opacity="1" /><path clip-path="url(#clip540)" d="M 0 0 M2607.83 950.172 L2626.19 950.172 L2626.19 954.107 L2612.12 954.107 L2612.12 962.579 Q2613.14 962.232 2614.15 962.07 Q2615.17 961.885 2616.19 961.885 Q2621.98 961.885 2625.36 965.056 Q2628.74 968.227 2628.74 973.644 Q2628.74 979.223 2625.27 982.324 Q2621.79 985.403 2615.47 985.403 Q2613.3 985.403 2611.03 985.033 Q2608.78 984.662 2606.38 983.922 L2606.38 979.223 Q2608.46 980.357 2610.68 980.912 Q2612.9 981.468 2615.38 981.468 Q2619.39 981.468 2621.72 979.362 Q2624.06 977.255 2624.06 973.644 Q2624.06 970.033 2621.72 967.926 Q2619.39 965.82 2615.38 965.82 Q2613.51 965.82 2611.63 966.237 Q2609.78 966.653 2607.83 967.533 L2607.83 950.172 Z" fill="#000000" fill-rule="evenodd" fill-opacity="1" /><path clip-path="url(#clip540)" d="M 0 0 M2943.65 953.251 Q2940.04 953.251 2938.21 956.815 Q2936.41 960.357 2936.41 967.487 Q2936.41 974.593 2938.21 978.158 Q2940.04 981.699 2943.65 981.699 Q2947.29 981.699 2949.09 978.158 Q2950.92 974.593 2950.92 967.487 Q2950.92 960.357 2949.09 956.815 Q2947.29 953.251 2943.65 953.251 M2943.65 949.547 Q2949.46 949.547 2952.52 954.153 Q2955.6 958.737 2955.6 967.487 Q2955.6 976.213 2952.52 980.82 Q2949.46 985.403 2943.65 985.403 Q2937.84 985.403 2934.76 980.82 Q2931.71 976.213 2931.71 967.487 Q2931.71 958.737 2934.76 954.153 Q2937.84 949.547 2943.65 949.547 Z" fill="#000000" fill-rule="evenodd" fill-opacity="1" /><path clip-path="url(#clip540)" d="M 0 0 M2960.67 978.852 L2965.55 978.852 L2965.55 984.732 L2960.67 984.732 L2960.67 978.852 Z" fill="#000000" fill-rule="evenodd" fill-opacity="1" /><path clip-path="url(#clip540)" d="M 0 0 M2970.67 950.172 L2989.02 950.172 L2989.02 954.107 L2974.95 954.107 L2974.95 962.579 Q2975.97 962.232 2976.99 962.07 Q2978 961.885 2979.02 961.885 Q2984.81 961.885 2988.19 965.056 Q2991.57 968.227 2991.57 973.644 Q2991.57 979.223 2988.1 982.324 Q2984.62 985.403 2978.31 985.403 Q2976.13 985.403 2973.86 985.033 Q2971.62 984.662 2969.21 983.922 L2969.21 979.223 Q2971.29 980.357 2973.51 980.912 Q2975.74 981.468 2978.21 981.468 Q2982.22 981.468 2984.56 979.362 Q2986.89 977.255 2986.89 973.644 Q2986.89 970.033 2984.56 967.926 Q2982.22 965.82 2978.21 965.82 Q2976.34 965.82 2974.46 966.237 Q2972.61 966.653 2970.67 967.533 L2970.67 950.172 Z" fill="#000000" fill-rule="evenodd" fill-opacity="1" /><path clip-path="url(#clip540)" d="M 0 0 M3006.64 953.251 Q3003.03 953.251 3001.2 956.815 Q2999.39 960.357 2999.39 967.487 Q2999.39 974.593 3001.2 978.158 Q3003.03 981.699 3006.64 981.699 Q3010.27 981.699 3012.08 978.158 Q3013.91 974.593 3013.91 967.487 Q3013.91 960.357 3012.08 956.815 Q3010.27 953.251 3006.64 953.251 M3006.64 949.547 Q3012.45 949.547 3015.5 954.153 Q3018.58 958.737 3018.58 967.487 Q3018.58 976.213 3015.5 980.82 Q3012.45 985.403 3006.64 985.403 Q3000.83 985.403 2997.75 980.82 Q2994.69 976.213 2994.69 967.487 Q2994.69 958.737 2997.75 954.153 Q3000.83 949.547 3006.64 949.547 Z" fill="#000000" fill-rule="evenodd" fill-opacity="1" /><path clip-path="url(#clip540)" d="M 0 0 M3333.15 953.251 Q3329.54 953.251 3327.71 956.815 Q3325.91 960.357 3325.91 967.487 Q3325.91 974.593 3327.71 978.158 Q3329.54 981.699 3333.15 981.699 Q3336.78 981.699 3338.59 978.158 Q3340.42 974.593 3340.42 967.487 Q3340.42 960.357 3338.59 956.815 Q3336.78 953.251 3333.15 953.251 M3333.15 949.547 Q3338.96 949.547 3342.02 954.153 Q3345.1 958.737 3345.1 967.487 Q3345.1 976.213 3342.02 980.82 Q3338.96 985.403 3333.15 985.403 Q3327.34 985.403 3324.26 980.82 Q3321.21 976.213 3321.21 967.487 Q3321.21 958.737 3324.26 954.153 Q3327.34 949.547 3333.15 949.547 Z" fill="#000000" fill-rule="evenodd" fill-opacity="1" /><path clip-path="url(#clip540)" d="M 0 0 M3350.16 978.852 L3355.05 978.852 L3355.05 984.732 L3350.16 984.732 L3350.16 978.852 Z" fill="#000000" fill-rule="evenodd" fill-opacity="1" /><path clip-path="url(#clip540)" d="M 0 0 M3358.94 950.172 L3381.16 950.172 L3381.16 952.163 L3368.61 984.732 L3363.73 984.732 L3375.53 954.107 L3358.94 954.107 L3358.94 950.172 Z" fill="#000000" fill-rule="evenodd" fill-opacity="1" /><path clip-path="url(#clip540)" d="M 0 0 M3386.28 950.172 L3404.63 950.172 L3404.63 954.107 L3390.56 954.107 L3390.56 962.579 Q3391.58 962.232 3392.59 962.07 Q3393.61 961.885 3394.63 961.885 Q3400.42 961.885 3403.8 965.056 Q3407.18 968.227 3407.18 973.644 Q3407.18 979.223 3403.71 982.324 Q3400.23 985.403 3393.91 985.403 Q3391.74 985.403 3389.47 985.033 Q3387.22 984.662 3384.82 983.922 L3384.82 979.223 Q3386.9 980.357 3389.12 980.912 Q3391.34 981.468 3393.82 981.468 Q3397.83 981.468 3400.16 979.362 Q3402.5 977.255 3402.5 973.644 Q3402.5 970.033 3400.16 967.926 Q3397.83 965.82 3393.82 965.82 Q3391.95 965.82 3390.07 966.237 Q3388.22 966.653 3386.28 967.533 L3386.28 950.172 Z" fill="#000000" fill-rule="evenodd" fill-opacity="1" /><path clip-path="url(#clip540)" d="M 0 0 M3711.63 980.797 L3719.27 980.797 L3719.27 954.431 L3710.96 956.098 L3710.96 951.839 L3719.22 950.172 L3723.9 950.172 L3723.9 980.797 L3731.54 980.797 L3731.54 984.732 L3711.63 984.732 L3711.63 980.797 Z" fill="#000000" fill-rule="evenodd" fill-opacity="1" /><path clip-path="url(#clip540)" d="M 0 0 M3736.61 978.852 L3741.49 978.852 L3741.49 984.732 L3736.61 984.732 L3736.61 978.852 Z" fill="#000000" fill-rule="evenodd" fill-opacity="1" /><path clip-path="url(#clip540)" d="M 0 0 M3756.56 953.251 Q3752.95 953.251 3751.12 956.815 Q3749.32 960.357 3749.32 967.487 Q3749.32 974.593 3751.12 978.158 Q3752.95 981.699 3756.56 981.699 Q3760.19 981.699 3762 978.158 Q3763.83 974.593 3763.83 967.487 Q3763.83 960.357 3762 956.815 Q3760.19 953.251 3756.56 953.251 M3756.56 949.547 Q3762.37 949.547 3765.43 954.153 Q3768.51 958.737 3768.51 967.487 Q3768.51 976.213 3765.43 980.82 Q3762.37 985.403 3756.56 985.403 Q3750.75 985.403 3747.67 980.82 Q3744.62 976.213 3744.62 967.487 Q3744.62 958.737 3747.67 954.153 Q3750.75 949.547 3756.56 949.547 Z" fill="#000000" fill-rule="evenodd" fill-opacity="1" /><path clip-path="url(#clip540)" d="M 0 0 M3783.57 953.251 Q3779.96 953.251 3778.13 956.815 Q3776.33 960.357 3776.33 967.487 Q3776.33 974.593 3778.13 978.158 Q3779.96 981.699 3783.57 981.699 Q3787.21 981.699 3789.01 978.158 Q3790.84 974.593 3790.84 967.487 Q3790.84 960.357 3789.01 956.815 Q3787.21 953.251 3783.57 953.251 M3783.57 949.547 Q3789.38 949.547 3792.44 954.153 Q3795.52 958.737 3795.52 967.487 Q3795.52 976.213 3792.44 980.82 Q3789.38 985.403 3783.57 985.403 Q3777.76 985.403 3774.69 980.82 Q3771.63 976.213 3771.63 967.487 Q3771.63 958.737 3774.69 954.153 Q3777.76 949.547 3783.57 949.547 Z" fill="#000000" fill-rule="evenodd" fill-opacity="1" /><path clip-path="url(#clip540)" d="M 0 0 M2872.69 1014.16 L2872.69 1020.43 Q2869.03 1018.68 2865.78 1017.82 Q2862.54 1016.96 2859.51 1016.96 Q2854.26 1016.96 2851.4 1019 Q2848.56 1021.04 2848.56 1024.79 Q2848.56 1027.95 2850.44 1029.57 Q2852.35 1031.16 2857.64 1032.15 L2861.52 1032.94 Q2868.71 1034.31 2872.12 1037.78 Q2875.56 1041.22 2875.56 1047.01 Q2875.56 1053.92 2870.91 1057.48 Q2866.29 1061.05 2857.35 1061.05 Q2853.98 1061.05 2850.16 1060.28 Q2846.37 1059.52 2842.29 1058.02 L2842.29 1051.4 Q2846.21 1053.6 2849.96 1054.71 Q2853.72 1055.83 2857.35 1055.83 Q2862.86 1055.83 2865.85 1053.66 Q2868.84 1051.5 2868.84 1047.49 Q2868.84 1043.99 2866.67 1042.01 Q2864.54 1040.04 2859.64 1039.05 L2855.73 1038.29 Q2848.53 1036.86 2845.32 1033.8 Q2842.1 1030.75 2842.1 1025.3 Q2842.1 1019 2846.53 1015.37 Q2850.98 1011.74 2858.78 1011.74 Q2862.12 1011.74 2865.59 1012.35 Q2869.06 1012.95 2872.69 1014.16 Z" fill="#000000" fill-rule="evenodd" fill-opacity="1" /><path clip-path="url(#clip540)" d="M 0 0 M2897.9 1042.2 Q2890.8 1042.2 2888.06 1043.83 Q2885.33 1045.45 2885.33 1049.37 Q2885.33 1052.48 2887.36 1054.33 Q2889.43 1056.15 2892.97 1056.15 Q2897.83 1056.15 2900.76 1052.71 Q2903.72 1049.24 2903.72 1043.51 L2903.72 1042.2 L2897.9 1042.2 M2909.58 1039.79 L2909.58 1060.12 L2903.72 1060.12 L2903.72 1054.71 Q2901.72 1057.96 2898.73 1059.52 Q2895.73 1061.05 2891.41 1061.05 Q2885.93 1061.05 2882.68 1057.99 Q2879.47 1054.9 2879.47 1049.75 Q2879.47 1043.73 2883.48 1040.68 Q2887.52 1037.62 2895.51 1037.62 L2903.72 1037.62 L2903.72 1037.05 Q2903.72 1033.01 2901.05 1030.81 Q2898.41 1028.58 2893.6 1028.58 Q2890.55 1028.58 2887.65 1029.31 Q2884.75 1030.05 2882.08 1031.51 L2882.08 1026.1 Q2885.29 1024.86 2888.32 1024.25 Q2891.34 1023.62 2894.21 1023.62 Q2901.94 1023.62 2905.76 1027.63 Q2909.58 1031.64 2909.58 1039.79 Z" fill="#000000" fill-rule="evenodd" fill-opacity="1" /><path clip-path="url(#clip540)" d="M 0 0 M2943.48 1031.32 Q2945.67 1027.37 2948.73 1025.49 Q2951.78 1023.62 2955.92 1023.62 Q2961.49 1023.62 2964.52 1027.53 Q2967.54 1031.41 2967.54 1038.61 L2967.54 1060.12 L2961.65 1060.12 L2961.65 1038.8 Q2961.65 1033.67 2959.84 1031.19 Q2958.02 1028.71 2954.3 1028.71 Q2949.75 1028.71 2947.11 1031.73 Q2944.46 1034.76 2944.46 1039.98 L2944.46 1060.12 L2938.58 1060.12 L2938.58 1038.8 Q2938.58 1033.64 2936.76 1031.19 Q2934.95 1028.71 2931.16 1028.71 Q2926.67 1028.71 2924.03 1031.76 Q2921.39 1034.79 2921.39 1039.98 L2921.39 1060.12 L2915.5 1060.12 L2915.5 1024.48 L2921.39 1024.48 L2921.39 1030.01 Q2923.39 1026.74 2926.19 1025.18 Q2929 1023.62 2932.85 1023.62 Q2936.73 1023.62 2939.43 1025.59 Q2942.17 1027.56 2943.48 1031.32 Z" fill="#000000" fill-rule="evenodd" fill-opacity="1" /><path clip-path="url(#clip540)" d="M 0 0 M2979.35 1054.78 L2979.35 1073.68 L2973.46 1073.68 L2973.46 1024.48 L2979.35 1024.48 L2979.35 1029.89 Q2981.19 1026.7 2983.99 1025.18 Q2986.83 1023.62 2990.74 1023.62 Q2997.24 1023.62 3001.28 1028.77 Q3005.35 1033.93 3005.35 1042.33 Q3005.35 1050.73 3001.28 1055.89 Q2997.24 1061.05 2990.74 1061.05 Q2986.83 1061.05 2983.99 1059.52 Q2981.19 1057.96 2979.35 1054.78 M2999.27 1042.33 Q2999.27 1035.87 2996.6 1032.21 Q2993.96 1028.52 2989.31 1028.52 Q2984.66 1028.52 2981.99 1032.21 Q2979.35 1035.87 2979.35 1042.33 Q2979.35 1048.79 2981.99 1052.48 Q2984.66 1056.15 2989.31 1056.15 Q2993.96 1056.15 2996.6 1052.48 Q2999.27 1048.79 2999.27 1042.33 Z" fill="#000000" fill-rule="evenodd" fill-opacity="1" /><path clip-path="url(#clip540)" d="M 0 0 M3011.49 1010.6 L3017.35 1010.6 L3017.35 1060.12 L3011.49 1060.12 L3011.49 1010.6 Z" fill="#000000" fill-rule="evenodd" fill-opacity="1" /><path clip-path="url(#clip540)" d="M 0 0 M3053.99 1040.84 L3053.99 1043.7 L3027.06 1043.7 Q3027.44 1049.75 3030.69 1052.93 Q3033.97 1056.08 3039.79 1056.08 Q3043.16 1056.08 3046.32 1055.25 Q3049.5 1054.43 3052.62 1052.77 L3052.62 1058.31 Q3049.47 1059.65 3046.16 1060.35 Q3042.85 1061.05 3039.44 1061.05 Q3030.91 1061.05 3025.91 1056.08 Q3020.95 1051.12 3020.95 1042.65 Q3020.95 1033.9 3025.66 1028.77 Q3030.4 1023.62 3038.42 1023.62 Q3045.61 1023.62 3049.78 1028.26 Q3053.99 1032.88 3053.99 1040.84 M3048.13 1039.12 Q3048.07 1034.31 3045.42 1031.45 Q3042.81 1028.58 3038.49 1028.58 Q3033.58 1028.58 3030.62 1031.35 Q3027.7 1034.12 3027.25 1039.15 L3048.13 1039.12 Z" fill="#000000" fill-rule="evenodd" fill-opacity="1" /><path clip-path="url(#clip540)" d="M 0 0 M3076.65 1024.48 L3082.85 1024.48 L3093.99 1054.39 L3105.13 1024.48 L3111.34 1024.48 L3097.97 1060.12 L3090.02 1060.12 L3076.65 1024.48 Z" fill="#000000" fill-rule="evenodd" fill-opacity="1" /><path clip-path="url(#clip540)" d="M 0 0 M3133.68 1042.2 Q3126.59 1042.2 3123.85 1043.83 Q3121.11 1045.45 3121.11 1049.37 Q3121.11 1052.48 3123.15 1054.33 Q3125.22 1056.15 3128.75 1056.15 Q3133.62 1056.15 3136.55 1052.71 Q3139.51 1049.24 3139.51 1043.51 L3139.51 1042.2 L3133.68 1042.2 M3145.37 1039.79 L3145.37 1060.12 L3139.51 1060.12 L3139.51 1054.71 Q3137.5 1057.96 3134.51 1059.52 Q3131.52 1061.05 3127.19 1061.05 Q3121.72 1061.05 3118.47 1057.99 Q3115.26 1054.9 3115.26 1049.75 Q3115.26 1043.73 3119.27 1040.68 Q3123.31 1037.62 3131.3 1037.62 L3139.51 1037.62 L3139.51 1037.05 Q3139.51 1033.01 3136.84 1030.81 Q3134.19 1028.58 3129.39 1028.58 Q3126.33 1028.58 3123.44 1029.31 Q3120.54 1030.05 3117.87 1031.51 L3117.87 1026.1 Q3121.08 1024.86 3124.1 1024.25 Q3127.13 1023.62 3129.99 1023.62 Q3137.73 1023.62 3141.55 1027.63 Q3145.37 1031.64 3145.37 1039.79 Z" fill="#000000" fill-rule="evenodd" fill-opacity="1" /><path clip-path="url(#clip540)" d="M 0 0 M3151.51 1010.6 L3157.36 1010.6 L3157.36 1060.12 L3151.51 1060.12 L3151.51 1010.6 Z" fill="#000000" fill-rule="evenodd" fill-opacity="1" /><path clip-path="url(#clip540)" d="M 0 0 M3162.9 1046.06 L3162.9 1024.48 L3168.76 1024.48 L3168.76 1045.83 Q3168.76 1050.89 3170.73 1053.44 Q3172.71 1055.95 3176.65 1055.95 Q3181.4 1055.95 3184.13 1052.93 Q3186.9 1049.91 3186.9 1044.69 L3186.9 1024.48 L3192.76 1024.48 L3192.76 1060.12 L3186.9 1060.12 L3186.9 1054.65 Q3184.77 1057.9 3181.94 1059.49 Q3179.14 1061.05 3175.41 1061.05 Q3169.27 1061.05 3166.09 1057.23 Q3162.9 1053.41 3162.9 1046.06 M3177.64 1023.62 L3177.64 1023.62 Z" fill="#000000" fill-rule="evenodd" fill-opacity="1" /><path clip-path="url(#clip540)" d="M 0 0 M3229.39 1040.84 L3229.39 1043.7 L3202.47 1043.7 Q3202.85 1049.75 3206.09 1052.93 Q3209.37 1056.08 3215.2 1056.08 Q3218.57 1056.08 3221.72 1055.25 Q3224.91 1054.43 3228.02 1052.77 L3228.02 1058.31 Q3224.87 1059.65 3221.56 1060.35 Q3218.25 1061.05 3214.85 1061.05 Q3206.32 1061.05 3201.32 1056.08 Q3196.35 1051.12 3196.35 1042.65 Q3196.35 1033.9 3201.07 1028.77 Q3205.81 1023.62 3213.83 1023.62 Q3221.02 1023.62 3225.19 1028.26 Q3229.39 1032.88 3229.39 1040.84 M3223.54 1039.12 Q3223.47 1034.31 3220.83 1031.45 Q3218.22 1028.58 3213.89 1028.58 Q3208.99 1028.58 3206.03 1031.35 Q3203.1 1034.12 3202.66 1039.15 L3223.54 1039.12 Z" fill="#000000" fill-rule="evenodd" fill-opacity="1" /><polyline clip-path="url(#clip543)" style="stroke:#000000; stroke-width:2; stroke-opacity:0.1; fill:none" points="
  2118.74,887.254 3952.76,887.254 
  "/>
<polyline clip-path="url(#clip543)" style="stroke:#000000; stroke-width:2; stroke-opacity:0.1; fill:none" points="
  2118.74,735.534 3952.76,735.534 
  "/>
<polyline clip-path="url(#clip543)" style="stroke:#000000; stroke-width:2; stroke-opacity:0.1; fill:none" points="
  2118.74,583.813 3952.76,583.813 
  "/>
<polyline clip-path="url(#clip543)" style="stroke:#000000; stroke-width:2; stroke-opacity:0.1; fill:none" points="
  2118.74,432.092 3952.76,432.092 
  "/>
<polyline clip-path="url(#clip543)" style="stroke:#000000; stroke-width:2; stroke-opacity:0.1; fill:none" points="
  2118.74,280.371 3952.76,280.371 
  "/>
<polyline clip-path="url(#clip543)" style="stroke:#000000; stroke-width:2; stroke-opacity:0.1; fill:none" points="
  2118.74,128.65 3952.76,128.65 
  "/>
<polyline clip-path="url(#clip540)" style="stroke:#000000; stroke-width:4; stroke-opacity:1; fill:none" points="
  2118.74,911.26 2118.74,62.9921 
  "/>
<polyline clip-path="url(#clip540)" style="stroke:#000000; stroke-width:4; stroke-opacity:1; fill:none" points="
  2118.74,887.254 2140.75,887.254 
  "/>
<polyline clip-path="url(#clip540)" style="stroke:#000000; stroke-width:4; stroke-opacity:1; fill:none" points="
  2118.74,735.534 2140.75,735.534 
  "/>
<polyline clip-path="url(#clip540)" style="stroke:#000000; stroke-width:4; stroke-opacity:1; fill:none" points="
  2118.74,583.813 2140.75,583.813 
  "/>
<polyline clip-path="url(#clip540)" style="stroke:#000000; stroke-width:4; stroke-opacity:1; fill:none" points="
  2118.74,432.092 2140.75,432.092 
  "/>
<polyline clip-path="url(#clip540)" style="stroke:#000000; stroke-width:4; stroke-opacity:1; fill:none" points="
  2118.74,280.371 2140.75,280.371 
  "/>
<polyline clip-path="url(#clip540)" style="stroke:#000000; stroke-width:4; stroke-opacity:1; fill:none" points="
  2118.74,128.65 2140.75,128.65 
  "/>
<path clip-path="url(#clip540)" d="M 0 0 M2009.83 873.053 Q2006.22 873.053 2004.39 876.618 Q2002.58 880.159 2002.58 887.289 Q2002.58 894.395 2004.39 897.96 Q2006.22 901.502 2009.83 901.502 Q2013.46 901.502 2015.27 897.96 Q2017.1 894.395 2017.1 887.289 Q2017.1 880.159 2015.27 876.618 Q2013.46 873.053 2009.83 873.053 M2009.83 869.349 Q2015.64 869.349 2018.69 873.956 Q2021.77 878.539 2021.77 887.289 Q2021.77 896.016 2018.69 900.622 Q2015.64 905.206 2009.83 905.206 Q2004.02 905.206 2000.94 900.622 Q1997.88 896.016 1997.88 887.289 Q1997.88 878.539 2000.94 873.956 Q2004.02 869.349 2009.83 869.349 Z" fill="#000000" fill-rule="evenodd" fill-opacity="1" /><path clip-path="url(#clip540)" d="M 0 0 M2026.84 898.655 L2031.73 898.655 L2031.73 904.534 L2026.84 904.534 L2026.84 898.655 Z" fill="#000000" fill-rule="evenodd" fill-opacity="1" /><path clip-path="url(#clip540)" d="M 0 0 M2046.8 873.053 Q2043.18 873.053 2041.36 876.618 Q2039.55 880.159 2039.55 887.289 Q2039.55 894.395 2041.36 897.96 Q2043.18 901.502 2046.8 901.502 Q2050.43 901.502 2052.24 897.96 Q2054.06 894.395 2054.06 887.289 Q2054.06 880.159 2052.24 876.618 Q2050.43 873.053 2046.8 873.053 M2046.8 869.349 Q2052.61 869.349 2055.66 873.956 Q2058.74 878.539 2058.74 887.289 Q2058.74 896.016 2055.66 900.622 Q2052.61 905.206 2046.8 905.206 Q2040.99 905.206 2037.91 900.622 Q2034.85 896.016 2034.85 887.289 Q2034.85 878.539 2037.91 873.956 Q2040.99 869.349 2046.8 869.349 Z" fill="#000000" fill-rule="evenodd" fill-opacity="1" /><path clip-path="url(#clip540)" d="M 0 0 M2010.82 721.332 Q2007.21 721.332 2005.38 724.897 Q2003.58 728.439 2003.58 735.568 Q2003.58 742.675 2005.38 746.239 Q2007.21 749.781 2010.82 749.781 Q2014.46 749.781 2016.26 746.239 Q2018.09 742.675 2018.09 735.568 Q2018.09 728.439 2016.26 724.897 Q2014.46 721.332 2010.82 721.332 M2010.82 717.629 Q2016.63 717.629 2019.69 722.235 Q2022.77 726.818 2022.77 735.568 Q2022.77 744.295 2019.69 748.901 Q2016.63 753.485 2010.82 753.485 Q2005.01 753.485 2001.93 748.901 Q1998.88 744.295 1998.88 735.568 Q1998.88 726.818 2001.93 722.235 Q2005.01 717.629 2010.82 717.629 Z" fill="#000000" fill-rule="evenodd" fill-opacity="1" /><path clip-path="url(#clip540)" d="M 0 0 M2027.84 746.934 L2032.72 746.934 L2032.72 752.814 L2027.84 752.814 L2027.84 746.934 Z" fill="#000000" fill-rule="evenodd" fill-opacity="1" /><path clip-path="url(#clip540)" d="M 0 0 M2037.84 718.254 L2056.19 718.254 L2056.19 722.189 L2042.12 722.189 L2042.12 730.661 Q2043.14 730.314 2044.16 730.152 Q2045.18 729.966 2046.19 729.966 Q2051.98 729.966 2055.36 733.138 Q2058.74 736.309 2058.74 741.726 Q2058.74 747.304 2055.27 750.406 Q2051.8 753.485 2045.48 753.485 Q2043.3 753.485 2041.03 753.114 Q2038.79 752.744 2036.38 752.003 L2036.38 747.304 Q2038.46 748.439 2040.68 748.994 Q2042.91 749.55 2045.38 749.55 Q2049.39 749.55 2051.73 747.443 Q2054.06 745.337 2054.06 741.726 Q2054.06 738.115 2051.73 736.008 Q2049.39 733.902 2045.38 733.902 Q2043.51 733.902 2041.63 734.318 Q2039.78 734.735 2037.84 735.615 L2037.84 718.254 Z" fill="#000000" fill-rule="evenodd" fill-opacity="1" /><path clip-path="url(#clip540)" d="M 0 0 M2001.87 597.158 L2009.5 597.158 L2009.5 570.792 L2001.19 572.459 L2001.19 568.199 L2009.46 566.533 L2014.13 566.533 L2014.13 597.158 L2021.77 597.158 L2021.77 601.093 L2001.87 601.093 L2001.87 597.158 Z" fill="#000000" fill-rule="evenodd" fill-opacity="1" /><path clip-path="url(#clip540)" d="M 0 0 M2026.84 595.213 L2031.73 595.213 L2031.73 601.093 L2026.84 601.093 L2026.84 595.213 Z" fill="#000000" fill-rule="evenodd" fill-opacity="1" /><path clip-path="url(#clip540)" d="M 0 0 M2046.8 569.611 Q2043.18 569.611 2041.36 573.176 Q2039.55 576.718 2039.55 583.847 Q2039.55 590.954 2041.36 594.519 Q2043.18 598.06 2046.8 598.06 Q2050.43 598.06 2052.24 594.519 Q2054.06 590.954 2054.06 583.847 Q2054.06 576.718 2052.24 573.176 Q2050.43 569.611 2046.8 569.611 M2046.8 565.908 Q2052.61 565.908 2055.66 570.514 Q2058.74 575.098 2058.74 583.847 Q2058.74 592.574 2055.66 597.181 Q2052.61 601.764 2046.8 601.764 Q2040.99 601.764 2037.91 597.181 Q2034.85 592.574 2034.85 583.847 Q2034.85 575.098 2037.91 570.514 Q2040.99 565.908 2046.8 565.908 Z" fill="#000000" fill-rule="evenodd" fill-opacity="1" /><path clip-path="url(#clip540)" d="M 0 0 M2002.86 445.437 L2010.5 445.437 L2010.5 419.071 L2002.19 420.738 L2002.19 416.479 L2010.45 414.812 L2015.13 414.812 L2015.13 445.437 L2022.77 445.437 L2022.77 449.372 L2002.86 449.372 L2002.86 445.437 Z" fill="#000000" fill-rule="evenodd" fill-opacity="1" /><path clip-path="url(#clip540)" d="M 0 0 M2027.84 443.492 L2032.72 443.492 L2032.72 449.372 L2027.84 449.372 L2027.84 443.492 Z" fill="#000000" fill-rule="evenodd" fill-opacity="1" /><path clip-path="url(#clip540)" d="M 0 0 M2037.84 414.812 L2056.19 414.812 L2056.19 418.747 L2042.12 418.747 L2042.12 427.219 Q2043.14 426.872 2044.16 426.71 Q2045.18 426.525 2046.19 426.525 Q2051.98 426.525 2055.36 429.696 Q2058.74 432.867 2058.74 438.284 Q2058.74 443.863 2055.27 446.965 Q2051.8 450.043 2045.48 450.043 Q2043.3 450.043 2041.03 449.673 Q2038.79 449.303 2036.38 448.562 L2036.38 443.863 Q2038.46 444.997 2040.68 445.553 Q2042.91 446.108 2045.38 446.108 Q2049.39 446.108 2051.73 444.002 Q2054.06 441.895 2054.06 438.284 Q2054.06 434.673 2051.73 432.567 Q2049.39 430.46 2045.38 430.46 Q2043.51 430.46 2041.63 430.877 Q2039.78 431.293 2037.84 432.173 L2037.84 414.812 Z" fill="#000000" fill-rule="evenodd" fill-opacity="1" /><path clip-path="url(#clip540)" d="M 0 0 M2005.45 293.716 L2021.77 293.716 L2021.77 297.651 L1999.83 297.651 L1999.83 293.716 Q2002.49 290.961 2007.07 286.332 Q2011.68 281.679 2012.86 280.337 Q2015.11 277.813 2015.99 276.077 Q2016.89 274.318 2016.89 272.628 Q2016.89 269.874 2014.94 268.138 Q2013.02 266.401 2009.92 266.401 Q2007.72 266.401 2005.27 267.165 Q2002.84 267.929 2000.06 269.48 L2000.06 264.758 Q2002.88 263.624 2005.34 263.045 Q2007.79 262.466 2009.83 262.466 Q2015.2 262.466 2018.39 265.151 Q2021.59 267.837 2021.59 272.327 Q2021.59 274.457 2020.78 276.378 Q2019.99 278.276 2017.88 280.869 Q2017.31 281.54 2014.2 284.758 Q2011.1 287.952 2005.45 293.716 Z" fill="#000000" fill-rule="evenodd" fill-opacity="1" /><path clip-path="url(#clip540)" d="M 0 0 M2026.84 291.772 L2031.73 291.772 L2031.73 297.651 L2026.84 297.651 L2026.84 291.772 Z" fill="#000000" fill-rule="evenodd" fill-opacity="1" /><path clip-path="url(#clip540)" d="M 0 0 M2046.8 266.17 Q2043.18 266.17 2041.36 269.735 Q2039.55 273.276 2039.55 280.406 Q2039.55 287.512 2041.36 291.077 Q2043.18 294.619 2046.8 294.619 Q2050.43 294.619 2052.24 291.077 Q2054.06 287.512 2054.06 280.406 Q2054.06 273.276 2052.24 269.735 Q2050.43 266.17 2046.8 266.17 M2046.8 262.466 Q2052.61 262.466 2055.66 267.073 Q2058.74 271.656 2058.74 280.406 Q2058.74 289.133 2055.66 293.739 Q2052.61 298.323 2046.8 298.323 Q2040.99 298.323 2037.91 293.739 Q2034.85 289.133 2034.85 280.406 Q2034.85 271.656 2037.91 267.073 Q2040.99 262.466 2046.8 262.466 Z" fill="#000000" fill-rule="evenodd" fill-opacity="1" /><path clip-path="url(#clip540)" d="M 0 0 M2006.45 141.995 L2022.77 141.995 L2022.77 145.93 L2000.82 145.93 L2000.82 141.995 Q2003.49 139.241 2008.07 134.611 Q2012.68 129.958 2013.86 128.616 Q2016.1 126.093 2016.98 124.357 Q2017.88 122.597 2017.88 120.907 Q2017.88 118.153 2015.94 116.417 Q2014.02 114.681 2010.92 114.681 Q2008.72 114.681 2006.26 115.445 Q2003.83 116.208 2001.06 117.759 L2001.06 113.037 Q2003.88 111.903 2006.33 111.324 Q2008.79 110.745 2010.82 110.745 Q2016.19 110.745 2019.39 113.431 Q2022.58 116.116 2022.58 120.607 Q2022.58 122.736 2021.77 124.657 Q2020.99 126.556 2018.88 129.148 Q2018.3 129.819 2015.2 133.037 Q2012.1 136.231 2006.45 141.995 Z" fill="#000000" fill-rule="evenodd" fill-opacity="1" /><path clip-path="url(#clip540)" d="M 0 0 M2027.84 140.051 L2032.72 140.051 L2032.72 145.93 L2027.84 145.93 L2027.84 140.051 Z" fill="#000000" fill-rule="evenodd" fill-opacity="1" /><path clip-path="url(#clip540)" d="M 0 0 M2037.84 111.37 L2056.19 111.37 L2056.19 115.306 L2042.12 115.306 L2042.12 123.778 Q2043.14 123.431 2044.16 123.269 Q2045.18 123.083 2046.19 123.083 Q2051.98 123.083 2055.36 126.255 Q2058.74 129.426 2058.74 134.843 Q2058.74 140.421 2055.27 143.523 Q2051.8 146.602 2045.48 146.602 Q2043.3 146.602 2041.03 146.231 Q2038.79 145.861 2036.38 145.12 L2036.38 140.421 Q2038.46 141.556 2040.68 142.111 Q2042.91 142.667 2045.38 142.667 Q2049.39 142.667 2051.73 140.56 Q2054.06 138.454 2054.06 134.843 Q2054.06 131.231 2051.73 129.125 Q2049.39 127.019 2045.38 127.019 Q2043.51 127.019 2041.63 127.435 Q2039.78 127.852 2037.84 128.732 L2037.84 111.37 Z" fill="#000000" fill-rule="evenodd" fill-opacity="1" /><path clip-path="url(#clip540)" d="M 0 0 M1921.39 588.579 L1958.34 588.579 L1958.34 580.813 Q1958.34 570.978 1953.89 566.427 Q1949.43 561.843 1939.82 561.843 Q1930.27 561.843 1925.85 566.427 Q1921.39 570.978 1921.39 580.813 L1921.39 588.579 M1916.11 595.009 L1916.11 581.8 Q1916.11 567.986 1921.87 561.525 Q1927.6 555.064 1939.82 555.064 Q1952.11 555.064 1957.87 561.557 Q1963.63 568.05 1963.63 581.8 L1963.63 595.009 L1916.11 595.009 Z" fill="#000000" fill-rule="evenodd" fill-opacity="1" /><path clip-path="url(#clip540)" d="M 0 0 M1944.34 518.429 L1947.2 518.429 L1947.2 545.356 Q1953.25 544.974 1956.43 541.728 Q1959.59 538.449 1959.59 532.625 Q1959.59 529.251 1958.76 526.1 Q1957.93 522.917 1956.28 519.798 L1961.81 519.798 Q1963.15 522.949 1963.85 526.259 Q1964.55 529.569 1964.55 532.975 Q1964.55 541.505 1959.59 546.502 Q1954.62 551.467 1946.15 551.467 Q1937.4 551.467 1932.28 546.757 Q1927.12 542.014 1927.12 533.993 Q1927.12 526.8 1931.77 522.631 Q1936.38 518.429 1944.34 518.429 M1942.62 524.286 Q1937.82 524.349 1934.95 526.991 Q1932.09 529.601 1932.09 533.93 Q1932.09 538.831 1934.86 541.791 Q1937.62 544.72 1942.65 545.165 L1942.62 524.286 Z" fill="#000000" fill-rule="evenodd" fill-opacity="1" /><path clip-path="url(#clip540)" d="M 0 0 M1942.11 482.654 L1963.63 482.654 L1963.63 488.511 L1942.3 488.511 Q1937.24 488.511 1934.73 490.484 Q1932.21 492.457 1932.21 496.404 Q1932.21 501.146 1935.24 503.884 Q1938.26 506.621 1943.48 506.621 L1963.63 506.621 L1963.63 512.509 L1927.98 512.509 L1927.98 506.621 L1933.52 506.621 Q1930.3 504.52 1928.71 501.688 Q1927.12 498.823 1927.12 495.099 Q1927.12 488.956 1930.94 485.805 Q1934.73 482.654 1942.11 482.654 Z" fill="#000000" fill-rule="evenodd" fill-opacity="1" /><path clip-path="url(#clip540)" d="M 0 0 M1929.03 453.786 L1934.57 453.786 Q1933.3 456.268 1932.66 458.942 Q1932.02 461.615 1932.02 464.48 Q1932.02 468.84 1933.36 471.037 Q1934.7 473.201 1937.37 473.201 Q1939.41 473.201 1940.58 471.641 Q1941.73 470.082 1942.78 465.371 L1943.23 463.366 Q1944.56 457.128 1947.01 454.518 Q1949.43 451.876 1953.79 451.876 Q1958.76 451.876 1961.65 455.823 Q1964.55 459.738 1964.55 466.612 Q1964.55 469.477 1963.98 472.596 Q1963.44 475.684 1962.32 479.121 L1956.28 479.121 Q1957.96 475.875 1958.82 472.724 Q1959.65 469.573 1959.65 466.485 Q1959.65 462.347 1958.25 460.119 Q1956.82 457.891 1954.24 457.891 Q1951.85 457.891 1950.58 459.515 Q1949.31 461.106 1948.13 466.549 L1947.65 468.586 Q1946.5 474.029 1944.15 476.448 Q1941.76 478.866 1937.62 478.866 Q1932.6 478.866 1929.86 475.302 Q1927.12 471.737 1927.12 465.18 Q1927.12 461.934 1927.6 459.069 Q1928.08 456.205 1929.03 453.786 Z" fill="#000000" fill-rule="evenodd" fill-opacity="1" /><path clip-path="url(#clip540)" d="M 0 0 M1927.98 445.733 L1927.98 439.877 L1963.63 439.877 L1963.63 445.733 L1927.98 445.733 M1914.1 445.733 L1914.1 439.877 L1921.52 439.877 L1921.52 445.733 L1914.1 445.733 Z" fill="#000000" fill-rule="evenodd" fill-opacity="1" /><path clip-path="url(#clip540)" d="M 0 0 M1917.86 427.941 L1927.98 427.941 L1927.98 415.878 L1932.53 415.878 L1932.53 427.941 L1951.88 427.941 Q1956.24 427.941 1957.49 426.763 Q1958.73 425.554 1958.73 421.893 L1958.73 415.878 L1963.63 415.878 L1963.63 421.893 Q1963.63 428.673 1961.11 431.251 Q1958.57 433.829 1951.88 433.829 L1932.53 433.829 L1932.53 438.126 L1927.98 438.126 L1927.98 433.829 L1917.86 433.829 L1917.86 427.941 Z" fill="#000000" fill-rule="evenodd" fill-opacity="1" /><path clip-path="url(#clip540)" d="M 0 0 M1966.94 394.903 Q1973.3 397.385 1975.25 399.741 Q1977.19 402.096 1977.19 406.043 L1977.19 410.722 L1972.29 410.722 L1972.29 407.284 Q1972.29 404.865 1971.14 403.528 Q1969.99 402.192 1965.73 400.568 L1963.06 399.518 L1927.98 413.936 L1927.98 407.73 L1955.86 396.59 L1927.98 385.45 L1927.98 379.243 L1966.94 394.903 Z" fill="#000000" fill-rule="evenodd" fill-opacity="1" /><path clip-path="url(#clip540)" d="M 0 0 M3048.63 43.8146 L3022.83 43.8146 Q3023.43 55.9268 3026.23 61.0714 Q3029.71 67.3908 3035.75 67.3908 Q3041.82 67.3908 3045.19 61.0309 Q3048.14 55.4407 3048.63 43.8146 M3048.51 36.928 Q3047.37 25.4235 3045.19 21.3726 Q3041.7 14.9721 3035.75 14.9721 Q3029.55 14.9721 3026.27 21.2916 Q3023.68 26.3957 3022.91 36.928 L3048.51 36.928 M3035.75 8.89579 Q3045.47 8.89579 3051.02 17.4837 Q3056.57 26.0311 3056.57 41.1815 Q3056.57 56.2914 3051.02 64.8793 Q3045.47 73.5077 3035.75 73.5077 Q3025.99 73.5077 3020.48 64.8793 Q3014.93 56.2914 3014.93 41.1815 Q3014.93 26.0311 3020.48 17.4837 Q3025.99 8.89579 3035.75 8.89579 Z" fill="#000000" fill-rule="evenodd" fill-opacity="1" /><polyline clip-path="url(#clip543)" style="stroke:#009af9; stroke-width:4; stroke-opacity:1; fill:none" points="
  2170.65,887.252 2179.34,887.251 2188.04,887.249 2196.73,887.245 2205.42,887.238 2214.12,887.226 2222.81,887.206 2231.51,887.174 2240.2,887.127 2248.9,887.057 
  2257.59,886.957 2266.29,886.821 2274.98,886.641 2283.67,886.412 2292.37,886.133 2301.06,885.805 2309.76,885.438 2318.45,885.045 2327.15,884.649 2335.84,884.272 
  2344.54,883.943 2353.23,883.686 2361.93,883.523 2370.62,883.467 2379.31,883.519 2388.01,883.673 2396.7,883.908 2405.4,884.196 2414.09,884.502 2422.79,884.79 
  2431.48,885.019 2440.18,885.154 2448.87,885.163 2457.56,885.016 2466.26,884.692 2474.95,884.174 2483.65,883.453 2492.34,882.526 2501.04,881.397 2509.73,880.075 
  2518.43,878.574 2527.12,876.91 2535.81,875.096 2544.51,873.137 2553.2,871.024 2561.9,868.729 2570.59,866.203 2579.29,863.368 2587.98,860.122 2596.68,856.345 
  2605.37,851.909 2614.07,846.688 2622.76,840.582 2631.45,833.529 2640.15,825.525 2648.84,816.631 2657.54,806.984 2666.23,796.786 2674.93,786.293 2683.62,775.797 
  2692.32,765.59 2701.01,755.943 2709.7,747.074 2718.4,739.13 2727.09,732.167 2735.79,726.151 2744.48,720.956 2753.18,716.377 2761.87,712.135 2770.57,707.898 
  2779.26,703.289 2787.96,697.909 2796.65,691.354 2805.34,683.243 2814.04,673.249 2822.73,661.137 2831.43,646.794 2840.12,630.258 2848.82,611.733 2857.51,591.58 
  2866.21,570.288 2874.9,548.425 2883.59,526.575 2892.29,505.268 2900.98,484.917 2909.68,465.784 2918.37,447.954 2927.07,431.36 2935.76,415.822 2944.46,401.101 
  2953.15,386.969 2961.84,373.253 2970.54,359.866 2979.23,346.805 2987.93,334.128 2996.62,321.909 3005.32,310.186 3014.01,298.93 3022.71,288.029 3031.4,277.301 
  3040.1,266.538 3048.79,255.553 3057.48,244.246 3066.18,232.635 3074.87,220.871 3083.57,209.217 3092.26,197.999 3100.96,187.536 3109.65,178.065 3118.35,169.689 
  3127.04,162.343 3135.73,155.797 3144.43,149.703 3153.12,143.664 3161.82,137.319 3170.51,130.43 3179.21,122.947 3187.9,115.044 3196.6,107.113 3205.29,99.7132 
  3213.99,93.4909 3222.68,89.0806 3231.37,86.9997 3240.07,87.5632 3248.76,90.8293 3257.46,96.5877 3266.15,104.391 3274.85,113.626 3283.54,123.611 3292.24,133.698 
  3300.93,143.381 3309.62,152.362 3318.32,160.6 3327.01,168.311 3335.71,175.925 3344.4,184.026 3353.1,193.249 3361.79,204.194 3370.49,217.326 3379.18,232.913 
  3387.87,250.985 3396.57,271.328 3405.26,293.522 3413.96,316.991 3422.65,341.086 3431.35,365.157 3440.04,388.633 3448.74,411.075 3457.43,432.206 3466.13,451.925 
  3474.82,470.289 3483.51,487.489 3492.21,503.807 3500.9,519.583 3509.6,535.17 3518.29,550.904 3526.99,567.081 3535.68,583.929 3544.38,601.596 3553.07,620.138 
  3561.76,639.51 3570.46,659.573 3579.15,680.095 3587.85,700.772 3596.54,721.251 3605.24,741.158 3613.93,760.135 3622.63,777.868 3631.32,794.109 3640.02,808.697 
  3648.71,821.561 3657.4,832.713 3666.1,842.241 3674.79,850.282 3683.49,857.009 3692.18,862.603 3700.88,867.244 3709.57,871.092 3718.27,874.285 3726.96,876.935 
  3735.65,879.13 3744.35,880.94 3753.04,882.42 3761.74,883.617 3770.43,884.569 3779.13,885.312 3787.82,885.88 3796.52,886.304 3805.21,886.613 3813.9,886.832 
  3822.6,886.984 3831.29,887.085 3839.99,887.151 3848.68,887.193 3857.38,887.219 3866.07,887.235 3874.77,887.244 3883.46,887.248 3892.16,887.251 3900.85,887.252 
  
  "/>
</svg>
